<?xml version="1.0" encoding="UTF-8"?>
<svg version="1.1" xmlns="http://www.w3.org/2000/svg" width="500" height="500">
<path d="M0 0 C9.65241548 6.0218438 19.04230584 12.19346656 27.70458984 19.58642578 C28.61337891 20.27607422 29.52216797 20.96572266 30.45849609 21.67626953 C31.19970703 22.30662109 31.94091797 22.93697266 32.70458984 23.58642578 C32.70458984 24.24642578 32.70458984 24.90642578 32.70458984 25.58642578 C33.28724609 25.84423828 33.86990234 26.10205078 34.47021484 26.36767578 C36.88488015 27.68476595 38.52199162 29.13730962 40.45458984 31.08642578 C41.06818359 31.69486328 41.68177734 32.30330078 42.31396484 32.93017578 C43.70458984 34.58642578 43.70458984 34.58642578 43.70458984 36.58642578 C44.36458984 36.58642578 45.02458984 36.58642578 45.70458984 36.58642578 C47.08984375 38.29199219 47.08984375 38.29199219 48.68115234 40.68798828 C49.26509766 41.56277832 49.84904297 42.43756836 50.45068359 43.33886719 C51.07072266 44.28681152 51.69076172 45.23475586 52.32958984 46.21142578 C52.96767578 47.18128418 53.60576172 48.15114258 54.26318359 49.15039062 C58.58469227 55.76577547 62.78141048 62.38945136 66.51269531 69.35986328 C67.42919479 71.0719639 68.35435218 72.77943203 69.28320312 74.48486328 C76.61830234 87.99294552 83.38941784 101.35654025 87.92480469 116.09130859 C88.76481499 118.77913116 89.66195966 121.44356437 90.56787109 124.10986328 C97.92605454 146.01628055 99.93878939 167.06516256 99.95458984 190.08642578 C99.95526459 190.97349213 99.95593933 191.86055847 99.95663452 192.77450562 C99.94075747 205.92797725 99.55185078 218.69528376 96.70458984 231.58642578 C96.53830078 232.38693359 96.37201172 233.18744141 96.20068359 234.01220703 C90.42905536 261.16023613 73.64289896 286.46749923 53.70458984 305.58642578 C53.04458984 305.58642578 52.38458984 305.58642578 51.70458984 305.58642578 C51.70458984 306.24642578 51.70458984 306.90642578 51.70458984 307.58642578 C50.36621094 308.87988281 50.36621094 308.87988281 48.47802734 310.34423828 C47.78314209 310.88363037 47.08825684 311.42302246 46.37231445 311.97875977 C45.23741577 312.83642944 45.23741577 312.83642944 44.07958984 313.71142578 C42.91858765 314.58939819 42.91858765 314.58939819 41.73413086 315.48510742 C27.23820035 326.27405765 12.10140074 332.83886906 -5.29541016 337.33642578 C-6.05289551 337.53518311 -6.81038086 337.73394043 -7.59082031 337.9387207 C-21.65626663 341.37769432 -35.74202758 341.93564452 -50.14770508 341.90209961 C-52.96231228 341.89894884 -55.7758543 341.92246902 -58.59033203 341.94775391 C-102.03386443 342.09809557 -139.88235281 327.73227569 -170.78759766 297.11767578 C-171.61517578 296.28236328 -172.44275391 295.44705078 -173.29541016 294.58642578 C-174.11138672 293.76787109 -174.92736328 292.94931641 -175.76806641 292.10595703 C-205.53276855 260.99443579 -219.5101408 217.29953217 -219.54541016 174.83642578 C-219.54642227 173.73944366 -219.54642227 173.73944366 -219.54745483 172.62030029 C-219.52959978 160.39643067 -218.81797338 148.58101526 -216.29541016 136.58642578 C-216.12912109 135.7757666 -215.96283203 134.96510742 -215.79150391 134.12988281 C-210.69027841 110.16829303 -197.71751574 92.16611603 -182.29541016 73.58642578 C-180.56278913 71.4850614 -178.8349937 69.37985345 -177.10791016 67.27392578 C-176.41310547 66.43216797 -175.71830078 65.59041016 -175.00244141 64.72314453 C-173.17316822 62.49618937 -173.17316822 62.49618937 -171.29541016 59.58642578 C-170.63541016 59.58642578 -169.97541016 59.58642578 -169.29541016 59.58642578 C-169.29541016 58.92642578 -169.29541016 58.26642578 -169.29541016 57.58642578 C-167.3128059 55.89910301 -165.31217595 54.23276521 -163.29541016 52.58642578 C-162.80041016 51.59642578 -162.80041016 51.59642578 -162.29541016 50.58642578 C-161.63541016 50.58642578 -160.97541016 50.58642578 -160.29541016 50.58642578 C-159.96541016 49.59642578 -159.63541016 48.60642578 -159.29541016 47.58642578 C-158.63541016 47.58642578 -157.97541016 47.58642578 -157.29541016 47.58642578 C-156.96541016 46.59642578 -156.63541016 45.60642578 -156.29541016 44.58642578 C-153.40435033 41.84939783 -150.2332117 39.45338631 -147.09814453 37.00195312 C-145.15736493 35.47803112 -143.23496465 33.93233414 -141.31103516 32.38720703 C-126.13664978 20.33499281 -110.51277077 12.53559305 -91.96582031 6.87548828 C-86.85428369 5.29440026 -82.79358366 3.27078686 -78.42041016 0.21142578 C-53.96943268 -16.16996597 -24.88149771 -15.32268366 0 0 Z " fill="#FFFFFF" transform="translate(300.29541015625,60.41357421875)"/>
<path d="M0 0 C9.65241548 6.0218438 19.04230584 12.19346656 27.70458984 19.58642578 C28.61337891 20.27607422 29.52216797 20.96572266 30.45849609 21.67626953 C31.19970703 22.30662109 31.94091797 22.93697266 32.70458984 23.58642578 C32.70458984 24.24642578 32.70458984 24.90642578 32.70458984 25.58642578 C33.28724609 25.84423828 33.86990234 26.10205078 34.47021484 26.36767578 C36.88488015 27.68476595 38.52199162 29.13730962 40.45458984 31.08642578 C41.06818359 31.69486328 41.68177734 32.30330078 42.31396484 32.93017578 C43.70458984 34.58642578 43.70458984 34.58642578 43.70458984 36.58642578 C44.36458984 36.58642578 45.02458984 36.58642578 45.70458984 36.58642578 C47.08984375 38.29199219 47.08984375 38.29199219 48.68115234 40.68798828 C49.26509766 41.56277832 49.84904297 42.43756836 50.45068359 43.33886719 C51.07072266 44.28681152 51.69076172 45.23475586 52.32958984 46.21142578 C52.96767578 47.18128418 53.60576172 48.15114258 54.26318359 49.15039062 C58.58469227 55.76577547 62.78141048 62.38945136 66.51269531 69.35986328 C67.42919479 71.0719639 68.35435218 72.77943203 69.28320312 74.48486328 C76.61830234 87.99294552 83.38941784 101.35654025 87.92480469 116.09130859 C88.76481499 118.77913116 89.66195966 121.44356437 90.56787109 124.10986328 C97.92605454 146.01628055 99.93878939 167.06516256 99.95458984 190.08642578 C99.95526459 190.97349213 99.95593933 191.86055847 99.95663452 192.77450562 C99.94075747 205.92797725 99.55185078 218.69528376 96.70458984 231.58642578 C96.53830078 232.38693359 96.37201172 233.18744141 96.20068359 234.01220703 C90.42905536 261.16023613 73.64289896 286.46749923 53.70458984 305.58642578 C53.04458984 305.58642578 52.38458984 305.58642578 51.70458984 305.58642578 C51.70458984 306.24642578 51.70458984 306.90642578 51.70458984 307.58642578 C50.36621094 308.87988281 50.36621094 308.87988281 48.47802734 310.34423828 C47.78314209 310.88363037 47.08825684 311.42302246 46.37231445 311.97875977 C45.23741577 312.83642944 45.23741577 312.83642944 44.07958984 313.71142578 C42.91858765 314.58939819 42.91858765 314.58939819 41.73413086 315.48510742 C27.23820035 326.27405765 12.10140074 332.83886906 -5.29541016 337.33642578 C-6.05289551 337.53518311 -6.81038086 337.73394043 -7.59082031 337.9387207 C-21.65626663 341.37769432 -35.74202758 341.93564452 -50.14770508 341.90209961 C-52.96231228 341.89894884 -55.7758543 341.92246902 -58.59033203 341.94775391 C-102.03386443 342.09809557 -139.88235281 327.73227569 -170.78759766 297.11767578 C-171.61517578 296.28236328 -172.44275391 295.44705078 -173.29541016 294.58642578 C-174.11138672 293.76787109 -174.92736328 292.94931641 -175.76806641 292.10595703 C-205.53276855 260.99443579 -219.5101408 217.29953217 -219.54541016 174.83642578 C-219.54642227 173.73944366 -219.54642227 173.73944366 -219.54745483 172.62030029 C-219.52959978 160.39643067 -218.81797338 148.58101526 -216.29541016 136.58642578 C-216.12912109 135.7757666 -215.96283203 134.96510742 -215.79150391 134.12988281 C-210.69027841 110.16829303 -197.71751574 92.16611603 -182.29541016 73.58642578 C-180.56278913 71.4850614 -178.8349937 69.37985345 -177.10791016 67.27392578 C-176.41310547 66.43216797 -175.71830078 65.59041016 -175.00244141 64.72314453 C-173.17316822 62.49618937 -173.17316822 62.49618937 -171.29541016 59.58642578 C-170.63541016 59.58642578 -169.97541016 59.58642578 -169.29541016 59.58642578 C-169.29541016 58.92642578 -169.29541016 58.26642578 -169.29541016 57.58642578 C-167.3128059 55.89910301 -165.31217595 54.23276521 -163.29541016 52.58642578 C-162.80041016 51.59642578 -162.80041016 51.59642578 -162.29541016 50.58642578 C-161.63541016 50.58642578 -160.97541016 50.58642578 -160.29541016 50.58642578 C-159.96541016 49.59642578 -159.63541016 48.60642578 -159.29541016 47.58642578 C-158.63541016 47.58642578 -157.97541016 47.58642578 -157.29541016 47.58642578 C-156.96541016 46.59642578 -156.63541016 45.60642578 -156.29541016 44.58642578 C-153.40435033 41.84939783 -150.2332117 39.45338631 -147.09814453 37.00195312 C-145.15736493 35.47803112 -143.23496465 33.93233414 -141.31103516 32.38720703 C-126.13664978 20.33499281 -110.51277077 12.53559305 -91.96582031 6.87548828 C-86.85428369 5.29440026 -82.79358366 3.27078686 -78.42041016 0.21142578 C-53.96943268 -16.16996597 -24.88149771 -15.32268366 0 0 Z M-56.29541016 9.58642578 C-55.94478516 10.26705078 -55.59416016 10.94767578 -55.23291016 11.64892578 C-54.06953819 15.29415795 -54.66681405 17.85441116 -55.29541016 21.58642578 C-55.87395752 21.53929443 -56.45250488 21.49216309 -57.04858398 21.44360352 C-70.75212731 20.12553613 -70.75212731 20.12553613 -82.67041016 25.71142578 C-84.24553074 27.30401997 -85.7909624 28.92690836 -87.29541016 30.58642578 C-88.59168743 31.68911912 -89.90237011 32.77532704 -91.23291016 33.83642578 C-93.29338235 35.60254481 -94.76615933 37.17822474 -96.48291016 39.33642578 C-98.38529187 41.69800309 -99.43356378 42.66053431 -102.29541016 43.58642578 C-105.29541016 43.77392578 -105.29541016 43.77392578 -108.29541016 43.58642578 C-109.03791016 43.54517578 -109.78041016 43.50392578 -110.54541016 43.46142578 C-112.29541016 42.58642578 -112.29541016 42.58642578 -113.54541016 39.52392578 C-113.79291016 38.55455078 -114.04041016 37.58517578 -114.29541016 36.58642578 C-120.6371858 39.63476721 -125.55684188 43.38950804 -130.68212891 48.18798828 C-133.36522766 50.65050343 -136.14179475 52.93386952 -138.98291016 55.21142578 C-145.32117701 60.35513883 -150.84069663 65.92752265 -156.15869141 72.10595703 C-157.85288729 74.07271094 -159.5597208 76.02566651 -161.27587891 77.97314453 C-184.47518256 104.37211383 -199.60569349 129.47539801 -200.29541016 165.58642578 C-200.32610596 166.86718994 -200.32610596 166.86718994 -200.35742188 168.17382812 C-201.09379218 202.67368997 -193.04715603 243.80814165 -169.29541016 270.58642578 C-168.63541016 270.58642578 -167.97541016 270.58642578 -167.29541016 270.58642578 C-167.00666016 271.18455078 -166.71791016 271.78267578 -166.42041016 272.39892578 C-165.2479899 274.7797037 -165.2479899 274.7797037 -163.29541016 277.58642578 C-162.63541016 277.58642578 -161.97541016 277.58642578 -161.29541016 277.58642578 C-161.04017578 278.16392578 -160.78494141 278.74142578 -160.52197266 279.33642578 C-155.12033563 289.24516123 -143.33126046 296.22071749 -134.29541016 302.58642578 C-133.72773926 302.98812988 -133.16006836 303.38983398 -132.57519531 303.80371094 C-123.73837909 309.94509646 -114.49158615 313.46815471 -104.29541016 316.58642578 C-103.65313477 316.78751953 -103.01085937 316.98861328 -102.34912109 317.19580078 C-77.93817032 324.72643281 -50.42480606 325.19678836 -25.29541016 321.58642578 C-24.51875 321.48313965 -23.74208984 321.37985352 -22.94189453 321.2734375 C-0.57973182 318.26672111 19.3734573 310.22322259 36.70458984 295.58642578 C36.70458984 294.92642578 36.70458984 294.26642578 36.70458984 293.58642578 C37.28208984 293.33892578 37.85958984 293.09142578 38.45458984 292.83642578 C41.03398964 291.4034259 42.76580576 289.80217902 44.70458984 287.58642578 C44.70458984 286.92642578 44.70458984 286.26642578 44.70458984 285.58642578 C45.54570312 285.27705078 45.54570312 285.27705078 46.40380859 284.96142578 C49.5348724 283.09022975 51.38835502 280.47501098 53.51708984 277.58642578 C53.95649902 276.99974121 54.3959082 276.41305664 54.84863281 275.80859375 C55.73372177 274.62146859 56.61464886 273.43122814 57.49121094 272.23779297 C58.52709172 270.82799466 59.57728565 269.42873196 60.63037109 268.03173828 C70.04752345 255.17245437 75.5917629 242.16263157 78.70458984 226.58642578 C78.89077881 225.71155518 79.07696777 224.83668457 79.26879883 223.93530273 C81.15710803 213.74817267 81.04179947 203.52494132 81.02026367 193.1965332 C81.01712058 190.05465406 81.04057125 186.91373493 81.06591797 183.77197266 C81.13077969 164.85030893 79.01014718 147.53262294 72.79077148 129.63061523 C72.01532718 127.39384138 71.26947561 125.14873764 70.52685547 122.90087891 C65.68315653 108.48543701 59.2218939 94.90034264 51.89208984 81.58642578 C51.38637451 80.66635742 50.88065918 79.74628906 50.35961914 78.79833984 C43.29905704 66.10317015 35.98022388 53.96029724 25.70458984 43.58642578 C25.12322266 42.96767578 24.54185547 42.34892578 23.94287109 41.71142578 C9.42930115 26.55506369 -14.60268563 7.9987582 -36.51025391 7.41845703 C-38.08444132 7.40658135 -39.65867847 7.40021087 -41.23291016 7.39892578 C-42.01859375 7.38667969 -42.80427734 7.37443359 -43.61376953 7.36181641 C-48.24465924 7.35019074 -51.93748582 7.8166748 -56.29541016 9.58642578 Z " fill="#000000" transform="translate(300.29541015625,60.41357421875)"/>
<path d="M0 0 C3.29456512 2.23559776 3.84930479 5.31777532 5 9 C5.99 10.485 5.99 10.485 7 12 C7 16.45595499 6.56395576 18.39374755 3.5 21.6875 C1.62891571 23.11095647 0.14261882 23.95737223 -2.1171875 24.6328125 C-6.46791016 25.94254562 -8.89033437 27.43930302 -11.109375 31.421875 C-12.86863819 34.9091068 -14.46471774 38.47116894 -16.07226562 42.03027344 C-26.12929216 63.38292872 -43.893909 80.75065385 -66 89 C-82.50636842 94.04113414 -100.3981066 88.76892191 -115.125 80.9375 C-124.66052385 75.07046857 -133.68233571 66.94829215 -137 56 C-137.28101563 55.24589844 -137.56203125 54.49179687 -137.8515625 53.71484375 C-140.3222789 46.61442046 -140.68791602 39.46849246 -141 32 C-141.78632813 31.87109375 -142.57265625 31.7421875 -143.3828125 31.609375 C-146 31 -146 31 -147.875 29.25 C-149 27 -149 27 -148.9375 24.4375 C-147.73866605 21.32053172 -146.93548343 20.61451589 -144 19 C-127.40904368 12.20685253 -107.81167679 14.1276166 -90.5625 17 C-68.19671274 20.69033892 -42.58274738 21.14582598 -21 13 C-17.40312343 9.87051417 -14.49829428 6.26241197 -11.52734375 2.55078125 C-7.87436987 -1.1582485 -4.93524109 -1.36506669 0 0 Z " fill="#000000" transform="translate(319,253)"/>
<path d="M0 0 C9.47694197 0.10693305 18.9408671 1.56049076 28.296875 2.98828125 C48.18210023 5.94560693 68.1212846 6.5414212 88 3.1875 C89.12921875 3.00058594 90.2584375 2.81367188 91.421875 2.62109375 C92.27265625 2.47800781 93.1234375 2.33492188 94 2.1875 C85.30778907 21.94252483 70.70895185 35.90910342 51 44.1875 C39.45165855 48.03694715 26.38835874 43.26251466 16 38.1875 C6.39771905 32.8643366 0.83484714 26.64031892 -2.375 16.125 C-2.63410156 15.34833984 -2.89320313 14.57167969 -3.16015625 13.77148438 C-4.53406308 9.47893419 -5.41261594 5.7476175 -5 1.1875 C-3.46983173 -0.34266827 -2.14099141 0.0180827 0 0 Z " fill="#FFFFFF" transform="translate(197,282.8125)"/>
<path d="M0 0 C3.3125 0.9375 3.3125 0.9375 5.3125 3.9375 C5.0604822 8.59982933 3.7947247 11.16090095 0.8125 14.6875 C0.09191406 15.54730469 -0.62867188 16.40710938 -1.37109375 17.29296875 C-4.37374366 20.72095187 -7.42774128 24.099227 -10.5 27.46484375 C-13.75413992 31.14318406 -16.73889412 35.01234619 -19.6875 38.9375 C-17.71716797 38.99357422 -17.71716797 38.99357422 -15.70703125 39.05078125 C-13.97132636 39.11645657 -12.23565053 39.18290337 -10.5 39.25 C-9.63568359 39.27255859 -8.77136719 39.29511719 -7.88085938 39.31835938 C-3.04635193 39.52211256 0.38903272 39.80649542 4.3125 42.9375 C6.05943992 45.31969081 6.33526273 46.48224533 6.1875 49.4375 C5.09006966 52.57301525 3.9112302 53.86894552 1.3125 55.9375 C-1.703125 56.328125 -1.703125 56.328125 -4.9375 56.1875 C-6.01515625 56.15140625 -7.0928125 56.1153125 -8.203125 56.078125 C-9.02296875 56.03171875 -9.8428125 55.9853125 -10.6875 55.9375 C-4.60829529 59.42980909 1.56268183 61.29539194 8.32006836 63.01049805 C12.64912845 64.17712236 15.51395038 65.20370244 18.3125 68.9375 C18.875 71.875 18.875 71.875 18.3125 74.9375 C16.3125 77.875 16.3125 77.875 13.3125 79.9375 C-5.46870886 78.85164852 -21.90699383 68.61477804 -36.75 57.91796875 C-39.66872667 55.854819 -39.66872667 55.854819 -43 54.30078125 C-45.6875 52.9375 -45.6875 52.9375 -46.6875 50.9375 C-47.0625 47.625 -47.0625 47.625 -46.6875 43.9375 C-44.63423556 41.37091945 -42.3412524 39.47910241 -39.8203125 37.390625 C-35.54247579 33.76195417 -32.1564046 30.09756599 -28.80859375 25.60546875 C-26.05507274 22.14201598 -23.080434 18.92078958 -20.0625 15.6875 C-19.23649292 14.80179321 -19.23649292 14.80179321 -18.39379883 13.89819336 C-15.21850452 10.51526341 -11.98577526 7.20141823 -8.6875 3.9375 C-7.90375 3.15375 -7.12 2.37 -6.3125 1.5625 C-3.6875 -0.0625 -3.6875 -0.0625 0 0 Z " fill="#000000" transform="translate(318.6875,153.0625)"/>
<path d="M0 0 C6.86737986 1.74594403 10.41018185 6.71812882 14.84375 11.890625 C19.15233728 16.67388715 23.98819481 20.56062996 29.375 24.0625 C32.92551159 26.38446086 36.05893054 28.54579747 38.6875 31.9375 C39.3125 34.9375 39.3125 34.9375 38.6875 37.9375 C37.07207991 39.65388384 35.39730995 41.31512351 33.6875 42.9375 C32.93210938 43.71609375 32.17671875 44.4946875 31.3984375 45.296875 C26.35474345 50.45864884 21.14420796 55.14505805 15.48828125 59.625 C11.57756496 62.85393172 7.98637827 66.39505657 4.390625 69.96875 C1.07114093 72.38640892 -1.23407811 72.82842593 -5.3125 72.9375 C-8.3125 70.875 -8.3125 70.875 -10.3125 67.9375 C-10.23430185 64.10579052 -9.24938793 61.20798291 -7.3125 57.9375 C-5.4375 56.3046875 -5.4375 56.3046875 -3.3125 54.8125 C-1.12138319 53.25777373 0.78308225 51.84191775 2.6875 49.9375 C1.594375 49.669375 0.50125 49.40125 -0.625 49.125 C-5.84275937 47.44470461 -5.84275937 47.44470461 -7.3125 44.9375 C-7.8125 41.5625 -7.8125 41.5625 -7.3125 37.9375 C-5.3157272 35.28159831 -3.71579974 33.29899403 -0.40185547 32.4453125 C1.74356408 32.22345948 3.8434366 32.14234501 6 32.125 C6.74056641 32.09986328 7.48113281 32.07472656 8.24414062 32.04882812 C10.05802969 31.99031557 11.87281903 31.96095651 13.6875 31.9375 C12.76710937 31.18855469 11.84671875 30.43960938 10.8984375 29.66796875 C7.03175602 26.44195444 3.91940928 22.78628823 0.6875 18.9375 C-0.05757812 18.11507812 -0.80265625 17.29265625 -1.5703125 16.4453125 C-7.09922274 10.10729344 -7.09922274 10.10729344 -7.69921875 6.81640625 C-7.5 4.9375 -7.5 4.9375 -6.3125 1.9375 C-3.3125 -0.0625 -3.3125 -0.0625 0 0 Z " fill="#000000" transform="translate(168.3125,165.0625)"/>
</svg>
