<?xml version="1.0" encoding="UTF-8"?>
<svg version="1.1" xmlns="http://www.w3.org/2000/svg" width="500" height="500">
<path d="M0 0 C0.7955127 0.29124756 1.59102539 0.58249512 2.41064453 0.88256836 C8.44732038 3.16950614 13.72710246 6.0390951 19.125 9.5625 C19.93614258 10.08408691 20.74728516 10.60567383 21.58300781 11.14306641 C27.01479772 14.65582168 32.40231554 18.2355507 37.75 21.875 C38.3805127 22.30240479 39.01102539 22.72980957 39.66064453 23.17016602 C43.96161114 26.14053907 48.36769889 29.22179544 52 33 C52 33.66 52 34.32 52 35 C52.99 35.33 53.98 35.66 55 36 C55 36.66 55 37.32 55 38 C55.66 38 56.32 38 57 38 C57 38.66 57 39.32 57 40 C57.66 40 58.32 40 59 40 C60.62109375 41.64453125 60.62109375 41.64453125 62.4375 43.8125 C64.97339332 46.82463265 64.97339332 46.82463265 67.72265625 49.63671875 C69 51 69 51 69 53 C69.66 53 70.32 53 71 53 C71 53.66 71 54.32 71 55 C71.66 55 72.32 55 73 55 C74.63139937 56.92587579 76.13723225 58.84326717 77.625 60.875 C78.04523438 61.43058594 78.46546875 61.98617187 78.8984375 62.55859375 C82 66.73764712 82 66.73764712 82 69 C82.66 69 83.32 69 84 69 C86.6020866 72.49655387 88.54997977 75.89160936 90 80 C90.66 80 91.32 80 92 80 C95 84.38461538 95 84.38461538 95 87 C95.66 87 96.32 87 97 87 C97.66 88.98 98.32 90.96 99 93 C99.66 93 100.32 93 101 93 C124.89458852 135.97119461 137.33650326 179.37935011 124 228 C123.79391113 228.77811035 123.58782227 229.5562207 123.37548828 230.35791016 C115.24842819 260.76904077 99.56522935 291.72909973 77 314 C75.72769531 315.27037109 75.72769531 315.27037109 74.4296875 316.56640625 C39.40810621 349.96758602 -5.34235696 360.12031291 -52.15136719 359.109375 C-90.53117644 358.01865218 -127.13963756 349.45049446 -154.453125 320.58203125 C-156.09172948 318.90618576 -157.82416594 317.4369548 -159.625 315.9375 C-190.31257431 289.28620239 -208.15322767 251.37591667 -211 211 C-212.80551982 168.27280342 -204.7134625 123.20868437 -181.17480469 86.84399414 C-179.17744608 83.70890488 -177.41890185 80.44176012 -175.625 77.1875 C-172.37181944 71.33697789 -168.97177827 65.64656763 -165.3125 60.0390625 C-163.97903539 58.0481201 -163.97903539 58.0481201 -163 56 C-162.34 56 -161.68 56 -161 56 C-160.34 54.35 -159.68 52.7 -159 51 C-158.34 51 -157.68 51 -157 51 C-156.731875 50.443125 -156.46375 49.88625 -156.1875 49.3125 C-154.89100504 46.78774666 -153.57523677 44.36285516 -152 42 C-151.34 42 -150.68 42 -150 42 C-149.731875 41.2575 -149.46375 40.515 -149.1875 39.75 C-148.04723249 37.10938051 -146.90619694 35.14447156 -145 33 C-144.34 33 -143.68 33 -143 33 C-143 32.01 -143 31.02 -143 30 C-142.34 30 -141.68 30 -141 30 C-141 29.34 -141 28.68 -141 28 C-140.34 28 -139.68 28 -139 28 C-139 27.01 -139 26.02 -139 25 C-138.34 25 -137.68 25 -137 25 C-137 24.34 -137 23.68 -137 23 C-135.37897032 21.28891311 -133.70496537 19.62746694 -132 18 C-130.9171875 16.8553125 -130.9171875 16.8553125 -129.8125 15.6875 C-128 14 -128 14 -126 14 C-125.505 12.515 -125.505 12.515 -125 11 C-122.89132089 9.13181003 -120.79306723 7.39786222 -118.5625 5.6875 C-117.60960083 4.95164673 -117.60960083 4.95164673 -116.63745117 4.20092773 C-103.5940946 -5.74086582 -92.42659231 -10.71084834 -75.8125 -10.1875 C-66.76538504 -9.84271827 -66.76538504 -9.84271827 -57.76171875 -10.5 C-37.66866835 -13.17072736 -18.52258249 -7.0273478 0 0 Z " fill="#FEFEFE" transform="translate(273,62)"/>
<path d="M0 0 C0.7955127 0.29124756 1.59102539 0.58249512 2.41064453 0.88256836 C8.44732038 3.16950614 13.72710246 6.0390951 19.125 9.5625 C19.93614258 10.08408691 20.74728516 10.60567383 21.58300781 11.14306641 C27.01479772 14.65582168 32.40231554 18.2355507 37.75 21.875 C38.3805127 22.30240479 39.01102539 22.72980957 39.66064453 23.17016602 C43.96161114 26.14053907 48.36769889 29.22179544 52 33 C52 33.66 52 34.32 52 35 C52.99 35.33 53.98 35.66 55 36 C55 36.66 55 37.32 55 38 C55.66 38 56.32 38 57 38 C57 38.66 57 39.32 57 40 C57.66 40 58.32 40 59 40 C60.62109375 41.64453125 60.62109375 41.64453125 62.4375 43.8125 C64.97339332 46.82463265 64.97339332 46.82463265 67.72265625 49.63671875 C69 51 69 51 69 53 C69.66 53 70.32 53 71 53 C71 53.66 71 54.32 71 55 C71.66 55 72.32 55 73 55 C74.63139937 56.92587579 76.13723225 58.84326717 77.625 60.875 C78.04523438 61.43058594 78.46546875 61.98617187 78.8984375 62.55859375 C82 66.73764712 82 66.73764712 82 69 C82.66 69 83.32 69 84 69 C86.6020866 72.49655387 88.54997977 75.89160936 90 80 C90.66 80 91.32 80 92 80 C95 84.38461538 95 84.38461538 95 87 C95.66 87 96.32 87 97 87 C97.66 88.98 98.32 90.96 99 93 C99.66 93 100.32 93 101 93 C124.89458852 135.97119461 137.33650326 179.37935011 124 228 C123.79391113 228.77811035 123.58782227 229.5562207 123.37548828 230.35791016 C115.24842819 260.76904077 99.56522935 291.72909973 77 314 C75.72769531 315.27037109 75.72769531 315.27037109 74.4296875 316.56640625 C39.40810621 349.96758602 -5.34235696 360.12031291 -52.15136719 359.109375 C-90.53117644 358.01865218 -127.13963756 349.45049446 -154.453125 320.58203125 C-156.09172948 318.90618576 -157.82416594 317.4369548 -159.625 315.9375 C-190.31257431 289.28620239 -208.15322767 251.37591667 -211 211 C-212.80551982 168.27280342 -204.7134625 123.20868437 -181.17480469 86.84399414 C-179.17744608 83.70890488 -177.41890185 80.44176012 -175.625 77.1875 C-172.37181944 71.33697789 -168.97177827 65.64656763 -165.3125 60.0390625 C-163.97903539 58.0481201 -163.97903539 58.0481201 -163 56 C-162.34 56 -161.68 56 -161 56 C-160.34 54.35 -159.68 52.7 -159 51 C-158.34 51 -157.68 51 -157 51 C-156.731875 50.443125 -156.46375 49.88625 -156.1875 49.3125 C-154.89100504 46.78774666 -153.57523677 44.36285516 -152 42 C-151.34 42 -150.68 42 -150 42 C-149.731875 41.2575 -149.46375 40.515 -149.1875 39.75 C-148.04723249 37.10938051 -146.90619694 35.14447156 -145 33 C-144.34 33 -143.68 33 -143 33 C-143 32.01 -143 31.02 -143 30 C-142.34 30 -141.68 30 -141 30 C-141 29.34 -141 28.68 -141 28 C-140.34 28 -139.68 28 -139 28 C-139 27.01 -139 26.02 -139 25 C-138.34 25 -137.68 25 -137 25 C-137 24.34 -137 23.68 -137 23 C-135.37897032 21.28891311 -133.70496537 19.62746694 -132 18 C-130.9171875 16.8553125 -130.9171875 16.8553125 -129.8125 15.6875 C-128 14 -128 14 -126 14 C-125.505 12.515 -125.505 12.515 -125 11 C-122.89132089 9.13181003 -120.79306723 7.39786222 -118.5625 5.6875 C-117.60960083 4.95164673 -117.60960083 4.95164673 -116.63745117 4.20092773 C-103.5940946 -5.74086582 -92.42659231 -10.71084834 -75.8125 -10.1875 C-66.76538504 -9.84271827 -66.76538504 -9.84271827 -57.76171875 -10.5 C-37.66866835 -13.17072736 -18.52258249 -7.0273478 0 0 Z M-75 18 C-76.051875 19.36125 -76.051875 19.36125 -77.125 20.75 C-79.57291491 23.68749789 -81.24927504 24.33810736 -85 25 C-88.875 24.125 -88.875 24.125 -92 23 C-92.19658808 21.58456585 -92.38187546 20.16755969 -92.5625 18.75 C-92.71912109 17.56664062 -92.71912109 17.56664062 -92.87890625 16.359375 C-93.00027349 13.99467126 -92.69633257 12.2488963 -92 10 C-108.05538146 14.68955746 -120.88847918 32.30867086 -130.63964844 45.21630859 C-132.5006487 47.65644999 -134.41290413 50.05428049 -136.32421875 52.45507812 C-154.56600432 75.41973695 -172.16145165 103.35883033 -181.5 131.25 C-181.78697754 132.10553467 -182.07395508 132.96106934 -182.36962891 133.8425293 C-186.59200625 147.20023707 -188.75581678 161.19677844 -191 175 C-191.1244751 175.74233887 -191.2489502 176.48467773 -191.37719727 177.24951172 C-196.41424576 211.22612453 -189.08669158 249.39056617 -168.5390625 277.11083984 C-166.05420777 280.42978758 -163.55288423 283.73300404 -161 287 C-160.53352051 287.60005859 -160.06704102 288.20011719 -159.58642578 288.81835938 C-158.43944091 290.25240569 -157.22537816 291.63233356 -156 293 C-155.34 293 -154.68 293 -154 293 C-153.61714844 293.87205078 -153.61714844 293.87205078 -153.2265625 294.76171875 C-149.44769235 301.65755504 -141.93356039 306.96449199 -136 312 C-135.21238281 312.69996094 -134.42476562 313.39992188 -133.61328125 314.12109375 C-103.22887284 340.32707828 -61.29396953 343.23542334 -22.80932617 340.48486328 C11.32320019 337.69344184 41.29832208 322.31876545 66 299 C66.58523438 298.46246094 67.17046875 297.92492187 67.7734375 297.37109375 C69.22224426 296.05817793 69.22224426 296.05817793 69 294 C69.60360352 293.74959961 70.20720703 293.49919922 70.82910156 293.24121094 C73.33411732 291.80896846 74.22578432 290.5789679 75.734375 288.140625 C76.22204346 287.36178955 76.70971191 286.5829541 77.2121582 285.78051758 C77.719646 284.94544678 78.22713379 284.11037598 78.75 283.25 C79.28004639 282.39108154 79.81009277 281.53216309 80.35620117 280.6472168 C81.91679543 278.10559637 83.46068634 275.55455094 85 273 C85.60545654 272.00637451 85.60545654 272.00637451 86.22314453 270.99267578 C106.02426096 238.36814764 117.69634717 196.60236332 109.0234375 158.6484375 C98.21850407 120.13008704 75.46858941 83.12713706 47 55 C46.06215086 54.00929785 45.12738465 53.01567044 44.1953125 52.01953125 C37.08699208 44.5323793 29.73676922 38.63102221 20.95898438 33.21923828 C18.9464108 31.966647 16.9645939 30.6741468 14.984375 29.37109375 C6.64915004 23.93538378 -1.66148707 19.53838165 -11 16 C-11.6717627 15.73703125 -12.34352539 15.4740625 -13.03564453 15.203125 C-33.04842349 7.40223484 -57.63428542 1.87765401 -75 18 Z " fill="#000000" transform="translate(273,62)"/>
<path d="M0 0 C13.97347292 4.71773202 26.87378118 8.28058651 41.76025391 7.40356445 C47.99890187 7.11054254 47.99890187 7.11054254 51.12890625 9.2734375 C53.19747569 12.48620202 53.03790782 14.76465282 52.5625 18.5 C51.00091897 20.60377124 50.08691751 21.38879957 47.50732422 21.93579102 C23.3011061 22.62563114 1.76710266 15.94774451 -20.97167969 8.25268555 C-27.9657415 6.11776549 -35.18770562 5.46314878 -42.4375 6.5 C-45.7084318 8.38078579 -48.0348969 10.61272192 -50.4375 13.5 C-51.4375 14.5 -51.4375 14.5 -54.375 14.75 C-55.385625 14.6675 -56.39625 14.585 -57.4375 14.5 C-59.79370437 10.96569344 -59.92741613 9.66428713 -59.4375 5.5 C-56.63021904 -0.35867331 -51.9452386 -3.38604834 -46.4375 -6.5 C-31.39474344 -11.51425219 -14.22559302 -4.85488819 0 0 Z " fill="#040404" transform="translate(242.4375,321.5)"/>
<path d="M0 0 C0.81654053 0.00644531 1.63308105 0.01289063 2.47436523 0.01953125 C6.97889784 0.07722966 11.36368832 0.31508103 15.82421875 0.9765625 C18.08766912 1.16844055 20.25053434 1.18702084 22.51953125 1.1484375 C23.66796509 1.13006836 23.66796509 1.13006836 24.83959961 1.11132812 C26.38111833 1.07926992 27.92243143 1.03411514 29.46313477 0.97460938 C34.82681501 0.86275205 34.82681501 0.86275205 37.29296875 2.51171875 C38.92469757 5.19375577 38.74982643 7.12621497 38.3125 10.1875 C36.08043569 13.03530619 34.76257001 14.03747666 31.3125 15.1875 C19.2607627 15.90130813 7.27604415 14.48739672 -4.6875 13.1875 C-5.30625 14.858125 -5.30625 14.858125 -5.9375 16.5625 C-20.21372297 54.54999524 -20.21372297 54.54999524 -36.3359375 63.16015625 C-41.05933109 65.22369863 -44.16103679 65.69632107 -49.0625 64.0625 C-51.6875 62.1875 -51.6875 62.1875 -52.75 59.6875 C-52.6875 57.1875 -52.6875 57.1875 -51.44921875 55.609375 C-49.43648335 53.98490563 -47.93627979 53.54908946 -45.4375 52.9375 C-36.43990207 50.04489582 -32.04444246 42.51523569 -27.734375 34.49609375 C-24.74342991 28.52424993 -22.63772616 22.16601384 -20.56469727 15.82788086 C-18.43972716 9.51386117 -16.31692546 4.98367988 -10.91796875 0.82421875 C-7.30580067 -0.20692555 -3.73477258 -0.06093236 0 0 Z " fill="#000000" transform="translate(295.6875,143.8125)"/>
<path d="M0 0 C5.11253678 2.36691517 7.98603313 5.78434221 10 11 C12.16888003 18.40217766 10.07223805 24.16246009 7 31 C6.56494141 32.04607422 6.56494141 32.04607422 6.12109375 33.11328125 C3.59986623 38.39316131 0.11041859 39.88878097 -5 42 C-5.72703125 42.37253906 -6.4540625 42.74507813 -7.203125 43.12890625 C-12.52344953 45.79836978 -17.05671292 46.91524304 -23 46 C-26.99783094 44.578549 -28.36823802 42.64298405 -30.25 39 C-33.22814638 32.55548652 -34.00084009 27.10787185 -31.8125 20.3125 C-29.87035912 16.76307012 -28.01870015 14.68328902 -25 12 C-24.36449219 11.43152344 -23.72898438 10.86304688 -23.07421875 10.27734375 C-10.24393241 -1.10319272 -10.24393241 -1.10319272 0 0 Z " fill="#000000" transform="translate(184,216)"/>
<path d="M0 0 C6.28221463 2.34983601 11.90210811 5.67053513 15.25 11.625 C18.10572579 17.90759674 18.80976463 24.15690969 16.875 30.8125 C15.1149938 35.39500462 12.46152507 38.76923746 8 41 C0.43455107 41.85646592 -6.33292081 39.57164957 -13 36 C-17.26737574 31.40267252 -20.11924862 26.71838886 -19.9140625 20.3203125 C-18.76333524 12.48234004 -16.12106516 6.71396971 -10.125 1.5 C-6.30068509 -0.33567116 -4.20505651 -0.5800078 0 0 Z " fill="#000000" transform="translate(306,215)"/>
<path d="M0 0 C1.43509878 0.48363349 2.86623871 0.97913531 4.29370117 1.48486328 C5.05591476 1.74647247 5.81812836 2.00808167 6.60343933 2.27761841 C8.20273045 2.82905426 9.80023714 3.38569023 11.39599609 3.94726562 C13.8426677 4.80728403 16.2950235 5.64920423 18.7487793 6.48876953 C20.30578405 7.02808403 21.86243784 7.56841305 23.41870117 8.10986328 C24.1520015 8.36202606 24.88530182 8.61418884 25.64082336 8.87399292 C30.79232003 10.69832589 30.79232003 10.69832589 33.02416992 12.93017578 C33.46166992 15.86767578 33.46166992 15.86767578 33.02416992 18.93017578 C30.99682617 20.74658203 30.99682617 20.74658203 28.02416992 21.93017578 C25.13115075 21.44800592 22.76571929 20.86278856 20.02416992 19.93017578 C19.27449951 19.69105469 18.5248291 19.45193359 17.75244141 19.20556641 C-8.0765032 10.82950266 -8.0765032 10.82950266 -12.97583008 5.93017578 C-13.01663791 3.93059214 -13.01837364 1.92972324 -12.97583008 -0.06982422 C-8.83200292 -2.1417378 -4.28865885 -1.3077344 0 0 Z " fill="#000000" transform="translate(155.975830078125,179.06982421875)"/>
</svg>
