<?xml version="1.0" encoding="UTF-8"?>
<svg version="1.1" xmlns="http://www.w3.org/2000/svg" width="500" height="500">
<path d="M0 0 C0.6909375 0.52078125 1.381875 1.0415625 2.09375 1.578125 C2.7846875 2.07828125 3.475625 2.5784375 4.1875 3.09375 C10.75501081 7.99558778 16.76152751 13.53875126 22.66650391 19.20898438 C23.83303798 20.32802699 25.01411325 21.43189425 26.19921875 22.53125 C39.2614197 35.80268529 42.61013211 55.81517123 42.51831055 73.65454102 C41.852396 97.08181575 35.26143459 119.57302886 23.38525391 139.68188477 C20.29220844 145.01292363 17.73316188 150.54605291 15.15625 156.140625 C9.20988361 168.90474927 1.76010298 179.31157363 -7.90625 189.578125 C-8.83012532 190.58932187 -9.75191256 191.60242948 -10.671875 192.6171875 C-15.1129796 197.51182263 -19.59588997 202.33242047 -24.3203125 206.95703125 C-25.98558829 208.65922202 -27.50147633 210.44109007 -29.03125 212.265625 C-33.30000743 217.23609599 -38.17055147 221.54708755 -43.015625 225.94140625 C-44.60898182 227.39480605 -46.18518451 228.87125308 -47.671875 230.43359375 C-48.90625 231.578125 -48.90625 231.578125 -50.90625 231.578125 C-50.90625 232.238125 -50.90625 232.898125 -50.90625 233.578125 C-54.36778846 236.578125 -54.36778846 236.578125 -56.90625 236.578125 C-57.15375 237.196875 -57.40125 237.815625 -57.65625 238.453125 C-59.14365369 240.98171127 -60.34303009 241.29651504 -62.90625 242.578125 C-63.17824219 243.16335938 -63.45023438 243.74859375 -63.73046875 244.3515625 C-67.76316572 251.98823118 -77.27780355 257.73009679 -84.13354492 262.89477539 C-88.44258742 266.16063665 -92.43639111 269.67146927 -96.41015625 273.33203125 C-100.08046016 276.63473038 -103.91391857 279.72597506 -107.75390625 282.828125 C-109.76221185 284.39990038 -109.76221185 284.39990038 -110.90625 285.578125 C-114.48625612 285.97590346 -116.26370744 286.04700741 -119.21875 283.890625 C-121.13303628 281.2673438 -121.82703375 279.8259912 -121.90625 276.578125 C-120.18785106 272.87000097 -117.79813821 270.41013975 -114.90625 267.578125 C-128.65587456 253.35237812 -128.65587456 253.35237812 -143.60546875 240.44140625 C-146.05197623 238.46010902 -148.21181108 236.33405433 -150.40625 234.078125 C-156.94340885 227.39001932 -164.27732683 221.75938958 -171.78125 216.203125 C-176.12676872 212.98463759 -180.25918504 209.6138342 -184.34375 206.078125 C-189.57465595 201.56095128 -195.0089595 197.65820567 -200.73828125 193.78515625 C-205.67442475 190.34628933 -210.53602748 186.72064054 -214.90625 182.578125 C-214.90625 181.918125 -214.90625 181.258125 -214.90625 180.578125 C-215.42960937 180.3615625 -215.95296875 180.145 -216.4921875 179.921875 C-219.85183013 178.05178266 -222.64175009 175.58830228 -225.53125 173.078125 C-226.15298096 172.53841064 -226.77471191 171.99869629 -227.4152832 171.44262695 C-235.9900856 163.93594307 -243.39448266 156.26479226 -249.99926758 146.9765625 C-252.43484487 143.55184527 -254.9047643 140.34177999 -257.78125 137.265625 C-267.99333444 125.88365976 -270.23725051 109.24612396 -272.77148438 94.65478516 C-273.15754834 92.44569582 -273.56251973 90.24061557 -273.96875 88.03515625 C-276.14863298 75.87640814 -276.72645623 64.67303006 -273.90625 52.578125 C-273.65633301 51.50304687 -273.65633301 51.50304687 -273.40136719 50.40625 C-268.92354047 31.47409146 -263.52919072 20.37079735 -246.90625 9.578125 C-246.35404785 9.20864746 -245.8018457 8.83916992 -245.23291016 8.45849609 C-227.14759968 -3.57019955 -208.52048731 -5.79294271 -187.21875 -2.484375 C-170.3337103 1.19234675 -152.85326581 6.81796921 -137.90625 15.578125 C-136.92325928 16.14466797 -136.92325928 16.14466797 -135.92041016 16.72265625 C-127.69473614 21.49775381 -120.13223368 26.24621001 -113.90625 33.578125 C-113.18953125 32.85367188 -112.4728125 32.12921875 -111.734375 31.3828125 C-104.54733926 24.25533783 -97.01692374 17.63004169 -88.90625 11.578125 C-88.07738281 10.93101562 -87.24851562 10.28390625 -86.39453125 9.6171875 C-71.45135222 -1.77016937 -57.13699434 -5.3672556 -38.90625 -8.421875 C-37.86283447 -8.60073242 -36.81941895 -8.77958984 -35.74438477 -8.96386719 C-22.32596951 -11.12928199 -10.98375459 -7.87965003 0 0 Z " fill="#FFFFFF" transform="translate(363.90625,144.421875)"/>
<path d="M0 0 C0.6909375 0.52078125 1.381875 1.0415625 2.09375 1.578125 C2.7846875 2.07828125 3.475625 2.5784375 4.1875 3.09375 C10.75501081 7.99558778 16.76152751 13.53875126 22.66650391 19.20898438 C23.83303798 20.32802699 25.01411325 21.43189425 26.19921875 22.53125 C39.2614197 35.80268529 42.61013211 55.81517123 42.51831055 73.65454102 C41.852396 97.08181575 35.26143459 119.57302886 23.38525391 139.68188477 C20.29220844 145.01292363 17.73316188 150.54605291 15.15625 156.140625 C9.20988361 168.90474927 1.76010298 179.31157363 -7.90625 189.578125 C-8.83012532 190.58932187 -9.75191256 191.60242948 -10.671875 192.6171875 C-15.1129796 197.51182263 -19.59588997 202.33242047 -24.3203125 206.95703125 C-25.98558829 208.65922202 -27.50147633 210.44109007 -29.03125 212.265625 C-33.30000743 217.23609599 -38.17055147 221.54708755 -43.015625 225.94140625 C-44.60898182 227.39480605 -46.18518451 228.87125308 -47.671875 230.43359375 C-48.90625 231.578125 -48.90625 231.578125 -50.90625 231.578125 C-50.90625 232.238125 -50.90625 232.898125 -50.90625 233.578125 C-54.36778846 236.578125 -54.36778846 236.578125 -56.90625 236.578125 C-57.15375 237.196875 -57.40125 237.815625 -57.65625 238.453125 C-59.14365369 240.98171127 -60.34303009 241.29651504 -62.90625 242.578125 C-63.17824219 243.16335938 -63.45023438 243.74859375 -63.73046875 244.3515625 C-67.76316572 251.98823118 -77.27780355 257.73009679 -84.13354492 262.89477539 C-88.44258742 266.16063665 -92.43639111 269.67146927 -96.41015625 273.33203125 C-100.08046016 276.63473038 -103.91391857 279.72597506 -107.75390625 282.828125 C-109.76221185 284.39990038 -109.76221185 284.39990038 -110.90625 285.578125 C-114.48625612 285.97590346 -116.26370744 286.04700741 -119.21875 283.890625 C-121.13303628 281.2673438 -121.82703375 279.8259912 -121.90625 276.578125 C-120.18785106 272.87000097 -117.79813821 270.41013975 -114.90625 267.578125 C-128.65587456 253.35237812 -128.65587456 253.35237812 -143.60546875 240.44140625 C-146.05197623 238.46010902 -148.21181108 236.33405433 -150.40625 234.078125 C-156.94340885 227.39001932 -164.27732683 221.75938958 -171.78125 216.203125 C-176.12676872 212.98463759 -180.25918504 209.6138342 -184.34375 206.078125 C-189.57465595 201.56095128 -195.0089595 197.65820567 -200.73828125 193.78515625 C-205.67442475 190.34628933 -210.53602748 186.72064054 -214.90625 182.578125 C-214.90625 181.918125 -214.90625 181.258125 -214.90625 180.578125 C-215.42960937 180.3615625 -215.95296875 180.145 -216.4921875 179.921875 C-219.85183013 178.05178266 -222.64175009 175.58830228 -225.53125 173.078125 C-226.15298096 172.53841064 -226.77471191 171.99869629 -227.4152832 171.44262695 C-235.9900856 163.93594307 -243.39448266 156.26479226 -249.99926758 146.9765625 C-252.43484487 143.55184527 -254.9047643 140.34177999 -257.78125 137.265625 C-267.99333444 125.88365976 -270.23725051 109.24612396 -272.77148438 94.65478516 C-273.15754834 92.44569582 -273.56251973 90.24061557 -273.96875 88.03515625 C-276.14863298 75.87640814 -276.72645623 64.67303006 -273.90625 52.578125 C-273.65633301 51.50304687 -273.65633301 51.50304687 -273.40136719 50.40625 C-268.92354047 31.47409146 -263.52919072 20.37079735 -246.90625 9.578125 C-246.35404785 9.20864746 -245.8018457 8.83916992 -245.23291016 8.45849609 C-227.14759968 -3.57019955 -208.52048731 -5.79294271 -187.21875 -2.484375 C-170.3337103 1.19234675 -152.85326581 6.81796921 -137.90625 15.578125 C-136.92325928 16.14466797 -136.92325928 16.14466797 -135.92041016 16.72265625 C-127.69473614 21.49775381 -120.13223368 26.24621001 -113.90625 33.578125 C-113.18953125 32.85367188 -112.4728125 32.12921875 -111.734375 31.3828125 C-104.54733926 24.25533783 -97.01692374 17.63004169 -88.90625 11.578125 C-88.07738281 10.93101562 -87.24851562 10.28390625 -86.39453125 9.6171875 C-71.45135222 -1.77016937 -57.13699434 -5.3672556 -38.90625 -8.421875 C-37.86283447 -8.60073242 -36.81941895 -8.77958984 -35.74438477 -8.96386719 C-22.32596951 -11.12928199 -10.98375459 -7.87965003 0 0 Z M-86.12304688 30.07128906 C-88.49879696 32.07883692 -90.94928429 33.98383872 -93.40625 35.890625 C-97.31089363 38.98015784 -100.74806141 42.34869018 -104.1171875 46.01171875 C-106.14979464 47.7913595 -107.2356016 48.2852472 -109.90625 48.578125 C-117.59440405 48.03946452 -123.2810889 44.93995486 -129.34375 40.515625 C-146.10796509 28.38166108 -165.05787439 21.911738 -184.90625 16.578125 C-186.09263062 16.25678589 -186.09263062 16.25678589 -187.30297852 15.92895508 C-193.00161981 14.51480827 -198.48655709 14.24420147 -204.34375 14.265625 C-205.65956055 14.24145508 -205.65956055 14.24145508 -207.00195312 14.21679688 C-216.83655989 14.20954956 -224.78684234 16.90933797 -232.96875 22.265625 C-233.65557861 22.71276855 -234.34240723 23.15991211 -235.05004883 23.62060547 C-237.01555439 24.92103799 -238.96168725 26.24667022 -240.90625 27.578125 C-241.84726563 28.19558594 -242.78828125 28.81304687 -243.7578125 29.44921875 C-250.68379099 34.64949357 -252.45737828 41.48845786 -254.41918945 49.58129883 C-254.74327807 50.90998095 -255.0907983 52.23317008 -255.46166992 53.54956055 C-261.16614552 74.20756538 -255.83055413 102.45461616 -246.90625 121.578125 C-244.85935838 124.86824797 -242.7533117 127.93186362 -239.90625 130.578125 C-239.24625 130.578125 -238.58625 130.578125 -237.90625 130.578125 C-237.52533203 131.66673828 -237.52533203 131.66673828 -237.13671875 132.77734375 C-234.97993399 137.68659669 -231.32644112 141.49394073 -227.90625 145.578125 C-227.34679687 146.27421875 -226.78734375 146.9703125 -226.2109375 147.6875 C-221.16510627 153.78149908 -214.85387846 160.24482001 -207.63671875 163.6484375 C-205.90625 164.578125 -205.90625 164.578125 -204.90625 167.578125 C-204.24625 167.578125 -203.58625 167.578125 -202.90625 167.578125 C-202.57625 168.568125 -202.24625 169.558125 -201.90625 170.578125 C-201.24625 170.578125 -200.58625 170.578125 -199.90625 170.578125 C-199.90625 171.238125 -199.90625 171.898125 -199.90625 172.578125 C-198.45910162 173.95864203 -198.45910162 173.95864203 -196.5390625 175.3359375 C-195.46470947 176.14490479 -195.46470947 176.14490479 -194.36865234 176.97021484 C-193.59730957 177.5420752 -192.8259668 178.11393555 -192.03125 178.703125 C-190.46302708 179.88473402 -188.89531643 181.06702324 -187.328125 182.25 C-186.56564453 182.82298828 -185.80316406 183.39597656 -185.01757812 183.98632812 C-174.17577211 192.16030768 -174.17577211 192.16030768 -169.59375 196.953125 C-166.52132841 200.14148703 -163.12207951 202.7948293 -159.59375 205.453125 C-145.40535218 216.1551841 -145.40535218 216.1551841 -141.2578125 221.8359375 C-140.81179687 222.41085937 -140.36578125 222.98578125 -139.90625 223.578125 C-139.24625 223.578125 -138.58625 223.578125 -137.90625 223.578125 C-137.68582031 224.135 -137.46539062 224.691875 -137.23828125 225.265625 C-135.47912021 228.31965238 -133.22609459 230.2414294 -130.59375 232.578125 C-129.64886719 233.42375 -128.70398438 234.269375 -127.73046875 235.140625 C-125.89435061 236.72532448 -124.02273822 238.27010625 -122.11328125 239.765625 C-119.90625 241.578125 -119.90625 241.578125 -118.90625 243.578125 C-118.24625 243.578125 -117.58625 243.578125 -116.90625 243.578125 C-116.50212891 244.44244141 -116.50212891 244.44244141 -116.08984375 245.32421875 C-114.8856482 247.61735681 -113.53113595 249.57732142 -111.96875 251.640625 C-111.21271484 252.64802734 -111.21271484 252.64802734 -110.44140625 253.67578125 C-107.66919192 257.13327609 -107.66919192 257.13327609 -103.98046875 259.484375 C-101.77836266 259.7930016 -101.77836266 259.7930016 -99.86328125 258.171875 C-99.15558594 257.4809375 -98.44789063 256.79 -97.71875 256.078125 C-94.83150679 253.35466382 -91.9755096 250.80806119 -88.78125 248.453125 C-82.45183466 243.60203331 -76.76740823 238.02801032 -70.98583984 232.54882812 C-68.12893453 229.84150954 -65.26426274 227.1424817 -62.39892578 224.4440918 C-60.94717984 223.07671944 -59.49633074 221.70839427 -58.04638672 220.33911133 C-54.40284533 216.90328273 -50.733368 213.50411864 -47.00830078 210.15698242 C-41.3750553 205.08892371 -36.23401684 199.74567683 -31.18359375 194.109375 C-28.90625 191.578125 -28.90625 191.578125 -27.09765625 189.859375 C-25.67926175 188.62561723 -25.67926175 188.62561723 -25.90625 186.578125 C-25.24625 186.578125 -24.58625 186.578125 -23.90625 186.578125 C-22.36948484 185.09765708 -22.36948484 185.09765708 -20.78125 183.140625 C-18.90731943 180.91509096 -17.04970901 178.72544522 -15.01953125 176.640625 C-5.16286468 166.4040869 0.97312694 153.25389888 6.83081055 140.4621582 C9.08039029 135.58165472 11.55359393 130.97941046 14.34375 126.390625 C25.89147597 106.60108268 30.51314235 77.00517643 25.63232422 54.56347656 C22.2241456 41.99987344 14.75081787 32.93110243 5.09375 24.578125 C3.67642578 23.32708984 3.67642578 23.32708984 2.23046875 22.05078125 C-3.45211288 17.22018498 -9.33253324 13.10217935 -15.90625 9.578125 C-16.53273438 9.2378125 -17.15921875 8.8975 -17.8046875 8.546875 C-39.81231587 -2.20798411 -70.07093749 16.346164 -86.12304688 30.07128906 Z " fill="#000000" transform="translate(363.90625,144.421875)"/>
</svg>
