<?xml version="1.0" encoding="UTF-8"?>
<svg version="1.1" xmlns="http://www.w3.org/2000/svg" width="500" height="500">
<path d="M0 0 C13.81538931 12.85540758 15.89711103 26.49572932 16.55957031 44.51269531 C16.84453117 54.5584672 15.6605652 61.92467305 11.5234375 71.03125 C11.03771381 72.77384632 10.57697215 74.5237155 10.1484375 76.28125 C8.44999725 82.18109509 4.99361238 87.03039524 1.5234375 92.03125 C10.70549228 93.27627438 19.79698659 93.45257891 29.0234375 92.53125 C43.32169274 91.26690493 57.44613664 91.9229639 71.7109375 93.34375 C72.92773193 93.46137695 74.14452637 93.57900391 75.39819336 93.70019531 C82.4169079 94.45657025 88.85148557 95.73470793 95.5234375 98.03125 C96.51214844 98.33546875 97.50085938 98.6396875 98.51953125 98.953125 C108.91993656 102.48094248 122.2526587 109.2537934 127.74609375 119.2578125 C130.89861765 127.79162139 129.9652331 135.77990941 126.5234375 144.03125 C124.07305511 148.82104433 121.31274864 153.43319315 118.5234375 158.03125 C117.8634375 158.03125 117.2034375 158.03125 116.5234375 158.03125 C118.10314095 160.11742326 119.68702034 162.20019154 121.2734375 164.28125 C121.716875 164.86777344 122.1603125 165.45429688 122.6171875 166.05859375 C124.54813484 168.58586306 126.37570852 170.89380929 128.7109375 173.06640625 C133.13332567 177.86050377 134.69475938 186.18452663 135.0234375 192.59375 C134.39659289 203.04116012 129.36580579 211.48265511 123.64453125 219.90234375 C121.83853516 222.56643744 120.14807264 225.25431773 118.5234375 228.03125 C122.5661943 232.85199436 126.72495798 237.42576907 131.3359375 241.71875 C132.5234375 243.03125 132.5234375 243.03125 132.5234375 245.03125 C133.1834375 245.03125 133.8434375 245.03125 134.5234375 245.03125 C136.24789735 250.68730052 135.98428227 256.75333715 136.19091797 262.62036133 C136.2727995 264.82655973 136.37650087 267.03107574 136.48046875 269.23632812 C136.53261023 270.65359644 136.58343372 272.07091399 136.6328125 273.48828125 C136.68405273 274.76678955 136.73529297 276.04529785 136.78808594 277.36254883 C136.31674888 283.89648052 133.23863803 288.77872512 129.5234375 294.03125 C130.1834375 295.02125 130.8434375 296.01125 131.5234375 297.03125 C132.2109375 300.28125 132.2109375 300.28125 131.5234375 304.03125 C126.22738475 310.22663247 117.67459577 313.93183121 110.59765625 317.78125 C108.10852089 319.13780273 105.70659981 320.53695846 103.29296875 322.03125 C93.6702342 327.96028893 83.42227016 331.72244412 72.85546875 335.640625 C68.45164381 337.27701897 64.15033571 339.03497347 59.87036133 340.96826172 C28.98318851 354.68144752 -6.37897367 351.17519909 -39.1640625 348.21875 C-40.0861853 348.13634064 -41.00830811 348.05393127 -41.95837402 347.96902466 C-59.00862889 346.40415552 -75.26597152 344.28849368 -90.16796875 335.203125 C-93.65137533 333.08348348 -97.15923198 331.11993941 -100.80078125 329.28515625 C-101.68443359 328.83978516 -102.56808594 328.39441406 -103.47851562 327.93554688 C-105.27671308 327.03710204 -107.07886376 326.14652842 -108.88476562 325.26367188 C-117.29638608 320.99315688 -122.66911984 315.77504394 -127.7890625 307.84375 C-128.44519531 306.83957031 -129.10132813 305.83539063 -129.77734375 304.80078125 C-131.14100574 302.57816895 -132.36847161 300.38805244 -133.4765625 298.03125 C-134.00725342 298.33853027 -134.53794434 298.64581055 -135.0847168 298.96240234 C-146.13610326 303.90095189 -161.20758793 302.40369399 -173.01733398 302.40185547 C-176.14167244 302.40621873 -179.26458253 302.44263673 -182.38867188 302.48046875 C-198.70448424 302.57339688 -215.37979375 301.41413449 -230.2890625 294.15625 C-231.35350586 293.68638672 -231.35350586 293.68638672 -232.43945312 293.20703125 C-237.37527459 290.92336086 -241.77557354 288.06021714 -245.4765625 284.03125 C-246.64687596 280.65799357 -246.91049628 279.03370339 -245.48960876 275.75123596 C-244.29205327 272.53585061 -244.21829083 270.00254965 -244.20532227 266.57397461 C-244.19513565 265.28329575 -244.18494904 263.99261688 -244.17445374 262.66282654 C-244.17304225 261.63178205 -244.17304225 261.63178205 -244.17160225 260.57990837 C-244.16789752 258.39152004 -244.1510445 256.20356886 -244.13084412 254.01527405 C-244.07593603 247.79322675 -244.0453693 241.57110779 -244.02026367 235.34887695 C-243.91124382 210.77831768 -242.75119152 186.80683879 -238.0234375 162.61328125 C-237.34332059 158.1585155 -237.40132312 153.93203461 -237.76171875 149.44921875 C-237.4765625 147.03125 -237.4765625 147.03125 -236.1640625 144.7265625 C-231.82502063 141.98943434 -227.42730628 142.57533235 -222.4140625 142.71875 C-221.42728516 142.72841797 -220.44050781 142.73808594 -219.42382812 142.74804688 C-214.64439647 142.82003569 -209.92657086 143.05318442 -205.171875 143.54296875 C-198.25850581 144.21980641 -191.35408246 144.1816155 -184.4140625 144.15625 C-183.71034515 144.15536377 -183.00662781 144.15447754 -182.28158569 144.15356445 C-169.5547204 144.13502958 -156.84145726 143.83131758 -144.12280273 143.38720703 C-135.56781808 143.09186244 -127.03660428 142.97122049 -118.4765625 143.03125 C-118.8065625 142.37125 -119.1365625 141.71125 -119.4765625 141.03125 C-121.25096326 124.17444279 -111.15346379 101.92679236 -101.703125 88.33203125 C-101.29835937 87.90277344 -100.89359375 87.47351563 -100.4765625 87.03125 C-99.8165625 87.03125 -99.1565625 87.03125 -98.4765625 87.03125 C-98.1465625 86.04125 -97.8165625 85.05125 -97.4765625 84.03125 C-93.01941964 80.03125 -93.01941964 80.03125 -90.4765625 80.03125 C-90.1465625 79.04125 -89.8165625 78.05125 -89.4765625 77.03125 C-87.32801912 75.64709225 -85.2244862 74.41777816 -82.9765625 73.21875 C-77.8877093 70.42101592 -73.00564964 67.50003581 -68.24609375 64.16015625 C-66.4765625 63.03125 -66.4765625 63.03125 -63.4765625 62.03125 C-63.1465625 61.04125 -62.8165625 60.05125 -62.4765625 59.03125 C-61.4765625 58.03125 -60.4765625 57.03125 -59.4765625 56.03125 C-58.01903694 53.42420428 -57.10303095 51.00794699 -56.4765625 48.09375 C-56.30640625 47.30226562 -56.13625 46.51078125 -55.9609375 45.6953125 C-55.62453883 43.84511984 -55.34735848 41.98357392 -55.1171875 40.1171875 C-53.32941709 25.70775797 -48.51735871 10.56609529 -36.9765625 1.09375 C-26.61592877 -6.40818045 -10.39616271 -8.26445742 0 0 Z M-132.4765625 295.03125 C-131.4765625 297.03125 -131.4765625 297.03125 -131.4765625 297.03125 Z " fill="#FFFFFF" transform="translate(305.4765625,73.96875)"/>
<path d="M0 0 C13.81538931 12.85540758 15.89711103 26.49572932 16.55957031 44.51269531 C16.84453117 54.5584672 15.6605652 61.92467305 11.5234375 71.03125 C11.03771381 72.77384632 10.57697215 74.5237155 10.1484375 76.28125 C8.44999725 82.18109509 4.99361238 87.03039524 1.5234375 92.03125 C10.70549228 93.27627438 19.79698659 93.45257891 29.0234375 92.53125 C43.32169274 91.26690493 57.44613664 91.9229639 71.7109375 93.34375 C72.92773193 93.46137695 74.14452637 93.57900391 75.39819336 93.70019531 C82.4169079 94.45657025 88.85148557 95.73470793 95.5234375 98.03125 C96.51214844 98.33546875 97.50085938 98.6396875 98.51953125 98.953125 C108.91993656 102.48094248 122.2526587 109.2537934 127.74609375 119.2578125 C130.89861765 127.79162139 129.9652331 135.77990941 126.5234375 144.03125 C124.07305511 148.82104433 121.31274864 153.43319315 118.5234375 158.03125 C117.8634375 158.03125 117.2034375 158.03125 116.5234375 158.03125 C118.10314095 160.11742326 119.68702034 162.20019154 121.2734375 164.28125 C121.716875 164.86777344 122.1603125 165.45429688 122.6171875 166.05859375 C124.54813484 168.58586306 126.37570852 170.89380929 128.7109375 173.06640625 C133.13332567 177.86050377 134.69475938 186.18452663 135.0234375 192.59375 C134.39659289 203.04116012 129.36580579 211.48265511 123.64453125 219.90234375 C121.83853516 222.56643744 120.14807264 225.25431773 118.5234375 228.03125 C122.5661943 232.85199436 126.72495798 237.42576907 131.3359375 241.71875 C132.5234375 243.03125 132.5234375 243.03125 132.5234375 245.03125 C133.1834375 245.03125 133.8434375 245.03125 134.5234375 245.03125 C136.24789735 250.68730052 135.98428227 256.75333715 136.19091797 262.62036133 C136.2727995 264.82655973 136.37650087 267.03107574 136.48046875 269.23632812 C136.53261023 270.65359644 136.58343372 272.07091399 136.6328125 273.48828125 C136.68405273 274.76678955 136.73529297 276.04529785 136.78808594 277.36254883 C136.31674888 283.89648052 133.23863803 288.77872512 129.5234375 294.03125 C130.1834375 295.02125 130.8434375 296.01125 131.5234375 297.03125 C132.2109375 300.28125 132.2109375 300.28125 131.5234375 304.03125 C126.22738475 310.22663247 117.67459577 313.93183121 110.59765625 317.78125 C108.10852089 319.13780273 105.70659981 320.53695846 103.29296875 322.03125 C93.6702342 327.96028893 83.42227016 331.72244412 72.85546875 335.640625 C68.45164381 337.27701897 64.15033571 339.03497347 59.87036133 340.96826172 C28.98318851 354.68144752 -6.37897367 351.17519909 -39.1640625 348.21875 C-40.0861853 348.13634064 -41.00830811 348.05393127 -41.95837402 347.96902466 C-59.00862889 346.40415552 -75.26597152 344.28849368 -90.16796875 335.203125 C-93.65137533 333.08348348 -97.15923198 331.11993941 -100.80078125 329.28515625 C-101.68443359 328.83978516 -102.56808594 328.39441406 -103.47851562 327.93554688 C-105.27671308 327.03710204 -107.07886376 326.14652842 -108.88476562 325.26367188 C-117.29638608 320.99315688 -122.66911984 315.77504394 -127.7890625 307.84375 C-128.44519531 306.83957031 -129.10132813 305.83539063 -129.77734375 304.80078125 C-131.14100574 302.57816895 -132.36847161 300.38805244 -133.4765625 298.03125 C-134.00725342 298.33853027 -134.53794434 298.64581055 -135.0847168 298.96240234 C-146.13610326 303.90095189 -161.20758793 302.40369399 -173.01733398 302.40185547 C-176.14167244 302.40621873 -179.26458253 302.44263673 -182.38867188 302.48046875 C-198.70448424 302.57339688 -215.37979375 301.41413449 -230.2890625 294.15625 C-231.35350586 293.68638672 -231.35350586 293.68638672 -232.43945312 293.20703125 C-237.37527459 290.92336086 -241.77557354 288.06021714 -245.4765625 284.03125 C-246.64687596 280.65799357 -246.91049628 279.03370339 -245.48960876 275.75123596 C-244.29205327 272.53585061 -244.21829083 270.00254965 -244.20532227 266.57397461 C-244.19513565 265.28329575 -244.18494904 263.99261688 -244.17445374 262.66282654 C-244.17304225 261.63178205 -244.17304225 261.63178205 -244.17160225 260.57990837 C-244.16789752 258.39152004 -244.1510445 256.20356886 -244.13084412 254.01527405 C-244.07593603 247.79322675 -244.0453693 241.57110779 -244.02026367 235.34887695 C-243.91124382 210.77831768 -242.75119152 186.80683879 -238.0234375 162.61328125 C-237.34332059 158.1585155 -237.40132312 153.93203461 -237.76171875 149.44921875 C-237.4765625 147.03125 -237.4765625 147.03125 -236.1640625 144.7265625 C-231.82502063 141.98943434 -227.42730628 142.57533235 -222.4140625 142.71875 C-221.42728516 142.72841797 -220.44050781 142.73808594 -219.42382812 142.74804688 C-214.64439647 142.82003569 -209.92657086 143.05318442 -205.171875 143.54296875 C-198.25850581 144.21980641 -191.35408246 144.1816155 -184.4140625 144.15625 C-183.71034515 144.15536377 -183.00662781 144.15447754 -182.28158569 144.15356445 C-169.5547204 144.13502958 -156.84145726 143.83131758 -144.12280273 143.38720703 C-135.56781808 143.09186244 -127.03660428 142.97122049 -118.4765625 143.03125 C-118.8065625 142.37125 -119.1365625 141.71125 -119.4765625 141.03125 C-121.25096326 124.17444279 -111.15346379 101.92679236 -101.703125 88.33203125 C-101.29835937 87.90277344 -100.89359375 87.47351563 -100.4765625 87.03125 C-99.8165625 87.03125 -99.1565625 87.03125 -98.4765625 87.03125 C-98.1465625 86.04125 -97.8165625 85.05125 -97.4765625 84.03125 C-93.01941964 80.03125 -93.01941964 80.03125 -90.4765625 80.03125 C-90.1465625 79.04125 -89.8165625 78.05125 -89.4765625 77.03125 C-87.32801912 75.64709225 -85.2244862 74.41777816 -82.9765625 73.21875 C-77.8877093 70.42101592 -73.00564964 67.50003581 -68.24609375 64.16015625 C-66.4765625 63.03125 -66.4765625 63.03125 -63.4765625 62.03125 C-63.1465625 61.04125 -62.8165625 60.05125 -62.4765625 59.03125 C-61.4765625 58.03125 -60.4765625 57.03125 -59.4765625 56.03125 C-58.01903694 53.42420428 -57.10303095 51.00794699 -56.4765625 48.09375 C-56.30640625 47.30226562 -56.13625 46.51078125 -55.9609375 45.6953125 C-55.62453883 43.84511984 -55.34735848 41.98357392 -55.1171875 40.1171875 C-53.32941709 25.70775797 -48.51735871 10.56609529 -36.9765625 1.09375 C-26.61592877 -6.40818045 -10.39616271 -8.26445742 0 0 Z M-32.2890625 19.0390625 C-37.06526226 27.05176604 -38.93531571 35.70858212 -40.38989258 44.78222656 C-42.92088124 60.26633462 -48.35823512 69.43450546 -60.96875 78.65234375 C-65.22554884 81.63257618 -69.79604698 83.94666414 -74.40234375 86.3359375 C-91.57211296 95.80439981 -98.94837834 113.81038407 -104.671875 131.78515625 C-105.44995977 134.92393509 -106.04716123 138.02345858 -106.5390625 141.21875 C-107.05542729 144.54311508 -107.63710909 147.77483225 -108.4765625 151.03125 C-115.84384237 152.8992176 -123.019547 153.60808692 -130.59375 154.1015625 C-132.47140549 154.23049393 -132.47140549 154.23049393 -134.38699341 154.36203003 C-137.03094623 154.5417796 -139.67490722 154.71877933 -142.31933594 154.89111328 C-146.30487313 155.15126238 -150.28908814 155.42927138 -154.2734375 155.70703125 C-172.65359442 156.95786361 -190.67702261 157.75988668 -209.0390625 155.96875 C-211.18571255 155.76436759 -213.33283578 155.56487519 -215.48046875 155.37109375 C-216.85440796 155.23755493 -216.85440796 155.23755493 -218.25610352 155.10131836 C-220.51788384 154.85391008 -220.51788384 154.85391008 -222.4765625 156.03125 C-223.10775552 158.70756059 -223.10775552 158.70756059 -223.4765625 161.99609375 C-223.6415625 163.27419922 -223.8065625 164.55230469 -223.9765625 165.86914062 C-224.0590625 166.5469458 -224.1415625 167.22475098 -224.2265625 167.9230957 C-224.46514078 169.87529046 -224.7204351 171.82542069 -224.9765625 173.77539062 C-227.70772183 195.04924642 -228.79701854 216.29417923 -228.68237305 237.734375 C-228.6637126 241.34902781 -228.6618671 244.96342826 -228.66210938 248.578125 C-228.65720596 250.90104388 -228.65138286 253.22396105 -228.64453125 255.546875 C-228.64341843 256.61552795 -228.6423056 257.68418091 -228.64115906 258.78521729 C-228.60993999 263.66268544 -228.39051275 268.22444138 -227.4765625 273.03125 C-227.9140625 275.40625 -227.9140625 275.40625 -228.4765625 277.03125 C-212.95696699 285.37217799 -196.77794784 286.66396379 -179.49682617 286.44287109 C-176.51772182 286.40598577 -173.53985785 286.4018561 -170.56054688 286.40234375 C-157.98793837 286.40028973 -157.98793837 286.40028973 -145.6015625 284.43725586 C-141.94732086 283.73907068 -138.02432572 283.86945501 -134.4765625 285.03125 C-132.18022426 288.47575737 -131.93639765 290.96937283 -131.4765625 295.03125 C-131.1465625 294.37125 -130.8165625 293.71125 -130.4765625 293.03125 C-127.2890625 292.65625 -127.2890625 292.65625 -123.4765625 293.03125 C-121.41728449 295.04030172 -120.04857419 296.68563003 -118.4765625 299.03125 C-117.52895229 300.39294198 -116.57016379 301.74690863 -115.6015625 303.09375 C-115.17101562 303.72410156 -114.74046875 304.35445313 -114.296875 305.00390625 C-109.5042254 310.34164261 -103.75735661 312.95183166 -97.1015625 315.28125 C-89.97792335 317.88288856 -83.39837971 320.95645743 -76.92626953 324.92285156 C-66.11988223 331.1415954 -52.32536882 331.57739981 -40.1640625 332.65625 C-38.78579475 332.78217072 -37.40753969 332.90823044 -36.02929688 333.03442383 C-32.17967921 333.38244128 -28.32849947 333.70985418 -24.4765625 334.03125 C-23.59564941 334.10617676 -22.71473633 334.18110352 -21.80712891 334.25830078 C-16.69813996 334.67434223 -11.59997022 334.89188269 -6.4765625 335.03125 C-5.35314453 335.06911621 -4.22972656 335.10698242 -3.07226562 335.14599609 C19.16415167 335.82337796 38.81845425 333.95679947 59.34765625 324.828125 C62.90804654 323.25393406 66.51726285 321.96231755 70.19970703 320.70581055 C84.85027621 315.66477104 101.36215249 308.78539598 113.5234375 299.03125 C113.5234375 297.896875 113.5234375 296.7625 113.5234375 295.59375 C113.5234375 294.418125 113.5234375 293.2425 113.5234375 292.03125 C116.2109375 289.59375 116.2109375 289.59375 117.86694336 288.36743164 C121.93686978 285.08449762 124.23009347 281.16983919 124.94213867 275.97875977 C125.04338768 272.47534011 124.94483866 269.03164259 124.7734375 265.53125 C124.76183594 264.34660156 124.75023437 263.16195312 124.73828125 261.94140625 C124.46003482 254.81034785 123.48594784 250.63513564 118.30126953 245.60986328 C117.71458496 245.0889209 117.12790039 244.56797852 116.5234375 244.03125 C115.76675781 243.23074219 115.01007813 242.43023437 114.23046875 241.60546875 C113.60527344 240.98285156 112.98007812 240.36023438 112.3359375 239.71875 C111.70300781 239.08324219 111.07007813 238.44773437 110.41796875 237.79296875 C108.54473561 235.97364182 108.54473561 235.97364182 106.31640625 234.46484375 C104.5234375 233.03125 104.5234375 233.03125 104.0234375 230.40625 C105.09185279 223.19444678 108.56589387 217.65534986 113.00390625 212.00390625 C118.40331819 204.9943869 122.45273664 198.16935825 121.5234375 189.03125 C119.38590452 180.72587377 113.32452466 174.78565044 107.81835938 168.5234375 C106.11040007 166.55529134 104.48641299 164.53465986 102.8984375 162.46875 C102.45242188 161.88996094 102.00640625 161.31117188 101.546875 160.71484375 C100.38724322 158.80720522 99.85882783 157.23588243 99.5234375 155.03125 C100.4609375 152.78125 100.4609375 152.78125 101.5234375 151.03125 C103.5034375 151.03125 105.4834375 151.03125 107.5234375 151.03125 C114.38719141 140.39667223 114.38719141 140.39667223 116.4375 128.3125 C113.33399496 120.56700025 104.78659939 116.22869508 97.5234375 113.03125 C85.51502867 108.52170924 73.08604961 107.24013196 60.3984375 106.15625 C59.64292603 106.08872528 58.88741455 106.02120056 58.10900879 105.95162964 C48.39182677 105.10605629 38.95788645 105.00016135 29.23022461 105.74853516 C20.37798468 106.42369118 12.86469662 106.23195519 4.3125 103.6875 C1.24547103 102.96584612 -1.33624238 102.78902145 -4.4765625 103.03125 C-5.4665625 103.69125 -6.4565625 104.35125 -7.4765625 105.03125 C-11.0390625 104.84375 -11.0390625 104.84375 -14.4765625 104.03125 C-16.4765625 101.03125 -16.4765625 101.03125 -16.34375 97.8515625 C-15.34122003 93.43501157 -13.70202159 89.88884089 -11.6015625 85.90625 C-11.24964844 85.21660156 -10.89773438 84.52695313 -10.53515625 83.81640625 C-9.07498501 80.97748596 -7.59803854 78.22209838 -5.8828125 75.52734375 C-4.03233903 72.24275335 -2.94496165 68.80604412 -1.8515625 65.21875 C-1.635 64.54521484 -1.4184375 63.87167969 -1.1953125 63.17773438 C1.76272055 53.63716481 1.39959888 44.919357 0.5234375 35.03125 C0.49636719 34.18949219 0.46929687 33.34773438 0.44140625 32.48046875 C0.07400823 24.81953977 -3.88373345 18.25118432 -9.2890625 12.90625 C-17.71411878 7.95033454 -26.64928156 11.58119428 -32.2890625 19.0390625 Z M-132.4765625 295.03125 C-131.4765625 297.03125 -131.4765625 297.03125 -131.4765625 297.03125 Z " fill="#000000" transform="translate(305.4765625,73.96875)"/>
</svg>
