<?xml version="1.0" encoding="UTF-8"?>
<svg version="1.1" xmlns="http://www.w3.org/2000/svg" width="500" height="500">
<path d="M0 0 C9.59408628 4.48162112 18.42684619 12.70733574 25 21 C25 21.66 25 22.32 25 23 C25.66 23 26.32 23 27 23 C38.15127097 38.70532203 44.4470834 56.38684383 49.6875 74.75 C52.51276563 84.64156348 55.88369905 94.15585572 59.75 103.6875 C63.19751879 112.18726648 66.29221482 120.43710922 68.21875 129.41015625 C69.28869658 134.32656078 70.64770571 139.15482585 72 144 C91.18676106 148.19139098 107.80962263 150.38337226 127.25390625 147.453125 C136.05290188 146.38880436 144.54724266 146.15830285 153 149 C157.4398224 149.74864163 161.91734871 150.24535724 166.38867188 150.76757812 C175.11465158 151.89331036 175.11465158 151.89331036 179 155 C180.48019915 157.9603983 180.37712046 159.67756876 180 163 C178.51916217 166.19482569 176.65602582 169.10646251 174.75 172.0625 C174.25886719 172.85205078 173.76773437 173.64160156 173.26171875 174.45507812 C169.38249118 180.62563612 165.15419002 185.84580998 160 191 C156.42104765 194.89573344 152.86271384 198.81509954 149.43041992 202.84106445 C145.2379103 207.73202871 140.79464673 212.19541763 136.0625 216.5625 C135.39798828 217.18318359 134.73347656 217.80386719 134.04882812 218.44335938 C127.48041616 224.55306556 120.81921523 230.49129816 113.6875 235.9375 C113.13771484 236.35789551 112.58792969 236.77829102 112.02148438 237.21142578 C107.54705271 240.61873896 103.0093191 243.93539638 98.4375 247.2109375 C96.68791383 248.49508889 94.98372727 249.84197014 93.3125 251.2265625 C91 253 91 253 89 253 C89.66 254.98 90.32 256.96 91 259 C91.66 259 92.32 259 93 259 C93.33 260.32 93.66 261.64 94 263 C94.66 263 95.32 263 96 263 C97.3671875 264.57421875 97.3671875 264.57421875 98.875 266.6875 C100.65548472 269.15312222 102.43568293 271.52740566 104.375 273.875 C106 276 106 276 106 278 C106.66 278 107.32 278 108 278 C109.48046875 280.0546875 109.48046875 280.0546875 111.1875 282.875 C113.40907973 286.48051464 115.67091538 289.97020904 118.1875 293.375 C121.96953534 298.70107729 125.18910435 304.33966464 128.4375 310 C128.98237061 310.94536621 129.52724121 311.89073242 130.08862305 312.86474609 C130.59433838 313.75500488 131.10005371 314.64526367 131.62109375 315.5625 C132.30836548 316.77099609 132.30836548 316.77099609 133.00952148 318.00390625 C134 320 134 320 134 322 C134.66 322 135.32 322 136 322 C139 327.75 139 327.75 139 330 C139.66 330 140.32 330 141 330 C161.25672455 369.58801498 161.25672455 369.58801498 159 382 C155.68186354 385.98176375 154.56932352 386.856875 149.359375 387.33203125 C144.40800357 387.1926039 140.28878172 385.55175307 135.75 383.6875 C133.8829643 382.94232788 132.01576826 382.1975574 130.1484375 381.453125 C128.65908691 380.85274414 128.65908691 380.85274414 127.13964844 380.24023438 C123.89404489 378.95814526 120.62834384 377.7468765 117.3515625 376.546875 C101.22775036 370.56492817 86.75029148 363.28024675 71.91162109 354.66845703 C68.03429691 352.44661958 64.09322166 350.36606908 60.125 348.3125 C51.95589391 344.04819412 43.96118378 339.48641718 35.97265625 334.89453125 C35.15684082 334.42740723 34.34102539 333.9602832 33.50048828 333.47900391 C31.75261055 332.44515863 30.02833022 331.37083451 28.32373047 330.26708984 C27.45248535 329.70844238 26.58124023 329.14979492 25.68359375 328.57421875 C24.9042749 328.05819092 24.12495605 327.54216309 23.32202148 327.01049805 C20.41920006 325.7472473 18.97863742 326.05877173 16 327 C13.85569242 328.23206033 13.85569242 328.23206033 11.75 329.875 C-1.09377829 339.15737664 -14.51832559 347.19996587 -28.49023438 354.65917969 C-30.95183749 355.9742696 -33.40584286 357.30273981 -35.859375 358.6328125 C-45.64018597 363.89817403 -55.55969736 368.6334254 -65.75732422 373.03222656 C-69.55425394 374.67070135 -73.34152253 376.33072325 -77.125 378 C-77.87201172 378.32871094 -78.61902344 378.65742188 -79.38867188 378.99609375 C-83.69158396 380.90933278 -87.90500886 382.9402439 -92.08740234 385.10351562 C-98.26402936 388.29795412 -104.4605777 391.12189778 -111 393.5 C-111.68199463 393.75539551 -112.36398926 394.01079102 -113.06665039 394.27392578 C-118.7882892 396.26582597 -124.33716256 397.27594294 -130 394.5625 C-132.91290333 390.83034261 -132.32332608 387.59441812 -132 383 C-131.5954926 380.01978029 -130.99463459 377.11564844 -130.3125 374.1875 C-130.13388428 373.40415283 -129.95526855 372.62080566 -129.77124023 371.8137207 C-128.43705483 366.23330534 -126.63636674 361.05841663 -124.265625 355.82421875 C-122.96521193 352.92237106 -121.88925611 349.99141046 -120.8125 347 C-113.34257659 327.49004477 -102.40033455 309.06503607 -92 291 C-92.969375 290.731875 -93.93875 290.46375 -94.9375 290.1875 C-99.87302737 288.09213526 -102.46394448 284.04547472 -105.6796875 279.9140625 C-111.09732044 273.11009925 -117.31407341 267.49597769 -124.34765625 262.41015625 C-124.89292969 261.94480469 -125.43820313 261.47945313 -126 261 C-126 260.34 -126 259.68 -126 259 C-126.639375 258.731875 -127.27875 258.46375 -127.9375 258.1875 C-130 257 -130 257 -131 254 C-131.66 254 -132.32 254 -133 254 C-134.72718189 252.37151422 -136.3647644 250.71742999 -138 249 C-143.41809772 243.43653868 -149.07347512 238.24235767 -155.0625 233.296875 C-155.701875 232.76578125 -156.34125 232.2346875 -157 231.6875 C-157.5775 231.21699219 -158.155 230.74648438 -158.75 230.26171875 C-160 229 -160 229 -160 227 C-160.66 227 -161.32 227 -162 227 C-162 226.34 -162 225.68 -162 225 C-162.58265625 224.7421875 -163.1653125 224.484375 -163.765625 224.21875 C-166.1802903 222.90165983 -167.81740177 221.44911616 -169.75 219.5 C-170.36359375 218.8915625 -170.9771875 218.283125 -171.609375 217.65625 C-173 216 -173 216 -173 214 C-173.639375 213.731875 -174.27875 213.46375 -174.9375 213.1875 C-177 212 -177 212 -178 209 C-178.66 208.67 -179.32 208.34 -180 208 C-182 207 -182 207 -183 204 C-183.66 204 -184.32 204 -185 204 C-186.26171875 202.609375 -186.26171875 202.609375 -187.6875 200.75 C-189.84507958 198.10590738 -191.61760853 196.48291368 -194.6875 195 C-198.86806266 192.47588669 -199.80561976 190.69789562 -201 186 C-200.37607697 180.83035202 -198.8275775 178.4314704 -194.78735352 175.22705078 C-191.62536557 173.0562884 -188.24645452 171.6475533 -184.6875 170.25 C-183.85009277 169.91709961 -183.01268555 169.58419922 -182.14990234 169.24121094 C-170.35255056 164.75509902 -158.06766859 161.73193368 -145.86897278 158.5533905 C-141.47982627 157.40556446 -137.1160864 156.18705565 -132.7578125 154.92578125 C-113.36931159 149.34345264 -94.08817872 145.83342517 -74 144 C-73.88269531 142.91847656 -73.76539063 141.83695313 -73.64453125 140.72265625 C-72.95585976 135.23378766 -71.82701198 129.84783105 -70.6875 124.4375 C-70.34984619 122.83044189 -70.34984619 122.83044189 -70.00537109 121.19091797 C-68.42743244 113.78433563 -66.6574537 106.48826719 -64.60400391 99.19824219 C-63.87865065 96.55835506 -63.19525857 93.90883278 -62.51171875 91.2578125 C-58.35645095 75.2548803 -53.4782966 59.59743121 -48 44 C-47.73968994 43.25878906 -47.47937988 42.51757812 -47.21118164 41.75390625 C-45.20010954 36.03791787 -43.16694331 30.33002261 -41.125 24.625 C-40.84219177 23.83079651 -40.55938354 23.03659302 -40.26800537 22.21832275 C-39.45789903 19.94810333 -38.64030865 17.68072577 -37.8203125 15.4140625 C-37.58000305 14.73815063 -37.3396936 14.06223877 -37.09210205 13.36584473 C-35.73782423 9.65263544 -34.29800654 6.23053093 -32 3 C-31.34 3 -30.68 3 -30 3 C-29.773125 2.401875 -29.54625 1.80375 -29.3125 1.1875 C-23.27696814 -8.87171977 -8.59828662 -3.21711174 0 0 Z " fill="#FFFFFF" transform="translate(256,48)"/>
<path d="M0 0 C9.59408628 4.48162112 18.42684619 12.70733574 25 21 C25 21.66 25 22.32 25 23 C25.66 23 26.32 23 27 23 C38.15127097 38.70532203 44.4470834 56.38684383 49.6875 74.75 C52.51276563 84.64156348 55.88369905 94.15585572 59.75 103.6875 C63.19751879 112.18726648 66.29221482 120.43710922 68.21875 129.41015625 C69.28869658 134.32656078 70.64770571 139.15482585 72 144 C91.18676106 148.19139098 107.80962263 150.38337226 127.25390625 147.453125 C136.05290188 146.38880436 144.54724266 146.15830285 153 149 C157.4398224 149.74864163 161.91734871 150.24535724 166.38867188 150.76757812 C175.11465158 151.89331036 175.11465158 151.89331036 179 155 C180.48019915 157.9603983 180.37712046 159.67756876 180 163 C178.51916217 166.19482569 176.65602582 169.10646251 174.75 172.0625 C174.25886719 172.85205078 173.76773437 173.64160156 173.26171875 174.45507812 C169.38249118 180.62563612 165.15419002 185.84580998 160 191 C156.42104765 194.89573344 152.86271384 198.81509954 149.43041992 202.84106445 C145.2379103 207.73202871 140.79464673 212.19541763 136.0625 216.5625 C135.39798828 217.18318359 134.73347656 217.80386719 134.04882812 218.44335938 C127.48041616 224.55306556 120.81921523 230.49129816 113.6875 235.9375 C113.13771484 236.35789551 112.58792969 236.77829102 112.02148438 237.21142578 C107.54705271 240.61873896 103.0093191 243.93539638 98.4375 247.2109375 C96.68791383 248.49508889 94.98372727 249.84197014 93.3125 251.2265625 C91 253 91 253 89 253 C89.66 254.98 90.32 256.96 91 259 C91.66 259 92.32 259 93 259 C93.33 260.32 93.66 261.64 94 263 C94.66 263 95.32 263 96 263 C97.3671875 264.57421875 97.3671875 264.57421875 98.875 266.6875 C100.65548472 269.15312222 102.43568293 271.52740566 104.375 273.875 C106 276 106 276 106 278 C106.66 278 107.32 278 108 278 C109.48046875 280.0546875 109.48046875 280.0546875 111.1875 282.875 C113.40907973 286.48051464 115.67091538 289.97020904 118.1875 293.375 C121.96953534 298.70107729 125.18910435 304.33966464 128.4375 310 C128.98237061 310.94536621 129.52724121 311.89073242 130.08862305 312.86474609 C130.59433838 313.75500488 131.10005371 314.64526367 131.62109375 315.5625 C132.30836548 316.77099609 132.30836548 316.77099609 133.00952148 318.00390625 C134 320 134 320 134 322 C134.66 322 135.32 322 136 322 C139 327.75 139 327.75 139 330 C139.66 330 140.32 330 141 330 C161.25672455 369.58801498 161.25672455 369.58801498 159 382 C155.68186354 385.98176375 154.56932352 386.856875 149.359375 387.33203125 C144.40800357 387.1926039 140.28878172 385.55175307 135.75 383.6875 C133.8829643 382.94232788 132.01576826 382.1975574 130.1484375 381.453125 C128.65908691 380.85274414 128.65908691 380.85274414 127.13964844 380.24023438 C123.89404489 378.95814526 120.62834384 377.7468765 117.3515625 376.546875 C101.22775036 370.56492817 86.75029148 363.28024675 71.91162109 354.66845703 C68.03429691 352.44661958 64.09322166 350.36606908 60.125 348.3125 C51.95589391 344.04819412 43.96118378 339.48641718 35.97265625 334.89453125 C35.15684082 334.42740723 34.34102539 333.9602832 33.50048828 333.47900391 C31.75261055 332.44515863 30.02833022 331.37083451 28.32373047 330.26708984 C27.45248535 329.70844238 26.58124023 329.14979492 25.68359375 328.57421875 C24.9042749 328.05819092 24.12495605 327.54216309 23.32202148 327.01049805 C20.41920006 325.7472473 18.97863742 326.05877173 16 327 C13.85569242 328.23206033 13.85569242 328.23206033 11.75 329.875 C-1.09377829 339.15737664 -14.51832559 347.19996587 -28.49023438 354.65917969 C-30.95183749 355.9742696 -33.40584286 357.30273981 -35.859375 358.6328125 C-45.64018597 363.89817403 -55.55969736 368.6334254 -65.75732422 373.03222656 C-69.55425394 374.67070135 -73.34152253 376.33072325 -77.125 378 C-77.87201172 378.32871094 -78.61902344 378.65742188 -79.38867188 378.99609375 C-83.69158396 380.90933278 -87.90500886 382.9402439 -92.08740234 385.10351562 C-98.26402936 388.29795412 -104.4605777 391.12189778 -111 393.5 C-111.68199463 393.75539551 -112.36398926 394.01079102 -113.06665039 394.27392578 C-118.7882892 396.26582597 -124.33716256 397.27594294 -130 394.5625 C-132.91290333 390.83034261 -132.32332608 387.59441812 -132 383 C-131.5954926 380.01978029 -130.99463459 377.11564844 -130.3125 374.1875 C-130.13388428 373.40415283 -129.95526855 372.62080566 -129.77124023 371.8137207 C-128.43705483 366.23330534 -126.63636674 361.05841663 -124.265625 355.82421875 C-122.96521193 352.92237106 -121.88925611 349.99141046 -120.8125 347 C-113.34257659 327.49004477 -102.40033455 309.06503607 -92 291 C-92.969375 290.731875 -93.93875 290.46375 -94.9375 290.1875 C-99.87302737 288.09213526 -102.46394448 284.04547472 -105.6796875 279.9140625 C-111.09732044 273.11009925 -117.31407341 267.49597769 -124.34765625 262.41015625 C-124.89292969 261.94480469 -125.43820313 261.47945313 -126 261 C-126 260.34 -126 259.68 -126 259 C-126.639375 258.731875 -127.27875 258.46375 -127.9375 258.1875 C-130 257 -130 257 -131 254 C-131.66 254 -132.32 254 -133 254 C-134.72718189 252.37151422 -136.3647644 250.71742999 -138 249 C-143.41809772 243.43653868 -149.07347512 238.24235767 -155.0625 233.296875 C-155.701875 232.76578125 -156.34125 232.2346875 -157 231.6875 C-157.5775 231.21699219 -158.155 230.74648438 -158.75 230.26171875 C-160 229 -160 229 -160 227 C-160.66 227 -161.32 227 -162 227 C-162 226.34 -162 225.68 -162 225 C-162.58265625 224.7421875 -163.1653125 224.484375 -163.765625 224.21875 C-166.1802903 222.90165983 -167.81740177 221.44911616 -169.75 219.5 C-170.36359375 218.8915625 -170.9771875 218.283125 -171.609375 217.65625 C-173 216 -173 216 -173 214 C-173.639375 213.731875 -174.27875 213.46375 -174.9375 213.1875 C-177 212 -177 212 -178 209 C-178.66 208.67 -179.32 208.34 -180 208 C-182 207 -182 207 -183 204 C-183.66 204 -184.32 204 -185 204 C-186.26171875 202.609375 -186.26171875 202.609375 -187.6875 200.75 C-189.84507958 198.10590738 -191.61760853 196.48291368 -194.6875 195 C-198.86806266 192.47588669 -199.80561976 190.69789562 -201 186 C-200.37607697 180.83035202 -198.8275775 178.4314704 -194.78735352 175.22705078 C-191.62536557 173.0562884 -188.24645452 171.6475533 -184.6875 170.25 C-183.85009277 169.91709961 -183.01268555 169.58419922 -182.14990234 169.24121094 C-170.35255056 164.75509902 -158.06766859 161.73193368 -145.86897278 158.5533905 C-141.47982627 157.40556446 -137.1160864 156.18705565 -132.7578125 154.92578125 C-113.36931159 149.34345264 -94.08817872 145.83342517 -74 144 C-73.88269531 142.91847656 -73.76539063 141.83695313 -73.64453125 140.72265625 C-72.95585976 135.23378766 -71.82701198 129.84783105 -70.6875 124.4375 C-70.34984619 122.83044189 -70.34984619 122.83044189 -70.00537109 121.19091797 C-68.42743244 113.78433563 -66.6574537 106.48826719 -64.60400391 99.19824219 C-63.87865065 96.55835506 -63.19525857 93.90883278 -62.51171875 91.2578125 C-58.35645095 75.2548803 -53.4782966 59.59743121 -48 44 C-47.73968994 43.25878906 -47.47937988 42.51757812 -47.21118164 41.75390625 C-45.20010954 36.03791787 -43.16694331 30.33002261 -41.125 24.625 C-40.84219177 23.83079651 -40.55938354 23.03659302 -40.26800537 22.21832275 C-39.45789903 19.94810333 -38.64030865 17.68072577 -37.8203125 15.4140625 C-37.58000305 14.73815063 -37.3396936 14.06223877 -37.09210205 13.36584473 C-35.73782423 9.65263544 -34.29800654 6.23053093 -32 3 C-31.34 3 -30.68 3 -30 3 C-29.773125 2.401875 -29.54625 1.80375 -29.3125 1.1875 C-23.27696814 -8.87171977 -8.59828662 -3.21711174 0 0 Z M-15 20 C-15.43699219 21.19822388 -15.43699219 21.19822388 -15.8828125 22.4206543 C-17.00183114 25.48673898 -18.12207656 28.55236955 -19.2432251 31.61767578 C-19.74894001 33.00083604 -20.25426863 34.38413759 -20.75921631 35.76757812 C-23.48826641 43.24220493 -26.2484261 50.6957481 -29.17773438 58.09472656 C-36.64225834 77.04846112 -41.93552421 96.74789248 -47.0625 116.4375 C-49.48565221 125.71940507 -52.11273091 134.8699464 -55.25 143.9375 C-55.56718994 144.86038818 -55.88437988 145.78327637 -56.21118164 146.73413086 C-58.02755796 151.8263779 -59.96675094 156.50696244 -63 161 C-66.46311966 162.00745299 -68.83539665 162.2818762 -72.34521484 161.43237305 C-75.56431614 160.90809234 -77.85848301 161.37048948 -81.0390625 162.08203125 C-82.24159668 162.34951172 -83.44413086 162.61699219 -84.68310547 162.89257812 C-85.99729814 163.19824085 -87.31125675 163.50491137 -88.625 163.8125 C-89.63509125 164.0441687 -89.63509125 164.0441687 -90.66558838 164.28051758 C-105.53225159 167.69786116 -120.16343761 171.89355844 -134.79534912 176.1907196 C-142.6567636 178.49607183 -150.55176119 180.67768417 -158.45263672 182.84375 C-159.38350098 183.1015625 -160.31436523 183.359375 -161.2734375 183.625 C-162.47105713 183.95371094 -162.47105713 183.95371094 -163.69287109 184.2890625 C-166.1922721 185.05924829 -168.58492797 185.99866781 -171 187 C-166.98067697 191.81214979 -162.78773889 196.37166278 -158.359375 200.80859375 C-157.75111877 201.42017838 -157.14286255 202.031763 -156.51617432 202.66188049 C-155.24353258 203.93954318 -153.96957158 205.21589307 -152.69433594 206.4909668 C-150.73603872 208.45147706 -148.78590915 210.41988471 -146.8359375 212.38867188 C-145.5942387 213.63330024 -144.35206831 214.87745835 -143.109375 216.12109375 C-142.52605408 216.71160019 -141.94273315 217.30210663 -141.34173584 217.9105072 C-138.67307133 220.98388309 -138.67307133 220.98388309 -135 222 C-134.67 222.99 -134.34 223.98 -134 225 C-132.21229131 226.88750903 -132.21229131 226.88750903 -130.0625 228.6875 C-129.35222656 229.31011719 -128.64195312 229.93273437 -127.91015625 230.57421875 C-126.13014184 232.19938765 -126.13014184 232.19938765 -124 232 C-123.73590332 232.58934326 -123.47180664 233.17868652 -123.19970703 233.78588867 C-121.95422948 236.08447149 -120.65447786 237.58939517 -118.8046875 239.42578125 C-118.17481934 240.05427979 -117.54495117 240.68277832 -116.89599609 241.33032227 C-116.22906738 241.98444092 -115.56213867 242.63855957 -114.875 243.3125 C-114.19646973 243.98531006 -113.51793945 244.65812012 -112.81884766 245.35131836 C-108.86335501 249.24946442 -104.83352453 252.99947724 -100.578125 256.5703125 C-98.90986053 258.081661 -97.53209099 259.68267963 -96.125 261.4375 C-95.42375 262.283125 -94.7225 263.12875 -94 264 C-93.34 264 -92.68 264 -92 264 C-91.7525 264.53625 -91.505 265.0725 -91.25 265.625 C-89.66459977 268.63726043 -88.10434836 271.31111043 -86 274 C-85.04480469 274.19980469 -84.08960938 274.39960938 -83.10546875 274.60546875 C-79.57687812 276.19000567 -79.32395023 276.71325712 -77.84765625 280.10546875 C-77.22842323 281.7907903 -76.63411641 283.48543862 -76.0625 285.1875 C-75.74732422 286.02603516 -75.43214844 286.86457031 -75.10742188 287.72851562 C-73.25515833 292.96637347 -72.70193635 296.58040091 -74 302 C-75.39436279 302.33040283 -75.39436279 302.33040283 -76.81689453 302.66748047 C-80.74500155 304.3118744 -81.27394348 305.47256394 -82.9296875 309.3203125 C-83.41099121 310.40521973 -83.89229492 311.49012695 -84.38818359 312.60791016 C-85.12415771 314.34886963 -85.12415771 314.34886963 -85.875 316.125 C-86.92494565 318.51135835 -87.9770251 320.89677902 -89.03125 323.28125 C-89.53785156 324.44011719 -90.04445313 325.59898437 -90.56640625 326.79296875 C-92.36411696 330.81455047 -94.33680891 334.72161944 -96.375 338.625 C-101.68908832 348.97263181 -105.44532855 359.94102217 -109 371 C-105.15997923 370.38829994 -102.10247216 369.24096745 -98.625 367.515625 C-97.5721582 366.99935547 -96.51931641 366.48308594 -95.43457031 365.95117188 C-93.73445801 365.1090918 -93.73445801 365.1090918 -92 364.25 C-83.37685636 360.01438088 -74.7095657 355.94378615 -65.90551758 352.09814453 C-51.73353137 345.9023373 -38.27263887 338.94159966 -25 331 C-24.15808105 330.50193848 -23.31616211 330.00387695 -22.44873047 329.49072266 C-4.86104581 319.19244916 -4.86104581 319.19244916 10.1484375 305.56640625 C12.44924075 303.61994612 14.01709119 303.25978677 17 303 C20.8125 303.9375 20.8125 303.9375 24 305 C24 305.66 24 306.32 24 307 C24.98097656 307.47308594 25.96195313 307.94617188 26.97265625 308.43359375 C34.59572333 312.15267449 41.98516696 316.0731203 49.21777344 320.50390625 C54.01844333 323.43667913 58.88845823 326.21724001 63.8125 328.9375 C64.56063965 329.35080566 65.3087793 329.76411133 66.07958984 330.18994141 C68.38554995 331.4614982 70.69276629 332.73075593 73 334 C76.16840966 335.7468615 79.33492613 337.49710217 82.5 339.25 C83.25925781 339.66983154 84.01851562 340.08966309 84.80078125 340.5222168 C88.69320414 342.68376657 92.5281378 344.90235043 96.3125 347.25 C105.06131998 352.55860602 114.66294128 356.32123682 124.0625 360.3125 C124.88419678 360.66231934 125.70589355 361.01213867 126.55249023 361.37255859 C127.33052002 361.69949707 128.1085498 362.02643555 128.91015625 362.36328125 C129.60246338 362.65501221 130.29477051 362.94674316 131.00805664 363.24731445 C132.98648932 363.99489479 134.93960416 364.53024705 137 365 C132.19218249 355.77382505 127.15261208 346.72891628 121.83203125 337.7890625 C119.734453 334.26032801 117.67819501 330.70991657 115.63671875 327.1484375 C106.24217388 310.79180604 96.23191382 295.48002426 84.42333984 280.77929688 C81.86348531 277.57925917 79.34068176 274.35007342 76.8125 271.125 C75.88166156 269.93998542 74.95068665 268.75507803 74.01953125 267.5703125 C73.35308594 266.72210938 72.68664062 265.87390625 72 265 C71.53819336 265.35513672 71.07638672 265.71027344 70.60058594 266.07617188 C69.98473633 266.53572266 69.36888672 266.99527344 68.734375 267.46875 C68.12819336 267.92701172 67.52201172 268.38527344 66.89746094 268.85742188 C63.85925626 270.68691208 61.42639845 270.52713822 58 270 C55.57805073 268.46609879 55.11270599 267.30591626 54.125 264.625 C53.95800487 261.11810223 54.87307623 259.7650009 57 257 C58.62332967 255.61423077 60.28724465 254.27358732 62 253 C62.66 252.34 63.32 251.68 64 251 C63.195625 250.030625 62.39125 249.06125 61.5625 248.0625 C58.65638369 243.95729844 57.37711469 240.04914611 58 235 C60 231.9375 60 231.9375 63 230 C66.5625 229.625 66.5625 229.625 70 230 C70.763125 230.061875 71.52625 230.12375 72.3125 230.1875 C74 231 74 231 75.0625 233.3125 C75.371875 234.199375 75.68125 235.08625 76 236 C76.95824253 237.36365283 77.94721175 238.70794169 79 240 C82.47964974 238.74563753 85.08787757 237.34741174 87.9375 235 C91.28435133 232.30796741 94.69779976 229.78899082 98.22363281 227.34155273 C103.63833502 223.57527222 108.48853785 219.80873633 113.0234375 214.984375 C115.316219 212.68253112 117.76884975 210.70808977 120.3125 208.6875 C126.27589235 203.89340026 131.92746456 198.73971611 137 193 C137 192.34 137 191.68 137 191 C137.99 190.67 138.98 190.34 140 190 C141.45907021 188.38840371 142.84542621 186.71025332 144.1875 185 C147.76740852 180.50171626 151.46745106 176.19174481 155.37109375 171.97265625 C156.95177047 170.05840746 157.99382483 168.26010201 159 166 C157.00954348 164.00954348 153.30045183 164.32359911 150.5625 164 C143.26552984 163.13276492 143.26552984 163.13276492 141 162 C138.02687478 162.06400074 135.0906255 162.18935834 132.125 162.375 C131.30902344 162.41882813 130.49304688 162.46265625 129.65234375 162.5078125 C125.28893144 162.72966149 125.28893144 162.72966149 121.00366211 163.50708008 C108.75529531 166.52029472 94.69454057 163.80212315 82.7109375 160.875 C79.14879523 159.88525192 79.14879523 159.88525192 76 160 C75.071875 161.7015625 75.071875 161.7015625 74.125 163.4375 C72.25 166.875 72.25 166.875 70 168 C63.80576212 168.57354054 63.80576212 168.57354054 60.98046875 166.5625 C58.1597153 162.91276772 57.04743407 159.05931751 55.6875 154.6875 C55.38755127 153.76179199 55.08760254 152.83608398 54.77856445 151.88232422 C53.22461215 147.0455513 51.7529525 142.18939019 50.34375 137.30859375 C47.26236192 126.68902242 43.71515513 116.6841446 39.1184082 106.62524414 C34.28185849 95.81737749 30.55858453 84.61796188 26.81787109 73.39404297 C21.99293041 59.08968587 16.37963961 45.23354049 6 34 C5.18144531 33.113125 4.36289062 32.22625 3.51953125 31.3125 C-0.95769394 26.6523927 -5.0495994 22.61817626 -11 20 C-12.32 20 -13.64 20 -15 20 Z " fill="#000000" transform="translate(256,48)"/>
</svg>
