<?xml version="1.0" encoding="UTF-8"?>
<svg version="1.1" xmlns="http://www.w3.org/2000/svg" width="500" height="500">
<path d="M0 0 C0.6084375 0.54914062 1.216875 1.09828125 1.84375 1.6640625 C1.84375 2.3240625 1.84375 2.9840625 1.84375 3.6640625 C2.50375 3.8703125 3.16375 4.0765625 3.84375 4.2890625 C7.92294941 6.15869556 11.53447803 8.62540856 14.84375 11.6640625 C15.17375 12.6540625 15.50375 13.6440625 15.84375 14.6640625 C16.50375 14.6640625 17.16375 14.6640625 17.84375 14.6640625 C19.46484375 16.89453125 19.46484375 16.89453125 21.28125 19.8515625 C21.87808594 20.81449219 22.47492188 21.77742188 23.08984375 22.76953125 C23.66863281 23.72472656 24.24742187 24.67992187 24.84375 25.6640625 C25.69646484 27.01951172 25.69646484 27.01951172 26.56640625 28.40234375 C27.84375 30.6640625 27.84375 30.6640625 27.84375 32.6640625 C28.50375 32.6640625 29.16375 32.6640625 29.84375 32.6640625 C33.37973014 39.76110064 36.45457239 46.92051252 39.03125 54.4140625 C39.26859863 55.07841309 39.50594727 55.74276367 39.75048828 56.42724609 C40.54836179 58.82086663 41.21159429 61.22108238 41.84375 63.6640625 C42.1224292 64.73914063 42.4011084 65.81421875 42.68823242 66.921875 C46.20358568 83.13298666 44.99895087 99.87938178 44.70678711 116.36816406 C44.2849143 141.17391201 46.0252761 164.01867349 54.99316406 187.38134766 C56.34803247 191.01740381 57.51122534 194.70751039 58.65625 198.4140625 C59.03394531 199.62578125 59.41164063 200.8375 59.80078125 202.0859375 C60.51809095 204.54682022 61.1710412 207.02708534 61.76953125 209.51953125 C62.70214218 213.33354719 63.97538177 216.9706591 65.30639648 220.66162109 C77.93591209 256.16755926 77.29477686 294.14575368 63.73632812 329.23779297 C62.84045342 331.67302349 62.07232163 334.12006799 61.328125 336.60546875 C57.68585226 348.34779101 52.29859644 355.53076836 43.49609375 364.00341797 C41.08946913 366.42213261 39.05941811 369.02974583 36.96875 371.7265625 C25.65506364 385.72415256 6.05772911 393.20334693 -10.3515625 399.546875 C-12.48762751 400.39773098 -14.60432083 401.29739458 -16.7109375 402.21875 C-32.53129652 409.10012925 -50.06056497 415.70620585 -67.46484375 415.84106445 C-68.17165283 415.84763565 -68.87846191 415.85420685 -69.60668945 415.86097717 C-71.9357111 415.88060447 -74.26466799 415.89236044 -76.59375 415.90234375 C-77.399263 415.90641928 -78.204776 415.9104948 -79.03469849 415.91469383 C-83.31349423 415.93552799 -87.59225834 415.94983095 -91.87109375 415.95922852 C-95.36606666 415.96801755 -98.86063275 415.98872474 -102.35546875 416.02075195 C-138.35533695 416.34377841 -138.35533695 416.34377841 -155.99745178 412.13441467 C-159.68392712 411.33121701 -163.415724 410.8871623 -167.15625 410.4140625 C-175.79199207 409.16009628 -184.17634857 406.98032044 -192.59375 404.7265625 C-194.47803711 404.22237793 -194.47803711 404.22237793 -196.40039062 403.70800781 C-228.36495697 394.9680933 -228.36495697 394.9680933 -235.15625 384.6640625 C-235.15625 384.0040625 -235.15625 383.3440625 -235.15625 382.6640625 C-235.81625 382.9940625 -236.47625 383.3240625 -237.15625 383.6640625 C-241.54933832 384.19054263 -245.04281423 384.32200182 -248.90625 382.0390625 C-250.96193572 379.86917202 -252.85230215 377.62212231 -254.71875 375.2890625 C-256.34222629 373.45382843 -258.09634798 371.93140171 -259.96875 370.3515625 C-264.48698932 366.47516652 -268.34915285 362.233966 -272.15625 357.6640625 C-272.99800781 356.65988281 -273.83976562 355.65570313 -274.70703125 354.62109375 C-279.68084761 348.5244844 -283.38569159 342.81143281 -286.13671875 335.35546875 C-287.03586015 332.98187326 -288.06927188 330.97189594 -289.34375 328.7890625 C-296.14273793 315.35691562 -293.53825908 296.4438514 -289.15625 282.6640625 C-287.96048401 279.22932776 -286.72114427 275.81498415 -285.453125 272.40625 C-284.55943579 269.8274721 -283.78329961 267.36423022 -283.109375 264.734375 C-280.94430428 256.3449768 -278.02366805 248.99217552 -273.90625 241.3515625 C-273.42752441 240.45840332 -272.94879883 239.56524414 -272.45556641 238.64501953 C-270.60521664 235.20315792 -268.75330679 231.76218773 -266.88671875 228.32910156 C-255.04261905 206.09730204 -250.83848503 178.91112706 -251.20334625 153.95732117 C-251.24616872 150.83554517 -251.26906734 147.71370957 -251.29337692 144.59174347 C-251.33856382 138.80910099 -251.3906998 133.02679731 -251.47851562 127.24462891 C-251.77022164 107.42145458 -251.23330434 88.99013499 -246.15625 69.6640625 C-245.74146504 68.00365936 -245.3272914 66.34310336 -244.91381836 64.68237305 C-241.29299045 50.24278047 -233.87579642 37.63821008 -225.15625 25.6640625 C-224.35767578 24.5503125 -224.35767578 24.5503125 -223.54296875 23.4140625 C-208.81108949 4.99074683 -182.45480246 -9.33786859 -159.15625 -12.3359375 C-152.22282974 -12.72073164 -145.39619153 -12.58416488 -138.4921875 -11.890625 C-127.35289797 -10.68996041 -127.35289797 -10.68996041 -117.58984375 -15.6953125 C-110.16170871 -20.70304399 -101.21443821 -21.12674475 -92.53125 -21.9609375 C-90.16397685 -22.20228639 -87.79678656 -22.44444965 -85.4296875 -22.6875 C-83.78081543 -22.85282227 -83.78081543 -22.85282227 -82.09863281 -23.02148438 C-79.77509115 -23.2698018 -77.47370334 -23.55634256 -75.1640625 -23.90625 C-49.52327911 -27.56921906 -20.3477329 -15.02141458 0 0 Z " fill="#FFFFFF" transform="translate(348.15625,62.3359375)"/>
<path d="M0 0 C0.6084375 0.54914062 1.216875 1.09828125 1.84375 1.6640625 C1.84375 2.3240625 1.84375 2.9840625 1.84375 3.6640625 C2.50375 3.8703125 3.16375 4.0765625 3.84375 4.2890625 C7.92294941 6.15869556 11.53447803 8.62540856 14.84375 11.6640625 C15.17375 12.6540625 15.50375 13.6440625 15.84375 14.6640625 C16.50375 14.6640625 17.16375 14.6640625 17.84375 14.6640625 C19.46484375 16.89453125 19.46484375 16.89453125 21.28125 19.8515625 C21.87808594 20.81449219 22.47492188 21.77742188 23.08984375 22.76953125 C23.66863281 23.72472656 24.24742187 24.67992187 24.84375 25.6640625 C25.69646484 27.01951172 25.69646484 27.01951172 26.56640625 28.40234375 C27.84375 30.6640625 27.84375 30.6640625 27.84375 32.6640625 C28.50375 32.6640625 29.16375 32.6640625 29.84375 32.6640625 C33.37973014 39.76110064 36.45457239 46.92051252 39.03125 54.4140625 C39.26859863 55.07841309 39.50594727 55.74276367 39.75048828 56.42724609 C40.54836179 58.82086663 41.21159429 61.22108238 41.84375 63.6640625 C42.1224292 64.73914063 42.4011084 65.81421875 42.68823242 66.921875 C46.20358568 83.13298666 44.99895087 99.87938178 44.70678711 116.36816406 C44.2849143 141.17391201 46.0252761 164.01867349 54.99316406 187.38134766 C56.34803247 191.01740381 57.51122534 194.70751039 58.65625 198.4140625 C59.03394531 199.62578125 59.41164063 200.8375 59.80078125 202.0859375 C60.51809095 204.54682022 61.1710412 207.02708534 61.76953125 209.51953125 C62.70214218 213.33354719 63.97538177 216.9706591 65.30639648 220.66162109 C77.93591209 256.16755926 77.29477686 294.14575368 63.73632812 329.23779297 C62.84045342 331.67302349 62.07232163 334.12006799 61.328125 336.60546875 C57.68585226 348.34779101 52.29859644 355.53076836 43.49609375 364.00341797 C41.08946913 366.42213261 39.05941811 369.02974583 36.96875 371.7265625 C25.65506364 385.72415256 6.05772911 393.20334693 -10.3515625 399.546875 C-12.48762751 400.39773098 -14.60432083 401.29739458 -16.7109375 402.21875 C-32.53129652 409.10012925 -50.06056497 415.70620585 -67.46484375 415.84106445 C-68.17165283 415.84763565 -68.87846191 415.85420685 -69.60668945 415.86097717 C-71.9357111 415.88060447 -74.26466799 415.89236044 -76.59375 415.90234375 C-77.399263 415.90641928 -78.204776 415.9104948 -79.03469849 415.91469383 C-83.31349423 415.93552799 -87.59225834 415.94983095 -91.87109375 415.95922852 C-95.36606666 415.96801755 -98.86063275 415.98872474 -102.35546875 416.02075195 C-138.35533695 416.34377841 -138.35533695 416.34377841 -155.99745178 412.13441467 C-159.68392712 411.33121701 -163.415724 410.8871623 -167.15625 410.4140625 C-175.79199207 409.16009628 -184.17634857 406.98032044 -192.59375 404.7265625 C-194.47803711 404.22237793 -194.47803711 404.22237793 -196.40039062 403.70800781 C-228.36495697 394.9680933 -228.36495697 394.9680933 -235.15625 384.6640625 C-235.15625 384.0040625 -235.15625 383.3440625 -235.15625 382.6640625 C-235.81625 382.9940625 -236.47625 383.3240625 -237.15625 383.6640625 C-241.54933832 384.19054263 -245.04281423 384.32200182 -248.90625 382.0390625 C-250.96193572 379.86917202 -252.85230215 377.62212231 -254.71875 375.2890625 C-256.34222629 373.45382843 -258.09634798 371.93140171 -259.96875 370.3515625 C-264.48698932 366.47516652 -268.34915285 362.233966 -272.15625 357.6640625 C-272.99800781 356.65988281 -273.83976562 355.65570313 -274.70703125 354.62109375 C-279.68084761 348.5244844 -283.38569159 342.81143281 -286.13671875 335.35546875 C-287.03586015 332.98187326 -288.06927188 330.97189594 -289.34375 328.7890625 C-296.14273793 315.35691562 -293.53825908 296.4438514 -289.15625 282.6640625 C-287.96048401 279.22932776 -286.72114427 275.81498415 -285.453125 272.40625 C-284.55943579 269.8274721 -283.78329961 267.36423022 -283.109375 264.734375 C-280.94430428 256.3449768 -278.02366805 248.99217552 -273.90625 241.3515625 C-273.42752441 240.45840332 -272.94879883 239.56524414 -272.45556641 238.64501953 C-270.60521664 235.20315792 -268.75330679 231.76218773 -266.88671875 228.32910156 C-255.04261905 206.09730204 -250.83848503 178.91112706 -251.20334625 153.95732117 C-251.24616872 150.83554517 -251.26906734 147.71370957 -251.29337692 144.59174347 C-251.33856382 138.80910099 -251.3906998 133.02679731 -251.47851562 127.24462891 C-251.77022164 107.42145458 -251.23330434 88.99013499 -246.15625 69.6640625 C-245.74146504 68.00365936 -245.3272914 66.34310336 -244.91381836 64.68237305 C-241.29299045 50.24278047 -233.87579642 37.63821008 -225.15625 25.6640625 C-224.35767578 24.5503125 -224.35767578 24.5503125 -223.54296875 23.4140625 C-208.81108949 4.99074683 -182.45480246 -9.33786859 -159.15625 -12.3359375 C-152.22282974 -12.72073164 -145.39619153 -12.58416488 -138.4921875 -11.890625 C-127.35289797 -10.68996041 -127.35289797 -10.68996041 -117.58984375 -15.6953125 C-110.16170871 -20.70304399 -101.21443821 -21.12674475 -92.53125 -21.9609375 C-90.16397685 -22.20228639 -87.79678656 -22.44444965 -85.4296875 -22.6875 C-83.78081543 -22.85282227 -83.78081543 -22.85282227 -82.09863281 -23.02148438 C-79.77509115 -23.2698018 -77.47370334 -23.55634256 -75.1640625 -23.90625 C-49.52327911 -27.56921906 -20.3477329 -15.02141458 0 0 Z M-84.65625 -3.5859375 C-86.51830078 -3.35003906 -86.51830078 -3.35003906 -88.41796875 -3.109375 C-98.98924161 -1.66125543 -108.51680688 0.03908604 -116.01171875 8.078125 C-117.35131628 9.60839262 -117.35131628 9.60839262 -117.15625 11.6640625 C-121.58406881 13.45627488 -124.53624611 14.07015064 -129.15625 12.6640625 C-132.08642197 10.30364619 -133.5430442 8.00570309 -135.15625 4.6640625 C-143.75382228 0.36527636 -159.63725405 3.95521323 -168.15625 6.6640625 C-177.26492258 10.0991326 -185.44227065 14.7248784 -193.15625 20.6640625 C-194.30258357 21.49849851 -195.44977979 22.33175022 -196.59765625 23.1640625 C-204.26223021 28.8218076 -210.12927098 34.44897774 -215.15625 42.6640625 C-215.49881836 43.21497559 -215.84138672 43.76588867 -216.19433594 44.33349609 C-232.4438786 70.66363739 -234.02970367 99.4190082 -233.33508301 129.44763184 C-233.17483187 136.41764809 -233.05092291 143.38790428 -232.9765625 150.359375 C-232.9683013 151.10640812 -232.96004009 151.85344124 -232.95152855 152.62311172 C-232.83551459 166.59353073 -234.44784054 179.9523514 -237.15625 193.6640625 C-237.57636357 195.91644341 -237.9957038 198.16896869 -238.41430664 200.42163086 C-242.13820455 220.00998936 -250.28551243 237.09333364 -259.90625 254.4453125 C-262.57052633 259.35696038 -264.47127223 263.92159221 -265.71875 269.3515625 C-267.08833365 274.84634854 -268.64303766 280.12469164 -270.64208984 285.42431641 C-276.29141732 300.73055688 -275.86829118 313.2067115 -269.20727539 328.16992188 C-265.17668392 336.43290396 -259.74455785 342.38068334 -253.15625 348.6640625 C-251.90802439 350.08504448 -250.67571107 351.52036817 -249.46875 352.9765625 C-246.33072025 356.62221471 -242.79740496 359.69689807 -239.171875 362.84765625 C-235.65442346 366.01745269 -233.07707569 369.34220469 -231.15625 373.6640625 C-230.0425 373.5403125 -228.92875 373.4165625 -227.78125 373.2890625 C-223.8933581 373.27342811 -221.90209786 374.24949712 -218.72265625 376.43359375 C-212.6365328 380.22594082 -206.37056998 381.94894633 -199.46875 383.7265625 C-198.19435059 384.06526367 -196.91995117 384.40396484 -195.60693359 384.75292969 C-185.14544702 387.51196535 -174.63671825 389.95535725 -164.02891541 392.0761261 C-161.48368899 392.59704693 -158.9521815 393.15888529 -156.41845703 393.73242188 C-139.11045707 397.41329293 -121.76393097 397.41403203 -104.15185547 397.40527344 C-100.66110293 397.40494847 -97.17245145 397.43275691 -93.68212891 397.48730469 C-66.6962374 397.90254864 -44.21412308 394.93608859 -19.48046875 383.23046875 C-16.52791429 381.83919456 -13.56689575 380.60862549 -10.53125 379.4140625 C-4.53485812 376.91625512 1.31500945 374.12681131 7.15625 371.2890625 C8.10000488 370.84272461 9.04375977 370.39638672 10.01611328 369.93652344 C16.02594134 366.97157546 20.44655078 363.71548279 24.84375 358.6640625 C25.3480957 358.10372314 25.85244141 357.54338379 26.37207031 356.96606445 C29.02394563 354.21396243 29.02394563 354.21396243 29.84375 350.6640625 C30.50375 350.6640625 31.16375 350.6640625 31.84375 350.6640625 C35.48008539 347.18407743 35.48008539 347.18407743 36.84375 342.6640625 C37.83375 342.3340625 38.82375 342.0040625 39.84375 341.6640625 C40.92332984 339.79893895 40.92332984 339.79893895 41.7109375 337.46484375 C42.03682861 336.59239014 42.36271973 335.71993652 42.69848633 334.82104492 C43.03517334 333.88236572 43.37186035 332.94368652 43.71875 331.9765625 C44.07026123 331.01919189 44.42177246 330.06182129 44.78393555 329.07543945 C45.48837617 327.15257687 46.18823131 325.22802767 46.88330078 323.30175781 C47.68656375 321.09574532 48.51598775 318.90498841 49.37109375 316.71875 C54.87700728 302.29292184 56.40921835 288.20050094 56.28125 272.9140625 C56.27787628 272.12725098 56.27450256 271.34043945 56.27102661 270.52978516 C56.16344938 253.166072 53.40819734 238.1745687 47.4074707 221.87011719 C45.58201892 216.90940692 44.13011728 212.07095941 42.96875 206.9140625 C41.62955375 201.1089379 39.77660219 195.7946851 37.56005859 190.26660156 C26.32919718 162.19621088 26.62650628 133.25853427 27.01513672 103.48535156 C27.35270302 84.85786817 27.35270302 84.85786817 23.84375 66.6640625 C23.47636719 65.3347168 23.47636719 65.3347168 23.1015625 63.97851562 C19.79294105 52.52219271 15.16057385 42.73012373 7.99560547 33.20947266 C6.96855144 31.83150488 5.99756662 30.41214973 5.03515625 28.98828125 C1.27715047 23.62613871 -2.9218063 20.58614709 -8.54296875 17.27734375 C-10.81402985 15.87532845 -12.55612099 14.49921793 -14.46875 12.6640625 C-33.25077997 -3.91866654 -61.11817378 -6.86122536 -84.65625 -3.5859375 Z " fill="#000000" transform="translate(348.15625,62.3359375)"/>
</svg>
