<?xml version="1.0" encoding="UTF-8"?>
<svg version="1.1" xmlns="http://www.w3.org/2000/svg" width="500" height="500">
<path d="M0 0 C0 0.66 0 1.32 0 2 C1.134375 1.938125 2.26875 1.87625 3.4375 1.8125 C13.74845975 1.82878904 24.39326456 3.99848755 33.93359375 7.84375 C37.22707332 9.08562255 40.54810904 10.07234442 43.92358398 11.06323242 C57.49719273 15.10881902 66.97856246 20.5328763 76.76831055 30.7902832 C82.00064305 36.2133058 87.57613347 40.05220586 94 44 C96.3359375 45.58203125 96.3359375 45.58203125 98 47 C98 47.66 98 48.32 98 49 C98.61875 49.309375 99.2375 49.61875 99.875 49.9375 C101.25 50.625 102.625 51.3125 104 52 C104 52.66 104 53.32 104 54 C104.66 54 105.32 54 106 54 C109 57.46153846 109 57.46153846 109 60 C109.66 60 110.32 60 111 60 C115.39933008 67.4644371 118.71433595 74.97105376 121.37109375 83.21484375 C121.8722008 84.76829209 122.37350787 86.32167593 122.875 87.875 C123.12580322 88.65447998 123.37660645 89.43395996 123.63500977 90.23706055 C125.53835241 95.99528961 127.889326 101.14435638 130.8984375 106.421875 C132.2049272 109.47961685 132.26688832 111.70530972 132 115 C131.67 115.66 131.34 116.32 131 117 C132.33224609 116.67515625 132.33224609 116.67515625 133.69140625 116.34375 C155.66874028 111.55353391 180.26291625 112.08783894 200.35546875 123.26953125 C211.66373932 130.66918245 219.06207157 137.66021687 222 151 C224.87397591 166.82710677 225.20717314 184.11255893 216.71875 198.11328125 C212.74193724 203.51203578 206.93084371 206.18427492 201 209 C200.38769531 209.29438965 199.77539062 209.5887793 199.14453125 209.89208984 C189.26330539 214.59849208 179.13478355 219 168 219 C168.26627197 219.54076172 168.53254395 220.08152344 168.80688477 220.63867188 C174.49219041 232.31514209 179.06477666 243.78071172 182.45532227 256.32104492 C184.15316906 262.46859269 186.21723247 268.08088905 189 273.8125 C198.51264935 293.707816 203.02580776 318.00687209 204 340 C204.07927734 341.64162109 204.07927734 341.64162109 204.16015625 343.31640625 C204.59252516 360.14119642 200.7791321 377.66776949 189.0390625 390.296875 C187.90957947 391.45629573 186.77114207 392.60704476 185.625 393.75 C185.01648193 394.35690674 184.40796387 394.96381348 183.78100586 395.58911133 C179.61525759 399.6457834 175.2898481 403.3029295 170.5625 406.6875 C170.00836426 407.08485352 169.45422852 407.48220703 168.88330078 407.89160156 C160.84514753 413.41738027 152.42698706 415.23989799 143 417 C141.96359375 417.19722656 140.9271875 417.39445312 139.859375 417.59765625 C128.0039888 419.56868721 115.99033733 419.71542711 104 420 C102.79134277 420.03399902 101.58268555 420.06799805 100.33740234 420.10302734 C56.62075407 421.22983353 56.62075407 421.22983353 40 407 C40 406.34 40 405.68 40 405 C39.47792969 404.74476563 38.95585937 404.48953125 38.41796875 404.2265625 C36.54785258 403.27790906 34.70034039 402.28462074 32.86328125 401.2734375 C31.67991568 400.6401984 30.49631592 400.00739678 29.3125 399.375 C28.15363281 398.74335938 26.99476563 398.11171875 25.80078125 397.4609375 C19.56029645 394.69570752 14.0006585 395.4135054 7.73828125 397.79296875 C5.92232016 398.57423907 4.11369568 399.37276561 2.3125 400.1875 C1.40177734 400.57486328 0.49105469 400.96222656 -0.44726562 401.36132812 C-7.44672317 404.4366163 -12.52162179 407.8839097 -17.3125 413.9375 C-29.35454739 427.83016506 -51.42526038 432.79264634 -69 435 C-76.12464789 435.48302698 -82.1688095 433.96868545 -89 432 C-90.09127197 431.69400879 -90.09127197 431.69400879 -91.20458984 431.38183594 C-106.26378999 427.11821735 -117.97974181 421.18327522 -130 411 C-131.00160156 410.23171875 -132.00320312 409.4634375 -133.03515625 408.671875 C-138.11380477 404.09506922 -140.88653849 397.99635858 -144 392 C-144.47695312 391.08863281 -144.95390625 390.17726563 -145.4453125 389.23828125 C-151.37024864 377.0716671 -155.11525164 363.50060333 -155.23828125 349.984375 C-155.2483017 349.10542068 -155.25832214 348.22646637 -155.26864624 347.32087708 C-155.44134994 328.18789466 -155.38261506 309.71580247 -151 291 C-150.61449731 289.32016948 -150.22908832 287.64031745 -149.84375 285.96044922 C-148.49703232 280.13080925 -147.10027526 274.31394466 -145.6875 268.5 C-145.46138031 267.56060577 -145.23526062 266.62121155 -145.00228882 265.65335083 C-141.99163897 253.26173581 -138.22887941 241.6372053 -133 230 C-133.92675537 230.17756836 -134.85351074 230.35513672 -135.80834961 230.53808594 C-139.65497615 231.09479193 -141.87109603 230.45434632 -145.5625 229.25 C-146.21798828 229.03682129 -146.87347656 228.82364258 -147.54882812 228.60400391 C-158.79135897 224.8473655 -169.84092905 220.46046355 -180.89477539 216.18676758 C-183.46006796 215.20635346 -186.03456492 214.26964358 -188.62109375 213.34765625 C-197.90052302 209.6466122 -202.85486273 201.78320979 -207 193 C-211.34061921 180.633605 -210.31447961 166.51195925 -204.9921875 154.625 C-202.07886466 148.91355335 -197.87530733 144.13875011 -193 140 C-192.34 140 -191.68 140 -191 140 C-191 139.34 -191 138.68 -191 138 C-188.90747348 136.35070316 -186.8164729 134.82027828 -184.625 133.3125 C-183.32936841 132.4102405 -182.03379577 131.50789634 -180.73828125 130.60546875 C-180.09842285 130.16251465 -179.45856445 129.71956055 -178.79931641 129.26318359 C-177.2557306 128.1795319 -175.74002686 127.05635298 -174.23046875 125.92578125 C-159.38870797 114.87238591 -136.30181424 110.27116669 -118 111 C-117.97421875 110.40316406 -117.9484375 109.80632812 -117.921875 109.19140625 C-116.95692355 94.43203526 -113.08708625 81.89280199 -106 69 C-105.01195099 67.04613308 -104.03174143 65.08826459 -103.0625 63.125 C-102.375 61.75 -101.6875 60.375 -101 59 C-100.34 59 -99.68 59 -99 59 C-98.62875 57.7315625 -98.62875 57.7315625 -98.25 56.4375 C-96.86026373 52.61572526 -95.08879162 49.48131937 -93 46 C-92.34 46 -91.68 46 -91 46 C-90.67 44.68 -90.34 43.36 -90 42 C-89.34 42 -88.68 42 -88 42 C-87.75121094 41.26394531 -87.50242187 40.52789062 -87.24609375 39.76953125 C-83.73423224 31.96417135 -75.47059872 26.63906779 -68.65625 21.86328125 C-65.54611087 19.68161013 -62.55107343 17.37048568 -59.55859375 15.03125 C-58 14 -58 14 -56 14 C-56 13.34 -56 12.68 -56 12 C-45.69930402 2.1697685 -13.21647797 -8.81098531 0 0 Z " fill="#FFFFFF" transform="translate(238,52)"/>
<path d="M0 0 C0 0.66 0 1.32 0 2 C1.134375 1.938125 2.26875 1.87625 3.4375 1.8125 C13.74845975 1.82878904 24.39326456 3.99848755 33.93359375 7.84375 C37.22707332 9.08562255 40.54810904 10.07234442 43.92358398 11.06323242 C57.49719273 15.10881902 66.97856246 20.5328763 76.76831055 30.7902832 C82.00064305 36.2133058 87.57613347 40.05220586 94 44 C96.3359375 45.58203125 96.3359375 45.58203125 98 47 C98 47.66 98 48.32 98 49 C98.61875 49.309375 99.2375 49.61875 99.875 49.9375 C101.25 50.625 102.625 51.3125 104 52 C104 52.66 104 53.32 104 54 C104.66 54 105.32 54 106 54 C109 57.46153846 109 57.46153846 109 60 C109.66 60 110.32 60 111 60 C115.39933008 67.4644371 118.71433595 74.97105376 121.37109375 83.21484375 C121.8722008 84.76829209 122.37350787 86.32167593 122.875 87.875 C123.12580322 88.65447998 123.37660645 89.43395996 123.63500977 90.23706055 C125.53835241 95.99528961 127.889326 101.14435638 130.8984375 106.421875 C132.2049272 109.47961685 132.26688832 111.70530972 132 115 C131.67 115.66 131.34 116.32 131 117 C132.33224609 116.67515625 132.33224609 116.67515625 133.69140625 116.34375 C155.66874028 111.55353391 180.26291625 112.08783894 200.35546875 123.26953125 C211.66373932 130.66918245 219.06207157 137.66021687 222 151 C224.87397591 166.82710677 225.20717314 184.11255893 216.71875 198.11328125 C212.74193724 203.51203578 206.93084371 206.18427492 201 209 C200.38769531 209.29438965 199.77539062 209.5887793 199.14453125 209.89208984 C189.26330539 214.59849208 179.13478355 219 168 219 C168.26627197 219.54076172 168.53254395 220.08152344 168.80688477 220.63867188 C174.49219041 232.31514209 179.06477666 243.78071172 182.45532227 256.32104492 C184.15316906 262.46859269 186.21723247 268.08088905 189 273.8125 C198.51264935 293.707816 203.02580776 318.00687209 204 340 C204.07927734 341.64162109 204.07927734 341.64162109 204.16015625 343.31640625 C204.59252516 360.14119642 200.7791321 377.66776949 189.0390625 390.296875 C187.90957947 391.45629573 186.77114207 392.60704476 185.625 393.75 C185.01648193 394.35690674 184.40796387 394.96381348 183.78100586 395.58911133 C179.61525759 399.6457834 175.2898481 403.3029295 170.5625 406.6875 C170.00836426 407.08485352 169.45422852 407.48220703 168.88330078 407.89160156 C160.84514753 413.41738027 152.42698706 415.23989799 143 417 C141.96359375 417.19722656 140.9271875 417.39445312 139.859375 417.59765625 C128.0039888 419.56868721 115.99033733 419.71542711 104 420 C102.79134277 420.03399902 101.58268555 420.06799805 100.33740234 420.10302734 C56.62075407 421.22983353 56.62075407 421.22983353 40 407 C40 406.34 40 405.68 40 405 C39.47792969 404.74476563 38.95585937 404.48953125 38.41796875 404.2265625 C36.54785258 403.27790906 34.70034039 402.28462074 32.86328125 401.2734375 C31.67991568 400.6401984 30.49631592 400.00739678 29.3125 399.375 C28.15363281 398.74335938 26.99476563 398.11171875 25.80078125 397.4609375 C19.56029645 394.69570752 14.0006585 395.4135054 7.73828125 397.79296875 C5.92232016 398.57423907 4.11369568 399.37276561 2.3125 400.1875 C1.40177734 400.57486328 0.49105469 400.96222656 -0.44726562 401.36132812 C-7.44672317 404.4366163 -12.52162179 407.8839097 -17.3125 413.9375 C-29.35454739 427.83016506 -51.42526038 432.79264634 -69 435 C-76.12464789 435.48302698 -82.1688095 433.96868545 -89 432 C-90.09127197 431.69400879 -90.09127197 431.69400879 -91.20458984 431.38183594 C-106.26378999 427.11821735 -117.97974181 421.18327522 -130 411 C-131.00160156 410.23171875 -132.00320312 409.4634375 -133.03515625 408.671875 C-138.11380477 404.09506922 -140.88653849 397.99635858 -144 392 C-144.47695312 391.08863281 -144.95390625 390.17726563 -145.4453125 389.23828125 C-151.37024864 377.0716671 -155.11525164 363.50060333 -155.23828125 349.984375 C-155.2483017 349.10542068 -155.25832214 348.22646637 -155.26864624 347.32087708 C-155.44134994 328.18789466 -155.38261506 309.71580247 -151 291 C-150.61449731 289.32016948 -150.22908832 287.64031745 -149.84375 285.96044922 C-148.49703232 280.13080925 -147.10027526 274.31394466 -145.6875 268.5 C-145.46138031 267.56060577 -145.23526062 266.62121155 -145.00228882 265.65335083 C-141.99163897 253.26173581 -138.22887941 241.6372053 -133 230 C-133.92675537 230.17756836 -134.85351074 230.35513672 -135.80834961 230.53808594 C-139.65497615 231.09479193 -141.87109603 230.45434632 -145.5625 229.25 C-146.21798828 229.03682129 -146.87347656 228.82364258 -147.54882812 228.60400391 C-158.79135897 224.8473655 -169.84092905 220.46046355 -180.89477539 216.18676758 C-183.46006796 215.20635346 -186.03456492 214.26964358 -188.62109375 213.34765625 C-197.90052302 209.6466122 -202.85486273 201.78320979 -207 193 C-211.34061921 180.633605 -210.31447961 166.51195925 -204.9921875 154.625 C-202.07886466 148.91355335 -197.87530733 144.13875011 -193 140 C-192.34 140 -191.68 140 -191 140 C-191 139.34 -191 138.68 -191 138 C-188.90747348 136.35070316 -186.8164729 134.82027828 -184.625 133.3125 C-183.32936841 132.4102405 -182.03379577 131.50789634 -180.73828125 130.60546875 C-180.09842285 130.16251465 -179.45856445 129.71956055 -178.79931641 129.26318359 C-177.2557306 128.1795319 -175.74002686 127.05635298 -174.23046875 125.92578125 C-159.38870797 114.87238591 -136.30181424 110.27116669 -118 111 C-117.97421875 110.40316406 -117.9484375 109.80632812 -117.921875 109.19140625 C-116.95692355 94.43203526 -113.08708625 81.89280199 -106 69 C-105.01195099 67.04613308 -104.03174143 65.08826459 -103.0625 63.125 C-102.375 61.75 -101.6875 60.375 -101 59 C-100.34 59 -99.68 59 -99 59 C-98.62875 57.7315625 -98.62875 57.7315625 -98.25 56.4375 C-96.86026373 52.61572526 -95.08879162 49.48131937 -93 46 C-92.34 46 -91.68 46 -91 46 C-90.67 44.68 -90.34 43.36 -90 42 C-89.34 42 -88.68 42 -88 42 C-87.75121094 41.26394531 -87.50242187 40.52789062 -87.24609375 39.76953125 C-83.73423224 31.96417135 -75.47059872 26.63906779 -68.65625 21.86328125 C-65.54611087 19.68161013 -62.55107343 17.37048568 -59.55859375 15.03125 C-58 14 -58 14 -56 14 C-56 13.34 -56 12.68 -56 12 C-45.69930402 2.1697685 -13.21647797 -8.81098531 0 0 Z M-31.0625 17.375 C-31.83327881 17.74077148 -32.60405762 18.10654297 -33.39819336 18.48339844 C-38.82675697 21.17226509 -43.03431505 24.23223381 -47.34375 28.51953125 C-50.70076955 31.65439509 -54.34471035 34.2507012 -58.0625 36.9375 C-73.97758119 48.68202414 -83.10634615 64.65516263 -92 82 C-92.32186279 82.54712646 -92.64372559 83.09425293 -92.9753418 83.65795898 C-96.55798074 90.06044857 -97.68162797 96.9199301 -99.0625 104.0625 C-102.65646969 122.41367151 -102.65646969 122.41367151 -106.734375 126.9140625 C-109.95813313 128.45924312 -112.68086437 128.34000847 -116.25 128.375 C-123.81444016 128.61933923 -131.03263406 129.7735438 -138.4375 131.3125 C-139.43104492 131.51343262 -140.42458984 131.71436523 -141.44824219 131.92138672 C-152.37579976 134.27448089 -160.79484866 138.03611124 -169.6875 144.8125 C-170.48994141 145.40353516 -171.29238281 145.99457031 -172.11914062 146.60351562 C-180.76134623 153.07282382 -189.12056828 159.80512412 -191 171 C-191.89356032 179.32421987 -191.04588422 186.12264669 -186 193 C-181.57427416 197.45160728 -176.03175216 199.15378441 -170.25 201.25 C-169.20755127 201.63478516 -168.16510254 202.01957031 -167.09106445 202.41601562 C-156.25117328 206.36631668 -145.27224219 209.87723278 -134.25463867 213.29492188 C-132.49712111 213.84453863 -130.74695504 214.41768165 -129 215 C-127.8125 218.0625 -127.8125 218.0625 -127 221 C-125.329375 221.1546875 -125.329375 221.1546875 -123.625 221.3125 C-121.830625 221.6528125 -121.830625 221.6528125 -120 222 C-117.45821277 225.81268085 -117.49548864 228.59416453 -118 233 C-118.97610586 237.47129236 -120.24112981 241.85119588 -121.5 246.25 C-124.56750758 257.28877317 -127.35413343 268.37059244 -129.85522461 279.55163574 C-130.19591554 281.07450339 -130.53940332 282.59674863 -130.88598633 284.11828613 C-133.9759297 297.71751563 -136.07065259 311.28801106 -136.625 325.25 C-136.66149658 326.09788086 -136.69799316 326.94576172 -136.7355957 327.81933594 C-136.83322174 330.21266005 -136.91882285 332.60606994 -137 335 C-137.04253906 336.11375 -137.08507812 337.2275 -137.12890625 338.375 C-137.5132415 357.23304938 -133.16778337 380.22931126 -120.33984375 394.8984375 C-118.32535051 396.78889612 -116.24439177 398.38762895 -114 400 C-112.97777344 400.75410156 -111.95554687 401.50820313 -110.90234375 402.28515625 C-102.55796558 408.18236199 -95.00043752 410.75891096 -85 413 C-83.24488633 413.5891463 -81.4941226 414.19157028 -79.75 414.8125 C-65.70366372 419.01715987 -47.34596919 411.2304622 -34.890625 404.93359375 C-32.46839503 403.46295412 -31.16384451 402.42131445 -30.125 399.75 C-30.08375 399.1725 -30.0425 398.595 -30 398 C-29.34 398 -28.68 398 -28 398 C-28 397.34 -28 396.68 -28 396 C-27.34 396 -26.68 396 -26 396 C-25.26910156 395.2471875 -24.53820312 394.494375 -23.78515625 393.71875 C-20.81238576 390.81685903 -18.16676752 389.29887307 -14.4375 387.5 C-13.5237561 387.05781128 -13.5237561 387.05781128 -12.59155273 386.60668945 C13.82640052 373.9687357 13.82640052 373.9687357 27.0546875 377.91015625 C30.1159576 379.14659132 33.05047566 380.51739335 36 382 C36.928125 382.44601562 37.85625 382.89203125 38.8125 383.3515625 C43.92231191 385.95001799 48.16320716 388.87259769 52.5 392.625 C57.64862898 396.98265895 62.48199143 399.35987529 69 401 C69.94057251 401.2616394 69.94057251 401.2616394 70.90014648 401.52856445 C79.7744158 403.69023313 88.86452888 403.34906671 97.9375 403.3125 C99.26035004 403.31076279 99.26035004 403.31076279 100.60992432 403.30899048 C132.10489292 404.31441906 132.10489292 404.31441906 160.8125 394.0625 C161.54597656 393.53914063 162.27945312 393.01578125 163.03515625 392.4765625 C163.68355469 391.98929687 164.33195312 391.50203125 165 391 C165.9075 390.319375 166.815 389.63875 167.75 388.9375 C170.31252299 386.73088298 172.66213964 384.44659805 175 382 C175.64453125 381.36191406 176.2890625 380.72382813 176.953125 380.06640625 C186.37418235 370.27897445 188.69884788 358.25338197 189 345 C188.71305632 331.73654078 186.33975595 318.80106936 183 306 C182.67491455 304.7310791 182.67491455 304.7310791 182.34326172 303.43652344 C179.56123149 292.71341894 176.22007639 282.62678104 171.59765625 272.5625 C168.2814819 265.16799876 166.1473082 257.61027683 164.25 249.75 C161.78291148 240.19743324 157.47414321 231.21121482 152 223 C151.01 222.67 150.02 222.34 149 222 C146 221 146 221 144 218 C143.76685725 214.89143 144.00471256 212.98586231 145 210 C147.48841276 209.18802412 149.82314946 208.58911711 152.375 208.0625 C153.13159912 207.89339111 153.88819824 207.72428223 154.66772461 207.55004883 C158.6965428 206.65975472 162.73629555 205.85393628 166.79296875 205.1015625 C180.22280569 202.56345661 197.77586239 198.81901462 206.359375 187.15234375 C211.95597981 176.89829042 209.49878825 161.09087832 207 150 C205.16319987 146.25533307 202.91520718 143.69973312 199.8125 140.9375 C199.09707031 140.28652344 198.38164062 139.63554687 197.64453125 138.96484375 C191.79247522 134.6168612 185.36028915 132.21750934 178.375 130.3125 C177.60172363 130.09827393 176.82844727 129.88404785 176.03173828 129.66333008 C169.03306124 127.8241094 162.24482425 127.1281239 155 127 C154.5875 127.804375 154.175 128.60875 153.75 129.4375 C152 132 152 132 150.1953125 132.7890625 C140.67771243 133.703565 133.03473452 133.69626701 125 128 C120.73422604 124.33787329 119.43006261 120.33890041 118 115 C117.401875 114.113125 116.80375 113.22625 116.1875 112.3125 C112.11297819 106.14250984 109.68557589 99.21229363 107.44140625 92.1953125 C101.19974127 72.84210995 91.32434761 61.5169556 74.2109375 50.55078125 C68.98380962 46.88440357 64.32784304 42.33202229 59.82421875 37.8203125 C53.8687046 32.04988746 47.83930221 29.51336407 40 27 C39.3714209 26.7927832 38.7428418 26.58556641 38.09521484 26.37207031 C34.07227448 25.04613485 30.0319036 23.79691515 25.97021484 22.59521484 C24.12323842 22.03723113 22.28945158 21.43610366 20.45703125 20.83203125 C11.56790955 18.09919361 3.21342931 17.47529206 -6.05688477 17.32714844 C-11.10727242 17.23207825 -15.26373029 16.9654411 -20 15 C-24.33613774 13.55462075 -27.14274396 15.50961723 -31.0625 17.375 Z " fill="#000000" transform="translate(238,52)"/>
</svg>
