<?xml version="1.0" encoding="UTF-8"?>
<svg version="1.1" xmlns="http://www.w3.org/2000/svg" width="500" height="500">
<path d="M0 0 C2.85791415 0.81014945 5.6107181 1.21111029 8.5546875 1.58984375 C16.09768866 2.78964315 22.81756178 5.6971043 29.7421875 8.77734375 C30.86367188 9.25816406 31.98515625 9.73898438 33.140625 10.234375 C41.49300403 14.07958446 48.41646329 19.09503344 55.70068359 24.65332031 C61.41883135 28.9629495 66.97462686 32.07130285 73.47265625 35.08203125 C78.88348085 37.88764401 83.48296134 41.63642306 88.17529297 45.49560547 C89.75621999 46.7888225 91.35701458 48.05294414 92.96484375 49.3125 C100.60932931 55.37876919 100.60932931 55.37876919 101.7421875 58.77734375 C102.4021875 58.77734375 103.0621875 58.77734375 103.7421875 58.77734375 C105.36328125 61.04296875 105.36328125 61.04296875 107.1796875 64.02734375 C109.62856901 68.04003228 109.62856901 68.04003228 112.328125 71.8828125 C113.76022746 73.80151331 114.85502049 75.70286222 115.9296875 77.83984375 C116.27386719 78.51144531 116.61804688 79.18304688 116.97265625 79.875 C117.7421875 81.77734375 117.7421875 81.77734375 117.7421875 84.77734375 C118.4021875 84.77734375 119.0621875 84.77734375 119.7421875 84.77734375 C120.4021875 86.75734375 121.0621875 88.73734375 121.7421875 90.77734375 C122.4021875 90.77734375 123.0621875 90.77734375 123.7421875 90.77734375 C129.42749461 97.92335949 135.7421875 108.42899546 135.7421875 117.77734375 C136.4021875 117.77734375 137.0621875 117.77734375 137.7421875 117.77734375 C146.62266013 139.60996815 148.47472272 163.64641319 143.7421875 186.77734375 C143.60264648 187.46022461 143.46310547 188.14310547 143.31933594 188.84667969 C142.85368737 191.07803598 142.36621082 193.30322316 141.8671875 195.52734375 C141.71797852 196.20071777 141.56876953 196.8740918 141.41503906 197.56787109 C140.07188597 203.21103679 137.97229371 208.43246892 135.7421875 213.77734375 C134.87895857 215.8953244 134.0170513 218.01384404 133.15625 220.1328125 C131.73388084 223.61874339 130.31023647 227.10414809 128.88549805 230.58911133 C125.88438956 237.93100915 125.88438956 237.93100915 122.97265625 245.30859375 C116.19310961 262.78973882 107.62148328 279.70954268 96.08203125 294.5234375 C93.33818397 298.1945556 91.16939934 302.16184307 88.9296875 306.15234375 C84.88560347 313.28151555 80.2198778 319.28168673 74.7578125 325.3671875 C71.68366569 328.79246756 68.8615764 332.3820912 66.0546875 336.02734375 C61.53558498 341.85826249 56.74450793 347.35292447 51.7421875 352.77734375 C50.2622151 354.44329498 48.78305742 356.10997031 47.3046875 357.77734375 C43.38582554 362.14075375 39.27018834 366.26731031 35.1015625 370.390625 C31.0894675 374.44921779 27.32609863 378.69846039 23.8671875 383.23828125 C21.64076611 385.8985274 19.32716224 387.92897468 16.6171875 390.08984375 C15.15345703 391.26353516 15.15345703 391.26353516 13.66015625 392.4609375 C12.69722656 393.22535156 11.73429688 393.98976563 10.7421875 394.77734375 C9.93394531 395.42832031 9.12570312 396.07929688 8.29296875 396.75 C5.78416967 398.76947959 3.26336008 400.77333477 0.7421875 402.77734375 C-0.42187794 403.71223592 -1.58594025 404.64713199 -2.75 405.58203125 C-3.98154482 406.56408558 -5.2133145 407.545858 -6.4453125 408.52734375 C-7.30056519 409.21739502 -7.30056519 409.21739502 -8.1730957 409.92138672 C-17.63644389 417.42590521 -25.91052513 420.17207831 -38.0078125 420.15234375 C-39.32616089 420.1531897 -39.32616089 420.1531897 -40.67114258 420.15405273 C-46.84349935 420.05011041 -51.96009019 419.04824827 -57.71484375 416.71875 C-60.28626035 415.76681237 -62.40879992 415.45294125 -65.1328125 415.27734375 C-69.97191416 414.90915123 -73.29957 412.90636322 -76.6015625 409.31640625 C-78.67798819 407.38689747 -80.85614839 406.30867199 -83.3828125 405.02734375 C-94.08789218 399.26197504 -94.08789218 399.26197504 -98.2578125 394.77734375 C-98.8828125 391.33984375 -98.8828125 391.33984375 -99.2578125 387.77734375 C-100.77996798 385.62243178 -102.48845565 383.79155773 -104.30859375 381.8828125 C-106.26877423 379.76550332 -107.89387212 377.56026746 -109.5703125 375.21484375 C-112.76047766 371.04911469 -116.29114109 368.4535437 -120.640625 365.578125 C-127.0868792 361.14271726 -132.55665302 356.12322745 -136.8828125 349.58984375 C-140.07025578 344.78644086 -143.42804475 341.85999552 -148.2578125 338.77734375 C-149.17433594 338.19082031 -150.09085937 337.60429687 -151.03515625 337 C-152.89749348 335.81760334 -154.76672099 334.6459472 -156.64453125 333.48828125 C-161.38617284 330.3838881 -165.04740665 327.09744152 -168.5703125 322.65234375 C-169.61638672 321.34910156 -169.61638672 321.34910156 -170.68359375 320.01953125 C-172.2578125 317.77734375 -172.2578125 317.77734375 -172.2578125 315.77734375 C-172.9178125 315.77734375 -173.5778125 315.77734375 -174.2578125 315.77734375 C-175.56438744 314.26183453 -176.80386951 312.6881014 -178.0078125 311.08984375 C-180.30038681 308.13929233 -182.40898389 305.4259852 -185.3828125 303.15234375 C-188.39752591 300.66192832 -190.31410846 298.14460107 -192.57421875 294.9921875 C-194.41974176 292.56431848 -196.42602924 290.38047382 -198.5078125 288.15234375 C-207.66084529 278.09169931 -214.89116217 266.76181742 -221.2578125 254.77734375 C-221.57427734 254.1829248 -221.89074219 253.58850586 -222.21679688 252.97607422 C-226.69654845 244.47317862 -230.68928031 235.75490698 -234.5703125 226.96484375 C-234.99103027 226.02261963 -235.41174805 225.08039551 -235.84521484 224.10961914 C-247.09654493 198.24514304 -247.9546733 165.71922636 -240.2578125 138.77734375 C-240.02755371 137.93848633 -239.79729492 137.09962891 -239.56005859 136.23535156 C-236.76914266 126.12366284 -233.60008929 116.33947034 -229.2578125 106.77734375 C-228.52116677 105.11240741 -227.78558855 103.44699854 -227.05078125 101.78125 C-226.24571623 99.96703736 -225.43972073 98.15323734 -224.6328125 96.33984375 C-224.24826904 95.47423828 -223.86372559 94.60863281 -223.4675293 93.71679688 C-219.54399347 84.9951765 -219.54399347 84.9951765 -217.2578125 81.77734375 C-216.5978125 81.77734375 -215.9378125 81.77734375 -215.2578125 81.77734375 C-215.0309375 81.26171875 -214.8040625 80.74609375 -214.5703125 80.21484375 C-212.77563632 76.8818737 -210.75816235 73.63030704 -208.2578125 70.77734375 C-207.5978125 70.77734375 -206.9378125 70.77734375 -206.2578125 70.77734375 C-205.99613281 70.18824219 -205.73445313 69.59914063 -205.46484375 68.9921875 C-204.193585 66.65948941 -202.85550719 65.17380007 -200.9453125 63.33984375 C-200.32527344 62.74042969 -199.70523438 62.14101562 -199.06640625 61.5234375 C-198.46957031 60.94722656 -197.87273437 60.37101562 -197.2578125 59.77734375 C-196.3503125 58.82859375 -195.4428125 57.87984375 -194.5078125 56.90234375 C-192.2578125 54.77734375 -192.2578125 54.77734375 -189.2578125 53.77734375 C-188.9278125 52.78734375 -188.5978125 51.79734375 -188.2578125 50.77734375 C-186.69921875 49.171875 -186.69921875 49.171875 -184.8203125 47.58984375 C-184.20285156 47.06003906 -183.58539063 46.53023437 -182.94921875 45.984375 C-181.2578125 44.77734375 -181.2578125 44.77734375 -179.2578125 44.77734375 C-179.2578125 44.11734375 -179.2578125 43.45734375 -179.2578125 42.77734375 C-177.51744756 41.47655552 -175.71199359 40.2624548 -173.8828125 39.08984375 C-169.93153794 36.53123154 -166.0572104 33.93073081 -162.2578125 31.15234375 C-145.91502962 19.7666135 -126.5500383 15.67875677 -107.44140625 11.28271484 C-98.29869714 9.16672559 -89.47595025 6.23655654 -80.60351562 3.20166016 C-79.72888672 2.90437012 -78.85425781 2.60708008 -77.953125 2.30078125 C-77.16953613 2.03185059 -76.38594727 1.76291992 -75.57861328 1.48583984 C-71.1571838 0.13606198 -67.19479239 -0.33523351 -62.57421875 -0.25 C-60.94625366 -0.22969727 -60.94625366 -0.22969727 -59.28540039 -0.20898438 C-58.14192139 -0.19287109 -56.99844238 -0.17675781 -55.8203125 -0.16015625 C-47.54740778 -0.09216443 -39.82259253 -0.35890852 -31.67578125 -1.765625 C-21.08991129 -3.18110704 -10.25952181 -3.08354049 0 0 Z " fill="#FFFFFF" transform="translate(289.2578125,50.22265625)"/>
<path d="M0 0 C2.85791415 0.81014945 5.6107181 1.21111029 8.5546875 1.58984375 C16.09768866 2.78964315 22.81756178 5.6971043 29.7421875 8.77734375 C30.86367188 9.25816406 31.98515625 9.73898438 33.140625 10.234375 C41.49300403 14.07958446 48.41646329 19.09503344 55.70068359 24.65332031 C61.41883135 28.9629495 66.97462686 32.07130285 73.47265625 35.08203125 C78.88348085 37.88764401 83.48296134 41.63642306 88.17529297 45.49560547 C89.75621999 46.7888225 91.35701458 48.05294414 92.96484375 49.3125 C100.60932931 55.37876919 100.60932931 55.37876919 101.7421875 58.77734375 C102.4021875 58.77734375 103.0621875 58.77734375 103.7421875 58.77734375 C105.36328125 61.04296875 105.36328125 61.04296875 107.1796875 64.02734375 C109.62856901 68.04003228 109.62856901 68.04003228 112.328125 71.8828125 C113.76022746 73.80151331 114.85502049 75.70286222 115.9296875 77.83984375 C116.27386719 78.51144531 116.61804688 79.18304688 116.97265625 79.875 C117.7421875 81.77734375 117.7421875 81.77734375 117.7421875 84.77734375 C118.4021875 84.77734375 119.0621875 84.77734375 119.7421875 84.77734375 C120.4021875 86.75734375 121.0621875 88.73734375 121.7421875 90.77734375 C122.4021875 90.77734375 123.0621875 90.77734375 123.7421875 90.77734375 C129.42749461 97.92335949 135.7421875 108.42899546 135.7421875 117.77734375 C136.4021875 117.77734375 137.0621875 117.77734375 137.7421875 117.77734375 C146.62266013 139.60996815 148.47472272 163.64641319 143.7421875 186.77734375 C143.60264648 187.46022461 143.46310547 188.14310547 143.31933594 188.84667969 C142.85368737 191.07803598 142.36621082 193.30322316 141.8671875 195.52734375 C141.71797852 196.20071777 141.56876953 196.8740918 141.41503906 197.56787109 C140.07188597 203.21103679 137.97229371 208.43246892 135.7421875 213.77734375 C134.87895857 215.8953244 134.0170513 218.01384404 133.15625 220.1328125 C131.73388084 223.61874339 130.31023647 227.10414809 128.88549805 230.58911133 C125.88438956 237.93100915 125.88438956 237.93100915 122.97265625 245.30859375 C116.19310961 262.78973882 107.62148328 279.70954268 96.08203125 294.5234375 C93.33818397 298.1945556 91.16939934 302.16184307 88.9296875 306.15234375 C84.88560347 313.28151555 80.2198778 319.28168673 74.7578125 325.3671875 C71.68366569 328.79246756 68.8615764 332.3820912 66.0546875 336.02734375 C61.53558498 341.85826249 56.74450793 347.35292447 51.7421875 352.77734375 C50.2622151 354.44329498 48.78305742 356.10997031 47.3046875 357.77734375 C43.38582554 362.14075375 39.27018834 366.26731031 35.1015625 370.390625 C31.0894675 374.44921779 27.32609863 378.69846039 23.8671875 383.23828125 C21.64076611 385.8985274 19.32716224 387.92897468 16.6171875 390.08984375 C15.15345703 391.26353516 15.15345703 391.26353516 13.66015625 392.4609375 C12.69722656 393.22535156 11.73429688 393.98976563 10.7421875 394.77734375 C9.93394531 395.42832031 9.12570312 396.07929688 8.29296875 396.75 C5.78416967 398.76947959 3.26336008 400.77333477 0.7421875 402.77734375 C-0.42187794 403.71223592 -1.58594025 404.64713199 -2.75 405.58203125 C-3.98154482 406.56408558 -5.2133145 407.545858 -6.4453125 408.52734375 C-7.30056519 409.21739502 -7.30056519 409.21739502 -8.1730957 409.92138672 C-17.63644389 417.42590521 -25.91052513 420.17207831 -38.0078125 420.15234375 C-39.32616089 420.1531897 -39.32616089 420.1531897 -40.67114258 420.15405273 C-46.84349935 420.05011041 -51.96009019 419.04824827 -57.71484375 416.71875 C-60.28626035 415.76681237 -62.40879992 415.45294125 -65.1328125 415.27734375 C-69.97191416 414.90915123 -73.29957 412.90636322 -76.6015625 409.31640625 C-78.67798819 407.38689747 -80.85614839 406.30867199 -83.3828125 405.02734375 C-94.08789218 399.26197504 -94.08789218 399.26197504 -98.2578125 394.77734375 C-98.8828125 391.33984375 -98.8828125 391.33984375 -99.2578125 387.77734375 C-100.77996798 385.62243178 -102.48845565 383.79155773 -104.30859375 381.8828125 C-106.26877423 379.76550332 -107.89387212 377.56026746 -109.5703125 375.21484375 C-112.76047766 371.04911469 -116.29114109 368.4535437 -120.640625 365.578125 C-127.0868792 361.14271726 -132.55665302 356.12322745 -136.8828125 349.58984375 C-140.07025578 344.78644086 -143.42804475 341.85999552 -148.2578125 338.77734375 C-149.17433594 338.19082031 -150.09085937 337.60429687 -151.03515625 337 C-152.89749348 335.81760334 -154.76672099 334.6459472 -156.64453125 333.48828125 C-161.38617284 330.3838881 -165.04740665 327.09744152 -168.5703125 322.65234375 C-169.61638672 321.34910156 -169.61638672 321.34910156 -170.68359375 320.01953125 C-172.2578125 317.77734375 -172.2578125 317.77734375 -172.2578125 315.77734375 C-172.9178125 315.77734375 -173.5778125 315.77734375 -174.2578125 315.77734375 C-175.56438744 314.26183453 -176.80386951 312.6881014 -178.0078125 311.08984375 C-180.30038681 308.13929233 -182.40898389 305.4259852 -185.3828125 303.15234375 C-188.39752591 300.66192832 -190.31410846 298.14460107 -192.57421875 294.9921875 C-194.41974176 292.56431848 -196.42602924 290.38047382 -198.5078125 288.15234375 C-207.66084529 278.09169931 -214.89116217 266.76181742 -221.2578125 254.77734375 C-221.57427734 254.1829248 -221.89074219 253.58850586 -222.21679688 252.97607422 C-226.69654845 244.47317862 -230.68928031 235.75490698 -234.5703125 226.96484375 C-234.99103027 226.02261963 -235.41174805 225.08039551 -235.84521484 224.10961914 C-247.09654493 198.24514304 -247.9546733 165.71922636 -240.2578125 138.77734375 C-240.02755371 137.93848633 -239.79729492 137.09962891 -239.56005859 136.23535156 C-236.76914266 126.12366284 -233.60008929 116.33947034 -229.2578125 106.77734375 C-228.52116677 105.11240741 -227.78558855 103.44699854 -227.05078125 101.78125 C-226.24571623 99.96703736 -225.43972073 98.15323734 -224.6328125 96.33984375 C-224.24826904 95.47423828 -223.86372559 94.60863281 -223.4675293 93.71679688 C-219.54399347 84.9951765 -219.54399347 84.9951765 -217.2578125 81.77734375 C-216.5978125 81.77734375 -215.9378125 81.77734375 -215.2578125 81.77734375 C-215.0309375 81.26171875 -214.8040625 80.74609375 -214.5703125 80.21484375 C-212.77563632 76.8818737 -210.75816235 73.63030704 -208.2578125 70.77734375 C-207.5978125 70.77734375 -206.9378125 70.77734375 -206.2578125 70.77734375 C-205.99613281 70.18824219 -205.73445313 69.59914063 -205.46484375 68.9921875 C-204.193585 66.65948941 -202.85550719 65.17380007 -200.9453125 63.33984375 C-200.32527344 62.74042969 -199.70523438 62.14101562 -199.06640625 61.5234375 C-198.46957031 60.94722656 -197.87273437 60.37101562 -197.2578125 59.77734375 C-196.3503125 58.82859375 -195.4428125 57.87984375 -194.5078125 56.90234375 C-192.2578125 54.77734375 -192.2578125 54.77734375 -189.2578125 53.77734375 C-188.9278125 52.78734375 -188.5978125 51.79734375 -188.2578125 50.77734375 C-186.69921875 49.171875 -186.69921875 49.171875 -184.8203125 47.58984375 C-184.20285156 47.06003906 -183.58539063 46.53023437 -182.94921875 45.984375 C-181.2578125 44.77734375 -181.2578125 44.77734375 -179.2578125 44.77734375 C-179.2578125 44.11734375 -179.2578125 43.45734375 -179.2578125 42.77734375 C-177.51744756 41.47655552 -175.71199359 40.2624548 -173.8828125 39.08984375 C-169.93153794 36.53123154 -166.0572104 33.93073081 -162.2578125 31.15234375 C-145.91502962 19.7666135 -126.5500383 15.67875677 -107.44140625 11.28271484 C-98.29869714 9.16672559 -89.47595025 6.23655654 -80.60351562 3.20166016 C-79.72888672 2.90437012 -78.85425781 2.60708008 -77.953125 2.30078125 C-77.16953613 2.03185059 -76.38594727 1.76291992 -75.57861328 1.48583984 C-71.1571838 0.13606198 -67.19479239 -0.33523351 -62.57421875 -0.25 C-60.94625366 -0.22969727 -60.94625366 -0.22969727 -59.28540039 -0.20898438 C-58.14192139 -0.19287109 -56.99844238 -0.17675781 -55.8203125 -0.16015625 C-47.54740778 -0.09216443 -39.82259253 -0.35890852 -31.67578125 -1.765625 C-21.08991129 -3.18110704 -10.25952181 -3.08354049 0 0 Z M-28.1953125 12.25 C-29.66097656 12.39211914 -29.66097656 12.39211914 -31.15625 12.53710938 C-33.22433963 12.73896951 -35.29205506 12.94470084 -37.359375 13.15429688 C-38.33648437 13.24775391 -39.31359375 13.34121094 -40.3203125 13.4375 C-41.21878906 13.52652588 -42.11726562 13.61555176 -43.04296875 13.70727539 C-45.2578125 13.77734375 -45.2578125 13.77734375 -47.2578125 12.77734375 C-57.6305095 12.41437928 -65.80719193 15.06103158 -75.18881226 19.00927734 C-86.9207412 23.92477836 -98.53079596 27.97303905 -110.9453125 30.77734375 C-112.14696045 31.04901367 -113.3486084 31.32068359 -114.58666992 31.60058594 C-116.82897544 32.10325593 -119.0717045 32.60404197 -121.31494141 33.10253906 C-143.42061932 38.17140365 -161.09760389 51.30607824 -177.2578125 66.77734375 C-177.92506348 67.4120459 -178.59231445 68.04674805 -179.27978516 68.70068359 C-193.71857713 82.5183848 -204.35327653 94.78105848 -211.36694336 113.55688477 C-212.37223663 116.06254174 -213.52493517 118.47361506 -214.6875 120.91015625 C-226.50970613 146.73743775 -231.05784406 181.76701686 -221.47558594 209.00048828 C-219.32612466 214.71215199 -216.82230178 220.24268327 -214.2578125 225.77734375 C-213.5216209 227.40992433 -212.78594401 229.04273711 -212.05078125 230.67578125 C-203.48835678 249.45101398 -193.03577165 266.00995797 -178.73828125 280.98828125 C-176.2578125 283.77734375 -176.2578125 283.77734375 -174.2109375 286.8515625 C-172.29865096 289.71616774 -170.3166404 291.85696038 -167.8203125 294.21484375 C-165.00365654 296.94811186 -162.52821829 299.59369654 -160.3203125 302.83984375 C-159.299375 304.29390625 -159.299375 304.29390625 -158.2578125 305.77734375 C-157.5978125 305.77734375 -156.9378125 305.77734375 -156.2578125 305.77734375 C-156.00902344 306.50179688 -155.76023437 307.22625 -155.50390625 307.97265625 C-151.82958636 316.24275557 -144.56590352 321.49514773 -137.03125 326.01171875 C-130.51750546 330.15849696 -125.02904313 334.9207293 -121.3828125 341.77734375 C-117.54367416 348.81029518 -110.8702755 352.93558284 -104.171875 357.0625 C-97.73629574 361.12477741 -94.40298398 367.75667949 -90.890625 374.33984375 C-88.91331909 377.29161143 -86.68286154 379.09867546 -83.8828125 381.27734375 C-80.08263032 384.25048904 -76.61630317 387.31069829 -73.2578125 390.77734375 C-67.82071078 396.35037302 -63.0222133 400.19113991 -55.6953125 402.96484375 C-55.03595703 403.22458984 -54.37660156 403.48433594 -53.69726562 403.75195312 C-44.60301886 407.28911242 -35.40784417 408.30768616 -25.97265625 405.1328125 C-20.44151381 402.37122052 -15.81564546 398.24525221 -11.09863281 394.29882812 C-8.66935111 392.29096558 -6.1837952 390.36105915 -3.69262695 388.4309082 C4.01590308 382.45271595 11.42636913 376.52996284 17.76953125 369.07421875 C20.16752343 366.28210112 22.63342029 363.55542355 25.1171875 360.83984375 C25.81642334 360.07401978 25.81642334 360.07401978 26.52978516 359.29272461 C30.27034413 355.22546514 34.16590769 351.33890028 38.16015625 347.51953125 C39.96627403 345.92278927 39.96627403 345.92278927 39.7421875 343.77734375 C40.4021875 343.77734375 41.0621875 343.77734375 41.7421875 343.77734375 C43.57287758 341.84724586 43.57287758 341.84724586 45.5546875 339.27734375 C46.34359375 338.28863281 47.1325 337.29992187 47.9453125 336.28125 C48.38423828 335.72840332 48.82316406 335.17555664 49.27539062 334.60595703 C50.90650492 332.57249397 52.5642832 330.56274628 54.2265625 328.5546875 C55.11444458 327.47767578 55.11444458 327.47767578 56.02026367 326.37890625 C57.20228569 324.94540738 58.38731046 323.51437881 59.57543945 322.0859375 C60.11644287 321.4259375 60.65744629 320.7659375 61.21484375 320.0859375 C61.70218994 319.49611084 62.18953613 318.90628418 62.69165039 318.29858398 C63.93160357 316.81117957 63.93160357 316.81117957 63.7421875 314.77734375 C64.4021875 314.77734375 65.0621875 314.77734375 65.7421875 314.77734375 C65.8453125 314.13796875 65.9484375 313.49859375 66.0546875 312.83984375 C66.2815625 312.15921875 66.5084375 311.47859375 66.7421875 310.77734375 C67.7321875 310.44734375 68.7221875 310.11734375 69.7421875 309.77734375 C71.26631165 307.48820379 72.64408505 305.22891524 73.9921875 302.83984375 C78.13821389 295.71409757 82.50264168 288.85850354 87.63671875 282.390625 C93.69572546 274.58681557 97.59337091 266.10484177 101.63574219 257.15625 C102.76095686 254.73698879 103.95893076 252.36652992 105.17578125 249.9921875 C108.14753334 244.09382241 110.64293723 238.02292672 113.1171875 231.90234375 C113.59615479 230.71850098 114.07512207 229.5346582 114.56860352 228.31494141 C127.13212878 197.00654344 138.90333049 161.00919759 124.93457031 127.86083984 C123.56351962 124.89841844 122.07460393 122.02943327 120.5234375 119.15625 C119.16956412 116.58804721 118.01794864 114.10023921 116.8984375 111.43359375 C114.72299944 106.46288546 111.83714317 102.15426655 108.7421875 97.71484375 C105.35618185 92.83279352 102.29047268 88.05118465 99.71289062 82.69555664 C93.28175477 69.98694638 83.45545174 61.47629875 71.7421875 53.77734375 C70.84717529 53.18783936 70.84717529 53.18783936 69.93408203 52.58642578 C64.45560598 49.02487177 58.84036453 45.80793648 53.0546875 42.77734375 C49.4295658 40.84842736 46.4573334 38.78620114 43.3671875 36.08984375 C32.61493481 27.14686435 18.24033257 20.27223996 4.7421875 16.77734375 C3.43356482 16.41807412 2.12497326 16.0586911 0.81640625 15.69921875 C-8.86410024 13.10636729 -18.16199778 11.24324972 -28.1953125 12.25 Z " fill="#000000" transform="translate(289.2578125,50.22265625)"/>
</svg>
