<?xml version="1.0" encoding="UTF-8"?>
<svg version="1.1" xmlns="http://www.w3.org/2000/svg" width="500" height="500">
<path d="M0 0 C1.78478422 1.09101071 3.59937126 2.10048526 5.43701172 3.09960938 C12.50616532 6.96807736 19.30840544 11.16553519 25.72216797 16.05273438 C26.67607422 16.77203125 27.62998047 17.49132812 28.61279297 18.23242188 C32.43618962 21.45508548 35.13151614 25.40917033 37.97216797 29.49023438 C39.1125068 31.10762368 40.25313494 32.72480904 41.39404297 34.34179688 C41.95414063 35.14004883 42.51423828 35.93830078 43.09130859 36.76074219 C44.56494805 38.83177919 46.07395908 40.86586722 47.61279297 42.88867188 C53.14460916 50.21212844 56.74100946 57.33857875 59.72216797 66.05273438 C60.50026325 67.89186867 61.29213462 69.72523102 62.09716797 71.55273438 C70.74353141 92.40732797 77.09604498 114.82730408 77.38623047 137.54882812 C77.69693945 140.7895951 78.35104574 143.53219777 79.20654297 146.66210938 C80.88514181 153.0964054 81.23439716 159.23994938 81.34716797 165.86523438 C81.39856916 168.01765911 81.4531684 170.17001026 81.51123047 172.32226562 C81.53757568 173.72375854 81.53757568 173.72375854 81.56445312 175.15356445 C81.68323208 178.14258136 81.68323208 178.14258136 82.21557617 181.43408203 C82.74382213 185.20741291 82.93108637 188.87373601 83.03857422 192.68164062 C83.06974586 193.74897682 83.06974586 193.74897682 83.10154724 194.83787537 C83.14453716 196.33790892 83.18560999 197.83799853 83.22485352 199.33813477 C83.28387249 201.58495108 83.3491676 203.83151481 83.41552734 206.078125 C83.67191079 215.07131509 83.79493193 224.05521787 83.72216797 233.05273438 C83.71725342 233.87265869 83.71233887 234.69258301 83.70727539 235.53735352 C83.4918775 252.31778541 79.45756613 266.55576826 71.62060547 281.33398438 C69.90865006 284.59421555 68.5837607 287.89225054 67.34716797 291.36523438 C61.78953409 306.44219384 53.50024785 322.9425289 41.75732422 334.02929688 C39.54783076 336.22606773 37.64736625 338.54135202 35.72216797 340.99023438 C35.05443359 341.83199219 34.38669922 342.67375 33.69873047 343.54101562 C32.43019297 345.15301091 31.17381489 346.77469269 29.93310547 348.40820312 C24.36377487 355.29284371 17.52800612 359.17867237 9.72216797 363.05273438 C8.96291016 363.43494141 8.20365234 363.81714844 7.42138672 364.2109375 C-4.19465844 369.98142843 -15.43793359 374.11400216 -28.27783203 376.05273438 C-28.99181152 376.16166016 -29.70579102 376.27058594 -30.44140625 376.3828125 C-36.36948157 377.22873036 -42.3027789 377.68700538 -48.27783203 378.05273438 C-49.26369293 378.11424683 -49.26369293 378.11424683 -50.26947021 378.17700195 C-54.86039054 378.45793245 -59.45147684 378.69266295 -64.04690552 378.88638306 C-65.60091896 378.95488534 -67.15458632 379.03182985 -68.70773315 379.11776733 C-77.92230746 379.61184272 -85.41070242 379.55778977 -93.27783203 374.05273438 C-94.02436035 373.54347412 -94.77088867 373.03421387 -95.54003906 372.50952148 C-96.11351074 372.02878174 -96.68698242 371.54804199 -97.27783203 371.05273438 C-97.27783203 370.39273437 -97.27783203 369.73273438 -97.27783203 369.05273438 C-97.81408203 368.84648437 -98.35033203 368.64023437 -98.90283203 368.42773438 C-102.19761212 366.52023011 -104.87146831 364.00454054 -107.27783203 361.05273438 C-107.27783203 360.39273437 -107.27783203 359.73273438 -107.27783203 359.05273438 C-107.93783203 359.05273438 -108.59783203 359.05273438 -109.27783203 359.05273438 C-110.69221609 357.47986754 -112.03387604 355.84133442 -113.34033203 354.17773438 C-116.36971899 350.37767138 -119.45754716 346.72559589 -122.77783203 343.17773438 C-131.14514469 333.92275898 -137.06004411 323.91336108 -142.44580078 312.77148438 C-145.27531381 306.945413 -148.6784999 301.50332392 -152.21533203 296.08398438 C-159.37559097 284.90964089 -163.51028718 273.32356701 -167.85986328 260.83789062 C-169.17503801 257.21025688 -170.719985 253.69958641 -172.27539062 250.16967773 C-176.1450723 241.34180008 -179.00415135 232.79985131 -180.83349609 223.33837891 C-181.30702069 220.9025892 -181.81997654 218.47668772 -182.33251953 216.04882812 C-191.5204211 170.9831696 -192.12506287 116.32643981 -172.27783203 74.05273438 C-171.7167408 72.78430495 -171.15803418 71.51481723 -170.60205078 70.24414062 C-170.06193359 69.04660156 -169.52181641 67.8490625 -168.96533203 66.61523438 C-168.43294922 65.42027344 -167.90056641 64.2253125 -167.35205078 62.99414062 C-162.2125548 52.74528081 -154.5922182 44.83624143 -146.5559082 36.82983398 C-144.72876532 35.00366053 -142.92402007 33.15721621 -141.11962891 31.30859375 C-133.44261678 23.55435531 -125.67048301 17.60990018 -116.27783203 12.05273438 C-114.31466934 10.78937416 -112.35548813 9.51977373 -110.40283203 8.24023438 C-99.23780376 1.21759341 -87.5122549 -2.86690457 -74.27783203 -3.94726562 C-74.09220703 -5.12289062 -74.09220703 -5.12289062 -73.90283203 -6.32226562 C-73.27783203 -8.94726562 -73.27783203 -8.94726562 -71.27783203 -10.94726562 C-50.67922073 -17.76690957 -18.00746497 -11.11787566 0 0 Z " fill="#FFFFFF" transform="translate(288.27783203125,59.947265625)"/>
<path d="M0 0 C1.78478422 1.09101071 3.59937126 2.10048526 5.43701172 3.09960938 C12.50616532 6.96807736 19.30840544 11.16553519 25.72216797 16.05273438 C26.67607422 16.77203125 27.62998047 17.49132812 28.61279297 18.23242188 C32.43618962 21.45508548 35.13151614 25.40917033 37.97216797 29.49023438 C39.1125068 31.10762368 40.25313494 32.72480904 41.39404297 34.34179688 C41.95414063 35.14004883 42.51423828 35.93830078 43.09130859 36.76074219 C44.56494805 38.83177919 46.07395908 40.86586722 47.61279297 42.88867188 C53.14460916 50.21212844 56.74100946 57.33857875 59.72216797 66.05273438 C60.50026325 67.89186867 61.29213462 69.72523102 62.09716797 71.55273438 C70.74353141 92.40732797 77.09604498 114.82730408 77.38623047 137.54882812 C77.69693945 140.7895951 78.35104574 143.53219777 79.20654297 146.66210938 C80.88514181 153.0964054 81.23439716 159.23994938 81.34716797 165.86523438 C81.39856916 168.01765911 81.4531684 170.17001026 81.51123047 172.32226562 C81.53757568 173.72375854 81.53757568 173.72375854 81.56445312 175.15356445 C81.68323208 178.14258136 81.68323208 178.14258136 82.21557617 181.43408203 C82.74382213 185.20741291 82.93108637 188.87373601 83.03857422 192.68164062 C83.06974586 193.74897682 83.06974586 193.74897682 83.10154724 194.83787537 C83.14453716 196.33790892 83.18560999 197.83799853 83.22485352 199.33813477 C83.28387249 201.58495108 83.3491676 203.83151481 83.41552734 206.078125 C83.67191079 215.07131509 83.79493193 224.05521787 83.72216797 233.05273438 C83.71725342 233.87265869 83.71233887 234.69258301 83.70727539 235.53735352 C83.4918775 252.31778541 79.45756613 266.55576826 71.62060547 281.33398438 C69.90865006 284.59421555 68.5837607 287.89225054 67.34716797 291.36523438 C61.78953409 306.44219384 53.50024785 322.9425289 41.75732422 334.02929688 C39.54783076 336.22606773 37.64736625 338.54135202 35.72216797 340.99023438 C35.05443359 341.83199219 34.38669922 342.67375 33.69873047 343.54101562 C32.43019297 345.15301091 31.17381489 346.77469269 29.93310547 348.40820312 C24.36377487 355.29284371 17.52800612 359.17867237 9.72216797 363.05273438 C8.96291016 363.43494141 8.20365234 363.81714844 7.42138672 364.2109375 C-4.19465844 369.98142843 -15.43793359 374.11400216 -28.27783203 376.05273438 C-28.99181152 376.16166016 -29.70579102 376.27058594 -30.44140625 376.3828125 C-36.36948157 377.22873036 -42.3027789 377.68700538 -48.27783203 378.05273438 C-49.26369293 378.11424683 -49.26369293 378.11424683 -50.26947021 378.17700195 C-54.86039054 378.45793245 -59.45147684 378.69266295 -64.04690552 378.88638306 C-65.60091896 378.95488534 -67.15458632 379.03182985 -68.70773315 379.11776733 C-77.92230746 379.61184272 -85.41070242 379.55778977 -93.27783203 374.05273438 C-94.02436035 373.54347412 -94.77088867 373.03421387 -95.54003906 372.50952148 C-96.11351074 372.02878174 -96.68698242 371.54804199 -97.27783203 371.05273438 C-97.27783203 370.39273437 -97.27783203 369.73273438 -97.27783203 369.05273438 C-97.81408203 368.84648437 -98.35033203 368.64023437 -98.90283203 368.42773438 C-102.19761212 366.52023011 -104.87146831 364.00454054 -107.27783203 361.05273438 C-107.27783203 360.39273437 -107.27783203 359.73273438 -107.27783203 359.05273438 C-107.93783203 359.05273438 -108.59783203 359.05273438 -109.27783203 359.05273438 C-110.69221609 357.47986754 -112.03387604 355.84133442 -113.34033203 354.17773438 C-116.36971899 350.37767138 -119.45754716 346.72559589 -122.77783203 343.17773438 C-131.14514469 333.92275898 -137.06004411 323.91336108 -142.44580078 312.77148438 C-145.27531381 306.945413 -148.6784999 301.50332392 -152.21533203 296.08398438 C-159.37559097 284.90964089 -163.51028718 273.32356701 -167.85986328 260.83789062 C-169.17503801 257.21025688 -170.719985 253.69958641 -172.27539062 250.16967773 C-176.1450723 241.34180008 -179.00415135 232.79985131 -180.83349609 223.33837891 C-181.30702069 220.9025892 -181.81997654 218.47668772 -182.33251953 216.04882812 C-191.5204211 170.9831696 -192.12506287 116.32643981 -172.27783203 74.05273438 C-171.7167408 72.78430495 -171.15803418 71.51481723 -170.60205078 70.24414062 C-170.06193359 69.04660156 -169.52181641 67.8490625 -168.96533203 66.61523438 C-168.43294922 65.42027344 -167.90056641 64.2253125 -167.35205078 62.99414062 C-162.2125548 52.74528081 -154.5922182 44.83624143 -146.5559082 36.82983398 C-144.72876532 35.00366053 -142.92402007 33.15721621 -141.11962891 31.30859375 C-133.44261678 23.55435531 -125.67048301 17.60990018 -116.27783203 12.05273438 C-114.31466934 10.78937416 -112.35548813 9.51977373 -110.40283203 8.24023438 C-99.23780376 1.21759341 -87.5122549 -2.86690457 -74.27783203 -3.94726562 C-74.09220703 -5.12289062 -74.09220703 -5.12289062 -73.90283203 -6.32226562 C-73.27783203 -8.94726562 -73.27783203 -8.94726562 -71.27783203 -10.94726562 C-50.67922073 -17.76690957 -18.00746497 -11.11787566 0 0 Z M-48.27783203 1.05273438 C-48.93783203 3.03273438 -49.59783203 5.01273438 -50.27783203 7.05273438 C-53.83367835 7.91246511 -57.19770448 8.13129496 -60.84838867 8.19067383 C-74.75365595 8.5162152 -90.9238199 12.73528108 -101.90283203 21.74023438 C-104.9361227 24.12738028 -108.0747255 26.17545844 -111.37451172 28.17749023 C-117.68130516 32.0326641 -122.48306032 35.97993018 -127.26611328 41.70898438 C-129.16882702 43.92573824 -131.11891175 45.78716393 -133.34033203 47.67773438 C-143.76913174 56.59900462 -151.60310408 66.3295154 -156.29345703 79.44335938 C-157.16950221 81.76557438 -158.15508391 83.96940184 -159.19580078 86.22070312 C-171.11846577 112.89169921 -170.84364403 142.46508306 -170.27783203 171.05273438 C-170.26236328 172.18259766 -170.24689453 173.31246094 -170.23095703 174.4765625 C-170.03531345 187.51131643 -168.62655411 199.85016838 -165.81298828 212.58007812 C-165.29320702 214.9816952 -164.82561454 217.38792431 -164.37158203 219.80273438 C-162.59588538 228.93087962 -159.86726082 236.95594942 -155.94189453 245.37695312 C-154.02039751 249.51944308 -152.61936514 253.77512189 -151.23486328 258.12304688 C-147.48815296 269.59256826 -143.02472119 280.86355375 -136.52783203 291.05273438 C-133.15676719 296.36184586 -130.49100949 301.76397697 -127.90283203 307.49023438 C-122.41992683 319.47192504 -114.9592882 329.27415156 -106.52001953 339.36523438 C-104.91918063 341.28400992 -103.34370045 343.22405924 -101.78564453 345.17773438 C-100.97869141 346.18835938 -100.17173828 347.19898438 -99.34033203 348.24023438 C-98.60943359 349.16191406 -97.87853516 350.08359375 -97.12548828 351.03320312 C-96.21089844 352.03287109 -96.21089844 352.03287109 -95.27783203 353.05273438 C-94.61783203 353.05273438 -93.95783203 353.05273438 -93.27783203 353.05273438 C-93.02775391 353.62765625 -92.77767578 354.20257813 -92.52001953 354.79492188 C-89.73454897 359.8578212 -85.17670684 363.87564349 -79.82470703 366.04882812 C-51.07078213 372.1443239 -16.55374808 363.79087178 8.72216797 350.05273438 C9.54716797 349.62089844 10.37216797 349.1890625 11.22216797 348.74414062 C19.82701844 343.88710589 25.48265748 335.15579202 31.56201172 327.59570312 C33.39464883 325.43829488 35.23819931 323.6133005 37.34716797 321.74023438 C41.87047568 317.35210598 44.17287434 311.6460141 46.79101562 306.01464844 C47.74534007 304.00391135 48.74607661 302.02357694 49.76513672 300.04492188 C53.47571891 292.83246143 56.73130663 285.6852132 59.50732422 278.04882812 C60.70568039 275.09339667 62.14009705 272.53001533 63.78466797 269.80273438 C73.1701553 252.68088928 71.191944 232.91839692 70.72216797 214.05273438 C70.6808374 212.21098633 70.6808374 212.21098633 70.63867188 210.33203125 C70.44395988 202.2329126 70.11594508 194.144426 69.72216797 186.05273438 C69.65706055 184.66048192 69.59195651 183.26822931 69.52685547 181.87597656 C69.35433146 178.24625837 69.16442853 174.61776148 68.96307373 170.98953247 C68.88695566 169.59445542 68.81461047 168.1991664 68.74639893 166.80368042 C68.39784385 159.80202445 67.88373851 153.53417508 65.37304688 146.96557617 C64.36592737 144.00579322 64.38185639 141.16081692 64.34716797 138.05273438 C63.44394701 116.38590348 56.61271936 96.06180584 48.72216797 76.05273438 C48.18172852 74.67190674 48.18172852 74.67190674 47.63037109 73.26318359 C43.55456064 63.01694032 38.74235495 54.63960704 31.72216797 46.05273438 C30.17297423 43.97499218 28.63128469 41.89163355 27.09716797 39.80273438 C25.64491991 37.88145283 24.18705422 35.96439739 22.72216797 34.05273438 C22.13822266 33.28703125 21.55427734 32.52132812 20.95263672 31.73242188 C16.58577068 26.35309744 11.73493333 23.3795944 5.72216797 20.05273438 C4.33937394 19.23940626 2.95937257 18.42131952 1.58154297 17.59960938 C0.84339355 17.15987793 0.10524414 16.72014648 -0.65527344 16.26708984 C-2.11604666 15.39659214 -3.57666721 14.52583817 -5.03710938 13.65478516 C-12.43564889 9.28817922 -18.94939289 5.67989455 -27.52783203 4.42773438 C-28.25929443 4.31002686 -28.99075684 4.19231934 -29.74438477 4.07104492 C-31.2187225 3.83453826 -32.69390495 3.60323157 -34.16992188 3.37744141 C-37.23220141 2.90572125 -40.28562187 2.38341178 -43.34033203 1.86523438 C-44.98602177 1.59352989 -46.63179334 1.32231682 -48.27783203 1.05273438 Z " fill="#000000" transform="translate(288.27783203125,59.947265625)"/>
</svg>
