<?xml version="1.0" encoding="UTF-8"?>
<svg version="1.1" xmlns="http://www.w3.org/2000/svg" width="500" height="500">
<path d="M0 0 C8.25808457 -0.26592362 15.74783622 1.27038337 23.68115234 3.3034668 C25.78571648 3.84254672 27.89442043 4.36150477 30.00488281 4.87695312 C39.64710653 7.26149018 49.11118621 10.092031 58.55566406 13.16015625 C59.63231323 13.50809738 59.63231323 13.50809738 60.73071289 13.86306763 C65.28447425 15.33620768 69.83165146 16.82830858 74.37451172 18.3347168 C75.91464257 18.844235 77.45566593 19.35106308 78.99755859 19.85522461 C92.67188978 24.32717854 105.78295987 29.48256986 118.55566406 36.16015625 C119.36777344 36.56363281 120.17988281 36.96710938 121.01660156 37.3828125 C129.4286444 41.71514087 136.95469747 47.24201251 144.60839844 52.76513672 C147.89284311 55.11811024 151.23375369 57.38915876 154.57519531 59.66015625 C156.79051705 61.33803307 158.69960333 63.09137845 160.55566406 65.16015625 C160.55566406 65.82015625 160.55566406 66.48015625 160.55566406 67.16015625 C161.21566406 67.16015625 161.87566406 67.16015625 162.55566406 67.16015625 C163.21566406 68.81015625 163.87566406 70.46015625 164.55566406 72.16015625 C165.21566406 72.16015625 165.87566406 72.16015625 166.55566406 72.16015625 C168.06347656 74.05859375 168.06347656 74.05859375 169.68066406 76.53515625 C170.48890625 77.75332031 170.48890625 77.75332031 171.31347656 78.99609375 C172.55566406 81.16015625 172.55566406 81.16015625 172.55566406 83.16015625 C173.21566406 83.16015625 173.87566406 83.16015625 174.55566406 83.16015625 C176.06347656 84.83984375 176.06347656 84.83984375 177.68066406 87.03515625 C178.21949219 87.75445312 178.75832031 88.47375 179.31347656 89.21484375 C180.55566406 91.16015625 180.55566406 91.16015625 180.55566406 93.16015625 C181.21566406 93.16015625 181.87566406 93.16015625 182.55566406 93.16015625 C183.98958381 95.54695857 185.40207709 97.94307858 186.80566406 100.34765625 C187.39927734 101.32895508 187.39927734 101.32895508 188.00488281 102.33007812 C193.74408862 112.25608161 196.0537519 123.5350849 198.36816406 134.66015625 C198.73893066 136.42359375 198.73893066 136.42359375 199.1171875 138.22265625 C199.94390685 142.19912497 200.75427386 146.17852187 201.55566406 150.16015625 C201.705578 150.90394531 201.85549194 151.64773437 202.00994873 152.4140625 C206.36062979 174.06229648 210.57299455 195.38124529 210.80566406 217.53515625 C210.81525146 218.29578369 210.82483887 219.05641113 210.8347168 219.84008789 C210.75429796 233.50105569 207.47139098 246.81115973 204.36816406 260.03515625 C204.06746002 261.31974228 204.06746002 261.31974228 203.76068115 262.63027954 C202.38649604 268.48034099 200.98069731 274.32229066 199.55566406 280.16015625 C199.24967285 281.42037598 198.94368164 282.6805957 198.62841797 283.97900391 C194.50355552 300.57258456 188.46117747 317.44197981 176.55566406 330.16015625 C175.89566406 330.16015625 175.23566406 330.16015625 174.55566406 330.16015625 C174.30300781 330.74152344 174.05035156 331.32289063 173.79003906 331.921875 C172.41188341 334.42087243 170.86982481 336.00850329 168.80566406 337.97265625 C166.28272612 340.41886799 163.93359801 342.85163119 161.74316406 345.59765625 C158.45614976 349.52258169 154.53336784 352.53246365 150.54003906 355.7109375 C147.47324077 358.22779945 144.57086933 360.88389761 141.68066406 363.59765625 C131.79355908 372.77614006 121.24064479 380.41750193 109.49609375 387.05126953 C107.59239205 388.13916751 105.719606 389.26958585 103.84472656 390.40625 C72.25594954 408.98906784 26.52841727 416.82629133 -9.72070312 416.20263672 C-12.51908379 416.15899041 -15.31006776 416.18468861 -18.10839844 416.2265625 C-86.45155169 417.09331896 -86.45155169 417.09331896 -110.44433594 395.16015625 C-110.44433594 394.50015625 -110.44433594 393.84015625 -110.44433594 393.16015625 C-111.10433594 393.16015625 -111.76433594 393.16015625 -112.44433594 393.16015625 C-112.44433594 392.50015625 -112.44433594 391.84015625 -112.44433594 391.16015625 C-113.10433594 391.16015625 -113.76433594 391.16015625 -114.44433594 391.16015625 C-115.60383851 390.03475669 -116.75632283 388.90112349 -117.87011719 387.73046875 C-120.38699674 385.21983455 -123.14094579 382.98608778 -125.87011719 380.7109375 C-126.38960938 380.19917969 -126.90910156 379.68742187 -127.44433594 379.16015625 C-127.44433594 378.50015625 -127.44433594 377.84015625 -127.44433594 377.16015625 C-128.01410156 376.92683594 -128.58386719 376.69351562 -129.17089844 376.453125 C-131.99207465 374.84864162 -133.68672737 372.91580256 -135.81933594 370.47265625 C-136.59921875 369.58191406 -137.37910156 368.69117188 -138.18261719 367.7734375 C-138.92898437 366.91105469 -139.67535156 366.04867188 -140.44433594 365.16015625 C-141.07726562 364.45246094 -141.71019531 363.74476563 -142.36230469 363.015625 C-146.44433594 358.41000779 -146.44433594 358.41000779 -146.44433594 356.16015625 C-147.10433594 356.16015625 -147.76433594 356.16015625 -148.44433594 356.16015625 C-150.24546581 353.96787191 -151.91926056 351.77528805 -153.56933594 349.47265625 C-154.06216064 348.79001709 -154.55498535 348.10737793 -155.06274414 347.40405273 C-161.71764981 338.08934723 -167.44192383 328.45889586 -172.44506836 318.16333008 C-174.58629419 313.77886545 -176.92654327 309.59500304 -179.44433594 305.41015625 C-187.02871079 292.29083328 -192.3472781 278.19075918 -194.44433594 263.16015625 C-194.57146973 262.28955566 -194.69860352 261.41895508 -194.82958984 260.52197266 C-203.22621881 202.45597802 -199.78902639 137.1868238 -163.44433594 88.16015625 C-162.78433594 88.16015625 -162.12433594 88.16015625 -161.44433594 88.16015625 C-161.19683594 87.45890625 -160.94933594 86.75765625 -160.69433594 86.03515625 C-159.27253356 82.76501077 -157.57187306 80.01903425 -155.44433594 77.16015625 C-154.78433594 77.16015625 -154.12433594 77.16015625 -153.44433594 77.16015625 C-153.13496094 76.54140625 -152.82558594 75.92265625 -152.50683594 75.28515625 C-151.81933594 73.91015625 -151.13183594 72.53515625 -150.44433594 71.16015625 C-149.78433594 71.16015625 -149.12433594 71.16015625 -148.44433594 71.16015625 C-148.05761719 70.28617188 -148.05761719 70.28617188 -147.66308594 69.39453125 C-146.34599577 66.97986595 -144.8934521 65.34275448 -142.94433594 63.41015625 C-142.03167969 62.48976563 -142.03167969 62.48976563 -141.10058594 61.55078125 C-139.44433594 60.16015625 -139.44433594 60.16015625 -137.44433594 60.16015625 C-137.44433594 59.50015625 -137.44433594 58.84015625 -137.44433594 58.16015625 C-136.06933594 56.53515625 -136.06933594 56.53515625 -134.44433594 55.16015625 C-133.78433594 55.16015625 -133.12433594 55.16015625 -132.44433594 55.16015625 C-132.11433594 54.17015625 -131.78433594 53.18015625 -131.44433594 52.16015625 C-129.41368859 50.51304259 -127.40466473 49.01409224 -125.25683594 47.53515625 C-124.31070435 46.87483398 -124.31070435 46.87483398 -123.34545898 46.20117188 C-121.38599642 44.84272811 -119.41694472 43.49942239 -117.44433594 42.16015625 C-116.87457031 41.76989258 -116.30480469 41.37962891 -115.71777344 40.97753906 C-93.58509413 25.91210747 -69.7045048 15.40915241 -43.44433594 10.16015625 C-42.41953125 9.95519531 -41.39472656 9.75023437 -40.33886719 9.5390625 C-36.72120118 9.06549489 -33.14780476 9.0144885 -29.50683594 9.03515625 C-28.82943359 9.03128906 -28.15203125 9.02742188 -27.45410156 9.0234375 C-23.00729705 9.03196445 -18.81732804 9.44177684 -14.44433594 10.16015625 C-14.36183594 9.23203125 -14.27933594 8.30390625 -14.19433594 7.34765625 C-13.44433594 4.16015625 -13.44433594 4.16015625 -11.81933594 2.34765625 C-7.93779834 0.40688745 -4.24411907 0.27808051 0 0 Z " fill="#FFFFFF" transform="translate(235.4443359375,40.83984375)"/>
<path d="M0 0 C8.25808457 -0.26592362 15.74783622 1.27038337 23.68115234 3.3034668 C25.78571648 3.84254672 27.89442043 4.36150477 30.00488281 4.87695312 C39.64710653 7.26149018 49.11118621 10.092031 58.55566406 13.16015625 C59.63231323 13.50809738 59.63231323 13.50809738 60.73071289 13.86306763 C65.28447425 15.33620768 69.83165146 16.82830858 74.37451172 18.3347168 C75.91464257 18.844235 77.45566593 19.35106308 78.99755859 19.85522461 C92.67188978 24.32717854 105.78295987 29.48256986 118.55566406 36.16015625 C119.36777344 36.56363281 120.17988281 36.96710938 121.01660156 37.3828125 C129.4286444 41.71514087 136.95469747 47.24201251 144.60839844 52.76513672 C147.89284311 55.11811024 151.23375369 57.38915876 154.57519531 59.66015625 C156.79051705 61.33803307 158.69960333 63.09137845 160.55566406 65.16015625 C160.55566406 65.82015625 160.55566406 66.48015625 160.55566406 67.16015625 C161.21566406 67.16015625 161.87566406 67.16015625 162.55566406 67.16015625 C163.21566406 68.81015625 163.87566406 70.46015625 164.55566406 72.16015625 C165.21566406 72.16015625 165.87566406 72.16015625 166.55566406 72.16015625 C168.06347656 74.05859375 168.06347656 74.05859375 169.68066406 76.53515625 C170.48890625 77.75332031 170.48890625 77.75332031 171.31347656 78.99609375 C172.55566406 81.16015625 172.55566406 81.16015625 172.55566406 83.16015625 C173.21566406 83.16015625 173.87566406 83.16015625 174.55566406 83.16015625 C176.06347656 84.83984375 176.06347656 84.83984375 177.68066406 87.03515625 C178.21949219 87.75445312 178.75832031 88.47375 179.31347656 89.21484375 C180.55566406 91.16015625 180.55566406 91.16015625 180.55566406 93.16015625 C181.21566406 93.16015625 181.87566406 93.16015625 182.55566406 93.16015625 C183.98958381 95.54695857 185.40207709 97.94307858 186.80566406 100.34765625 C187.39927734 101.32895508 187.39927734 101.32895508 188.00488281 102.33007812 C193.74408862 112.25608161 196.0537519 123.5350849 198.36816406 134.66015625 C198.73893066 136.42359375 198.73893066 136.42359375 199.1171875 138.22265625 C199.94390685 142.19912497 200.75427386 146.17852187 201.55566406 150.16015625 C201.705578 150.90394531 201.85549194 151.64773437 202.00994873 152.4140625 C206.36062979 174.06229648 210.57299455 195.38124529 210.80566406 217.53515625 C210.81525146 218.29578369 210.82483887 219.05641113 210.8347168 219.84008789 C210.75429796 233.50105569 207.47139098 246.81115973 204.36816406 260.03515625 C204.06746002 261.31974228 204.06746002 261.31974228 203.76068115 262.63027954 C202.38649604 268.48034099 200.98069731 274.32229066 199.55566406 280.16015625 C199.24967285 281.42037598 198.94368164 282.6805957 198.62841797 283.97900391 C194.50355552 300.57258456 188.46117747 317.44197981 176.55566406 330.16015625 C175.89566406 330.16015625 175.23566406 330.16015625 174.55566406 330.16015625 C174.30300781 330.74152344 174.05035156 331.32289063 173.79003906 331.921875 C172.41188341 334.42087243 170.86982481 336.00850329 168.80566406 337.97265625 C166.28272612 340.41886799 163.93359801 342.85163119 161.74316406 345.59765625 C158.45614976 349.52258169 154.53336784 352.53246365 150.54003906 355.7109375 C147.47324077 358.22779945 144.57086933 360.88389761 141.68066406 363.59765625 C131.79355908 372.77614006 121.24064479 380.41750193 109.49609375 387.05126953 C107.59239205 388.13916751 105.719606 389.26958585 103.84472656 390.40625 C72.25594954 408.98906784 26.52841727 416.82629133 -9.72070312 416.20263672 C-12.51908379 416.15899041 -15.31006776 416.18468861 -18.10839844 416.2265625 C-86.45155169 417.09331896 -86.45155169 417.09331896 -110.44433594 395.16015625 C-110.44433594 394.50015625 -110.44433594 393.84015625 -110.44433594 393.16015625 C-111.10433594 393.16015625 -111.76433594 393.16015625 -112.44433594 393.16015625 C-112.44433594 392.50015625 -112.44433594 391.84015625 -112.44433594 391.16015625 C-113.10433594 391.16015625 -113.76433594 391.16015625 -114.44433594 391.16015625 C-115.60383851 390.03475669 -116.75632283 388.90112349 -117.87011719 387.73046875 C-120.38699674 385.21983455 -123.14094579 382.98608778 -125.87011719 380.7109375 C-126.38960938 380.19917969 -126.90910156 379.68742187 -127.44433594 379.16015625 C-127.44433594 378.50015625 -127.44433594 377.84015625 -127.44433594 377.16015625 C-128.01410156 376.92683594 -128.58386719 376.69351562 -129.17089844 376.453125 C-131.99207465 374.84864162 -133.68672737 372.91580256 -135.81933594 370.47265625 C-136.59921875 369.58191406 -137.37910156 368.69117188 -138.18261719 367.7734375 C-138.92898437 366.91105469 -139.67535156 366.04867188 -140.44433594 365.16015625 C-141.07726562 364.45246094 -141.71019531 363.74476563 -142.36230469 363.015625 C-146.44433594 358.41000779 -146.44433594 358.41000779 -146.44433594 356.16015625 C-147.10433594 356.16015625 -147.76433594 356.16015625 -148.44433594 356.16015625 C-150.24546581 353.96787191 -151.91926056 351.77528805 -153.56933594 349.47265625 C-154.06216064 348.79001709 -154.55498535 348.10737793 -155.06274414 347.40405273 C-161.71764981 338.08934723 -167.44192383 328.45889586 -172.44506836 318.16333008 C-174.58629419 313.77886545 -176.92654327 309.59500304 -179.44433594 305.41015625 C-187.02871079 292.29083328 -192.3472781 278.19075918 -194.44433594 263.16015625 C-194.57146973 262.28955566 -194.69860352 261.41895508 -194.82958984 260.52197266 C-203.22621881 202.45597802 -199.78902639 137.1868238 -163.44433594 88.16015625 C-162.78433594 88.16015625 -162.12433594 88.16015625 -161.44433594 88.16015625 C-161.19683594 87.45890625 -160.94933594 86.75765625 -160.69433594 86.03515625 C-159.27253356 82.76501077 -157.57187306 80.01903425 -155.44433594 77.16015625 C-154.78433594 77.16015625 -154.12433594 77.16015625 -153.44433594 77.16015625 C-153.13496094 76.54140625 -152.82558594 75.92265625 -152.50683594 75.28515625 C-151.81933594 73.91015625 -151.13183594 72.53515625 -150.44433594 71.16015625 C-149.78433594 71.16015625 -149.12433594 71.16015625 -148.44433594 71.16015625 C-148.05761719 70.28617188 -148.05761719 70.28617188 -147.66308594 69.39453125 C-146.34599577 66.97986595 -144.8934521 65.34275448 -142.94433594 63.41015625 C-142.03167969 62.48976563 -142.03167969 62.48976563 -141.10058594 61.55078125 C-139.44433594 60.16015625 -139.44433594 60.16015625 -137.44433594 60.16015625 C-137.44433594 59.50015625 -137.44433594 58.84015625 -137.44433594 58.16015625 C-136.06933594 56.53515625 -136.06933594 56.53515625 -134.44433594 55.16015625 C-133.78433594 55.16015625 -133.12433594 55.16015625 -132.44433594 55.16015625 C-132.11433594 54.17015625 -131.78433594 53.18015625 -131.44433594 52.16015625 C-129.41368859 50.51304259 -127.40466473 49.01409224 -125.25683594 47.53515625 C-124.31070435 46.87483398 -124.31070435 46.87483398 -123.34545898 46.20117188 C-121.38599642 44.84272811 -119.41694472 43.49942239 -117.44433594 42.16015625 C-116.87457031 41.76989258 -116.30480469 41.37962891 -115.71777344 40.97753906 C-93.58509413 25.91210747 -69.7045048 15.40915241 -43.44433594 10.16015625 C-42.41953125 9.95519531 -41.39472656 9.75023437 -40.33886719 9.5390625 C-36.72120118 9.06549489 -33.14780476 9.0144885 -29.50683594 9.03515625 C-28.82943359 9.03128906 -28.15203125 9.02742188 -27.45410156 9.0234375 C-23.00729705 9.03196445 -18.81732804 9.44177684 -14.44433594 10.16015625 C-14.36183594 9.23203125 -14.27933594 8.30390625 -14.19433594 7.34765625 C-13.44433594 4.16015625 -13.44433594 4.16015625 -11.81933594 2.34765625 C-7.93779834 0.40688745 -4.24411907 0.27808051 0 0 Z M-10.44433594 14.16015625 C-10.46496094 15.25328125 -10.48558594 16.34640625 -10.50683594 17.47265625 C-10.81621094 18.68953125 -11.12558594 19.90640625 -11.44433594 21.16015625 C-16.80566337 24.14495859 -21.97999958 24.80131102 -28.00683594 25.47265625 C-55.1507055 29.077404 -81.58013339 39.34725131 -103.63647461 55.82519531 C-105.05240076 56.87074348 -106.48937474 57.88779923 -107.93383789 58.89355469 C-114.67277422 63.63600958 -120.59544658 68.80107212 -126.38183594 74.66015625 C-127.24719971 75.53381836 -128.11256348 76.40748047 -129.00415039 77.30761719 C-154.78662273 103.76724391 -173.94873165 142.23685626 -177.44433594 179.16015625 C-177.53424805 180.01593262 -177.62416016 180.87170898 -177.71679688 181.75341797 C-178.5778055 190.71434229 -178.68545781 199.66638409 -178.69433594 208.66015625 C-178.69567535 209.46641449 -178.69701477 210.27267273 -178.69839478 211.10336304 C-178.69296907 226.27981617 -177.62578726 241.12638511 -175.44433594 256.16015625 C-175.32687012 256.99853027 -175.2094043 257.8369043 -175.08837891 258.70068359 C-173.1366295 272.16974318 -167.95087161 283.43598527 -161.82324219 295.45703125 C-160.00284858 299.03344922 -158.23090655 302.6313904 -156.47167969 306.23828125 C-155.950979 307.29885742 -155.43027832 308.35943359 -154.89379883 309.45214844 C-153.86734959 311.54356463 -152.84671308 313.63784677 -151.83276367 315.73535156 C-149.18371834 321.10349229 -146.39132576 325.93838829 -142.64794922 330.61914062 C-141.44433594 332.16015625 -141.44433594 332.16015625 -140.44433594 334.16015625 C-139.78433594 334.16015625 -139.12433594 334.16015625 -138.44433594 334.16015625 C-138.21746094 334.86140625 -137.99058594 335.56265625 -137.75683594 336.28515625 C-136.10592306 339.9014416 -134.15345244 342.24785601 -131.44433594 345.16015625 C-130.78433594 345.16015625 -130.12433594 345.16015625 -129.44433594 345.16015625 C-129.10402344 345.93359375 -129.10402344 345.93359375 -128.75683594 346.72265625 C-126.96215976 350.0556263 -124.94468578 353.30719296 -122.44433594 356.16015625 C-121.78433594 356.16015625 -121.12433594 356.16015625 -120.44433594 356.16015625 C-120.10982422 356.98386719 -120.10982422 356.98386719 -119.76855469 357.82421875 C-118.02159968 360.905868 -115.77910625 363.05115487 -113.25683594 365.53515625 C-112.76650879 366.01976318 -112.27618164 366.50437012 -111.77099609 367.00366211 C-109.03778836 369.68256473 -106.24652411 372.25797598 -103.31933594 374.72265625 C-100.44433594 377.16015625 -100.44433594 377.16015625 -99.44433594 379.16015625 C-98.78433594 379.16015625 -98.12433594 379.16015625 -97.44433594 379.16015625 C-97.18265625 379.75957031 -96.92097656 380.35898437 -96.65136719 380.9765625 C-92.37881169 388.7058781 -82.34400386 391.69209432 -74.44433594 394.16015625 C-63.07681526 396.98286044 -51.22241762 397.30204206 -39.56933594 397.72265625 C-38.4878125 397.76583984 -37.40628906 397.80902344 -36.29199219 397.85351562 C-28.67265296 398.1395814 -21.06848417 398.21378373 -13.44433594 398.16015625 C-12.16945312 398.15757812 -10.89457031 398.155 -9.58105469 398.15234375 C1.87741418 397.7630413 12.9588603 395.54630242 24.16040039 393.24365234 C42.44923555 389.53566961 42.44923555 389.53566961 47.58276367 392.22021484 C51.03911479 393.86691102 54.54468007 392.23158832 58.05566406 391.22265625 C58.89009033 390.99030273 59.7245166 390.75794922 60.58422852 390.51855469 C76.26855463 386.05111994 90.69345293 380.83606136 104.55566406 372.16015625 C105.61140625 371.51175781 106.66714844 370.86335938 107.75488281 370.1953125 C115.6011705 365.17984233 122.58632406 359.30278197 129.55566406 353.16015625 C130.39355469 352.4228125 131.23144531 351.68546875 132.09472656 350.92578125 C133.57418584 349.61409571 135.04967285 348.29791152 136.52050781 346.9765625 C138.46784321 345.23853762 140.44643219 343.54327258 142.43066406 341.84765625 C145.92088146 338.79548233 149.25466375 335.60155989 152.55566406 332.34765625 C153.04921387 331.86707764 153.54276367 331.38649902 154.05126953 330.89135742 C155.2593971 329.68643727 156.41271209 328.42706808 157.55566406 327.16015625 C157.55566406 326.50015625 157.55566406 325.84015625 157.55566406 325.16015625 C158.21566406 325.16015625 158.87566406 325.16015625 159.55566406 325.16015625 C171.95879513 313.73880336 178.25782905 297.54077225 182.49316406 281.66015625 C182.83162354 280.41508301 183.17008301 279.17000977 183.51879883 277.88720703 C186.75655652 265.85619174 189.4613061 253.712039 192.01831055 241.51904297 C192.55566406 239.16015625 192.55566406 239.16015625 193.55566406 236.16015625 C193.78244669 234.47748512 193.96488355 232.78860793 194.11816406 231.09765625 C194.20195312 230.21980469 194.28574219 229.34195313 194.37207031 228.4375 C195.68840355 204.93955135 190.83679234 182.57084451 185.61816406 159.83642578 C184.58895972 155.33668935 183.61448471 150.82634733 182.64941406 146.3125 C182.19943377 144.23253861 181.7479354 142.15291536 181.29550171 140.07348633 C180.88368982 138.16944083 180.48085198 136.26346118 180.07836914 134.35742188 C177.91335145 124.57340168 175.1092628 114.75079411 168.86816406 106.72265625 C168.18625 105.830625 167.50433594 104.93859375 166.80175781 104.01953125 C166.06054688 103.0759375 165.31933594 102.13234375 164.55566406 101.16015625 C163.71172697 100.06234111 162.86933347 98.96333796 162.02832031 97.86328125 C160.31507615 95.62380334 158.59302361 93.39157489 156.86425781 91.1640625 C155.02715418 88.77365185 153.25047487 86.35870843 151.49316406 83.91015625 C144.45664005 74.61883449 135.95715199 68.42175011 126.23876953 62.24560547 C124.15522256 60.90190807 122.1411499 59.46794277 120.11816406 58.03515625 C101.66590839 45.82511347 79.68172333 38.95708292 58.80957031 32.21630859 C55.41759991 31.11534341 52.03337971 29.99249786 48.64941406 28.8671875 C37.34715087 25.13460903 26.0321751 21.59217024 14.49316406 18.66015625 C13.07680664 18.29543213 13.07680664 18.29543213 11.63183594 17.92333984 C6.0439175 16.55627414 0.61182895 15.76813519 -5.12963867 15.38867188 C-7.44433594 15.16015625 -7.44433594 15.16015625 -10.44433594 14.16015625 Z " fill="#000000" transform="translate(235.4443359375,40.83984375)"/>
</svg>
