<?xml version="1.0" encoding="UTF-8"?>
<svg version="1.1" xmlns="http://www.w3.org/2000/svg" width="500" height="500">
<path d="M0 0 C2.6633902 2.25858515 5.24887026 4.56930423 7.796875 6.95703125 C9.68082651 8.70402884 11.59937718 10.29898972 13.625 11.875 C14.800625 12.926875 14.800625 12.926875 16 14 C16 14.99 16 15.98 16 17 C16.99 17.33 17.98 17.66 19 18 C20.8671875 20.58984375 20.8671875 20.58984375 22.875 23.9375 C23.53242188 25.01902344 24.18984375 26.10054687 24.8671875 27.21484375 C44.65950548 61.76033126 47.41766773 102.0001465 37.625 140.0625 C35.6570986 147.30378529 33.27046192 154.23113488 30 161 C29.59523438 161.84949219 29.19046875 162.69898438 28.7734375 163.57421875 C13.37335252 193.69894639 -14.50699441 222.06522604 -47.18359375 232.71142578 C-75.93553602 241.05897052 -109.69192184 238.44766259 -136 224 C-139.8976354 221.56976415 -143.46673549 218.92944096 -147 216 C-147.68964844 215.47148437 -148.37929687 214.94296875 -149.08984375 214.3984375 C-168.11252156 199.10495792 -177.52614692 173.75752148 -180.375 150.1875 C-182.68873828 127.21843764 -180.2631596 104.15268434 -174 82 C-173.80535156 81.29907227 -173.61070312 80.59814453 -173.41015625 79.87597656 C-169.94979573 67.6990872 -164.16011209 53.13093976 -155 44 C-154.34 44 -153.68 44 -153 44 C-152.74863281 43.44183594 -152.49726563 42.88367188 -152.23828125 42.30859375 C-148.19034572 34.76181174 -141.70497175 27.35188518 -134.5 22.75 C-130.8757844 20.26616258 -129.31671647 17.43626636 -127.53125 13.4765625 C-123.37486818 6.75425109 -116.9570552 2.2486989 -110.4375 -2 C-109.64666016 -2.51691406 -108.85582031 -3.03382812 -108.04101562 -3.56640625 C-74.2849697 -25.30758837 -32.30770582 -24.82737052 0 0 Z " fill="#FFFFFF" transform="translate(274,126)"/>
<path d="M0 0 C2.6633902 2.25858515 5.24887026 4.56930423 7.796875 6.95703125 C9.68082651 8.70402884 11.59937718 10.29898972 13.625 11.875 C14.800625 12.926875 14.800625 12.926875 16 14 C16 14.99 16 15.98 16 17 C16.99 17.33 17.98 17.66 19 18 C20.8671875 20.58984375 20.8671875 20.58984375 22.875 23.9375 C23.53242188 25.01902344 24.18984375 26.10054687 24.8671875 27.21484375 C44.65950548 61.76033126 47.41766773 102.0001465 37.625 140.0625 C35.6570986 147.30378529 33.27046192 154.23113488 30 161 C29.59523438 161.84949219 29.19046875 162.69898438 28.7734375 163.57421875 C13.37335252 193.69894639 -14.50699441 222.06522604 -47.18359375 232.71142578 C-75.93553602 241.05897052 -109.69192184 238.44766259 -136 224 C-139.8976354 221.56976415 -143.46673549 218.92944096 -147 216 C-147.68964844 215.47148437 -148.37929687 214.94296875 -149.08984375 214.3984375 C-168.11252156 199.10495792 -177.52614692 173.75752148 -180.375 150.1875 C-182.68873828 127.21843764 -180.2631596 104.15268434 -174 82 C-173.80535156 81.29907227 -173.61070312 80.59814453 -173.41015625 79.87597656 C-169.94979573 67.6990872 -164.16011209 53.13093976 -155 44 C-154.34 44 -153.68 44 -153 44 C-152.74863281 43.44183594 -152.49726563 42.88367188 -152.23828125 42.30859375 C-148.19034572 34.76181174 -141.70497175 27.35188518 -134.5 22.75 C-130.8757844 20.26616258 -129.31671647 17.43626636 -127.53125 13.4765625 C-123.37486818 6.75425109 -116.9570552 2.2486989 -110.4375 -2 C-109.64666016 -2.51691406 -108.85582031 -3.03382812 -108.04101562 -3.56640625 C-74.2849697 -25.30758837 -32.30770582 -24.82737052 0 0 Z M-88 4 C-88.77601563 4.36996094 -89.55203125 4.73992187 -90.3515625 5.12109375 C-93.43528373 6.7227243 -93.43528373 6.7227243 -96 9 C-96.08507812 10.12277344 -96.17015625 11.24554688 -96.2578125 12.40234375 C-97 16 -97 16 -100.23828125 18.328125 C-101.58371402 18.99488814 -102.9426678 19.634921 -104.3125 20.25 C-105.66414107 20.89817041 -107.01444266 21.54914265 -108.36328125 22.203125 C-108.9977417 22.50806885 -109.63220215 22.8130127 -110.28588867 23.12719727 C-115.14699301 25.60240707 -116.63277606 28.16262935 -119 33 C-122 35 -122 35 -125.31640625 35.72265625 C-130.01029745 37.35033644 -131.91913376 39.63013373 -134.9375 43.4375 C-135.45401123 44.06785156 -135.97052246 44.69820312 -136.50268555 45.34765625 C-138.0213601 47.21708526 -139.51339904 49.10502041 -141 51 C-141.76054687 51.95003906 -142.52109375 52.90007812 -143.3046875 53.87890625 C-153.48460013 67.16824745 -158.43450422 81.9152474 -162.1875 98 C-162.35467529 98.69899414 -162.52185059 99.39798828 -162.6940918 100.11816406 C-168.78306873 127.5107177 -167.169114 160.62013514 -153.1875 185.4375 C-149.69307519 190.79743806 -145.46920815 195.44065656 -141 200 C-140.34644531 200.68964844 -139.69289063 201.37929688 -139.01953125 202.08984375 C-122.41650006 218.30750478 -100.05969656 222.03554321 -77.79541016 221.99609375 C-49.40722402 221.64036799 -27.0576525 207.99305402 -7.4296875 188.47314453 C-0.54394583 181.37810266 4.94245161 173.45928472 10 165 C10.67160156 163.91847656 11.34320313 162.83695313 12.03515625 161.72265625 C17.01920302 153.54546814 20.61262272 145.32113289 23 136 C23.19609863 135.23816406 23.39219727 134.47632813 23.59423828 133.69140625 C26.48370202 121.87839015 27.3882045 110.18222857 27.4375 98.0625 C27.4475708 96.79599609 27.4576416 95.52949219 27.46801758 94.22460938 C27.34507545 80.82478926 24.48175704 68.38906572 20.1875 55.75 C19.71086914 54.27273437 19.71086914 54.27273437 19.22460938 52.765625 C15.86811788 42.74231051 11.29204824 33.73979405 4.25 25.8125 C3.47293701 24.92498047 3.47293701 24.92498047 2.68017578 24.01953125 C-12.25115015 7.3366899 -32.30454407 -1.70139851 -54.48828125 -3.1640625 C-65.9917691 -3.53899099 -77.660665 -1.06083239 -88 4 Z " fill="#000000" transform="translate(274,126)"/>
<path d="M0 0 C6.14470233 4.98805248 10.66384037 12.4471489 15 19 C15.65742188 19.99257812 16.31484375 20.98515625 16.9921875 22.0078125 C22 29.71059237 22 29.71059237 22 32 C22.66 32 23.32 32 24 32 C25.28125 33.9140625 25.28125 33.9140625 27 37 C27.86220793 38.46754401 28.7270393 39.93354825 29.59375 41.3984375 C30.56300389 43.0569973 31.53174011 44.71585971 32.5 46.375 C32.98597656 47.2 33.47195313 48.025 33.97265625 48.875 C42.15928763 62.92834543 42.15928763 62.92834543 41 70 C33.27984732 87.41774798 18.17263639 104.48130676 3.3828125 116.08984375 C-1.1628235 119.6916491 -1.1628235 119.6916491 -3 125 C-3.41041146 127.25726301 -3.86188918 128.78324957 -5.09765625 130.72265625 C-8.02931275 132.69114018 -11.02852789 132.47345273 -14.4375 132.4375 C-15.75621094 132.45683594 -17.07492187 132.47617187 -18.43359375 132.49609375 C-22 132 -22 132 -24.44140625 130.50390625 C-26.68138928 126.90533701 -26.59025678 123.60907961 -26.5 119.5 C-26.49081543 118.60853271 -26.48163086 117.71706543 -26.47216797 116.79858398 C-26.12429146 102.83859913 -24.12920761 88.93567373 -22.48291016 75.08300781 C-20.53841559 58.69120602 -19.67503557 42.43717638 -19.42895508 25.93920898 C-19.41459915 25.20294281 -19.40024323 24.46667664 -19.38545227 23.70809937 C-19.34618898 21.69166446 -19.31633736 19.67505259 -19.28710938 17.65844727 C-18.91240027 12.88377384 -18.47600199 8.47600199 -15 5 C-11.375 4.875 -11.375 4.875 -8 5 C-7.87625 4.360625 -7.7525 3.72125 -7.625 3.0625 C-7.315625 2.0415625 -7.315625 2.0415625 -7 1 C-4.41434354 -0.29282823 -2.87019994 -0.33414268 0 0 Z " fill="#000000" transform="translate(359,171)"/>
<path d="M0 0 C2.21463775 2.71990368 4.35960614 5.39746992 6.19140625 8.390625 C6.57321045 9.00905273 6.95501465 9.62748047 7.34838867 10.26464844 C7.94937378 11.24739746 7.94937378 11.24739746 8.5625 12.25 C11.74304743 17.40156563 14.96594207 22.51852006 18.27612305 27.58789062 C20.53455523 31.04761652 22.77045955 34.52160447 25 38 C25.58418701 38.90685547 25.58418701 38.90685547 26.18017578 39.83203125 C27.22020224 41.46077794 28.23595631 43.104951 29.25 44.75 C29.81203125 45.65234375 30.3740625 46.5546875 30.953125 47.484375 C32.28000124 50.6728388 32.25030758 51.77805355 31 55 C29.33288454 57.51811798 27.43972816 59.81321255 25.5 62.125 C24.954646 62.78733643 24.40929199 63.44967285 23.84741211 64.13208008 C22.74498828 65.47067981 21.63947072 66.80673809 20.53076172 68.14013672 C19.21404662 69.73993507 17.93340472 71.36930179 16.66015625 73.00390625 C12.49242337 78.33581033 8.0087917 83.08603007 3.0625 87.6875 C2.494104 88.21754639 1.92570801 88.74759277 1.34008789 89.29370117 C-2.7434361 93 -2.7434361 93 -5 93 C-4.73502338 89.83275008 -4.46375399 86.66627526 -4.1875 83.5 C-4.10129395 82.49445068 -4.01508789 81.48890137 -3.92626953 80.45288086 C-3.48746349 75.55566854 -2.99440198 70.70082082 -2.19921875 65.84765625 C1.26650105 44.07949882 0.2659419 21.97361972 0 0 Z " fill="#FFFFFF" transform="translate(354,184)"/>
<path d="M0 0 C2.3125 1.625 2.3125 1.625 4 4 C4.96529883 12.95441682 -1.40044177 21.1210965 -6.5625 28 C-13.44892761 36.31225183 -22.14463403 41.44923343 -33 43 C-50.02318072 44.04049501 -66.0901461 41.98428773 -79.6640625 30.60498047 C-81.37876973 29.08650543 -83.04127447 27.52984369 -84.6875 25.9375 C-85.20530029 25.44314453 -85.72310059 24.94878906 -86.2565918 24.43945312 C-89.49533994 21.12890333 -90.86914737 18.65181102 -91 14 C-89.5625 11.625 -89.5625 11.625 -88 10 C-81.15550444 10.14562757 -76.83393195 13.25375843 -72 18 C-72 18.66 -72 19.32 -72 20 C-71.34 20.2475 -70.68 20.495 -70 20.75 C-67.63795379 21.73418592 -65.49636892 22.79594626 -63.25 24 C-53.27982558 28.93901432 -40.6814529 29.76530284 -29.85546875 27.27734375 C-19.75897372 23.53846178 -14.29034966 14.96256608 -9.8125 5.5625 C-7.40536232 0.83122938 -5.25945892 -0.76967692 0 0 Z " fill="#000000" transform="translate(248,256)"/>
<path d="M0 0 C4.14082408 2.29748949 7.05844237 5.70813576 9 10 C10.72861465 16.78148824 9.68285884 23.47401005 6.6875 29.75 C0.8 37.6 0.8 37.6 -2 39 C-6.15029343 39.34656218 -9.6580486 39.00838796 -13.04296875 36.46484375 C-18.27957 30.84861682 -20.49627546 25.02979634 -21.4375 17.5 C-20.54299112 10.34392893 -17.6217085 4.6126839 -12 0 C-7.80208312 -1.39930563 -4.27322022 -1.06647889 0 0 Z " fill="#000000" transform="translate(247,187)"/>
<path d="M0 0 C2.9375 1.5625 2.9375 1.5625 6 4 C6.67546875 4.53238281 7.3509375 5.06476563 8.046875 5.61328125 C12.11270834 8.95943242 15.44501011 11.81670037 17 17 C17.17687796 21.52646788 16.6158158 24.95083234 14.3125 28.875 C11.08197995 31.84358599 8.38207263 33.8913288 3.859375 34.09765625 C-2.88948557 33.62707243 -7.59491055 31.53509428 -12.3125 26.5625 C-15.2178339 20.42901733 -16.82757993 13.38664992 -15.1953125 6.70703125 C-13.71758591 3.36041515 -12.25356943 2.54544548 -9 1 C-5.89046621 -0.5547669 -3.43733239 -0.28644437 0 0 Z " fill="#000000" transform="translate(167,188)"/>
</svg>
