<?xml version="1.0" encoding="UTF-8"?>
<svg version="1.1" xmlns="http://www.w3.org/2000/svg" width="500" height="500">
<path d="M0 0 C2.94935754 1.94532093 4.5000141 3.42671104 5.5859375 6.84375 C6.45260586 14.8529611 1.07356728 21.54692961 -3 28 C-3.64710938 29.06476563 -4.29421875 30.12953125 -4.9609375 31.2265625 C-6.25885085 33.36149752 -7.56918355 35.48892244 -8.890625 37.609375 C-10.3562513 39.96523358 -11.80349554 42.32653519 -13.234375 44.703125 C-22.31225304 59.66645314 -32.9012575 73.53510846 -43.79296875 87.21484375 C-45.5662081 89.45257765 -47.29318224 91.71190356 -49 94 C-37.99086681 93.27203363 -27.12097164 91.70513883 -16.20507812 90.15673828 C2.00905211 87.58268135 19.75023026 86.83871006 38.14575195 86.86962891 C41.89734016 86.87494311 45.64880628 86.86968369 49.40039062 86.86328125 C64.29235263 86.85960086 79.12955277 87.19063229 94 88 C94.64775391 86.77796875 94.64775391 86.77796875 95.30859375 85.53125 C95.86675781 84.6959375 96.42492187 83.860625 97 83 C100.0625 82.5 100.0625 82.5 103 83 C105 86 105 86 105 90 C105.928125 89.9175 106.85625 89.835 107.8125 89.75 C111 90 111 90 112.9375 91.625 C114.38619223 94.86325321 114.09003153 96.65723665 113 100 C110.45285085 101.86790938 109.19131 102 106 102 C105.84836418 105.14563673 105.70308382 108.29135759 105.5625 111.4375 C105.51593262 112.46125732 105.46936523 113.48501465 105.42138672 114.53979492 C105.11009634 121.89943803 104.93092013 129.25222838 104.81640625 136.6171875 C104.78399356 138.47990294 104.75135908 140.34261454 104.71850586 142.20532227 C104.66918914 145.00905563 104.62500106 147.812395 104.59671021 150.61642456 C104.5696122 153.27199992 104.5246908 155.9267657 104.4765625 158.58203125 C104.47334488 159.38732269 104.47012726 160.19261414 104.46681213 161.02230835 C104.34446056 166.5048611 104.34446056 166.5048611 102.63818359 168.95751953 C85.49338256 179.86784746 55.87677739 177.01662888 36.29095078 177.41499138 C33.79055828 177.46641987 31.29032252 177.52290349 28.79006958 177.58070374 C21.69434571 177.74426752 14.59852199 177.90223652 7.50244141 178.04956055 C3.12659792 178.14076294 -1.24899418 178.24028098 -5.62453842 178.34482002 C-7.27080408 178.3825748 -8.91714243 178.41730594 -10.56354141 178.4487133 C-20.54089046 178.64002263 -30.1426938 179.3135355 -40 181 C-39.67 182.32 -39.34 183.64 -39 185 C-38.34 185 -37.68 185 -37 185 C-35.84375 186.4765625 -35.84375 186.4765625 -34.5 188.625 C-32.03106581 192.47276618 -29.41618051 196.1448187 -26.6875 199.8125 C3.1847835 240.85590809 3.1847835 240.85590809 5 256 C3.90035316 260.50855204 1.85249886 262.51085194 -2 265 C-4.83967611 265.42890941 -7.17217852 265.62174296 -10 265.5625 C-11.13864502 265.54280151 -11.13864502 265.54280151 -12.30029297 265.52270508 C-18.79031435 265.26214679 -24.11701494 263.78459988 -29.9921875 260.95898438 C-32.39375604 259.8119317 -34.82144196 258.72934826 -37.25 257.640625 C-47.44902532 252.99090445 -57.07899697 247.93778209 -66.43505859 241.76782227 C-73.47382213 237.18316171 -80.82043647 233.27397573 -88.25 229.375 C-97.58961869 224.46194736 -106.51401363 219.30586989 -115.15820312 213.25097656 C-118.01064847 211.31355213 -120.94555978 209.51358025 -123.8762207 207.69750977 C-134.26812164 201.25659311 -144.20850811 194.31762799 -154 187 C-154.91652344 186.31526611 -154.91652344 186.31526611 -155.8515625 185.61669922 C-161.7535322 181.18525952 -167.52736445 176.61077337 -173.1875 171.875 C-174.16589844 171.05644531 -175.14429688 170.23789062 -176.15234375 169.39453125 C-178.00489232 167.83676407 -179.85159235 166.27200596 -181.69140625 164.69921875 C-186.69293984 160.52236551 -190.83705229 158.0543159 -197 156 C-199.48668943 153.94043605 -199.9965064 153.01113583 -201 149.8125 C-201 144.48714746 -199.48386482 141.95578276 -196 138 C-188.86022094 131.30268612 -181.03889602 125.36693942 -173.23828125 119.46484375 C-171.08837435 117.83773019 -168.96334596 116.18508767 -166.85546875 114.50390625 C-160.53235964 109.48828418 -154.04920761 105.08006409 -147.15307617 100.88842773 C-141.5215796 97.42438925 -136.27846272 93.56886688 -131.02929688 89.5559082 C-126.16652965 85.84702812 -121.22222187 82.28446528 -116.1875 78.8125 C-115.51138672 78.34271729 -114.83527344 77.87293457 -114.13867188 77.38891602 C-111.4466591 75.54521791 -109.11181983 74.03727328 -106 73 C-106 72.34 -106 71.68 -106 71 C-104.19140625 69.546875 -104.19140625 69.546875 -101.5625 67.75 C-96.41413409 64.10379227 -91.53624042 60.22238564 -86.6875 56.1875 C-79.76628775 50.43910191 -72.77253205 44.80614022 -65.66308594 39.29248047 C-63.99206218 37.99383106 -62.3277548 36.68692944 -60.6640625 35.37890625 C-53.66326207 29.89979392 -46.47088573 24.82357313 -39 20 C-37.85264841 19.25033074 -36.7055201 18.50031967 -35.55859375 17.75 C-14.45455025 4 -14.45455025 4 -11 4 C-11 3.34 -11 2.68 -11 2 C-7.33755697 -0.34396354 -4.27605847 -0.52512999 0 0 Z " fill="#FFFFFF" transform="translate(311,114)"/>
<path d="M0 0 C2.94935754 1.94532093 4.5000141 3.42671104 5.5859375 6.84375 C6.45260586 14.8529611 1.07356728 21.54692961 -3 28 C-3.64710938 29.06476563 -4.29421875 30.12953125 -4.9609375 31.2265625 C-6.25885085 33.36149752 -7.56918355 35.48892244 -8.890625 37.609375 C-10.3562513 39.96523358 -11.80349554 42.32653519 -13.234375 44.703125 C-22.31225304 59.66645314 -32.9012575 73.53510846 -43.79296875 87.21484375 C-45.5662081 89.45257765 -47.29318224 91.71190356 -49 94 C-37.99086681 93.27203363 -27.12097164 91.70513883 -16.20507812 90.15673828 C2.00905211 87.58268135 19.75023026 86.83871006 38.14575195 86.86962891 C41.89734016 86.87494311 45.64880628 86.86968369 49.40039062 86.86328125 C64.29235263 86.85960086 79.12955277 87.19063229 94 88 C94.64775391 86.77796875 94.64775391 86.77796875 95.30859375 85.53125 C95.86675781 84.6959375 96.42492187 83.860625 97 83 C100.0625 82.5 100.0625 82.5 103 83 C105 86 105 86 105 90 C105.928125 89.9175 106.85625 89.835 107.8125 89.75 C111 90 111 90 112.9375 91.625 C114.38619223 94.86325321 114.09003153 96.65723665 113 100 C110.45285085 101.86790938 109.19131 102 106 102 C105.84836418 105.14563673 105.70308382 108.29135759 105.5625 111.4375 C105.51593262 112.46125732 105.46936523 113.48501465 105.42138672 114.53979492 C105.11009634 121.89943803 104.93092013 129.25222838 104.81640625 136.6171875 C104.78399356 138.47990294 104.75135908 140.34261454 104.71850586 142.20532227 C104.66918914 145.00905563 104.62500106 147.812395 104.59671021 150.61642456 C104.5696122 153.27199992 104.5246908 155.9267657 104.4765625 158.58203125 C104.47334488 159.38732269 104.47012726 160.19261414 104.46681213 161.02230835 C104.34446056 166.5048611 104.34446056 166.5048611 102.63818359 168.95751953 C85.49338256 179.86784746 55.87677739 177.01662888 36.29095078 177.41499138 C33.79055828 177.46641987 31.29032252 177.52290349 28.79006958 177.58070374 C21.69434571 177.74426752 14.59852199 177.90223652 7.50244141 178.04956055 C3.12659792 178.14076294 -1.24899418 178.24028098 -5.62453842 178.34482002 C-7.27080408 178.3825748 -8.91714243 178.41730594 -10.56354141 178.4487133 C-20.54089046 178.64002263 -30.1426938 179.3135355 -40 181 C-39.67 182.32 -39.34 183.64 -39 185 C-38.34 185 -37.68 185 -37 185 C-35.84375 186.4765625 -35.84375 186.4765625 -34.5 188.625 C-32.03106581 192.47276618 -29.41618051 196.1448187 -26.6875 199.8125 C3.1847835 240.85590809 3.1847835 240.85590809 5 256 C3.90035316 260.50855204 1.85249886 262.51085194 -2 265 C-4.83967611 265.42890941 -7.17217852 265.62174296 -10 265.5625 C-11.13864502 265.54280151 -11.13864502 265.54280151 -12.30029297 265.52270508 C-18.79031435 265.26214679 -24.11701494 263.78459988 -29.9921875 260.95898438 C-32.39375604 259.8119317 -34.82144196 258.72934826 -37.25 257.640625 C-47.44902532 252.99090445 -57.07899697 247.93778209 -66.43505859 241.76782227 C-73.47382213 237.18316171 -80.82043647 233.27397573 -88.25 229.375 C-97.58961869 224.46194736 -106.51401363 219.30586989 -115.15820312 213.25097656 C-118.01064847 211.31355213 -120.94555978 209.51358025 -123.8762207 207.69750977 C-134.26812164 201.25659311 -144.20850811 194.31762799 -154 187 C-154.91652344 186.31526611 -154.91652344 186.31526611 -155.8515625 185.61669922 C-161.7535322 181.18525952 -167.52736445 176.61077337 -173.1875 171.875 C-174.16589844 171.05644531 -175.14429688 170.23789062 -176.15234375 169.39453125 C-178.00489232 167.83676407 -179.85159235 166.27200596 -181.69140625 164.69921875 C-186.69293984 160.52236551 -190.83705229 158.0543159 -197 156 C-199.48668943 153.94043605 -199.9965064 153.01113583 -201 149.8125 C-201 144.48714746 -199.48386482 141.95578276 -196 138 C-188.86022094 131.30268612 -181.03889602 125.36693942 -173.23828125 119.46484375 C-171.08837435 117.83773019 -168.96334596 116.18508767 -166.85546875 114.50390625 C-160.53235964 109.48828418 -154.04920761 105.08006409 -147.15307617 100.88842773 C-141.5215796 97.42438925 -136.27846272 93.56886688 -131.02929688 89.5559082 C-126.16652965 85.84702812 -121.22222187 82.28446528 -116.1875 78.8125 C-115.51138672 78.34271729 -114.83527344 77.87293457 -114.13867188 77.38891602 C-111.4466591 75.54521791 -109.11181983 74.03727328 -106 73 C-106 72.34 -106 71.68 -106 71 C-104.19140625 69.546875 -104.19140625 69.546875 -101.5625 67.75 C-96.41413409 64.10379227 -91.53624042 60.22238564 -86.6875 56.1875 C-79.76628775 50.43910191 -72.77253205 44.80614022 -65.66308594 39.29248047 C-63.99206218 37.99383106 -62.3277548 36.68692944 -60.6640625 35.37890625 C-53.66326207 29.89979392 -46.47088573 24.82357313 -39 20 C-37.85264841 19.25033074 -36.7055201 18.50031967 -35.55859375 17.75 C-14.45455025 4 -14.45455025 4 -11 4 C-11 3.34 -11 2.68 -11 2 C-7.33755697 -0.34396354 -4.27605847 -0.52512999 0 0 Z M-30 35 C-42.10039177 43.46577054 -42.10039177 43.46577054 -54.0625 52.125 C-55.02285156 52.82882813 -55.98320312 53.53265625 -56.97265625 54.2578125 C-57.97619141 55.12019531 -57.97619141 55.12019531 -59 56 C-59 56.66 -59 57.32 -59 58 C-59.79664063 58.34611328 -59.79664063 58.34611328 -60.609375 58.69921875 C-63.75461907 60.41060155 -66.46301891 62.58440654 -69.25 64.8125 C-70.15939331 65.53240112 -70.15939331 65.53240112 -71.0871582 66.2668457 C-75.13325836 69.48012229 -79.13978837 72.74047989 -83.13867188 76.01220703 C-93.94756279 84.85045887 -105.22175265 92.87737712 -116.67041016 100.86254883 C-121.02545594 103.90274821 -125.3551495 106.96557501 -129.625 110.125 C-133.47085396 112.9581526 -137.41305875 115.6009726 -141.40820312 118.21582031 C-150.16176113 123.95053242 -158.36343129 130.09173106 -166.43896484 136.74023438 C-168.5508921 138.44457354 -170.73709579 140.0373178 -172.9375 141.625 C-174.4534375 142.800625 -174.4534375 142.800625 -176 144 C-176 144.66 -176 145.32 -176 146 C-174.09072455 147.43575086 -172.18329687 148.75693478 -170.1875 150.0625 C-164.81322651 153.67535243 -159.78310445 157.53491296 -154.8046875 161.68359375 C-141.22736026 172.89718018 -126.74319284 182.62088893 -111.83203125 191.953125 C-108.03067108 194.33740111 -104.27311865 196.78062353 -100.52685547 199.25024414 C-93.47136361 203.89262258 -86.29425558 208.12708541 -78.87524414 212.16064453 C-73.2449296 215.24606418 -67.79074843 218.55286708 -62.375 222 C-61.58488525 222.50273437 -60.79477051 223.00546875 -59.98071289 223.5234375 C-56.91493603 225.4810832 -53.85414177 227.4460698 -50.80224609 229.42529297 C-42.43375307 234.84920986 -34.43162269 239.60604486 -25 243 C-26.69668079 238.13168295 -29.31165122 233.92985528 -32 229.5625 C-32.73585327 228.36379272 -32.73585327 228.36379272 -33.48657227 227.14086914 C-37.60909052 220.49641775 -42.04382295 214.14646284 -46.66699219 207.84521484 C-48.13164278 205.8177736 -49.55648089 203.76592128 -50.9765625 201.70703125 C-56.07775697 194.32695822 -61.15778164 187.29551946 -67.35546875 180.78515625 C-69 179 -69 179 -70 177 C-70.66 177 -71.32 177 -72 177 C-73.88178944 171.0410001 -74.19671115 167.85789639 -72 162 C-65.03389831 159.6779661 -65.03389831 159.6779661 -60.1875 161.1875 C-57 163 -57 163 -55.5625 164.59375 C-52.98749168 166.91125749 -50.54154114 166.33999498 -47.21662903 166.21459961 C-43.69770664 165.97983229 -40.25651917 165.50802207 -36.7644043 165.015625 C-28.63531163 163.94522549 -20.570722 163.6201554 -12.37903786 163.47927856 C-9.87020468 163.43600228 -7.36177151 163.38208302 -4.85319519 163.32592773 C0.49353358 163.20812497 5.84047717 163.10344466 11.1875 163 C18.20202355 162.86300448 25.21637379 162.72003579 32.23046875 162.5625 C33.08131924 162.54339569 33.93216972 162.52429138 34.80880356 162.50460815 C64.81501989 164.10516579 64.81501989 164.10516579 91 158 C91.06355213 156.58212345 91.05909417 155.16113242 91.02734375 153.7421875 C90.8207416 141.64797872 91.16333187 129.69159341 92.00390625 117.6328125 C92.10037065 116.20258193 92.19644184 114.77232478 92.29211426 113.34204102 C92.5235673 109.89437731 92.76025811 106.44709846 93 103 C82.85116342 103.14855617 72.7030403 103.32192596 62.55510616 103.523242 C57.83802709 103.61611969 53.12109516 103.70182369 48.40356445 103.76831055 C22.97202891 104.13365544 -1.81144796 105.92782864 -26.96885872 109.6974144 C-30.26040755 110.18776694 -33.55470929 110.65792376 -36.84912109 111.12866211 C-37.94251801 111.28572128 -39.03591492 111.44278046 -40.16244507 111.604599 C-62.43725412 114.70849725 -62.43725412 114.70849725 -71.1875 108.875 C-73.75549638 104.80162643 -73.68158072 102.77106503 -73 98 C-71.375 95.5 -71.375 95.5 -69 94 C-65.44384783 93.62956748 -62.40980136 93.95083035 -59 95 C-59.350625 94.46375 -59.70125 93.9275 -60.0625 93.375 C-61.35178186 90.10881929 -60.84974814 88.41495027 -60 85 C-58.72669051 82.25946484 -57.19746946 79.70316003 -55.625 77.125 C-55.18091797 76.3839502 -54.73683594 75.64290039 -54.27929688 74.87939453 C-49.9357898 67.7217201 -45.1954893 60.86002831 -40.39208984 54.00683594 C-37.98471261 50.53636227 -35.64872505 47.01860332 -33.3125 43.5 C-32.87808594 42.84628418 -32.44367188 42.19256836 -31.99609375 41.51904297 C-30.99639044 40.01336237 -29.99803143 38.50678932 -29 37 C-29.33 36.34 -29.66 35.68 -30 35 Z " fill="#000000" transform="translate(311,114)"/>
</svg>
