<?xml version="1.0" encoding="UTF-8"?>
<svg version="1.1" xmlns="http://www.w3.org/2000/svg" width="500" height="500">
<path d="M0 0 C0.99 0.495 0.99 0.495 2 1 C2 1.66 2 2.32 2 3 C3.28003906 3.02126953 3.28003906 3.02126953 4.5859375 3.04296875 C13.67062208 3.38949796 22.38549435 4.64750033 31.3125 6.375 C32.39644043 6.58406982 33.48038086 6.79313965 34.59716797 7.00854492 C41.48708523 8.38474315 48.24830331 10.05748918 55 12 C55.13277344 11.21238281 55.26554688 10.42476562 55.40234375 9.61328125 C56 7 56 7 57.5625 5.1875 C61.0826745 3.47254319 64.15861445 3.32164444 68 4 C70.4375 5.4375 70.4375 5.4375 72 8 C72.60320189 10.99538717 72.86965361 13.94989437 73 17 C74.5778125 17.2165625 74.5778125 17.2165625 76.1875 17.4375 C79.15460549 17.87526966 82.06794366 18.37804866 85 19 C85.20625 18.360625 85.4125 17.72125 85.625 17.0625 C87 15 87 15 89.8125 14.0625 C93.62640174 13.98771761 95.08503371 14.57086143 98 17 C99.8029458 20.34832791 100 22.11481261 100 26 C100.55945313 26.14695312 101.11890625 26.29390625 101.6953125 26.4453125 C107.04895305 27.94295471 111.95137105 29.8509901 117 32.1875 C122.28588858 34.53358141 126.25693978 35.59593885 132.01171875 35.015625 C134 35 134 35 137 37 C137.33 37.99 137.66 38.98 138 40 C140.50306162 41.54651404 143.10818399 42.46954854 146 43 C148.05990478 41.70532323 148.05990478 41.70532323 150 40 C152.7704899 39.42858646 155.23323245 39.40346901 158 40 C160.4375 42.0625 160.4375 42.0625 162 45 C162.11021484 46.670625 162.11021484 46.670625 162.22265625 48.375 C163.05963326 52.27808876 164.04116723 53.52130585 167.25439453 55.81591797 C167.83044434 56.18604004 168.40649414 56.55616211 169 56.9375 C169.87760986 57.52748779 169.87760986 57.52748779 170.77294922 58.12939453 C175.87238727 61.34781213 179.15649043 61.56550093 185 61 C187.10494744 62.50539678 187.87404782 63.48516812 188.4909668 66.00683594 C188.62498901 67.10946777 188.62498901 67.10946777 188.76171875 68.234375 C189.85321926 73.787426 192.72019423 76.53964277 196.8125 80.25 C197.73772461 81.12785156 197.73772461 81.12785156 198.68164062 82.0234375 C199.89179367 83.17057514 201.10774254 84.31163421 202.32983398 85.44604492 C206.80480032 89.60964099 210.86432093 94.03297113 214.8125 98.6875 C215.31458984 99.26822266 215.81667969 99.84894531 216.33398438 100.44726562 C220 104.76169218 220 104.76169218 220 107 C220.66 107 221.32 107 222 107 C223.875 109.046875 223.875 109.046875 226 111.75 C226.70125 112.63171875 227.4025 113.5134375 228.125 114.421875 C229.69307683 116.57798064 230.91326484 118.57748621 232 121 C232.66 121 233.32 121 234 121 C234.33 122.32 234.66 123.64 235 125 C235.66 125 236.32 125 237 125 C240 129.38461538 240 129.38461538 240 132 C240.66 132 241.32 132 242 132 C245 137.625 245 137.625 245 141 C245.66 141 246.32 141 247 141 C247.96380382 143.18522816 248.92109439 145.37295386 249.875 147.5625 C250.14441406 148.17158203 250.41382813 148.78066406 250.69140625 149.40820312 C254.83066029 158.94867891 256.18084967 167.02377082 253.23828125 177.1484375 C250.01300269 184.57573513 243.50026545 190.94740577 236 194 C234.98035156 194.41894531 233.96070313 194.83789062 232.91015625 195.26953125 C218.11838395 200.94107267 203.84088387 201.27273918 188.1875 201.125 C186.31966629 201.1149448 184.4518273 201.10582347 182.58398438 201.09765625 C178.05585691 201.0758562 173.5279883 201.04146802 169 201 C169.0196582 202.30759277 169.03931641 203.61518555 169.05957031 204.96240234 C169.05709475 209.57449354 168.64875859 214.03376761 168.046875 218.6015625 C167.89653809 219.78890991 167.89653809 219.78890991 167.74316406 221.00024414 C167.41866615 223.54272513 167.08499626 226.08388259 166.75 228.625 C166.63773071 229.49050476 166.52546143 230.35600952 166.40979004 231.2477417 C164.41758566 246.58771543 162.09410621 261.83887959 159 277 C182.94005758 281.53148893 182.94005758 281.53148893 205.25 274.40625 C211.46738472 269.41013727 214.36024958 263.32844755 215.296875 255.52734375 C215.42582691 254.00223946 215.52798086 252.47444497 215.59375 250.9453125 C216.11613252 248.4439039 216.98935711 247.54006689 219 246 C222.25996064 245.58383481 224.34303035 245.7233812 227.375 247 C229.84601751 250.04125232 229.27688472 253.26779053 229 257 C227.22785346 269.21328532 222.48391123 278.15212736 213 286 C197.49421473 296.63387691 176.59897783 293.5286843 159 291 C157.66216796 290.68520751 156.32711192 290.35729936 155 290 C152.040968 296.954407 149.22338913 303.9507059 146.5 311 C145.60529726 313.30415283 144.70939564 315.60783273 143.8125 317.91113281 C143.10145028 319.73918011 142.39416136 321.56868933 141.6875 323.3984375 C136.90644038 335.3825409 130.38119798 345.23503951 122 355 C121.0191597 356.22783157 120.03963296 357.45671601 119.0625 358.6875 C118.381875 359.450625 117.70125 360.21375 117 361 C116.34 361 115.68 361 115 361 C115 361.66 115 362.32 115 363 C101.57807198 374.47155411 87.63338655 381.49188132 69.75390625 380.47265625 C51.98535127 378.92465156 35.18185697 368.78493571 22 357 C22 356.34 22 355.68 22 355 C21.34 355 20.68 355 20 355 C18.4339263 352.69532793 16.98566751 350.39144882 15.5625 348 C12.46021988 342.86972353 9.25858178 337.90530263 5.72045898 333.06494141 C-2.63544087 321.55185311 -7.38367799 308.70758247 -11 295 C-15.72604231 295 -18.58220055 296.64907382 -22.625 298.8125 C-38.26039697 306.89326015 -56.06548006 309.55877247 -73.53125 306.3515625 C-83.41499447 303.10325322 -90.41289951 295.54675373 -96 287 C-99.49108309 279.78509494 -98.86767904 271.73870624 -96.4375 264.25 C-93.38083502 256.81747778 -88.6483368 250.94231993 -81.1796875 247.6875 C-75.99527113 246.0522719 -71.10235583 245.12401841 -66 247.25 C-64 249 -64 249 -62 252 C-61.7801011 255.63566174 -62.15024906 258.97321761 -64.5 261.8125 C-67.54443555 263.25860689 -70.63852867 264.23823409 -73.87890625 265.15625 C-76.99981681 266.39771718 -78.44701169 267.99100268 -80.046875 270.91015625 C-80.89370092 273.50238449 -81.25499516 275.26611749 -81 278 C-77.63387886 283.40736165 -73.31717508 288.36669481 -67 290 C-55.76270469 291.04390175 -44.17453369 291.28377072 -34 286 C-32.62224568 285.32706352 -31.24322532 284.65671587 -29.86328125 283.98828125 C-25.8821884 282.04208629 -21.93803628 280.03178495 -18 278 C-17.34 277.67 -16.68 277.34 -16 277 C-16.12117188 276.35377686 -16.24234375 275.70755371 -16.3671875 275.04174805 C-20.70502171 251.29419122 -20.32007717 228.42772862 -19.21484375 204.41015625 C-19.03358797 200.28641103 -18.98499943 196.19069693 -19.0625 192.0625 C-19.16309426 173.1759278 -14.53112148 154.93619383 -9 137 C-9.76046631 136.87109375 -10.52093262 136.7421875 -11.30444336 136.609375 C-14.87248988 135.80275929 -17.56149688 134.00066875 -20.5625 132 C-21.47950684 131.39768555 -21.47950684 131.39768555 -22.41503906 130.78320312 C-32.24841243 124.25478021 -41.44906847 117.14197394 -50 109 C-50.53915039 108.48808105 -51.07830078 107.97616211 -51.63378906 107.44873047 C-75.09164813 85.03213316 -75.09164813 85.03213316 -78 73 C-77.9375 69.0625 -77.9375 69.0625 -77 66 C-73.24952518 63.49968346 -71.44143734 63.46396446 -67 64 C-64.0625 66.5 -64.0625 66.5 -62 69 C-62.82850382 65.25776927 -64.15257911 61.73192926 -65.4375 58.125 C-70.0199071 44.68272599 -73.12488439 27.66635838 -68 14 C-65.26362479 9.48756239 -61.96502307 6.77322253 -57 5 C-53.58413647 4.3819306 -50.17331275 3.87317249 -46.73046875 3.4296875 C-44.0929121 3.28910795 -44.0929121 3.28910795 -43 2 C-41.1875 1.8671875 -41.1875 1.8671875 -39 1.875 C-38.278125 1.87242188 -37.55625 1.86984375 -36.8125 1.8671875 C-35 2 -35 2 -34 3 C-32.14630389 3.08737645 -30.28932459 3.10698153 -28.43359375 3.09765625 C-27.30888672 3.09443359 -26.18417969 3.09121094 -25.02539062 3.08789062 C-23.84138672 3.07951172 -22.65738281 3.07113281 -21.4375 3.0625 C-20.24962891 3.05798828 -19.06175781 3.05347656 -17.83789062 3.04882812 C-14.89187774 3.03699675 -11.94596319 3.02051287 -9 3 C-9 2.34 -9 1.68 -9 1 C-6.01405576 -0.49297212 -3.29146376 -0.11755228 0 0 Z M-60 71 C-59 73 -59 73 -59 73 Z " fill="#000000" transform="translate(191,52)"/>
<path d="M0 0 C9.1671254 3.72989056 17.91183526 7.93756677 26.5625 12.75 C48.08237426 24.60592522 69.54784327 33.28130084 92.9140625 40.69433594 C96.37211812 41.79359202 99.81369222 42.93583643 103.25 44.1015625 C117.26411224 48.8113155 131.52964577 52.01202614 146 55 C145.4727367 66.85487764 143.77605584 78.50712172 142.04370117 90.234375 C141.55959303 93.51972787 141.08695627 96.80659836 140.61523438 100.09375 C140.3079738 102.19801638 140.00005477 104.30218675 139.69140625 106.40625 C139.55174942 107.38130493 139.41209259 108.35635986 139.26820374 109.36096191 C138.5600627 114.10043064 137.72194713 118.49839867 136 123 C135.360625 122.278125 134.72125 121.55625 134.0625 120.8125 C129.43600532 116.25116722 124.3721993 112.91852491 117.7734375 112.6953125 C112.81978907 112.82569858 108.5244775 114.05659408 103.875 115.6875 C103.11574219 115.93177734 102.35648437 116.17605469 101.57421875 116.42773438 C96.330275 118.21031422 92.27679695 120.45845292 88 124 C87.33022506 126.67319705 87.33022506 126.67319705 88 129 C88.33 129.33 88.66 129.66 89 130 C94.10505329 129.70547769 98.51312146 128.58039787 103.375 127 C114.72018999 123.43324073 114.72018999 123.43324073 120 124 C122.6875 126 122.6875 126 125 129 C126.25617388 130.2853256 127.52766779 131.55582148 128.8125 132.8125 C129.875 133.875 130.9375 134.9375 132 136 C130.20313374 143.58151466 127.63996577 150.69711468 124.671875 157.890625 C123.48245349 160.7784167 122.3566145 163.68298481 121.265625 166.609375 C112.99805995 188.72734877 100.11627751 207.01925017 78.25 217.375 C69.40981025 220.99854068 61.47965704 219.92802748 52.625 216.8125 C51.40748982 216.22704654 50.20070555 215.61918737 49 215 C47.54980469 214.29037109 47.54980469 214.29037109 46.0703125 213.56640625 C34.24014752 207.53998103 25.64046987 201.21458299 19.0859375 189.5234375 C17.69353946 187.06602476 16.17707008 184.87007564 14.4140625 182.6640625 C7.56786603 173.94302424 3.7109219 164.75325348 0.25 154.3125 C0.02532043 153.64348663 -0.19935913 152.97447327 -0.43084717 152.28518677 C-4.54573632 139.88671126 -4.54573632 139.88671126 -3 135 C2.82732064 127.07600071 13.43129501 118.4366548 23.21484375 116.296875 C31.86187305 115.98527034 38.74357398 119.24942556 46.1875 123.25 C49.97948652 125.22708462 52.76789096 125.35267575 57 125 C57.39614643 120.84046245 57.06686651 117.98498868 54.51171875 114.578125 C46.30029124 106.00598879 36.64532478 103.02364955 25.0625 102.4375 C13.44397539 102.74158352 5.14287675 109.27773014 -3.50390625 116.33984375 C-4.32761719 116.88769531 -5.15132812 117.43554688 -6 118 C-6.99 117.67 -7.98 117.34 -9 117 C-10.68873722 101.45777889 -11.93970075 86.58697441 -9.70751953 71.02319336 C-9.09564843 66.54169454 -8.98011905 62.28477378 -9.125 57.75 C-9.27658479 48.76191335 -7.88886006 40.06471538 -6.51025391 31.19824219 C-5.4982512 24.67767253 -4.70446667 18.24614071 -4.34765625 11.65429688 C-3.78871275 7.38685746 -2.0378178 3.75337603 0 0 Z " fill="#FFFFFF" transform="translate(199,196)"/>
<path d="M0 0 C1.6256807 0.30893932 3.25052748 0.6222695 4.875 0.9375 C5.77992188 1.11152344 6.68484375 1.28554687 7.6171875 1.46484375 C10 2 10 2 12 3 C11.60366295 14.22043864 10.73871258 25.33965458 9.5 36.5 C9.36940186 37.68698486 9.23880371 38.87396973 9.10424805 40.09692383 C8.13145388 48.60563836 8.13145388 48.60563836 7 52 C3.535 52.495 3.535 52.495 0 53 C-1.21430225 50.5713955 -1.12688439 49.02001176 -1.12939453 46.30664062 C-1.13254669 45.33223022 -1.13569885 44.35781982 -1.13894653 43.35388184 C-1.1369223 42.29866333 -1.13489807 41.24344482 -1.1328125 40.15625 C-1.13376923 39.07621704 -1.13472595 37.99618408 -1.13571167 36.88342285 C-1.13639304 34.59692324 -1.13454178 32.31042169 -1.13037109 30.02392578 C-1.12502226 26.51460444 -1.13031758 23.00541109 -1.13671875 19.49609375 C-1.13605796 17.27864555 -1.13477678 15.06119743 -1.1328125 12.84375 C-1.13584885 11.26092224 -1.13584885 11.26092224 -1.13894653 9.64611816 C-1.13579437 8.67170776 -1.13264221 7.69729736 -1.12939453 6.69335938 C-1.12859894 5.83335327 -1.12780334 4.97334717 -1.12698364 4.08728027 C-1 2 -1 2 0 0 Z " fill="#FFFFFF" transform="translate(230,75)"/>
<path d="M0 0 C1.58468677 0.45363171 3.16769924 0.91311452 4.75 1.375 C5.63171875 1.63023438 6.5134375 1.88546875 7.421875 2.1484375 C9.76080572 2.9209934 11.83442562 3.83625676 14 5 C13.4934702 9.98087641 12.85406516 14.87931766 12 19.8125 C10.56406306 28.81389576 10.34459007 37.90463584 10 47 C7.03 46.01 4.06 45.02 1 44 C-0.0151052 38.97716113 -0.13052591 34.19786627 -0.09765625 29.1015625 C-0.0962413 28.26660248 -0.09482635 27.43164246 -0.09336853 26.57138062 C-0.08780174 23.92254958 -0.07525547 21.2738052 -0.0625 18.625 C-0.0574807 16.82161581 -0.05291855 15.01823029 -0.04882812 13.21484375 C-0.0378432 8.80986279 -0.02060163 4.40494606 0 0 Z " fill="#FFFFFF" transform="translate(291,93)"/>
<path d="M0 0 C1.60463449 0.31008884 3.20869231 0.62316287 4.8125 0.9375 C5.70582031 1.11152344 6.59914063 1.28554687 7.51953125 1.46484375 C10 2 10 2 13 3 C12.37892265 8.31760515 11.5590983 13.55200687 10.5625 18.8125 C8.84375673 28.15533098 7.88202576 37.54675916 7 47 C4.03 46.34 1.06 45.68 -2 45 C-2.1179396 35.23722177 -1.97102251 25.50570348 -1.5625 15.75 C-1.50364624 14.26874634 -1.50364624 14.26874634 -1.44360352 12.75756836 C-1.40162842 11.82178955 -1.35965332 10.88601074 -1.31640625 9.921875 C-1.27974854 9.09268555 -1.24309082 8.26349609 -1.20532227 7.40917969 C-0.98994656 4.88203644 -0.54231802 2.47585962 0 0 Z " fill="#FFFFFF" transform="translate(262,83)"/>
<path d="M0 0 C9.93317485 9.65915623 22.88925619 26.31083054 23.3125 40.8125 C23.29052424 45.81564703 22.18915767 48.21287527 19 52 C8.74786853 36.6218028 4.06033907 17.8301846 0 0 Z " fill="#FFFFFF" transform="translate(408,177)"/>
<path d="M0 0 C0.01458252 0.57516357 0.02916504 1.15032715 0.04418945 1.74291992 C0.52193062 18.94328997 2.05595366 35.91141201 4 53 C-5.38092661 40.84551124 -8.9810508 25.34128468 -9.375 10.25 C-9.42398438 8.95578125 -9.47296875 7.6615625 -9.5234375 6.328125 C-9 3 -9 3 -6.7265625 1.046875 C-4 0 -4 0 0 0 Z " fill="#FFFFFF" transform="translate(145,70)"/>
<path d="M0 0 C3.3 0 6.6 0 10 0 C9.88406494 0.74983154 9.76812988 1.49966309 9.64868164 2.2722168 C9.11494657 5.74322851 8.58869556 9.21533763 8.0625 12.6875 C7.88009766 13.86634766 7.69769531 15.04519531 7.50976562 16.25976562 C5.38879797 30.33527825 4.86024127 44.11292937 4.9375 58.3125 C4.94252997 59.93945173 4.9470902 61.56640499 4.95117188 63.19335938 C4.96204755 67.12894475 4.97922774 71.06445493 5 75 C4.67 75 4.34 75 4 75 C1.14249535 49.90943725 -0.64899286 25.25830282 0 0 Z " fill="#FFFFFF" transform="translate(196,70)"/>
<path d="M0 0 C1.98 0.66 3.96 1.32 6 2 C5.98952637 2.68811768 5.97905273 3.37623535 5.96826172 4.08520508 C5.79587108 17.19889568 5.88655928 30.05655086 7.5625 43.07421875 C7.97692586 46.79295079 8.07823188 50.26931717 8 54 C2.21014626 50.55072543 2.21014626 50.55072543 1.34350586 48.27954102 C-0.33222777 37.15919638 -0.13290786 25.77860552 -0.0625 14.5625 C-0.05746421 13.1373714 -0.05290506 11.71224104 -0.04882812 10.28710938 C-0.03801182 6.85803507 -0.02086761 3.42902968 0 0 Z " fill="#FFFFFF" transform="translate(330,108)"/>
<path d="M0 0 C1.98 0 3.96 0 6 0 C6.0093457 0.75168457 6.01869141 1.50336914 6.02832031 2.27783203 C6.31366731 20.78342391 7.81879299 38.6206367 10.55859375 56.92822266 C11.13573887 60.9446164 11.5847133 64.96393243 12 69 C7.03049953 64.25596212 6.47781298 58.73050736 5.5625 52.1875 C5.37518311 50.88655396 5.37518311 50.88655396 5.18408203 49.55932617 C4.77917471 46.70753509 4.38765797 43.85418508 4 41 C3.79624756 39.51161621 3.79624756 39.51161621 3.58837891 37.99316406 C1.87555997 25.34060098 0.50281014 12.76097447 0 0 Z " fill="#FFFFFF" transform="translate(159,70)"/>
<path d="M0 0 C2.26534317 3.39801475 3.87821089 6.9230894 5.5859375 10.625 C7.12450541 13.20911406 8.42555021 14.4721955 11 16 C14.44927034 16.28157309 16.70952793 16.09682402 20 15 C21.22969878 11.48809191 21.22969878 11.48809191 22 8 C23.64374198 10.97439025 24.45991074 13.64751207 25.0703125 16.984375 C25.24433594 17.91894531 25.41835937 18.85351562 25.59765625 19.81640625 C25.77167969 20.78449219 25.94570312 21.75257813 26.125 22.75 C26.30675781 23.73355469 26.48851562 24.71710938 26.67578125 25.73046875 C27.12260185 28.15270672 27.56380188 30.57583055 28 33 C2.98387097 17.9516129 2.98387097 17.9516129 0 9 C-0.99 8.67 -1.98 8.34 -3 8 C-3 7.34 -3 6.68 -3 6 C-3.99 5.67 -4.98 5.34 -6 5 C-5.67 4.34 -5.34 3.68 -5 3 C-2.4375 2.375 -2.4375 2.375 0 2 C0 1.34 0 0.68 0 0 Z " fill="#FFFFFF" transform="translate(150,134)"/>
<path d="M0 0 C5.75 0.875 5.75 0.875 8 2 C8.02578125 3.26070312 8.0515625 4.52140625 8.078125 5.8203125 C8.4006681 16.74988563 9.47669802 27.1765329 11.71582031 37.88916016 C11.89467773 38.76233887 12.07353516 39.63551758 12.2578125 40.53515625 C12.4242627 41.302229 12.59071289 42.06930176 12.76220703 42.85961914 C13.0195412 45.17589088 12.70071943 46.79295297 12 49 C4.5475842 36.96284384 2.41149549 25.74572612 1.23486328 11.73486328 C0.89814807 7.81398617 0.4487611 3.90947733 0 0 Z " fill="#FFFFFF" transform="translate(261,144)"/>
<path d="M0 0 C3.33511711 3.04167784 4.56548129 6.51805403 6.0625 10.6875 C6.31837891 11.37005859 6.57425781 12.05261719 6.83789062 12.75585938 C10.0824552 21.58874854 11.28529656 29.1041554 11.125 38.5 C11.11597656 39.51320312 11.10695313 40.52640625 11.09765625 41.5703125 C11.07429007 44.04712801 11.04153168 46.52343379 11 49 C5.72985796 41.09478693 4.25670863 31.25483099 3 22 C2.73843795 20.11716572 2.47670345 18.2343554 2.21484375 16.3515625 C1.46205909 10.90296054 0.72627988 5.45219325 0 0 Z " fill="#FFFFFF" transform="translate(334,179)"/>
<path d="M0 0 C1.98 0.66 3.96 1.32 6 2 C6.88704665 7.46889915 7.22700029 12.8427878 7.4375 18.375 C7.83808701 27.65339109 8.77226002 36.79791008 10 46 C1.87129181 33.80693772 -0.44679114 14.34434714 0 0 Z " fill="#FFFFFF" transform="translate(294,154)"/>
<path d="M0 0 C1.91170628 2.86755943 2.9394531 5.28327134 4.125 8.5 C9.22774876 21.95270129 14.84042517 35.08281054 21.43359375 47.875 C23 51 23 51 24 54 C21.03 54 18.06 54 15 54 C15.433125 52.63875 15.433125 52.63875 15.875 51.25 C16.38948801 47.45471886 15.38140073 45.38162613 13.5625 42.0625 C10.18016733 35.83647312 7.95396762 29.41388153 5.75 22.6875 C5.2386853 21.13011108 5.2386853 21.13011108 4.71704102 19.54125977 C3.79511898 16.69899131 2.89128551 13.85200727 2 11 C1.77634766 10.29182129 1.55269531 9.58364258 1.32226562 8.85400391 C0.36282146 5.69204625 0 3.3627731 0 0 Z " fill="#FFFFFF" transform="translate(374,182)"/>
<path d="M0 0 C1.24973287 2.40333244 2.33502612 4.80710837 3.375 7.3125 C4.95859097 11.06439246 6.92695987 14.49727702 9 18 C3.5632024 17.44147333 -0.9183367 16.06042383 -5.9375 13.9375 C-6.62134766 13.65583984 -7.30519531 13.37417969 -8.00976562 13.08398438 C-9.67613946 12.3964595 -11.33850727 11.69923825 -13 11 C-13 10.34 -13 9.68 -13 9 C-8.545 8.505 -8.545 8.505 -4 8 C-4 7.34 -4 6.68 -4 6 C-3.34 5.67 -2.68 5.34 -2 5 C-1.27840576 3.35636866 -0.60648579 1.68949614 0 0 Z " fill="#FFFFFF" transform="translate(275,197)"/>
<path d="M0 0 C6.3655914 4.8172043 6.3655914 4.8172043 8 8 C8.04424249 9.35346629 8.02863134 10.7093122 7.9765625 12.0625 C7.89918359 17.76847804 8.94375655 23.10819881 10.02148438 28.68945312 C10.2293457 29.82737305 10.2293457 29.82737305 10.44140625 30.98828125 C10.57232666 31.66415283 10.70324707 32.34002441 10.83813477 33.03637695 C11.01985235 35.24083329 10.64332874 36.89618878 10 39 C0 10.8 0 10.8 0 0 Z " fill="#FFFFFF" transform="translate(384,149)"/>
<path d="M0 0 C0.01981934 0.56807373 0.03963867 1.13614746 0.06005859 1.72143555 C0.60480893 16.63468817 0.60480893 16.63468817 2.59765625 31.40625 C2.99725333 33.98229328 3.07071001 36.39787178 3 39 C0.01713026 33.65897474 -0.82084094 27.60613572 -2.125 21.6875 C-2.40214844 20.47642578 -2.67929688 19.26535156 -2.96484375 18.01757812 C-4.24563726 12.25400733 -5.40168977 6.91182555 -5 1 C-1.125 0 -1.125 0 0 0 Z " fill="#FFFFFF" transform="translate(237,142)"/>
<path d="M0 0 C5.75 3.625 5.75 3.625 8 7 C7.195625 7.226875 6.39125 7.45375 5.5625 7.6875 C4.716875 8.120625 3.87125 8.55375 3 9 C2.10613836 11.54775306 2.10613836 11.54775306 2 14 C1.67 14 1.34 14 1 14 C0.67 9.38 0.34 4.76 0 0 Z " fill="#FFFFFF" transform="translate(354,122)"/>
</svg>
