<?xml version="1.0" encoding="UTF-8"?>
<svg version="1.1" xmlns="http://www.w3.org/2000/svg" width="500" height="500">
<path d="M0 0 C9.34421139 0.29308412 16.62646828 4.19768052 24.4296875 9.0625 C27.05087249 10.66477924 29.71854189 12.12225909 32.4296875 13.56640625 C36.25338558 15.62366353 39.91548825 17.82336392 43.5546875 20.19140625 C46.93752158 22.39072755 50.27235304 24.30377154 53.9296875 26.00390625 C63.66609704 30.71707265 74.12636681 38.23030649 79.8046875 47.62890625 C82.54543857 51.38765058 85.75187343 53.40446734 89.58984375 55.96875 C94.16430268 59.12996146 97.7271203 63.15455491 100.9921875 67.62890625 C100.9921875 68.28890625 100.9921875 68.94890625 100.9921875 69.62890625 C101.6521875 69.62890625 102.3121875 69.62890625 102.9921875 69.62890625 C104.33057483 72.084608 105.66304982 74.54320541 106.9921875 77.00390625 C107.56453125 78.05191406 107.56453125 78.05191406 108.1484375 79.12109375 C110.9921875 84.40234375 110.9921875 84.40234375 110.9921875 86.62890625 C111.6521875 86.62890625 112.3121875 86.62890625 112.9921875 86.62890625 C116.9921875 92.04067096 116.9921875 92.04067096 116.9921875 94.62890625 C118.6421875 94.62890625 120.2921875 94.62890625 121.9921875 94.62890625 C122.3221875 93.30890625 122.6521875 91.98890625 122.9921875 90.62890625 C123.6521875 90.62890625 124.3121875 90.62890625 124.9921875 90.62890625 C125.3221875 89.30890625 125.6521875 87.98890625 125.9921875 86.62890625 C126.6521875 86.62890625 127.3121875 86.62890625 127.9921875 86.62890625 C128.3015625 85.68015625 128.6109375 84.73140625 128.9296875 83.75390625 C129.9921875 80.62890625 129.9921875 80.62890625 130.9921875 78.62890625 C131.6521875 78.62890625 132.3121875 78.62890625 132.9921875 78.62890625 C133.33056641 77.84386719 133.33056641 77.84386719 133.67578125 77.04296875 C135.46256557 73.76631382 137.75013721 70.92452443 140.0546875 68.00390625 C143.31411099 64.00767847 143.31411099 64.00767847 145.9921875 59.62890625 C146.6521875 59.62890625 147.3121875 59.62890625 147.9921875 59.62890625 C148.1984375 58.96890625 148.4046875 58.30890625 148.6171875 57.62890625 C149.86998299 54.89553428 151.15030505 53.03194468 152.9921875 50.69140625 C155.5354946 47.42933845 156.73474099 44.58088099 157.9921875 40.62890625 C160.05002515 37.90962079 161.24460857 36.8124029 164.5703125 35.99609375 C168.78375428 35.54396644 172.77475905 35.77275831 176.9921875 36.06640625 C204.10068113 37.67381335 231.38843288 34.8229591 257.5546875 27.36328125 C262.51014475 26.30461538 267.11436315 25.81246088 271.8671875 27.87890625 C275.12410653 30.56107486 275.86052427 32.39127185 276.3046875 36.56640625 C275.95161746 40.02649264 275.09380774 41.88063363 272.9921875 44.62890625 C272.3321875 44.62890625 271.6721875 44.62890625 270.9921875 44.62890625 C270.86690674 45.27102051 270.74162598 45.91313477 270.61254883 46.57470703 C270.01334642 49.63512312 269.4098116 52.69465536 268.8046875 55.75390625 C268.58127686 56.88376953 268.35786621 58.01363281 268.12768555 59.17773438 C266.84137327 65.60974565 265.46702273 72.00779293 263.95288086 78.38989258 C258.0756153 103.22493677 253.50545243 135.5785066 259.9921875 160.62890625 C260.43900428 164.78942974 260.76437243 168.35312246 258.5546875 172.00390625 C256.21866312 173.48528757 254.72159709 174.03611739 252.1171875 174.75390625 C245.51599341 176.75687868 240.37282106 181.15659335 234.91748047 185.21875 C231.66383182 187.60184341 228.32633146 189.86052922 224.9921875 192.12890625 C219.25431196 196.04725307 213.58246395 200.04465479 207.96044922 204.12744141 C203.43709754 207.38577683 198.74389506 210.28426704 193.90625 213.05859375 C193.27460938 213.57679688 192.64296875 214.095 191.9921875 214.62890625 C191.9921875 218.52445105 192.32924303 219.40695135 193.9921875 222.62890625 C193.9921875 223.61890625 193.9921875 224.60890625 193.9921875 225.62890625 C194.6521875 225.62890625 195.3121875 225.62890625 195.9921875 225.62890625 C196.6521875 227.60890625 197.3121875 229.58890625 197.9921875 231.62890625 C198.6521875 231.62890625 199.3121875 231.62890625 199.9921875 231.62890625 C201.32186518 233.51261629 202.5548825 235.46486556 203.7421875 237.44140625 C204.09345703 238.02510986 204.44472656 238.60881348 204.80664062 239.21020508 C213.9921875 254.58682722 213.9921875 254.58682722 213.9921875 257.62890625 C216.57649469 255.85949092 219.15945774 254.08812312 221.7421875 252.31640625 C222.47179687 251.81689453 223.20140625 251.31738281 223.953125 250.80273438 C224.66210938 250.31611328 225.37109375 249.82949219 226.1015625 249.328125 C227.07561035 248.66043091 227.07561035 248.66043091 228.06933594 247.97924805 C229.43967951 247.01691053 230.77652256 246.00611643 232.08789062 244.96484375 C234.56595489 243.22638636 235.80182019 243.4657586 238.7421875 243.94140625 C239.54140625 244.06128906 240.340625 244.18117188 241.1640625 244.3046875 C241.76734375 244.41167969 242.370625 244.51867187 242.9921875 244.62890625 C243.3221875 242.64890625 243.6521875 240.66890625 243.9921875 238.62890625 C246.5546875 237.37890625 246.5546875 237.37890625 249.9921875 236.62890625 C255.0665835 238.64116673 257.41599329 240.51845877 259.890625 245.5 C261.78497593 249.16106829 264.14670611 252.53688439 266.40625 255.98046875 C270.36868592 262.59754154 270.77379155 268.50218658 269.2421875 275.94140625 C267.48970585 281.11122713 265.250528 281.99001372 260.453125 284.42578125 C259.09190978 285.07841869 257.72989539 285.72939127 256.3671875 286.37890625 C249.79316191 289.57610995 243.80222767 293.15964458 237.9921875 297.62890625 C239.74043182 300.70914625 241.41430934 303.20885736 243.9921875 305.62890625 C245.77109188 307.63421664 247.52134128 309.66266326 249.2734375 311.69140625 C250.94013038 313.62725404 250.94013038 313.62725404 252.7109375 315.25390625 C253.9921875 316.62890625 253.9921875 316.62890625 253.9921875 318.62890625 C254.6521875 318.62890625 255.3121875 318.62890625 255.9921875 318.62890625 C260.9921875 324.10509673 260.9921875 324.10509673 260.9921875 326.62890625 C261.9821875 326.95890625 262.9721875 327.28890625 263.9921875 327.62890625 C265.59765625 329.1875 265.59765625 329.1875 267.1796875 331.06640625 C267.97439453 331.99259766 267.97439453 331.99259766 268.78515625 332.9375 C269.9921875 334.62890625 269.9921875 334.62890625 269.9921875 336.62890625 C270.6521875 336.62890625 271.3121875 336.62890625 271.9921875 336.62890625 C275.9921875 341.09949449 275.9921875 341.09949449 275.9921875 343.62890625 C276.6521875 343.62890625 277.3121875 343.62890625 277.9921875 343.62890625 C277.9921875 344.28890625 277.9921875 344.94890625 277.9921875 345.62890625 C280.9921875 346.96223958 280.9921875 346.96223958 283.9921875 345.62890625 C297.43919555 344.57898971 305.70477551 348.05058507 315.9921875 356.62890625 C318.0461512 358.56493902 319.34926057 360.26115861 320.9921875 362.62890625 C321.43175781 363.24894531 321.87132812 363.86898438 322.32421875 364.5078125 C327.96771879 373.33899556 328.8654303 384.44777485 327.640625 394.6953125 C324.25994928 409.98981529 312.30272277 419.42427767 300.03515625 427.8515625 C292.54052241 432.2290444 284.95486305 432.65534492 276.49609375 431.19921875 C269.7523197 429.30581945 264.46300018 425.38036551 260.60546875 419.5234375 C257.78279344 413.9276075 257.52773017 408.80876901 257.9921875 402.62890625 C257.1671875 402.60828125 256.3421875 402.58765625 255.4921875 402.56640625 C245.27743006 399.83031051 240.44753863 389.69299034 235.4609375 381.14453125 C232.95732312 376.69077213 231.04432397 372.12297486 229.21875 367.35546875 C226.92406721 362.25454968 223.40457646 358.02441842 219.9921875 353.62890625 C215.64611131 347.74538414 211.37547353 341.80793727 207.1796875 335.81640625 C206.45136719 334.77871094 205.72304688 333.74101562 204.97265625 332.671875 C203.06454595 329.74008423 201.48879162 326.78735469 199.9921875 323.62890625 C193.12950663 325.0354467 187.43196706 329.46793664 181.9921875 333.6953125 C181.29125977 334.23824951 180.59033203 334.78118652 179.86816406 335.34057617 C178.4688662 336.43536445 177.07978382 337.54335779 175.70214844 338.6652832 C172.60909237 341.09133694 170.70802117 342.52343317 166.7578125 343.10546875 C159.6543704 341.88142929 155.25487744 337.28716999 151.21875 331.59375 C148.80446581 327.72628201 147.73524734 325.25382911 147.9921875 320.62890625 C146.8475 320.72171875 146.8475 320.72171875 145.6796875 320.81640625 C142.9921875 320.62890625 142.9921875 320.62890625 141.2421875 319.56640625 C139.32715225 316.59810162 139.11294116 314.13076251 138.9921875 310.62890625 C140.94051308 306.38272159 142.82533369 304.8479283 147.0546875 303.00390625 C152.81022078 300.30622071 158.20057654 297.20397596 163.6171875 293.87890625 C164.8084021 293.1526001 164.8084021 293.1526001 166.02368164 292.41162109 C170.2503877 289.83556401 170.2503877 289.83556401 173.9921875 286.62890625 C171.78506692 285.37672896 169.57659023 284.12704803 167.3671875 282.87890625 C166.66513184 282.48131104 165.96307617 282.08371582 165.23974609 281.67407227 C160.9821533 279.27429639 156.70068493 276.93033866 152.3828125 274.640625 C134.28972753 265.0090743 134.28972753 265.0090743 127.89453125 258.859375 C126.04452835 257.4185225 126.04452835 257.4185225 123.66796875 257.62890625 C120.06427372 258.97568863 117.25582729 261.11123119 114.2421875 263.44140625 C112.91009259 264.4469552 111.57670858 265.45079819 110.2421875 266.453125 C109.54867187 266.97567871 108.85515625 267.49823242 108.140625 268.03662109 C104.56313507 270.68802897 100.89785349 273.21204403 97.2421875 275.75390625 C86.22347545 283.38766812 86.22347545 283.38766812 76.328125 292.375 C74.9921875 293.62890625 74.9921875 293.62890625 72.9921875 293.62890625 C72.9921875 294.28890625 72.9921875 294.94890625 72.9921875 295.62890625 C71.69985143 297.00201332 70.36781604 298.33925449 68.9921875 299.62890625 C72.97436447 305.70172612 77.09725787 311.04835478 82.390625 316.03515625 C84.75513033 318.3881274 84.98063872 319.52111763 85.34375 322.91015625 C84.90591513 327.54147621 83.61313759 328.87338109 80.3671875 332.12890625 C77.39467508 335.16802959 74.55386856 338.11301051 71.9921875 341.50390625 C67.17118117 347.12166153 60.50821553 349.69201569 53.3046875 350.69140625 C47.07799811 350.97125746 43.61328823 348.8983959 39.0703125 344.96484375 C34.21501594 340.39183187 30.45872525 335.28483278 26.75390625 329.75390625 C26.17253906 329.05265625 25.59117187 328.35140625 24.9921875 327.62890625 C21.23415077 327.62890625 20.6655001 328.5500495 17.9921875 331.06640625 C15.53269502 333.37218045 14.23189776 334.54900283 10.9921875 335.62890625 C10.9921875 336.28890625 10.9921875 336.94890625 10.9921875 337.62890625 C8.75753776 339.44738641 6.52027371 341.14383721 4.1796875 342.81640625 C3.50204346 343.3074585 2.82439941 343.79851074 2.1262207 344.30444336 C-2.77984231 347.82975464 -7.77855642 351.13747764 -12.93359375 354.2890625 C-15.58855315 356.00403628 -16.82480032 357.17137581 -18.0078125 360.12890625 C-19.0078125 362.62890625 -19.0078125 362.62890625 -21.0078125 364.62890625 C-22.6165625 364.93828125 -22.6165625 364.93828125 -24.2578125 365.25390625 C-28.82681323 366.92920652 -29.89555595 368.82474305 -32.52734375 372.7265625 C-34.57915569 375.36305963 -36.95864707 376.38152039 -40.0078125 377.62890625 C-40.6678125 378.28890625 -41.3278125 378.94890625 -42.0078125 379.62890625 C-44.33056427 380.02938069 -46.66520607 380.36861665 -49.0078125 380.62890625 C-48.9459375 381.39203125 -48.8840625 382.15515625 -48.8203125 382.94140625 C-49.0078125 385.62890625 -49.0078125 385.62890625 -50.0078125 387.37890625 C-52.0078125 388.62890625 -52.0078125 388.62890625 -55.6328125 388.87890625 C-60.54079134 389.29391917 -63.2326383 391.84028025 -66.921875 394.90625 C-71.69999149 398.85222261 -75.78258151 400.18776694 -81.88671875 399.9921875 C-85.08590498 399.44426058 -86.82192445 397.9514123 -89.0078125 395.62890625 C-92.63348694 388.37755737 -90.05169296 375.7369287 -87.92578125 368.37109375 C-84.92790123 359.4157245 -81.57074197 349.62936436 -75.0078125 342.62890625 C-74.3478125 342.62890625 -73.6878125 342.62890625 -73.0078125 342.62890625 C-72.64042969 341.59830078 -72.64042969 341.59830078 -72.265625 340.546875 C-70.78868393 337.1205552 -68.91007431 334.05915081 -66.8828125 330.94140625 C-66.28448608 330.01884033 -66.28448608 330.01884033 -65.67407227 329.07763672 C-60.4236786 321.09337794 -54.59097751 313.92240433 -47.671875 307.3203125 C-45.805732 305.52958122 -45.805732 305.52958122 -44.0078125 302.62890625 C-43.3478125 302.62890625 -42.6878125 302.62890625 -42.0078125 302.62890625 C-41.605625 301.76265625 -41.605625 301.76265625 -41.1953125 300.87890625 C-39.97852061 298.57340582 -38.70447371 296.60834433 -37.0078125 294.62890625 C-36.3478125 294.62890625 -35.6878125 294.62890625 -35.0078125 294.62890625 C-34.76289062 294.0565625 -34.51796875 293.48421875 -34.265625 292.89453125 C-32.79671151 290.24866223 -31.05433006 288.48037486 -28.8828125 286.37890625 C-27.79613281 285.31929688 -27.79613281 285.31929688 -26.6875 284.23828125 C-26.13320312 283.7071875 -25.57890625 283.17609375 -25.0078125 282.62890625 C-28.82067126 278.02345322 -32.80992936 273.81413766 -37.12451172 269.67871094 C-45.18060756 261.92895096 -51.51777829 254.37178386 -57.0078125 244.62890625 C-57.56855469 243.75878906 -58.12929687 242.88867188 -58.70703125 241.9921875 C-60.78017595 238.22566334 -60.48158735 235.89287987 -60.0078125 231.62890625 C-58.5703125 229.12890625 -58.5703125 229.12890625 -56.0078125 227.62890625 C-52.97664645 227.31587705 -50.04245411 227.39547228 -47.0078125 227.62890625 C-46.6984375 226.82453125 -46.3890625 226.02015625 -46.0703125 225.19140625 C-45.0078125 222.62890625 -45.0078125 222.62890625 -44.0078125 221.62890625 C-43.81686764 220.23353999 -43.63006916 218.83760535 -43.4453125 217.44140625 C-42.60835872 213.51272022 -41.51167495 211.69979601 -38.3203125 209.25390625 C-32.27205774 205.34864823 -27.55151968 203.15736256 -20.31640625 203.9140625 C-13.86357758 205.91214651 -10.69561661 209.96722186 -7.4453125 215.50390625 C-5.22904241 219.19108189 -3.04629961 222.68440113 -0.23046875 225.94921875 C1.9921875 228.62890625 1.9921875 228.62890625 1.9921875 230.62890625 C3.6421875 231.28890625 5.2921875 231.94890625 6.9921875 232.62890625 C6.9921875 233.28890625 6.9921875 233.94890625 6.9921875 234.62890625 C7.9821875 234.95890625 8.9721875 235.28890625 9.9921875 235.62890625 C12.97732192 238.29981599 15.39799741 241.10781073 17.6796875 244.37890625 C19.61364114 247.63525672 19.61364114 247.63525672 21.9921875 248.62890625 C21.80398437 248.04882812 21.61578125 247.46875 21.421875 246.87109375 C20.68964744 243.05019723 22.27014051 240.01429409 23.9921875 236.62890625 C25.54915005 234.5070701 27.24572165 232.60517024 28.9921875 230.62890625 C29.3221875 229.63890625 29.6521875 228.64890625 29.9921875 227.62890625 C30.6521875 227.62890625 31.3121875 227.62890625 31.9921875 227.62890625 C32.3634375 226.35660156 32.3634375 226.35660156 32.7421875 225.05859375 C34.09960291 221.33418523 35.90368515 218.09853682 37.9921875 214.75390625 C38.34796875 214.1609375 38.70375 213.56796875 39.0703125 212.95703125 C39.98488747 211.47596582 40.98242287 210.04678409 41.9921875 208.62890625 C42.6521875 208.62890625 43.3121875 208.62890625 43.9921875 208.62890625 C44.3221875 207.30890625 44.6521875 205.98890625 44.9921875 204.62890625 C45.6521875 204.62890625 46.3121875 204.62890625 46.9921875 204.62890625 C46.9921875 203.63890625 46.9921875 202.64890625 46.9921875 201.62890625 C47.6521875 201.62890625 48.3121875 201.62890625 48.9921875 201.62890625 C49.2603125 201.07203125 49.5284375 200.51515625 49.8046875 199.94140625 C51.10118246 197.41665291 52.41695073 194.99176141 53.9921875 192.62890625 C54.6521875 192.62890625 55.3121875 192.62890625 55.9921875 192.62890625 C53.64146973 188.45072018 50.80920655 184.78318793 47.8046875 181.06640625 C43.64770089 175.84375291 39.77152615 170.53859891 36.1484375 164.92578125 C34.5220414 162.43904518 32.8618553 160.00748943 31.1484375 157.58203125 C18.27282123 139.18800022 10.97510724 119.08965496 4.05224609 97.86474609 C3.17901059 95.19918567 2.27384458 92.54857406 1.35546875 89.8984375 C-3.09409467 76.35428427 -3.65451646 61.97948615 -4.69824219 47.84838867 C-4.93524478 44.74150881 -4.93524478 44.74150881 -5.52905273 42.18481445 C-6.17160263 38.75449582 -6.2095052 35.35708782 -6.24609375 31.87890625 C-6.2541655 31.14317383 -6.26223724 30.40744141 -6.27055359 29.64941406 C-6.28433075 28.09963292 -6.29508113 26.54982225 -6.30297852 25 C-6.31453517 23.41918005 -6.33504495 21.83840022 -6.36450195 20.2578125 C-6.40719011 17.96457623 -6.42334332 15.67249048 -6.43359375 13.37890625 C-6.45110184 12.67668945 -6.46860992 11.97447266 -6.48664856 11.25097656 C-6.47078074 7.64851746 -6.07969011 5.74025332 -4.10668945 2.68383789 C-2.0078125 0.62890625 -2.0078125 0.62890625 0 0 Z " fill="#000000" transform="translate(138.0078125,38.37109375)"/>
<path d="M0 0 C-0.48867961 8.2486638 -2.01187794 15.97868491 -3.9375 24 C-7.91568818 41.48848268 -9.15971722 57.86362097 -9.1875 75.75 C-9.18940338 76.93453766 -9.18940338 76.93453766 -9.19134521 78.14300537 C-9.19092278 80.46522707 -9.18183785 82.7871966 -9.16796875 85.109375 C-9.16348221 86.23252861 -9.16348221 86.23252861 -9.15890503 87.37837219 C-9.12091567 91.05145304 -8.96931906 94.66055702 -8.57519531 98.3137207 C-8.50625565 98.99497009 -8.43731598 99.67621948 -8.36628723 100.37811279 C-8.16592675 102.22261242 -7.92793825 104.06291532 -7.68725586 105.90258789 C-8 109 -8 109 -10.45092773 111.62915039 C-12.61885094 113.15522208 -14.65869194 114.56605716 -17.0078125 115.7734375 C-21.33933592 118.12495864 -25.26000949 120.92905091 -29.25 123.8125 C-30.70473665 124.84124868 -32.16047642 125.86858027 -33.6171875 126.89453125 C-36.48485314 128.92224427 -39.34338567 130.96193808 -42.1953125 133.01171875 C-57.9734793 144.31636111 -74.37069327 155.4103681 -91.875 163.875 C-98.24965896 167.0127855 -104.12898341 170.76681372 -110.03271484 174.69335938 C-112.13707895 176.09104574 -114.24985466 177.47543491 -116.36328125 178.859375 C-125.45374928 184.83727147 -134.30625622 191.05998901 -143.03564453 197.55078125 C-145.88689966 199.65431722 -148.76454795 201.7204786 -151.64208984 203.7878418 C-155.43592831 206.51438578 -159.2190784 209.25558242 -163 212 C-163.71397949 212.51739746 -164.42795898 213.03479492 -165.16357422 213.56787109 C-173.493133 219.62695647 -181.26066373 225.81689371 -188.546875 233.11328125 C-191 235 -191 235 -193.0625 235.078125 C-195.70503937 233.6076797 -197.30200531 231.74262704 -199.25 229.4375 C-199.95640625 228.61121094 -200.6628125 227.78492188 -201.390625 226.93359375 C-201.92171875 226.29550781 -202.4528125 225.65742188 -203 225 C-197.62874715 213.90814452 -190.42457848 204.52359338 -180.93359375 196.63671875 C-176.18743144 192.61926015 -171.90039938 188.10660979 -167.875 183.375 C-164.49537135 179.42951609 -160.82577145 175.82672219 -157.125 172.1875 C-152.17968342 167.30302894 -147.60112051 162.31172311 -143.28125 156.85546875 C-140.55364258 153.44128891 -137.72467803 150.12488576 -134.875 146.8125 C-134.39595215 146.25433594 -133.9169043 145.69617188 -133.42333984 145.12109375 C-131.95251072 143.41089735 -130.47734307 141.70457228 -129 140 C-128.4416748 139.35554932 -127.88334961 138.71109863 -127.30810547 138.04711914 C-123.40572403 133.5632212 -119.43672659 129.15252059 -115.375 124.8125 C-114.75036865 124.14395996 -114.1257373 123.47541992 -113.48217773 122.78662109 C-106.96258379 115.86539816 -100.21193555 109.17705785 -93.40966797 102.53442383 C-87.80161736 97.00386201 -82.80660159 91.23487674 -78 85 C-76.60833184 83.28827187 -75.21339672 81.57918363 -73.8125 79.875 C-71.11562593 76.58818472 -68.42641328 73.29569064 -65.75 69.9921875 C-65.18176514 69.29109863 -64.61353027 68.59000977 -64.02807617 67.86767578 C-62.91546836 66.4942931 -61.80360603 65.12030603 -60.69262695 63.74560547 C-59.91085083 62.78098389 -59.91085083 62.78098389 -59.11328125 61.796875 C-58.60313477 61.16402588 -58.09298828 60.53117676 -57.56738281 59.87915039 C-56.50658563 58.6073504 -55.41042487 57.36436956 -54.28417969 56.15014648 C-50.97408553 52.61932055 -50.97408553 52.61932055 -49.4140625 48.12890625 C-49.51847656 46.85853516 -49.51847656 46.85853516 -49.625 45.5625 C-49.67914063 44.69753906 -49.73328125 43.83257812 -49.7890625 42.94140625 C-49.89347656 41.98041016 -49.89347656 41.98041016 -50 41 C-53.7649387 39.74502043 -56.03008618 39.47935556 -60 40 C-68.05825432 45.24253225 -73.83009516 53.76999046 -79.7265625 61.19140625 C-82.71319196 64.88107391 -85.78474676 68.49509985 -88.87963867 72.09423828 C-90.80239736 74.34371923 -92.69350924 76.58725843 -94.45849609 78.96411133 C-99.81458501 86.17121358 -106.1045556 92.2947408 -112.5 98.5625 C-121.76745543 107.63068804 -121.76745543 107.63068804 -130.47900391 117.22729492 C-133.03181592 120.20257069 -135.74748274 123.02431757 -138.4375 125.875 C-143.58560089 131.37624358 -148.373217 137.05127899 -153 143 C-158.10862201 149.37887397 -163.34289379 155.59500195 -168.85546875 161.62890625 C-171.50602078 164.55948017 -174.05565386 167.57012022 -176.58984375 170.6015625 C-178 172 -178 172 -180 172 C-180.38937744 172.87374268 -180.38937744 172.87374268 -180.78662109 173.76513672 C-182.08759746 176.16134148 -183.5181766 177.80373058 -185.4140625 179.7578125 C-186.08912842 180.46091553 -186.76419434 181.16401855 -187.4597168 181.88842773 C-188.53153198 182.99553101 -188.53153198 182.99553101 -189.625 184.125 C-201.35228376 196.37235617 -201.35228376 196.37235617 -209.9921875 210.87109375 C-211 213 -211 213 -213 216 C-214.98 214.02 -216.96 212.04 -219 210 C-217.58623207 205.51771305 -215.38139373 203.08928997 -212 199.875 C-209.30717958 197.29959908 -207.07024243 195.10536365 -205 192 C-205.103125 190.948125 -205.20625 189.89625 -205.3125 188.8125 C-204.91714654 183.9891878 -203.3572029 182.60425923 -200.109375 179.20703125 C-197.04356558 175.99928621 -194.30698219 172.54803413 -191.515625 169.1015625 C-189.72684494 166.89614113 -187.92576869 164.70574933 -186.109375 162.5234375 C-180.39991556 155.60310417 -175.30230924 148.57988036 -170.64428711 140.91137695 C-164.35887997 130.58131596 -157.02648541 121.01803682 -149.74267578 111.38061523 C-144.46990813 104.36447294 -139.46146039 97.16972323 -134.45703125 89.9609375 C-132.24927299 86.78161756 -130.02059246 83.61976417 -127.76171875 80.4765625 C-123.03581447 73.89145632 -118.47081682 67.3110715 -114.375 60.3125 C-107.74059509 48.97667729 -99.82981293 38.6682632 -91.67578125 28.39453125 C-84.68121267 20.18324806 -84.68121267 20.18324806 -79.15039062 11.1081543 C-77.97705039 8.80474801 -77.09559227 7.54033363 -75 6 C-70.75880977 5.26669732 -66.63782013 5.3785685 -62.34744263 5.58728027 C-58.82069558 5.75579483 -55.29158668 5.8040085 -51.76171875 5.87109375 C-51.07359604 5.88741852 -50.38547333 5.90374329 -49.67649841 5.92056274 C-41.96906264 6.08808144 -34.5970348 5.27830831 -27 4 C-26.01789551 3.83918945 -25.03579102 3.67837891 -24.02392578 3.51269531 C-19.65668919 2.79666936 -15.29050091 2.07698335 -10.92993164 1.32128906 C-9.94500732 1.15081055 -8.96008301 0.98033203 -7.9453125 0.8046875 C-7.06375488 0.64983887 -6.18219727 0.49499023 -5.27392578 0.33544922 C-3 0 -3 0 0 0 Z " fill="#FEFEFE" transform="translate(387,89)"/>
<path d="M0 0 C4.21208912 2.78203098 8.411718 5.57244328 12.52734375 8.49609375 C19.61259374 13.49983708 26.71513343 18.04496659 34.375 22.125 C43.93285498 27.26445815 51.17805424 33.16501071 57.44140625 42.08984375 C60.39024207 45.70383051 64.24638195 48.27625549 68 51 C75.17834461 56.31197501 79.61595183 63.21790427 83.6875 71.0625 C86.87283733 77.17939778 90.93536754 82.6151719 95.12573242 88.07446289 C98.98142533 93.28487504 98.98142533 93.28487504 99.0703125 96.70703125 C97.81158269 99.40365315 96.32600598 101.51195635 94.4375 103.8125 C93.79683594 104.60269531 93.15617187 105.39289063 92.49609375 106.20703125 C92.00238281 106.79871094 91.50867188 107.39039063 91 108 C88.3718949 105.44775773 86.32025791 102.98697757 84.32421875 99.91796875 C82.51000744 97.29030576 80.58955388 94.76739316 78.625 92.25 C77.89539063 91.30640625 77.16578125 90.3628125 76.4140625 89.390625 C73.67467667 86.67783515 71.74975214 85.78835759 68 85 C66.515 85.495 66.515 85.495 65 86 C63.91693962 90.54228958 63.8894276 92.75291022 66.3125 96.75 C66.85648437 97.68585938 67.40046875 98.62171875 67.9609375 99.5859375 C68.63382812 100.71257812 69.30671875 101.83921875 70 103 C71.83550214 106.1121308 73.64046365 109.24053871 75.4375 112.375 C75.89874268 113.14811523 76.35998535 113.92123047 76.83520508 114.71777344 C79.98242447 120.20792946 79.98242447 120.20792946 80.05859375 123.640625 C78.62106034 126.84457399 76.72148632 129.58087609 74.625 132.375 C74.18671875 132.97352783 73.7484375 133.57205566 73.296875 134.1887207 C72.36085584 135.4650053 71.42095743 136.7384524 70.47753906 138.00927734 C68.45993185 140.72764634 66.46185339 143.46015839 64.46240234 146.19189453 C63.50364518 147.50022193 62.54309483 148.80723756 61.58056641 150.11279297 C59.66534146 152.71117338 57.79094783 155.31357826 56 158 C55.34 158 54.68 158 54 158 C52.11814434 155.57871992 50.35901309 153.1498748 48.625 150.625 C48.10131836 149.8714624 47.57763672 149.1179248 47.03808594 148.34155273 C45.34884184 145.90100249 43.67272396 143.4518988 42 141 C41.42668945 140.16194824 40.85337891 139.32389648 40.26269531 138.46044922 C38.58407766 135.99958622 36.9147516 133.53276038 35.25 131.0625 C34.72486816 130.28793457 34.19973633 129.51336914 33.65869141 128.71533203 C33.17835449 127.99587402 32.69801758 127.27641602 32.203125 126.53515625 C31.77676758 125.899729 31.35041016 125.26430176 30.91113281 124.60961914 C30 123 30 123 30 121 C29.34 121 28.68 121 28 121 C20.90962379 107.42422848 16.13957005 92.90909264 11.19042969 78.45751953 C10.24498901 75.71155341 9.27680724 72.97695389 8.2890625 70.24609375 C3.4232245 56.10567363 1.29150205 40.46675641 2.08984375 25.5234375 C2.15440113 22.97550084 2.15440113 22.97550084 1.01171875 20.74609375 C-0.4664869 16.73382128 -0.21193728 12.92402037 -0.125 8.6875 C-0.11597656 7.85154297 -0.10695312 7.01558594 -0.09765625 6.15429688 C-0.07420989 4.10274031 -0.03834266 2.05133223 0 0 Z " fill="#FEFEFE" transform="translate(149,56)"/>
<path d="M0 0 C2.5260494 2.35052331 4.38392516 4.89482254 6.3125 7.75 C10.32838995 13.53859451 14.36473295 18.68493395 19.75 23.25 C28.07325146 30.36836172 34.81757155 38.8144119 41.1875 47.6640625 C42.78771025 50.07406369 42.78771025 50.07406369 45 51 C45 51.66 45 52.32 45 53 C45.54011719 53.22429687 46.08023438 53.44859375 46.63671875 53.6796875 C49.74722342 55.41745705 52.22375288 57.70935314 54.8125 60.125 C55.34077393 60.61782471 55.86904785 61.11064941 56.41333008 61.6184082 C57.95232106 63.06879704 59.47885007 64.53093012 61 66 C61.76054687 66.73347656 62.52109375 67.46695313 63.3046875 68.22265625 C67.73458734 72.84556002 68.46624659 75.70170982 69 82 C70.51894806 84.09764165 70.51894806 84.09764165 73 85 C74.67642578 85.10054687 74.67642578 85.10054687 76.38671875 85.203125 C80 86 80 86 82.29296875 88.58203125 C83.23076172 90.18111328 83.23076172 90.18111328 84.1875 91.8125 C86.51083378 95.6973412 88.65156977 98.93369915 92 102 C90.51480221 105.588559 88.49946232 107.55957152 85.5625 110.0625 C82.95159978 112.30348685 80.39503807 114.52795106 78 117 C78 116.34 78 115.68 78 115 C76.515 114.505 76.515 114.505 75 114 C73.27454463 111.6545505 71.68332937 109.32714591 70.125 106.875 C69.27462429 105.55912811 68.42306442 104.24402073 67.5703125 102.9296875 C66.94237793 101.95854004 66.94237793 101.95854004 66.30175781 100.96777344 C64.28381265 97.91739121 62.14602952 94.9613669 60 92 C60.7734375 90.9171875 60.7734375 90.9171875 61.5625 89.8125 C63.21442982 86.5804634 63.06351675 85.38391693 62 82 C57.45289173 81.1255561 55.0406431 80.77067967 51 83 C47.92865335 82.8052 47.03277891 82.03561317 44.921875 79.7421875 C44.20515625 78.79601562 43.4884375 77.84984375 42.75 76.875 C37.98752909 70.86980978 33.03858277 66.27316762 26.9140625 61.69140625 C19.30158974 55.96269054 12.69847885 49.8435732 6.32592773 42.74633789 C2.1618591 38.12249029 -2.26494876 34.03162232 -7 30 C-9.5 27.6875 -9.5 27.6875 -11 26 C-11 25.34 -11 24.68 -11 24 C-11.66 24 -12.32 24 -13 24 C-14.32 21.36 -15.64 18.72 -17 16 C-5.47835991 4.29384966 -5.47835991 4.29384966 0 0 Z " fill="#FFFFFF" transform="translate(115,259)"/>
<path d="M0 0 C1.03544174 1.90881434 2.05290085 3.82739204 3.0625 5.75 C3.63097656 6.81734375 4.19945312 7.8846875 4.78515625 8.984375 C6 12 6 12 6.0390625 14.1953125 C4.42556567 16.99770173 2.19814025 17.73961421 -0.6875 19.125 C-8.35729154 23.02792053 -15.11201189 27.86757108 -22 33 C-22.73605469 32.34515625 -23.47210938 31.6903125 -24.23046875 31.015625 C-27.05963822 28.95659616 -27.94436872 28.52165212 -31.3125 28.75 C-32.529375 28.8325 -33.74625 28.915 -35 29 C-35.07442057 32.86986958 -35.04702186 36.2735915 -34 40 C-35.69454601 41.35081248 -37.40630874 42.68004511 -39.125 44 C-40.07632813 44.7425 -41.02765625 45.485 -42.0078125 46.25 C-45.37618001 48.22001129 -47.17740837 48.23381428 -51 48 C-53.55949546 49.85342775 -53.97918798 50.93756393 -55 54 C-56.73071289 55.33105469 -56.73071289 55.33105469 -58.97265625 56.671875 C-59.79056641 57.17203125 -60.60847656 57.6721875 -61.45117188 58.1875 C-62.31291016 58.703125 -63.17464844 59.21875 -64.0625 59.75 C-70.60052071 63.66776376 -76.42727897 67.7818272 -82 73 C-86.3689695 69.69900082 -88.9138202 67.21544951 -91 62 C-91 61.34 -91 60.68 -91 60 C-88.6553789 58.36181019 -86.317796 56.85433816 -83.875 55.375 C-83.14941895 54.92769531 -82.42383789 54.48039062 -81.67626953 54.01953125 C-77.13267752 51.23689082 -72.52954567 48.59173566 -67.875 46 C-56.76684403 39.73028825 -45.03635512 32.03635512 -36 23 C-34.700625 22.79375 -33.40125 22.5875 -32.0625 22.375 C-29.88273996 21.95964588 -29.88273996 21.95964588 -28 21 C-26.91720255 19.09839291 -26.42302436 17.26169697 -25.82421875 15.16015625 C-23.3890072 8.77782455 -16.86159748 4.87751149 -11 2 C-7.1062882 0.44251528 -4.15906311 -0.08402148 0 0 Z " fill="#FEFEFE" transform="translate(387,295)"/>
<path d="M0 0 C6.41097239 0.40068577 11.19968741 5.05755747 15.375 9.5625 C19.58016758 15.87025137 20.02771445 22.5632896 20 30 C17.60837176 40.07900472 7.76111021 47.83886236 -0.421875 53.49609375 C-4.73327294 56.01107588 -7.68979021 56.55004995 -12.625 55.375 C-15.98825059 53.42785492 -17.75405338 52.27266507 -20 49 C-20.51184098 44.62347211 -20.29714732 40.386975 -20 36 C-20.00193359 34.86304688 -20.00193359 34.86304688 -20.00390625 33.703125 C-19.9375 31.875 -19.9375 31.875 -19 29 C-15.5 27.125 -15.5 27.125 -12 26 C-10.09576534 24.09576534 -10.5740251 20.71526887 -10.37890625 18.12890625 C-10 16 -10 16 -8 14 C-7.3574765 11.93125966 -7.3574765 11.93125966 -7 10 C-5.02 9.67 -3.04 9.34 -1 9 C-0.67 6.03 -0.34 3.06 0 0 Z " fill="#FDFDFD" transform="translate(431,400)"/>
<path d="M0 0 C4.33716831 4.20302909 7.90994246 9.1599482 11.48046875 14.01171875 C13.55410707 16.72503985 15.80594913 19.25151713 18.09375 21.78515625 C19.49005248 23.4074995 20.81443141 25.09249288 22.09375 26.80859375 C27.02037562 33.33984215 31.00473256 36.91355234 39 39 C39 39.66 39 40.32 39 41 C37.390625 42.359375 37.390625 42.359375 35.25 43.75 C34.55390625 44.21921875 33.8578125 44.6884375 33.140625 45.171875 C31 46 31 46 28.9140625 45.328125 C27.01998844 44.01386953 25.65370127 42.71875603 24.125 41 C16.15202764 32.84042616 6.38154424 26.98380271 -3.71118164 21.84594727 C-8.97948552 19.12702524 -13.53065316 15.87585634 -18 12 C-16.89125042 8.67375126 -16.54334303 8.42640801 -13.69140625 6.73828125 C-13.02689453 6.34189453 -12.36238281 5.94550781 -11.67773438 5.53710938 C-10.63069336 4.93092773 -10.63069336 4.93092773 -9.5625 4.3125 C-8.86833984 3.89677734 -8.17417969 3.48105469 -7.45898438 3.05273438 C-2.28086515 0 -2.28086515 0 0 0 Z " fill="#FEFEFE" transform="translate(294,273)"/>
<path d="M0 0 C2.5 1.6875 2.5 1.6875 4 4 C4.08212606 7.94205105 3.44993888 9.49863954 0.8125 12.4375 C-2 14 -2 14 -5.0625 14.0625 C-8.78456393 12.71622156 -10.08197413 11.45244657 -12 8 C-12 4.49267067 -11.6345092 2.7565302 -9.375 0.0625 C-5.87851531 -1.50171684 -3.65313273 -0.9785177 0 0 Z " fill="#0B0B0B" transform="translate(434,422)"/>
<path d="M0 0 C3.41064554 2.2737637 3.45508344 2.65094991 4.24609375 6.4375 C4.44396484 7.33339844 4.64183594 8.22929687 4.84570312 9.15234375 C5.04099609 10.09207031 5.23628906 11.03179687 5.4375 12 C7.83398592 24.92098683 7.83398592 24.92098683 14.75 35.625 C15.4925 36.07875 16.235 36.5325 17 37 C14.03 39.475 14.03 39.475 11 42 C4.65598751 36.33861294 3.79690516 25.53475038 1.875 17.625 C1.35256629 15.4919414 0.82917354 13.35911739 0.3046875 11.2265625 C0.07765137 10.29408691 -0.14938477 9.36161133 -0.38330078 8.40087891 C-0.85082748 6.58074526 -1.40573847 4.7827846 -2 3 C-1.34 2.01 -0.68 1.02 0 0 Z " fill="#F6F6F6" transform="translate(122,328)"/>
<path d="M0 0 C1.578125 2.625 1.578125 2.625 3.25 6 C5.87564151 11.14388325 8.83731573 15.65222313 12.484375 20.12890625 C14.2504649 22.30920795 15.77400275 24.47138067 17 27 C16.67 27.66 16.34 28.32 16 29 C14.29115995 27.37660195 12.62553283 25.70680947 11 24 C11 23.34 11 22.68 11 22 C10.12021484 21.65775391 10.12021484 21.65775391 9.22265625 21.30859375 C6.40622908 19.65041606 5.22447969 17.78494557 3.4375 15.0625 C1.09669414 11.49313324 1.09669414 11.49313324 -1.71484375 8.30859375 C-3 7 -3 7 -3 5 C-4.32 4.34 -5.64 3.68 -7 3 C-7 2.34 -7 1.68 -7 1 C-3.375 -1.125 -3.375 -1.125 0 0 Z " fill="#FEFEFE" transform="translate(315,263)"/>
<path d="M0 0 C0.0501123 0.66942627 0.10022461 1.33885254 0.15185547 2.02856445 C0.38696898 5.12369261 0.63094213 8.21806478 0.875 11.3125 C0.95363281 12.36501953 1.03226562 13.41753906 1.11328125 14.50195312 C1.66798562 21.43575779 2.61605163 28.18299296 4 35 C3.01 35.66 2.02 36.32 1 37 C-1.9376957 31.95330881 -2.26682553 26.21995147 -3.07958984 20.52783203 C-3.37455837 18.50303158 -3.70060515 16.48472705 -4.02734375 14.46484375 C-4.21167969 13.18738281 -4.39601563 11.90992188 -4.5859375 10.59375 C-4.84963135 8.84094727 -4.84963135 8.84094727 -5.11865234 7.05273438 C-5 4 -5 4 -3.08837891 1.58789062 C-1 0 -1 0 0 0 Z " fill="#F7F7F7" transform="translate(100,356)"/>
<path d="M0 0 C0.33 0 0.66 0 1 0 C1.48164188 2.35368393 1.96036648 4.70790155 2.4375 7.0625 C2.57220703 7.71927734 2.70691406 8.37605469 2.84570312 9.05273438 C3.71470632 13.35535995 4.4172492 17.64917124 5 22 C4.34 22.33 3.68 22.66 3 23 C2.01706733 20.75157909 1.03855534 18.50140453 0.0625 16.25 C-0.21529297 15.61578125 -0.49308594 14.9815625 -0.77929688 14.328125 C-3.71831258 7.52943807 -3.71831258 7.52943807 -4 5 C-2.125 2.25 -2.125 2.25 0 0 Z " fill="#F3F3F3" transform="translate(79,384)"/>
<path d="M0 0 C3.26008643 3.16952847 6.22237877 6.39937989 9 10 C7.68 11.32 6.36 12.64 5 14 C4.16235732 12.04350603 3.33000941 10.08474444 2.5 8.125 C2.0359375 7.03445313 1.571875 5.94390625 1.09375 4.8203125 C0 2 0 2 0 0 Z " fill="#F2F2F2" transform="translate(141,344)"/>
<path d="M0 0 C1.74627478 2.61941217 2.38722388 4.03824877 3 7 C1.02 7.99 1.02 7.99 -1 9 C-0.67 6.03 -0.34 3.06 0 0 Z " fill="#F8F8F8" transform="translate(63,413)"/>
</svg>
