<?xml version="1.0" encoding="UTF-8"?>
<svg version="1.1" xmlns="http://www.w3.org/2000/svg" width="500" height="500">
<path d="M0 0 C4.17155094 3.08930895 6.10992238 7.56657392 7.1328125 12.546875 C7.87520844 24.38613654 1.05113823 36.10419489 -4.34375 46.2265625 C-1.43548408 47.2928075 1.48373162 48.32509515 4.40625 49.3515625 C5.23125 49.65449219 6.05625 49.95742187 6.90625 50.26953125 C7.70546875 50.54667969 8.5046875 50.82382813 9.328125 51.109375 C10.42785645 51.50213623 10.42785645 51.50213623 11.54980469 51.90283203 C15.09603163 52.44783631 17.12141379 50.60990797 19.91796875 48.60546875 C20.71847656 48.00605469 21.51898438 47.40664062 22.34375 46.7890625 C29.45386491 41.78487606 36.84783138 38.81596165 45.65625 40.2265625 C52.4623797 42.54513416 58.55777406 46.70101151 61.90625 53.1640625 C64.44882917 58.5949224 65.70845248 63.42721954 65.96875 69.4140625 C67.0704161 76.98801691 71.21244444 80.28415331 77.00390625 84.60546875 C78.22079015 85.47995206 79.43823411 86.35365656 80.65625 87.2265625 C82.91834017 88.91915765 85.16319035 90.63385628 87.40625 92.3515625 C87.94975098 92.76519043 88.49325195 93.17881836 89.05322266 93.60498047 C109.14449219 109.0443061 120.34412852 129.05796614 125.34375 153.6015625 C129.23887229 198.78498104 112.26839385 241.23534143 87.21875 277.8515625 C86.50654297 278.90601563 85.79433594 279.96046875 85.06054688 281.046875 C81.05919541 286.91988496 76.90340658 292.58164214 72.40429688 298.08349609 C66.53268689 305.28195872 61.16793832 312.92076707 56.04296875 320.6640625 C47.85022506 332.86518913 36.3121665 347.00367131 21.65625 351.2265625 C19.61458532 351.22941001 17.57291526 351.22896164 15.53125 351.2265625 C8.57032194 351.57938673 3.76927012 353.86903545 -2.28125 357.2265625 C-49.23831054 383.20929984 -107.61574886 389.48503867 -159.34375 375.2265625 C-174.22097841 370.69141612 -188.43332747 364.45524258 -200.34375 354.2265625 C-200.34375 353.5665625 -200.34375 352.9065625 -200.34375 352.2265625 C-200.90707031 351.99582031 -201.47039062 351.76507813 -202.05078125 351.52734375 C-218.82023964 342.0141757 -228.58207659 318.15293021 -233.65625 300.6015625 C-237.41099583 286.97744124 -238.72755493 274.29073644 -238.34375 260.2265625 C-238.32570312 258.97359375 -238.30765625 257.720625 -238.2890625 256.4296875 C-237.40534138 231.37359466 -229.51001326 207.13105898 -219.33935547 184.45556641 C-218.54285489 182.67232701 -217.7694725 180.87876836 -217.00390625 179.08203125 C-213.45260254 170.85463368 -208.92589891 163.13245077 -204.52880859 155.33691406 C-202.08868418 150.99154212 -199.71795011 146.60821636 -197.34375 142.2265625 C-196.68375 142.2265625 -196.02375 142.2265625 -195.34375 142.2265625 C-195.07820313 141.50726563 -194.81265625 140.78796875 -194.5390625 140.046875 C-188.95225778 126.86493708 -178.47030762 115.08683895 -169.34375 104.2265625 C-168.66570312 103.411875 -167.98765625 102.5971875 -167.2890625 101.7578125 C-166.66773438 101.025625 -166.04640625 100.2934375 -165.40625 99.5390625 C-164.86097656 98.89582031 -164.31570312 98.25257813 -163.75390625 97.58984375 C-162.34375 96.2265625 -162.34375 96.2265625 -160.34375 96.2265625 C-160.12847656 95.68257813 -159.91320312 95.13859375 -159.69140625 94.578125 C-157.87995359 91.41727137 -155.38878977 89.09892454 -152.78125 86.6015625 C-149.11660984 83.26253348 -149.11660984 83.26253348 -146.34375 79.2265625 C-145.68375 79.2265625 -145.02375 79.2265625 -144.34375 79.2265625 C-144.11300781 78.65164062 -143.88226563 78.07671875 -143.64453125 77.484375 C-141.16271538 73.17659851 -136.80609758 70.49812804 -132.93652344 67.47509766 C-131.37719484 66.25277907 -129.83292179 65.01133111 -128.2890625 63.76953125 C-115.69772433 53.80008021 -102.07999932 45.959148 -87.96875 38.3515625 C-87.36892303 38.02668854 -86.76909607 37.70181458 -86.15109253 37.36709595 C-80.47761793 34.30313048 -74.87199474 31.33646934 -68.8359375 29.05078125 C-64.89852195 27.54852549 -62.01899865 25.74264635 -58.84375 22.9140625 C-49.40695698 14.83479697 -39.1057343 8.37537422 -28.34375 2.2265625 C-27.51746094 1.74445312 -26.69117188 1.26234375 -25.83984375 0.765625 C-18.27119213 -3.16505595 -7.84041558 -3.55476469 0 0 Z M-53.09375 59.7265625 C-54.07859375 60.190625 -55.0634375 60.6546875 -56.078125 61.1328125 C-56.82578125 61.49375 -57.5734375 61.8546875 -58.34375 62.2265625 C-58.34375 62.5565625 -58.34375 62.8865625 -58.34375 63.2265625 C-53.39375 64.2165625 -53.39375 64.2165625 -48.34375 65.2265625 C-46.69375 62.5865625 -45.04375 59.9465625 -43.34375 57.2265625 C-47.53940574 57.2265625 -49.37461031 57.9555436 -53.09375 59.7265625 Z M-15.34375 62.2265625 C-27.55253773 75.56651499 -27.55253773 75.56651499 -35.34375 90.2265625 C-29.67813937 90.79247225 -29.67813937 90.79247225 -24.84375 88.3515625 C-23.15152227 86.38775346 -23.15152227 86.38775346 -23.34375 84.2265625 C-22.68375 84.2265625 -22.02375 84.2265625 -21.34375 84.2265625 C-21.34375 83.5665625 -21.34375 82.9065625 -21.34375 82.2265625 C-20.68375 82.2265625 -20.02375 82.2265625 -19.34375 82.2265625 C-18.26152454 81.10942654 -17.18140516 79.99020452 -16.109375 78.86328125 C-12.9222334 75.90882919 -9.31176668 73.50298026 -5.76953125 70.99609375 C-3.31676711 69.30260977 -3.31676711 69.30260977 -1.34375 67.2265625 C-2.354375 66.7728125 -3.365 66.3190625 -4.40625 65.8515625 C-4.97472656 65.59632812 -5.54320312 65.34109375 -6.12890625 65.078125 C-9.14449909 63.91869072 -12.2313401 63.08593138 -15.34375 62.2265625 Z M-118.34375 76.2265625 C-128.58702416 85.64581552 -138.46935926 95.25554674 -147.82275391 105.56152344 C-149.20250742 107.07194381 -150.6058509 108.56073065 -152.01171875 110.046875 C-166.18926477 125.1485536 -176.76926084 142.52219018 -187.34375 160.2265625 C-187.7876709 160.96213379 -188.2315918 161.69770508 -188.68896484 162.45556641 C-203.41248733 186.89344738 -213.58721286 213.32971423 -219.34375 241.2265625 C-219.55902344 242.20753906 -219.77429688 243.18851563 -219.99609375 244.19921875 C-220.56551949 249.15770128 -220.44616003 254.11587919 -220.40625 259.1015625 C-220.40173828 260.17148437 -220.39722656 261.24140625 -220.39257812 262.34375 C-220.38084749 264.97141236 -220.36443228 267.59895788 -220.34375 270.2265625 C-215.26158698 260.38322932 -213.13920856 249.6824243 -212.34375 238.7265625 C-210.86721288 219.80981761 -203.52792079 204.18804676 -195.34375 187.2265625 C-194.7878418 186.05915527 -194.7878418 186.05915527 -194.22070312 184.86816406 C-189.48768184 174.94335455 -184.11873348 165.4707839 -178.44091797 156.05810547 C-177.50778915 154.5003991 -176.5971402 152.92926179 -175.69140625 151.35546875 C-169.94170535 141.40100043 -162.61996315 132.51560993 -155.50561523 123.51757812 C-153.22399976 120.63084719 -150.95936428 117.73443017 -148.73828125 114.80078125 C-143.57221051 107.97830676 -138.14241439 101.52567448 -132.34375 95.2265625 C-131.17223346 93.89748843 -130.00530394 92.56435222 -128.84375 91.2265625 C-124.73458717 86.50827671 -120.53866508 81.8685547 -116.34375 77.2265625 C-117.33375 76.7315625 -117.33375 76.7315625 -118.34375 76.2265625 Z M24.65625 77.2265625 C21.94710339 81.29028241 22.27389257 84.44928884 22.28125 89.2265625 C22.27996094 90.07710205 22.27867187 90.9276416 22.27734375 91.80395508 C22.38983792 98.52484231 23.61126639 104.17737632 26.65625 110.2265625 C30.12566546 109.76833782 33.33020049 109.33524567 36.65625 108.2265625 C37.65613149 105.87167964 37.65613149 105.87167964 38.28125 103.0390625 C38.65056641 101.53666016 38.65056641 101.53666016 39.02734375 100.00390625 C40.39738126 93.95361638 40.77990023 88.40907376 40.65625 82.2265625 C38.74342875 81.38443994 36.82582527 80.55317386 34.90625 79.7265625 C33.83890625 79.2625 32.7715625 78.7984375 31.671875 78.3203125 C28.56417284 76.99925533 28.56417284 76.99925533 24.65625 77.2265625 Z M64.65625 98.2265625 C64.32625 99.8765625 63.99625 101.5265625 63.65625 103.2265625 C65.96625 103.2265625 68.27625 103.2265625 70.65625 103.2265625 C69.0108122 101.53893399 67.34336423 99.8725276 65.65625 98.2265625 C65.32625 98.2265625 64.99625 98.2265625 64.65625 98.2265625 Z M-92.96875 117.6015625 C-94.55906408 119.12624571 -94.55906408 119.12624571 -94.34375 121.2265625 C-94.983125 121.5153125 -95.6225 121.8040625 -96.28125 122.1015625 C-98.49581079 123.05479701 -98.49581079 123.05479701 -99.34375 125.2265625 C-94.04874087 123.86498872 -92.10629467 120.62312295 -89.34375 116.2265625 C-91.44406679 116.01124842 -91.44406679 116.01124842 -92.96875 117.6015625 Z M81.65625 154.2265625 C78.13610998 160.194966 76.24684792 164.81026363 77.09375 171.7890625 C78.50177645 183.75070774 74.39948745 195.94013443 70.65625 207.2265625 C81.34641561 197.20453224 82.17034873 182.40434197 82.77197266 168.56445312 C82.8850827 163.77888683 82.82753592 159.00988053 82.65625 154.2265625 C82.32625 154.2265625 81.99625 154.2265625 81.65625 154.2265625 Z M-83.34375 161.2265625 C-83.34375 164.2265625 -83.34375 164.2265625 -83.34375 164.2265625 Z M-86.34375 165.2265625 C-92.73447325 172.06494511 -98.53680047 179.17231842 -104.15136719 186.64892578 C-105.22505377 188.06951602 -106.31838926 189.47520412 -107.4140625 190.87890625 C-118.66592903 205.44643688 -128.85387178 221.07419456 -138.05615234 237.01074219 C-139.630849 239.72062973 -141.23271084 242.41394847 -142.83203125 245.109375 C-151.10974585 259.15474675 -158.60028999 273.38284382 -165.34375 288.2265625 C-164.68375 288.5565625 -164.02375 288.8865625 -163.34375 289.2265625 C-162.89644531 288.63488281 -162.44914062 288.04320312 -161.98828125 287.43359375 C-161.38371094 286.64339844 -160.77914062 285.85320312 -160.15625 285.0390625 C-159.56457031 284.26175781 -158.97289062 283.48445313 -158.36328125 282.68359375 C-156.34375 280.2265625 -156.34375 280.2265625 -153.8671875 277.76953125 C-150.42269712 274.29838072 -147.68175805 270.44554117 -144.80078125 266.50390625 C-143.21561554 264.35165845 -141.59001243 262.33793312 -139.85546875 260.29296875 C-133.79933508 253.0500966 -130.14828801 245.78227773 -126.60424805 237.03979492 C-123.46123752 229.305353 -119.63234817 222.38034832 -115.34375 215.2265625 C-114.37545831 213.4611547 -113.41670117 211.69047519 -112.46875 209.9140625 C-104.38987038 195.06286062 -95.61158399 180.67979714 -85.34375 167.2265625 C-85.83875 166.2365625 -85.83875 166.2365625 -86.34375 165.2265625 Z M104.65625 191.2265625 C105.65625 193.2265625 105.65625 193.2265625 105.65625 193.2265625 Z M103.65625 193.2265625 C100.4518256 199.08222646 98.63076281 204.44407517 97.34375 210.9765625 C97.16263672 211.81316406 96.98152344 212.64976562 96.79492188 213.51171875 C95.98101162 217.48309407 95.4295217 220.28727218 96.65625 224.2265625 C97.62041024 221.41594444 98.57765841 218.60326652 99.53125 215.7890625 C99.80066406 215.00595703 100.07007813 214.22285156 100.34765625 213.41601562 C104.13407769 203.46974304 104.13407769 203.46974304 103.65625 193.2265625 Z M-24.34375 202.2265625 C-23.34375 204.2265625 -23.34375 204.2265625 -23.34375 204.2265625 Z M-25.34375 204.2265625 C-28.68251099 209.98460628 -31.77445528 215.84569116 -34.83666992 221.75415039 C-37.0398333 225.94659964 -39.38540349 229.81234698 -42.15625 233.6640625 C-46.7846587 240.64443645 -48.21189665 249.03727064 -49.34375 257.2265625 C-49.01375 258.2165625 -48.68375 259.2065625 -48.34375 260.2265625 C-42.2044243 252.52449935 -38.96709496 244.96539841 -36.07788086 235.60546875 C-33.62329767 227.74631799 -30.50568748 220.2944763 -27.09985352 212.80297852 C-26.72658936 211.96951904 -26.3533252 211.13605957 -25.96875 210.27734375 C-25.63101563 209.54169189 -25.29328125 208.80604004 -24.9453125 208.0480957 C-24.08389977 206.15864593 -24.08389977 206.15864593 -25.34375 204.2265625 Z M94.65625 224.2265625 C95.65625 227.2265625 95.65625 227.2265625 95.65625 227.2265625 Z M93.65625 228.2265625 C94.65625 230.2265625 94.65625 230.2265625 94.65625 230.2265625 Z M53.65625 275.2265625 C54.65625 277.2265625 54.65625 277.2265625 54.65625 277.2265625 Z M52.65625 277.2265625 C45.3527221 285.11914706 45.3527221 285.11914706 38.21875 293.1640625 C30.51633387 302.00621562 22.68149997 310.48569223 13.8359375 318.203125 C11.49079637 320.22296717 11.49079637 320.22296717 9.65625 323.2265625 C9.96465599 325.37931198 9.96465599 325.37931198 10.65625 327.2265625 C14.76855198 327.2265625 15.24947734 327.15686893 18.265625 324.84765625 C18.93392334 324.34258545 19.60222168 323.83751465 20.29077148 323.31713867 C21.33793335 322.49886597 21.33793335 322.49886597 22.40625 321.6640625 C23.48531616 320.82935425 23.48531616 320.82935425 24.58618164 319.9777832 C25.99824683 318.88000864 27.4066721 317.77753259 28.81103516 316.66992188 C30.24153085 315.55096308 31.69958096 314.46718631 33.16796875 313.3984375 C43.13131519 305.71877899 49.78658578 290.98697681 53.65625 279.2265625 C53.16125 278.2365625 53.16125 278.2365625 52.65625 277.2265625 Z M-32.21484375 331.53515625 C-33.09325917 332.55887347 -33.94847584 333.60288495 -34.78125 334.6640625 C-35.22662109 335.19322266 -35.67199219 335.72238281 -36.13085938 336.26757812 C-37.22234397 337.5703178 -38.28594764 338.89632814 -39.34375 340.2265625 C-39.01375 341.2165625 -38.68375 342.2065625 -38.34375 343.2265625 C-34.27135702 342.69971446 -32.12776363 341.59607101 -29.09375 338.8515625 C-28.40796875 338.24570312 -27.7221875 337.63984375 -27.015625 337.015625 C-25.11295257 335.22865262 -25.11295257 335.22865262 -24.34375 332.2265625 C-23.68375 332.2265625 -23.02375 332.2265625 -22.34375 332.2265625 C-22.34375 331.5665625 -22.34375 330.9065625 -22.34375 330.2265625 C-27.66036133 328.79244564 -27.66036133 328.79244564 -32.21484375 331.53515625 Z M-145.09375 347.2265625 C-154.76507443 350.6258894 -165.23644436 349.56056091 -175.34375 349.2265625 C-159.17038746 360.00880419 -136.35543841 364.36835782 -117.21875 364.39453125 C-115.92191284 364.39952385 -115.92191284 364.39952385 -114.59887695 364.40461731 C-112.77344287 364.40965989 -110.94799964 364.41202646 -109.12255859 364.41186523 C-106.37972068 364.41403406 -103.63729725 364.43216945 -100.89453125 364.45117188 C-87.43965806 364.49537492 -74.4588335 363.66495739 -61.40625 360.1015625 C-60.71080078 359.91980469 -60.01535156 359.73804688 -59.29882812 359.55078125 C-57.64501966 359.11736938 -55.99401335 358.67328293 -54.34375 358.2265625 C-56.11935822 356.13805309 -56.11935822 356.13805309 -58.34375 354.2265625 C-61.62200327 354.39768533 -61.62200327 354.39768533 -63.9375 354.85546875 C-70.1412135 355.81221028 -76.67877065 355.89504296 -82.71875 354.1015625 C-86.22778919 352.91362623 -86.22778919 352.91362623 -89.109375 354.16015625 C-94.6462183 355.98570966 -100.38520418 355.44125302 -106.15185547 355.28417969 C-107.60116941 355.24608233 -109.05078204 355.21791869 -110.50048828 355.20019531 C-120.56411274 355.0662907 -128.28198816 354.15512008 -135.71875 346.9140625 C-136.255 346.3571875 -136.79125 345.8003125 -137.34375 345.2265625 C-140.61961002 345.2265625 -142.10929866 345.95508027 -145.09375 347.2265625 Z " fill="#000000" transform="translate(301.34375,53.7734375)"/>
</svg>
