<?xml version="1.0" encoding="UTF-8"?>
<svg version="1.1" xmlns="http://www.w3.org/2000/svg" width="500" height="500">
<path d="M0 0 C4.69078774 4.30391864 7.63248087 8.54703571 8.16796875 15.03515625 C8.01854829 23.17177931 3.86339112 29.89480465 0.1171875 36.87695312 C-0.9878182 38.97685032 -2.03392295 41.09612155 -3.0625 43.234375 C-9.31005215 56.21274895 -17.18594471 67.48859951 -26.875 78.1875 C-29.90250509 81.65925855 -32.35558217 85.46762053 -34.875 89.3125 C-39.61171321 96.5330349 -44.77284775 103.20303703 -50.3671875 109.78515625 C-54.89357392 115.13644487 -59.16349324 120.51565621 -63.1875 126.25 C-69.08622962 134.59668552 -74.82291532 141.07959293 -83.01953125 147.21533203 C-90.62301584 152.91139075 -97.41331908 159.36648328 -104.08984375 166.109375 C-109.74073261 171.70248381 -115.92852551 176.56768235 -122.2565918 181.36083984 C-126.84249703 184.83835011 -131.34766298 188.33154262 -135.40234375 192.42578125 C-138.60569349 195.60022858 -142.03627654 198.38247072 -145.5625 201.1875 C-146.22185547 201.72052734 -146.88121094 202.25355469 -147.56054688 202.80273438 C-148.20185547 203.31513672 -148.84316406 203.82753906 -149.50390625 204.35546875 C-150.07955322 204.81590576 -150.6552002 205.27634277 -151.24829102 205.75073242 C-154.3510395 207.96352183 -156.19093521 209.04953458 -160.0625 208.8125 C-163.12909218 207.96429365 -164.27569441 207.63183484 -166 205 C-167.19478416 200.3294801 -167.02463613 195.7843367 -167 191 C-167.75023437 191.71285156 -168.50046875 192.42570313 -169.2734375 193.16015625 C-190.26446676 212.90139067 -190.26446676 212.90139067 -203.17578125 214.22265625 C-206.12158033 213.96403149 -208.02666182 212.98154181 -210.4375 211.3125 C-212.53174715 208.21301421 -212.39922151 206.71883511 -212 203 C-210.85016691 200.22412558 -209.35869934 197.69682359 -207.8125 195.125 C-207.40265869 194.42117187 -206.99281738 193.71734375 -206.57055664 192.9921875 C-203.80683056 188.27029838 -200.9683523 183.59615841 -198 179 C-198.99 179.33 -199.98 179.66 -201 180 C-203.26763574 180.14648082 -205.54032366 180.2209626 -207.8125 180.25 C-209.61654297 180.28867187 -209.61654297 180.28867187 -211.45703125 180.328125 C-215.35374815 179.96723832 -217.69915558 179.07206292 -221 177 C-223.51996398 173.06255628 -224.37997279 170.43461122 -223.625 165.8125 C-221.93445161 159.64199836 -218.39679244 154.35735721 -215 149 C-214.36771484 147.96166016 -214.36771484 147.96166016 -213.72265625 146.90234375 C-212.6875 145.25 -212.6875 145.25 -211 143 C-210.34 143 -209.68 143 -209 143 C-208.75636719 142.443125 -208.51273438 141.88625 -208.26171875 141.3125 C-206.74340799 138.52971372 -204.91426448 136.37307659 -202.8125 134 C-202.07644531 133.154375 -201.34039062 132.30875 -200.58203125 131.4375 C-198 129 -198 129 -194.59765625 127.25390625 C-189.81422594 124.6802514 -187.44781715 120.4361415 -184.625 115.9375 C-184.09261719 115.12216797 -183.56023437 114.30683594 -183.01171875 113.46679688 C-180.08389764 108.94376871 -180.08389764 108.94376871 -178 104 C-177.34 104 -176.68 104 -176 104 C-175.731875 103.41734375 -175.46375 102.8346875 -175.1875 102.234375 C-173.98519009 99.97213399 -172.66174087 98.19423682 -171 96.25 C-170.484375 95.63640625 -169.96875 95.0228125 -169.4375 94.390625 C-168 93 -168 93 -166 93 C-165.773125 92.443125 -165.54625 91.88625 -165.3125 91.3125 C-162.38220967 86.14960751 -157.34533189 82.52650651 -152.90234375 78.6875 C-151.39851326 77.35350663 -149.96584527 75.93932849 -148.5625 74.5 C-145.65276373 71.66123291 -142.53543551 69.27293073 -139.28125 66.84375 C-136.65389178 64.7202687 -134.36066096 62.41857039 -132 60 C-129.40016552 57.37069546 -126.79351539 54.74817636 -124.1875 52.125 C-123.51396484 51.44308594 -122.84042969 50.76117188 -122.14648438 50.05859375 C-118.1718479 46.06493988 -114.08785819 42.28492294 -109.81958008 38.60791016 C-107.32785715 36.40604685 -105.04563426 34.02891889 -102.75 31.625 C-95.57111579 24.36623947 -87.50740153 18.6310369 -79 13 C-78.05640625 12.36320312 -77.1128125 11.72640625 -76.140625 11.0703125 C-74.11738608 9.70872739 -72.08678617 8.35804583 -70.05078125 7.015625 C-68.24105075 5.81995159 -66.44198365 4.60742569 -64.66796875 3.359375 C-46.30790183 -8.85923346 -18.50345085 -13.72836676 0 0 Z " fill="#FFFFFF" transform="translate(440,51)"/>
<path d="M0 0 C3.1724574 2.95366723 3.4809685 5.80528175 4 10 C4.11311531 13.29310924 4.09475066 16.5804709 4.0625 19.875 C4.05798828 20.75414062 4.05347656 21.63328125 4.04882812 22.5390625 C4.03712337 24.69273803 4.01919069 26.84637817 4 29 C4.42539063 28.51015625 4.85078125 28.0203125 5.2890625 27.515625 C7 26 7 26 10.375 25.75 C14 26 14 26 16.35546875 26.52734375 C19.30913343 27.05525132 21.94390572 26.95505211 24.9375 26.8125 C30.3743223 26.75223965 33.0022908 27.32642938 37 31 C38.38550197 33.77100394 38.1877467 35.9334706 38 39 C36 42 36 42 33.0625 42.8125 C30 43 30 43 27 41 C23.58453106 41.36334776 20.31362249 42.10787087 17 43 C16.93167969 44.02738281 16.86335937 45.05476563 16.79296875 46.11328125 C16.04161163 52.07824381 13.96728288 57.63013263 11.98168945 63.27954102 C11.32130535 65.16239463 10.67713634 67.05091006 10.03320312 68.93945312 C7.51758558 76.18276217 4.68875347 83.14755908 1.36987305 90.06054688 C-0.04804778 93.1031002 -1.28795815 96.18291477 -2.5 99.3125 C-4.65831856 104.56302495 -7.35303617 108.68122705 -11 113 C-11.46921875 113.60070312 -11.9384375 114.20140625 -12.421875 114.8203125 C-13.55940138 116.2589488 -14.77310324 117.63678138 -16 119 C-16.66 119 -17.32 119 -18 119 C-17.525625 119.78375 -17.05125 120.5675 -16.5625 121.375 C-11.88151324 132.23488929 -14.23014955 144.69705332 -18.125 155.5 C-27.17684612 177.21915264 -41.16129004 193.45157363 -62.96875 202.8203125 C-70.25089149 205.65434179 -77.18301733 207.56351873 -85 208 C-86.15822266 208.07927734 -86.15822266 208.07927734 -87.33984375 208.16015625 C-100.30406526 208.61959707 -114.58208646 207.20357969 -125 199 C-126.051875 198.278125 -127.10375 197.55625 -128.1875 196.8125 C-134.88861921 190.11138079 -140.26741178 181.50646749 -140.3125 171.8125 C-140.32925781 170.97332031 -140.34601563 170.13414062 -140.36328125 169.26953125 C-139.91396756 166.46252853 -139.26910682 165.6754159 -137 164 C-134.84375 163.0859375 -134.84375 163.0859375 -132.5 162.375 C-131.7265625 162.13523437 -130.953125 161.89546875 -130.15625 161.6484375 C-129.08890625 161.32746094 -129.08890625 161.32746094 -128 161 C-127.01 160.67 -126.02 160.34 -125 160 C-123.78130071 157.49552484 -123.78130071 157.49552484 -123 155 C-122.34 155 -121.68 155 -121 155 C-120.690625 154.01 -120.690625 154.01 -120.375 153 C-118.50875748 148.92819814 -116.02438473 145.31203002 -113 142 C-112.34 142 -111.68 142 -111 142 C-110.59394531 141.16275391 -110.59394531 141.16275391 -110.1796875 140.30859375 C-109.37573366 138.73529335 -108.52416482 137.18564207 -107.6328125 135.66015625 C-104.78545417 130.75473322 -102.62560548 126.16738966 -101.125 120.6875 C-97.96804083 109.83221826 -93.21635049 100.39086266 -83.39453125 94.234375 C-77.86697874 91.38493521 -74.15945377 90.70196191 -68 91 C-66.515 91.495 -66.515 91.495 -65 92 C-65.01450195 91.40791748 -65.02900391 90.81583496 -65.04394531 90.20581055 C-65.32888434 69.30960348 -60.09949539 49.72714005 -53.37402344 30.14208984 C-53.08172852 29.28824707 -52.78943359 28.4344043 -52.48828125 27.5546875 C-52.22571533 26.79655762 -51.96314941 26.03842773 -51.69262695 25.25732422 C-50.03737575 20.60104596 -50.03737575 20.60104596 -51 16.0625 C-52.44943471 13.07304091 -51.88567483 11.13392632 -51 8 C-48 6 -48 6 -45.0703125 6.03125 C-41.05385331 7.29852974 -40.11070007 8.9880501 -37.875 12.5 C-35.52481735 16.39849958 -35.52481735 16.39849958 -31.984375 19.01953125 C-29.2202969 18.99232576 -28.37279194 18.07052517 -26.375 16.1875 C-25.6840625 15.54683594 -24.993125 14.90617187 -24.28125 14.24609375 C-20.95443375 10.97054692 -17.70272756 7.6238632 -14.4921875 4.234375 C-9.91963073 0.13484135 -6.03376564 -2.01125521 0 0 Z " fill="#010101" transform="translate(223,273)"/>
<path d="M0 0 C4.69078774 4.30391864 7.63248087 8.54703571 8.16796875 15.03515625 C8.01854829 23.17177931 3.86339112 29.89480465 0.1171875 36.87695312 C-0.9878182 38.97685032 -2.03392295 41.09612155 -3.0625 43.234375 C-9.31005215 56.21274895 -17.18594471 67.48859951 -26.875 78.1875 C-29.90250509 81.65925855 -32.35558217 85.46762053 -34.875 89.3125 C-39.61171321 96.5330349 -44.77284775 103.20303703 -50.3671875 109.78515625 C-54.89357392 115.13644487 -59.16349324 120.51565621 -63.1875 126.25 C-69.08622962 134.59668552 -74.82291532 141.07959293 -83.01953125 147.21533203 C-90.62301584 152.91139075 -97.41331908 159.36648328 -104.08984375 166.109375 C-109.74073261 171.70248381 -115.92852551 176.56768235 -122.2565918 181.36083984 C-126.84249703 184.83835011 -131.34766298 188.33154262 -135.40234375 192.42578125 C-138.60569349 195.60022858 -142.03627654 198.38247072 -145.5625 201.1875 C-146.22185547 201.72052734 -146.88121094 202.25355469 -147.56054688 202.80273438 C-148.20185547 203.31513672 -148.84316406 203.82753906 -149.50390625 204.35546875 C-150.07955322 204.81590576 -150.6552002 205.27634277 -151.24829102 205.75073242 C-154.3510395 207.96352183 -156.19093521 209.04953458 -160.0625 208.8125 C-163.12909218 207.96429365 -164.27569441 207.63183484 -166 205 C-167.19478416 200.3294801 -167.02463613 195.7843367 -167 191 C-167.75023437 191.71285156 -168.50046875 192.42570313 -169.2734375 193.16015625 C-190.26446676 212.90139067 -190.26446676 212.90139067 -203.17578125 214.22265625 C-206.12158033 213.96403149 -208.02666182 212.98154181 -210.4375 211.3125 C-212.53174715 208.21301421 -212.39922151 206.71883511 -212 203 C-210.85016691 200.22412558 -209.35869934 197.69682359 -207.8125 195.125 C-207.40265869 194.42117187 -206.99281738 193.71734375 -206.57055664 192.9921875 C-203.80683056 188.27029838 -200.9683523 183.59615841 -198 179 C-198.99 179.33 -199.98 179.66 -201 180 C-203.26763574 180.14648082 -205.54032366 180.2209626 -207.8125 180.25 C-209.61654297 180.28867187 -209.61654297 180.28867187 -211.45703125 180.328125 C-215.35374815 179.96723832 -217.69915558 179.07206292 -221 177 C-223.51996398 173.06255628 -224.37997279 170.43461122 -223.625 165.8125 C-221.93445161 159.64199836 -218.39679244 154.35735721 -215 149 C-214.36771484 147.96166016 -214.36771484 147.96166016 -213.72265625 146.90234375 C-212.6875 145.25 -212.6875 145.25 -211 143 C-210.34 143 -209.68 143 -209 143 C-208.75636719 142.443125 -208.51273438 141.88625 -208.26171875 141.3125 C-206.74340799 138.52971372 -204.91426448 136.37307659 -202.8125 134 C-202.07644531 133.154375 -201.34039062 132.30875 -200.58203125 131.4375 C-198 129 -198 129 -194.59765625 127.25390625 C-189.81422594 124.6802514 -187.44781715 120.4361415 -184.625 115.9375 C-184.09261719 115.12216797 -183.56023437 114.30683594 -183.01171875 113.46679688 C-180.08389764 108.94376871 -180.08389764 108.94376871 -178 104 C-177.34 104 -176.68 104 -176 104 C-175.731875 103.41734375 -175.46375 102.8346875 -175.1875 102.234375 C-173.98519009 99.97213399 -172.66174087 98.19423682 -171 96.25 C-170.484375 95.63640625 -169.96875 95.0228125 -169.4375 94.390625 C-168 93 -168 93 -166 93 C-165.773125 92.443125 -165.54625 91.88625 -165.3125 91.3125 C-162.38220967 86.14960751 -157.34533189 82.52650651 -152.90234375 78.6875 C-151.39851326 77.35350663 -149.96584527 75.93932849 -148.5625 74.5 C-145.65276373 71.66123291 -142.53543551 69.27293073 -139.28125 66.84375 C-136.65389178 64.7202687 -134.36066096 62.41857039 -132 60 C-129.40016552 57.37069546 -126.79351539 54.74817636 -124.1875 52.125 C-123.51396484 51.44308594 -122.84042969 50.76117188 -122.14648438 50.05859375 C-118.1718479 46.06493988 -114.08785819 42.28492294 -109.81958008 38.60791016 C-107.32785715 36.40604685 -105.04563426 34.02891889 -102.75 31.625 C-95.57111579 24.36623947 -87.50740153 18.6310369 -79 13 C-78.05640625 12.36320312 -77.1128125 11.72640625 -76.140625 11.0703125 C-74.11738608 9.70872739 -72.08678617 8.35804583 -70.05078125 7.015625 C-68.24105075 5.81995159 -66.44198365 4.60742569 -64.66796875 3.359375 C-46.30790183 -8.85923346 -18.50345085 -13.72836676 0 0 Z M-72.93945312 28.58984375 C-74.64073174 29.7541311 -76.35747074 30.89579288 -78.078125 32.03125 C-84.63356137 36.50621854 -90.01075476 41.85926288 -95.53076172 47.51757812 C-98.8123237 50.86832214 -102.0513137 53.99161027 -105.8125 56.8125 C-111.87007452 61.40649947 -117.04110305 66.94166549 -122.31762695 72.3918457 C-126.58101118 76.7528611 -130.93377461 80.62527174 -135.80200195 84.29614258 C-139.41294184 87.0952928 -142.73177686 90.18973742 -146.0625 93.3125 C-146.73732422 93.93189453 -147.41214844 94.55128906 -148.10742188 95.18945312 C-148.74357422 95.78306641 -149.37972656 96.37667969 -150.03515625 96.98828125 C-150.6062915 97.51977783 -151.17742676 98.05127441 -151.76586914 98.59887695 C-153.22032423 99.93894607 -153.22032423 99.93894607 -153 102 C-153.556875 102.2165625 -154.11375 102.433125 -154.6875 102.65625 C-157.74063582 104.43036946 -159.76831389 106.82108626 -162 109.5 C-162.47131348 110.06098389 -162.94262695 110.62196777 -163.42822266 111.19995117 C-170.07388047 119.30337323 -175.86932941 128.16416359 -181.28613281 137.12841797 C-183.84478168 141.35726826 -186.54997782 144.92060198 -190 148.5 C-193.99263127 152.77271138 -197.12393041 156.91894372 -200 162 C-198.24967156 161.85816304 -196.49974466 161.71136571 -194.75 161.5625 C-193.77546875 161.48128906 -192.8009375 161.40007812 -191.796875 161.31640625 C-189.42661453 161.04826226 -187.29768582 160.60465416 -185 160 C-180.62540261 159.52277119 -178.71018487 159.50135956 -175.0625 162.0625 C-172.48352319 165.73558819 -172.44895704 167.59165633 -173 172 C-174 174.9375 -174 174.9375 -175 177 C-174.030625 176.113125 -173.06125 175.22625 -172.0625 174.3125 C-167.22173904 170.18707416 -162.12694199 166.35399343 -155.6875 165.625 C-153.38826828 165.94582303 -151.2181345 166.31749708 -149 167 C-147.69732824 172.50016964 -148.28966569 177.47032059 -149 183 C-146.08300233 181.69519244 -144.20060053 180.35928334 -142.0625 178 C-138.85706854 174.6845108 -135.36646015 171.88928094 -131.6875 169.125 C-126.66487765 165.34257569 -121.92532585 161.3781854 -117.30078125 157.109375 C-114.406037 154.45544988 -111.41116476 151.92870097 -108.3984375 149.41015625 C-106.76528324 148.09431517 -106.76528324 148.09431517 -107 146 C-106.15695312 145.63648438 -106.15695312 145.63648438 -105.296875 145.265625 C-102.54610337 143.7498937 -100.54211197 141.89611758 -98.25 139.75 C-95.23038108 136.96504355 -92.25501196 134.39377307 -88.875 132.0625 C-81.36860553 126.57589842 -76.36142479 118.16937217 -70.9921875 110.7109375 C-68.47034377 107.27925211 -65.81004311 103.97423811 -63.13671875 100.66015625 C-56.88181589 92.87297372 -50.9730535 85.12344086 -45.7109375 76.625 C-41.83273888 70.67488705 -37.20575446 65.31078007 -32.4375 60.0625 C-24.92166926 51.51448612 -19.9126983 41.30849762 -15 31.125 C-14.3973933 29.91653804 -13.79452974 28.70820412 -13.19140625 27.5 C-12.63324219 26.34757812 -12.07507813 25.19515625 -11.5 24.0078125 C-10.74203125 22.45537842 -10.74203125 22.45537842 -9.96875 20.87158203 C-8.89826648 17.69844011 -8.93362065 16.14180582 -10 13 C-11.44573033 11.59500712 -11.44573033 11.59500712 -13.3125 10.75 C-13.90675781 10.43546875 -14.50101563 10.1209375 -15.11328125 9.796875 C-34.72764782 1.51254626 -57.65849271 18.08665132 -72.93945312 28.58984375 Z " fill="#000000" transform="translate(440,51)"/>
<path d="M0 0 C0.33 0 0.66 0 1 0 C0.97381592 0.73114014 0.94763184 1.46228027 0.9206543 2.21557617 C0.81649856 5.53933082 0.75161379 8.86274194 0.6875 12.1875 C0.6246582 13.91323242 0.6246582 13.91323242 0.56054688 15.67382812 C0.35884713 22.38915637 0.35884713 22.38915637 3.3125 28.21875 C6.15486124 30.10264059 8.70294133 31.15656639 12 32 C11.22782556 37.08174257 9.39437275 41.76252806 7.625 46.5625 C7.32078125 47.41263672 7.0165625 48.26277344 6.703125 49.13867188 C6.40148437 49.96044922 6.09984375 50.78222656 5.7890625 51.62890625 C5.51787598 52.37213135 5.24668945 53.11535645 4.96728516 53.88110352 C3.88968934 56.24164216 2.73196318 58.0657285 1 60 C-14.80133652 62.79451465 -25.78830882 54.53190157 -38 46 C-37.80631933 38.48166863 -36.31531062 31.29853092 -34.625 24 C-34.31139526 22.60164917 -34.31139526 22.60164917 -33.99145508 21.17504883 C-33.67470825 19.85089966 -33.67470825 19.85089966 -33.3515625 18.5 C-33.16416504 17.7059375 -32.97676758 16.911875 -32.78369141 16.09375 C-31.89789089 13.72720008 -30.99332878 12.53998599 -29 11 C-26.8125 11.3125 -26.8125 11.3125 -24 12 C-17.6095023 12.52381129 -13.2977599 11.71557727 -8 8 C-5.75112887 5.95059396 -3.64116509 3.83436099 -1.56640625 1.609375 C-1.04949219 1.07828125 -0.53257812 0.5471875 0 0 Z " fill="#FFFFFF" transform="translate(212,292)"/>
<path d="M0 0 C1.051875 0.58007812 1.051875 0.58007812 2.125 1.171875 C4.10269541 2.25745781 6.08473593 3.33515017 8.0703125 4.40625 C9.7461046 5.3178809 11.41390791 6.24551191 13.0546875 7.21875 C20.01962344 11.16455062 28.09196922 12 36 12 C35.37368079 22.02110743 23.85355246 30.57170404 17 37 C13.68629 39.20914 12.6553979 39.22481553 8.8125 39.125 C7.91144531 39.10695313 7.01039063 39.08890625 6.08203125 39.0703125 C5.39496094 39.04710937 4.70789063 39.02390625 4 39 C-0.07962767 31.13214663 -0.85635727 25.75139857 1 17 C0.67 16.67 0.34 16.34 0 16 C-0.07319621 13.30345146 -0.09242537 10.63308542 -0.0625 7.9375 C-0.05798828 7.17888672 -0.05347656 6.42027344 -0.04882812 5.63867188 C-0.0370068 3.75908129 -0.01907078 1.87953101 0 0 Z " fill="#FEFEFE" transform="translate(172,353)"/>
<path d="M0 0 C-0.19335938 0.65742188 -0.38671875 1.31484375 -0.5859375 1.9921875 C-5.05178263 18.30799791 -5.35026972 34.89116784 -5.31567383 51.70092773 C-5.31245324 54.98518327 -5.33628798 58.26858564 -5.36132812 61.55273438 C-5.36359597 63.64843637 -5.36430702 65.74414077 -5.36328125 67.83984375 C-5.372491 68.81783432 -5.38170074 69.79582489 -5.39118958 70.80345154 C-5.38184639 72.15745811 -5.38184639 72.15745811 -5.37231445 73.53881836 C-5.37294388 74.33057968 -5.3735733 75.122341 -5.3742218 75.93809509 C-4.90522403 78.52220108 -4.05502463 79.41239688 -2 81 C0.05363606 81.3606631 0.05363606 81.3606631 2.1875 81.1875 C3.445625 81.125625 4.70375 81.06375 6 81 C3.38010036 84.1886323 0.37714496 85.21345147 -3.4375 86.625 C-4.57058594 87.05039062 -5.70367187 87.47578125 -6.87109375 87.9140625 C-11.08817099 89.37766734 -14.50915691 90.12494417 -18.984375 90.09765625 C-19.91894531 90.09443359 -20.85351562 90.09121094 -21.81640625 90.08789062 C-22.78449219 90.07951172 -23.75257813 90.07113281 -24.75 90.0625 C-25.73355469 90.05798828 -26.71710938 90.05347656 -27.73046875 90.04882812 C-30.15370791 90.03706483 -32.57682273 90.02062684 -35 90 C-34.0255896 89.57920166 -34.0255896 89.57920166 -33.03149414 89.14990234 C-32.02590454 88.58070068 -32.02590454 88.58070068 -31 88 C-30.40211186 85.52436177 -30.40211186 85.52436177 -30.4375 82.625 C-30.12330886 76.13695301 -28.75774294 70.23501271 -27 64 C-26.67 64 -26.34 64 -26 64 C-25.85304687 65.28583984 -25.85304687 65.28583984 -25.703125 66.59765625 C-24.59366056 76.0004163 -24.59366056 76.0004163 -20 84 C-15.40770812 85.30526315 -15.40770812 85.30526315 -11 84 C-10.979375 82.700625 -10.95875 81.40125 -10.9375 80.0625 C-10.92589844 79.33160156 -10.91429687 78.60070312 -10.90234375 77.84765625 C-10.79438816 75.98267859 -10.79438816 75.98267859 -12 75 C-12.29294516 70.50817419 -12.24356708 66.00047178 -12.25 61.5 C-12.25200409 60.83115784 -12.25400818 60.16231567 -12.256073 59.47320557 C-12.26668765 44.9709851 -11.56084023 30.11015771 -8 16 C-7.61158932 10.95066116 -7.62856663 6.59465215 -10 2 C-6.57602277 -0.10706291 -3.96057533 -0.08680713 0 0 Z " fill="#F7F7F7" transform="translate(157,376)"/>
<path d="M0 0 C2.64 1.32 5.28 2.64 8 4 C7.69266343 8.39621031 7.37823188 12.79188529 7.0625 17.1875 C6.93198242 19.05631836 6.93198242 19.05631836 6.79882812 20.96289062 C6.66831055 22.7659668 6.66831055 22.7659668 6.53515625 24.60546875 C6.456604 25.71043701 6.37805176 26.81540527 6.29711914 27.95385742 C6.02923543 30.70027083 5.54585091 33.29947446 5 36 C4.85328754 41.10192878 4.85328754 41.10192878 4.83398438 46.20507812 C4.76953125 48.28515625 4.76953125 48.28515625 4 52 C0.94921875 54.49609375 0.94921875 54.49609375 -2 56 C-2.66 55.67 -3.32 55.34 -4 55 C-3.67624893 54.43260101 -3.35249786 53.86520203 -3.01893616 53.28060913 C-1.91827875 50.8170894 -1.73280501 49.19186827 -1.69702148 46.51025391 C-1.68037949 45.62898834 -1.66373749 44.74772278 -1.64659119 43.8397522 C-1.63817703 42.8948996 -1.62976288 41.950047 -1.62109375 40.9765625 C-1.60409927 39.99763031 -1.5871048 39.01869812 -1.56959534 38.01010132 C-1.51650015 34.88179982 -1.47620966 31.75350996 -1.4375 28.625 C-1.39345329 25.50370097 -1.34660755 22.38250032 -1.29469299 19.26132202 C-1.26295606 17.32033686 -1.2359994 15.379266 -1.21446228 13.43814087 C-1.14480449 8.85497533 -0.92722441 4.50953371 0 0 Z " fill="#F5F5F5" transform="translate(167,401)"/>
<path d="M0 0 C3.5625 0.1875 3.5625 0.1875 5.5625 2.1875 C6.15571977 6.47653142 5.88392055 9.21785326 3.40234375 12.71484375 C2.45311509 13.86682028 1.48502971 15.00348252 0.5 16.125 C0.03400391 16.71345703 -0.43199219 17.30191406 -0.91210938 17.90820312 C-3.66824234 21.13681603 -4.8342554 22.09628992 -9.18359375 22.75390625 C-10.25738281 22.56699219 -11.33117187 22.38007813 -12.4375 22.1875 C-14.4375 19.1875 -14.4375 19.1875 -14.34375 15.8671875 C-13.30130361 11.6344957 -11.79141544 9.57282745 -8.9375 6.3125 C-8.1228125 5.36632812 -7.308125 4.42015625 -6.46875 3.4453125 C-3.54302431 0.19325587 -3.54302431 0.19325587 0 0 Z " fill="#000000" transform="translate(189.4375,231.8125)"/>
<path d="M0 0 C1.02556738 12.23843736 -2.23856669 23.7326383 -9 34 C-9.33 34 -9.66 34 -10 34 C-9.34 23.77 -8.68 13.54 -8 3 C-1 0 -1 0 0 0 Z " fill="#FAFAFA" transform="translate(194,402)"/>
<path d="M0 0 C0.94875 0.33 1.8975 0.66 2.875 1 C3.8125 3.625 3.8125 3.625 3.875 7 C1.09111431 10.34066283 -2.53374362 12.60582908 -6.125 15 C-9.1875 15.25 -9.1875 15.25 -12.125 15 C-14.125 13 -14.125 13 -14.53515625 10.6484375 C-13.82085667 6.03610308 -10.36394343 4.2337778 -6.81640625 1.5390625 C-4.11728277 -0.00441305 -3.01248503 -0.45774927 0 0 Z " fill="#000000" transform="translate(259.125,268)"/>
<path d="M0 0 C2 3 2 3 1.875 5.5625 C1 8 1 8 -0.6875 9.3125 C-3.59299945 10.17629713 -5.98465577 10.26220385 -9 10 C-9.66 9.34 -10.32 8.68 -11 8 C-10.8125 5 -10.8125 5 -10 2 C-6.32003497 -0.45331002 -4.34586828 -0.39507893 0 0 Z " fill="#000000" transform="translate(216,254)"/>
<path d="M0 0 C0.33 0 0.66 0 1 0 C0.56668305 4.54982799 0.08051097 8.8863724 -1.0625 13.3125 C-2.62835735 19.9498655 -2.9545884 27.41694627 -1 34 C-2.65 33.67 -4.3 33.34 -6 33 C-5.67 32.01 -5.34 31.02 -5 30 C-4.80773032 28.21456284 -4.65825839 26.42434797 -4.53515625 24.6328125 C-4.45716797 23.58222656 -4.37917969 22.53164063 -4.29882812 21.44921875 C-4.14184813 19.24111992 -3.98817756 17.03278321 -3.83789062 14.82421875 C-3.75861328 13.77105469 -3.67933594 12.71789062 -3.59765625 11.6328125 C-3.53070557 10.67262207 -3.46375488 9.71243164 -3.39477539 8.72314453 C-2.94195843 5.59963159 -2.3036088 2.3036088 0 0 Z " fill="#EFEFEF" transform="translate(116,430)"/>
<path d="M0 0 C1.30459087 4.21695219 0.28430031 6.79034898 -1 11 C-1.36950465 13.32787927 -1.71352467 15.66045145 -2 18 C-2.99 18 -3.98 18 -5 18 C-6 16 -6 16 -4.78515625 12.3046875 C-4.21866415 10.82514342 -3.64408111 9.34867819 -3.0625 7.875 C-2.77181641 7.12089844 -2.48113281 6.36679687 -2.18164062 5.58984375 C-1.46125002 3.72391398 -0.73149596 1.8616042 0 0 Z " fill="#E8E8E8" transform="translate(136,393)"/>
<path d="M0 0 C0.33 0 0.66 0 1 0 C1.66 2.97 2.32 5.94 3 9 C1.35 8.67 -0.3 8.34 -2 8 C-1.34 5.36 -0.68 2.72 0 0 Z " fill="#DCDCDC" transform="translate(112,455)"/>
</svg>
