<?xml version="1.0" encoding="UTF-8"?>
<svg version="1.1" xmlns="http://www.w3.org/2000/svg" width="500" height="500">
<path d="M0 0 C1.640625 1.3125 1.640625 1.3125 3.828125 3.4375 C3.828125 4.0975 3.828125 4.7575 3.828125 5.4375 C4.488125 5.4375 5.148125 5.4375 5.828125 5.4375 C5.828125 6.0975 5.828125 6.7575 5.828125 7.4375 C6.488125 7.4375 7.148125 7.4375 7.828125 7.4375 C8.81105767 9.68592091 9.78956966 11.93609547 10.765625 14.1875 C11.04341797 14.82171875 11.32121094 15.4559375 11.60742188 16.109375 C13.58257864 20.67841234 14.93434967 24.53373432 15.00512695 29.5090332 C15.01796219 30.30118729 15.03079742 31.09334137 15.04402161 31.90950012 C15.05510201 33.18599678 15.05510201 33.18599678 15.06640625 34.48828125 C15.074478 35.37928024 15.08254974 36.27027924 15.09086609 37.1882782 C15.10469071 39.07870553 15.11542012 40.96915765 15.12329102 42.85961914 C15.13472935 44.76692166 15.15504935 46.67419428 15.18481445 48.58129883 C15.51265949 69.61283252 11.83446151 86.96261376 -2.171875 103.4375 C-3.00976562 104.43523437 -3.84765625 105.43296875 -4.7109375 106.4609375 C-8.41306819 110.85696987 -12.13374795 115.23658783 -15.890625 119.5859375 C-20.37665011 124.84215367 -24.33762745 130.00172553 -27.75 136.01171875 C-29.24908822 138.56922914 -30.89053138 140.96025288 -32.609375 143.375 C-38.913989 152.24572175 -44.32698076 161.42167457 -49.359375 171.0625 C-55.42214213 182.47279375 -62.3929167 192.82891012 -70.1953125 203.1015625 C-73.83438978 208.02501999 -76.42816263 213.00198608 -78.921875 218.5625 C-89.21539457 241.33286072 -107.28534241 260.88177924 -124.984375 278.1875 C-127.1977608 280.23690827 -127.1977608 280.23690827 -128.171875 282.4375 C-128.831875 282.4375 -129.491875 282.4375 -130.171875 282.4375 C-130.43742187 283.015 -130.70296875 283.5925 -130.9765625 284.1875 C-136.39956784 294.39551006 -146.96424051 300.96090624 -156.171875 307.4375 C-156.78933594 307.87690918 -157.40679687 308.31631836 -158.04296875 308.76904297 C-167.54442779 315.46632414 -178.15263477 321.99863923 -190.171875 321.4375 C-190.28917969 322.56542969 -190.40648437 323.69335938 -190.52734375 324.85546875 C-191.12338197 329.6018537 -192.24272711 334.13622899 -193.484375 338.75 C-193.70295166 339.58088135 -193.92152832 340.4117627 -194.14672852 341.26782227 C-195.62809302 346.77824049 -197.38859675 352.06856143 -199.66796875 357.30859375 C-200.39166438 359.47370525 -200.39166438 359.47370525 -199.33984375 361.60546875 C-198.95441406 362.21003906 -198.56898438 362.81460937 -198.171875 363.4375 C-196.11256426 366.86968456 -195.74617592 369.43592869 -196.171875 373.4375 C-197.359375 375.3125 -197.359375 375.3125 -199.171875 376.4375 C-201.671875 376.8125 -201.671875 376.8125 -204.171875 376.4375 C-205.828125 374.9140625 -205.828125 374.9140625 -207.171875 373.4375 C-207.53539062 374.13875 -207.89890625 374.84 -208.2734375 375.5625 C-219.64330513 397.01948096 -237.76525154 412.02265496 -259.23999023 422.85766602 C-264.12486828 425.32519264 -268.74785702 427.95938586 -273.296875 431 C-294.01573824 444.75170033 -313.68716013 450.88144763 -338.51049805 451.99829102 C-349.34930239 452.49666273 -359.73946003 453.1740314 -370.109375 456.625 C-370.92390137 456.8921582 -371.73842773 457.15931641 -372.57763672 457.43457031 C-377.78846741 459.37169028 -381.43723199 462.07612452 -385.42919922 465.93041992 C-387.95960886 468.1187386 -389.85702922 468.58482648 -393.171875 468.4375 C-396.05060077 467.0635627 -397.92176937 465.68760563 -400.171875 463.4375 C-400.52243176 460.43272776 -400.73396192 458.34616337 -400.171875 455.4375 C-398.52553557 453.4207342 -396.85919777 451.42010426 -395.171875 449.4375 C-394.92171627 445.85392759 -394.92171627 445.85392759 -395.171875 442.4375 C-394.671875 440.1875 -394.671875 440.1875 -393.171875 438.4375 C-385.64451135 434.90086162 -378.68270661 435.0032754 -370.484375 434.99804688 C-364.50808977 434.88432491 -360.87725972 434.49860896 -356.171875 430.4375 C-355.12 429.55191406 -355.12 429.55191406 -354.046875 428.6484375 C-353.428125 428.04257812 -352.809375 427.43671875 -352.171875 426.8125 C-351.24375 425.92691406 -351.24375 425.92691406 -350.296875 425.0234375 C-344.13493438 417.52489947 -340.85959629 409.78429094 -338.8046875 400.35546875 C-338.55034943 399.19395798 -338.29601135 398.0324472 -338.03396606 396.83573914 C-335.28206016 382.89395997 -335.62715957 368.9726713 -335.99304199 354.84820557 C-337.24218287 306.16145287 -337.24218287 306.16145287 -322.109375 288.3125 C-309.60100856 275.28120854 -292.60295642 263.68082227 -274.04296875 263.265625 C-269.08253794 263.22317205 -264.13052992 263.30637005 -259.171875 263.4375 C-258.841875 261.7875 -258.511875 260.1375 -258.171875 258.4375 C-257.511875 258.4375 -256.851875 258.4375 -256.171875 258.4375 C-256.02347168 257.87877197 -255.87506836 257.32004395 -255.72216797 256.74438477 C-253.5470829 249.01342659 -250.50652838 241.72531368 -247.296875 234.375 C-247.01486237 233.72597717 -246.73284973 233.07695435 -246.44229126 232.40826416 C-238.74598995 214.75205939 -230.51092726 197.07842954 -219.171875 181.4375 C-218.19734375 179.98923828 -218.19734375 179.98923828 -217.203125 178.51171875 C-213.63326227 173.22276228 -213.63326227 173.22276228 -212.171875 171.4375 C-211.511875 171.4375 -210.851875 171.4375 -210.171875 171.4375 C-209.8625 170.81875 -209.553125 170.2 -209.234375 169.5625 C-208.546875 168.1875 -207.859375 166.8125 -207.171875 165.4375 C-206.511875 165.4375 -205.851875 165.4375 -205.171875 165.4375 C-204.945 164.76332031 -204.718125 164.08914062 -204.484375 163.39453125 C-202.8081857 159.61811666 -200.58082959 156.46656415 -198.171875 153.125 C-197.72070312 152.47982422 -197.26953125 151.83464844 -196.8046875 151.16992188 C-195.64766563 149.55248745 -194.41520923 147.98956756 -193.171875 146.4375 C-192.511875 146.4375 -191.851875 146.4375 -191.171875 146.4375 C-190.181875 143.4675 -190.181875 143.4675 -189.171875 140.4375 C-188.511875 140.4375 -187.851875 140.4375 -187.171875 140.4375 C-187.171875 139.7775 -187.171875 139.1175 -187.171875 138.4375 C-186.511875 138.4375 -185.851875 138.4375 -185.171875 138.4375 C-184.841875 137.1175 -184.511875 135.7975 -184.171875 134.4375 C-183.511875 134.4375 -182.851875 134.4375 -182.171875 134.4375 C-181.841875 133.1175 -181.511875 131.7975 -181.171875 130.4375 C-180.511875 130.4375 -179.851875 130.4375 -179.171875 130.4375 C-178.800625 129.633125 -178.800625 129.633125 -178.421875 128.8125 C-177.171875 126.4375 -177.171875 126.4375 -175.109375 123.4375 C-173.4816914 120.91721572 -172.61845572 119.34027468 -172.171875 116.4375 C-171.511875 116.4375 -170.851875 116.4375 -170.171875 116.4375 C-169.92566406 115.74914062 -169.67945313 115.06078125 -169.42578125 114.3515625 C-167.96489788 110.95648776 -166.09120978 107.91820174 -164.109375 104.8125 C-161.24370963 100.32977657 -161.24370963 100.32977657 -159.171875 95.4375 C-158.511875 95.4375 -157.851875 95.4375 -157.171875 95.4375 C-156.78322266 94.37015625 -156.78322266 94.37015625 -156.38671875 93.28125 C-155.09561706 90.25899266 -153.53039643 87.68753711 -151.734375 84.9375 C-149.9428044 82.18242814 -148.1842422 79.45951302 -146.57421875 76.59375 C-145.88005859 75.52640625 -145.88005859 75.52640625 -145.171875 74.4375 C-144.511875 74.4375 -143.851875 74.4375 -143.171875 74.4375 C-142.8315625 73.44169922 -142.8315625 73.44169922 -142.484375 72.42578125 C-140.77469701 68.53321082 -138.53298862 65.14980533 -136.171875 61.625 C-135.49511719 60.58569336 -135.49511719 60.58569336 -134.8046875 59.52539062 C-133.64953353 57.79095087 -132.41649241 56.10890344 -131.171875 54.4375 C-130.511875 54.4375 -129.851875 54.4375 -129.171875 54.4375 C-129.11 53.86 -129.048125 53.2825 -128.984375 52.6875 C-128.171875 50.4375 -128.171875 50.4375 -125.90234375 48.66015625 C-122.92308993 46.23498397 -120.93199275 43.72470375 -118.671875 40.625 C-117.57359375 39.13033203 -117.57359375 39.13033203 -116.453125 37.60546875 C-115.28276278 35.98018834 -114.11520315 34.35157931 -113.01245117 32.6796875 C-110.03328987 28.24266446 -106.77645523 25.21308833 -102.484375 22.0625 C-98.16056925 18.79388529 -94.04701108 15.4875267 -90.109375 11.75 C-64.34616016 -11.64466122 -29.07334832 -20.91607793 0 0 Z M-289.171875 360.4375 C-288.171875 362.4375 -288.171875 362.4375 -288.171875 362.4375 Z M-275.171875 407.4375 C-274.841875 408.4275 -274.511875 409.4175 -274.171875 410.4375 C-273.181875 409.4475 -272.191875 408.4575 -271.171875 407.4375 C-272.491875 407.4375 -273.811875 407.4375 -275.171875 407.4375 Z " fill="#000000" transform="translate(455.171875,21.5625)"/>
<path d="M0 0 C6.96176836 0.20885305 13.45601899 5.0961194 18.44140625 9.59765625 C24.17634691 15.81150636 25.49883536 21.60895452 25.5234375 30.00390625 C25.5334227 31.21009865 25.5334227 31.21009865 25.54360962 32.44065857 C25.5537004 34.13920826 25.55842775 35.83779732 25.55810547 37.53637695 C25.56244619 40.09330507 25.59871128 42.64845851 25.63671875 45.20507812 C25.77161434 64.63264334 19.66156004 76.37786138 7.11523438 90.9284668 C4.62613968 93.81895838 2.27475237 96.72373095 0.125 99.875 C-0.514375 100.761875 -1.15375 101.64875 -1.8125 102.5625 C-2.4725 102.5625 -3.1325 102.5625 -3.8125 102.5625 C-4.080625 103.13484375 -4.34875 103.7071875 -4.625 104.296875 C-5.85458706 106.64279768 -7.25501355 108.67095613 -8.8125 110.8125 C-12.93069332 116.6208685 -16.66433534 122.64167249 -20.40625 128.6953125 C-22.32202242 131.79197901 -24.30569437 134.83639336 -26.3125 137.875 C-29.39479143 142.68250842 -32.0066991 147.68162428 -34.625 152.75 C-40.29292394 163.69797431 -46.45724215 174.24466157 -53.9375 184.0625 C-58.89706355 190.70191572 -62.23238787 198.12657954 -65.8125 205.5625 C-72.0966826 218.47805762 -81.2488477 229.56359286 -90.2890625 240.64453125 C-91.95981119 242.69338188 -91.95981119 242.69338188 -93.8125 245.5625 C-94.4725 245.5625 -95.1325 245.5625 -95.8125 245.5625 C-96.1425 246.5525 -96.4725 247.5425 -96.8125 248.5625 C-97.4725 248.5625 -98.1325 248.5625 -98.8125 248.5625 C-99.039375 249.119375 -99.26625 249.67625 -99.5 250.25 C-101.21098215 253.26458759 -103.184873 255.31024829 -105.8125 257.5625 C-109.8125 257.5625 -109.8125 257.5625 -112.5625 256.5625 C-115.81483462 255.35785829 -115.81483462 255.35785829 -119.375 255.75 C-131.3945224 256.02473194 -145.01441081 247.40278449 -153.46411133 239.39892578 C-163.25552928 229.68377225 -170.51415708 219.33985432 -175.8125 206.5625 C-176.41592293 205.16634499 -177.01992365 203.77043924 -177.625 202.375 C-178.016875 201.446875 -178.40875 200.51875 -178.8125 199.5625 C-179.1425 198.9025 -179.4725 198.2425 -179.8125 197.5625 C-178.6860035 195.41531055 -177.51583353 193.45707531 -176.1875 191.4375 C-175.78724609 190.82148926 -175.38699219 190.20547852 -174.97460938 189.57080078 C-170.71145734 183.16482006 -165.84684195 177.28519673 -160.94140625 171.3671875 C-156.70040991 166.24535904 -152.76075121 160.91131329 -148.8125 155.5625 C-146.79633097 152.85066934 -144.77394399 150.14353104 -142.75 147.4375 C-142.23445557 146.7458374 -141.71891113 146.0541748 -141.18774414 145.34155273 C-138.44744174 141.68066289 -135.6363566 138.12192691 -132.6875 134.625 C-128.33306067 129.24230497 -125.0265487 123.31927382 -121.58203125 117.3359375 C-114.32370831 104.74781881 -106.67684743 92.41894249 -98.08203125 80.69921875 C-95.85682571 77.62376255 -93.76215004 74.49094443 -91.6875 71.3125 C-86.36096907 63.25852853 -80.27625256 56.037718 -73.79296875 48.90234375 C-71.70537517 46.43593635 -69.9351374 43.86286031 -68.125 41.1875 C-63.71902066 35.00185057 -58.33639144 30.54933042 -52.43652344 25.86474609 C-50.89703592 24.63028632 -49.38882174 23.35711907 -47.8828125 22.08203125 C-33.99915245 10.34188245 -18.01540543 2.65801064 0 0 Z " fill="#FFFFFF" transform="translate(424.8125,28.4375)"/>
<path d="M0 0 C0.66 0 1.32 0 2 0 C2.47308594 1.02738281 2.94617188 2.05476562 3.43359375 3.11328125 C7.3019561 11.29103091 11.25082723 18.18251289 17.3125 24.9609375 C19 27 19 27 19 29 C19.57621094 29.24363281 20.15242188 29.48726563 20.74609375 29.73828125 C23.39257489 31.2197603 25.00976541 32.95826861 27.0625 35.1875 C38.68769117 46.98281592 54.06096912 52.61629512 70 56 C60.61402481 66.00175488 48.17932074 74.97683893 35 79 C34.21496094 79.25136719 33.42992187 79.50273437 32.62109375 79.76171875 C24.18955973 82.06389413 17.36329286 80.9799573 9.625 77 C0.60810475 71.80039885 -7.96581404 66.00573042 -14.52734375 57.83203125 C-15.95176359 55.9892923 -15.95176359 55.9892923 -17.56640625 54.44921875 C-20.2545235 51.73180321 -20.98979429 50.29086283 -21.125 46.4375 C-18.55248076 34.10794831 -12.04988589 23.09080313 -6.13769531 12.12890625 C-4.00141148 8.1313966 -1.9890543 4.07232697 0 0 Z " fill="#FFFFFF" transform="translate(234,246)"/>
<path d="M0 0 C1.47954128 2.95908255 1.01385279 5.57523154 0.9375 8.875 C0.78496544 26.73781376 3.89255808 43.67280803 8 61 C8.38170643 62.62755821 8.76322799 64.25515979 9.14453125 65.8828125 C9.65519245 68.05716522 10.16792972 70.23088249 10.6887207 72.40283203 C11.7591223 76.87905688 12.65710756 81.36601008 13.4921875 85.890625 C14.00659659 88.02740121 14.77310348 89.81895083 15.6875 91.8125 C17.65491133 96.5654541 16.77811828 101.15554148 16.12890625 106.14453125 C15.70864261 109.20392826 15.70864261 109.20392826 18 112 C20.65228131 113.28041167 21.76222054 113.08119299 24.5625 112.125 C28.16151205 108.98739975 29.16453831 105.63570338 30 101 C30.23312975 95.8245196 28.83451839 91.33813505 27.125 86.5 C25.42064738 81.6740553 24.36380451 76.91745365 23.5625 71.875 C22.59931279 65.82561536 21.24645654 60.05737331 19.5 54.1875 C16.6941181 44.57104359 15.23674496 34.92619306 14 25 C13.86319824 23.90381348 13.72639648 22.80762695 13.58544922 21.67822266 C12.69233076 14.45574385 11.83275162 7.22967643 11 0 C12.9375 0.375 12.9375 0.375 15 1 C16.14131104 3.28262208 16.28933181 4.95798544 16.54296875 7.49609375 C18.12871152 22.2091058 20.82232878 36.41662267 24.24462891 50.80810547 C24.95677124 53.81733265 25.64471699 56.83091609 26.32421875 59.84765625 C30.16830654 78.97811073 30.16830654 78.97811073 39 96 C42.13265479 96.9688059 42.13265479 96.9688059 45 97 C42.58880952 101.42051588 39.62693572 105.4942989 36 109 C35.34 109 34.68 109 34 109 C34 109.66 34 110.32 34 111 C26.13011445 118.29484172 16.83481323 124.68648543 7 129 C6.34 128.67 5.68 128.34 5 128 C5.66 127.01 6.32 126.02 7 125 C7.93394437 117.3434413 6.39414343 110.1411509 4.5625 102.75 C-0.09140957 82.90529614 -3.71405307 62.85178748 -7.46960449 42.82189941 C-7.97843178 40.1147509 -8.49087943 37.40831843 -9.00488281 34.70214844 C-9.75215559 30.76698502 -10.49209088 26.83052999 -11.22485352 22.89263916 C-11.48954379 21.47531881 -11.75659653 20.05843742 -12.02612305 18.64202881 C-12.39180628 16.71583114 -12.74699498 14.78764976 -13.1015625 12.859375 C-13.30088379 11.79170898 -13.50020508 10.72404297 -13.70556641 9.62402344 C-14 7 -14 7 -13 4 C-10.05859375 2.83203125 -10.05859375 2.83203125 -6.4375 1.8125 C-5.23996094 1.46832031 -4.04242188 1.12414062 -2.80859375 0.76953125 C-1.88175781 0.51558594 -0.95492187 0.26164062 0 0 Z " fill="#FFFFFF" transform="translate(182,299)"/>
<path d="M0 0 C1.7704975 2.65574625 2.86051254 4.90686223 4.03125 7.84765625 C4.42497803 8.83314453 4.81870605 9.81863281 5.22436523 10.83398438 C5.64532471 11.89939453 6.06628418 12.96480469 6.5 14.0625 C6.93707275 15.16271484 7.37414551 16.26292969 7.82446289 17.39648438 C11.06691468 25.58282095 14.2657619 33.78602675 17.4375 42 C17.85 43.06613525 18.2625 44.13227051 18.6875 45.23071289 C21.9286599 53.66989635 24.93634303 61.74727456 26.375 70.6875 C27.48094709 76.57799897 28.52396027 80.00785645 33 84 C30.36 85.65 27.72 87.3 25 89 C18.04398877 82.04398877 16.65407659 66.61719539 14.7878418 57.32714844 C14.59746338 56.4199707 14.40708496 55.51279297 14.2109375 54.578125 C14.04899902 53.76762695 13.88706055 52.95712891 13.72021484 52.12207031 C12.88905294 49.67310107 12.05082863 48.56058824 10 47 C6.90498792 46.74734595 4.79870027 46.60064987 2 48 C1.97494385 47.40050537 1.9498877 46.80101074 1.92407227 46.18334961 C1.80714227 43.43456676 1.68486053 40.68604625 1.5625 37.9375 C1.52318359 36.99455078 1.48386719 36.05160156 1.44335938 35.08007812 C1.26594007 31.16320572 1.05254275 27.34925474 0.46875 23.46875 C-0.15961382 18.81885772 -0.10635093 14.24780308 -0.0625 9.5625 C-0.05798828 8.64017578 -0.05347656 7.71785156 -0.04882812 6.76757812 C-0.03713938 4.51164952 -0.02075455 2.25586033 0 0 Z " fill="#FFFFFF" transform="translate(135,356)"/>
<path d="M0 0 C5.97703853 2.19301414 10.90491808 5.04319693 15 10 C15.82594725 13.2571253 15.80980734 16.12380198 15.7734375 19.484375 C15.83502599 24.37039482 17.03902984 28.92327794 18.14257812 33.66308594 C21.99353435 50.43414221 21.99353435 50.43414221 18.3125 57.625 C16.48828125 60.2890625 16.48828125 60.2890625 15 62 C12.62761982 59.62761982 12.39871712 58.27281834 11.6328125 55.0390625 C11.38893799 54.01989746 11.14506348 53.00073242 10.89379883 51.95068359 C10.64009521 50.85320801 10.3863916 49.75573242 10.125 48.625 C9.86033936 47.5004541 9.59567871 46.3759082 9.32299805 45.21728516 C7.16320032 35.93888339 5.23157497 26.62576065 3.43798828 17.27050781 C2.72858806 13.59301504 1.98832198 9.92177439 1.25 6.25 C0.83333333 4.16666667 0.41666667 2.08333333 0 0 Z " fill="#FFFFFF" transform="translate(217,326)"/>
<path d="M0 0 C0.10022461 0.72364746 0.20044922 1.44729492 0.30371094 2.19287109 C2.8679349 20.53585955 2.8679349 20.53585955 6.56054688 38.67407227 C7.81489154 44.02565134 8.84093863 49.3915975 9.75 54.8125 C9.94154663 55.93410522 9.94154663 55.93410522 10.13696289 57.07836914 C10.73673003 60.75326 11.14636056 64.27512377 11 68 C8.05423429 63.58135143 6.3401898 58.73212363 4.375 53.8125 C3.93349609 52.7085791 3.49199219 51.6046582 3.03710938 50.46728516 C-2.3184237 36.89543965 -7.10378346 23.0653417 -11 9 C-9.89902432 7.87187697 -8.79408444 6.74762189 -7.6875 5.625 C-7.07261719 4.99851562 -6.45773438 4.37203125 -5.82421875 3.7265625 C-1.88687783 0 -1.88687783 0 0 0 Z " fill="#FFFFFF" transform="translate(155,313)"/>
<path d="M0 0 C1.88530313 2.82795469 2.35194905 4.00848124 2.89453125 7.2109375 C3.0430957 8.03795166 3.19166016 8.86496582 3.34472656 9.71704102 C3.57627441 11.03273071 3.57627441 11.03273071 3.8125 12.375 C5.20083409 19.85785115 7.02394513 26.56449942 10.046875 33.56640625 C11 36 11 36 11 39 C2.6245706 41.61732169 -5.26790022 42.16104282 -14 42 C-13.61328125 41.35675781 -13.2265625 40.71351563 -12.828125 40.05078125 C-5.62086211 27.54510974 -2.94819768 13.97257519 0 0 Z " fill="#FFFFFF" transform="translate(135,413)"/>
<path d="M0 0 C4.95 0.99 4.95 0.99 10 2 C8.35 6.62 6.7 11.24 5 16 C4.34 16 3.68 16 3 16 C2.01 10.72 1.02 5.44 0 0 Z " fill="#FFFFFF" transform="translate(241,341)"/>
</svg>
