<?xml version="1.0" encoding="UTF-8"?>
<svg version="1.1" xmlns="http://www.w3.org/2000/svg" width="500" height="500">
<path d="M0 0 C3.41417993 2.27611995 3.51652165 2.84329158 4.5 6.625 C9.61956868 25.94527702 18.18851527 48.12152478 35.75 58.6484375 C41.14059617 61.58745935 46.0862072 63.37223414 52.125 64.5 C60.80288908 66.14745797 68.19185289 69.76824581 73.6171875 76.9296875 C74.07351562 77.61289063 74.52984375 78.29609375 75 79 C75.83917969 80.21042969 75.83917969 80.21042969 76.6953125 81.4453125 C80.70233676 88.13611115 81.24974953 93.23746581 80.875 100.8125 C80.43462756 106.91330889 80.43462756 106.91330889 82.51171875 112.45703125 C84.52665894 114.16162821 84.52665894 114.16162821 86.75390625 115.51953125 C89.43393721 117.28602122 91.05040804 119.27284749 93 121.8125 C93.5775 122.56144531 94.155 123.31039062 94.75 124.08203125 C96 126 96 126 96 128 C96.99 128.33 97.98 128.66 99 129 C100.68762851 130.6454378 102.3540349 132.31288577 104 134 C104.99 134.66 105.98 135.32 107 136 C107 136.66 107 137.32 107 138 C107.99 138.33 108.98 138.66 110 139 C114.02714047 143.76260933 117.54809387 148.86972968 119 155 C119.66 155 120.32 155 121 155 C122.33203125 156.72265625 122.33203125 156.72265625 123.8125 159.0625 C124.34746094 159.88621094 124.88242188 160.70992187 125.43359375 161.55859375 C126.36396613 163.00867539 127.29384502 164.45907416 128.22265625 165.91015625 C131.39210667 170.62672824 135.21799057 174.87220457 140 178 C148.93238678 178 157.01341336 170.4553688 163.59765625 164.90625 C166.00602141 162.99522204 168.47641323 161.4911172 171.125 159.9375 C173.34072303 158.60852669 173.34072303 158.60852669 175 157 C175.66830771 153.3299671 175.66830771 153.3299671 175 150 C175.33 149.34 175.66 148.68 176 148 C176.66 148 177.32 148 178 148 C178 147.34 178 146.68 178 146 C179.34179687 144.73486328 179.34179687 144.73486328 181.21875 143.3203125 C181.90453125 142.80339844 182.5903125 142.28648437 183.296875 141.75390625 C184.02390625 141.21636719 184.7509375 140.67882812 185.5 140.125 C186.19609375 139.59519531 186.8921875 139.06539062 187.609375 138.51953125 C191.6642992 135.49335634 195.6654423 132.99385911 200.28027344 130.90991211 C203.02636182 129.45694911 204.91157687 127.26245839 207 125 C209.06846166 122.8576647 210.26806555 122.0584531 213.25 121.8203125 C215.50859667 121.81325439 217.74546538 121.8699307 220 122 C219.7834375 121.175 219.566875 120.35 219.34375 119.5 C215.93643193 105.36593986 214.94817176 94.02637436 221.98046875 80.98828125 C224.08319591 77.8768958 226.27735416 75.58498397 229 73 C230.31282466 71.64862864 231.62099439 70.29272743 232.92578125 68.93359375 C234.3877908 67.43467143 235.85003601 65.93597894 237.3125 64.4375 C238.03373047 63.68275391 238.75496094 62.92800781 239.49804688 62.15039062 C248.98643538 52.49180681 258.4713077 50.13349219 271.625 49.125 C289.70735491 47.43797772 303.15127111 41.94675132 315.75390625 28.58984375 C317.5744816 26.26704072 318.70784415 23.64304606 320 21 C322.88878886 17.95072287 324.37507761 17.08770841 328.5625 16.5 C332 17 332 17 334.1875 18.4375 C336.26902501 21.38034571 337.56268675 24.34162906 338.93359375 27.6640625 C339.94360113 29.87645961 341.09149437 31.65223064 342.5 33.625 C351.82324441 47.92639651 351.50867165 68.35120452 348.35986328 84.43017578 C342.76663418 110.64959858 332.92454801 141.03539196 310 157 C309.27941406 157.52335938 308.55882812 158.04671875 307.81640625 158.5859375 C298.66619231 165.01229096 288.35388672 168.78979182 277.8125 172.3125 C276.27045898 172.85100586 276.27045898 172.85100586 274.69726562 173.40039062 C268.89872753 175.34807617 264.12052078 176.52945681 258 176 C257.34 175.67 256.68 175.34 256 175 C255.93167969 175.83789062 255.86335938 176.67578125 255.79296875 177.5390625 C254.79532504 181.89331043 252.85305026 184.75917703 250.3125 188.375 C249.85842773 189.0354834 249.40435547 189.6959668 248.93652344 190.37646484 C247.63563817 192.25917869 246.31987479 194.13057256 245 196 C244.41089844 196.85078125 243.82179688 197.7015625 243.21484375 198.578125 C239.36261809 203.96096832 235.87750118 208.39665298 229.125 209.8125 C228.09375 209.874375 227.0625 209.93625 226 210 C225.938125 210.53625 225.87625 211.0725 225.8125 211.625 C223.84272219 217.38281207 218.68171165 221.30575103 214.1796875 225.13671875 C211.8703747 227.11080872 209.62481202 229.1460039 207.375 231.1875 C204.06967703 234.13765828 200.77028125 236.67982692 197 239 C197.28875 239.5775 197.5775 240.155 197.875 240.75 C199 243 199 243 199.875 245.125 C201.27471674 247.45786123 202.55782997 247.88992272 205 249 C206.75 250.5 206.75 250.5 208 252 C208 252.66 208 253.32 208 254 C208.66 254 209.32 254 210 254 C214 258.47058824 214 258.47058824 214 261 C214.86625 261.37125 214.86625 261.37125 215.75 261.75 C218.32939979 263.18299988 220.06121592 264.78424676 222 267 C222 267.66 222 268.32 222 269 C222.55558594 269.23847656 223.11117188 269.47695313 223.68359375 269.72265625 C226.53061436 271.29259847 228.66928174 273.23920449 231.0625 275.4375 C232.34833984 276.61119141 232.34833984 276.61119141 233.66015625 277.80859375 C234.43230469 278.53175781 235.20445312 279.25492187 236 280 C236.59683594 280.54785156 237.19367188 281.09570312 237.80859375 281.66015625 C239 283 239 283 239 285 C239.66 285 240.32 285 241 285 C242 286.66666667 243 288.33333333 244 290 C245.64488294 291.68816933 247.31337542 293.35353315 249 295 C254 300.50408719 254 300.50408719 254 303 C254.99 303.33 255.98 303.66 257 304 C257.556875 304.70125 258.11375 305.4025 258.6875 306.125 C260.65340897 308.56910304 262.42625792 310.26914268 264.8125 312.25 C269.18172057 315.97982244 272.85974107 320.1816652 276 325 C276 325.66 276 326.32 276 327 C276.66 327 277.32 327 278 327 C278.66 328.98 279.32 330.96 280 333 C280.66 333 281.32 333 282 333 C283.22216797 334.47973633 283.22216797 334.47973633 284.6171875 336.51953125 C287.9809425 341.15669319 291.88098107 344.86473341 296.125 348.6875 C305.10105692 356.83183054 305.10105692 356.83183054 308 361 C308 361.66 308 362.32 308 363 C308.66 363 309.32 363 310 363 C310.66 364.98 311.32 366.96 312 369 C312.66 369 313.32 369 314 369 C319.95114271 376.27712676 321.4937824 383.379285 320.80859375 392.56640625 C319.51893706 401.24104438 315.43361819 408.35990168 308.625 413.875 C300.89132169 419.4046452 293.70533103 422.91072434 284 422 C280.359375 420.8984375 280.359375 420.8984375 276.75 419.375 C276.10667725 419.10357178 275.46335449 418.83214355 274.80053711 418.55249023 C272.85767026 417.72134164 270.92784534 416.86534822 269 416 C267.89269531 415.50886719 266.78539062 415.01773437 265.64453125 414.51171875 C259.37789435 411.56504918 253.61680191 408.26858571 249 403 C249 402.34 249 401.68 249 401 C248.34 401 247.68 401 247 401 C245.625 399.53125 245.625 399.53125 244 397.5 C239.84731274 392.61650857 235.07564636 388.880929 230 385 C224.70063868 380.92863998 219.75191925 376.83387411 215.125 372 C210.57218488 367.30219077 205.83686429 364.01308536 200.2734375 360.59375 C199.52320313 360.0678125 198.77296875 359.541875 198 359 C198 358.34 198 357.68 198 357 C197.01 356.67 196.02 356.34 195 356 C193.38671875 354.3984375 193.38671875 354.3984375 191.6875 352.375 C191.07261719 351.65054687 190.45773437 350.92609375 189.82421875 350.1796875 C189.22222656 349.46039063 188.62023437 348.74109375 188 348 C187.00145807 346.83208514 186.00154701 345.66533888 185 344.5 C183.46957315 342.71584449 181.94108698 340.9304418 180.421875 339.13671875 C177.1763247 335.35277109 173.81129838 331.86281177 170.1875 328.4375 C164.49229402 322.82019197 160.3941139 316.45520764 156.12548828 309.74511719 C154.56487535 307.32532083 152.91478496 304.97399329 151.25 302.625 C149.0161771 299.4542419 146.80024467 296.27382092 144.625 293.0625 C143.90183594 291.99708984 143.90183594 291.99708984 143.1640625 290.91015625 C142 289 142 289 141 286 C140.26136719 286.82242187 139.52273437 287.64484375 138.76171875 288.4921875 C132.23245306 295.70081755 125.63776184 302.93632886 118 309 C117.34 309 116.68 309 116 309 C115.67 309.99 115.34 310.98 115 312 C113.38161281 313.71358643 111.70328319 315.3707726 110 317 C108.83066668 318.1639939 107.66412215 319.33079435 106.5 320.5 C105.33333333 321.66666667 104.16666667 322.83333333 103 324 C102.23171875 324.76957031 101.4634375 325.53914063 100.671875 326.33203125 C98.76014918 328.24096215 96.84378658 330.14436394 94.921875 332.04296875 C93.86456077 333.09112308 92.80726933 334.13930038 91.75 335.1875 C91.20859375 335.72052734 90.6671875 336.25355469 90.109375 336.80273438 C87.19242899 339.62507537 87.19242899 339.62507537 85 343 C84.34 343 83.68 343 83 343 C82.7525 343.57234375 82.505 344.1446875 82.25 344.734375 C80.80683801 347.35010611 79.11783778 349.14773456 77 351.25 C75.948125 352.30960937 75.948125 352.30960937 74.875 353.390625 C73 355 73 355 71 355 C70.76539063 355.57105469 70.53078125 356.14210938 70.2890625 356.73046875 C68.69927941 359.5294505 66.8001626 361.1989295 64.375 363.3125 C63.48554688 364.09109375 62.59609375 364.8696875 61.6796875 365.671875 C60.79539062 366.44015625 59.91109375 367.2084375 59 368 C57.82824219 369.05960937 57.82824219 369.05960937 56.6328125 370.140625 C55.92898437 370.77484375 55.22515625 371.4090625 54.5 372.0625 C53.55640625 372.91521484 53.55640625 372.91521484 52.59375 373.78515625 C51 375 51 375 49 375 C48.81050781 375.5465625 48.62101562 376.093125 48.42578125 376.65625 C46.33390359 380.09495301 43.37437694 382.10085367 40.1875 384.5 C38.9517375 385.44780531 37.71605896 386.3957201 36.48046875 387.34375 C35.87855713 387.79935303 35.27664551 388.25495605 34.65649414 388.72436523 C33.28558139 389.78007918 31.9534508 390.88594016 30.6328125 392.00390625 C26.86439541 394.86097024 22.7987462 397.11152647 18.6875 399.4375 C13.98090831 402.11583671 9.29166671 404.7882788 4.7265625 407.703125 C-3.42597456 412.83033429 -11.41779797 414.37198112 -20.9375 414.5 C-21.75452393 414.51844971 -22.57154785 414.53689941 -23.41333008 414.5559082 C-27.18976529 414.51651752 -29.60435785 414.19527183 -33.03125 412.50390625 C-35.81769384 408.96003621 -35.70838355 405.75826584 -35.5625 401.4375 C-35.54517822 400.59687012 -35.52785645 399.75624023 -35.51000977 398.89013672 C-34.92940535 383.03210162 -30.11898805 368.15154729 -24.82421875 353.31347656 C-24.1053505 351.29570536 -23.41000399 349.26958487 -22.71875 347.2421875 C-20.26293762 340.35595683 -16.99472237 334.52955932 -13.04296875 328.390625 C-10.88463356 324.80853141 -9.13987463 321.18643031 -7.4375 317.375 C-3.16449196 307.88346726 2.07442674 299.75004627 9 292 C9.33 291.34 9.66 290.68 10 290 C10.66 290 11.32 290 12 290 C12.4640625 288.824375 12.4640625 288.824375 12.9375 287.625 C14 285 14 285 15 283 C15.66 283 16.32 283 17 283 C17.22300781 282.45085937 17.44601563 281.90171875 17.67578125 281.3359375 C19.42273626 278.25428825 21.66522969 276.10900138 24.1875 273.625 C24.67855225 273.13966797 25.16960449 272.65433594 25.67553711 272.15429688 C28.38722627 269.49642343 31.154994 266.9413236 34.0625 264.5 C37.101019 262.14544301 37.101019 262.14544301 39 259 C39.66 259 40.32 259 41 259 C41 258.34 41 257.68 41 257 C42.375 255.375 42.375 255.375 44 254 C44.66 254 45.32 254 46 254 C46 253.34 46 252.68 46 252 C47.875 249.875 47.875 249.875 50 248 C50.66 248 51.32 248 52 248 C52 247.34 52 246.68 52 246 C53.51293945 244.68725586 53.51293945 244.68725586 55.61328125 243.21484375 C56.7434668 242.41916992 56.7434668 242.41916992 57.89648438 241.60742188 C58.69376953 241.05634766 59.49105469 240.50527344 60.3125 239.9375 C61.09818359 239.38255859 61.88386719 238.82761719 62.69335938 238.25585938 C68.58745997 234.13751334 68.58745997 234.13751334 72 233 C72 232.34 72 231.68 72 231 C75.38940904 227.31152546 79.12452876 224.15445333 83 221 C82.44062849 217.50463318 81.44117129 216.17460311 78.6484375 214.046875 C77.96555664 213.51433105 77.28267578 212.98178711 76.57910156 212.43310547 C75.48807129 211.59996826 75.48807129 211.59996826 74.375 210.75 C69.35218597 206.80130893 64.78291239 203.00972708 60.75390625 198.0234375 C54.53723799 190.85142378 46.90104458 184.85277235 39.3984375 179.1015625 C36.71692977 176.75196778 34.7078365 174.1705882 32.5 171.375 C27.61578215 165.80501054 23.12524127 164.34168337 16.24609375 162.41308594 C-5.32062752 156.05161494 -23.72778719 138.92269653 -35 120 C-35.60376465 118.99396729 -36.2075293 117.98793457 -36.82958984 116.95141602 C-49.15623535 96.12848532 -58.90192535 73.5513323 -53.80078125 48.84375 C-51.17729533 39.52717561 -47.44528534 30.04955224 -42 22 C-41.34 22 -40.68 22 -40 22 C-39.7628125 21.43023437 -39.525625 20.86046875 -39.28125 20.2734375 C-33.5016136 10.01810705 -20.3072783 3.2877356 -9.55078125 -0.37890625 C-5.88572719 -1.27131604 -3.61353893 -1.05394885 0 0 Z " fill="#000000" transform="translate(101,24)"/>
<path d="M0 0 C1.11375 0.45375 2.2275 0.9075 3.375 1.375 C6.55954788 2.5881611 9.57721042 3.32809841 12.9375 3.875 C19.35326807 5.11676156 24.6238921 7.15356972 28.89453125 12.26953125 C32.25276526 17.38946179 34.20503199 21.83620805 33 28 C32.80277344 29.01320312 32.60554687 30.02640625 32.40234375 31.0703125 C30.25855201 39.66542172 26.75535595 44.42218316 20 50 C19.11570312 50.73734375 18.23140625 51.4746875 17.3203125 52.234375 C15.47262084 53.75230866 13.61435879 55.25746094 11.74609375 56.75 C9.10731058 58.91207554 6.61801545 61.17264684 4.125 63.5 C-0.49574033 67.71195446 -5.4506919 71.17946221 -10.625 74.67578125 C-18.56438056 80.07871436 -26.10797623 86.06444922 -33.23828125 92.4921875 C-34.94563625 93.95347138 -36.69423182 95.19198788 -38.5625 96.4375 C-42.08061983 98.86572394 -44.65205903 101.84194194 -47.390625 105.1015625 C-49.4592427 107.54172804 -51.73816775 109.73816775 -54 112 C-56.34921997 114.65260963 -58.68810786 117.31319981 -61.01171875 119.98828125 C-61.99591797 120.98408203 -61.99591797 120.98408203 -63 122 C-63.66 122 -64.32 122 -65 122 C-65.33 122.99 -65.66 123.98 -66 125 C-67.56640625 126.578125 -67.56640625 126.578125 -69.5625 128.25 C-70.284375 128.86488281 -71.00625 129.47976563 -71.75 130.11328125 C-72.86375 131.04720703 -72.86375 131.04720703 -74 132 C-77.95812417 135.32092615 -81.75165835 138.59118996 -85.08203125 142.5546875 C-89.66826563 147.85937287 -94.6463226 152.7541467 -99.625 157.6875 C-100.553125 158.61111328 -101.48125 159.53472656 -102.4375 160.48632812 C-104.16240902 162.20258788 -105.88835167 163.91780997 -107.61572266 165.6315918 C-108.40253418 166.4131665 -109.1893457 167.19474121 -110 168 C-110.89356201 168.886875 -111.78712402 169.77375 -112.70776367 170.6875 C-114.51009194 172.50576109 -116.12047346 174.29775159 -117.6875 176.3125 C-118.450625 177.199375 -119.21375 178.08625 -120 179 C-120.66 179 -121.32 179 -122 179 C-122.22429687 179.57234375 -122.44859375 180.1446875 -122.6796875 180.734375 C-124.38200524 183.65551195 -126.45521986 185.18259365 -129.125 187.25 C-133.56505308 190.76820237 -137.56902606 194.43640409 -141.44140625 198.56640625 C-143 200 -143 200 -145 200 C-145 200.66 -145 201.32 -145 202 C-148.49061451 205.20828539 -152.27525518 208.06913511 -156 211 C-156.63164062 211.51949219 -157.26328125 212.03898438 -157.9140625 212.57421875 C-164.44155874 217.7753516 -171.85198021 221.74935192 -179.07373047 225.89160156 C-180.65085067 226.79909531 -182.21929211 227.72165676 -183.78515625 228.6484375 C-189.86409346 232.18644328 -195.87954362 235 -203 235 C-203.66626688 222.11884036 -199.61357508 209.9139392 -195.45849609 197.8762207 C-194.74871219 195.80874884 -194.06347447 193.73414039 -193.37890625 191.65820312 C-190.90950588 184.34615026 -188.01038199 177.9106791 -183.63769531 171.49584961 C-181.12206929 167.66203254 -179.3467584 163.55974502 -177.5 159.375 C-174.82279947 153.54662315 -172.22845838 148.26309886 -168.015625 143.37109375 C-164.60825315 139.36280942 -161.56256148 135.075356 -158.43823242 130.8449707 C-153.68547067 124.46516574 -149.05140875 118.54292668 -142.6875 113.6875 C-137.14783901 109.27226276 -132.64502654 104.32189743 -128 99 C-121.89138631 92.09838169 -114.95531594 86.87595352 -107.38305664 81.69213867 C-102.77707347 78.49371784 -99.45714452 75.40273979 -96 71 C-91.29312754 66.63048017 -86.36497379 63.06578165 -80.625 60.1875 C-75.65405521 57.60843241 -71.98568343 54.38532472 -67.9621582 50.52026367 C-55.18597819 38.45734146 -39.59458146 29.28521523 -24.7734375 19.97265625 C-17.23306518 15.22616844 -10.15657356 10.49860542 -4 4 C-2.66666667 2.66666667 -1.33333333 1.33333333 0 0 Z " fill="#FEFEFE" transform="translate(284,189)"/>
<path d="M0 0 C7.41708508 3.21684814 12.64251417 10.4537375 17.5625 16.625 C20.66556137 20.48386706 23.77942078 23.77081133 27.5703125 26.9375 C36.096489 34.17515465 44.4141313 41.67874037 51.16796875 50.625 C53.90929861 54.17879222 56.94987837 57.44314767 59.9765625 60.75390625 C61.57411928 62.52725596 63.08383492 64.31683982 64.5625 66.1875 C66.55085096 68.48175111 68.36268096 70.16374342 70.6875 72.0625 C78.08552249 78.37380732 83.48599069 86.85641227 89.0625 94.75 C93.85557666 101.38508399 99.43594182 106.95333226 105.8125 112.0625 C111.97308662 117.30211004 123.30821466 129.27704859 124.30078125 137.48828125 C124.32758486 143.9479509 124.1924905 148.72689106 119.453125 153.5859375 C114.26218125 158.29453692 109.53023037 161.41160863 102.28491211 161.29882812 C97.91356357 160.72712916 94.16463296 158.75138022 90.25 156.8125 C89.41339844 156.42513672 88.57679688 156.03777344 87.71484375 155.63867188 C82.99166179 153.35994374 80.03394304 151.39375084 77 147 C75.35065834 145.31618657 73.68321119 143.64995626 72 142 C71.17242187 141.13761719 70.34484375 140.27523437 69.4921875 139.38671875 C65.11032299 134.86751222 60.90054221 130.76039747 55.6875 127.1875 C50.97078741 123.92466047 47.1427107 120.2382223 43.1875 116.125 C38.69436513 111.4584827 34.19472982 107.48139723 28.8125 103.875 C19.69323219 97.73037164 12.96308042 89.88389192 6.61328125 80.94921875 C3.78162292 77.52791728 0.35811034 74.74565684 -3.0234375 71.8828125 C-3.67570312 71.26148438 -4.32796875 70.64015625 -5 70 C-5 69.34 -5 68.68 -5 68 C-5.66 68 -6.32 68 -7 68 C-8.44963959 66.09625645 -9.81184323 64.12532841 -11.125 62.125 C-12.21167969 60.48917969 -12.21167969 60.48917969 -13.3203125 58.8203125 C-15 56 -15 56 -15 54 C-15.66 54 -16.32 54 -17 54 C-19.17204 51.03812728 -20.83561997 48.49314009 -22 45 C-23.88316159 43.89163577 -23.88316159 43.89163577 -26 43 C-26.99 42.34 -27.98 41.68 -29 41 C-28.5978125 39.453125 -28.5978125 39.453125 -28.1875 37.875 C-27.97990934 33.65133943 -27.97990934 33.65133943 -30.4375 30.6875 C-31.283125 29.800625 -32.12875 28.91375 -33 28 C-33 27.34 -33 26.68 -33 26 C-31.3125 24.51953125 -31.3125 24.51953125 -29 22.8125 C-25.97772946 20.53171819 -23.06175484 18.22288578 -20.25 15.6875 C-16.68579752 12.51932002 -12.96767275 9.59054311 -9.1875 6.6875 C-8.62385742 6.2546167 -8.06021484 5.8217334 -7.47949219 5.37573242 C-5.02784141 3.50529831 -2.56685868 1.71123912 0 0 Z " fill="#FEFEFE" transform="translate(285,272)"/>
<path d="M0 0 C5.25578939 4.05102392 5.97584002 12.78316926 7 19 C9.49668161 43.96681613 -0.62997481 73.35039705 -14.89453125 93.703125 C-25.53018847 106.4399202 -40.16056052 112.6311084 -55.5 117.75 C-57.82326267 118.53543563 -60.14619721 119.32184273 -62.46875 120.109375 C-63.48388672 120.44936523 -64.49902344 120.78935547 -65.54492188 121.13964844 C-67.96390392 121.92934976 -67.96390392 121.92934976 -70 123 C-70.15855469 122.27296875 -70.31710937 121.5459375 -70.48046875 120.796875 C-72.87500726 110.47786926 -75.89481376 100.85544227 -82.765625 92.62109375 C-84 91 -84 91 -85 88 C-86.69769234 86.89831016 -86.69769234 86.89831016 -89 86 C-91.33359172 85.00060312 -93.66694805 84.00065631 -96 83 C-96.08742801 78.79179855 -96.14053641 74.58383224 -96.1875 70.375 C-96.21263672 69.18519531 -96.23777344 67.99539062 -96.26367188 66.76953125 C-96.36519785 54.65409786 -92.13219326 49.55191936 -84 41 C-83.24203125 40.20078125 -82.4840625 39.4015625 -81.703125 38.578125 C-77.70792098 34.46627269 -77.70792098 34.46627269 -76 33 C-75.34 33 -74.68 33 -74 33 C-73.67 32.01 -73.34 31.02 -73 30 C-67.17523513 25.04306626 -60.10953158 24.48853889 -52.8125 23.9375 C-32.10829581 22.36797894 -14.80784385 14.80784385 0 0 Z " fill="#FFFFFF" transform="translate(428,65)"/>
<path d="M0 0 C1.97045898 0.82128906 1.97045898 0.82128906 3.09204102 2.56103516 C3.5307251 3.6914624 3.5307251 3.6914624 3.97827148 4.84472656 C4.32027588 5.69228516 4.66228027 6.53984375 5.01464844 7.41308594 C5.37131592 8.33154297 5.7279834 9.25 6.09545898 10.19628906 C9.17754057 17.75613637 12.46835385 25.10104095 16.28295898 32.32128906 C16.89518311 33.49377197 16.89518311 33.49377197 17.51977539 34.68994141 C19.6829325 38.73819889 21.94629835 42.33346993 24.97045898 45.82128906 C24.31045898 46.19253906 23.65045898 46.56378906 22.97045898 46.94628906 C20.73977684 48.68053779 20.73977684 48.68053779 20.40795898 51.44628906 C21.80660201 59.83814719 27.54176411 66.07608068 33.40795898 71.88378906 C34.05055664 72.55861328 34.6931543 73.2334375 35.35522461 73.92871094 C39.20850871 77.83792361 39.20850871 77.83792361 44.38061523 79.31738281 C46.89118726 79.08771085 46.89118726 79.08771085 47.97045898 77.82128906 C47.81966938 73.90075941 47.54506482 71.5256446 45.03295898 68.44628906 C44.02642767 67.55487423 43.00239016 66.68317289 41.97045898 65.82128906 C40.25598968 64.32830622 38.54818942 62.82764621 36.84545898 61.32128906 C35.99725586 60.58910156 35.14905273 59.85691406 34.27514648 59.10253906 C31.95533151 56.80631542 30.3892897 54.75680088 28.97045898 51.82128906 C29.46545898 50.83128906 29.46545898 50.83128906 29.97045898 49.82128906 C30.86506836 50.36398438 31.75967773 50.90667969 32.68139648 51.46582031 C40.61822429 56.19683972 47.83519801 59.61500728 56.97045898 61.41113281 C66.1508805 63.35049686 71.42219138 66.9816049 76.90795898 74.57128906 C79.70676198 79.3424029 79.86071187 84.3937954 79.97045898 89.82128906 C78.83608398 89.49128906 77.70170898 89.16128906 76.53295898 88.82128906 C61.55614544 85.22059173 46.79567333 91.34497928 33.97045898 98.82128906 C24.16714718 104.97265219 24.16714718 104.97265219 16.97045898 113.82128906 C16.42043072 116.59343152 16.58415161 119.03552323 16.97045898 121.82128906 C17.05166992 122.50191406 17.13288086 123.18253906 17.21655273 123.88378906 C17.43288658 125.53458274 17.69674972 127.1790335 17.97045898 128.82128906 C11.82730133 126.64074481 7.10118358 122.75074387 1.97045898 118.82128906 C1.25245117 118.29664063 0.53444336 117.77199219 -0.20532227 117.23144531 C-6.28321464 112.44464831 -9.9960622 106.14743518 -13.93139648 99.61474609 C-14.94999087 97.95120799 -16.02098573 96.32006559 -17.09594727 94.69238281 C-21.25351546 88.32178419 -24.50011281 81.87845783 -27.46704102 74.88378906 C-27.80936768 74.07852783 -28.15169434 73.2732666 -28.50439453 72.44360352 C-33.81634525 59.49445551 -34.66170885 41.41012524 -29.28344727 28.34863281 C-28.8696582 27.51460937 -28.45586914 26.68058594 -28.02954102 25.82128906 C-27.60543945 24.95632812 -27.18133789 24.09136719 -26.74438477 23.20019531 C-22.38707866 15.22596101 -10.27638291 -0.9048854 0 0 Z " fill="#FFFFFF" transform="translate(92.029541015625,38.1787109375)"/>
<path d="M0 0 C3.77034974 1.49976134 5.45996442 3.60341575 7.875 6.8125 C11.55740606 11.47768988 15.48013737 15.33345123 19.9375 19.25 C26.58518927 25.17611766 31.10900959 31.66058271 35.81005859 39.16113281 C41.51142206 47.97169286 48.34073961 55.84025659 56 63 C53.20873198 65.99203208 50.45993379 68.0603039 46.9375 70.125 C41.58769657 73.44187813 37.16667282 77.33017282 32.578125 81.6171875 C30.29401556 83.72825835 27.99505589 85.75046475 25.5625 87.6875 C24.96566406 88.16574219 24.36882812 88.64398438 23.75390625 89.13671875 C22 90 22 90 19.97265625 89.8671875 C17.51742659 88.78785882 16.51928944 87.54863543 14.875 85.4375 C12.18169675 82.19054127 9.42957648 79.6645308 6.0625 77.125 C1.60886071 73.69240622 -1.55657991 69.95338031 -4.953125 65.50390625 C-10.96363666 58.15135287 -18.90492445 52.35138349 -26.23828125 46.359375 C-31.39839726 41.95101564 -34.85405352 37.94234336 -38 32 C-37.32324219 31.45988281 -36.64648438 30.91976562 -35.94921875 30.36328125 C-33.82162219 28.65838599 -31.69973734 26.94754362 -29.58203125 25.23046875 C-28.32606468 24.21547251 -27.06953336 23.20117477 -25.8125 22.1875 C-25.15121094 21.65415039 -24.48992187 21.12080078 -23.80859375 20.57128906 C-20.13357192 17.63091411 -16.42201037 14.85864898 -12.5 12.25 C-7.86780465 9.11031501 -4.47256119 5.35397581 -1 1 C-0.67 0.67 -0.34 0.34 0 0 Z " fill="#FEFEFE" transform="translate(176,148)"/>
<path d="M0 0 C2.875 2.0625 2.875 2.0625 5 5 C5.60357278 8.82262761 5.7628425 10.91930646 3.5 14.125 C1 16 1 16 -0.74804688 16.95385742 C-6.77586599 20.28513853 -10.13446413 24.57894282 -14 30.1875 C-15.14358511 31.8075789 -16.28943225 33.42606337 -17.4375 35.04296875 C-18.01491943 35.86047607 -18.59233887 36.6779834 -19.18725586 37.52026367 C-21.03028699 40.04143098 -22.96470385 42.45758385 -24.94140625 44.875 C-29.31614723 50.28259278 -33.13232642 55.99568892 -36.9375 61.8125 C-38.34136929 63.94341933 -39.74630787 66.07363461 -41.15234375 68.203125 C-41.81733887 69.21052734 -42.48233398 70.21792969 -43.16748047 71.25585938 C-45.38255984 74.57287138 -47.67984715 77.81832105 -50 81.0625 C-52.30106804 84.30411867 -54.31185738 87.51693161 -56.0703125 91.07421875 C-56.41578125 91.76829834 -56.76125 92.46237793 -57.1171875 93.17749023 C-57.7702143 94.52040314 -58.39956221 95.87519592 -59 97.24243164 C-59.8828125 99.078125 -59.8828125 99.078125 -62 102 C-65.7421875 102.921875 -65.7421875 102.921875 -69 103 C-70.71393095 101.00789178 -71.90242615 99.61400133 -72.3203125 96.984375 C-70.34690364 74.40857769 -51.8926802 50.87314338 -38.62109375 33.484375 C-36.56539285 30.77801276 -34.57607067 28.02895087 -32.59765625 25.265625 C-31.9938916 24.42845947 -31.39012695 23.59129395 -30.76806641 22.72875977 C-29.57923796 21.0783843 -28.39748695 19.42287908 -27.22412109 17.76147461 C-21.34486459 9.64133314 -11.32895693 -2.26579139 0 0 Z " fill="#030303" transform="translate(183,283)"/>
<path d="M0 0 C2 1 2 1 3 3 C3.60596979 6.30528976 3.86899122 7.87742488 3 11 C0.7817292 13.92526355 -2.02259747 15.88613416 -5 18 C-6.43472656 19.03253906 -6.43472656 19.03253906 -7.8984375 20.0859375 C-12.48026401 23.31018578 -17.11723908 26.43597287 -21.8203125 29.48046875 C-28.66199697 33.92652808 -34.9710485 38.42254908 -40.9296875 44.046875 C-42.63185302 45.65269153 -44.34989448 47.1193543 -46.1875 48.5625 C-49.16476532 51.14279661 -51.60824969 53.90925129 -54.15234375 56.90625 C-55.99173288 58.99063176 -57.92774048 60.89319932 -59.9375 62.8125 C-63.9126979 66.71035942 -67.06536208 71.01894872 -70.23828125 75.58203125 C-71.73416897 77.63514544 -73.03358814 79.40099667 -75 81 C-78.4375 81.5 -78.4375 81.5 -82 81 C-84.5 78.9375 -84.5 78.9375 -86 76 C-85.7318763 70.48711515 -84.24643558 67.20415241 -81.0625 62.75 C-80.66498535 62.19352783 -80.2674707 61.63705566 -79.85791016 61.0637207 C-75.66652998 55.32079453 -70.86530419 50.17344013 -66 45 C-64.78462759 43.61029138 -63.57558591 42.21500263 -62.375 40.8125 C-52.37257084 29.36449833 -40.85405281 20.56153712 -28.12841797 12.37353516 C-26.64613872 11.41697367 -25.16895653 10.45248693 -23.69580078 9.48193359 C-21.32998505 7.92689403 -18.94871416 6.39850976 -16.5625 4.875 C-15.82966797 4.38926514 -15.09683594 3.90353027 -14.34179688 3.40307617 C-9.28444177 0.23189403 -5.96857675 -0.61049643 0 0 Z " fill="#030303" transform="translate(305,207)"/>
<path d="M0 0 C4.84579196 0.87562565 6.80939606 4.47989967 9.58984375 8.24609375 C12.09733745 11.54226923 14.79594232 14.54392954 17.625 17.5625 C18.13361572 18.10793457 18.64223145 18.65336914 19.16625977 19.21533203 C20.21039745 20.33380592 21.25557207 21.45131266 22.30175781 22.56787109 C24.88056441 25.3251612 27.4400366 28.10022605 30 30.875 C30.4947583 31.41036377 30.9895166 31.94572754 31.49926758 32.49731445 C35.57126202 36.90757908 39.60327127 41.35278503 43.62109375 45.8125 C45.97637625 48.35963394 48.4141541 50.80510772 50.875 53.25 C51.41382813 53.82363281 51.95265625 54.39726562 52.5078125 54.98828125 C55.81226759 58.47439487 59.2678265 61.34418791 63.1875 64.125 C79.85382168 76.00981146 79.85382168 76.00981146 81.875 84.25 C81.475 89.65 81.475 89.65 79.875 91.25 C76.5625 91.6875 76.5625 91.6875 72.875 91.25 C71.125 88.8125 71.125 88.8125 70.21875 87.16015625 C66.77185009 82.26034794 61.08318628 78.46944142 56.19165039 75.08544922 C49.64549604 70.46695985 44.16305948 64.80510637 38.54760742 59.12841797 C36.81804845 57.380607 35.08062601 55.64092753 33.34179688 53.90234375 C27.6419739 48.18414775 22.11163383 42.4000763 16.875 36.25 C15.4617645 34.7051874 14.04559591 33.16304675 12.625 31.625 C8.90002283 27.49610965 5.38354591 23.2364373 1.9375 18.875 C1.46473633 18.27993652 0.99197266 17.68487305 0.50488281 17.07177734 C-3.47567659 11.9797255 -5.69713356 8.82953592 -5.125 2.25 C-3.125 0.25 -3.125 0.25 0 0 Z " fill="#040404" transform="translate(295.125,304.75)"/>
<path d="M0 0 C5.54995284 0.07886256 9.57583096 0.90273892 13.88671875 4.53125 C20.42451647 12.00301882 25.3845841 22.98838482 25.22265625 33.01171875 C24.04845792 41.8182062 17.326016 49.84650618 11.88671875 56.53125 C11.55671875 56.53125 11.22671875 56.53125 10.88671875 56.53125 C10.88285156 55.44070312 10.88285156 55.44070312 10.87890625 54.328125 C10.52474512 45.11993551 8.14422434 37.40324094 1.9921875 30.36328125 C-5.84326706 23.11509942 -15.01977213 20.423902 -25.11328125 17.53125 C-21.44372809 13.52746809 -17.83126748 10.99840284 -13.05078125 8.46875 C-8.16507405 5.87407519 -8.16507405 5.87407519 -3.94921875 2.31640625 C-2.11328125 0.53125 -2.11328125 0.53125 0 0 Z " fill="#FFFFFF" transform="translate(320.11328125,159.46875)"/>
<path d="M0 0 C3.6875 0.0625 3.6875 0.0625 7 1 C8.49590709 3.99181417 8.42743011 5.6416206 8 9 C3.5879146 18.1315702 -5.31107399 28.97399872 -14.62207031 33.27807617 C-19.51839215 34.76456731 -24.61216543 34.51779778 -29.6875 34.5 C-37.74938126 34.23640093 -37.74938126 34.23640093 -45.16796875 36.796875 C-46.86346604 38.8358099 -47.84772602 40.24199595 -48.625 42.75 C-48.851875 43.43707031 -49.07875 44.12414062 -49.3125 44.83203125 C-49.539375 45.54746094 -49.76625 46.26289063 -50 47 C-52.8032345 54.8032345 -52.8032345 54.8032345 -54 56 C-57.5 55.6875 -57.5 55.6875 -61 55 C-63.15777816 50.68444367 -62.43596039 45.65574593 -61.24609375 41.13671875 C-58.47205712 33.09745181 -55.29348095 28.53626239 -48.09765625 24.015625 C-42.1613424 21.14143207 -35.62672538 22.0040633 -29.21289062 22.30273438 C-23.28584974 22.4302484 -18.85677694 21.5269053 -14 18 C-11.98088363 16.01846391 -10.36164912 13.88189635 -8.75 11.5625 C-7.93260132 10.43857682 -7.11489713 9.31487575 -6.296875 8.19140625 C-4.83566262 6.16111625 -3.38053369 4.12642369 -1.93359375 2.0859375 C-0.97646484 1.05339844 -0.97646484 1.05339844 0 0 Z " fill="#000000" transform="translate(413,84)"/>
<path d="M0 0 C1.8125 1.125 1.8125 1.125 3 3 C3.60863949 9.18915226 1.92874571 13.46231516 -0.625 18.9375 C-0.98891846 19.73365723 -1.35283691 20.52981445 -1.7277832 21.35009766 C-5.13729537 28.62422262 -8.94870242 35.70042831 -16 40 C-19.95141377 40.9692147 -23.16435716 41.03883656 -27.125 40.375 C-30.87600604 39.71504969 -30.87600604 39.71504969 -33.6875 41.0625 C-36.50594736 43.42390184 -38.72226902 46.13677078 -41 49 C-43.4375 51.9375 -43.4375 51.9375 -46 54 C-49.1875 54 -49.1875 54 -52 53 C-54.10818851 49.83771724 -54.33610743 48.68157741 -53.65625 45.02734375 C-51.04318799 36.95484862 -45.30900811 31.87695213 -38 28 C-34.0797159 26.1041249 -31.02889932 25.77958463 -26.6875 25.875 C-25.61886719 25.89304688 -24.55023438 25.91109375 -23.44921875 25.9296875 C-22.64097656 25.95289063 -21.83273437 25.97609375 -21 26 C-20.46890625 24.865625 -19.9378125 23.73125 -19.390625 22.5625 C-18.67713603 21.04164194 -17.96359138 19.52081001 -17.25 18 C-16.72792969 16.88431641 -16.72792969 16.88431641 -16.1953125 15.74609375 C-15.48988811 14.24380107 -14.77956263 12.74380041 -14.06445312 11.24609375 C-13.35360762 9.74614453 -12.65957001 8.23811638 -11.98242188 6.72265625 C-11.65306641 6.00980469 -11.32371094 5.29695313 -10.984375 4.5625 C-10.69788086 3.92441406 -10.41138672 3.28632812 -10.11621094 2.62890625 C-7.47095252 -1.23136587 -4.18373723 -1.39457908 0 0 Z " fill="#000000" transform="translate(417,112)"/>
<path d="M0 0 C0.85722656 -0.02578125 1.71445313 -0.0515625 2.59765625 -0.078125 C5.37608273 0.31150409 6.21207227 1.10028677 7.9375 3.25 C1.54440874 9.9443364 -4.73886586 16.0065429 -12.375 21.30078125 C-20.2528559 26.83180712 -20.2528559 26.83180712 -26.0625 34.25 C-26.7225 34.25 -27.3825 34.25 -28.0625 34.25 C-29.45610692 32.67638552 -30.77952088 31.04004275 -32.0625 29.375 C-34.91324883 25.68096483 -34.91324883 25.68096483 -38.0625 22.25 C-38.6015625 19.93359375 -38.6015625 19.93359375 -38.0625 17.25 C-35.86181388 15.30513594 -33.90252035 13.84708568 -31.4375 12.3125 C-30.76614014 11.8801001 -30.09478027 11.4477002 -29.40307617 11.00219727 C-20.57883287 5.47555933 -10.58874118 0.19165142 0 0 Z " fill="#FFFFFF" transform="translate(159.0625,137.75)"/>
<path d="M0 0 C0.30292969 1.03898437 0.60585937 2.07796875 0.91796875 3.1484375 C4.86952453 16.43191596 8.35838216 25.8005785 19.875 34.0625 C22 36 22 36 23 38.5 C23 41 23 41 21.9375 43.3125 C20 45 20 45 17.3125 45.625 C12.48723932 44.71457346 9.63833745 42.18794365 6 39 C5.36449219 38.44699219 4.72898437 37.89398438 4.07421875 37.32421875 C-3.99497351 29.80794758 -8.41586338 18.66679309 -9.25 7.71875 C-9.25 5.13194411 -9.18609886 2.57953692 -9 0 C-5.93109813 -1.53445094 -3.29905734 -0.54984289 0 0 Z " fill="#000000" transform="translate(84,89)"/>
<path d="M0 0 C0.78375 0.04125 1.5675 0.0825 2.375 0.125 C4.20596962 7.60908834 4.99980012 14.90363484 5.5859375 22.57226562 C5.99449521 27.42212747 6.75063037 31.50873589 8.375 36.125 C8 40 8 40 7.375 43.125 C4.405 43.62 4.405 43.62 1.375 44.125 C-5.56655216 35.78347093 -4.90610346 24.2202324 -4.9375 13.9375 C-4.94289795 12.81384033 -4.9482959 11.69018066 -4.95385742 10.5324707 C-4.86349197 0.23159486 -4.86349197 0.23159486 0 0 Z " fill="#000000" transform="translate(88.625,54.875)"/>
<path d="M0 0 C4.08411087 0.69770227 5.63167343 3.13649283 8 6.375 C9.31096013 8.34144019 10.60358562 10.32026283 11.875 12.3125 C12.40867188 13.08207031 12.94234375 13.85164062 13.4921875 14.64453125 C15.44413041 17.52833391 16.76116019 19.67215107 17.375 23.125 C16.875 25.3125 16.875 25.3125 15.8125 27.1875 C12.63854056 29.03044419 10.33468683 28.18578293 6.875 27.3125 C4.6171875 24.87109375 4.6171875 24.87109375 2.75 21.75 C2.08871094 20.66460937 1.42742187 19.57921875 0.74609375 18.4609375 C0.12863281 17.42195313 -0.48882812 16.38296875 -1.125 15.3125 C-2.14461417 13.83249268 -3.16523528 12.35317779 -4.1875 10.875 C-5.7812361 8.30256019 -6.13045854 7.56359282 -6.0625 4.4375 C-4.56629466 1.04610123 -3.73162566 0.37316257 0 0 Z " fill="#060606" transform="translate(191.125,181.6875)"/>
</svg>
