<?xml version="1.0" encoding="UTF-8"?>
<svg version="1.1" xmlns="http://www.w3.org/2000/svg" width="500" height="500">
<path d="M0 0 C2.50090912 2.01292685 4.67335109 4.25369956 6.921875 6.546875 C8.17652997 7.78183579 9.43319019 9.01476131 10.69140625 10.24609375 C12.03915142 11.57543069 13.38680596 12.90485952 14.734375 14.234375 C15.42724609 14.91048828 16.12011719 15.58660156 16.83398438 16.28320312 C17.48818359 16.93095703 18.14238281 17.57871094 18.81640625 18.24609375 C19.41300049 18.83221436 20.00959473 19.41833496 20.62426758 20.0222168 C21.921875 21.546875 21.921875 21.546875 21.921875 23.546875 C23.241875 24.206875 24.561875 24.866875 25.921875 25.546875 C25.921875 26.206875 25.921875 26.866875 25.921875 27.546875 C26.581875 27.546875 27.241875 27.546875 27.921875 27.546875 C27.921875 28.206875 27.921875 28.866875 27.921875 29.546875 C28.581875 29.546875 29.241875 29.546875 29.921875 29.546875 C30.416875 31.526875 30.416875 31.526875 30.921875 33.546875 C31.581875 33.546875 32.241875 33.546875 32.921875 33.546875 C33.416875 35.526875 33.416875 35.526875 33.921875 37.546875 C34.581875 37.546875 35.241875 37.546875 35.921875 37.546875 C37.28269309 39.39369955 38.56119448 41.30158415 39.796875 43.234375 C41.82294925 46.38904193 43.80964873 49.40921336 46.1796875 52.31640625 C47.921875 54.546875 47.921875 54.546875 47.921875 56.546875 C48.911875 56.546875 49.901875 56.546875 50.921875 56.546875 C51.4375 55.37125 51.953125 54.195625 52.484375 52.984375 C56.18600936 44.67193294 59.95540709 36.38086351 64.08203125 28.26953125 C64.44071289 27.5638501 64.79939453 26.85816895 65.16894531 26.13110352 C65.85912019 24.78096077 66.55475037 23.4335872 67.25683594 22.08959961 C68.85313844 18.97164474 70.12713835 16.05307581 70.99609375 12.65234375 C71.30160156 11.62753906 71.60710937 10.60273437 71.921875 9.546875 C74.421875 8.359375 74.421875 8.359375 76.921875 7.546875 C77.23125 6.928125 77.540625 6.309375 77.859375 5.671875 C79.53482183 2.32098134 81.61466891 1.23054356 84.921875 -0.453125 C86.98159553 -0.4863463 89.04441171 -0.50261883 91.1015625 -0.39453125 C94.80092995 -0.47138791 98.31144631 -1.21077048 101.921875 -1.953125 C115.64633759 -4.68633981 127.68621839 -3.76791971 139.921875 3.546875 C143.60829312 6.11133978 146.31787231 8.88198233 148.921875 12.546875 C148.921875 13.206875 148.921875 13.866875 148.921875 14.546875 C149.581875 14.546875 150.241875 14.546875 150.921875 14.546875 C151.83618043 16.16449229 152.74964313 17.78258884 153.66015625 19.40234375 C154.48701691 20.80775087 155.3588469 22.18785107 156.27734375 23.53515625 C177.44105253 55.47930649 181.74134629 100.66931344 176.921875 137.546875 C177.375625 137.051875 177.829375 136.556875 178.296875 136.046875 C179.921875 134.546875 179.921875 134.546875 181.921875 134.546875 C182.14875 133.969375 182.375625 133.391875 182.609375 132.796875 C184.25103607 129.98259887 186.35746553 128.51949767 188.921875 126.546875 C189.251875 125.886875 189.581875 125.226875 189.921875 124.546875 C190.581875 124.546875 191.241875 124.546875 191.921875 124.546875 C192.251875 123.556875 192.581875 122.566875 192.921875 121.546875 C194.56827465 120.18859529 196.23483307 118.85433249 197.921875 117.546875 C198.251875 116.886875 198.581875 116.226875 198.921875 115.546875 C199.581875 115.546875 200.241875 115.546875 200.921875 115.546875 C201.251875 114.556875 201.581875 113.566875 201.921875 112.546875 C208.37501255 105.73991007 217.27483352 98.0756951 226.7421875 96.4921875 C230.62684195 96.58965195 233.91950339 98.11893674 236.921875 100.546875 C237.251875 101.536875 237.581875 102.526875 237.921875 103.546875 C238.581875 103.546875 239.241875 103.546875 239.921875 103.546875 C244.921875 109.02306548 244.921875 109.02306548 244.921875 111.546875 C245.581875 111.546875 246.241875 111.546875 246.921875 111.546875 C248.359375 113.48046875 248.359375 113.48046875 249.921875 115.984375 C251.8748666 119.35694151 251.8748666 119.35694151 254.921875 121.546875 C254.921875 122.536875 254.921875 123.526875 254.921875 124.546875 C255.44007813 124.78792969 255.95828125 125.02898437 256.4921875 125.27734375 C259.70986224 126.95860467 262.74500288 128.89930851 265.796875 130.859375 C266.39628906 131.23771484 266.99570312 131.61605469 267.61328125 132.00585938 C277.97100708 138.64513917 277.97100708 138.64513917 279.921875 142.546875 C280.20581778 145.48095042 280.41181501 147.69733884 279.921875 150.546875 C277.3669862 153.64370991 275.76636938 154.4229028 271.80859375 155.00390625 C266.40094468 154.36803194 263.14839816 151.86270881 258.796875 148.734375 C257.23228821 147.64378864 255.66719799 146.55392408 254.1015625 145.46484375 C253.37807617 144.95228027 252.65458984 144.4397168 251.90917969 143.91162109 C250.27900842 142.79213002 248.58026187 141.77313137 246.8671875 140.78515625 C245.90425781 140.17220703 245.90425781 140.17220703 244.921875 139.546875 C244.921875 138.886875 244.921875 138.226875 244.921875 137.546875 C244.261875 137.546875 243.601875 137.546875 242.921875 137.546875 C241.48637774 135.95353261 240.12360173 134.29436418 238.796875 132.609375 C234.66183081 127.43554337 230.36850364 122.4539175 225.921875 117.546875 C225.40238281 118.00578125 224.88289063 118.4646875 224.34765625 118.9375 C218.33599265 124.226875 218.33599265 124.226875 215.171875 126.671875 C212.84680653 128.4761756 212.84680653 128.4761756 211.109375 130.859375 C209.25043733 133.14321271 207.51814372 134.83806143 205.296875 136.734375 C199.43762224 141.74875423 193.67445975 147.08123973 188.87109375 153.12890625 C185.9552814 156.74591596 182.46999331 159.57012366 178.921875 162.546875 C177.973125 163.35125 177.024375 164.155625 176.046875 164.984375 C173.921875 166.546875 173.921875 166.546875 171.921875 166.546875 C171.81617188 167.76246094 171.71046875 168.97804688 171.6015625 170.23046875 C170.90619281 176.46561701 169.47554586 182.50790504 168.046875 188.609375 C167.79035156 189.74181641 167.53382813 190.87425781 167.26953125 192.04101562 C165.86921301 198.08208704 164.26917137 203.80513507 161.921875 209.546875 C162.44918213 209.25554687 162.97648926 208.96421875 163.51977539 208.6640625 C165.10287853 207.7899628 166.68632455 206.91648397 168.27001953 206.04345703 C170.0985247 205.03529579 171.92631058 204.02582899 173.75341797 203.01513672 C177.7949747 200.78601975 181.83286642 198.5653649 185.95703125 196.4921875 C194.96065916 191.94639758 202.94006455 186.42997664 211.0234375 180.40234375 C217.98445191 175.24891296 223.86844957 172.37842749 232.671875 172.671875 C238.64970591 174.28129101 241.51972162 178.02623654 244.56054688 183.1328125 C244.94791016 183.80570313 245.33527344 184.47859375 245.734375 185.171875 C246.14107422 185.8525 246.54777344 186.533125 246.96679688 187.234375 C249.921875 192.26049107 249.921875 192.26049107 249.921875 194.546875 C250.581875 194.546875 251.241875 194.546875 251.921875 194.546875 C252.22480469 195.10375 252.52773438 195.660625 252.83984375 196.234375 C254.96902765 200.11276536 257.12734754 203.8829297 259.609375 207.546875 C262.70373001 212.4527986 264.55235687 217.64665842 263.296875 223.421875 C261.69164845 225.90267967 260.54490228 227.16249949 257.921875 228.546875 C254.31394897 229.08422569 252.50503817 228.86622626 249.296875 227.109375 C246.64342509 224.2464422 245.53284402 221.7374015 244.07421875 218.1640625 C240.42847902 209.88390786 235.17451483 202.25966947 230.20703125 194.7265625 C228.921875 192.546875 228.921875 192.546875 228.921875 190.546875 C226.85729717 191.85619498 224.79497386 193.16881351 222.734375 194.484375 C221.77108276 195.09780762 221.77108276 195.09780762 220.78833008 195.72363281 C216.79000442 198.28846645 212.9395094 200.98428312 209.109375 203.796875 C201.97122063 208.79968405 194.29086327 212.64351185 186.52661133 216.57983398 C178.81914984 220.49963528 171.33415165 224.67605845 164.02294922 229.29638672 C159.36511997 232.12849143 156.38262463 233.08435036 150.921875 232.546875 C150.65890625 233.23136719 150.3959375 233.91585937 150.125 234.62109375 C146.4525039 243.55193655 142.2115763 252.17636584 135.921875 259.546875 C135.28894531 260.33449219 134.65601563 261.12210937 134.00390625 261.93359375 C125.86752166 271.61129709 114.99330235 279.52306588 102.921875 283.546875 C89.25985263 284.64321013 77.55383194 281.10318033 66.921875 272.484375 C54.07565845 260.57565354 40.04126788 239.01417993 38.6640625 221.21484375 C38.25724438 217.42797292 37.77069712 214.89319912 35.921875 211.546875 C31.44492675 208.02160918 25.86387262 206.27536036 20.53466797 204.4453125 C17.90375131 203.54064297 15.30695466 202.56801527 12.70703125 201.578125 C3.79893297 198.26538171 -4.6389797 195.89935557 -14.078125 194.546875 C-26.75584884 214.50095176 -38.46692659 234.5947156 -48.69140625 255.91015625 C-50.078125 258.546875 -50.078125 258.546875 -51.828125 259.984375 C-56.13901396 261.06209724 -59.72210313 260.34658021 -63.515625 258.109375 C-66.04360379 253.96348979 -65.81376391 250.26668214 -65.078125 245.546875 C-62.76425449 237.73089765 -58.67513681 231.0038171 -54.3203125 224.17578125 C-51.69501327 220.00832363 -49.36937989 215.68396448 -47.015625 211.359375 C-43.76964995 205.42022204 -40.38149862 199.7533296 -36.35546875 194.296875 C-35.0198953 192.56883102 -35.0198953 192.56883102 -34.078125 190.546875 C-33.418125 190.546875 -32.758125 190.546875 -32.078125 190.546875 C-31.76875 189.5259375 -31.76875 189.5259375 -31.453125 188.484375 C-28.98228827 183.20576927 -25.50088059 178.86643164 -20.078125 176.546875 C-13.28458373 175.57373251 -6.72383707 177.29110653 -0.203125 179.046875 C0.78905029 179.30879639 1.78122559 179.57071777 2.8034668 179.84057617 C13.23496723 182.71458647 23.24352807 186.70770153 32.921875 191.546875 C32.86128906 190.90588867 32.80070312 190.26490234 32.73828125 189.60449219 C32.45303542 186.50299234 32.18612714 183.40023442 31.921875 180.296875 C31.8185083 179.13913574 31.7151416 177.98139648 31.60864258 176.78857422 C31.10151597 170.47173402 30.89272725 164.33875635 31.24609375 158.0078125 C32.61604001 145.06864314 32.61604001 145.06864314 28.3515625 133.36328125 C25.72743134 130.6648524 22.82809041 128.55656299 19.62402344 126.59619141 C17.13505855 125.06182952 14.89340921 123.24253486 12.609375 121.421875 C11.89136719 120.90367187 11.17335938 120.38546875 10.43359375 119.8515625 C9.93472656 119.42101562 9.43585938 118.99046875 8.921875 118.546875 C8.921875 117.886875 8.921875 117.226875 8.921875 116.546875 C5.94197161 115.30524859 3.0603807 114.29126417 -0.078125 113.546875 C-5.08103581 119.59977944 -10.02450499 125.69611776 -14.890625 131.859375 C-15.34606689 132.43316895 -15.80150879 133.00696289 -16.27075195 133.59814453 C-18.32794228 136.21363398 -20.25718603 138.81876961 -22.08984375 141.6015625 C-28.15096322 150.58011669 -38.83563235 163.36938067 -49.6953125 166.23828125 C-53.37299118 166.42517967 -55.44668857 165.94152277 -58.578125 163.984375 C-60.60839034 160.68519382 -61.078125 158.42617249 -61.078125 154.546875 C-58.30921958 148.34980096 -52.57662256 144.32110503 -47.078125 140.546875 C-46.418125 140.546875 -45.758125 140.546875 -45.078125 140.546875 C-44.76875 139.928125 -44.459375 139.309375 -44.140625 138.671875 C-43.453125 137.296875 -42.765625 135.921875 -42.078125 134.546875 C-41.418125 134.546875 -40.758125 134.546875 -40.078125 134.546875 C-40.078125 133.886875 -40.078125 133.226875 -40.078125 132.546875 C-39.418125 132.546875 -38.758125 132.546875 -38.078125 132.546875 C-37.84222656 131.84949219 -37.60632813 131.15210938 -37.36328125 130.43359375 C-35.83009444 126.9897486 -33.82124384 124.33854541 -31.515625 121.359375 C-28.53383826 117.61916256 -28.53383826 117.61916256 -26.078125 113.546875 C-25.418125 113.546875 -24.758125 113.546875 -24.078125 113.546875 C-23.418125 111.896875 -22.758125 110.246875 -22.078125 108.546875 C-21.418125 108.546875 -20.758125 108.546875 -20.078125 108.546875 C-19.80742187 107.95777344 -19.53671875 107.36867188 -19.2578125 106.76171875 C-18.09286561 104.57455025 -16.84711285 102.95353753 -15.203125 101.109375 C-13.34109914 98.99756519 -11.56579741 96.89223419 -9.828125 94.671875 C-7.58474101 91.94776587 -6.63686159 91.63009109 -3.140625 91.109375 C9.97608173 91.4332443 24.37824459 106.60586643 32.921875 115.546875 C33.251875 115.546875 33.581875 115.546875 33.921875 115.546875 C34.08042969 114.45632812 34.23898438 113.36578125 34.40234375 112.2421875 C36.10501864 101.06674398 38.68434216 90.37277532 41.921875 79.546875 C41.49777344 79.14597656 41.07367188 78.74507813 40.63671875 78.33203125 C36.72526416 74.54092911 33.29696658 70.60328785 30.00390625 66.26953125 C23.27585666 57.47131256 16.39358938 48.72736861 8.921875 40.546875 C8.44073242 40.01674805 7.95958984 39.48662109 7.46386719 38.94042969 C5.76778994 37.07504705 4.06465207 35.21634923 2.359375 33.359375 C1.81676025 32.76439209 1.27414551 32.16940918 0.71508789 31.55639648 C-2.67205441 27.89491261 -6.17951807 24.65989798 -10.078125 21.546875 C-12.32701166 23.67199244 -14.07291644 25.85173559 -15.78515625 28.42578125 C-16.28635986 29.17722412 -16.78756348 29.92866699 -17.30395508 30.70288086 C-17.82755615 31.49702393 -18.35115723 32.29116699 -18.890625 33.109375 C-19.43033936 33.92349854 -19.97005371 34.73762207 -20.52612305 35.57641602 C-23.71069205 40.40311118 -26.79284365 45.27001545 -29.7265625 50.25390625 C-34.2771146 57.97406256 -39.00809831 64.95310707 -45.078125 71.546875 C-46.89024722 73.6547775 -48.69651916 75.76751488 -50.5 77.8828125 C-53.2414398 80.77353862 -54.90401037 81.52689463 -58.890625 81.984375 C-62.32562619 81.87663511 -63.35471766 81.38594836 -66.515625 79.546875 C-69.91629188 75.56560646 -70.078125 73.74264635 -70.078125 68.546875 C-69.140625 65.546875 -69.140625 65.546875 -68.078125 63.546875 C-67.418125 63.546875 -66.758125 63.546875 -66.078125 63.546875 C-65.830625 62.99 -65.583125 62.433125 -65.328125 61.859375 C-63.84887682 59.12276587 -62.14345061 56.87036631 -60.078125 54.546875 C-59.418125 54.546875 -58.758125 54.546875 -58.078125 54.546875 C-58.078125 53.886875 -58.078125 53.226875 -58.078125 52.546875 C-57.418125 52.546875 -56.758125 52.546875 -56.078125 52.546875 C-55.7996875 51.37125 -55.7996875 51.37125 -55.515625 50.171875 C-53.86502301 46.00948737 -51.58276012 42.89877809 -48.96484375 39.29296875 C-45.95880666 34.91772222 -43.52087048 30.25341024 -41.078125 25.546875 C-40.418125 25.546875 -39.758125 25.546875 -39.078125 25.546875 C-38.8409375 24.87269531 -38.60375 24.19851562 -38.359375 23.50390625 C-36.76784654 19.83077501 -34.74298417 16.59232748 -32.578125 13.234375 C-32.17464844 12.58919922 -31.77117187 11.94402344 -31.35546875 11.27929688 C-30.31966758 9.66406238 -29.20471952 8.10014617 -28.078125 6.546875 C-27.418125 6.546875 -26.758125 6.546875 -26.078125 6.546875 C-25.748125 5.226875 -25.418125 3.906875 -25.078125 2.546875 C-24.418125 2.546875 -23.758125 2.546875 -23.078125 2.546875 C-22.645 1.61875 -22.645 1.61875 -22.203125 0.671875 C-20.90005801 -1.78947376 -19.90049263 -3.17324358 -17.21875 -4.0859375 C-10.7113014 -5.20217868 -5.42130276 -3.56786592 0 0 Z " fill="#000000" transform="translate(149.078125,89.453125)"/>
<path d="M0 0 C14.30783131 13.77612136 20.2238365 32.63748745 25.6875 51.125 C25.97302734 52.08954102 26.25855469 53.05408203 26.55273438 54.04785156 C30.2011281 66.72324289 32.5193027 78.57800165 32.375 91.8125 C32.36951645 92.8095546 32.36951645 92.8095546 32.36392212 93.82675171 C32.279644 107.02934158 30.97928395 119.95244587 29 133 C28.79206321 134.49727035 28.5849605 135.99465691 28.37890625 137.4921875 C24.33148921 165.37296155 17.31971763 191.41555414 3.22753906 215.83398438 C1.68651638 218.55314771 0.28515505 221.33620174 -1.125 224.125 C-6.92717835 234.77626112 -17.48285513 245.5703289 -29 250 C-37.51320307 251.54176119 -44.10837781 248.62088842 -51.0625 243.9375 C-58.49243315 237.0962774 -63.19939673 228.11940774 -67.875 219.3125 C-68.58982544 217.97638672 -68.58982544 217.97638672 -69.3190918 216.61328125 C-73.08891395 209.34015585 -75.12407178 203.3460253 -74.87744141 195.03979492 C-75.01466537 192.75591807 -75.58621888 191.06103369 -76.3984375 188.92578125 C-78.20065954 183.72083659 -79.02266165 178.58059869 -79.6875 173.125 C-79.8119751 172.1050293 -79.9364502 171.08505859 -80.06469727 170.03417969 C-80.97780119 161.7781724 -81.35071064 153.55378201 -81.4375 145.25 C-81.45965576 144.09000488 -81.48181152 142.93000977 -81.50463867 141.73486328 C-81.50181885 140.65188965 -81.49899902 139.56891602 -81.49609375 138.453125 C-81.49794678 137.49567383 -81.4997998 136.53822266 -81.50170898 135.55175781 C-80.86183691 132.29728439 -79.36637556 131.23293001 -77 129 C-77.15920228 125.09954411 -77.82082779 123.26875831 -80 120 C-80.18286133 118.01733398 -80.18286133 118.01733398 -80.08203125 115.74609375 C-80.04650146 114.90135498 -80.01097168 114.05661621 -79.97436523 113.1862793 C-79.92094971 112.27918213 -79.86753418 111.37208496 -79.8125 110.4375 C-79.75843994 109.49366455 -79.70437988 108.5498291 -79.64868164 107.57739258 C-78.06229855 83.02661865 -70.01247774 61.02961431 -60.62109375 38.42578125 C-58.759539 33.94096882 -57.05201429 29.42511127 -55.41015625 24.85546875 C-48.6712011 6.65742007 -48.6712011 6.65742007 -43.6484375 3.140625 C-40.05808024 1.53252707 -36.8678643 0.67655712 -33 0 C-31.87980469 -0.31839844 -30.75960937 -0.63679688 -29.60546875 -0.96484375 C-20.28429334 -3.54115914 -8.68157568 -5.36397354 0 0 Z " fill="#FFFFFF" transform="translate(279,106)"/>
<path d="M0 0 C5.00257414 2.18163377 6.66220076 5.55176442 8.8125 10.3125 C9.50332787 11.76323853 10.19740751 13.21243254 10.89453125 14.66015625 C11.24338379 15.3886377 11.59223633 16.11711914 11.95166016 16.86767578 C17.87826644 28.92239849 25.06054017 42.96790701 35.1875 51.9375 C37.57351091 54.65261586 37.92665706 56.40619594 38 60 C36.39590722 63.63031524 34.52890641 66.13752162 31 68 C27.00359795 68.50863299 24.87893866 68.6048759 21.51953125 66.29296875 C18.97290471 63.97534119 17.10174757 61.68837932 15.125 58.875 C14.4340625 57.8953125 13.743125 56.915625 13.03125 55.90625 C12.3609375 54.9471875 11.690625 53.988125 11 53 C10.4328125 52.2265625 9.865625 51.453125 9.28125 50.65625 C5.38646114 45.29172949 1.94057 39.69833647 -1.4375 34 C-2.11208252 32.86763916 -2.11208252 32.86763916 -2.80029297 31.71240234 C-3.21553223 31.00293457 -3.63077148 30.2934668 -4.05859375 29.5625 C-4.62018188 28.60537109 -4.62018188 28.60537109 -5.19311523 27.62890625 C-6 26 -6 26 -6 24 C-11.27333964 26.81199825 -15.64671668 29.99562644 -20.125 33.9375 C-21.01638672 34.70610352 -21.01638672 34.70610352 -21.92578125 35.49023438 C-25.42640364 38.53106199 -28.75745407 41.68166835 -32 45 C-36.8210378 49.89893608 -41.65856345 54.68948296 -46.87890625 59.1640625 C-50.27656202 62.10494319 -53.58054638 65.14941543 -56.8984375 68.1796875 C-59.62972816 70.54545227 -60.65985542 70.96149307 -64.3125 71.375 C-68 71 -68 71 -70.9375 68.875 C-73 66 -73 66 -73.6875 63.25 C-72.44880182 57.39433589 -68.53255978 51.91166118 -64 48 C-63.34 48 -62.68 48 -62 48 C-61.67 47.01 -61.34 46.02 -61 45 C-58.5625 42.3125 -58.5625 42.3125 -56 40 C-55.34 40 -54.68 40 -54 40 C-53.7525 39.38125 -53.505 38.7625 -53.25 38.125 C-51.76259631 35.59641373 -50.56321991 35.28160996 -48 34 C-47.29848848 32.6846659 -46.63474075 31.34882408 -46 30 C-44 27.75 -44 27.75 -42 26 C-41.34 26 -40.68 26 -40 26 C-40 25.34 -40 24.68 -40 24 C-39.34 24 -38.68 24 -38 24 C-37.505 22.515 -37.505 22.515 -37 21 C-28.76867335 13.04038705 -11.93321322 -1.52338892 0 0 Z " fill="#000000" transform="translate(394,83)"/>
</svg>
