<?xml version="1.0" encoding="UTF-8"?>
<svg version="1.1" xmlns="http://www.w3.org/2000/svg" width="500" height="500">
<path d="M0 0 C0.680625 0.495 1.36125 0.99 2.0625 1.5 C2.7225 0.84 3.3825 0.18 4.0625 -0.5 C7.5625 -0.75 7.5625 -0.75 11.0625 -0.5 C13.87399314 2.31149314 13.70508713 5.33828327 14.1875 9.125 C15.64321004 19.2036329 18.85625482 28.52321575 22.22265625 38.1015625 C28.7285896 56.78372314 28.7285896 56.78372314 25.140625 64.4765625 C21.45300308 69.22708721 16.22528139 72.12942045 11.22265625 75.328125 C6.98109006 78.2432187 3.31954413 81.61443988 -0.421875 85.13671875 C-2.54296919 87.12936159 -4.70536178 89.01034795 -6.9375 90.875 C-15.04483002 97.93782738 -21.89648473 106.36231736 -28.62109375 114.7109375 C-31.16110654 117.76923283 -33.80351616 120.70515518 -36.5 123.625 C-36.97139404 124.13667725 -37.44278809 124.64835449 -37.9284668 125.17553711 C-39.91380377 127.3257128 -41.90671199 129.46757562 -43.921875 131.58984375 C-49.9694776 138.11556878 -55.05987958 145.35049603 -60.2890625 152.53125 C-63.61283947 157.08494762 -67.04242359 161.54763427 -70.5 166 C-75.69892764 172.72002508 -80.52120852 179.64861993 -85.27148438 186.69091797 C-89.12252219 192.37761715 -93.18484511 197.80547251 -97.41796875 203.21484375 C-106.91627212 215.46889745 -115.50221458 228.50121619 -123.9375 241.5 C-124.35660645 242.14146973 -124.77571289 242.78293945 -125.20751953 243.44384766 C-130.34413642 251.37505108 -134.32270477 259.39626353 -137.84423828 268.1628418 C-140.24331085 274.06683724 -143.02539579 279.65026834 -146.0625 285.25 C-161.38948524 313.81078174 -165.92723646 342.59608141 -166.59716797 374.53491211 C-167.02132257 394.33715941 -167.02132257 394.33715941 -169.5625 397.5625 C-172.91780486 398.88696244 -175.36373292 398.94672088 -178.9375 398.5 C-181.375 396.6875 -181.375 396.6875 -182.9375 394.5 C-182.9375 393.51 -182.9375 392.52 -182.9375 391.5 C-183.46085938 391.24605469 -183.98421875 390.99210937 -184.5234375 390.73046875 C-191.87155473 386.98506919 -199.14027747 382.91915177 -205.8125 378.0625 C-214.24282151 372.01170472 -223.56329161 367.29173075 -232.70703125 362.421875 C-244.15751535 356.31068213 -255.26894114 349.99728763 -266.04541016 342.76123047 C-269.08568209 340.73464404 -272.16943036 338.77702569 -275.25 336.8125 C-279.35572703 334.17912418 -283.44147192 331.51818539 -287.5 328.8125 C-288.47710937 328.16410156 -289.45421875 327.51570313 -290.4609375 326.84765625 C-293.16134796 325.04068118 -295.81978684 323.17904688 -298.4765625 321.30859375 C-313.28072853 311.00773264 -328.84166599 303.20538023 -345.41796875 296.15234375 C-346.25046143 295.7951123 -347.0829541 295.43788086 -347.94067383 295.06982422 C-349.46876462 294.42083784 -351.00345963 293.78708305 -352.5456543 293.17236328 C-356.83437504 291.37312253 -359.14536467 289.86316025 -360.9375 285.5 C-360.81402168 282.41304191 -360.43806429 280.35390379 -358.875 277.6875 C-355.74462018 275.76888011 -352.57040229 275.79777888 -348.9375 275.5 C-348.855 274.345 -348.7725 273.19 -348.6875 272 C-348.20040822 268.03368126 -346.92498809 265.19305043 -345.01586914 261.72216797 C-343.9354911 259.49586032 -343.29126494 257.42007048 -342.66015625 255.03125 C-340.81523812 248.68832351 -338.05854796 242.83999347 -335.25 236.875 C-334.73888672 235.77542969 -334.22777344 234.67585937 -333.70117188 233.54296875 C-332.45259683 230.85911585 -331.19796333 228.17828468 -329.9375 225.5 C-329.2775 225.5 -328.6175 225.5 -327.9375 225.5 C-327.84726562 224.97664062 -327.75703125 224.45328125 -327.6640625 223.9140625 C-326.67736881 220.63569314 -325.02228357 217.81772395 -323.3125 214.875 C-322.95639648 214.25471924 -322.60029297 213.63443848 -322.23339844 212.99536133 C-319.56095595 208.40632467 -316.59040632 204.1109417 -313.4609375 199.8203125 C-311.91321331 197.4630095 -310.86235303 195.17453434 -309.8125 192.5625 C-308.60030252 189.65528061 -308.00758964 188.56086732 -305.5625 186.4375 C-301.45069223 184.96899723 -298.48115956 184.9352465 -294.375 186.4375 C-291.33148175 189.01278468 -290.0034988 191.78191482 -288.1875 195.2890625 C-286.52924253 198.2221054 -284.43212575 200.25483683 -281.9375 202.5 C-280.26802986 204.16385847 -278.60173536 205.83090556 -276.9375 207.5 C-275.61298828 208.78970703 -275.61298828 208.78970703 -274.26171875 210.10546875 C-273.39160156 210.95753906 -272.52148438 211.80960938 -271.625 212.6875 C-270.30048828 213.97720703 -270.30048828 213.97720703 -268.94921875 215.29296875 C-266.9375 217.5 -266.9375 217.5 -266.9375 219.5 C-266.08865234 219.86931641 -266.08865234 219.86931641 -265.22265625 220.24609375 C-262.54501742 221.71536224 -260.60706388 223.47752435 -258.375 225.5625 C-253.05997044 230.42749786 -247.55854009 234.99436212 -241.9375 239.5 C-241.37450195 239.95729492 -240.81150391 240.41458984 -240.23144531 240.88574219 C-233.42628711 246.41097998 -226.83389911 251.59251552 -218.9375 255.5 C-218.77459473 254.91806885 -218.61168945 254.3361377 -218.44384766 253.73657227 C-216.44226725 246.80870596 -213.95298758 240.14404264 -211.3125 233.4375 C-208.26493385 225.63900486 -205.32303676 217.82515583 -202.57861328 209.91479492 C-198.2059962 197.33832474 -192.91885135 185.43799145 -186.91796875 173.55517578 C-185.83057533 171.38435082 -185.83057533 171.38435082 -184.9375 168.5 C-184.2775 168.5 -183.6175 168.5 -182.9375 168.5 C-182.73125 167.71625 -182.525 166.9325 -182.3125 166.125 C-180.78251724 162.09140909 -178.76190287 158.71540319 -176.49609375 155.05859375 C-175.13405909 152.8226722 -173.90060921 150.56829055 -172.6875 148.25 C-169.38766188 142.22886681 -165.24394784 136.76529504 -161.1965332 131.23364258 C-159.47737005 128.86641792 -157.79640838 126.4726126 -156.11791992 124.07641602 C-154.28049916 121.62259474 -152.22066519 119.53633653 -149.9375 117.5 C-149.2775 117.5 -148.6175 117.5 -147.9375 117.5 C-147.55271484 116.63568359 -147.55271484 116.63568359 -147.16015625 115.75390625 C-145.40865417 112.52509889 -142.97601686 110.08849747 -140.49609375 107.40234375 C-138.7330971 105.48116107 -138.7330971 105.48116107 -137.9375 102.5 C-136.34375 100.96484375 -136.34375 100.96484375 -134.4375 99.4375 C-131.75643599 97.32278233 -131.75643599 97.32278233 -129.9375 94.5 C-129.2775 94.5 -128.6175 94.5 -127.9375 94.5 C-127.9375 93.84 -127.9375 93.18 -127.9375 92.5 C-127.2775 92.5 -126.6175 92.5 -125.9375 92.5 C-125.6075 91.51 -125.2775 90.52 -124.9375 89.5 C-124.2775 89.5 -123.6175 89.5 -122.9375 89.5 C-122.9375 88.51 -122.9375 87.52 -122.9375 86.5 C-120.5625 83.8125 -120.5625 83.8125 -117.9375 81.5 C-117.2775 81.5 -116.6175 81.5 -115.9375 81.5 C-115.6075 80.51 -115.2775 79.52 -114.9375 78.5 C-114.2775 78.5 -113.6175 78.5 -112.9375 78.5 C-112.9375 77.84 -112.9375 77.18 -112.9375 76.5 C-112.2775 76.5 -111.6175 76.5 -110.9375 76.5 C-110.6075 75.51 -110.2775 74.52 -109.9375 73.5 C-109.2775 73.5 -108.6175 73.5 -107.9375 73.5 C-107.6075 72.51 -107.2775 71.52 -106.9375 70.5 C-106.2775 70.5 -105.6175 70.5 -104.9375 70.5 C-104.6075 69.51 -104.2775 68.52 -103.9375 67.5 C-102.265625 65.8515625 -102.265625 65.8515625 -100.1875 64.125 C-97.69633654 62.02224374 -95.30981472 59.924199 -93.0625 57.5625 C-90.9375 55.5 -90.9375 55.5 -88.9375 55.5 C-88.6075 54.51 -88.2775 53.52 -87.9375 52.5 C-86.2978279 51.13360658 -84.62639872 49.8050581 -82.9375 48.5 C-82.21046875 47.76523438 -81.4834375 47.03046875 -80.734375 46.2734375 C-76.82929618 42.4010828 -72.64602934 38.88490326 -68.46484375 35.31640625 C-65.56678183 32.82817127 -62.74103479 30.34972097 -60.09375 27.59375 C-57.9375 25.5 -57.9375 25.5 -55.9375 25.5 C-55.9375 24.84 -55.9375 24.18 -55.9375 23.5 C-53.72051596 21.8160613 -51.51412209 20.26949533 -49.1875 18.75 C-48.5066333 18.30043945 -47.8257666 17.85087891 -47.12426758 17.38769531 C-42.15380791 14.16041076 -37.07052116 11.40719701 -31.7109375 8.87109375 C-28.93755795 7.50002865 -26.36729217 5.95938077 -23.75 4.3125 C-16.64562133 -0.02526967 -8.04668996 -4.10894806 0 0 Z " fill="#FFFFFF" transform="translate(428.9375,47.5)"/>
<path d="M0 0 C0.680625 0.495 1.36125 0.99 2.0625 1.5 C2.7225 0.84 3.3825 0.18 4.0625 -0.5 C7.5625 -0.75 7.5625 -0.75 11.0625 -0.5 C13.87399314 2.31149314 13.70508713 5.33828327 14.1875 9.125 C15.64321004 19.2036329 18.85625482 28.52321575 22.22265625 38.1015625 C28.7285896 56.78372314 28.7285896 56.78372314 25.140625 64.4765625 C21.45300308 69.22708721 16.22528139 72.12942045 11.22265625 75.328125 C6.98109006 78.2432187 3.31954413 81.61443988 -0.421875 85.13671875 C-2.54296919 87.12936159 -4.70536178 89.01034795 -6.9375 90.875 C-15.04483002 97.93782738 -21.89648473 106.36231736 -28.62109375 114.7109375 C-31.16110654 117.76923283 -33.80351616 120.70515518 -36.5 123.625 C-36.97139404 124.13667725 -37.44278809 124.64835449 -37.9284668 125.17553711 C-39.91380377 127.3257128 -41.90671199 129.46757562 -43.921875 131.58984375 C-49.9694776 138.11556878 -55.05987958 145.35049603 -60.2890625 152.53125 C-63.61283947 157.08494762 -67.04242359 161.54763427 -70.5 166 C-75.69892764 172.72002508 -80.52120852 179.64861993 -85.27148438 186.69091797 C-89.12252219 192.37761715 -93.18484511 197.80547251 -97.41796875 203.21484375 C-106.91627212 215.46889745 -115.50221458 228.50121619 -123.9375 241.5 C-124.35660645 242.14146973 -124.77571289 242.78293945 -125.20751953 243.44384766 C-130.34413642 251.37505108 -134.32270477 259.39626353 -137.84423828 268.1628418 C-140.24331085 274.06683724 -143.02539579 279.65026834 -146.0625 285.25 C-161.38948524 313.81078174 -165.92723646 342.59608141 -166.59716797 374.53491211 C-167.02132257 394.33715941 -167.02132257 394.33715941 -169.5625 397.5625 C-172.91780486 398.88696244 -175.36373292 398.94672088 -178.9375 398.5 C-181.375 396.6875 -181.375 396.6875 -182.9375 394.5 C-182.9375 393.51 -182.9375 392.52 -182.9375 391.5 C-183.46085938 391.24605469 -183.98421875 390.99210937 -184.5234375 390.73046875 C-191.87155473 386.98506919 -199.14027747 382.91915177 -205.8125 378.0625 C-214.24282151 372.01170472 -223.56329161 367.29173075 -232.70703125 362.421875 C-244.15751535 356.31068213 -255.26894114 349.99728763 -266.04541016 342.76123047 C-269.08568209 340.73464404 -272.16943036 338.77702569 -275.25 336.8125 C-279.35572703 334.17912418 -283.44147192 331.51818539 -287.5 328.8125 C-288.47710937 328.16410156 -289.45421875 327.51570313 -290.4609375 326.84765625 C-293.16134796 325.04068118 -295.81978684 323.17904688 -298.4765625 321.30859375 C-313.28072853 311.00773264 -328.84166599 303.20538023 -345.41796875 296.15234375 C-346.25046143 295.7951123 -347.0829541 295.43788086 -347.94067383 295.06982422 C-349.46876462 294.42083784 -351.00345963 293.78708305 -352.5456543 293.17236328 C-356.83437504 291.37312253 -359.14536467 289.86316025 -360.9375 285.5 C-360.81402168 282.41304191 -360.43806429 280.35390379 -358.875 277.6875 C-355.74462018 275.76888011 -352.57040229 275.79777888 -348.9375 275.5 C-348.855 274.345 -348.7725 273.19 -348.6875 272 C-348.20040822 268.03368126 -346.92498809 265.19305043 -345.01586914 261.72216797 C-343.9354911 259.49586032 -343.29126494 257.42007048 -342.66015625 255.03125 C-340.81523812 248.68832351 -338.05854796 242.83999347 -335.25 236.875 C-334.73888672 235.77542969 -334.22777344 234.67585937 -333.70117188 233.54296875 C-332.45259683 230.85911585 -331.19796333 228.17828468 -329.9375 225.5 C-329.2775 225.5 -328.6175 225.5 -327.9375 225.5 C-327.84726562 224.97664062 -327.75703125 224.45328125 -327.6640625 223.9140625 C-326.67736881 220.63569314 -325.02228357 217.81772395 -323.3125 214.875 C-322.95639648 214.25471924 -322.60029297 213.63443848 -322.23339844 212.99536133 C-319.56095595 208.40632467 -316.59040632 204.1109417 -313.4609375 199.8203125 C-311.91321331 197.4630095 -310.86235303 195.17453434 -309.8125 192.5625 C-308.60030252 189.65528061 -308.00758964 188.56086732 -305.5625 186.4375 C-301.45069223 184.96899723 -298.48115956 184.9352465 -294.375 186.4375 C-291.33148175 189.01278468 -290.0034988 191.78191482 -288.1875 195.2890625 C-286.52924253 198.2221054 -284.43212575 200.25483683 -281.9375 202.5 C-280.26802986 204.16385847 -278.60173536 205.83090556 -276.9375 207.5 C-275.61298828 208.78970703 -275.61298828 208.78970703 -274.26171875 210.10546875 C-273.39160156 210.95753906 -272.52148438 211.80960938 -271.625 212.6875 C-270.30048828 213.97720703 -270.30048828 213.97720703 -268.94921875 215.29296875 C-266.9375 217.5 -266.9375 217.5 -266.9375 219.5 C-266.08865234 219.86931641 -266.08865234 219.86931641 -265.22265625 220.24609375 C-262.54501742 221.71536224 -260.60706388 223.47752435 -258.375 225.5625 C-253.05997044 230.42749786 -247.55854009 234.99436212 -241.9375 239.5 C-241.37450195 239.95729492 -240.81150391 240.41458984 -240.23144531 240.88574219 C-233.42628711 246.41097998 -226.83389911 251.59251552 -218.9375 255.5 C-218.77459473 254.91806885 -218.61168945 254.3361377 -218.44384766 253.73657227 C-216.44226725 246.80870596 -213.95298758 240.14404264 -211.3125 233.4375 C-208.26493385 225.63900486 -205.32303676 217.82515583 -202.57861328 209.91479492 C-198.2059962 197.33832474 -192.91885135 185.43799145 -186.91796875 173.55517578 C-185.83057533 171.38435082 -185.83057533 171.38435082 -184.9375 168.5 C-184.2775 168.5 -183.6175 168.5 -182.9375 168.5 C-182.73125 167.71625 -182.525 166.9325 -182.3125 166.125 C-180.78251724 162.09140909 -178.76190287 158.71540319 -176.49609375 155.05859375 C-175.13405909 152.8226722 -173.90060921 150.56829055 -172.6875 148.25 C-169.38766188 142.22886681 -165.24394784 136.76529504 -161.1965332 131.23364258 C-159.47737005 128.86641792 -157.79640838 126.4726126 -156.11791992 124.07641602 C-154.28049916 121.62259474 -152.22066519 119.53633653 -149.9375 117.5 C-149.2775 117.5 -148.6175 117.5 -147.9375 117.5 C-147.55271484 116.63568359 -147.55271484 116.63568359 -147.16015625 115.75390625 C-145.40865417 112.52509889 -142.97601686 110.08849747 -140.49609375 107.40234375 C-138.7330971 105.48116107 -138.7330971 105.48116107 -137.9375 102.5 C-136.34375 100.96484375 -136.34375 100.96484375 -134.4375 99.4375 C-131.75643599 97.32278233 -131.75643599 97.32278233 -129.9375 94.5 C-129.2775 94.5 -128.6175 94.5 -127.9375 94.5 C-127.9375 93.84 -127.9375 93.18 -127.9375 92.5 C-127.2775 92.5 -126.6175 92.5 -125.9375 92.5 C-125.6075 91.51 -125.2775 90.52 -124.9375 89.5 C-124.2775 89.5 -123.6175 89.5 -122.9375 89.5 C-122.9375 88.51 -122.9375 87.52 -122.9375 86.5 C-120.5625 83.8125 -120.5625 83.8125 -117.9375 81.5 C-117.2775 81.5 -116.6175 81.5 -115.9375 81.5 C-115.6075 80.51 -115.2775 79.52 -114.9375 78.5 C-114.2775 78.5 -113.6175 78.5 -112.9375 78.5 C-112.9375 77.84 -112.9375 77.18 -112.9375 76.5 C-112.2775 76.5 -111.6175 76.5 -110.9375 76.5 C-110.6075 75.51 -110.2775 74.52 -109.9375 73.5 C-109.2775 73.5 -108.6175 73.5 -107.9375 73.5 C-107.6075 72.51 -107.2775 71.52 -106.9375 70.5 C-106.2775 70.5 -105.6175 70.5 -104.9375 70.5 C-104.6075 69.51 -104.2775 68.52 -103.9375 67.5 C-102.265625 65.8515625 -102.265625 65.8515625 -100.1875 64.125 C-97.69633654 62.02224374 -95.30981472 59.924199 -93.0625 57.5625 C-90.9375 55.5 -90.9375 55.5 -88.9375 55.5 C-88.6075 54.51 -88.2775 53.52 -87.9375 52.5 C-86.2978279 51.13360658 -84.62639872 49.8050581 -82.9375 48.5 C-82.21046875 47.76523438 -81.4834375 47.03046875 -80.734375 46.2734375 C-76.82929618 42.4010828 -72.64602934 38.88490326 -68.46484375 35.31640625 C-65.56678183 32.82817127 -62.74103479 30.34972097 -60.09375 27.59375 C-57.9375 25.5 -57.9375 25.5 -55.9375 25.5 C-55.9375 24.84 -55.9375 24.18 -55.9375 23.5 C-53.72051596 21.8160613 -51.51412209 20.26949533 -49.1875 18.75 C-48.5066333 18.30043945 -47.8257666 17.85087891 -47.12426758 17.38769531 C-42.15380791 14.16041076 -37.07052116 11.40719701 -31.7109375 8.87109375 C-28.93755795 7.50002865 -26.36729217 5.95938077 -23.75 4.3125 C-16.64562133 -0.02526967 -8.04668996 -4.10894806 0 0 Z M1.0625 12.5 C0.258125 13.469375 -0.54625 14.43875 -1.375 15.4375 C-3.9375 18.5 -3.9375 18.5 -5.9375 19.5 C-7.13632812 19.43554688 -8.33515625 19.37109375 -9.5703125 19.3046875 C-14.51000783 19.24898503 -17.6916815 21.07791572 -21.8125 23.625 C-22.50939941 24.03878906 -23.20629883 24.45257813 -23.92431641 24.87890625 C-25.3091421 25.70306208 -26.68999425 26.53393844 -28.06640625 27.37207031 C-29.63933898 28.32026306 -31.23886285 29.22414546 -32.84375 30.1171875 C-39.35159321 33.76240348 -44.53094724 38.3970018 -49.9375 43.5 C-51.80916602 45.21198542 -53.68420738 46.92028753 -55.5625 48.625 C-56.95082031 49.89150391 -56.95082031 49.89150391 -58.3671875 51.18359375 C-60.4462269 53.05725692 -62.55166728 54.87990132 -64.6875 56.6875 C-69.66709219 60.989951 -74.22676032 65.74212769 -78.83496094 70.43432617 C-79.77903809 71.39109253 -79.77903809 71.39109253 -80.7421875 72.3671875 C-81.59272705 73.23512939 -81.59272705 73.23512939 -82.46044922 74.12060547 C-83.9375 75.5 -83.9375 75.5 -85.9375 76.5 C-85.9375 77.16 -85.9375 77.82 -85.9375 78.5 C-86.52233154 78.75958496 -87.10716309 79.01916992 -87.7097168 79.28662109 C-90.09620354 80.58643908 -91.67052211 81.98956722 -93.58203125 83.9140625 C-94.59813477 84.93306641 -94.59813477 84.93306641 -95.63476562 85.97265625 C-96.33279297 86.68292969 -97.03082031 87.39320313 -97.75 88.125 C-98.43642578 88.81207031 -99.12285156 89.49914062 -99.83007812 90.20703125 C-103.85709009 94.26833187 -107.68919981 98.44712056 -111.42553711 102.77636719 C-113.13305807 104.72293556 -114.93455982 106.53054343 -116.8125 108.3125 C-120.73807822 112.17768471 -124.14618718 116.35810991 -127.58984375 120.65234375 C-129.92890576 123.48957538 -132.37100417 126.18291058 -134.875 128.875 C-145.20063016 140.17264164 -153.23263467 152.33462952 -160.9375 165.5 C-161.33324219 166.16902344 -161.72898437 166.83804688 -162.13671875 167.52734375 C-172.52218396 185.14364481 -180.49117614 203.41557044 -187.31103516 222.66308594 C-191.29902913 233.8998663 -195.63807233 244.96356515 -200.19287109 255.98217773 C-200.66934082 257.14692627 -201.14581055 258.3116748 -201.63671875 259.51171875 C-202.05783936 260.52709717 -202.47895996 261.54247559 -202.9128418 262.58862305 C-204.3749146 266.74283275 -204.87301676 270.7519944 -205.25 275.125 C-205.9375 278.5 -205.9375 278.5 -207.5625 280.9375 C-210.88870926 283.12579557 -213.02604601 282.980354 -216.9375 282.5 C-220.35904596 281.06772495 -221.66761704 279.95672501 -223.5625 276.75 C-226.06707233 272.6598718 -229.98430882 270.71542853 -234.00390625 268.28125 C-241.15295887 263.94041379 -247.75639234 258.93504909 -254.23828125 253.6640625 C-256.71482028 251.67853048 -259.22768199 249.7497848 -261.75927734 247.83520508 C-274.93684341 237.84180212 -286.32541452 226.23545677 -297.9375 214.5 C-300.80787915 217.18961026 -302.86344864 219.75687272 -304.78515625 223.18359375 C-305.30239258 224.10100342 -305.81962891 225.01841309 -306.35253906 225.96362305 C-307.16803223 227.43569214 -307.16803223 227.43569214 -308 228.9375 C-308.57073242 229.95432861 -309.14146484 230.97115723 -309.72949219 232.01879883 C-313.0437383 237.96042688 -316.22716099 243.95546448 -319.32177734 250.01391602 C-324.42299422 260.00022743 -329.96645796 268.57265698 -337.19140625 277.1875 C-339.13836171 279.28307296 -339.13836171 279.28307296 -338.9375 281.5 C-337.95579834 281.9626123 -336.97409668 282.42522461 -335.96264648 282.90185547 C-332.23866539 284.66063127 -328.52233656 286.43511495 -324.80786133 288.21386719 C-323.21478104 288.97419733 -321.61979022 289.73054038 -320.02270508 290.48242188 C-308.99757187 295.67725629 -298.89557897 301.47580009 -288.9375 308.5 C-287.48251962 309.4997885 -286.02694828 310.49871862 -284.5703125 311.49609375 C-283.40071498 312.30942624 -282.23143575 313.12321668 -281.0625 313.9375 C-272.8069431 319.64500758 -264.41044785 325.12139132 -255.9375 330.5 C-255.3590332 330.86722168 -254.78056641 331.23444336 -254.18457031 331.61279297 C-243.52770998 338.34527239 -232.54830612 344.48975932 -221.44921875 350.45703125 C-209.18728985 357.05776345 -197.32891949 363.64903977 -186.55859375 372.56640625 C-186.02363281 372.87449219 -185.48867187 373.18257813 -184.9375 373.5 C-183.9475 373.17 -182.9575 372.84 -181.9375 372.5 C-181.92291748 371.88817871 -181.90833496 371.27635742 -181.89331055 370.64599609 C-180.97369434 335.73957444 -174.00849501 305.89560495 -158.06518555 274.80517578 C-156.15139362 271.04549919 -154.37263326 267.2577383 -152.703125 263.3828125 C-141.99337118 238.59871651 -126.21070954 216.90897476 -109.9375 195.5 C-104.74470489 188.64396325 -99.64654672 181.73196803 -94.625 174.75 C-88.50661236 166.24821942 -82.26734172 157.84530261 -75.9375 149.5 C-75.51404297 148.94006348 -75.09058594 148.38012695 -74.65429688 147.80322266 C-56.09683856 123.29767251 -56.09683856 123.29767251 -45.19140625 112.77734375 C-42.22572593 109.78082446 -39.70889845 106.51728312 -37.12109375 103.1953125 C-32.67809612 97.71111149 -27.80512996 92.60663747 -22.9375 87.5 C-22.46376953 87.00290527 -21.99003906 86.50581055 -21.50195312 85.99365234 C-10.72984194 74.77207369 1.05757669 65.90669132 14.0625 57.5 C13.54778566 49.21039012 11.16598803 41.7424612 8.625 33.875 C8.21209886 32.57837686 7.79998424 31.281503 7.38867188 29.984375 C6.6298908 27.5929149 5.86740408 25.20262478 5.09985352 22.81396484 C4.02800887 19.38981346 3.03442937 15.95362005 2.0625 12.5 C1.7325 12.5 1.4025 12.5 1.0625 12.5 Z " fill="#000000" transform="translate(428.9375,47.5)"/>
</svg>
