<?xml version="1.0" encoding="UTF-8"?>
<svg version="1.1" xmlns="http://www.w3.org/2000/svg" width="500" height="500">
<path d="M0 0 C2 1.5625 2 1.5625 3 4 C2.32662995 11.00304853 -1.95468808 14.48577355 -7 19 C-7.71414062 19.65742188 -8.42828125 20.31484375 -9.1640625 20.9921875 C-14.36034551 25.68246542 -14.36034551 25.68246542 -17.1796875 27.08203125 C-19.15179416 27.84505296 -19.15179416 27.84505296 -19.875 29.8125 C-21.21623033 32.42044787 -23.0373541 33.73614974 -25.30859375 35.53125 C-27.16258535 37.14118266 -28.67189045 38.86969926 -30.25 40.75 C-33.69377657 44.79434688 -37.50874398 48.24574853 -41.49609375 51.74609375 C-44.61268171 54.55150912 -47.51712074 57.52926832 -50.40625 60.56640625 C-52 62 -52 62 -54 62 C-54.33 62.99 -54.66 63.98 -55 65 C-56.42578125 66.40234375 -56.42578125 66.40234375 -58.3125 67.9375 C-62.07422969 71.11842403 -65.54702035 74.49383914 -69 78 C-72.28500314 81.32686332 -75.5672067 84.58575148 -79.125 87.625 C-82.33428508 90.39326281 -85.47888469 93.21673591 -88.5625 96.125 C-89.43003906 96.93195313 -90.29757813 97.73890625 -91.19140625 98.5703125 C-93.23093235 100.81433856 -93.23093235 100.81433856 -93.03125 103.38671875 C-91.70724465 106.74186868 -89.90656854 109.68458546 -87.9375 112.6875 C-84 118.75192308 -84 118.75192308 -84 121 C-83.34 121 -82.68 121 -82 121 C-80.55261748 123.01348351 -79.23467056 125.01692456 -77.9375 127.125 C-77.13579841 128.40388522 -76.33370301 129.68252364 -75.53125 130.9609375 C-75.11746094 131.62448242 -74.70367187 132.28802734 -74.27734375 132.97167969 C-73.00778819 134.98763298 -71.71268691 136.98434488 -70.40625 138.9765625 C-69.9925415 139.60933105 -69.57883301 140.24209961 -69.15258789 140.89404297 C-68.35243308 142.11622036 -67.54960046 143.33664946 -66.74389648 144.55517578 C-64 148.77627174 -64 148.77627174 -64 151 C-63.34 151 -62.68 151 -62 151 C-59 154.46153846 -59 154.46153846 -59 157 C-58.34 157 -57.68 157 -57 157 C-56.34 158.65 -55.68 160.3 -55 162 C-54.34 162 -53.68 162 -53 162 C-51.4921875 163.8984375 -51.4921875 163.8984375 -49.875 166.375 C-49.33617187 167.18710937 -48.79734375 167.99921875 -48.2421875 168.8359375 C-47 171 -47 171 -47 173 C-46.34 173 -45.68 173 -45 173 C-43.4921875 174.4609375 -43.4921875 174.4609375 -41.875 176.375 C-41.33617187 177.00148438 -40.79734375 177.62796875 -40.2421875 178.2734375 C-39 180 -39 180 -39 182 C-38.1028125 182.4021875 -38.1028125 182.4021875 -37.1875 182.8125 C-35.00152146 183.99917406 -33.58667406 185.09599113 -32 187 C-32 187.66 -32 188.32 -32 189 C-30.02 189.99 -30.02 189.99 -28 191 C-28 191.66 -28 192.32 -28 193 C-27.01 193.33 -26.02 193.66 -25 194 C-25 194.66 -25 195.32 -25 196 C-24.40574219 196.23847656 -23.81148438 196.47695313 -23.19921875 196.72265625 C-20.53339712 198.27101091 -19.46453543 199.85115147 -17.8125 202.4375 C-17.30332031 203.21996094 -16.79414063 204.00242187 -16.26953125 204.80859375 C-13.62374928 209.37562047 -13.34757954 213.84587836 -14 219 C-16.13156064 222.41049703 -17.54063603 222.88307099 -21.4375 223.875 C-25.11581777 224.00406378 -26.81798169 223.7584838 -30 222 C-30.94140625 219.8203125 -30.94140625 219.8203125 -31.5625 217.125 C-33.75277104 210.12907097 -38.2705785 206.25310333 -43.515625 201.43359375 C-44.33546875 200.63050781 -45.1553125 199.82742188 -46 199 C-46 198.34 -46 197.68 -46 197 C-46.86625 196.6596875 -46.86625 196.6596875 -47.75 196.3125 C-50.59591381 194.65238361 -51.99841921 192.60812043 -54 190 C-54.7425 189.278125 -55.485 188.55625 -56.25 187.8125 C-60.16933771 183.80408643 -63.53301892 179.39965688 -67 175 C-68.33295747 173.35386224 -69.66628622 171.70802505 -71 170.0625 C-78.17805941 161.06543917 -84.59766283 151.66492252 -90.75537109 141.95361328 C-93.02392651 138.39280895 -95.32745995 134.8546391 -97.625 131.3125 C-98.55100939 129.88035582 -99.47679591 128.44806751 -100.40234375 127.015625 C-102.01364993 124.52214789 -103.63061502 122.03256252 -105.25390625 119.546875 C-105.89199219 118.56203125 -106.53007813 117.5771875 -107.1875 116.5625 C-107.73792969 115.71816406 -108.28835937 114.87382812 -108.85546875 114.00390625 C-110 112 -110 112 -110 110 C-110.61875 109.9175 -111.2375 109.835 -111.875 109.75 C-114 109 -114 109 -115.25 107.3125 C-116.28679044 104.11572949 -116.58282321 102.36742301 -116 99 C-114.05560013 95.97380675 -111.52579204 93.54568017 -109 91 C-107.82916274 89.7919228 -106.65861361 88.58356633 -105.48828125 87.375 C-104.2228928 86.08182596 -102.95595112 84.79017006 -101.6875 83.5 C-100.75333252 82.54577148 -100.75333252 82.54577148 -99.80029297 81.57226562 C-99.21006348 80.98123047 -98.61983398 80.39019531 -98.01171875 79.78125 C-97.48022217 79.24564453 -96.94872559 78.71003906 -96.40112305 78.15820312 C-95 77 -95 77 -93 77 C-92.505 75.515 -92.505 75.515 -92 74 C-90.328125 72.3515625 -90.328125 72.3515625 -88.25 70.625 C-85.75883654 68.52224374 -83.37231472 66.424199 -81.125 64.0625 C-79 62 -79 62 -77 62 C-76.67 61.01 -76.34 60.02 -76 59 C-74.43359375 57.45703125 -74.43359375 57.45703125 -72.4375 55.8125 C-68.60614476 52.58173558 -65.11928602 49.13120266 -61.6640625 45.50390625 C-60 44 -60 44 -58 44 C-57.67 43.01 -57.34 42.02 -57 41 C-55.29296875 39.24609375 -55.29296875 39.24609375 -53.1875 37.4375 C-52.50042969 36.83808594 -51.81335938 36.23867187 -51.10546875 35.62109375 C-49 34 -49 34 -46.81640625 32.91796875 C-44.46027846 31.7272375 -43.96006582 30.40016456 -43 28 C-42.34 28 -41.68 28 -41 28 C-40.79375 27.443125 -40.5875 26.88625 -40.375 26.3125 C-38.82717544 23.70934052 -36.92709872 22.14846227 -34.5703125 20.28125 C-32.79369781 18.87564088 -32.79369781 18.87564088 -30.5625 16.5625 C-22.70982526 8.70982526 -11.79685867 -1.22883944 0 0 Z " fill="#000000" transform="translate(226,139)"/>
<path d="M0 0 C4.89893361 1.49458992 6.75425781 4.16735002 9.6875 8.125 C11.04602894 9.86540004 12.41507832 11.59725293 13.78417969 13.3293457 C15.19799669 15.12157775 16.60130327 16.92164365 18.00390625 18.72265625 C20.50164823 21.91266306 23.08516115 25.01979374 25.6875 28.125 C27.80046498 30.73150425 29.9099044 33.34076486 32.015625 35.953125 C40.87148921 46.57840668 50.68465268 56.21145076 60.5 65.9375 C63.46776733 68.87858505 66.43213579 71.82303661 69.39453125 74.76953125 C70.06748734 75.434189 70.74044342 76.09884674 71.43379211 76.78364563 C74.75860275 80.0910604 77.75579078 83.45922683 80.6875 87.125 C82.1725 88.115 82.1725 88.115 83.6875 89.125 C85.0390625 91.3671875 85.0390625 91.3671875 86.3125 94 C86.73789062 94.86367187 87.16328125 95.72734375 87.6015625 96.6171875 C89.58083891 101.18803446 90.26048356 105.13185754 89.6875 110.125 C88.5019916 112.35075689 87.09074432 114.30688947 85.61328125 116.3515625 C83.36954655 119.58290456 81.44545062 122.96088856 79.5 126.375 C74.69173758 134.70996199 69.4253803 142.72401945 64.125 150.75 C58.38777172 159.43800387 52.7366515 168.14079173 47.45703125 177.1171875 C42.86524316 184.92221362 37.89985396 192.36044569 32.484375 199.6171875 C29.8914671 203.23598505 27.90540044 206.20311351 26.875 210.5625 C25.40825954 214.96272138 23.45286673 217.45078468 19.6875 220.125 C16.625 221.1875 16.625 221.1875 13.6875 221.125 C11.36018444 219.98720128 9.51909286 218.95659286 7.6875 217.125 C6.57997032 204.49916168 15.54415605 195.04329295 22.44140625 185.18359375 C23.15478149 184.15878906 23.15478149 184.15878906 23.88256836 183.11328125 C24.80123312 181.79574942 25.72482388 180.48163113 26.65454102 179.171875 C29.1689007 175.56865596 31.36376876 171.92475905 33.41015625 168.03515625 C37.24360756 160.8730779 41.87999404 154.29283468 46.5 147.625 C47.80717981 145.73425348 49.11273108 143.84246133 50.41398621 141.94763184 C51.21614924 140.77987265 52.02174626 139.61446267 52.83125305 138.45178223 C54.51289701 136.00655653 55.74217597 133.96097208 56.6875 131.125 C57.3475 131.125 58.0075 131.125 58.6875 131.125 C58.6875 130.135 58.6875 129.145 58.6875 128.125 C59.3475 128.125 60.0075 128.125 60.6875 128.125 C60.89375 127.3 61.1 126.475 61.3125 125.625 C62.5120008 122.57172523 63.53195561 120.8370608 65.5 118.3125 C67.73049156 115.44472514 69.76690599 112.56200445 71.625 109.4375 C72.04652344 108.73238281 72.46804688 108.02726562 72.90234375 107.30078125 C73.92414855 104.46921271 73.6034078 102.97149777 72.6875 100.125 C70.16461835 95.85993298 66.85574186 92.19224685 63.3125 88.75 C62.44625 87.88375 61.58 87.0175 60.6875 86.125 C60.6875 85.465 60.6875 84.805 60.6875 84.125 C60.08711914 83.85510254 59.48673828 83.58520508 58.86816406 83.30712891 C56.68767373 82.12509418 55.44193093 81.04176242 53.796875 79.2109375 C53.26022217 78.62280273 52.72356934 78.03466797 52.1706543 77.42871094 C51.59871338 76.79223633 51.02677246 76.15576172 50.4375 75.5 C45.22975446 69.79763309 39.88125337 64.28906047 34.375 58.875 C28.37077351 52.92604669 22.82483189 46.85055712 17.6875 40.125 C16.67323114 38.80464597 15.65890367 37.48433697 14.64453125 36.1640625 C12.9742474 33.98680769 11.30818636 31.8067967 9.65283203 29.61816406 C6.965929 26.06888632 4.24979474 22.56158406 1.41015625 19.1328125 C0.8982373 18.50802002 0.38631836 17.88322754 -0.14111328 17.23950195 C-1.10270396 16.07176573 -2.07573865 14.91332296 -3.06201172 13.76635742 C-5.28202161 11.0527806 -6.28515045 9.37411875 -6.671875 5.8515625 C-6.3125 3.125 -6.3125 3.125 -5.25 1.1875 C-3.3125 0.125 -3.3125 0.125 0 0 Z " fill="#000000" transform="translate(319.3125,140.875)"/>
</svg>
