<?xml version="1.0" encoding="UTF-8"?>
<svg version="1.1" xmlns="http://www.w3.org/2000/svg" width="500" height="500">
<path d="M0 0 C0.828125 2.1640625 0.828125 2.1640625 1.25 4.625 C1.47429687 5.85089844 1.47429687 5.85089844 1.703125 7.1015625 C1.80109375 7.72804688 1.8990625 8.35453125 2 9 C3.051875 8.835 4.10375 8.67 5.1875 8.5 C9 9 9 9 10.61328125 10.5703125 C13.00021228 14.10700468 14.0447079 16.16545245 13.8125 20.5 C13.544375 21.325 13.27625 22.15 13 23 C12.34 23 11.68 23 11 23 C10.85304688 23.99 10.85304688 23.99 10.703125 25 C10.47882813 26.485 10.47882813 26.485 10.25 28 C9.99014313 29.73672974 9.99014313 29.73672974 9.72503662 31.50854492 C9.22457249 34.72475405 8.63914914 37.9158563 8.0166626 41.1105957 C5.14542527 56.25103914 4.46597241 70.80774993 4.609375 86.1875 C4.61686204 88.59700036 4.62254326 91.00650693 4.62652588 93.41601562 C4.64158864 99.66959306 4.68069673 105.92278167 4.7253418 112.1762085 C4.76671922 118.59267928 4.78462635 125.00921468 4.8046875 131.42578125 C4.84721527 143.95068898 4.91522306 156.4753118 5 169 C5.61875 168.030625 6.2375 167.06125 6.875 166.0625 C9 163 9 163 11 162 C15.18144011 161.60552452 17.30946048 161.54964814 20.875 163.875 C22.99781543 165.99781543 23.93179597 166.94923167 24.125 169.92578125 C23.84487006 175.27451233 22.69045054 178.90338783 19.9375 183.5 C16.19892378 189.94162013 14.18781122 196.48647272 12.125 203.625 C6.69654268 222.10744862 -1.91033998 238.0496866 -11.61035156 254.61279297 C-13.24623506 257.4229948 -14.84138424 260.2545971 -16.43286133 263.09008789 C-19.35369378 268.27944538 -22.24771624 273.36482595 -26 278 C-26.66 278 -27.32 278 -28 278 C-28.33 278.99 -28.66 279.98 -29 281 C-34.41538462 282.23076923 -34.41538462 282.23076923 -37.375 281.0625 C-37.91125 280.711875 -38.4475 280.36125 -39 280 C-38.79375 280.53625 -38.5875 281.0725 -38.375 281.625 C-37.84466752 284.98377238 -38.59011745 286.92389262 -40 290 C-46.80848913 297.94323732 -62.13112361 297.93383954 -72.01049805 299.25268555 C-74.24532744 299.55345959 -76.47695147 299.87258372 -78.70898438 300.19335938 C-104.5483123 303.78123324 -130.57363336 304.35792756 -156.6171875 304.31567383 C-159.71303752 304.31101952 -162.80849669 304.31807992 -165.90429688 304.33618164 C-185.47767103 304.44933367 -204.58090294 303.79692644 -224 301 C-225.20765015 300.82883163 -225.20765015 300.82883163 -226.43969727 300.65420532 C-230.85050212 300.01721155 -235.23779209 299.28523929 -239.625 298.5 C-240.8109375 298.30019531 -241.996875 298.10039062 -243.21875 297.89453125 C-260.47808303 294.87703093 -260.47808303 294.87703093 -263.875 290.6875 C-264.24625 289.800625 -264.6175 288.91375 -265 288 C-267.28504005 282.77705132 -269.60266896 280.44138951 -274 277 C-275.59324794 273.81350412 -275.20522771 270.361446 -275.23828125 266.859375 C-275.24802979 266.01125748 -275.25777832 265.16313995 -275.26782227 264.2893219 C-275.61530633 225.6071791 -272.21231088 187.27873647 -268.4375 148.8125 C-268.33780914 147.78935699 -268.23811829 146.76621399 -268.13540649 145.71206665 C-263.12706859 94.83892909 -263.12706859 94.83892909 -254 85 C-253.34 85 -252.68 85 -252 85 C-251.6596875 84.21882813 -251.6596875 84.21882813 -251.3125 83.421875 C-249.52480639 80.12315465 -247.28109676 77.21542579 -245 74.25 C-244.54882812 73.64800781 -244.09765625 73.04601562 -243.6328125 72.42578125 C-242.47177498 70.91093644 -241.24072061 69.45030179 -240 68 C-239.34 68 -238.68 68 -238 68 C-238 67.34 -238 66.68 -238 66 C-236.77734375 64.765625 -236.77734375 64.765625 -234.9375 63.25 C-230.60621465 59.5641306 -226.41655857 55.74463141 -222.25 51.875 C-221.60023193 51.27719727 -220.95046387 50.67939453 -220.28100586 50.06347656 C-216.87824034 46.89758184 -213.79295044 43.73803973 -211 40 C-211.66 39.01 -212.32 38.02 -213 37 C-213.52892689 32.31521894 -213.6691709 30.12325116 -211.25 26.0625 C-207.05341816 23.3992846 -203.73699645 23.43976923 -198.83984375 23.43359375 C-195.28890775 22.89142883 -194.43861104 21.52710902 -192 19 C-188.59727753 18.1977321 -185.42591587 18.33817534 -182 19 C-179.0625 21.375 -179.0625 21.375 -177 24 C-173.36872073 26.42085284 -171.65491946 26.25759256 -167.33203125 26.265625 C-166.33778641 26.26985474 -166.33778641 26.26985474 -165.32345581 26.27416992 C-163.15292371 26.27845957 -160.98297379 26.26578937 -158.8125 26.25 C-158.06803619 26.24689819 -157.32357239 26.24379639 -156.55654907 26.24060059 C-133.76618715 26.12927442 -111.49714491 23.58149568 -89 20 C-87.85563477 19.82098145 -86.71126953 19.64196289 -85.53222656 19.45751953 C-64.20493739 16.05474538 -43.91805224 10.47267637 -24.18554688 1.61401367 C-16.28981875 -1.91241862 -7.96339426 -5.18926102 0 0 Z " fill="#000000" transform="translate(396,87)"/>
<path d="M0 0 C1.59787354 0.02707031 1.59787354 0.02707031 3.22802734 0.0546875 C4.03191895 0.07789063 4.83581055 0.10109375 5.6640625 0.125 C5.66645085 0.72388094 5.66883921 1.32276188 5.67129993 1.93979073 C5.73121629 16.71588655 5.80722615 31.49183926 5.89977741 46.26776314 C5.94417705 53.41417078 5.9836323 60.56053447 6.01049805 67.70703125 C5.62647847 117.59525012 5.62647847 117.59525012 10.6640625 167.125 C10.73590213 168.4854727 10.77288533 169.84861515 10.76171875 171.2109375 C10.75849609 171.91347656 10.75527344 172.61601562 10.75195312 173.33984375 C10.74357422 174.05269531 10.73519531 174.76554688 10.7265625 175.5 C10.72205078 176.23605469 10.71753906 176.97210938 10.71289062 177.73046875 C10.70121392 179.52868158 10.68328261 181.32685197 10.6640625 183.125 C-22.8309153 187.89165971 -55.7820085 189.62690669 -89.60009766 190.08532715 C-92.08642514 190.12138178 -94.57246095 190.16449427 -97.05859375 190.21191406 C-114.79451362 190.54570612 -132.07475392 189.6314736 -149.69042969 187.53515625 C-153.37368722 187.12075278 -157.05714639 186.78536407 -160.75 186.46875 C-163.09115968 186.25014822 -165.43230611 186.03140451 -167.7734375 185.8125 C-169.37215698 185.69104614 -169.37215698 185.69104614 -171.00317383 185.56713867 C-176.56772656 185.00370237 -181.08983275 184.20730462 -185.14868164 180.13500977 C-187.68254928 175.84520259 -187.0773168 171.07183894 -186.8359375 166.25 C-186.81273437 165.23808594 -186.78953125 164.22617187 -186.765625 163.18359375 C-186.68719266 160.22812039 -186.56574798 157.27705562 -186.43026733 154.32373047 C-186.3248795 151.86724946 -186.24150543 149.41049351 -186.15942383 146.953125 C-185.60839369 131.23022949 -184.46991974 115.57555076 -183.1882782 99.8969841 C-183.02111885 97.84655872 -182.85568589 95.7960009 -182.6907959 93.74539185 C-181.23753202 75.67731685 -179.72020301 57.61520188 -178.0859375 39.5625 C-178.00330658 38.64521118 -177.92067566 37.72792236 -177.83554077 36.78283691 C-177.60429897 34.22863574 -177.36945118 31.67479999 -177.1328125 29.12109375 C-177.06635025 28.38968674 -176.999888 27.65827972 -176.93141174 26.90470886 C-176.5579627 22.94284933 -176.04113875 19.04146744 -175.3359375 15.125 C-166.21782064 14.51824916 -157.69425361 15.56163834 -148.7109375 17 C-101.65631731 24.44560107 -55.57796218 22.10572221 -11.7109375 2.125 C-7.63278495 0.35222175 -4.43916031 -0.09796768 0 0 Z " fill="#FFFFFF" transform="translate(326.3359375,182.875)"/>
<path d="M0 0 C0.33 0.66 0.66 1.32 1 2 C-1.82034014 8.79713773 -6.05519142 14.51963535 -10.72265625 20.13671875 C-17.913273 29.17740843 -24.23975449 38.99936973 -30 49 C-30.5576001 48.93828613 -31.1152002 48.87657227 -31.68969727 48.81298828 C-44.95308296 47.45871962 -54.04194022 47.97743349 -66 54 C-67.72046296 54.72921922 -69.44894552 55.44003154 -71.1875 56.125 C-71.97898437 56.43695313 -72.77046875 56.74890625 -73.5859375 57.0703125 C-74.38257813 57.37710938 -75.17921875 57.68390625 -76 58 C-77.25683594 58.49113281 -77.25683594 58.49113281 -78.5390625 58.9921875 C-100.2090207 66.86662302 -124.13620558 68.58401084 -147 68 C-147.72638672 67.98598145 -148.45277344 67.97196289 -149.20117188 67.95751953 C-165.89233885 67.58583836 -182.46255061 65.12990152 -199 63 C-195.80947239 59.22805204 -192.62841271 55.4883766 -189.125 52 C-188.52945313 51.401875 -187.93390625 50.80375 -187.3203125 50.1875 C-185.34424385 48.32453965 -183.33441758 46.53485103 -181.28515625 44.75390625 C-176.86928207 40.91076378 -172.57922367 36.94494109 -168.3125 32.9375 C-167.57966797 32.25623047 -166.84683594 31.57496094 -166.09179688 30.87304688 C-162.90832112 27.88477072 -159.97718944 25.06044225 -157.4453125 21.49609375 C-155 19 -155 19 -151.62890625 18.6328125 C-150.27048428 18.77029629 -148.91483768 18.93686487 -147.5625 19.125 C-145.93954641 19.2764304 -144.31575284 19.41901267 -142.69140625 19.5546875 C-141.78922363 19.63299805 -140.88704102 19.71130859 -139.95751953 19.79199219 C-94.05709629 23.02025375 -42.97390797 16.38978666 0 0 Z " fill="#FEFEFE" transform="translate(365,115)"/>
<path d="M0 0 C1.55247253 3.10494507 0.19784329 5.269088 -0.75 8.5625 C-7.26579363 33.58833975 -6.50246697 59.39776492 -6.44604492 85.05322266 C-6.43687007 89.42386046 -6.44375777 93.79396326 -6.46655273 98.16455078 C-6.59086374 122.08982814 -6.30095609 145.42468091 -2.45326233 169.07615662 C-0.40665647 182.27812516 -0.40665647 182.27812516 -2.9375 187.6875 C-3.40671875 188.70070313 -3.8759375 189.71390625 -4.359375 190.7578125 C-7.10289588 196.17953234 -9.9396382 201.53981504 -12.84814453 206.87402344 C-14.97246024 210.79486726 -17.04811676 214.74138282 -19.125 218.6875 C-19.54789307 219.4904248 -19.97078613 220.29334961 -20.40649414 221.12060547 C-23.69005584 227.37213747 -26.88755713 233.66124441 -30 240 C-30.33 240 -30.66 240 -31 240 C-31.31702641 237.31297034 -31.62861361 234.62546876 -31.9375 231.9375 C-32.02451172 231.20466797 -32.11152344 230.47183594 -32.20117188 229.71679688 C-33.75889043 216.04348959 -34.20174581 202.34760759 -34.5 188.6015625 C-34.54072432 186.83791439 -34.58174733 185.07427316 -34.62304688 183.31063843 C-34.73071454 178.68070533 -34.83456554 174.05069473 -34.9375 169.4206543 C-35.03952094 164.85720974 -35.1448533 160.29384216 -35.25 155.73046875 C-35.29158742 153.91754155 -35.33317271 152.10461431 -35.37475586 150.29168701 C-35.45813094 146.66215206 -35.54237461 143.0326386 -35.62719727 139.40313721 C-35.81978193 131.1240227 -36.00641597 122.8450233 -36.16159058 114.56511116 C-36.23153037 110.88713739 -36.30773918 107.20930647 -36.38476562 103.53147507 C-36.41913616 101.81534778 -36.4506874 100.09916099 -36.47900391 98.38292313 C-36.62443593 89.6203565 -36.96757189 80.91668526 -37.84765625 72.19384766 C-37.94958534 71.0906144 -37.94958534 71.0906144 -38.05357361 69.96509361 C-38.56564511 65.39021342 -39.84454388 62.03469375 -42 58 C-40.99515429 54.1100291 -37.75373977 51.03257977 -35.25 47.9375 C-30.61988513 42.12144239 -26.11502462 36.22172134 -21.6875 30.25 C-21.11354492 29.48292725 -20.53958984 28.71585449 -19.94824219 27.92553711 C-16.46247423 23.20299769 -13.33149982 18.37492167 -10.38867188 13.2956543 C-7.45290912 8.44245858 -4.08460687 3.94001901 0 0 Z " fill="#FDFDFD" transform="translate(389,112)"/>
<path d="M0 0 C0.495 0.495 0.495 0.495 1 1 C3.34966784 1.32593123 5.70515631 1.6102343 8.0625 1.875 C13.76632154 2.57760067 18.81250368 3.45710965 24 6 C26.61928425 9.92892637 27.16557411 13.30597403 27 18 C24.77946506 22.54200328 21.22999918 24.29381252 16.69140625 26.0859375 C6.57763746 29.52080237 -2.74764333 30.27397092 -13.375 30.3125 C-15.05130493 30.32071777 -15.05130493 30.32071777 -16.76147461 30.32910156 C-30.57579292 30.20916586 -30.57579292 30.20916586 -35.9375 26.75 C-37.95824684 23.42171109 -38.27108907 20.53968062 -37.59765625 16.71484375 C-35.90769315 10.56497805 -35.90769315 10.56497805 -32.52734375 8.4609375 C-27.9469832 6.5638668 -23.32173161 4.89682003 -18.625 3.3125 C-17.7175 2.99216797 -16.81 2.67183594 -15.875 2.34179688 C-10.35661479 0.47715519 -5.82820816 -0.4622372 0 0 Z " fill="#030303" transform="translate(263,141)"/>
<path d="M0 0 C6.16838653 3.14713599 10.87574536 8.49036191 14.4375 14.375 C16.44301799 23.73408394 14.62327041 32.35870556 9.45703125 40.40234375 C6.27288863 44.431705 3.2898359 47.19069436 -1.890625 48.00390625 C-6.9421688 47.99455154 -11.12966101 46.77861661 -14.83203125 43.2578125 C-21.37334105 35.07719635 -21.90535489 26.17392556 -21 16 C-19.37506379 9.10325368 -16.42197783 4.49908798 -11 0 C-7.12698942 -1.29100353 -3.89847748 -0.93742016 0 0 Z " fill="#000000" transform="translate(192,305)"/>
<path d="M0 0 C5.7037037 3.11111111 5.7037037 3.11111111 7 7 C7.5775 7.28875 8.155 7.5775 8.75 7.875 C14.12911337 10.56455668 17.71151316 15.5549796 20 21 C21.7011097 26.86709265 20.91156097 30.69679966 18 36 C16.30935561 38.14946234 15.54651667 38.91816863 12.80859375 39.328125 C12.02613281 39.30234375 11.24367188 39.2765625 10.4375 39.25 C9.25994141 39.22679687 9.25994141 39.22679687 8.05859375 39.203125 C6 39 6 39 4 38 C2.453125 38.0928125 2.453125 38.0928125 0.875 38.1875 C-5.37415132 37.88512171 -9.65036674 35.34963326 -14 31 C-15.2375 30.5359375 -15.2375 30.5359375 -16.5 30.0625 C-19.54218559 28.76957112 -20.46156489 27.9230267 -22 25 C-23.88575492 18.39985778 -22.39757063 13.90433223 -19.6015625 7.71875 C-15.21274797 0.26846973 -8.25065959 -2.03931397 0 0 Z " fill="#000000" transform="translate(245,263)"/>
<path d="M0 0 C3.38376238 2.36111419 4.78330277 5.48780654 6.375 9.25 C7.5357986 16.21479157 7.02772519 23.02785575 3 29 C-1.06340842 33.35365187 -3.96419878 34.58426479 -9.8515625 35.15234375 C-12.42451208 34.96989823 -13.86454492 34.44776615 -16 33 C-17.0546875 31.16015625 -17.0546875 31.16015625 -17.875 29.0625 C-19.7666196 24.90393945 -21.74304657 23.75830685 -26 22 C-28.47150929 18.29273607 -28.25938395 16.68311604 -27.66796875 12.41796875 C-26.13620276 6.87315504 -22.68613527 3.04540387 -17.875 0.0625 C-11.4753034 -2.30260527 -6.55951079 -2.12162218 0 0 Z " fill="#000000" transform="translate(295,214)"/>
<path d="M0 0 C5.05973596 1.28637355 8.36465288 3.1584987 11.5 7.375 C14.86254631 14.63102098 14.85296565 24.60720857 13.15625 32.3671875 C11.78688939 35.83524208 10.11521263 38.41407216 6.6875 39.9375 C2.17484059 40.01954835 0.29815974 39.49264522 -3.0625 36.4375 C-8.90054911 28.4677948 -10.1344074 17.51200025 -9.3125 7.9375 C-8 4.9375 -8 4.9375 -6.3125 2.9375 C-5.9 2.31875 -5.4875 1.7 -5.0625 1.0625 C-3.3125 -0.0625 -3.3125 -0.0625 0 0 Z " fill="#030303" transform="translate(368.3125,261.0625)"/>
<path d="M0 0 C3.75 0.5625 3.75 0.5625 5.20996094 1.86865234 C9.81492632 8.52556208 9.22803196 14.91918839 8.75 22.75 C8.68232422 24.6362207 8.68232422 24.6362207 8.61328125 26.56054688 C8.10794071 37.11093433 8.10794071 37.11093433 4.75 41.5625 C1.05149444 42.47159831 -2.50717855 42.18536834 -6.25 41.5625 C-8.90563802 39.6656157 -9.82242527 38.41764945 -11.25 35.5625 C-12.07485265 24.33181394 -11.93569174 10.52914036 -4.25 1.5625 C-3.25 0.5625 -3.25 0.5625 0 0 Z " fill="#030303" transform="translate(369.25,181.4375)"/>
</svg>
