<?xml version="1.0" encoding="UTF-8"?>
<svg version="1.1" xmlns="http://www.w3.org/2000/svg" width="500" height="500">
<path d="M0 0 C1.59714844 0.433125 1.59714844 0.433125 3.2265625 0.875 C19.19701905 5.6962699 32.79512319 14.00381842 46 24 C46.94230469 24.70898438 47.88460937 25.41796875 48.85546875 26.1484375 C50.92779115 27.73825938 52.96972512 29.3570802 55 31 C55.81984375 31.63615234 55.81984375 31.63615234 56.65625 32.28515625 C60.13685137 35.04655172 62.923613 38.10984403 65.703125 41.546875 C66.95780703 43.13287611 66.95780703 43.13287611 69 44 C69 44.66 69 45.32 69 46 C69.66 46 70.32 46 71 46 C72.3046875 47.328125 72.3046875 47.328125 73.875 49.25 C77.68659953 53.76565294 81.83247727 57.86942916 86.08740234 61.96191406 C87.42774345 63.27195774 88.71855875 64.63228766 90 66 C90 66.66 90 67.32 90 68 C90.66 68 91.32 68 92 68 C93.2265625 69.36328125 93.2265625 69.36328125 94.625 71.3125 C95.15480469 72.04597656 95.68460937 72.77945313 96.23046875 73.53515625 C96.81441406 74.34855469 97.39835937 75.16195312 98 76 C98.95326172 77.26650391 98.95326172 77.26650391 99.92578125 78.55859375 C112.5791224 95.48704434 119.66635752 113.45035024 125.3125 133.6875 C125.63790771 134.84950928 125.96331543 136.01151855 126.29858398 137.20874023 C130.94973441 154.48530497 132.5476506 170.52309691 132.4375 188.375 C132.43412628 189.43381378 132.43075256 190.49262756 132.42727661 191.58352661 C132.279728 223.56959111 127.3916311 254.13081761 113 283 C112.58733887 283.85078125 112.17467773 284.7015625 111.74951172 285.578125 C105.96902591 297.45225095 99.74451124 308.08605694 91 318 C90.53561523 318.53447754 90.07123047 319.06895508 89.59277344 319.61962891 C86.48825183 323.17577581 83.28798482 326.61268029 80 330 C79.33226562 330.69351562 78.66453125 331.38703125 77.9765625 332.1015625 C50.04988963 358.92441431 8.1584094 370.46746809 -29.5625 370.375 C-30.39905121 370.37445618 -31.23560242 370.37391235 -32.09750366 370.37335205 C-45.07728846 370.33460226 -57.47008699 369.67863588 -70 366 C-70.72268066 365.79101074 -71.44536133 365.58202148 -72.18994141 365.36669922 C-88.46792229 360.4844021 -104.29311028 353.05171913 -118 343 C-118.77988281 342.44183594 -119.55976563 341.88367188 -120.36328125 341.30859375 C-123.8249107 338.78356606 -127.19800539 336.26899371 -130 333 C-130 332.34 -130 331.68 -130 331 C-130.66 331 -131.32 331 -132 331 C-134.54822 328.53246242 -136.74439968 325.73433998 -139 323 C-139.54914063 322.33742188 -140.09828125 321.67484375 -140.6640625 320.9921875 C-144.34860215 316.39960964 -147.74104443 311.60855521 -151.0625 306.75 C-151.46186768 306.17886475 -151.86123535 305.60772949 -152.27270508 305.01928711 C-174.33998609 272.19448722 -187.19491802 225.53772846 -186 186 C-185.97099609 184.88141602 -185.97099609 184.88141602 -185.94140625 183.74023438 C-185.15800542 156.75898811 -176.68633604 132.12914331 -163 109 C-162.32541508 107.82688372 -161.65094696 106.65370027 -160.9765625 105.48046875 C-156.98262171 98.60683248 -152.85052712 92.20420625 -147.72265625 86.09765625 C-146.20382122 84.24819047 -144.8968413 82.39774391 -143.625 80.375 C-143.08875 79.59125 -142.5525 78.8075 -142 78 C-141.34 78 -140.68 78 -140 78 C-139.7525 77.46375 -139.505 76.9275 -139.25 76.375 C-137.69347463 73.4176018 -135.96564327 70.70275949 -134 68 C-133.34 68 -132.68 68 -132 68 C-131.75894531 67.43152344 -131.51789063 66.86304687 -131.26953125 66.27734375 C-129.75031912 63.55211092 -127.92581019 61.73309661 -125.6875 59.5625 C-124.92824219 58.82128906 -124.16898438 58.08007812 -123.38671875 57.31640625 C-122.59910156 56.55199219 -121.81148438 55.78757813 -121 55 C-120.22785156 54.21367188 -119.45570313 53.42734375 -118.66015625 52.6171875 C-96.6880597 31 -96.6880597 31 -90 31 C-89.89558594 30.27039063 -89.79117188 29.54078125 -89.68359375 28.7890625 C-88.9398447 25.75456637 -87.85057248 23.91939654 -86.0625 21.375 C-85.53785156 20.61960937 -85.01320313 19.86421875 -84.47265625 19.0859375 C-83.98667969 18.39757812 -83.50070313 17.70921875 -83 17 C-82.01 15.515 -82.01 15.515 -81 14 C-80.34 14 -79.68 14 -79 14 C-78.505 12.515 -78.505 12.515 -78 11 C-77.34 11 -76.68 11 -76 11 C-76 10.34 -76 9.68 -76 9 C-54.95880051 -8.04766571 -24.74502322 -7.09534716 0 0 Z " fill="#FFFFFF" transform="translate(259,54)"/>
<path d="M0 0 C1.59714844 0.433125 1.59714844 0.433125 3.2265625 0.875 C19.19701905 5.6962699 32.79512319 14.00381842 46 24 C46.94230469 24.70898438 47.88460937 25.41796875 48.85546875 26.1484375 C50.92779115 27.73825938 52.96972512 29.3570802 55 31 C55.81984375 31.63615234 55.81984375 31.63615234 56.65625 32.28515625 C60.13685137 35.04655172 62.923613 38.10984403 65.703125 41.546875 C66.95780703 43.13287611 66.95780703 43.13287611 69 44 C69 44.66 69 45.32 69 46 C69.66 46 70.32 46 71 46 C72.3046875 47.328125 72.3046875 47.328125 73.875 49.25 C77.68659953 53.76565294 81.83247727 57.86942916 86.08740234 61.96191406 C87.42774345 63.27195774 88.71855875 64.63228766 90 66 C90 66.66 90 67.32 90 68 C90.66 68 91.32 68 92 68 C93.2265625 69.36328125 93.2265625 69.36328125 94.625 71.3125 C95.15480469 72.04597656 95.68460937 72.77945313 96.23046875 73.53515625 C96.81441406 74.34855469 97.39835937 75.16195312 98 76 C98.95326172 77.26650391 98.95326172 77.26650391 99.92578125 78.55859375 C112.5791224 95.48704434 119.66635752 113.45035024 125.3125 133.6875 C125.63790771 134.84950928 125.96331543 136.01151855 126.29858398 137.20874023 C130.94973441 154.48530497 132.5476506 170.52309691 132.4375 188.375 C132.43412628 189.43381378 132.43075256 190.49262756 132.42727661 191.58352661 C132.279728 223.56959111 127.3916311 254.13081761 113 283 C112.58733887 283.85078125 112.17467773 284.7015625 111.74951172 285.578125 C105.96902591 297.45225095 99.74451124 308.08605694 91 318 C90.53561523 318.53447754 90.07123047 319.06895508 89.59277344 319.61962891 C86.48825183 323.17577581 83.28798482 326.61268029 80 330 C79.33226562 330.69351562 78.66453125 331.38703125 77.9765625 332.1015625 C50.04988963 358.92441431 8.1584094 370.46746809 -29.5625 370.375 C-30.39905121 370.37445618 -31.23560242 370.37391235 -32.09750366 370.37335205 C-45.07728846 370.33460226 -57.47008699 369.67863588 -70 366 C-70.72268066 365.79101074 -71.44536133 365.58202148 -72.18994141 365.36669922 C-88.46792229 360.4844021 -104.29311028 353.05171913 -118 343 C-118.77988281 342.44183594 -119.55976563 341.88367188 -120.36328125 341.30859375 C-123.8249107 338.78356606 -127.19800539 336.26899371 -130 333 C-130 332.34 -130 331.68 -130 331 C-130.66 331 -131.32 331 -132 331 C-134.54822 328.53246242 -136.74439968 325.73433998 -139 323 C-139.54914063 322.33742188 -140.09828125 321.67484375 -140.6640625 320.9921875 C-144.34860215 316.39960964 -147.74104443 311.60855521 -151.0625 306.75 C-151.46186768 306.17886475 -151.86123535 305.60772949 -152.27270508 305.01928711 C-174.33998609 272.19448722 -187.19491802 225.53772846 -186 186 C-185.97099609 184.88141602 -185.97099609 184.88141602 -185.94140625 183.74023438 C-185.15800542 156.75898811 -176.68633604 132.12914331 -163 109 C-162.32541508 107.82688372 -161.65094696 106.65370027 -160.9765625 105.48046875 C-156.98262171 98.60683248 -152.85052712 92.20420625 -147.72265625 86.09765625 C-146.20382122 84.24819047 -144.8968413 82.39774391 -143.625 80.375 C-143.08875 79.59125 -142.5525 78.8075 -142 78 C-141.34 78 -140.68 78 -140 78 C-139.7525 77.46375 -139.505 76.9275 -139.25 76.375 C-137.69347463 73.4176018 -135.96564327 70.70275949 -134 68 C-133.34 68 -132.68 68 -132 68 C-131.75894531 67.43152344 -131.51789063 66.86304687 -131.26953125 66.27734375 C-129.75031912 63.55211092 -127.92581019 61.73309661 -125.6875 59.5625 C-124.92824219 58.82128906 -124.16898438 58.08007812 -123.38671875 57.31640625 C-122.59910156 56.55199219 -121.81148438 55.78757813 -121 55 C-120.22785156 54.21367188 -119.45570313 53.42734375 -118.66015625 52.6171875 C-96.6880597 31 -96.6880597 31 -90 31 C-89.89558594 30.27039063 -89.79117188 29.54078125 -89.68359375 28.7890625 C-88.9398447 25.75456637 -87.85057248 23.91939654 -86.0625 21.375 C-85.53785156 20.61960937 -85.01320313 19.86421875 -84.47265625 19.0859375 C-83.98667969 18.39757812 -83.50070313 17.70921875 -83 17 C-82.01 15.515 -82.01 15.515 -81 14 C-80.34 14 -79.68 14 -79 14 C-78.505 12.515 -78.505 12.515 -78 11 C-77.34 11 -76.68 11 -76 11 C-76 10.34 -76 9.68 -76 9 C-54.95880051 -8.04766571 -24.74502322 -7.09534716 0 0 Z M-40 14 C-40.25030977 16.58380177 -40.25030977 16.58380177 -40 19 C-40.70495605 19.32685791 -41.40991211 19.65371582 -42.13623047 19.99047852 C-45.38716884 21.50465431 -48.63102821 23.03345936 -51.875 24.5625 C-52.98359375 25.07619141 -54.0921875 25.58988281 -55.234375 26.11914062 C-65.80120856 31.00419238 -65.80120856 31.00419238 -75 38 C-75.94727523 40.68884197 -76.35596108 42.92734046 -76.5234375 45.765625 C-77 48 -77 48 -78.8515625 49.7734375 C-81.77462703 51.44224162 -83.68310483 51.4146119 -87 51 C-89.1875 49.4765625 -89.1875 49.4765625 -91 48 C-93.5638168 50.39442739 -96.12581244 52.79079493 -98.6875 55.1875 C-99.40873047 55.86103516 -100.12996094 56.53457031 -100.87304688 57.22851562 C-113.99164215 69.50847924 -125.33842978 82.5670152 -136 97 C-136.71542969 97.96421875 -137.43085938 98.9284375 -138.16796875 99.921875 C-141.66584151 104.7710231 -144.63136632 109.76245627 -147.41015625 115.0546875 C-148.50902507 117.09042974 -149.66721891 119.09485191 -150.87109375 121.0703125 C-159.38192789 135.10572318 -165.52377933 150.73061624 -168 167 C-168.18046875 168.12277344 -168.3609375 169.24554688 -168.546875 170.40234375 C-173.53947404 212.14285148 -160.66977872 267.46082202 -134.55078125 300.953125 C-133.70902344 301.95859375 -132.86726563 302.9640625 -132 304 C-131.03476606 305.18197313 -130.06993469 306.36427511 -129.10546875 307.546875 C-124.9451237 312.58543858 -120.68219514 317.43090137 -116 322 C-115.34 322.64582031 -114.68 323.29164063 -114 323.95703125 C-89.83861421 346.37237939 -56.01365641 355.2410371 -23.7265625 354.33984375 C12.75634714 352.56925694 48.27519568 338.87465251 73.8671875 312.46875 C76.21791485 310.29150414 76.21791485 310.29150414 76 308 C76.66 308 77.32 308 78 308 C86.78486989 298.84088678 92.12239348 286.81521398 97.70947266 275.59179688 C98.75332631 273.49540066 99.81484165 271.41021453 100.88671875 269.328125 C120.35687 229.87679491 120.00384778 180.68687666 109 139 C108.70005127 137.8543457 108.70005127 137.8543457 108.39404297 136.68554688 C102.53640564 114.66200304 93.56360232 96.65880227 78.41186523 79.59985352 C77.45533725 78.5159649 76.50978732 77.42230631 75.57446289 76.32006836 C48.14415471 44.21409125 16.30914403 15.9867883 -27.60009766 12.34472656 C-34.15758059 11.59202786 -34.15758059 11.59202786 -40 14 Z " fill="#000000" transform="translate(259,54)"/>
<path d="M0 0 C1.72645074 -0.00067718 3.45290139 -0.00165061 5.17935181 -0.00289917 C8.7984508 -0.00436695 12.41752501 -0.00225819 16.03662109 0.00244141 C20.54588759 0.00802786 25.05509355 0.00483599 29.56435776 -0.00101089 C50.65998135 -0.02398774 71.72945594 0.22500293 92.81610298 0.85236549 C105.65976945 1.50372396 105.65976945 1.50372396 118.4140625 0.4453125 C123.22948956 0.04402691 125.12435818 0.49463825 129.1640625 3.1328125 C130.4140625 6.5078125 130.4140625 6.5078125 130.1640625 10.1328125 C126.72734053 15.17333805 121.96003786 16.98815279 116.1640625 18.1328125 C112.81124331 18.34761707 109.51715638 18.32181779 106.1640625 18.1328125 C106.4940625 19.1228125 106.8240625 20.1128125 107.1640625 21.1328125 C107.69491861 27.06410862 107.75866747 32.14674754 104.1640625 37.1328125 C99.6067397 41.5695712 95.49350604 43.1328125 89.1640625 43.1328125 C83.97392662 41.54938121 80.46076105 39.46561631 77.1640625 35.1328125 C75.25791896 30.00234654 74.79114793 25.48717931 76.1640625 20.1328125 C70.50902678 19.34425052 64.9711226 18.93909519 59.265625 18.81640625 C58.43179291 18.79562515 57.59796082 18.77484406 56.73886108 18.75343323 C54.97911053 18.71042367 53.21931162 18.66935286 51.45947266 18.63012695 C48.83091907 18.57125004 46.20259089 18.50589102 43.57421875 18.43945312 C27.04258219 18.03663149 10.5648249 18.01704895 -5.9609375 18.6328125 C-7.32420846 18.68128002 -8.68748975 18.72945753 -10.05078125 18.77734375 C-13.31261237 18.89301152 -16.57431195 19.01150971 -19.8359375 19.1328125 C-19.04325892 20.41634928 -18.2486071 21.69866759 -17.453125 22.98046875 C-17.01081543 23.69468994 -16.56850586 24.40891113 -16.11279297 25.14477539 C-14.79905838 27.25193327 -14.79905838 27.25193327 -12.9609375 29.5703125 C-11.27547078 33.40943115 -11.65479287 37.14084266 -12.8359375 41.1328125 C-14.265625 42.90625 -14.265625 42.90625 -15.8359375 44.1328125 C-16.4959375 44.1328125 -17.1559375 44.1328125 -17.8359375 44.1328125 C-18.0628125 45.0815625 -18.2896875 46.0303125 -18.5234375 47.0078125 C-19.8359375 50.1328125 -19.8359375 50.1328125 -22.0859375 51.5703125 C-25.50559698 52.2697883 -27.51417091 52.26362666 -30.8359375 51.1328125 C-34.11622257 47.32058931 -35.36175437 44.11173536 -35.8359375 39.1328125 C-37.2590625 38.978125 -37.2590625 38.978125 -38.7109375 38.8203125 C-41.8359375 38.1328125 -41.8359375 38.1328125 -43.8359375 35.1328125 C-43.62468616 29.53465197 -42.1094174 26.46225366 -38.8359375 22.1328125 C-44.99809628 22.46435722 -51.06819767 22.9821779 -57.1640625 23.9375 C-58.08936768 24.08147217 -59.01467285 24.22544434 -59.96801758 24.3737793 C-61.81361984 24.6675402 -63.6573482 24.97337166 -65.4987793 25.29223633 C-71.35481204 26.2213053 -75.51892828 26.233585 -80.7109375 22.9453125 C-82.57067153 19.94907433 -82.25658139 17.55805561 -81.8359375 14.1328125 C-78.96190554 10.46163461 -76.49069864 9.45787215 -71.98828125 8.53515625 C-70.83465088 8.29240967 -69.68102051 8.04966309 -68.49243164 7.79956055 C-66.65152954 7.43858276 -66.65152954 7.43858276 -64.7734375 7.0703125 C-62.88709595 6.68516479 -62.88709595 6.68516479 -60.96264648 6.29223633 C-53.79569315 4.85060515 -46.61517483 3.48925815 -39.3984375 2.3203125 C-38.36674438 2.15293579 -38.36674438 2.15293579 -37.31420898 1.98217773 C-24.91909175 0.11763595 -12.50135019 -0.01764589 0 0 Z " fill="#000000" transform="translate(204.8359375,201.8671875)"/>
<path d="M0 0 C2.59635875 0.41298899 5.1929542 0.82445987 7.78961182 1.23556519 C9.48126501 1.50343416 11.17279575 1.77207776 12.86419678 2.04153442 C17.44340783 2.76719642 22.023647 3.44444602 26.62109375 4.046875 C27.54833252 4.17078613 28.47557129 4.29469727 29.4309082 4.42236328 C31.03324775 4.63180515 32.63722553 4.82928691 34.24291992 5.01123047 C38.8368224 5.62562241 41.50577054 6.86818344 44.8125 10.125 C46.60259505 13.70519011 46.27888897 17.68696733 45.0625 21.4375 C43.45406434 23.60888813 42.40685417 24.33228067 39.8125 25.125 C36.87214712 24.87997059 34.55268161 24.51345283 31.93032837 23.13722229 C29.56347458 22.00597757 27.51589488 21.58993773 24.92724609 21.17944336 C23.95878754 21.0226561 22.99032898 20.86586884 21.99252319 20.70433044 C20.95084991 20.54279984 19.90917664 20.38126923 18.8359375 20.21484375 C17.75551178 20.04247696 16.67508606 19.87011017 15.56192017 19.69252014 C13.27435954 19.32891475 10.98628714 18.9685167 8.69775391 18.61108398 C5.22048669 18.06765517 1.74493223 17.5142099 -1.73046875 16.95898438 C-3.95823901 16.60617475 -6.18610087 16.25394288 -8.4140625 15.90234375 C-9.44359039 15.73878891 -10.47311829 15.57523407 -11.53384399 15.40672302 C-25.22103536 13.27699476 -37.10610516 12.62615774 -50.75 15.3125 C-52.48165405 15.6530542 -52.48165405 15.6530542 -54.24829102 16.00048828 C-66.53326394 18.49594077 -77.59568202 21.2544564 -87.8203125 28.8671875 C-90.1875 30.125 -90.1875 30.125 -92.8671875 30.0078125 C-95.1875 29.125 -95.1875 29.125 -97.1875 26.125 C-97.05186633 21.24218784 -94.54597446 17.49041346 -91.1875 14.125 C-64.03677868 -6.00795013 -31.68718768 -5.1034782 0 0 Z " fill="#000000" transform="translate(266.1875,277.875)"/>
</svg>
