<?xml version="1.0" encoding="UTF-8"?>
<svg version="1.1" xmlns="http://www.w3.org/2000/svg" width="500" height="500">
<path d="M0 0 C3.5625 0.3125 3.5625 0.3125 5.23022461 1.48193359 C7.03196141 3.95754703 7.14792833 5.87424401 7.44140625 8.9140625 C7.61446289 10.59689331 7.61446289 10.59689331 7.79101562 12.3137207 C7.90123047 13.50956787 8.01144531 14.70541504 8.125 15.9375 C8.37612155 18.40236215 8.62742338 20.86720594 8.87890625 23.33203125 C8.99637207 24.53166504 9.11383789 25.73129883 9.23486328 26.96728516 C9.74916771 46.48653058 9.74916771 46.48653058 16.5625 63.3125 C19.4827504 63.30679631 19.4827504 63.30679631 22.921875 62.8515625 C24.26540521 62.70747508 25.60899534 62.56394552 26.95263672 62.42089844 C27.66353455 62.34158081 28.37443237 62.26226318 29.10687256 62.18054199 C41.56431518 60.80783434 53.90376549 60.01785761 66.4375 60.0625 C67.71334961 60.06588379 68.98919922 60.06926758 70.30371094 60.07275391 C79.11491433 60.16330478 79.11491433 60.16330478 82.5625 61.3125 C83.160625 60.85875 83.75875 60.405 84.375 59.9375 C87.19757995 57.84072633 89.05584448 57.45276622 92.5625 57.3125 C96.53722063 58.84123871 98.18103665 59.74030497 100.5625 63.3125 C100.97113062 66.05789237 101.27023527 68.73840998 101.5 71.5 C101.66665605 73.33203222 101.8333235 75.16406339 102 76.99609375 C102.08894531 78.00655762 102.17789063 79.01702148 102.26953125 80.05810547 C102.57846814 83.48987941 102.91188203 86.91863845 103.25 90.34765625 C104.37331622 101.85606812 105.46268537 113.3547966 106.2109375 124.89453125 C107.59505092 145.98503132 110.04628728 166.60920354 113.47975159 187.46179199 C114.7182499 195.07690923 115.64649289 202.71500004 116.5625 210.375 C119.11093233 230.96750491 123.02203801 251.15747896 129.08813477 271.01000977 C131.14794442 277.75293351 132.82474759 284.4959357 134.27685547 291.39306641 C135.41958499 296.80114435 136.82281508 302.06708636 138.5625 307.3125 C139.15417969 307.25449219 139.74585938 307.19648438 140.35546875 307.13671875 C144.63681492 306.89226995 146.91866002 306.90517266 150.625 309.25 C152.85212267 312.77029067 153.48448558 314.97159906 153.23046875 319.09765625 C152.15721011 322.65635595 150.059687 324.12479871 147.0078125 326.09375 C143.01400042 328.08427615 138.89716903 329.29989289 134.5625 330.3125 C136.08312637 335.57237155 138.49024824 339.99615432 141.125 344.75 C149.90237924 361.03085626 161.51118722 383.16259874 158.5625 402.3125 C156.9375 405 156.9375 405 154.5625 406.3125 C150.65461332 407.06081873 149.10032585 406.65909888 145.75 404.5 C143.43195225 401.12227329 143.33873976 400.3379213 143.23828125 396.45703125 C142.70890628 389.36270624 140.2513399 383.34453436 137.5625 376.8125 C137.06991699 375.58797119 136.57733398 374.36344238 136.06982422 373.10180664 C132.23848773 363.6418455 128.01595681 354.39955428 123.50537109 345.24707031 C121.42621901 340.98109384 119.50620037 336.64128381 117.5625 332.3125 C107.92195785 332.89307148 98.38724936 333.87104616 88.80490112 335.04089355 C74.74037362 336.74443191 60.74289709 338.15185944 46.5625 338.3125 C45.25885498 338.32788818 43.95520996 338.34327637 42.61206055 338.35913086 C32.34622112 338.43953374 22.13869148 338.10559728 11.89086914 337.51293945 C9.46985141 337.3732606 7.04848459 337.24176873 4.62695312 337.11132812 C-2.75308491 336.70463894 -10.10245376 336.25376027 -17.4375 335.3125 C-17.43226318 335.97258057 -17.42702637 336.63266113 -17.42163086 337.31274414 C-17.40071049 340.33348622 -17.3877922 343.354213 -17.375 346.375 C-17.36662109 347.41333984 -17.35824219 348.45167969 -17.34960938 349.52148438 C-17.33251267 354.90694728 -17.58110317 359.9838086 -18.4375 365.3125 C-18.63880198 368.12793192 -18.80757765 370.93148047 -18.9375 373.75 C-18.97883057 374.58329834 -19.02016113 375.41659668 -19.06274414 376.27514648 C-19.32915215 381.96576305 -19.50815933 387.65669088 -19.65234375 393.3515625 C-19.69007719 394.77156647 -19.72783777 396.19156972 -19.765625 397.61157227 C-19.83940668 400.40100484 -19.90143609 403.19037737 -19.95703125 405.98022461 C-20.45036432 425.22140005 -20.45036432 425.22140005 -24.125 430.9375 C-27.31881134 432.83652296 -29.72872877 433.24743384 -33.4375 433.3125 C-36.38505732 431.96687601 -37.98027272 431.22695456 -39.4375 428.3125 C-39.46646122 425.56588532 -39.43354622 422.84928288 -39.3515625 420.10546875 C-39.33082169 419.27737701 -39.31008087 418.44928528 -39.28871155 417.59609985 C-39.21926146 414.89720236 -39.14159939 412.19863091 -39.0625 409.5 C-39.0101659 407.64477558 -38.95783844 405.78955097 -38.90551758 403.93432617 C-38.80177674 400.31382491 -38.69340025 396.69350134 -38.58154297 393.07324219 C-38.46789188 389.38503464 -38.37250224 385.69674586 -38.28515625 382.0078125 C-37.8482576 367.11756415 -37.16182408 349.48547223 -32.4375 335.3125 C-33.17355469 335.27511719 -33.90960938 335.23773438 -34.66796875 335.19921875 C-44.57432093 334.5318159 -44.57432093 334.5318159 -48.4375 331.3125 C-49.79189668 328.60370665 -49.50251451 326.30316732 -49.4375 323.3125 C-50.0975 323.3125 -50.7575 323.3125 -51.4375 323.3125 C-54.39799811 319.49250244 -56.14637334 315.8279104 -57.62890625 311.2421875 C-58.58310915 308.96500763 -59.93456045 307.26123314 -61.4375 305.3125 C-61.61812988 305.90973877 -61.79875977 306.50697754 -61.98486328 307.12231445 C-65.84580886 319.8770933 -69.73489473 332.62100962 -73.80273438 345.31152344 C-74.36729424 347.09118986 -74.91166167 348.8772335 -75.453125 350.6640625 C-78.82038401 361.47924187 -83.62492353 372.91942249 -91.4375 381.3125 C-94.94653632 383.06701816 -98.61756284 382.9831258 -102.4375 382.3125 C-106.27015067 379.32303248 -106.27015067 379.32303248 -107.4375 376.3125 C-107.85812964 371.1003501 -106.75816806 366.4301284 -103.4375 362.3125 C-102.7775 362.3125 -102.1175 362.3125 -101.4375 362.3125 C-101.00824219 360.98992187 -101.00824219 360.98992187 -100.5703125 359.640625 C-99.5783461 356.72629614 -98.47625389 353.91084868 -97.3125 351.0625 C-94.70545337 344.34877816 -92.59457231 337.51388157 -90.5 330.625 C-81.38808899 300.70801915 -81.38808899 300.70801915 -75.70874023 288.61083984 C-72.12492688 280.86077938 -72.44039006 275.87796695 -74.68359375 267.90234375 C-74.93238785 266.98078995 -75.18118195 266.05923615 -75.43751526 265.10975647 C-76.23864736 262.1532726 -77.05651639 259.20172159 -77.875 256.25 C-78.39107845 254.35511818 -78.90606113 252.45993756 -79.41992188 250.56445312 C-81.67448787 242.27791106 -83.94018556 233.99711407 -86.34326172 225.75219727 C-92.03369899 206.02756687 -96.19382926 186.11024511 -100.1706543 165.98217773 C-100.8625404 162.49202576 -101.56382451 159.00379236 -102.26543808 155.51558495 C-114.44912231 94.93795901 -114.44912231 94.93795901 -114.8125 76.6875 C-114.83860352 75.94081055 -114.86470703 75.19412109 -114.89160156 74.42480469 C-114.90812018 69.22615875 -113.80872752 66.25151321 -110.4375 62.3125 C-101.46826671 56.06991363 -84.32677973 61.60759255 -74.1171875 63.078125 C-50.03155813 66.51712078 -26.70287677 66.65601077 -2.4375 65.3125 C-2.55343506 64.76424561 -2.66937012 64.21599121 -2.78881836 63.65112305 C-3.3239865 61.10205381 -3.84950999 58.55108125 -4.375 56 C-4.64860352 54.70739258 -4.64860352 54.70739258 -4.92773438 53.38867188 C-7.17148565 42.41468838 -7.61885603 31.61953071 -7.625 20.4375 C-7.63724609 19.24125 -7.64949219 18.045 -7.66210938 16.8125 C-7.66404297 15.66007812 -7.66597656 14.50765625 -7.66796875 13.3203125 C-7.67207764 12.28535645 -7.67618652 11.25040039 -7.68041992 10.18408203 C-7.21492218 4.68138416 -5.93531687 0.53957426 0 0 Z " fill="#000000" transform="translate(268.4375,21.6875)"/>
<path d="M0 0 C5.90166876 2.1999052 9.47848572 6.36401914 13.078125 11.3671875 C14.47516889 13.28102405 15.95662027 15.13410642 17.484375 16.9453125 C24.13636134 24.86222623 27.32640346 32.00118366 30 42 C30.31710937 42.9384375 30.63421875 43.876875 30.9609375 44.84375 C34.49111689 56.11441449 35.70715933 71.83333955 30.5 82.6875 C28.86328125 85.37890625 28.86328125 85.37890625 27 88 C26.29230469 89.01964844 25.58460938 90.03929687 24.85546875 91.08984375 C23.47678989 93.01999415 22.07299764 94.93263167 20.63671875 96.8203125 C17.75985146 100.65155819 17.58607672 103.19848992 18 108 C19.96771065 110.80020362 21.3520242 111.79883736 24.6171875 112.8125 C28.88421187 114.31039308 32.58884879 116.43959177 36.5 118.6875 C42.08779409 121.86627062 47.67557986 124.8418827 53.5 127.5625 C60.76372918 131.12695179 67.15578115 135.85270291 71.7734375 142.5859375 C74.12190956 145.13217562 74.85081876 145.37318758 78.0234375 146.23828125 C80.56686369 147.08942781 81.70421613 147.55536464 83.20410156 149.81005859 C84.18172211 152.2424083 84.92848027 154.66013501 85.625 157.1875 C85.9029541 158.10136475 86.1809082 159.01522949 86.46728516 159.95678711 C89.48233504 170.09559778 92.00882034 180.38535238 94.44677734 190.67602539 C94.81112452 192.20657297 95.20668652 193.73007524 95.63525391 195.24389648 C95.75562012 195.82341064 95.87598633 196.4029248 96 197 C93.79730201 199.20269799 88.9822185 198.81127678 85.91796875 199.15625 C84.99341385 199.2634436 84.06885895 199.37063721 83.11628723 199.4810791 C81.1484801 199.70835055 79.18042746 199.93350442 77.2121582 200.15673828 C74.23787757 200.49428276 71.26440877 200.83832844 68.29101562 201.18359375 C63.63217437 201.72176808 58.97168179 202.24241737 54.30923462 202.74838257 C52.45444865 202.95048264 50.60049004 203.16016906 48.74682617 203.37231445 C38.19325771 204.43944321 27.53242708 204.19475197 16.9375 204.1875 C15.32334198 204.18858765 15.32334198 204.18858765 13.67657471 204.18969727 C-4.52920454 204.18834681 -22.61681578 203.54436439 -40.77001953 202.18359375 C-44.18663875 201.98939136 -47.57860842 201.96968867 -51 202 C-56.56562579 181.50293727 -48.36676312 163.2949487 -39 145 C-34.03225057 136.55159316 -27.10671838 129.62071626 -20.3671875 122.578125 C-18.08994825 120.17508413 -15.83606255 117.75596306 -13.63671875 115.28125 C-13.15420654 114.74048828 -12.67169434 114.19972656 -12.17456055 113.64257812 C-10.17663285 110.84855244 -9.93538852 108.35979711 -10 105 C-11.06345052 103.01970318 -11.06345052 103.01970318 -13 102 C-13.650896 101.9292627 -14.30179199 101.85852539 -14.97241211 101.78564453 C-17 101 -17 101 -18.23266602 98.55419922 C-18.56967529 97.48186035 -18.90668457 96.40952148 -19.25390625 95.3046875 C-19.82117432 93.52964844 -19.82117432 93.52964844 -20.39990234 91.71875 C-20.78863162 90.43786258 -21.17614108 89.1566044 -21.5625 87.875 C-21.9652848 86.57540525 -22.36844283 85.27592611 -22.77197266 83.9765625 C-25.41322281 75.37685999 -27.65448532 66.90329924 -29 58 C-29.27630588 56.3370668 -29.55373376 54.6743198 -29.83203125 53.01171875 C-30.11922114 51.23730712 -30.40439049 49.46256723 -30.6875 47.6875 C-30.81946777 46.87474609 -30.95143555 46.06199219 -31.08740234 45.22460938 C-32.9049773 33.16631185 -32.01291364 24.27879023 -25 14 C-21.91420365 10.34879376 -18.62470392 7.11188407 -15 4 C-14.17371094 3.26136719 -13.34742188 2.52273437 -12.49609375 1.76171875 C-8.43543506 -1.10425476 -4.7794847 -0.81850502 0 0 Z " fill="#FFFFFF" transform="translate(288,135)"/>
<path d="M0 0 C0.07516846 1.0837793 0.15033691 2.16755859 0.2277832 3.28417969 C1.06107844 15.26266373 1.92199949 27.23901161 2.79754639 39.21447754 C2.98631791 41.81175054 3.17175081 44.40923576 3.35595703 47.00683594 C4.5707977 64.03535588 6.21650682 80.80959856 9.01416016 97.6628418 C10.84668906 108.72479031 12.34450682 119.81360545 13.75 130.9375 C13.91009552 132.1988829 13.91009552 132.1988829 14.07342529 133.48574829 C15.10802321 141.65128777 16.1071447 149.81760188 17 158 C16.48932983 157.60135742 15.97865967 157.20271484 15.45251465 156.79199219 C6.58108381 149.91338894 -2.80013348 144.97300358 -13.125 140.625 C-14.176875 140.17511719 -15.22875 139.72523438 -16.3125 139.26171875 C-18.87231786 138.16797839 -21.43473532 137.08088797 -24 136 C-22.51217234 132.97986079 -20.88850634 130.1191243 -19.125 127.25 C-18.0790758 125.50254127 -17.03722146 123.75263832 -16 122 C-15.60039062 121.32582031 -15.20078125 120.65164062 -14.7890625 119.95703125 C-5.11444578 102.31722258 -9.90375641 79.17018811 -15.07177734 60.95507812 C-18.37620192 50.43515307 -23.62876331 41.68566629 -30.91796875 33.390625 C-32.77925983 31.25345775 -34.35093297 29.09186232 -35.9375 26.75 C-41.36384812 19.44991289 -49.27107608 15.08770873 -58 13 C-59.670625 12.5978125 -59.670625 12.5978125 -61.375 12.1875 C-73.74653701 11.54759291 -81.2456792 16.32450292 -90.125 24.3125 C-100.10354969 33.58655453 -109.44093529 46.09062162 -110.10498047 60.23632812 C-110.13437774 66.0640433 -109.67777371 71.62537525 -108.75 77.375 C-108.61505127 78.22860107 -108.48010254 79.08220215 -108.34106445 79.96166992 C-107.90778205 82.64360208 -107.45665652 85.3219556 -107 88 C-106.85546387 88.86608887 -106.71092773 89.73217773 -106.56201172 90.62451172 C-104.31298354 103.83724096 -101.00200883 115.72793556 -94.54296875 127.5625 C-94.12297607 128.33247314 -93.7029834 129.10244629 -93.27026367 129.89575195 C-92.43832964 131.39668694 -91.58875967 132.88801256 -90.7199707 134.36791992 C-89.5625 136.41796875 -89.5625 136.41796875 -88 140 C-89.09446195 143.12926851 -90.93538718 145.19464168 -93.23046875 147.5390625 C-94.18252197 148.52471191 -94.18252197 148.52471191 -95.15380859 149.53027344 C-95.82492676 150.2215332 -96.49604492 150.91279297 -97.1875 151.625 C-107.84674312 162.87935281 -114.08520161 173.89160789 -120.17138672 188.09570312 C-120.74477981 189.4134598 -121.35730843 190.71461685 -122 192 C-122.66 192 -123.32 192 -124 192 C-124.23074219 191.12714355 -124.46148437 190.25428711 -124.69921875 189.35498047 C-125.59548276 185.96520726 -126.4920153 182.57550529 -127.38873291 179.18585205 C-127.79714252 177.64188837 -128.20546735 176.09790227 -128.6137085 174.55389404 C-131.10475271 165.1332311 -133.60913592 155.7164467 -136.13818359 146.3059082 C-137.45990547 141.37577443 -138.76862115 136.44226641 -140.07226562 131.50732422 C-140.66653891 129.26065842 -141.26390928 127.01480818 -141.86523438 124.77001953 C-147.5788307 103.3506925 -151.83484384 81.64738309 -156.19511414 59.92211914 C-158.29579306 49.47936941 -160.50644352 39.06125935 -162.75585938 28.6496582 C-164.6586094 19.79283856 -166.36665708 10.90960575 -168 2 C-162.34869332 2.59911916 -156.72631056 3.30108176 -151.10058594 4.10424805 C-121.86016342 8.25474935 -93.39213033 7.02207463 -64.10601807 4.2769165 C-57.2869183 3.63941225 -50.46596367 3.02213066 -43.64453125 2.41015625 C-42.91919315 2.34474262 -42.19385506 2.27932899 -41.44653702 2.21193314 C-27.66227067 0.97613309 -13.84653719 0 0 0 Z " fill="#FFFFFF" transform="translate(348,104)"/>
</svg>
