<?xml version="1.0" encoding="UTF-8"?>
<svg version="1.1" xmlns="http://www.w3.org/2000/svg" width="500" height="500">
<path d="M0 0 C2.01385625 1.02881787 4.01838856 2.0759974 6.015625 3.13671875 C9.66032912 5.02148013 13.35552334 6.66720687 17.125 8.28125 C29.09939412 13.46785024 40.73585165 18.66969505 51.75 25.71875 C56.36658794 28.55570087 61.25916023 30.84617452 66.125 33.21875 C80.17055272 40.11607697 93.30780494 47.973267 105.75756836 57.46679688 C108.31820348 59.4143323 110.35960372 60.88028457 113.4375 61.90625 C114.365625 60.6996875 114.365625 60.6996875 115.3125 59.46875 C117.4375 56.90625 117.4375 56.90625 119.4375 55.90625 C126.68655375 55.44599262 126.68655375 55.44599262 129.375 57.09375 C131.16776908 60.15200314 131.66233336 62.86262053 130.9140625 66.3359375 C130.49253906 67.54636719 130.49253906 67.54636719 130.0625 68.78125 C129.02033674 71.9217599 128.37540853 74.45620299 128 77.78125 C127.4375 80.90625 127.4375 80.90625 125.58691406 82.64038086 C122.8539793 85.52138581 121.76482831 88.6065821 120.484375 92.28515625 C120.09251259 93.36532516 120.09251259 93.36532516 119.69273376 94.46731567 C119.13623407 96.00366225 118.58451573 97.54174782 118.03720093 99.08139038 C116.61347884 103.08154679 115.15049346 107.06732498 113.69140625 111.0546875 C113.40719315 111.83396103 113.12298004 112.61323456 112.83015442 113.41612244 C108.43856676 125.42411614 103.49987041 137.07232919 97.64282227 148.43701172 C94.51037676 154.58122098 91.79478197 160.88855961 89.0625 167.21875 C85.46795941 175.512799 81.64865912 183.56973841 77.35253906 191.52050781 C69.66958708 205.80609095 62.70872426 220.52907447 56.25 235.40625 C52.15122854 244.83906885 47.34122083 253.87151586 42.4375 262.90625 C41.81101562 264.06125 41.18453125 265.21625 40.5390625 266.40625 C39.56163736 268.19899075 38.58074333 269.98985292 37.59375 271.77734375 C36.49536368 273.79971045 35.45344547 275.84143491 34.4375 277.90625 C35.00339844 278.17179687 35.56929687 278.43734375 36.15234375 278.7109375 C37.25255859 279.24074219 37.25255859 279.24074219 38.375 279.78125 C39.10589844 280.12929688 39.83679688 280.47734375 40.58984375 280.8359375 C42.4375 281.90625 42.4375 281.90625 43.4375 283.90625 C43.8125 287.28125 43.8125 287.28125 43.4375 290.90625 C41.43359375 293.14453125 41.43359375 293.14453125 38.4375 294.90625 C35.48932455 295.06172592 33.02112392 295.02186235 30.125 294.71875 C29.40376953 294.66138672 28.68253906 294.60402344 27.93945312 294.54492188 C23.0884047 294.14030528 18.26409757 293.53343499 13.4375 292.90625 C12.94121094 293.93363281 12.44492188 294.96101563 11.93359375 296.01953125 C-2.25104734 325.08872504 -2.25104734 325.08872504 -14.5625 329.90625 C-24.70029439 332.47727383 -34.95183236 329.60394319 -44.5625 326.28125 C-46.16339478 325.74383179 -46.16339478 325.74383179 -47.79663086 325.19555664 C-49.9856814 324.46057185 -52.17312043 323.7207692 -54.35888672 322.97607422 C-57.41489216 321.9555426 -60.48274037 320.99953347 -63.56640625 320.06640625 C-64.50548828 319.77523926 -65.44457031 319.48407227 -66.41210938 319.18408203 C-68.15772954 318.64336707 -69.90753354 318.11588756 -71.66210938 317.60498047 C-80.2298195 314.87841634 -85.59219348 309.28608004 -91.3125 302.53125 C-96.46741036 296.73993095 -102.27549798 292.39176664 -108.5625 287.90625 C-112.82905205 284.66506077 -116.17964794 281.06976023 -119.5625 276.90625 C-121.22491318 275.23534067 -122.89222193 273.56929743 -124.5625 271.90625 C-126.50210753 269.88550551 -128.4103451 267.83721797 -130.3125 265.78125 C-130.80621094 265.25660156 -131.29992187 264.73195313 -131.80859375 264.19140625 C-135.04016257 260.69422904 -136.4339847 258.53879591 -136.8125 253.73046875 C-136.51725936 249.21420956 -135.33183223 245.84137894 -133.5625 241.71875 C-133.2536084 240.97987549 -132.9447168 240.24100098 -132.62646484 239.47973633 C-130.07390313 233.59915919 -126.95041566 228.50669826 -123.1640625 223.32421875 C-121.68275726 221.08780914 -120.98976667 219.52478433 -120.5625 216.90625 C-121.32175781 216.30296875 -122.08101562 215.6996875 -122.86328125 215.078125 C-124.35408203 213.87929688 -124.35408203 213.87929688 -125.875 212.65625 C-127.35419922 211.47289062 -127.35419922 211.47289062 -128.86328125 210.265625 C-132.74916257 206.86899357 -135.1773151 204.17044364 -135.5625 198.90625 C-134.78142631 195.62574049 -133.97958432 194.25183415 -131.375 192.09375 C-126.30996259 189.95517865 -122.15300407 190.54073612 -117.125 192.40625 C-115.3615625 193.14875 -115.3615625 193.14875 -113.5625 193.90625 C-110.10222976 186.47492501 -106.93498311 178.97208632 -103.9375 171.34375 C-102.15172995 166.8622185 -100.35750202 162.38409064 -98.5625 157.90625 C-98.13163086 156.82762695 -97.70076172 155.74900391 -97.25683594 154.63769531 C-91.33653118 139.91054686 -84.60125837 125.94026474 -76.921875 112.05078125 C-73.86563238 106.51587406 -71.02396614 100.89916858 -68.25 95.21875 C-62.55975574 83.6433585 -55.86970241 72.81254261 -48.875 61.98046875 C-47.54617962 59.95723363 -47.54617962 59.95723363 -46.5625 57.90625 C-45.9025 57.90625 -45.2425 57.90625 -44.5625 57.90625 C-44.30855469 57.05417969 -44.05460937 56.20210937 -43.79296875 55.32421875 C-42.48008292 51.67731368 -40.8198813 48.56975373 -38.875 45.21875 C-38.52050781 44.60499512 -38.16601562 43.99124023 -37.80078125 43.35888672 C-35.65713911 39.67737273 -33.40488714 36.09060149 -31.0625 32.53125 C-28.17612469 28.06266437 -25.69628774 23.46766784 -23.3125 18.71875 C-22.98314453 18.06535645 -22.65378906 17.41196289 -22.31445312 16.73876953 C-20.6643492 13.39047582 -19.21665082 10.0529468 -17.953125 6.5390625 C-16.56290033 2.9072958 -15.91966622 1.68974456 -12.5625 -0.09375 C-7.84750009 -1.66541664 -4.57583254 -1.95309926 0 0 Z " fill="#FFFFFF" transform="translate(242.5625,68.09375)"/>
<path d="M0 0 C2.01385625 1.02881787 4.01838856 2.0759974 6.015625 3.13671875 C9.66032912 5.02148013 13.35552334 6.66720687 17.125 8.28125 C29.09939412 13.46785024 40.73585165 18.66969505 51.75 25.71875 C56.36658794 28.55570087 61.25916023 30.84617452 66.125 33.21875 C80.17055272 40.11607697 93.30780494 47.973267 105.75756836 57.46679688 C108.31820348 59.4143323 110.35960372 60.88028457 113.4375 61.90625 C114.365625 60.6996875 114.365625 60.6996875 115.3125 59.46875 C117.4375 56.90625 117.4375 56.90625 119.4375 55.90625 C126.68655375 55.44599262 126.68655375 55.44599262 129.375 57.09375 C131.16776908 60.15200314 131.66233336 62.86262053 130.9140625 66.3359375 C130.49253906 67.54636719 130.49253906 67.54636719 130.0625 68.78125 C129.02033674 71.9217599 128.37540853 74.45620299 128 77.78125 C127.4375 80.90625 127.4375 80.90625 125.58691406 82.64038086 C122.8539793 85.52138581 121.76482831 88.6065821 120.484375 92.28515625 C120.09251259 93.36532516 120.09251259 93.36532516 119.69273376 94.46731567 C119.13623407 96.00366225 118.58451573 97.54174782 118.03720093 99.08139038 C116.61347884 103.08154679 115.15049346 107.06732498 113.69140625 111.0546875 C113.40719315 111.83396103 113.12298004 112.61323456 112.83015442 113.41612244 C108.43856676 125.42411614 103.49987041 137.07232919 97.64282227 148.43701172 C94.51037676 154.58122098 91.79478197 160.88855961 89.0625 167.21875 C85.46795941 175.512799 81.64865912 183.56973841 77.35253906 191.52050781 C69.66958708 205.80609095 62.70872426 220.52907447 56.25 235.40625 C52.15122854 244.83906885 47.34122083 253.87151586 42.4375 262.90625 C41.81101562 264.06125 41.18453125 265.21625 40.5390625 266.40625 C39.56163736 268.19899075 38.58074333 269.98985292 37.59375 271.77734375 C36.49536368 273.79971045 35.45344547 275.84143491 34.4375 277.90625 C35.00339844 278.17179687 35.56929687 278.43734375 36.15234375 278.7109375 C37.25255859 279.24074219 37.25255859 279.24074219 38.375 279.78125 C39.10589844 280.12929688 39.83679688 280.47734375 40.58984375 280.8359375 C42.4375 281.90625 42.4375 281.90625 43.4375 283.90625 C43.8125 287.28125 43.8125 287.28125 43.4375 290.90625 C41.43359375 293.14453125 41.43359375 293.14453125 38.4375 294.90625 C35.48932455 295.06172592 33.02112392 295.02186235 30.125 294.71875 C29.40376953 294.66138672 28.68253906 294.60402344 27.93945312 294.54492188 C23.0884047 294.14030528 18.26409757 293.53343499 13.4375 292.90625 C12.94121094 293.93363281 12.44492188 294.96101563 11.93359375 296.01953125 C-2.25104734 325.08872504 -2.25104734 325.08872504 -14.5625 329.90625 C-24.70029439 332.47727383 -34.95183236 329.60394319 -44.5625 326.28125 C-46.16339478 325.74383179 -46.16339478 325.74383179 -47.79663086 325.19555664 C-49.9856814 324.46057185 -52.17312043 323.7207692 -54.35888672 322.97607422 C-57.41489216 321.9555426 -60.48274037 320.99953347 -63.56640625 320.06640625 C-64.50548828 319.77523926 -65.44457031 319.48407227 -66.41210938 319.18408203 C-68.15772954 318.64336707 -69.90753354 318.11588756 -71.66210938 317.60498047 C-80.2298195 314.87841634 -85.59219348 309.28608004 -91.3125 302.53125 C-96.46741036 296.73993095 -102.27549798 292.39176664 -108.5625 287.90625 C-112.82905205 284.66506077 -116.17964794 281.06976023 -119.5625 276.90625 C-121.22491318 275.23534067 -122.89222193 273.56929743 -124.5625 271.90625 C-126.50210753 269.88550551 -128.4103451 267.83721797 -130.3125 265.78125 C-130.80621094 265.25660156 -131.29992187 264.73195313 -131.80859375 264.19140625 C-135.04016257 260.69422904 -136.4339847 258.53879591 -136.8125 253.73046875 C-136.51725936 249.21420956 -135.33183223 245.84137894 -133.5625 241.71875 C-133.2536084 240.97987549 -132.9447168 240.24100098 -132.62646484 239.47973633 C-130.07390313 233.59915919 -126.95041566 228.50669826 -123.1640625 223.32421875 C-121.68275726 221.08780914 -120.98976667 219.52478433 -120.5625 216.90625 C-121.32175781 216.30296875 -122.08101562 215.6996875 -122.86328125 215.078125 C-124.35408203 213.87929688 -124.35408203 213.87929688 -125.875 212.65625 C-127.35419922 211.47289062 -127.35419922 211.47289062 -128.86328125 210.265625 C-132.74916257 206.86899357 -135.1773151 204.17044364 -135.5625 198.90625 C-134.78142631 195.62574049 -133.97958432 194.25183415 -131.375 192.09375 C-126.30996259 189.95517865 -122.15300407 190.54073612 -117.125 192.40625 C-115.3615625 193.14875 -115.3615625 193.14875 -113.5625 193.90625 C-110.10222976 186.47492501 -106.93498311 178.97208632 -103.9375 171.34375 C-102.15172995 166.8622185 -100.35750202 162.38409064 -98.5625 157.90625 C-98.13163086 156.82762695 -97.70076172 155.74900391 -97.25683594 154.63769531 C-91.33653118 139.91054686 -84.60125837 125.94026474 -76.921875 112.05078125 C-73.86563238 106.51587406 -71.02396614 100.89916858 -68.25 95.21875 C-62.55975574 83.6433585 -55.86970241 72.81254261 -48.875 61.98046875 C-47.54617962 59.95723363 -47.54617962 59.95723363 -46.5625 57.90625 C-45.9025 57.90625 -45.2425 57.90625 -44.5625 57.90625 C-44.30855469 57.05417969 -44.05460937 56.20210937 -43.79296875 55.32421875 C-42.48008292 51.67731368 -40.8198813 48.56975373 -38.875 45.21875 C-38.52050781 44.60499512 -38.16601562 43.99124023 -37.80078125 43.35888672 C-35.65713911 39.67737273 -33.40488714 36.09060149 -31.0625 32.53125 C-28.17612469 28.06266437 -25.69628774 23.46766784 -23.3125 18.71875 C-22.98314453 18.06535645 -22.65378906 17.41196289 -22.31445312 16.73876953 C-20.6643492 13.39047582 -19.21665082 10.0529468 -17.953125 6.5390625 C-16.56290033 2.9072958 -15.91966622 1.68974456 -12.5625 -0.09375 C-7.84750009 -1.66541664 -4.57583254 -1.95309926 0 0 Z M-1.5625 24.90625 C-2.02398437 25.88722656 -2.48546875 26.86820313 -2.9609375 27.87890625 C-6.754438 35.78400806 -10.86475646 43.16835817 -15.8425293 50.38769531 C-18.70470083 54.5558529 -21.29509657 58.79932213 -23.75 63.21875 C-26.51142311 68.15500134 -29.47634145 72.76474837 -32.77734375 77.3515625 C-41.44434972 89.75467389 -48.27820211 103.28526749 -55.25537109 116.67529297 C-57.49864043 120.97998572 -59.75267979 125.27599017 -62.07421875 129.5390625 C-67.03696125 138.69752387 -71.48474621 147.99825456 -75.6875 157.53125 C-76.19901611 158.69108398 -76.71053223 159.85091797 -77.23754883 161.04589844 C-79.07078462 165.21366162 -80.90290515 169.38177822 -82.7109375 173.56054688 C-86.45368698 182.17872003 -90.3520891 189.71313594 -96.50244141 196.88818359 C-97.58991216 198.1733763 -98.58575806 199.53501402 -99.5625 200.90625 C-98.36108678 204.51048967 -97.43586049 204.93175662 -94.3125 206.953125 C-92.95390869 207.83798584 -92.95390869 207.83798584 -91.56787109 208.74072266 C-90.57609863 209.37284668 -89.58432617 210.0049707 -88.5625 210.65625 C-87.53592285 211.31802246 -86.5093457 211.97979492 -85.45166016 212.66162109 C-75.95138305 218.74438747 -66.28859643 224.54454151 -56.5859375 230.296875 C-52.84393718 232.52197598 -49.14021293 234.78883045 -45.4765625 237.140625 C-33.28308591 244.95137139 -20.67917977 251.66482853 -7.75585938 258.17138672 C-7.06088852 258.52239944 -6.36591766 258.87341217 -5.64988708 259.23506165 C-4.347665 259.89155572 -3.04364229 260.54449621 -1.73744202 261.19303894 C1.24904727 262.69623289 3.95204961 264.26846914 6.69165039 266.19702148 C7.59778076 266.76106689 8.50391113 267.3251123 9.4375 267.90625 C12.61446822 267.14906686 12.61446822 267.14906686 14.4375 264.40625 C16.4375 261.90625 16.4375 261.90625 19.4375 260.90625 C21.07215632 258.46238366 21.07215632 258.46238366 22.58984375 255.37890625 C23.19562256 254.20682617 23.80140137 253.03474609 24.42553711 251.82714844 C25.07596968 250.54132482 25.72577555 249.25518403 26.375 247.96875 C27.04739556 246.65256102 27.72000535 245.33648145 28.39282227 244.02050781 C34.30442517 232.39772228 39.79080028 220.59199623 45.16650391 208.71240234 C49.5944778 198.93615725 54.17932475 189.30402378 59.25 179.84375 C63.67649272 171.58347604 67.61005273 163.14357697 71.46972656 154.60595703 C74.0438637 148.920416 76.67582961 143.28434438 79.5 137.71875 C86.78303265 123.29213515 93.64718965 108.80287232 99.625 93.78125 C99.87537018 93.16012329 100.12574036 92.53899658 100.38369751 91.89904785 C101.09315003 90.13220241 101.78715081 88.35917633 102.48046875 86.5859375 C102.88289795 85.56226074 103.28532715 84.53858398 103.69995117 83.48388672 C104.72379255 80.82345452 104.72379255 80.82345452 103.4375 77.90625 C101.54651256 76.44405541 101.54651256 76.44405541 99.16015625 75.12109375 C97.8146167 74.33255005 97.8146167 74.33255005 96.44189453 73.52807617 C95.47106934 72.97224854 94.50024414 72.4164209 93.5 71.84375 C92.50597168 71.26665283 91.51194336 70.68955566 90.48779297 70.0949707 C87.47762402 68.35359639 84.45935171 66.62725785 81.4375 64.90625 C80.59719238 64.42607422 79.75688477 63.94589844 78.89111328 63.45117188 C69.29797614 57.98755719 59.57305837 52.86921534 49.66308594 48.00732422 C47.20749021 46.79245621 44.76346605 45.55610059 42.3203125 44.31640625 C32.74848041 39.46829088 23.12941784 34.75236394 13.375 30.28125 C11.99223877 29.64243896 11.99223877 29.64243896 10.58154297 28.99072266 C9.71803223 28.59933105 8.85452148 28.20793945 7.96484375 27.8046875 C7.20937256 27.46099121 6.45390137 27.11729492 5.67553711 26.76318359 C3.28084853 25.84626891 0.96079898 25.34027632 -1.5625 24.90625 Z " fill="#000000" transform="translate(242.5625,68.09375)"/>
<path d="M0 0 C3.51715197 1.28120422 6.30709259 2.7793082 9.3125 5 C20.59949838 13.05503849 32.62096824 20.0153494 44.56982422 27.03051758 C49.16266607 29.72731571 53.74268826 32.44028078 58.2890625 35.21484375 C67.6127095 40.90138046 76.96295633 46.20185547 86.8046875 50.93457031 C91.2245735 53.07963065 95.60862537 55.29733487 100 57.5 C101.72904172 58.36483319 103.4581974 59.22943858 105.1875 60.09375 C106.45833333 60.72916667 107.72916667 61.36458333 109 62 C99.9963313 85.43602001 99.9963313 85.43602001 92.19921875 90.0703125 C84.94321062 93.13768361 77.23590592 90.46531731 70.3125 87.75 C64.18699513 85.46660229 58.15530814 83.40459599 51.8125 81.8125 C41.24820713 79.04865257 36.35741174 76.89252018 29.65234375 68.078125 C25.1971426 62.59209883 19.22023368 58.55273997 13.64892578 54.27490234 C7.69773145 49.67360877 2.3501336 44.46087518 -3 39.1875 C-3.5892627 38.61136963 -4.17852539 38.03523926 -4.78564453 37.44165039 C-6.23019655 35.99987389 -7.62021769 34.50387859 -9 33 C-9 32.34 -9 31.68 -9 31 C-9.66 31 -10.32 31 -11 31 C-12.1875 29.47265625 -12.1875 29.47265625 -13 27 C-12.13384735 24.3022954 -11.20926424 21.97465977 -10 19.4375 C-9.67765381 18.73238281 -9.35530762 18.02726562 -9.02319336 17.30078125 C-6.28309698 11.38932055 -3.2623113 5.64033309 0 0 Z " fill="#FFFFFF" transform="translate(133,293)"/>
<path d="M0 0 C5.87942295 -0.27997252 9.18748456 0.21709145 13.625 4.1875 C13.625 4.8475 13.625 5.5075 13.625 6.1875 C14.285 6.1875 14.945 6.1875 15.625 6.1875 C15.87894531 7.11433594 16.13289063 8.04117187 16.39453125 8.99609375 C16.73871094 10.19363281 17.08289063 11.39117187 17.4375 12.625 C17.77394531 13.81996094 18.11039062 15.01492188 18.45703125 16.24609375 C18.84246094 17.21675781 19.22789062 18.18742187 19.625 19.1875 C23.64324027 20.52691342 24.81361171 19.40740745 28.5625 17.5625 C29.72394531 17.00820313 30.88539063 16.45390625 32.08203125 15.8828125 C33.25121094 15.32335937 34.42039062 14.76390625 35.625 14.1875 C47.15261291 8.87589754 58.79234177 5.54399008 71.625 7.1875 C75.78351409 8.86831648 78.79370313 11.42014904 82.0625 14.4375 C86.69181802 17.59898548 91.19888396 17.57090176 96.640625 16.7109375 C102.21826716 15.48493403 107.5892425 13.87716437 113 12.0625 C120.75962293 9.62349231 130.85665799 7.17032751 138.6875 10.4375 C139.656875 11.015 140.62625 11.5925 141.625 12.1875 C144.90309818 13.8948428 147.73211681 15.21654863 151.3125 16.1875 C155.8769685 17.56545276 155.8769685 17.56545276 157.625 20.1875 C158.93952598 23.66160437 158.72425431 24.94172742 157.3125 28.4375 C155.625 31.1875 155.625 31.1875 153.625 32.1875 C147.384536 33.16956505 143.20102302 32.21118303 137.75 29.0625 C130.98117999 25.42898368 126.82968189 26.11728354 119.625 28.1875 C118.09810788 28.60063116 116.57072883 29.01196522 115.04296875 29.421875 C111.89629047 30.27543125 108.76035947 31.15870381 105.62890625 32.06640625 C96.86171425 34.56035583 87.25616165 35.98659739 78.609375 32.32421875 C76.13779804 30.90841384 73.99738695 29.18585538 71.75 27.4375 C68.23458679 24.89888863 66.05657469 23.67456971 61.6875 24 C54.66817896 25.32232107 47.96446299 27.87109653 41.6875 31.25 C34.00354795 35.21794245 25.11799467 37.53940622 16.625 35.1875 C12.23989475 33.65619341 9.56330075 31.65862636 7.3125 27.5625 C5.28689977 22.95491149 4.39614036 18.13903283 3.625 13.1875 C-4.14801106 14.75864053 -10.67404318 17.06753684 -17.5859375 20.98046875 C-20.77710606 22.36152069 -22.93233606 22.5754058 -26.375 22.1875 C-28.375 20 -28.375 20 -29.375 17.1875 C-27.69496939 11.10693466 -23.56980811 9.19087161 -18.375 6.1875 C-12.17178962 2.71853827 -7.11539338 0.56174158 0 0 Z " fill="#000000" transform="translate(278.375,397.8125)"/>
</svg>
