<?xml version="1.0" encoding="UTF-8"?>
<svg version="1.1" xmlns="http://www.w3.org/2000/svg" width="500" height="500">
<path d="M0 0 C3.11488663 0.11181644 5.4620286 0.57786603 7.9296875 2.53515625 C13.15111045 8.16010837 13.25297727 13.43314951 13.16015625 20.89453125 C13.15564453 21.58740234 13.15113281 22.28027344 13.14648438 22.99414062 C13.13478781 24.69014193 13.11685549 26.38609828 13.09765625 28.08203125 C13.56171875 27.77910156 14.02578125 27.47617188 14.50390625 27.1640625 C30.50782997 17.46019084 49.94340072 15.76870459 68.09765625 13.08203125 C69.23678467 12.90861206 69.23678467 12.90861206 70.39892578 12.73168945 C75.91518151 11.95594413 81.4120998 11.826896 86.97265625 11.76953125 C87.90207031 11.74052734 88.83148438 11.71152344 89.7890625 11.68164062 C98.05577345 11.60669834 104.51936822 13.71901085 111.41015625 18.26953125 C114.79577062 21.81261605 119.09765625 26.93037299 119.09765625 32.08203125 C119.75765625 32.08203125 120.41765625 32.08203125 121.09765625 32.08203125 C124.09765625 35.54356971 124.09765625 35.54356971 124.09765625 38.08203125 C125.08765625 38.41203125 126.07765625 38.74203125 127.09765625 39.08203125 C127.09765625 39.74203125 127.09765625 40.40203125 127.09765625 41.08203125 C127.63390625 41.35015625 128.17015625 41.61828125 128.72265625 41.89453125 C130.40554967 42.73597796 132.05484576 43.64619295 133.67578125 44.6015625 C137.93976503 46.44636827 141.62088838 46.76655011 146.22265625 46.95703125 C147.49713623 47.01117188 147.49713623 47.01117188 148.79736328 47.06640625 C155.73414784 47.25649131 161.52050551 46.34604463 168.09765625 44.08203125 C169.7442591 43.54004599 171.39145048 42.99984715 173.0390625 42.4609375 C179.58776932 40.30299503 186.12842752 38.12093358 192.63671875 35.84375 C211.89493834 29.39946205 232.20535601 27.10868796 250.95556641 35.95898438 C256.44235086 38.78410105 261.62705334 42.07142321 266.73046875 45.52734375 C273.26847197 49.93546973 278.98809347 53.63230594 287.09765625 54.08203125 C287.97035156 54.15035156 288.84304688 54.21867187 289.7421875 54.2890625 C290.51949219 54.22074219 291.29679687 54.15242188 292.09765625 54.08203125 C294.27712271 51.2295174 294.27712271 51.2295174 296.09765625 48.08203125 C299.09765625 46.08203125 299.09765625 46.08203125 302.59765625 46.14453125 C306.09765625 47.08203125 306.09765625 47.08203125 307.82666016 49.28173828 C309.30512926 52.53914139 309.31125475 54.28887629 308.93359375 57.82421875 C308.81467773 58.97116211 308.69576172 60.11810547 308.57324219 61.29980469 C307.79217015 67.51149258 306.9575162 73.71203274 306.05627441 79.90744019 C304.3126992 91.92570064 302.67934802 103.94794398 301.34765625 116.01953125 C301.23244629 117.05803223 301.11723633 118.0965332 300.99853516 119.16650391 C299.72842219 130.99335006 298.96704818 142.77657346 298.703125 154.66796875 C298.63429184 157.2552305 298.56460255 159.84246959 298.49414062 162.4296875 C298.38669841 166.4284121 298.28580764 170.42703058 298.19897461 174.42626953 C297.90124008 187.81354176 297.47283944 201.0251036 295.2109375 214.24609375 C294.96974434 215.66443008 294.96974434 215.66443008 294.72367859 217.11141968 C293.88071479 221.53940519 293.22534193 224.67443755 290.09765625 228.08203125 C286.21731842 229.10702615 283.96285184 229.43890976 280.21875 227.89453125 C277.10229185 226.74288272 277.10229185 226.74288272 274.30859375 228.27734375 C273.37273437 228.91414062 272.436875 229.5509375 271.47265625 230.20703125 C261.59701111 236.3960944 251.37013064 240.20915785 239.6796875 237.52734375 C231.74811282 234.81016482 223.04393383 229.02830883 217.09765625 223.08203125 C208.32254987 222.07470381 200.57356027 224.23674003 192.28515625 226.89453125 C191.02574219 227.28962891 189.76632812 227.68472656 188.46875 228.09179688 C177.48022204 231.63192483 167.28875377 236.46272185 157.22460938 242.1015625 C148.82127943 245.97527383 135.74620316 245.40929726 127.09765625 242.45703125 C119.74746915 239.29578057 113.51451343 234.97684642 108.09765625 229.08203125 C107.59645264 228.62965088 107.09524902 228.17727051 106.57885742 227.71118164 C104.83792205 225.7963536 104.15170418 224.1319339 103.2734375 221.703125 C102.81420898 220.44532227 102.81420898 220.44532227 102.34570312 219.16210938 C102.03697266 218.29005859 101.72824219 217.41800781 101.41015625 216.51953125 C101.08982422 215.64361328 100.76949219 214.76769531 100.43945312 213.86523438 C98.09765625 207.37910614 98.09765625 207.37910614 98.09765625 205.08203125 C79.83639687 197.67881799 56.02664706 202.8464586 38.23828125 209.875 C35.09765625 211.08203125 35.09765625 211.08203125 33.09765625 211.08203125 C33.00484375 211.88640625 33.00484375 211.88640625 32.91015625 212.70703125 C31.02500192 218.21748237 26.50080385 221.58209341 22.09765625 225.08203125 C21.47890625 225.98953125 20.86015625 226.89703125 20.22265625 227.83203125 C18.09765625 230.08203125 18.09765625 230.08203125 14.46484375 230.22265625 C13.35367188 230.17625 12.2425 230.12984375 11.09765625 230.08203125 C11.12794922 231.39582764 11.15824219 232.70962402 11.18945312 234.06323242 C11.30367863 239.04511332 11.41471655 244.02706146 11.52490234 249.0090332 C11.57256642 251.14511979 11.62103901 253.28118852 11.67041016 255.41723633 C11.99848684 269.64170412 12.16486315 283.85376958 12.09765625 298.08203125 C13.08765625 298.41203125 14.07765625 298.74203125 15.09765625 299.08203125 C15.34765625 305.70703125 15.34765625 305.70703125 13.09765625 309.08203125 C12.95630345 311.03150727 12.95630345 311.03150727 13.234375 313.17578125 C13.31550537 314.02406494 13.39663574 314.87234863 13.48022461 315.74633789 C13.58085205 316.6821167 13.68147949 317.61789551 13.78515625 318.58203125 C13.98964873 320.65351129 14.19267437 322.72513647 14.39453125 324.796875 C14.50861328 325.94526855 14.62269531 327.09366211 14.74023438 328.27685547 C15.13517016 332.48141088 15.47319501 336.68821966 15.80078125 340.8984375 C15.98482045 343.21520942 16.16955499 345.53192511 16.35440063 347.84863281 C16.47323418 349.35801741 16.58934241 350.86761949 16.70248413 352.37744141 C17.36550554 361.16586908 18.41266624 369.56676506 20.42919922 378.16333008 C22.14052694 385.63554442 24.66394533 397.58347746 20.76953125 404.41015625 C19.09765625 406.08203125 19.09765625 406.08203125 16.09765625 406.51953125 C13.09765625 406.08203125 13.09765625 406.08203125 11.74609375 404.47265625 C11.20210937 404.01375 10.658125 403.55484375 10.09765625 403.08203125 C7.56956969 403.4004573 7.56956969 403.4004573 4.72265625 404.39453125 C-1.46748056 406.01327634 -7.19942077 406.3699415 -13.58984375 406.33203125 C-14.45593262 406.32856689 -15.32202148 406.32510254 -16.21435547 406.3215332 C-32.05914974 406.09766877 -32.05914974 406.09766877 -36.96484375 403.39453125 C-40.24696463 399.47716117 -40.01989233 394.58196228 -40.19946289 389.62451172 C-40.23942383 388.54086334 -40.27938477 387.45721497 -40.32055664 386.34072876 C-40.35914795 385.13903046 -40.39773926 383.93733215 -40.4375 382.69921875 C-40.45866882 382.05253613 -40.47983765 381.4058535 -40.50164795 380.73957443 C-40.67208538 375.4791548 -40.82053697 370.21822375 -40.96484375 364.95703125 C-40.98735577 364.15780746 -41.00986778 363.35858368 -41.03306198 362.53514099 C-42.37539211 314.51589439 -42.0458148 266.46536167 -41.92865181 218.43246651 C-41.91418011 212.48083013 -41.90254612 206.52918877 -41.89130127 200.57754552 C-41.88334869 196.5767071 -41.8730969 192.57590094 -41.85745239 188.57508469 C-41.7338095 168.16046626 -41.7338095 168.16046626 -42.52920914 147.76635838 C-43.15256924 137.77145623 -43.10807627 127.7610072 -43.140625 117.75 C-43.14470053 116.66851496 -43.14877605 115.58702991 -43.15297508 114.4727726 C-43.17365718 108.74527823 -43.18803338 103.01780653 -43.19750977 97.2902832 C-43.2063413 92.62934184 -43.22717471 87.9687013 -43.2590332 83.30786133 C-43.66663674 22.37491023 -43.66663674 22.37491023 -37.90234375 5.08203125 C-34.09966346 2.54691106 -31.89688114 2.99055541 -27.47265625 3.20703125 C-24.88301732 3.22630975 -24.88301732 3.22630975 -22.59765625 2.125 C-18.99717174 0.73176904 -15.46700429 0.57224975 -11.65234375 0.39453125 C-10.51671997 0.34135742 -10.51671997 0.34135742 -9.3581543 0.28710938 C-6.23947057 0.16111549 -3.11993269 0.08818114 0 0 Z " fill="#FEFEFE" transform="translate(101.90234375,44.91796875)"/>
<path d="M0 0 C3.11488663 0.11181644 5.4620286 0.57786603 7.9296875 2.53515625 C13.15111045 8.16010837 13.25297727 13.43314951 13.16015625 20.89453125 C13.15564453 21.58740234 13.15113281 22.28027344 13.14648438 22.99414062 C13.13478781 24.69014193 13.11685549 26.38609828 13.09765625 28.08203125 C13.56171875 27.77910156 14.02578125 27.47617188 14.50390625 27.1640625 C30.50782997 17.46019084 49.94340072 15.76870459 68.09765625 13.08203125 C69.23678467 12.90861206 69.23678467 12.90861206 70.39892578 12.73168945 C75.91518151 11.95594413 81.4120998 11.826896 86.97265625 11.76953125 C87.90207031 11.74052734 88.83148438 11.71152344 89.7890625 11.68164062 C98.05577345 11.60669834 104.51936822 13.71901085 111.41015625 18.26953125 C114.79577062 21.81261605 119.09765625 26.93037299 119.09765625 32.08203125 C119.75765625 32.08203125 120.41765625 32.08203125 121.09765625 32.08203125 C124.09765625 35.54356971 124.09765625 35.54356971 124.09765625 38.08203125 C125.08765625 38.41203125 126.07765625 38.74203125 127.09765625 39.08203125 C127.09765625 39.74203125 127.09765625 40.40203125 127.09765625 41.08203125 C127.63390625 41.35015625 128.17015625 41.61828125 128.72265625 41.89453125 C130.40554967 42.73597796 132.05484576 43.64619295 133.67578125 44.6015625 C137.93976503 46.44636827 141.62088838 46.76655011 146.22265625 46.95703125 C147.49713623 47.01117188 147.49713623 47.01117188 148.79736328 47.06640625 C155.73414784 47.25649131 161.52050551 46.34604463 168.09765625 44.08203125 C169.7442591 43.54004599 171.39145048 42.99984715 173.0390625 42.4609375 C179.58776932 40.30299503 186.12842752 38.12093358 192.63671875 35.84375 C211.89493834 29.39946205 232.20535601 27.10868796 250.95556641 35.95898438 C256.44235086 38.78410105 261.62705334 42.07142321 266.73046875 45.52734375 C273.26847197 49.93546973 278.98809347 53.63230594 287.09765625 54.08203125 C287.97035156 54.15035156 288.84304688 54.21867187 289.7421875 54.2890625 C290.51949219 54.22074219 291.29679687 54.15242188 292.09765625 54.08203125 C294.27712271 51.2295174 294.27712271 51.2295174 296.09765625 48.08203125 C299.09765625 46.08203125 299.09765625 46.08203125 302.59765625 46.14453125 C306.09765625 47.08203125 306.09765625 47.08203125 307.82666016 49.28173828 C309.30512926 52.53914139 309.31125475 54.28887629 308.93359375 57.82421875 C308.81467773 58.97116211 308.69576172 60.11810547 308.57324219 61.29980469 C307.79217015 67.51149258 306.9575162 73.71203274 306.05627441 79.90744019 C304.3126992 91.92570064 302.67934802 103.94794398 301.34765625 116.01953125 C301.23244629 117.05803223 301.11723633 118.0965332 300.99853516 119.16650391 C299.72842219 130.99335006 298.96704818 142.77657346 298.703125 154.66796875 C298.63429184 157.2552305 298.56460255 159.84246959 298.49414062 162.4296875 C298.38669841 166.4284121 298.28580764 170.42703058 298.19897461 174.42626953 C297.90124008 187.81354176 297.47283944 201.0251036 295.2109375 214.24609375 C294.96974434 215.66443008 294.96974434 215.66443008 294.72367859 217.11141968 C293.88071479 221.53940519 293.22534193 224.67443755 290.09765625 228.08203125 C286.21731842 229.10702615 283.96285184 229.43890976 280.21875 227.89453125 C277.10229185 226.74288272 277.10229185 226.74288272 274.30859375 228.27734375 C273.37273437 228.91414062 272.436875 229.5509375 271.47265625 230.20703125 C261.59701111 236.3960944 251.37013064 240.20915785 239.6796875 237.52734375 C231.74811282 234.81016482 223.04393383 229.02830883 217.09765625 223.08203125 C208.32254987 222.07470381 200.57356027 224.23674003 192.28515625 226.89453125 C191.02574219 227.28962891 189.76632812 227.68472656 188.46875 228.09179688 C177.48022204 231.63192483 167.28875377 236.46272185 157.22460938 242.1015625 C148.82127943 245.97527383 135.74620316 245.40929726 127.09765625 242.45703125 C119.74746915 239.29578057 113.51451343 234.97684642 108.09765625 229.08203125 C107.59645264 228.62965088 107.09524902 228.17727051 106.57885742 227.71118164 C104.83792205 225.7963536 104.15170418 224.1319339 103.2734375 221.703125 C102.81420898 220.44532227 102.81420898 220.44532227 102.34570312 219.16210938 C102.03697266 218.29005859 101.72824219 217.41800781 101.41015625 216.51953125 C101.08982422 215.64361328 100.76949219 214.76769531 100.43945312 213.86523438 C98.09765625 207.37910614 98.09765625 207.37910614 98.09765625 205.08203125 C79.83639687 197.67881799 56.02664706 202.8464586 38.23828125 209.875 C35.09765625 211.08203125 35.09765625 211.08203125 33.09765625 211.08203125 C33.00484375 211.88640625 33.00484375 211.88640625 32.91015625 212.70703125 C31.02500192 218.21748237 26.50080385 221.58209341 22.09765625 225.08203125 C21.47890625 225.98953125 20.86015625 226.89703125 20.22265625 227.83203125 C18.09765625 230.08203125 18.09765625 230.08203125 14.46484375 230.22265625 C13.35367188 230.17625 12.2425 230.12984375 11.09765625 230.08203125 C11.12794922 231.39582764 11.15824219 232.70962402 11.18945312 234.06323242 C11.30367863 239.04511332 11.41471655 244.02706146 11.52490234 249.0090332 C11.57256642 251.14511979 11.62103901 253.28118852 11.67041016 255.41723633 C11.99848684 269.64170412 12.16486315 283.85376958 12.09765625 298.08203125 C13.08765625 298.41203125 14.07765625 298.74203125 15.09765625 299.08203125 C15.34765625 305.70703125 15.34765625 305.70703125 13.09765625 309.08203125 C12.95630345 311.03150727 12.95630345 311.03150727 13.234375 313.17578125 C13.31550537 314.02406494 13.39663574 314.87234863 13.48022461 315.74633789 C13.58085205 316.6821167 13.68147949 317.61789551 13.78515625 318.58203125 C13.98964873 320.65351129 14.19267437 322.72513647 14.39453125 324.796875 C14.50861328 325.94526855 14.62269531 327.09366211 14.74023438 328.27685547 C15.13517016 332.48141088 15.47319501 336.68821966 15.80078125 340.8984375 C15.98482045 343.21520942 16.16955499 345.53192511 16.35440063 347.84863281 C16.47323418 349.35801741 16.58934241 350.86761949 16.70248413 352.37744141 C17.36550554 361.16586908 18.41266624 369.56676506 20.42919922 378.16333008 C22.14052694 385.63554442 24.66394533 397.58347746 20.76953125 404.41015625 C19.09765625 406.08203125 19.09765625 406.08203125 16.09765625 406.51953125 C13.09765625 406.08203125 13.09765625 406.08203125 11.74609375 404.47265625 C11.20210937 404.01375 10.658125 403.55484375 10.09765625 403.08203125 C7.56956969 403.4004573 7.56956969 403.4004573 4.72265625 404.39453125 C-1.46748056 406.01327634 -7.19942077 406.3699415 -13.58984375 406.33203125 C-14.45593262 406.32856689 -15.32202148 406.32510254 -16.21435547 406.3215332 C-32.05914974 406.09766877 -32.05914974 406.09766877 -36.96484375 403.39453125 C-40.24696463 399.47716117 -40.01989233 394.58196228 -40.19946289 389.62451172 C-40.23942383 388.54086334 -40.27938477 387.45721497 -40.32055664 386.34072876 C-40.35914795 385.13903046 -40.39773926 383.93733215 -40.4375 382.69921875 C-40.45866882 382.05253613 -40.47983765 381.4058535 -40.50164795 380.73957443 C-40.67208538 375.4791548 -40.82053697 370.21822375 -40.96484375 364.95703125 C-40.98735577 364.15780746 -41.00986778 363.35858368 -41.03306198 362.53514099 C-42.37539211 314.51589439 -42.0458148 266.46536167 -41.92865181 218.43246651 C-41.91418011 212.48083013 -41.90254612 206.52918877 -41.89130127 200.57754552 C-41.88334869 196.5767071 -41.8730969 192.57590094 -41.85745239 188.57508469 C-41.7338095 168.16046626 -41.7338095 168.16046626 -42.52920914 147.76635838 C-43.15256924 137.77145623 -43.10807627 127.7610072 -43.140625 117.75 C-43.14470053 116.66851496 -43.14877605 115.58702991 -43.15297508 114.4727726 C-43.17365718 108.74527823 -43.18803338 103.01780653 -43.19750977 97.2902832 C-43.2063413 92.62934184 -43.22717471 87.9687013 -43.2590332 83.30786133 C-43.66663674 22.37491023 -43.66663674 22.37491023 -37.90234375 5.08203125 C-34.09966346 2.54691106 -31.89688114 2.99055541 -27.47265625 3.20703125 C-24.88301732 3.22630975 -24.88301732 3.22630975 -22.59765625 2.125 C-18.99717174 0.73176904 -15.46700429 0.57224975 -11.65234375 0.39453125 C-10.51671997 0.34135742 -10.51671997 0.34135742 -9.3581543 0.28710938 C-6.23947057 0.16111549 -3.11993269 0.08818114 0 0 Z M65.34765625 30.76953125 C64.68178497 30.8578421 64.0159137 30.94615295 63.3298645 31.03713989 C45.27836562 33.44413168 26.98700788 35.98185659 10.09765625 43.08203125 C9.92877002 45.79024251 9.76248024 48.49857222 9.59765625 51.20703125 C9.54996094 51.96757813 9.50226563 52.728125 9.453125 53.51171875 C9.24984626 56.88033786 9.09868621 60.19712933 9.12890625 63.57421875 C9.09765625 66.08203125 9.09765625 66.08203125 8.09765625 67.08203125 C7.752507 70.04972478 7.48932746 72.97934333 7.28515625 75.95703125 C7.20845703 76.78589844 7.13175781 77.61476562 7.05273438 78.46875 C6.90051647 80.73918097 6.80134458 82.82503737 7.09765625 85.08203125 C8.9335814 87.02979265 8.9335814 87.02979265 11.09765625 88.08203125 C11.59765625 90.89453125 11.59765625 90.89453125 11.09765625 94.08203125 C10.10378906 95.35433594 10.10378906 95.35433594 9.08984375 96.65234375 C6.38891397 101.30217973 6.57842286 104.86523091 6.72265625 110.14453125 C6.73699707 111.15080566 6.75133789 112.15708008 6.76611328 113.19384766 C6.83851095 116.82499301 6.95867304 120.45296582 7.09765625 124.08203125 C7.12641846 124.83792542 7.15518066 125.59381958 7.18481445 126.37261963 C7.41383362 132.23583584 7.68446946 138.09645509 7.97265625 143.95703125 C8.03105682 145.20868576 8.03105682 145.20868576 8.09063721 146.48562622 C8.20491574 148.87000944 8.33263945 151.25326997 8.46484375 153.63671875 C8.49829895 154.35962601 8.53175415 155.08253326 8.56622314 155.8273468 C8.71690264 159.90196285 8.71690264 159.90196285 11.09765625 163.08203125 C10.80471526 165.08834545 10.45982152 167.08705069 10.09765625 169.08203125 C9.94027997 172.35365804 9.95742783 175.62349856 9.96484375 178.8984375 C9.96388702 179.83251938 9.9629303 180.76660126 9.96194458 181.72898865 C9.96126632 183.69652372 9.96309584 185.66406107 9.96728516 187.6315918 C9.97264445 190.63790926 9.96732502 193.64407774 9.9609375 196.65039062 C9.96159823 198.56640658 9.96287927 200.48242244 9.96484375 202.3984375 C9.96281952 203.29438126 9.96079529 204.19032501 9.95870972 205.11341858 C9.97414465 209.23220359 10.05539429 213.06564839 11.09765625 217.08203125 C13.71923048 215.48609509 13.71923048 215.48609509 16.09765625 213.08203125 C16.26435898 210.04029231 16.26435898 210.04029231 16.09765625 207.08203125 C19.76838311 202.21295713 26.66259583 200.39395993 32.09765625 198.08203125 C32.70834961 197.8195459 33.31904297 197.55706055 33.94824219 197.28662109 C52.88261758 189.28051118 78.58834187 182.40012877 98.52734375 189.921875 C105.36499567 193.00817077 108.91687811 196.37792963 112.09765625 203.08203125 C112.82177251 205.04658556 113.49861034 207.02441493 114.17504883 209.00585938 C116.75837326 216.52160897 118.9830681 221.84215676 126.09765625 226.08203125 C126.77570313 226.50871094 127.45375 226.93539062 128.15234375 227.375 C134.50104491 230.78190374 141.04791866 230.88159818 148.09765625 230.08203125 C152.40003911 228.67867157 156.28482721 226.6823605 160.28515625 224.58203125 C202.48046357 203.80413218 202.48046357 203.80413218 220.75390625 208.91796875 C225.28039977 211.1661272 229.10431905 214.5043528 233.0234375 217.66015625 C238.55796077 222.02026353 243.55343883 224.84974376 250.76953125 224.45703125 C254.18026375 223.90765152 257.08741807 222.88762691 260.19921875 221.390625 C262.54540447 220.33136325 264.53337237 219.68729683 266.99609375 219.0546875 C271.53605091 217.65067172 275.23060851 215.9979989 278.09765625 212.08203125 C280.68137622 204.31001087 280.151823 195.71216032 280.10888672 187.60058594 C280.07046761 180.19931759 280.29391209 172.8009817 280.47335815 165.4024353 C280.53543348 162.75771995 280.5895242 160.1129229 280.64282227 157.46801758 C281.1521609 133.9095058 283.81972562 110.67863529 287.23046875 87.375 C288.0581476 81.62448498 288.64205453 75.87312207 289.09765625 70.08203125 C288.03289062 69.94667969 286.968125 69.81132813 285.87109375 69.671875 C273.65053531 67.93194609 263.96498399 64.34221432 253.78515625 57.08203125 C244.38502071 50.58100293 232.6107637 45.31876254 221.09765625 47.08203125 C219.83824219 47.24574219 218.57882812 47.40945312 217.28125 47.578125 C208.74470459 48.90803892 200.65825058 51.15224826 192.5234375 54.01953125 C170.55934086 61.72705128 149.15667919 68.53218877 126.09765625 60.08203125 C122.6875 58.14453125 122.6875 58.14453125 120.03515625 56.08203125 C119.13667969 55.40140625 118.23820312 54.72078125 117.3125 54.01953125 C115.09765625 52.08203125 115.09765625 52.08203125 113.09765625 49.08203125 C112.43765625 49.08203125 111.77765625 49.08203125 111.09765625 49.08203125 C110.82566406 48.51355469 110.55367188 47.94507812 110.2734375 47.359375 C106.34494198 39.75036208 101.56428242 31.84258978 93.09765625 29.08203125 C83.83542009 28.24373619 74.5176618 29.53257111 65.34765625 30.76953125 Z " fill="#000000" transform="translate(101.90234375,44.91796875)"/>
<path d="M0 0 C0.33 0 0.66 0 1 0 C1.36361939 1.94948881 1.66307991 3.91096861 1.9375 5.875 C2.11152344 6.96554688 2.28554687 8.05609375 2.46484375 9.1796875 C1.87176653 14.05388519 -0.12666883 16.42628367 -3.03344727 20.28759766 C-6.33108928 24.83592823 -8.84662498 29.77630015 -11.4375 34.75 C-11.97826172 35.75160156 -12.51902344 36.75320312 -13.07617188 37.78515625 C-13.8409082 39.24501953 -13.8409082 39.24501953 -14.62109375 40.734375 C-15.30836548 42.03713379 -15.30836548 42.03713379 -16.00952148 43.36621094 C-17.1679575 46.44661707 -17.31970484 48.73393412 -17 52 C-15.12037371 54.23088236 -15.12037371 54.23088236 -12.203125 54.65625 C-9.01104432 54.34023295 -9.01104432 54.34023295 -7.60742188 52.3984375 C-6.21209373 50.14428592 -4.96397031 47.85675101 -3.75 45.5 C-2.89686087 43.90290323 -2.03779956 42.30895097 -1.171875 40.71875 C-0.8015918 40.00654297 -0.43130859 39.29433594 -0.04980469 38.56054688 C0.29663086 38.04556641 0.64306641 37.53058594 1 37 C1.66 37 2.32 37 3 37 C3.7932352 46.32995688 3.83339224 52.2601034 -1.85546875 59.9765625 C-4.52021747 63.73342135 -6.62171775 67.67229012 -8.75 71.75 C-9.12632568 72.45946777 -9.50265137 73.16893555 -9.89038086 73.89990234 C-15.14683588 83.39815536 -15.14683588 83.39815536 -15 94 C-12.14921909 94.76716851 -12.14921909 94.76716851 -9 95 C-6.6009415 93.10045112 -5.33370195 91.01119081 -4.02734375 88.27734375 C-3.51397461 87.22256836 -3.51397461 87.22256836 -2.99023438 86.14648438 C-2.64283203 85.41751953 -2.29542969 84.68855469 -1.9375 83.9375 C-1.24198901 82.48649817 -0.54291909 81.03719544 0.16015625 79.58984375 C0.61853882 78.62872681 0.61853882 78.62872681 1.08618164 77.64819336 C2 76 2 76 4 74 C4.20551227 77.81168802 4.32835651 81.62193255 4.4375 85.4375 C4.49615234 86.50677734 4.55480469 87.57605469 4.61523438 88.67773438 C4.79651097 97.14594109 2.52800641 100.83683218 -3 107 C-4.50292231 109.29512803 -5.75430938 111.64331947 -7.0625 114.0625 C-9.97061156 119.32682912 -12.96413389 124.50329105 -17 129 C-17.33 129 -17.66 129 -18 129 C-18.01030746 128.21994598 -18.02061493 127.43989197 -18.03123474 126.63619995 C-18.16291102 116.71574744 -18.29854059 106.79535309 -18.4375 96.875 C-18.44852123 96.08799839 -18.45954247 95.30099678 -18.47089767 94.49014664 C-18.81072542 70.32154958 -19.23354062 46.15948971 -20 22 C-19.06430176 21.57058105 -18.12860352 21.14116211 -17.16455078 20.69873047 C-14.31796573 19.17068397 -13.10353627 18.40513076 -11.3671875 15.8203125 C-10.95339844 15.22089844 -10.53960937 14.62148437 -10.11328125 14.00390625 C-9.70464844 13.38386719 -9.29601562 12.76382813 -8.875 12.125 C-8.04034418 10.89756498 -7.20442584 9.67098743 -6.3671875 8.4453125 C-5.97112305 7.86168945 -5.57505859 7.27806641 -5.16699219 6.67675781 C-3.55142263 4.35547503 -1.83817941 2.14862749 0 0 Z " fill="#FBFBFB" transform="translate(96,163)"/>
<path d="M0 0 C1.83025259 5.71093854 0.81624914 11.39937112 -1 17 C-3.9145578 21.13116087 -7.36470202 24.50452117 -11 28 C-12.14396134 29.29600683 -13.27251218 30.60603394 -14.375 31.9375 C-16.00860127 33.90619896 -17.43414589 35.35622227 -19.4375 37 C-21.4137691 39.07154661 -21.4137691 39.07154661 -20.75 42.75 C-20.5025 43.8225 -20.255 44.895 -20 46 C-17.14022317 46.55952155 -15.77414569 46.74726108 -13 46 C-10.13010401 43.8349167 -7.60712801 41.48250597 -5.0390625 38.96875 C-3 37 -3 37 -2 37 C-0.98109313 42.01528606 -1.19098251 45.66175024 -3.875 50.1015625 C-5.98866816 52.91906748 -8.26234345 55.60014448 -10.55371094 58.27392578 C-13.43943169 61.71789029 -16.08031686 65.35645479 -18.77490234 68.95043945 C-21.77968986 72.88984493 -21.77968986 72.88984493 -24 74 C-24.20334246 67.00791283 -24.34314504 60.01659125 -24.43945312 53.0222168 C-24.47961093 50.64464833 -24.53415065 48.26727652 -24.60351562 45.89038086 C-24.70090282 42.46679146 -24.7460045 39.04581853 -24.78125 35.62109375 C-24.82254028 34.56353378 -24.86383057 33.50597382 -24.90637207 32.41636658 C-24.91076566 25.14149446 -24.91076566 25.14149446 -22.27165222 21.83380127 C-20.25728383 20.07254972 -18.18134198 18.54530773 -16 17 C-14.01192465 15.03764178 -12.16442106 12.9656131 -10.3125 10.875 C-6.97088236 7.14280367 -3.57090473 3.51299817 0 0 Z " fill="#F9F9F9" transform="translate(99,93)"/>
<path d="M0 0 C0.33 0 0.66 0 1 0 C1.66 4.95 2.32 9.9 3 15 C1.35 15.99 -0.3 16.98 -2 18 C-7.50105598 23.86954777 -11.14977219 31.66495299 -14.9375 38.6875 C-15.43459473 39.59032715 -15.93168945 40.4931543 -16.44384766 41.42333984 C-19.12503406 46.51468681 -20.85630898 50.21801991 -20 56 C-18.06596127 58.30986777 -18.06596127 58.30986777 -14.6875 58.625 C-10.7579026 58.37613249 -10.7579026 58.37613249 -8.5625 55 C-7.67070863 53.35315859 -6.82454596 51.68151789 -6 50 C-5.32889312 48.65846964 -4.65694846 47.3173582 -3.984375 45.9765625 C-2.89905938 43.8103302 -1.82079433 41.64214975 -0.76586914 39.4609375 C1.79015549 34.20984451 1.79015549 34.20984451 4 32 C5.07072037 36.28288148 6.10688882 40.66533049 5 45 C3.16251372 47.54485571 1.16758425 49.70756838 -1.0546875 51.921875 C-4.8356361 55.96096065 -5.37008429 59.54073051 -6 65 C-8.81256281 65.02684312 -11.62487241 65.04676188 -14.4375 65.0625 C-15.23994141 65.07087891 -16.04238281 65.07925781 -16.86914062 65.08789062 C-18.91295221 65.0965143 -20.95683902 65.0522815 -23 65 C-24.69592525 63.30407475 -24.2293366 61.10924617 -24.31640625 58.78515625 C-24.35830078 57.70556641 -24.40019531 56.62597656 -24.44335938 55.51367188 C-24.48267578 54.37478516 -24.52199219 53.23589844 -24.5625 52.0625 C-24.60568359 50.95841797 -24.64886719 49.85433594 -24.69335938 48.71679688 C-24.93810645 42.13970484 -25.0430159 35.58143345 -25 29 C-22.03 29 -19.06 29 -16 29 C-15.72542969 28.29230469 -15.45085937 27.58460938 -15.16796875 26.85546875 C-11.80414311 18.63153383 -7.66938043 11.12511502 -2.41796875 3.9609375 C-0.9619935 2.05874189 -0.9619935 2.05874189 0 0 Z " fill="#F7F7F7" transform="translate(102,370)"/>
<path d="M0 0 C0.33 0 0.66 0 1 0 C2.66918384 20.30412343 2.66918384 20.30412343 -3 27.5 C-4.66614503 29.33380742 -6.33281798 31.1671353 -8 33 C-9.46764662 35.21708319 -10.88510239 37.4682246 -12.25 39.75 C-13.22066406 41.35681641 -13.22066406 41.35681641 -14.2109375 42.99609375 C-15.32229292 44.86210318 -16.43198232 46.72910721 -17.5390625 48.59765625 C-18.64364709 50.42894123 -19.81370495 52.22055743 -21 54 C-21.66 54 -22.32 54 -23 54 C-23 41.79 -23 29.58 -23 17 C-22.01 17.99 -21.02 18.98 -20 20 C-17.04277665 20.66159439 -17.04277665 20.66159439 -14 20 C-11.74302173 17.9265899 -11.74302173 17.9265899 -10 15.0625 C-9.32839844 14.06734375 -8.65679687 13.0721875 -7.96484375 12.046875 C-7.31644531 11.04140625 -6.66804688 10.0359375 -6 9 C-4.85563625 7.26986041 -3.70996848 5.54058202 -2.5625 3.8125 C-2.08941406 3.07644531 -1.61632812 2.34039062 -1.12890625 1.58203125 C-0.75636719 1.05996094 -0.38382813 0.53789062 0 0 Z " fill="#FCFCFC" transform="translate(100,328)"/>
<path d="M0 0 C0.33 0 0.66 0 1 0 C1.23467265 3.97815278 1.37518319 7.95450637 1.5 11.9375 C1.60054687 13.61295898 1.60054687 13.61295898 1.703125 15.32226562 C1.84844174 21.51639162 1.49881464 25.21152576 -2.73828125 29.91015625 C-4.15108833 31.28148384 -5.57106899 32.64548188 -7 34 C-8.6911614 36.10044454 -10.16319249 38.26848143 -11.6875 40.5 C-12.06124756 41.0468042 -12.43499512 41.5936084 -12.82006836 42.15698242 C-15.83292974 46.6210376 -18.5380643 51.21221549 -21 56 C-21.33 56 -21.66 56 -22 56 C-22.02476851 51.80078534 -22.04289246 47.60160971 -22.05493164 43.40234375 C-22.05995206 41.97460184 -22.06676972 40.54686504 -22.07543945 39.11914062 C-22.08760553 37.06378921 -22.09325128 35.00850593 -22.09765625 32.953125 C-22.10289307 31.71723633 -22.10812988 30.48134766 -22.11352539 29.20800781 C-22.02071737 26.5854329 -21.78356673 24.48355406 -21 22 C-19.4840625 22.061875 -19.4840625 22.061875 -17.9375 22.125 C-15.15354583 21.72169074 -14.16662804 21.17871315 -12.22265625 19.09375 C-10.37758749 16.44956983 -8.67297272 13.75635153 -7 11 C-5.71125313 8.95648903 -4.41966896 6.91476416 -3.125 4.875 C-2.55007812 3.94429688 -1.97515625 3.01359375 -1.3828125 2.0546875 C-0.92648438 1.37664062 -0.47015625 0.69859375 0 0 Z " fill="#FBFBFB" transform="translate(99,286)"/>
<path d="M0 0 C0.51099618 3.1298516 0.64460091 5.88193046 0 9 C-1.73681309 11.12129843 -3.61585424 12.60323984 -5.79296875 14.265625 C-7.96082727 15.96921648 -9.60807238 17.70399449 -11.375 19.8125 C-15.62658677 24.82996153 -20.31449291 29.39158535 -25 34 C-25.66 34.66 -26.32 35.32 -27 36 C-27 29.73 -27 23.46 -27 17 C-24.03 16.01 -21.06 15.02 -18 14 C-15.71921972 12.77521434 -15.71921972 12.77521434 -14 11.3125 C-13.35933594 10.80074219 -12.71867187 10.28898437 -12.05859375 9.76171875 C-8.9184092 7.07438814 -5.83293325 4.33067985 -2.78515625 1.5390625 C-1 0 -1 0 0 0 Z " fill="#FBFBFB" transform="translate(102,64)"/>
</svg>
