<?xml version="1.0" encoding="UTF-8"?>
<svg version="1.1" xmlns="http://www.w3.org/2000/svg" width="500" height="500">
<path d="M0 0 C2.8514509 3.69987579 3.41826456 6.67441996 3.625 11.27734375 C3.68985596 12.50211426 3.75471191 13.72688477 3.8215332 14.98876953 C3.90987427 16.94339111 3.90987427 16.94339111 4 18.9375 C4.14948907 21.66342884 4.31317908 24.38839188 4.48046875 27.11328125 C4.54212471 28.12911285 4.54212471 28.12911285 4.60502625 29.16546631 C5.47468509 42.98506375 7.60590602 56.31606846 11.16552734 69.6875 C12.60171206 75.14349354 13.64683175 80.54090549 14.4375 86.125 C15.56705694 94.01424927 17.19666818 101.7378087 19 109.5 C19.24935303 110.5739502 19.49870605 111.64790039 19.75561523 112.75439453 C20.9013048 117.60544482 22.11388457 122.4022199 23.53515625 127.1796875 C25.65377393 134.84640938 26.45443279 142.75068866 27.4375 150.625 C27.82695358 153.70119027 28.22286267 156.77649753 28.62109375 159.8515625 C28.72166077 160.64826355 28.82222778 161.4449646 28.92584229 162.26580811 C29.51633574 166.81009849 30.21966625 171.31144917 31.05566406 175.81738281 C33.71483236 190.37492237 34.4547267 204.25106269 33.984375 219.03564453 C33.87331008 222.5535267 33.79743568 226.07094189 33.7265625 229.58984375 C33.67126667 231.86202861 33.6140484 234.1341677 33.5546875 236.40625 C33.53058807 237.44068237 33.50648865 238.47511475 33.48165894 239.54089355 C33.00531664 253.77760145 29.03990232 263.0831688 20 274 C19.4534375 274.69351562 18.906875 275.38703125 18.34375 276.1015625 C10.4644305 285.72771227 -0.07246536 290.77061885 -11.05761719 296.05224609 C-13.89976224 297.43902426 -16.69465987 298.91551292 -19.5 300.375 C-29.31138245 305.20845213 -39.7859235 307.04749707 -50.6640625 304.3359375 C-67.903706 296.78278266 -82.99465822 278.63596443 -90.96411133 262.12280273 C-92.97893374 257.96203836 -95.15456931 254.04060537 -97.625 250.125 C-106.3768959 235.24677697 -112 214.16679706 -112 197 C-112.54527344 197.20496094 -113.09054687 197.40992188 -113.65234375 197.62109375 C-114.40644531 197.89050781 -115.16054688 198.15992188 -115.9375 198.4375 C-116.66839844 198.70433594 -117.39929688 198.97117187 -118.15234375 199.24609375 C-125.4256483 201.17167369 -133.01439845 201.17280049 -140.49487305 201.28125 C-141.5044809 201.29929687 -142.51408875 201.31734375 -143.55429077 201.3359375 C-145.73452784 201.37434903 -147.91479968 201.41082637 -150.0950985 201.44555664 C-153.5674476 201.50088803 -157.03967562 201.56135025 -160.51191711 201.62304688 C-166.65347796 201.73134206 -172.79510479 201.8351656 -178.93676758 201.9375 C-188.71781468 202.10048562 -198.49879014 202.26710997 -208.27967262 202.43969727 C-211.66123818 202.49825986 -215.04285005 202.55299131 -218.42448425 202.60742188 C-229.54684836 202.79608001 -240.650057 203.09598689 -251.75992107 203.6697998 C-255.66695954 203.86877209 -259.55100667 204.02172768 -263.46366882 203.99487305 C-268.16490643 204.00168887 -271.6776544 205.31134168 -276 207 C-276.67804688 207.23976563 -277.35609375 207.47953125 -278.0546875 207.7265625 C-280.90414834 208.80249999 -282.68174248 209.48472591 -284.3125 212.125 C-284.6528125 213.053125 -284.6528125 213.053125 -285 214 C-287.9612894 215.4806447 -290.73085067 215.05837767 -294 215 C-294.66 215 -295.32 215 -296 215 C-297.41926543 216.92841895 -298.65398787 218.82232293 -299.875 220.875 C-300.45568237 221.84977295 -300.45568237 221.84977295 -301.0480957 222.84423828 C-308.79169694 236.25392624 -315.43870074 250.67526722 -320.3125 265.375 C-325.27617059 280.31953805 -335.70587435 296.91341016 -349.5 305.3125 C-360.33663892 310.53730805 -372.43909465 311.19513877 -384 308 C-387.32319301 306.24777096 -389.51281654 304.49252734 -392.13671875 301.83984375 C-394.3435482 299.61256934 -396.63330512 297.49902382 -398.9609375 295.3984375 C-412.99144596 282.67746422 -420.33162982 271.00541116 -426 253 C-426.34321289 251.91138672 -426.34321289 251.91138672 -426.69335938 250.80078125 C-435.51849485 221.41986868 -428.70012749 188.15788211 -422 159 C-421.72075684 157.77071777 -421.44151367 156.54143555 -421.15380859 155.27490234 C-419.39949847 147.5583952 -417.60039415 139.85381367 -415.75634766 132.15820312 C-415.31411026 130.31159789 -414.87484232 128.46426809 -414.44287109 126.61523438 C-409.88688974 107.1597026 -401.96067732 88.58785391 -394.25 70.21142578 C-391.54715116 63.76422337 -388.90698605 57.31370588 -386.5 50.75 C-382.96932319 41.14327471 -378.63143615 32.12392922 -374 23 C-374.804375 22.71125 -375.60875 22.4225 -376.4375 22.125 C-379 21 -379 21 -380 19 C-380.57525532 12.78724251 -380.57525532 12.78724251 -378.40600586 9.81860352 C-375.2293668 7.41750921 -373.15326239 7.41954005 -369.19140625 7.27734375 C-368.51117905 7.24572647 -367.83095184 7.21410919 -367.13011169 7.18153381 C-364.94122587 7.08229373 -362.75247946 7.0081445 -360.5625 6.9375 C-357.75071049 6.83360552 -354.93977066 6.71627333 -352.12890625 6.58984375 C-351.36687393 6.5569072 -350.60484161 6.52397064 -349.81971741 6.49003601 C-343.90165235 6.19415679 -338.050126 5.57958087 -332.16513062 4.89767456 C-314.69501553 2.89347495 -297.40820153 2.44518456 -279.84313202 2.32943344 C-276.56085937 2.30632925 -273.27868407 2.27484607 -269.99647903 2.24374485 C-261.50466999 2.16373742 -253.01283826 2.10375384 -244.5208168 2.05184269 C-238.81431237 2.01555847 -233.1081339 1.96346108 -227.40185547 1.90136719 C-167.03736072 1.25187376 -167.03736072 1.25187376 -139.09472656 5.42236328 C-130.92663787 6.60509215 -122.71580615 7.41840118 -114.5 8.1875 C-113.58706177 8.27380676 -112.67412354 8.36011353 -111.73352051 8.44903564 C-88.48425212 10.56512285 -65.12580637 10.56359753 -41.79746819 10.66174793 C-38.60800509 10.67578541 -35.41859022 10.69593166 -32.22916031 10.71602058 C-30.00629527 10.72635169 -27.78364348 10.72505637 -25.5607605 10.7230072 C-24.21286777 10.72972789 -22.86497722 10.73690843 -21.51708984 10.74462891 C-19.76662857 10.74651718 -19.76662857 10.74651718 -17.98080444 10.7484436 C-15.07059349 10.99404247 -13.40816857 11.38642893 -11 13 C-10.67 13.66 -10.34 14.32 -10 15 C-9.96261719 14.16855469 -9.92523438 13.33710938 -9.88671875 12.48046875 C-9.78810547 10.85044922 -9.78810547 10.85044922 -9.6875 9.1875 C-9.62949219 8.10855469 -9.57148438 7.02960938 -9.51171875 5.91796875 C-9 3 -9 3 -7.64453125 1.14453125 C-4.99940872 -0.69637351 -3.11406053 -0.51901009 0 0 Z " fill="#FEFEFE" transform="translate(458,147)"/>
<path d="M0 0 C2.8514509 3.69987579 3.41826456 6.67441996 3.625 11.27734375 C3.68985596 12.50211426 3.75471191 13.72688477 3.8215332 14.98876953 C3.90987427 16.94339111 3.90987427 16.94339111 4 18.9375 C4.14948907 21.66342884 4.31317908 24.38839188 4.48046875 27.11328125 C4.54212471 28.12911285 4.54212471 28.12911285 4.60502625 29.16546631 C5.47468509 42.98506375 7.60590602 56.31606846 11.16552734 69.6875 C12.60171206 75.14349354 13.64683175 80.54090549 14.4375 86.125 C15.56705694 94.01424927 17.19666818 101.7378087 19 109.5 C19.24935303 110.5739502 19.49870605 111.64790039 19.75561523 112.75439453 C20.9013048 117.60544482 22.11388457 122.4022199 23.53515625 127.1796875 C25.65377393 134.84640938 26.45443279 142.75068866 27.4375 150.625 C27.82695358 153.70119027 28.22286267 156.77649753 28.62109375 159.8515625 C28.72166077 160.64826355 28.82222778 161.4449646 28.92584229 162.26580811 C29.51633574 166.81009849 30.21966625 171.31144917 31.05566406 175.81738281 C33.71483236 190.37492237 34.4547267 204.25106269 33.984375 219.03564453 C33.87331008 222.5535267 33.79743568 226.07094189 33.7265625 229.58984375 C33.67126667 231.86202861 33.6140484 234.1341677 33.5546875 236.40625 C33.53058807 237.44068237 33.50648865 238.47511475 33.48165894 239.54089355 C33.00531664 253.77760145 29.03990232 263.0831688 20 274 C19.4534375 274.69351562 18.906875 275.38703125 18.34375 276.1015625 C10.4644305 285.72771227 -0.07246536 290.77061885 -11.05761719 296.05224609 C-13.89976224 297.43902426 -16.69465987 298.91551292 -19.5 300.375 C-29.31138245 305.20845213 -39.7859235 307.04749707 -50.6640625 304.3359375 C-67.903706 296.78278266 -82.99465822 278.63596443 -90.96411133 262.12280273 C-92.97893374 257.96203836 -95.15456931 254.04060537 -97.625 250.125 C-106.3768959 235.24677697 -112 214.16679706 -112 197 C-112.54527344 197.20496094 -113.09054687 197.40992188 -113.65234375 197.62109375 C-114.40644531 197.89050781 -115.16054688 198.15992188 -115.9375 198.4375 C-116.66839844 198.70433594 -117.39929688 198.97117187 -118.15234375 199.24609375 C-125.4256483 201.17167369 -133.01439845 201.17280049 -140.49487305 201.28125 C-141.5044809 201.29929687 -142.51408875 201.31734375 -143.55429077 201.3359375 C-145.73452784 201.37434903 -147.91479968 201.41082637 -150.0950985 201.44555664 C-153.5674476 201.50088803 -157.03967562 201.56135025 -160.51191711 201.62304688 C-166.65347796 201.73134206 -172.79510479 201.8351656 -178.93676758 201.9375 C-188.71781468 202.10048562 -198.49879014 202.26710997 -208.27967262 202.43969727 C-211.66123818 202.49825986 -215.04285005 202.55299131 -218.42448425 202.60742188 C-229.54684836 202.79608001 -240.650057 203.09598689 -251.75992107 203.6697998 C-255.66695954 203.86877209 -259.55100667 204.02172768 -263.46366882 203.99487305 C-268.16490643 204.00168887 -271.6776544 205.31134168 -276 207 C-276.67804688 207.23976563 -277.35609375 207.47953125 -278.0546875 207.7265625 C-280.90414834 208.80249999 -282.68174248 209.48472591 -284.3125 212.125 C-284.6528125 213.053125 -284.6528125 213.053125 -285 214 C-287.9612894 215.4806447 -290.73085067 215.05837767 -294 215 C-294.66 215 -295.32 215 -296 215 C-297.41926543 216.92841895 -298.65398787 218.82232293 -299.875 220.875 C-300.45568237 221.84977295 -300.45568237 221.84977295 -301.0480957 222.84423828 C-308.79169694 236.25392624 -315.43870074 250.67526722 -320.3125 265.375 C-325.27617059 280.31953805 -335.70587435 296.91341016 -349.5 305.3125 C-360.33663892 310.53730805 -372.43909465 311.19513877 -384 308 C-387.32319301 306.24777096 -389.51281654 304.49252734 -392.13671875 301.83984375 C-394.3435482 299.61256934 -396.63330512 297.49902382 -398.9609375 295.3984375 C-412.99144596 282.67746422 -420.33162982 271.00541116 -426 253 C-426.34321289 251.91138672 -426.34321289 251.91138672 -426.69335938 250.80078125 C-435.51849485 221.41986868 -428.70012749 188.15788211 -422 159 C-421.72075684 157.77071777 -421.44151367 156.54143555 -421.15380859 155.27490234 C-419.39949847 147.5583952 -417.60039415 139.85381367 -415.75634766 132.15820312 C-415.31411026 130.31159789 -414.87484232 128.46426809 -414.44287109 126.61523438 C-409.88688974 107.1597026 -401.96067732 88.58785391 -394.25 70.21142578 C-391.54715116 63.76422337 -388.90698605 57.31370588 -386.5 50.75 C-382.96932319 41.14327471 -378.63143615 32.12392922 -374 23 C-374.804375 22.71125 -375.60875 22.4225 -376.4375 22.125 C-379 21 -379 21 -380 19 C-380.57525532 12.78724251 -380.57525532 12.78724251 -378.40600586 9.81860352 C-375.2293668 7.41750921 -373.15326239 7.41954005 -369.19140625 7.27734375 C-368.51117905 7.24572647 -367.83095184 7.21410919 -367.13011169 7.18153381 C-364.94122587 7.08229373 -362.75247946 7.0081445 -360.5625 6.9375 C-357.75071049 6.83360552 -354.93977066 6.71627333 -352.12890625 6.58984375 C-351.36687393 6.5569072 -350.60484161 6.52397064 -349.81971741 6.49003601 C-343.90165235 6.19415679 -338.050126 5.57958087 -332.16513062 4.89767456 C-314.69501553 2.89347495 -297.40820153 2.44518456 -279.84313202 2.32943344 C-276.56085937 2.30632925 -273.27868407 2.27484607 -269.99647903 2.24374485 C-261.50466999 2.16373742 -253.01283826 2.10375384 -244.5208168 2.05184269 C-238.81431237 2.01555847 -233.1081339 1.96346108 -227.40185547 1.90136719 C-167.03736072 1.25187376 -167.03736072 1.25187376 -139.09472656 5.42236328 C-130.92663787 6.60509215 -122.71580615 7.41840118 -114.5 8.1875 C-113.58706177 8.27380676 -112.67412354 8.36011353 -111.73352051 8.44903564 C-88.48425212 10.56512285 -65.12580637 10.56359753 -41.79746819 10.66174793 C-38.60800509 10.67578541 -35.41859022 10.69593166 -32.22916031 10.71602058 C-30.00629527 10.72635169 -27.78364348 10.72505637 -25.5607605 10.7230072 C-24.21286777 10.72972789 -22.86497722 10.73690843 -21.51708984 10.74462891 C-19.76662857 10.74651718 -19.76662857 10.74651718 -17.98080444 10.7484436 C-15.07059349 10.99404247 -13.40816857 11.38642893 -11 13 C-10.67 13.66 -10.34 14.32 -10 15 C-9.96261719 14.16855469 -9.92523438 13.33710938 -9.88671875 12.48046875 C-9.78810547 10.85044922 -9.78810547 10.85044922 -9.6875 9.1875 C-9.62949219 8.10855469 -9.57148438 7.02960938 -9.51171875 5.91796875 C-9 3 -9 3 -7.64453125 1.14453125 C-4.99940872 -0.69637351 -3.11406053 -0.51901009 0 0 Z M-229.93945312 19.49291992 C-238.66895706 19.98006252 -247.37788287 20.17295908 -256.11973953 20.22979546 C-258.62956134 20.24670342 -261.13926125 20.26993364 -263.64901733 20.29469299 C-270.76887581 20.36418363 -277.88877652 20.4254336 -285.00878906 20.47680664 C-289.40746948 20.50898053 -293.8059911 20.55031597 -298.20454025 20.59700203 C-299.85394783 20.61275806 -301.50339128 20.6251969 -303.1528511 20.63390923 C-312.9690738 20.68657713 -322.53679103 21.23297045 -332.2702179 22.53538513 C-337.69276829 23.21086629 -343.10460016 23.44810655 -348.5625 23.625 C-350.09293945 23.68300781 -350.09293945 23.68300781 -351.65429688 23.7421875 C-354.10271445 23.83414685 -356.55116357 23.92013605 -359 24 C-362.08812029 29.92961722 -364.83263571 35.77917768 -366.9375 42.125 C-371.43565011 55.44278584 -376.56711774 68.49355272 -381.86181641 81.51074219 C-391.02994164 104.06229762 -398.67624037 125.94121991 -403.5234375 149.8515625 C-404.47361725 154.53377358 -405.49484402 159.18825516 -406.6015625 163.8359375 C-411.34720865 183.84672128 -414.96653881 204.35365706 -414 225 C-414.01546875 226.02222656 -414.0309375 227.04445313 -414.046875 228.09765625 C-413.9293399 236.31531897 -411.85939694 243.47769578 -409.3125 251.25 C-408.82233398 252.75892822 -408.82233398 252.75892822 -408.32226562 254.29833984 C-404.57797951 265.17502564 -399.56188408 273.20274934 -390.9375 280.8125 C-389.5502217 282.06839261 -388.16349038 283.32488972 -386.77734375 284.58203125 C-385.80293335 285.45589478 -385.80293335 285.45589478 -384.80883789 286.34741211 C-383.20055642 287.81676793 -381.64828234 289.318208 -380.1171875 290.8671875 C-376.82080446 294.18789809 -375.0794283 294.90694584 -370.375 295.3125 C-362.66226838 295.0263133 -356.8513568 293.27264612 -351.25 287.8125 C-349.80659383 286.23235008 -348.38793854 284.62908617 -347 283 C-346.45601563 282.38125 -345.91203125 281.7625 -345.3515625 281.125 C-338.73054197 272.99760971 -334.62489554 263.02214228 -331.0625 253.25 C-326.19807277 239.92793814 -320.39576738 227.36947832 -313.4375 215 C-312.90761475 214.05697021 -312.37772949 213.11394043 -311.83178711 212.14233398 C-302.32388974 195.54925983 -302.32388974 195.54925983 -297 192 C-294.73828125 191.8046875 -294.73828125 191.8046875 -292.3125 191.875 C-291.50425781 191.89304687 -290.69601562 191.91109375 -289.86328125 191.9296875 C-289.24839844 191.95289063 -288.63351562 191.97609375 -288 192 C-287.67 192.99 -287.34 193.98 -287 195 C-284.88806945 194.54744345 -283.14961113 194.08514643 -281.26391602 193.01196289 C-276.02763389 190.67136228 -269.62280775 190.90083605 -263.9375 190.4375 C-263.17199829 190.37274475 -262.40649658 190.3079895 -261.61779785 190.24127197 C-244.34152506 188.80916803 -227.04621181 188.50642158 -209.71850586 188.29077148 C-207.63004225 188.26442257 -205.54158186 188.23781652 -203.453125 188.2109375 C-201.93402275 188.19154114 -201.93402275 188.19154114 -200.38423157 188.17175293 C-194.93497398 188.08892186 -189.52932462 187.88784368 -184.09375 187.49609375 C-177.29333366 187.01198438 -170.51985382 186.88699161 -163.703125 186.82421875 C-162.6120343 186.81227478 -161.5209436 186.80033081 -160.39678955 186.7880249 C-155.86982034 186.73922173 -151.34313065 186.69177429 -146.81591797 186.67407227 C-129.35883781 187.185441 -129.35883781 187.185441 -113 182 C-110.72462308 179.42816686 -110.72462308 179.42816686 -109 177 C-105.25 176.1875 -105.25 176.1875 -102 176 C-99.46576525 178.55393088 -99.00705689 179.79229221 -98.8828125 183.44921875 C-98.95836288 184.86226558 -99.03950409 186.27502004 -99.125 187.6875 C-99.67906257 206.49234433 -95.0926455 229.34904852 -84.63671875 245.23046875 C-83.32469282 247.45057946 -82.31829113 249.49864778 -81.33203125 251.86328125 C-74.8133968 267.40524713 -61.48048704 284.25975648 -46 292 C-28.67431267 293.86396283 -9.95826741 282.58739865 3.29296875 272.203125 C13.32981852 263.79705316 18.8472646 254.95516038 20 242 C20.20796315 238.88947237 20.34350493 235.77936052 20.45703125 232.6640625 C20.48906647 231.79614578 20.52110168 230.92822906 20.55410767 230.03401184 C21.18831507 211.56886675 21.11844807 194.09257665 17.67529297 175.87597656 C16.84774532 171.12610435 16.18389665 166.36302591 15.53515625 161.5859375 C15.40862167 160.6606575 15.2820871 159.7353775 15.15171814 158.78205872 C14.64339864 155.05810129 14.13651502 151.33398188 13.63864136 147.60861206 C12.09979761 136.1694114 10.00794198 125.14181085 7 114 C4.22446207 102.85367242 2.18846132 91.66346654 0.5703125 80.29321289 C-0.26486139 74.68097259 -1.42088647 69.34008689 -2.984375 63.8828125 C-5.37972361 55.19967379 -6.34046299 46.50473376 -7.25 37.5625 C-7.42340441 35.94454591 -7.59787839 34.32670608 -7.7734375 32.70898438 C-8.19457461 28.80719041 -8.60141369 24.90415934 -9 21 C-9.61875 21.804375 -10.2375 22.60875 -10.875 23.4375 C-13 26 -13 26 -15 27 C-17.27823766 27.11296553 -19.55985137 27.15943212 -21.84082031 27.17700195 C-22.54839509 27.18347402 -23.25596987 27.18994608 -23.98498631 27.19661427 C-26.34936328 27.21619596 -28.7136912 27.2277776 -31.078125 27.23828125 C-31.89497961 27.24308376 -32.71183422 27.24788628 -33.553442 27.25283432 C-39.78562097 27.28917273 -46.01772681 27.30439593 -52.25 27.3125 C-53.16170582 27.31409245 -54.07341164 27.31568489 -55.0127449 27.31732559 C-83.14642015 27.35924512 -110.91601008 26.68330284 -138.87512207 23.25964355 C-140.91825459 23.00998865 -142.9622018 22.76923586 -145.00683594 22.53222656 C-154.20887821 21.46233449 -154.20887821 21.46233449 -157.96850586 20.9519043 C-171.74048451 19.10114038 -185.59822664 18.83292766 -199.47412109 18.86962891 C-201.86692683 18.87498194 -204.25954367 18.86964378 -206.65234375 18.86328125 C-208.24479206 18.86394256 -209.83724026 18.86522481 -211.4296875 18.8671875 C-212.10949677 18.86516327 -212.78930603 18.86313904 -213.48971558 18.86105347 C-218.9856775 18.88564478 -224.45408469 19.18144891 -229.93945312 19.49291992 Z " fill="#000000" transform="translate(458,147)"/>
<path d="M0 0 C8.97725669 4.42982535 16.48284238 9.73028425 21.4375 18.5625 C23.10791782 25.80097722 21.38730316 30.77559969 17.9453125 37.1953125 C11.90795145 45.89978084 -0.8725349 49.40833293 -10.78125 51.62109375 C-15.27655862 52.1502745 -19.72691981 52.22426412 -24.25 52.25 C-25.58611328 52.2809375 -25.58611328 52.2809375 -26.94921875 52.3125 C-35.78299709 52.36378463 -44.01358999 50.6866128 -51 45 C-55.5188796 40.44335817 -58.02504728 36.2471145 -58.375 29.8125 C-58.04251366 19.24293419 -52.4106354 12.0673312 -45 5 C-31.43880185 -6.71982141 -16.47944021 -6.40467327 0 0 Z " fill="#030303" transform="translate(290,190)"/>
<path d="M0 0 C6.29576137 6.76704082 5.2676148 17.50228957 5.125 26.125 C5.11597656 27.176875 5.10695312 28.22875 5.09765625 29.3125 C5.07435853 31.87524878 5.04165112 34.43749512 5 37 C5.56920166 36.87359131 6.13840332 36.74718262 6.72485352 36.61694336 C9.33485114 36.04468939 11.948463 35.4909963 14.5625 34.9375 C15.45775391 34.73833984 16.35300781 34.53917969 17.27539062 34.33398438 C23.09399038 33.1191119 28.5624842 32.06639736 34 35.125 C35.61226473 38.14799637 34.67268829 40.7588655 34 44 C25.23196559 47.70955302 16.51483028 49.15442296 7 49 C7.9440083 58.79547441 9.05374566 68.3169193 11.4140625 77.88671875 C12.31634621 82.68085286 12.76186218 86.5676991 10.4375 90.9375 C8 93 8 93 4.5625 93.625 C0.0209258 92.8282326 -1.11473404 91.55647484 -4 88 C-5.09540951 85.288835 -5.68587596 82.55093321 -6.25 79.6875 C-6.40984375 78.96626953 -6.5696875 78.24503906 -6.734375 77.50195312 C-8.19710483 70.70635413 -9.14961818 63.96945453 -9.0625 57 C-9.05347656 56.05125 -9.04445313 55.1025 -9.03515625 54.125 C-9.02355469 53.42375 -9.01195313 52.7225 -9 52 C-9.85722656 52.2165625 -10.71445313 52.433125 -11.59765625 52.65625 C-24.17388913 55.71878247 -24.17388913 55.71878247 -29 55 C-31.88553382 53.00232274 -32.82718011 51.88570196 -33.5 48.4375 C-33 46 -33 46 -31.515625 44.484375 C-27.94317131 42.37640543 -24.28020698 41.67134179 -20.25 40.8125 C-19.45722656 40.63525391 -18.66445312 40.45800781 -17.84765625 40.27539062 C-15.90039924 39.84136346 -13.95044396 39.41947321 -12 39 C-11.98541748 38.09757568 -11.97083496 37.19515137 -11.95581055 36.26538086 C-11.89444423 32.88979993 -11.82023671 29.51499304 -11.73754883 26.13989258 C-11.70447017 24.68427006 -11.67638603 23.22852453 -11.65356445 21.77270508 C-11.61970079 19.66955564 -11.5673764 17.56751625 -11.51171875 15.46484375 C-11.48553467 14.202771 -11.45935059 12.94069824 -11.43237305 11.64038086 C-10.93435204 7.4472746 -9.924314 4.73980473 -8 1 C-5.17116253 -0.41441874 -3.12623255 -0.31900332 0 0 Z " fill="#040404" transform="translate(128,202)"/>
<path d="M0 0 C0.66 0.33 1.32 0.66 2 1 C3.95876782 0.99415293 5.91748948 0.94541405 7.875 0.875 C20.15045745 0.82092309 31.51550202 4.23600179 40.8125 12.5 C42 15 42 15 41.4375 18.125 C39.01342464 22.97315073 36.35150525 24.51145972 31.375 26.5625 C30.39273438 26.97628906 29.41046875 27.39007813 28.3984375 27.81640625 C21.12628387 30.34912182 14.18901448 31.38981205 6.5 31.375 C5.66992432 31.37411377 4.83984863 31.37322754 3.98461914 31.37231445 C-1.86369044 31.25892827 -7.23164451 30.72255428 -12 27 C-14.52672455 23.20991318 -14.44341245 21.50802658 -14 17 C-11.87054438 10.26121639 -7.24519066 5.55264385 -2 1 C-1.34 0.67 -0.68 0.34 0 0 Z " fill="#FCFCFC" transform="translate(258,199)"/>
<path d="M0 0 C4.47804528 2.28126835 6.76894555 4.5378911 9 9 C9.556875 9.928125 10.11375 10.85625 10.6875 11.8125 C12.91687095 17.2266866 12.52924678 21.32869438 10.8125 26.75 C8.84756651 30.27332902 7.50353856 32.00935309 4 34 C-1.71431403 34.98901589 -5.3312065 33.12323429 -10.1796875 30.38671875 C-12 29 -12 29 -13 26 C-14.94603274 25.40929986 -14.94603274 25.40929986 -17 25 C-19 23 -19 23 -19.375 19.4375 C-19.1687014 12.75099839 -16.53504931 7.09115208 -11.75 2.4375 C-7.70825025 -0.66954102 -4.99856808 -0.79342351 0 0 Z " fill="#020202" transform="translate(372,231)"/>
<path d="M0 0 C5.41764181 3.17554343 10.30364978 7.25560172 13 13 C13.83344797 17.36024886 13.39653463 20.22218207 11.375 24.1875 C7.65680519 28.59062543 4.80652246 31.4669278 -0.8125 33.125 C-6.03188793 33.46561265 -9.99613687 31.16383694 -14 28 C-16.7527208 25.15360022 -17.85314596 22.58130334 -18.21875 18.64453125 C-17.97195728 12.01197684 -15.48132638 6.86963804 -11 2 C-7.19998049 -0.30821498 -4.4465337 -0.65604596 0 0 Z " fill="#040404" transform="translate(399,194)"/>
<path d="M0 0 C3.63467079 1.62400184 4.77408696 2.66113044 7 6 C8.31652861 10.47619728 8.74572637 15.38784454 8 20 C6.28877683 23.07126248 4.18981183 25.40509409 1 27 C-3.75384996 27.67773828 -7.77447199 27.60415468 -11.875 24.9375 C-16.12641114 21.44562171 -17.66848396 17.32061227 -18.4375 11.9375 C-17.72591318 7.15970277 -15.42935861 4.22516452 -11.8125 1.125 C-7.82099103 -0.47160359 -4.24317135 -0.57756416 0 0 Z " fill="#030303" transform="translate(432,225)"/>
<path d="M0 0 C3.29630732 0.78925668 4.96552789 2.01294293 7.21875 4.53125 C10.00590755 9.26941783 10.76826517 13.0927675 9.91796875 18.44140625 C8.62051019 22.3192852 6.76024545 23.49816928 3.21875 25.53125 C-1.98786025 26.27505146 -5.3823266 25.36611175 -9.78125 22.53125 C-13.15858608 19.33647263 -14.61895212 16.35138295 -15.01953125 11.66015625 C-14.57183137 7.6602147 -12.35158357 4.53938764 -9.78125 1.53125 C-6.01821554 -0.97743964 -4.31709076 -0.61672725 0 0 Z " fill="#030303" transform="translate(413.78125,265.46875)"/>
<path d="M0 0 C2 3 2 3 2.1875 5.4375 C0.51724608 9.04173214 -1.56257033 9.84362729 -5.18359375 11.2734375 C-10.91511032 12.75202568 -18.05530111 13.64941948 -23.37109375 10.671875 C-25 9 -25 9 -25.25 5.8125 C-25.1675 4.884375 -25.085 3.95625 -25 3 C-22.21056983 1.60528492 -19.66849436 1.69390823 -16.5625 1.5 C-10.85854214 1.14310431 -5.73212701 -0.41688196 0 0 Z " fill="#050505" transform="translate(235,270)"/>
<path d="M0 0 C2 2 2 2 2.125 5.125 C2.08375 6.07375 2.0425 7.0225 2 8 C-4.51120342 10.70094364 -10.94310705 12.13354816 -18 11 C-20.32421875 9.4765625 -20.32421875 9.4765625 -22 8 C-21.625 5.0625 -21.625 5.0625 -21 2 C-15.40160679 -0.79919661 -6.1672815 -0.78420174 0 0 Z " fill="#080808" transform="translate(302,264)"/>
</svg>
