<?xml version="1.0" encoding="UTF-8"?>
<svg version="1.1" xmlns="http://www.w3.org/2000/svg" width="500" height="500">
<path d="M0 0 C1.51131337 0.58759864 3.0310899 1.15446775 4.5625 1.6875 C16.58526244 6.38882751 29.3914425 14.31537281 38 24 C38 24.66 38 25.32 38 26 C38.66 26 39.32 26 40 26 C41.79539556 28.0897227 43.47061442 30.17842082 45.125 32.375 C45.59292969 32.97828125 46.06085938 33.5815625 46.54296875 34.203125 C50 38.73858874 50 38.73858874 50 41 C50.66 41 51.32 41 52 41 C53.1574707 42.40527344 53.1574707 42.40527344 54.42578125 44.359375 C55.12670898 45.41511719 55.12670898 45.41511719 55.84179688 46.4921875 C56.81162898 47.98106653 57.7804035 49.47063506 58.74804688 50.9609375 C61.49266048 55.09099902 64.05750985 57.92643755 68 61 C68 61.99 68 62.98 68 64 C68.66 64 69.32 64 70 64 C88.93029379 85.88595305 94.50724188 115.13756727 98 143 C98.12992844 144.02276535 98.12992844 144.02276535 98.26248169 145.06619263 C98.88385923 150.23315537 99.17148638 155.32128982 99.203125 160.5234375 C99.21022995 161.3027916 99.2173349 162.08214569 99.22465515 162.88511658 C99.45300676 195.27295262 99.45300676 195.27295262 96 209 C95.76361816 209.96647461 95.52723633 210.93294922 95.28369141 211.92871094 C89.45834521 235.28016008 80.76840658 261.57099974 61 277 C60.22527344 277.77730469 59.45054687 278.55460937 58.65234375 279.35546875 C27.85162288 310.06546585 -28.227032 328.37381997 -71.0625 329.25 C-92.39265696 328.83415978 -113.22822617 323.86840571 -133 316 C-133.72783691 315.71286133 -134.45567383 315.42572266 -135.20556641 315.12988281 C-147.02252357 310.3887484 -157.61255606 304.35024005 -168 297 C-169.12293457 296.20770996 -169.12293457 296.20770996 -170.26855469 295.39941406 C-171.00235352 294.86799805 -171.73615234 294.33658203 -172.4921875 293.7890625 C-173.49934814 293.06130615 -173.49934814 293.06130615 -174.52685547 292.31884766 C-175.01299316 291.88362793 -175.49913086 291.4484082 -176 291 C-176 290.34 -176 289.68 -176 289 C-176.54011719 288.77570313 -177.08023438 288.55140625 -177.63671875 288.3203125 C-180.74827775 286.58195392 -183.21938422 284.28689422 -185.8125 281.875 C-186.30814453 281.42640625 -186.80378906 280.9778125 -187.31445312 280.515625 C-194.63000057 273.77439981 -200.07341354 266.83145145 -204.5625 257.9375 C-205.03574707 257.01283936 -205.50899414 256.08817871 -205.99658203 255.13549805 C-228.6699841 210.2287651 -228.80026615 160.56479099 -213.4375 113.1875 C-210.43903605 104.29530156 -206.83864076 95.71899523 -202.9375 87.1875 C-202.45531006 86.13264404 -201.97312012 85.07778809 -201.47631836 83.9909668 C-198.57908504 77.84648899 -195.33073921 72.11117305 -191.59716797 66.43554688 C-190.06249137 64.09529408 -188.6228957 61.71444092 -187.1875 59.3125 C-186.465625 58.219375 -185.74375 57.12625 -185 56 C-184.34 56 -183.68 56 -183 56 C-182.34 54.35 -181.68 52.7 -181 51 C-180.34 51 -179.68 51 -179 51 C-178.62875 50.1646875 -178.62875 50.1646875 -178.25 49.3125 C-176.15837296 45.44298998 -173.33694534 41.88190734 -170 39 C-169.34 39 -168.68 39 -168 39 C-167.75121094 38.41605469 -167.50242188 37.83210938 -167.24609375 37.23046875 C-165.81817678 34.67454214 -164.27697303 33.22263315 -162.0625 31.3125 C-161.25425781 30.61511719 -160.44601563 29.91773438 -159.61328125 29.19921875 C-155.1154506 25.41404886 -150.59057046 21.67245637 -146 18 C-145.01257813 17.2059375 -144.02515625 16.411875 -143.0078125 15.59375 C-128.21366856 3.93552186 -113.31881549 -5.52224453 -95.21484375 -11.15234375 C-92.4437853 -12.21287229 -89.95951042 -13.60717866 -87.375 -15.0625 C-59.84662514 -30.53046028 -25.15069792 -12.78753145 0 0 Z " fill="#FFFFFF" transform="translate(300,87)"/>
<path d="M0 0 C1.51131337 0.58759864 3.0310899 1.15446775 4.5625 1.6875 C16.58526244 6.38882751 29.3914425 14.31537281 38 24 C38 24.66 38 25.32 38 26 C38.66 26 39.32 26 40 26 C41.79539556 28.0897227 43.47061442 30.17842082 45.125 32.375 C45.59292969 32.97828125 46.06085938 33.5815625 46.54296875 34.203125 C50 38.73858874 50 38.73858874 50 41 C50.66 41 51.32 41 52 41 C53.1574707 42.40527344 53.1574707 42.40527344 54.42578125 44.359375 C55.12670898 45.41511719 55.12670898 45.41511719 55.84179688 46.4921875 C56.81162898 47.98106653 57.7804035 49.47063506 58.74804688 50.9609375 C61.49266048 55.09099902 64.05750985 57.92643755 68 61 C68 61.99 68 62.98 68 64 C68.66 64 69.32 64 70 64 C88.93029379 85.88595305 94.50724188 115.13756727 98 143 C98.12992844 144.02276535 98.12992844 144.02276535 98.26248169 145.06619263 C98.88385923 150.23315537 99.17148638 155.32128982 99.203125 160.5234375 C99.21022995 161.3027916 99.2173349 162.08214569 99.22465515 162.88511658 C99.45300676 195.27295262 99.45300676 195.27295262 96 209 C95.76361816 209.96647461 95.52723633 210.93294922 95.28369141 211.92871094 C89.45834521 235.28016008 80.76840658 261.57099974 61 277 C60.22527344 277.77730469 59.45054687 278.55460937 58.65234375 279.35546875 C27.85162288 310.06546585 -28.227032 328.37381997 -71.0625 329.25 C-92.39265696 328.83415978 -113.22822617 323.86840571 -133 316 C-133.72783691 315.71286133 -134.45567383 315.42572266 -135.20556641 315.12988281 C-147.02252357 310.3887484 -157.61255606 304.35024005 -168 297 C-169.12293457 296.20770996 -169.12293457 296.20770996 -170.26855469 295.39941406 C-171.00235352 294.86799805 -171.73615234 294.33658203 -172.4921875 293.7890625 C-173.49934814 293.06130615 -173.49934814 293.06130615 -174.52685547 292.31884766 C-175.01299316 291.88362793 -175.49913086 291.4484082 -176 291 C-176 290.34 -176 289.68 -176 289 C-176.54011719 288.77570313 -177.08023438 288.55140625 -177.63671875 288.3203125 C-180.74827775 286.58195392 -183.21938422 284.28689422 -185.8125 281.875 C-186.30814453 281.42640625 -186.80378906 280.9778125 -187.31445312 280.515625 C-194.63000057 273.77439981 -200.07341354 266.83145145 -204.5625 257.9375 C-205.03574707 257.01283936 -205.50899414 256.08817871 -205.99658203 255.13549805 C-228.6699841 210.2287651 -228.80026615 160.56479099 -213.4375 113.1875 C-210.43903605 104.29530156 -206.83864076 95.71899523 -202.9375 87.1875 C-202.45531006 86.13264404 -201.97312012 85.07778809 -201.47631836 83.9909668 C-198.57908504 77.84648899 -195.33073921 72.11117305 -191.59716797 66.43554688 C-190.06249137 64.09529408 -188.6228957 61.71444092 -187.1875 59.3125 C-186.465625 58.219375 -185.74375 57.12625 -185 56 C-184.34 56 -183.68 56 -183 56 C-182.34 54.35 -181.68 52.7 -181 51 C-180.34 51 -179.68 51 -179 51 C-178.62875 50.1646875 -178.62875 50.1646875 -178.25 49.3125 C-176.15837296 45.44298998 -173.33694534 41.88190734 -170 39 C-169.34 39 -168.68 39 -168 39 C-167.75121094 38.41605469 -167.50242188 37.83210938 -167.24609375 37.23046875 C-165.81817678 34.67454214 -164.27697303 33.22263315 -162.0625 31.3125 C-161.25425781 30.61511719 -160.44601563 29.91773438 -159.61328125 29.19921875 C-155.1154506 25.41404886 -150.59057046 21.67245637 -146 18 C-145.01257813 17.2059375 -144.02515625 16.411875 -143.0078125 15.59375 C-128.21366856 3.93552186 -113.31881549 -5.52224453 -95.21484375 -11.15234375 C-92.4437853 -12.21287229 -89.95951042 -13.60717866 -87.375 -15.0625 C-59.84662514 -30.53046028 -25.15069792 -12.78753145 0 0 Z M-72 -1 C-74.0859375 -0.4375 -74.0859375 -0.4375 -76.375 0 C-79.78164418 0.69893992 -82.7749931 1.69256477 -86 3 C-86.88816406 3.11601563 -87.77632813 3.23203125 -88.69140625 3.3515625 C-92.54634756 4.10707638 -95.77772463 5.54635392 -99.25 7.3125 C-99.93964844 7.66223877 -100.62929687 8.01197754 -101.33984375 8.37231445 C-115.48919779 15.75658798 -128.07701524 25.31230313 -140.25585938 35.55273438 C-141.80801939 36.84069694 -143.39409366 38.08753904 -144.984375 39.328125 C-180.2012133 66.8094728 -199.99140011 112.56544716 -205.75488281 156.00390625 C-206.40953168 161.33499105 -206.80123923 166.63345925 -207 172 C-207.03254883 172.64807617 -207.06509766 173.29615234 -207.09863281 173.96386719 C-208.55559008 205.00147207 -199.14602313 241.55961872 -178.109375 265.1171875 C-172.86273245 270.59843602 -166.96388955 275.32760101 -161 280 C-160.15824219 280.6703125 -159.31648438 281.340625 -158.44921875 282.03125 C-140.49033883 295.76611416 -118.10765244 304.68938004 -96 309 C-95.11352783 309.17587646 -94.22705566 309.35175293 -93.3137207 309.53295898 C-85.93610115 310.88975565 -78.80546486 311.33521972 -71.3125 311.3125 C-69.74725586 311.33666992 -69.74725586 311.33666992 -68.15039062 311.36132812 C-53.10078135 311.37044358 -39.12206892 307.82730489 -25 302.9375 C-23.56595576 302.44935185 -22.13187306 301.96131669 -20.69775391 301.47338867 C13.40647424 289.92456479 13.40647424 289.92456479 43 270 C43.88300781 269.24847656 44.76601563 268.49695313 45.67578125 267.72265625 C48.92571193 264.9547513 48.92571193 264.9547513 52 262 C52 261.34 52 260.68 52 260 C52.99 259.67 53.98 259.34 55 259 C57.35126699 256.25685518 59.1206956 253.07781957 61 250 C61.51554443 249.18136475 61.51554443 249.18136475 62.04150391 248.34619141 C76.46574061 225.27635201 81.6443985 198.90125328 82 172 C82.01901367 171.06486572 82.03802734 170.12973145 82.05761719 169.16625977 C82.14854129 161.68037978 81.60397463 154.37143791 80.75 146.9375 C80.61505127 145.75937744 80.48010254 144.58125488 80.34106445 143.36743164 C76.94833238 115.13182745 69.79456848 89.97999353 50.125 68.75 C46.40464856 64.68600165 43.36056421 60.28174024 40.25 55.75 C34.77608477 47.82510386 28.79003084 40.81864052 22 34 C21.2884375 33.25363281 20.576875 32.50726563 19.84375 31.73828125 C2.22610806 14.4933202 -37.92775466 -3.04737062 -62.5625 -3.1875 C-63.69816406 -3.20167969 -64.83382812 -3.21585938 -66.00390625 -3.23046875 C-69.1824443 -3.23171839 -69.1824443 -3.23171839 -72 -1 Z " fill="#000000" transform="translate(300,87)"/>
<path d="M0 0 C-3.27310798 6.25770492 -6.53837663 12.41889417 -10.4375 18.3125 C-13.23776596 22.62204071 -15.60890138 27.02212631 -17.875 31.625 C-18.20693359 32.29716553 -18.53886719 32.96933105 -18.88085938 33.66186523 C-20.28564955 36.51207169 -21.68803255 39.36344619 -23.08642578 42.21679688 C-32.42630696 61.11942869 -43.730139 72.78419188 -64 80 C-74.03461367 83.12187981 -83.67544537 83.38570735 -94.06201172 83.08251953 C-97.39655587 82.9888619 -100.7310944 82.93123361 -104.06640625 82.87109375 C-128.24152047 82.34698483 -156.3120686 80.6879314 -174.53515625 62.46484375 C-178.78259216 57.91714727 -182.78591712 53.2197095 -186.42578125 48.171875 C-187.68663931 46.4323289 -188.98401338 44.71927389 -190.29296875 43.015625 C-190.69829834 42.48702881 -191.10362793 41.95843262 -191.52124023 41.41381836 C-192.69438963 39.88497137 -193.8705581 38.35844246 -195.046875 36.83203125 C-196.83959078 34.23259336 -197.89236479 31.93079785 -199 29 C-185.66032181 25.40269918 -172.68044382 24.19167928 -158.90350342 23.58843994 C-153.12382486 23.33212043 -147.34725805 23.01817291 -141.5703125 22.70703125 C-139.89637924 22.61805573 -139.89637924 22.61805573 -138.18862915 22.52728271 C-116.09177588 21.3255411 -94.7346738 17.68512702 -73.08984375 13.1875 C-67.23180284 11.98163427 -61.38772239 10.88948843 -55.48046875 9.953125 C-40.57572526 7.58137812 -25.96157884 4.79775392 -11.32006836 1.14746094 C-10.12647705 0.85387695 -8.93288574 0.56029297 -7.703125 0.2578125 C-6.64770508 -0.0088623 -5.59228516 -0.27553711 -4.50488281 -0.55029297 C-2 -1 -2 -1 0 0 Z " fill="#FFFFFF" transform="translate(340,249)"/>
<path d="M0 0 C0 0.99 0 1.98 0 3 C1.093125 2.938125 2.18625 2.87625 3.3125 2.8125 C7 3 7 3 8.875 4.375 C11.44181802 8.08262602 11.5700541 11.61399404 11 16 C9.95593906 18.80613056 8.50334451 21.26749285 6.9375 23.8125 C6.32177124 24.86050781 6.32177124 24.86050781 5.69360352 25.9296875 C3.3716698 29.85057382 0.93043025 33.68558589 -1.5625 37.5 C-4.29210347 41.70709526 -6.59892205 46.0093488 -8.8125 50.5 C-9.3089502 51.50305176 -9.3089502 51.50305176 -9.81542969 52.52636719 C-11.27031645 55.47344551 -12.72049215 58.42250835 -14.15234375 61.38085938 C-19.53291525 72.43308248 -24.91872897 81.59241377 -34 90 C-35.05574219 90.99 -35.05574219 90.99 -36.1328125 92 C-40.53617245 95.75039022 -45.46121206 98.51153627 -50.5625 101.1875 C-51.15635498 101.50879883 -51.75020996 101.83009766 -52.36206055 102.16113281 C-67.33629009 109.63568693 -82.83567193 109.60521568 -99.19897461 109.46655273 C-102.92672374 109.43758374 -106.65304549 109.44598351 -110.38085938 109.45898438 C-126.7261202 109.44577889 -142.37745889 108.82812239 -157.75 102.75 C-158.53947021 102.44626465 -159.32894043 102.1425293 -160.14233398 101.82958984 C-177.54949473 94.96444499 -189.18592748 85.12777424 -200 70 C-200.48210937 69.32888184 -200.96421875 68.65776367 -201.4609375 67.96630859 C-202.96504213 65.86065953 -204.45450996 63.74556481 -205.9375 61.625 C-206.39825928 60.97136475 -206.85901855 60.31772949 -207.33374023 59.64428711 C-214 49.94914353 -214 49.94914353 -214 44 C-214.804375 43.855625 -215.60875 43.71125 -216.4375 43.5625 C-219 43 -219 43 -220 42 C-220.36832509 38.68507416 -220.46311719 36.71572657 -218.625 33.875 C-214.72337388 31.0881242 -210.49730575 29.59859983 -206 28 C-205.22914063 27.72027344 -204.45828125 27.44054687 -203.6640625 27.15234375 C-193.66133175 23.66016231 -184.04549942 22.5946256 -173.54006958 22.10998535 C-171.13415139 21.99750589 -168.72911678 21.87307484 -166.32397461 21.74511719 C-160.2774109 21.42357182 -154.23058968 21.10841955 -148.18261719 20.81445312 C-122.1377774 19.51037957 -96.55243684 15.11425544 -71.04614258 9.82495117 C-62.01515141 7.95871063 -52.93983433 6.4110605 -43.84545898 4.88793945 C-34.49292286 3.30497036 -25.20396354 1.48165621 -15.94140625 -0.56445312 C-10.23678489 -1.77208466 -5.4429174 -2.7214587 0 0 Z M-10.703125 12.35546875 C-27.71147625 16.49303864 -44.6469251 19.76035909 -61.94287109 22.50195312 C-67.99904245 23.48858382 -73.99296866 24.75178569 -80 26 C-101.48631622 30.45745296 -122.65602435 33.54220865 -144.5703125 34.70703125 C-146.27167862 34.79866547 -146.27167862 34.79866547 -148.00741577 34.89215088 C-153.75328111 35.19811779 -159.4990591 35.48315855 -165.24755859 35.73486328 C-177.89383365 36.33643684 -189.76286895 37.70002222 -202 41 C-201.37843348 42.27804444 -200.75280419 43.55411346 -200.12548828 44.8293457 C-199.77753204 45.540168 -199.42957581 46.2509903 -199.07107544 46.98335266 C-197.63979642 49.67820022 -195.86386055 51.87939431 -193.875 54.1875 C-190.88324101 57.71875651 -188.01015671 61.28205903 -185.2590332 65.00024414 C-173.34033174 80.97273703 -156.79038953 89.75472383 -137 93 C-131.14305362 93.83207541 -125.40753563 94.19788674 -119.49609375 94.31640625 C-118.6139772 94.33718735 -117.73186066 94.35796844 -116.82301331 94.37937927 C-114.02791335 94.44420685 -111.23272513 94.50334563 -108.4375 94.5625 C-106.55793453 94.60576614 -104.6783771 94.6493828 -102.79882812 94.69335938 C-79.39067386 95.22792106 -58.3255193 93.25946916 -40.30859375 76.6640625 C-33.75239472 69.09836413 -29.30635788 60.95117257 -25.1875 51.875 C-21.3660375 43.66832185 -17.34282793 35.87410852 -12.38989258 28.29833984 C-8.76673253 22.74844276 -5.8015593 17.0131029 -3 11 C-5.70956557 11 -8.07018414 11.70326317 -10.703125 12.35546875 Z " fill="#000000" transform="translate(343,237)"/>
<path d="M0 0 C13.77251932 5.30303478 13.77251932 5.30303478 16.9375 11 C18.32087981 14.9157964 18.18750894 17.99215733 17 22 C14.11447968 27.25576915 10.77319359 31.07560214 5 33 C-1.24326872 33.52909057 -5.94177267 32.91100051 -11 29 C-14.79021605 24.66714998 -18.12063858 19.9112905 -18 14 C-17.0767655 8.96636495 -16.10825732 5.10825732 -12.4375 1.4375 C-7.93586969 -1.21730762 -5.04158211 -1.32791672 0 0 Z " fill="#000000" transform="translate(299,172)"/>
<path d="M0 0 C4.7902036 4.1058888 6.97351317 9.80506586 8.1875 15.875 C7.82611485 20.81393041 6.41047438 23.4212204 3.25 27.1875 C2.53972656 28.04988281 1.82945312 28.91226563 1.09765625 29.80078125 C-1.55468026 32.68092581 -3.25650135 33.08170754 -7.0625 33.25 C-11.05346087 33.1795336 -13.56507399 32.46276099 -16.53125 29.5625 C-20.04083677 24.94011743 -22.8125 18.68786846 -22.8125 12.875 C-21.34391017 6.90402292 -19.20055295 1.86358921 -13.80859375 -1.41796875 C-9.03518897 -3.10874422 -4.54689625 -1.8187585 0 0 Z " fill="#000000" transform="translate(196.8125,188.125)"/>
</svg>
