<?xml version="1.0" encoding="UTF-8"?>
<svg version="1.1" xmlns="http://www.w3.org/2000/svg" width="500" height="500">
<path d="M0 0 C3.00545941 2.32694286 3.76664204 4.75361671 4.796875 8.34765625 C5.11205078 9.41846436 5.42722656 10.48927246 5.75195312 11.5925293 C6.08130859 12.73761963 6.41066406 13.88270996 6.75 15.0625 C9.29839163 23.63985591 12.00207854 32.03042308 15.36547852 40.32080078 C17.3277326 45.18499538 19.06670059 50.08796066 20.72607422 55.06347656 C24.76724454 67.14388718 29.70690966 78.66364526 34.96875 90.2578125 C37.89922975 96.72462818 40.66351464 103.25131731 43.375 109.8125 C43.99628784 111.30777222 43.99628784 111.30777222 44.63012695 112.83325195 C46.32423404 116.91693442 48.00701182 121.00345107 49.63671875 125.11328125 C52.90635773 133.16644686 57.03927641 140.10554258 61.86083984 147.28417969 C68.86371312 157.83201367 75.73555125 168.72314119 79.9453125 180.7109375 C81.23958276 183.51998333 83.06991952 185.58831154 85 188 C86.02832343 189.95407752 87.00709861 191.93494631 87.9375 193.9375 C90.19923691 198.6102255 92.55291476 202.15896217 96 206 C96.93208304 208.79624911 97.12861054 210.48333327 97.1328125 213.37280273 C97.13482666 214.26097183 97.13684082 215.14914093 97.13891602 216.06422424 C97.13432373 217.03174118 97.12973145 217.99925812 97.125 218.99609375 C97.12101196 220.52090614 97.12101196 220.52090614 97.11694336 222.07652283 C97.04294489 234.41512326 96.5176895 246.73610447 96 259.0625 C94.67912368 289.2581148 94.67912368 289.2581148 95.75976562 319.43798828 C96.1978208 325.9331357 96.24163019 332.42958494 96.25 338.9375 C96.25167175 339.63356354 96.25334351 340.32962708 96.25506592 341.04678345 C96.25679886 353.12105299 95.80981112 364.7283122 91 376 C91.7425 376.185625 92.485 376.37125 93.25 376.5625 C96.95906401 378.50132891 98.68134187 381.12205271 100 385 C99.90203517 390.87788999 99.90203517 390.87788999 97.703125 393.61328125 C94.37367828 396.32418397 90.08554211 396.92485734 86 398 C84.20949219 398.49886719 84.20949219 398.49886719 82.3828125 399.0078125 C67.67116784 403.00340776 53.21946225 404.3987632 38 404 C38.37125 405.216875 38.7425 406.43375 39.125 407.6875 C40.06527555 411.46193944 40.06335674 413.56107211 38 417 C36.8125 418.8125 36.8125 418.8125 35 420 C31.5625 420.4375 31.5625 420.4375 28 420 C24.41004149 417.16652073 23.29592174 414.6428713 22.25 410.25 C22.00765625 409.26515625 21.7653125 408.2803125 21.515625 407.265625 C21.34546875 406.51796875 21.1753125 405.7703125 21 405 C20.45577393 405.07064667 19.91154785 405.14129333 19.35083008 405.21408081 C11.46402617 406.12874495 3.61784801 406.14568589 -4.3125 406.1328125 C-5.80859391 406.13348944 -7.30468771 406.13446268 -8.80078125 406.13571167 C-11.94092859 406.13718122 -15.08104741 406.13506535 -18.22119141 406.13037109 C-22.13332502 406.12479158 -26.04538861 406.12794945 -29.95751953 406.13385391 C-33.80501956 406.13863755 -37.65250024 406.13717783 -41.5 406.1328125 C-42.25919739 406.13200935 -43.01839478 406.13120621 -43.80059814 406.13037872 C-52.48069733 406.11399194 -61.14893903 405.99600535 -69.82421875 405.69824219 C-70.61712311 405.67148092 -71.41002747 405.64471966 -72.22695923 405.61714745 C-76.02460048 405.48610646 -79.82095787 405.34059872 -83.6171875 405.1736145 C-84.9674409 405.12190713 -86.31770096 405.07037329 -87.66796875 405.01904297 C-88.84641357 404.9674704 -90.0248584 404.91589783 -91.23901367 404.86276245 C-94.14503618 404.69761566 -94.14503618 404.69761566 -96 407 C-99.59306172 407.44724824 -101.49727159 407.28255539 -104.67578125 405.49609375 C-105.98095703 404.47708984 -105.98095703 404.47708984 -107.3125 403.4375 C-108.25996094 402.70789063 -109.20742187 401.97828125 -110.18359375 401.2265625 C-111.11300781 400.49179687 -112.04242188 399.75703125 -113 399 C-113.83660156 398.36835938 -114.67320312 397.73671875 -115.53515625 397.0859375 C-117.72723194 395.42449783 -119.8934023 393.76874713 -122 392 C-122.91136719 391.26265625 -123.82273438 390.5253125 -124.76171875 389.765625 C-127.19413327 386.76012853 -127.4816311 385.32600842 -127.18701172 381.52363586 C-127.06350342 380.49099861 -127.06350342 380.49099861 -126.9375 379.4375 C-126.86805176 378.72921555 -126.79860352 378.02093109 -126.72705078 377.29118347 C-126.34417713 373.40141862 -125.95079422 369.51359008 -125.52368164 365.62841797 C-124.01489103 351.67200929 -123.22040429 337.70369753 -122.5 323.6875 C-122.37164041 321.25681563 -122.24289218 318.82615176 -122.11376953 316.39550781 C-121.7954012 310.3792012 -121.48258855 304.36262407 -121.17248535 298.34588623 C-121.01122248 295.21769466 -120.84907237 292.08955075 -120.68652344 288.96142578 C-120.22678229 280.10739099 -119.77286935 271.25308441 -119.32598877 262.39839172 C-118.89737115 253.93156359 -118.44832659 245.4658034 -118 237 C-118.95874023 236.96165039 -119.91748047 236.92330078 -120.90527344 236.88378906 C-130.33502079 236.50659917 -130.33502079 236.50659917 -133.39453125 234.17578125 C-135.71784691 231.02715152 -135.48470651 228.80840827 -135 225 C-133.04031401 222.00890032 -130.30162984 221.1600321 -127 220 C-127.763125 219.814375 -128.52625 219.62875 -129.3125 219.4375 C-132.31948564 217.82911233 -133.53588879 216.38197896 -134.671875 213.15234375 C-135.94777244 204.78306409 -130.39364406 196.63756076 -126.53100586 189.58764648 C-124.03731505 185.02608983 -121.82891422 180.47969053 -119.8125 175.6875 C-116.61698026 168.10783577 -112.95358949 160.77955254 -109.25 153.4375 C-104.26638906 143.55661099 -99.3848732 133.63604043 -94.6418457 123.63671875 C-91.89151232 117.84239254 -89.07711373 112.0950944 -86.12109375 106.40234375 C-84.84248663 103.66247135 -83.90759918 100.88173197 -83 98 C-82.34 98 -81.68 98 -81 98 C-80.73735352 97.13286377 -80.47470703 96.26572754 -80.20410156 95.37231445 C-78.99803193 91.99448804 -77.53059581 89.14292237 -75.734375 86.04296875 C-75.09113281 84.92986328 -74.44789063 83.81675781 -73.78515625 82.66992188 C-73.45016113 82.09685303 -73.11516602 81.52378418 -72.77001953 80.93334961 C-71.76083488 79.20604482 -70.76121959 77.47316068 -69.76171875 75.74023438 C-66.40310175 69.95446572 -62.96571689 64.28644053 -59.13769531 58.7980957 C-57.83034153 56.89105174 -57.83034153 56.89105174 -57 54 C-56.34 54 -55.68 54 -55 54 C-54.71125 53.2575 -54.4225 52.515 -54.125 51.75 C-53.17697356 49.43260203 -52.15154089 47.22082885 -51 45 C-50.34 45 -49.68 45 -49 45 C-48.7628125 44.16726562 -48.525625 43.33453125 -48.28125 42.4765625 C-46.78842663 38.42591373 -44.77556107 35.02462191 -42.5 31.375 C-41.69661949 30.07111086 -40.8944969 28.76644565 -40.09375 27.4609375 C-39.72507812 26.85991211 -39.35640625 26.25888672 -38.9765625 25.63964844 C-37.88357469 23.8045219 -36.9038029 21.93531708 -36 20 C-35.34 20 -34.68 20 -34 20 C-33.7421875 19.27425781 -33.484375 18.54851562 -33.21875 17.80078125 C-31.94757501 14.87952333 -30.45983598 12.69127351 -28.5 10.1875 C-27.8915625 9.39730469 -27.283125 8.60710937 -26.65625 7.79296875 C-26.1096875 7.20128906 -25.563125 6.60960937 -25 6 C-24.34 6 -23.68 6 -23 6 C-22.71125 5.360625 -22.4225 4.72125 -22.125 4.0625 C-21 2 -21 2 -19 1 C-16.6670386 0.95833998 -14.3329614 0.95833998 -12 1 C-9.94371377 1.17299271 -9.94371377 1.17299271 -8.25 -0.0625 C-5.13323105 -1.36115373 -3.21534686 -0.88935126 0 0 Z " fill="#000000" transform="translate(280,56)"/>
<path d="M0 0 C6.79417492 0.90566386 13.60277088 1.6798331 20.41455078 2.43994141 C25.69620012 3.03003808 30.96633304 3.65634108 36.23242188 4.37304688 C51.04380337 6.29564092 65.61912434 6.79237153 80.53710938 6.77148438 C81.47561737 6.77070892 82.41412537 6.76993347 83.381073 6.76913452 C86.09206616 6.76262807 88.80276077 6.74632092 91.51367188 6.72460938 C92.31375168 6.72022354 93.11383148 6.71583771 93.93815613 6.71131897 C99.63872437 6.64127077 105.24897395 6.1667801 110.91210938 5.52148438 C111.04588394 15.22757262 110.81135429 24.88597494 110.41210938 34.58398438 C110.06337199 43.31459123 109.80480809 52.03347909 109.78710938 60.77148438 C109.78259766 61.63781494 109.77808594 62.50414551 109.7734375 63.39672852 C109.78505295 68.50704191 110.03289629 73.5647586 110.40039062 78.66210938 C110.92176639 86.08702543 111.16468129 93.48555512 111.20727539 100.92822266 C111.21883223 102.3238333 111.23934257 103.71939848 111.26879883 105.11474609 C111.46372119 114.4383509 110.5452152 122.41576441 107.75170898 131.33813477 C106.6498773 135.51573971 106.89492102 138.36796526 107.91210938 142.52148438 C101.81037626 144.21206934 95.90054322 145.0911401 89.59960938 145.64648438 C88.67768799 145.73140137 87.7557666 145.81631836 86.8059082 145.90380859 C80.4917868 146.45721982 74.25038145 146.72929657 67.91210938 146.52148438 C67.73096876 136.93932905 68.20681726 127.67175239 69.28710938 118.14648438 C69.4134375 116.94121094 69.53976562 115.7359375 69.66992188 114.49414062 C70.21107251 109.5642583 70.7503739 104.73928675 72.02539062 99.93945312 C73.2623507 95.17143522 73.294768 91.04280305 70.84960938 86.58398438 C67.02612341 84.48723401 62.53600176 84.62281861 58.26342773 84.35620117 C49.91559834 83.78358089 42.0401536 82.17088545 33.91210938 80.25 C26.81242633 78.66458901 20.17881672 78.23883652 12.91210938 78.52148438 C12.91210938 79.18148437 12.91210938 79.84148437 12.91210938 80.52148438 C11.81898438 80.76898438 10.72585938 81.01648438 9.59960938 81.27148438 C6.79239027 82.46809696 6.05158526 83.20133511 4.81445312 86.04101562 C1.93296983 97.32079195 1.7255569 108.73405163 1.72680664 120.30786133 C1.72461029 122.58303278 1.70636311 124.85772569 1.6875 127.1328125 C1.68456654 128.60742025 1.68258143 130.08203026 1.68164062 131.55664062 C1.67753174 132.87027588 1.67342285 134.18391113 1.66918945 135.53735352 C1.94322012 140.03173191 2.80555643 144.16963001 3.91210938 148.52148438 C2.64544434 148.51624756 1.3787793 148.51101074 0.07373047 148.50561523 C-4.77297222 148.48722053 -9.61967218 148.47492953 -14.46640015 148.4654541 C-16.6251137 148.46115214 -18.78382578 148.45602948 -20.9425354 148.45007324 C-36.84988355 148.4111342 -36.84988355 148.4111342 -52.74804688 148.88476562 C-53.45217712 148.9161412 -54.15630737 148.94751678 -54.8817749 148.97984314 C-58.07456444 149.12753574 -61.2625238 149.30406128 -64.45166016 149.51733398 C-65.5523584 149.57542236 -66.65305664 149.63351074 -67.78710938 149.69335938 C-68.72385498 149.75620117 -69.66060059 149.81904297 -70.62573242 149.88378906 C-73.08789063 149.52148438 -73.08789063 149.52148438 -75.43139648 147.88647461 C-77.61670303 144.76649457 -77.36268038 143.258421 -76.89257812 139.50976562 C-76.7544873 138.29393799 -76.61639648 137.07811035 -76.47412109 135.82543945 C-76.39079529 135.17668854 -76.30746948 134.52793762 -76.22161865 133.85952759 C-75.77548153 130.36678649 -75.40583273 126.86563156 -75.02539062 123.36523438 C-74.94441132 122.63726151 -74.86343201 121.90928864 -74.77999878 121.15925598 C-73.93082568 113.39853509 -73.41225822 105.62674344 -72.96289062 97.83398438 C-72.92267792 97.14837433 -72.88246521 96.46276428 -72.84103394 95.75637817 C-72.14648087 83.79533405 -71.68348931 71.82854779 -71.30664062 59.85351562 C-71.15653125 55.19248061 -70.93396614 50.54185016 -70.6640625 45.88647461 C-69.74414747 29.78310287 -69.99903946 13.64455348 -70.08789062 -2.47851562 C-46.26274834 -4.36090315 -23.5925701 -3.20085793 0 0 Z " fill="#FFFFFF" transform="translate(247.087890625,293.478515625)"/>
<path d="M0 0 C0.33 0 0.66 0 1 0 C1.16902832 0.70455322 1.33805664 1.40910645 1.51220703 2.13500977 C8.59303929 31.1608575 18.06743101 59.75655273 30.94677734 86.75 C32.93589302 90.99934864 34.77755909 95.31261844 36.625 99.625 C37.00108398 100.49922607 37.37716797 101.37345215 37.76464844 102.27416992 C39.86405947 107.19656199 41.8369962 112.14773231 43.7097168 117.16040039 C48.38001125 129.63100914 54.86667257 140.41576822 62.34765625 151.38427734 C66.54962826 157.6368247 69.78987793 164.19090087 73 171 C75.95653874 177.11307863 79.09954026 182.99239505 82.66796875 188.7734375 C84.884423 192.47836103 86.16741245 195.02237339 86.3125 199.375 C86.60892963 202.91471853 87.21060724 204.69857065 89.625 207.3125 C90.800625 208.6428125 90.800625 208.6428125 92 210 C91.6484375 212.16796875 91.6484375 212.16796875 91 214 C65.3051128 219.94735591 38.0075296 216.49375481 12.125 213.6875 C11.1125824 213.57787933 10.10016479 213.46825867 9.05706787 213.35531616 C-1.21804687 212.23078732 -11.4223285 211.00355965 -21.60449219 209.21850586 C-36.09643609 206.72246706 -50.45170491 206.62773962 -65.125 206.625 C-66.7712587 206.62214493 -66.7712587 206.62214493 -68.45077515 206.61923218 C-80.52316947 206.62160621 -92.37746552 206.97960205 -104.35107422 208.57568359 C-107.61266652 208.95495881 -110.72151543 209.07968318 -114 209 C-113.4225 208.7525 -112.845 208.505 -112.25 208.25 C-107.18219965 205.43455536 -105.23053411 201.78167878 -103.125 196.5 C-100.84315621 190.91835978 -98.32950245 185.53500255 -95.58032227 180.16381836 C-94.05881908 177.11775629 -92.62977643 174.04563055 -91.22265625 170.9453125 C-88.11967463 164.19224209 -84.79906378 157.56463745 -81.4375 150.9375 C-76.57645774 141.31353425 -71.92384827 131.61843414 -67.4375 121.8125 C-58.64080203 102.65352198 -49.00132657 83.98819392 -38 66 C-37.32324219 64.89301758 -37.32324219 64.89301758 -36.6328125 63.76367188 C-35.21443136 61.44606843 -33.79481171 59.12922726 -32.375 56.8125 C-25.45592167 45.52102328 -19.01416919 34.0801964 -12.9375 22.3125 C-4.45964921 5.90290139 -4.45964921 5.90290139 0 0 Z " fill="#FFFFFF" transform="translate(269,67)"/>
<path d="M0 0 C0.64832291 0.1302356 1.29664581 0.26047119 1.96461487 0.39465332 C6.75293649 1.35475944 11.54277675 2.30313711 16.33984375 3.21875 C18.53907672 3.64576009 20.73829531 4.07284429 22.9375 4.5 C24.62069336 4.81904297 24.62069336 4.81904297 26.33789062 5.14453125 C27.41103516 5.35464844 28.48417969 5.56476563 29.58984375 5.78125 C30.55784912 5.96751953 31.52585449 6.15378906 32.52319336 6.34570312 C35 7 35 7 38 9 C37.86867676 9.70527832 37.73735352 10.41055664 37.60205078 11.13720703 C36.19994389 19.03612875 35.41722099 26.87501822 34.875 34.875 C34.78863281 36.05835938 34.70226562 37.24171875 34.61328125 38.4609375 C34.14829741 44.88267337 34.14829741 44.88267337 34.03955078 51.31689453 C34 54 34 54 33 55 C23.17720662 56.69286439 12.92780858 56.09259096 3 56 C2.87625 54.9275 2.7525 53.855 2.625 52.75 C2.23473382 49.19889763 2.23473382 49.19889763 0.97512817 47.05218506 C-0.16108449 44.6609931 -0.24186546 43.0520526 -0.22705078 40.41503906 C-0.22689972 39.51440735 -0.22674866 38.61377563 -0.22659302 37.68585205 C-0.21627045 36.72217712 -0.20594788 35.7585022 -0.1953125 34.765625 C-0.1924826 33.77246277 -0.18965271 32.77930054 -0.18673706 31.75604248 C-0.17555143 28.58723856 -0.15044962 25.41871835 -0.125 22.25 C-0.11496812 20.1002645 -0.10584263 17.95052457 -0.09765625 15.80078125 C-0.07561741 10.53375754 -0.04215584 5.26689904 0 0 Z " fill="#FFFFFF" transform="translate(265,386)"/>
</svg>
