<?xml version="1.0" encoding="UTF-8"?>
<svg version="1.1" xmlns="http://www.w3.org/2000/svg" width="500" height="500">
<path d="M0 0 C4.77782979 11.01315858 3.11910237 24.39818849 3.0625 36.1875 C3.05747456 38.01627482 3.0529135 39.84505097 3.04882812 41.67382812 C3.03790619 46.11591895 3.02069923 50.55794441 3 55 C8.59347176 54.3407625 8.59347176 54.3407625 13.8046875 52.36328125 C14.46186768 52.03602051 15.11904785 51.70875977 15.79614258 51.37158203 C16.48216553 51.02208496 17.16818848 50.67258789 17.875 50.3125 C34.34024908 42.27474657 55.19296197 33.56412181 73.7421875 38.76953125 C83.20180066 43.27638398 86.48662331 53.42617129 89.88037109 62.68603516 C95.81497565 79.62002006 99.82904288 95.69489601 92.125 112.625 C88.69880007 119.59541445 83.97607424 125.13713395 78.76953125 130.84375 C73.35746421 136.84348635 69.76830068 143.9127353 66 151 C65.63777344 151.64710938 65.27554687 152.29421875 64.90234375 152.9609375 C59.3865168 163.1886652 55.38572256 175.29722721 56 187 C56.62297549 189.01403723 57.28630105 191.01629683 58 193 C58.4109196 196.97222282 58.61158898 199.08261653 56.375 202.4375 C53.28314769 204.47161336 51.63632575 204.60605429 48 204 C45.625 202.1875 45.625 202.1875 44 200 C44 199.01 44 198.02 44 197 C42.20620902 197.44994757 40.41501072 197.91024143 38.625 198.375 C37.62726563 198.63023437 36.62953125 198.88546875 35.6015625 199.1484375 C32.87458985 199.82404319 32.87458985 199.82404319 31 202 C27.5625 202.375 27.5625 202.375 24 202 C20.71917693 198.83442832 20.52620882 195.78829702 20.125 191.375 C19.41701601 185.60313049 18.11780985 181.30157316 15.21875 176.28125 C9.41812756 165.42367467 10.57062109 149.83231959 13.625 138.1875 C18.44489917 124.13086026 26.93294043 119.10709346 39.53515625 112.390625 C42.27004549 110.8476447 44.6618904 109.0962362 47 107 C45.57811392 102.96887967 43.64155796 99.82220958 41.125 96.375 C40.10792969 94.96347656 40.10792969 94.96347656 39.0703125 93.5234375 C37.16875098 91.20568515 35.56881118 89.53069367 33 88 C28.88281373 88.95011991 26.22740387 91.38318605 23 94 C22.34 94 21.68 94 21 94 C20.814375 94.598125 20.62875 95.19625 20.4375 95.8125 C18.33129071 99.01760109 15.4930139 99.59053825 12 101 C11.484375 101.556875 10.96875 102.11375 10.4375 102.6875 C8.19624284 104.73386523 5.91981678 104.08230356 3 104 C3.07227814 104.97834808 3.14455627 105.95669617 3.21902466 106.96469116 C3.88294309 116.40313478 4.09894167 125.7611491 3.9921875 135.2265625 C3.98264616 136.63072115 3.97405379 138.03488652 3.96633911 139.4390564 C3.93342302 145.29983922 3.89186824 151.16045656 3.82861328 157.02099609 C3.65792352 173.39796011 3.97110399 189.27514481 6.62164307 205.48480225 C7.27095484 209.80122247 7.66674114 214.13852813 8.0625 218.484375 C8.18131027 219.76149857 8.18131027 219.76149857 8.30252075 221.06442261 C8.61819799 224.48685908 8.92538394 227.91001364 9.22949219 231.33349609 C10.12491408 241.33237393 11.20672703 251.2124515 13.01843262 261.09222412 C13.99752264 266.50002561 14.26512785 271.52069105 14 277 C15.77117187 276.85691406 15.77117187 276.85691406 17.578125 276.7109375 C19.13537391 276.59836529 20.69266815 276.48641886 22.25 276.375 C23.02730469 276.31054688 23.80460938 276.24609375 24.60546875 276.1796875 C32.24014154 275.65765859 32.24014154 275.65765859 35 278 C35.8203125 279.98828125 35.8203125 279.98828125 36.125 282.3125 C36.25132812 283.07175781 36.37765625 283.83101563 36.5078125 284.61328125 C35.85410252 287.68571815 34.34604421 289.0034904 31.87792969 290.85961914 C28.46825214 292.93016046 24.89142889 294.01083273 21.0625 295.0625 C20.16136475 295.31362549 19.26022949 295.56475098 18.33178711 295.82348633 C5.12986204 299.26416162 -8.4688981 300.53433906 -22 302 C-23.22895996 302.14034668 -24.45791992 302.28069336 -25.72412109 302.42529297 C-56.71217729 305.96285646 -87.81418473 307.58315288 -119 307 C-120.17320801 306.98066406 -121.34641602 306.96132813 -122.55517578 306.94140625 C-135.86792094 306.69184962 -149.0680131 305.95132801 -162.3125 304.5625 C-163.48119629 304.44028076 -164.64989258 304.31806152 -165.85400391 304.19213867 C-173.29809016 303.35012421 -179.91289794 302.07125816 -186.8125 299.0625 C-187.56144531 298.74410156 -188.31039062 298.42570312 -189.08203125 298.09765625 C-193.91164811 295.33365964 -194.92864082 288.96985028 -196.31152344 283.94091797 C-199.07829527 272.29343263 -198.27819102 260.336166 -198.07775879 248.4559021 C-197.92634536 238.28032521 -198.14465474 228.11048422 -198.375 217.9375 C-198.39681335 216.96798401 -198.41862671 215.99846802 -198.44110107 214.99957275 C-198.91645341 194.68794203 -200.20411674 174.69001303 -203.31640625 154.59375 C-208.6419863 119.42731647 -207.63175387 80.86943379 -201 46 C-200.64905555 44.03160307 -200.300075 42.06285492 -199.953125 40.09375 C-195.95118282 17.90236563 -195.95118282 17.90236563 -191 8 C-187.31282562 5.54188375 -185.35654296 5.68881836 -181 6 C-180.01 6.66 -179.02 7.32 -178 8 C-178 8.99 -178 9.98 -178 11 C-177.20464844 11.04898438 -176.40929687 11.09796875 -175.58984375 11.1484375 C-174.38457031 11.22320312 -173.17929688 11.29796875 -171.9375 11.375 C-171.24342041 11.41753906 -170.54934082 11.46007812 -169.83422852 11.50390625 C-164.9296122 11.80759131 -160.02713119 12.13502057 -155.125 12.4765625 C-131.25349373 14.11679045 -107.2856675 15.48005237 -83.34912109 15.02832031 C-80.7589661 14.99709417 -78.17221049 15.02833591 -75.58203125 15.0546875 C-63.47292942 15.01957668 -42.14765733 14.14765733 -33 5 C-31.21284356 4.79043117 -29.41956231 4.63188384 -27.625 4.5 C-24.47979491 4.26763656 -22.00372093 4.00124031 -19 3 C-16.93854893 2.931009 -14.87498599 2.91532273 -12.8125 2.9375 C-11.18248047 2.95103516 -11.18248047 2.95103516 -9.51953125 2.96484375 C-8.68808594 2.97644531 -7.85664063 2.98804687 -7 3 C-7 2.34 -7 1.68 -7 1 C-4.53721199 -0.231394 -2.7204945 -0.07159196 0 0 Z " fill="#FEFEFE" transform="translate(308,95)"/>
<path d="M0 0 C4.77782979 11.01315858 3.11910237 24.39818849 3.0625 36.1875 C3.05747456 38.01627482 3.0529135 39.84505097 3.04882812 41.67382812 C3.03790619 46.11591895 3.02069923 50.55794441 3 55 C8.59347176 54.3407625 8.59347176 54.3407625 13.8046875 52.36328125 C14.46186768 52.03602051 15.11904785 51.70875977 15.79614258 51.37158203 C16.48216553 51.02208496 17.16818848 50.67258789 17.875 50.3125 C34.34024908 42.27474657 55.19296197 33.56412181 73.7421875 38.76953125 C83.20180066 43.27638398 86.48662331 53.42617129 89.88037109 62.68603516 C95.81497565 79.62002006 99.82904288 95.69489601 92.125 112.625 C88.69880007 119.59541445 83.97607424 125.13713395 78.76953125 130.84375 C73.35746421 136.84348635 69.76830068 143.9127353 66 151 C65.63777344 151.64710938 65.27554687 152.29421875 64.90234375 152.9609375 C59.3865168 163.1886652 55.38572256 175.29722721 56 187 C56.62297549 189.01403723 57.28630105 191.01629683 58 193 C58.4109196 196.97222282 58.61158898 199.08261653 56.375 202.4375 C53.28314769 204.47161336 51.63632575 204.60605429 48 204 C45.625 202.1875 45.625 202.1875 44 200 C44 199.01 44 198.02 44 197 C42.20620902 197.44994757 40.41501072 197.91024143 38.625 198.375 C37.62726563 198.63023437 36.62953125 198.88546875 35.6015625 199.1484375 C32.87458985 199.82404319 32.87458985 199.82404319 31 202 C27.5625 202.375 27.5625 202.375 24 202 C20.71917693 198.83442832 20.52620882 195.78829702 20.125 191.375 C19.41701601 185.60313049 18.11780985 181.30157316 15.21875 176.28125 C9.41812756 165.42367467 10.57062109 149.83231959 13.625 138.1875 C18.44489917 124.13086026 26.93294043 119.10709346 39.53515625 112.390625 C42.27004549 110.8476447 44.6618904 109.0962362 47 107 C45.57811392 102.96887967 43.64155796 99.82220958 41.125 96.375 C40.10792969 94.96347656 40.10792969 94.96347656 39.0703125 93.5234375 C37.16875098 91.20568515 35.56881118 89.53069367 33 88 C28.88281373 88.95011991 26.22740387 91.38318605 23 94 C22.34 94 21.68 94 21 94 C20.814375 94.598125 20.62875 95.19625 20.4375 95.8125 C18.33129071 99.01760109 15.4930139 99.59053825 12 101 C11.484375 101.556875 10.96875 102.11375 10.4375 102.6875 C8.19624284 104.73386523 5.91981678 104.08230356 3 104 C3.07227814 104.97834808 3.14455627 105.95669617 3.21902466 106.96469116 C3.88294309 116.40313478 4.09894167 125.7611491 3.9921875 135.2265625 C3.98264616 136.63072115 3.97405379 138.03488652 3.96633911 139.4390564 C3.93342302 145.29983922 3.89186824 151.16045656 3.82861328 157.02099609 C3.65792352 173.39796011 3.97110399 189.27514481 6.62164307 205.48480225 C7.27095484 209.80122247 7.66674114 214.13852813 8.0625 218.484375 C8.18131027 219.76149857 8.18131027 219.76149857 8.30252075 221.06442261 C8.61819799 224.48685908 8.92538394 227.91001364 9.22949219 231.33349609 C10.12491408 241.33237393 11.20672703 251.2124515 13.01843262 261.09222412 C13.99752264 266.50002561 14.26512785 271.52069105 14 277 C15.77117187 276.85691406 15.77117187 276.85691406 17.578125 276.7109375 C19.13537391 276.59836529 20.69266815 276.48641886 22.25 276.375 C23.02730469 276.31054688 23.80460938 276.24609375 24.60546875 276.1796875 C32.24014154 275.65765859 32.24014154 275.65765859 35 278 C35.8203125 279.98828125 35.8203125 279.98828125 36.125 282.3125 C36.25132812 283.07175781 36.37765625 283.83101563 36.5078125 284.61328125 C35.85410252 287.68571815 34.34604421 289.0034904 31.87792969 290.85961914 C28.46825214 292.93016046 24.89142889 294.01083273 21.0625 295.0625 C20.16136475 295.31362549 19.26022949 295.56475098 18.33178711 295.82348633 C5.12986204 299.26416162 -8.4688981 300.53433906 -22 302 C-23.22895996 302.14034668 -24.45791992 302.28069336 -25.72412109 302.42529297 C-56.71217729 305.96285646 -87.81418473 307.58315288 -119 307 C-120.17320801 306.98066406 -121.34641602 306.96132813 -122.55517578 306.94140625 C-135.86792094 306.69184962 -149.0680131 305.95132801 -162.3125 304.5625 C-163.48119629 304.44028076 -164.64989258 304.31806152 -165.85400391 304.19213867 C-173.29809016 303.35012421 -179.91289794 302.07125816 -186.8125 299.0625 C-187.56144531 298.74410156 -188.31039062 298.42570312 -189.08203125 298.09765625 C-193.91164811 295.33365964 -194.92864082 288.96985028 -196.31152344 283.94091797 C-199.07829527 272.29343263 -198.27819102 260.336166 -198.07775879 248.4559021 C-197.92634536 238.28032521 -198.14465474 228.11048422 -198.375 217.9375 C-198.39681335 216.96798401 -198.41862671 215.99846802 -198.44110107 214.99957275 C-198.91645341 194.68794203 -200.20411674 174.69001303 -203.31640625 154.59375 C-208.6419863 119.42731647 -207.63175387 80.86943379 -201 46 C-200.64905555 44.03160307 -200.300075 42.06285492 -199.953125 40.09375 C-195.95118282 17.90236563 -195.95118282 17.90236563 -191 8 C-187.31282562 5.54188375 -185.35654296 5.68881836 -181 6 C-180.01 6.66 -179.02 7.32 -178 8 C-178 8.99 -178 9.98 -178 11 C-177.20464844 11.04898438 -176.40929687 11.09796875 -175.58984375 11.1484375 C-174.38457031 11.22320312 -173.17929688 11.29796875 -171.9375 11.375 C-171.24342041 11.41753906 -170.54934082 11.46007812 -169.83422852 11.50390625 C-164.9296122 11.80759131 -160.02713119 12.13502057 -155.125 12.4765625 C-131.25349373 14.11679045 -107.2856675 15.48005237 -83.34912109 15.02832031 C-80.7589661 14.99709417 -78.17221049 15.02833591 -75.58203125 15.0546875 C-63.47292942 15.01957668 -42.14765733 14.14765733 -33 5 C-31.21284356 4.79043117 -29.41956231 4.63188384 -27.625 4.5 C-24.47979491 4.26763656 -22.00372093 4.00124031 -19 3 C-16.93854893 2.931009 -14.87498599 2.91532273 -12.8125 2.9375 C-11.18248047 2.95103516 -11.18248047 2.95103516 -9.51953125 2.96484375 C-8.68808594 2.97644531 -7.85664063 2.98804687 -7 3 C-7 2.34 -7 1.68 -7 1 C-4.53721199 -0.231394 -2.7204945 -0.07159196 0 0 Z M-34.04296875 22.88671875 C-37.74198379 24.2793466 -41.48225916 25.49568566 -45.25 26.6875 C-45.91185303 26.90196777 -46.57370605 27.11643555 -47.25561523 27.33740234 C-56.31832902 30.18448279 -65.45794509 30.34063574 -74.875 30.625 C-75.59463928 30.64712555 -76.31427856 30.6692511 -77.0557251 30.69204712 C-111.18238498 31.69080989 -145.14202542 29.21272393 -179 25 C-180.72992918 33.27764427 -182.16634763 41.59787173 -183.5625 49.9375 C-183.78357422 51.23107422 -184.00464844 52.52464844 -184.23242188 53.85742188 C-184.44576172 55.13037109 -184.65910156 56.40332031 -184.87890625 57.71484375 C-185.0704126 58.85042725 -185.26191895 59.98601074 -185.45922852 61.15600586 C-186.76884643 70.46523114 -187.16847294 79.67163351 -187.203125 89.06640625 C-187.20882507 90.29874496 -187.21452515 91.53108368 -187.22039795 92.80076599 C-187.22980031 95.4035457 -187.23636285 98.00633705 -187.24023438 100.60913086 C-187.24984416 104.49941183 -187.28087473 108.38914163 -187.3125 112.27929688 C-187.38692162 129.87007821 -186.13008605 146.95544422 -183.49293518 164.34329224 C-182.23202711 172.76021141 -181.39765519 181.13103474 -180.87109375 189.625 C-180.82861448 190.30063995 -180.78613522 190.97627991 -180.7423687 191.6723938 C-179.64586147 209.55210847 -179.88261245 227.42728598 -180.0894165 245.33013916 C-180.14230653 249.91557297 -180.18326777 254.50077344 -180.20675468 259.0864563 C-180.2222108 261.18939323 -180.25506878 263.29157356 -180.28858948 265.39428711 C-180.324882 272.33313311 -180.03509789 277.71340328 -177 284 C-117.12968244 286.42734951 -58.57243599 283.81162611 1 278 C1.01497592 276.41596348 1.02560127 274.83188548 1.03442383 273.24780273 C1.04081375 272.36567612 1.04720367 271.4835495 1.05378723 270.57469177 C0.97861517 266.97634922 0.3776254 263.58505912 -0.3125 260.0625 C-3.41038237 242.8637838 -4.94264634 225.36324208 -6.26586914 207.94848633 C-6.63663586 203.29223413 -7.20485839 198.75786334 -8.02294922 194.15795898 C-9.21797419 186.46808606 -9.23489163 178.87624492 -9.16015625 171.12109375 C-9.15385699 169.61817317 -9.14862663 168.11524777 -9.14439392 166.61231995 C-9.13121492 162.68273023 -9.10687376 158.75330185 -9.07904053 154.8237915 C-8.83206605 129.92482988 -8.83206605 129.92482988 -9.19921875 105.03125 C-9.20728043 104.2462059 -9.2153421 103.4611618 -9.22364807 102.65232849 C-9.38081448 98.98033534 -9.70027346 97.31913282 -12.25488281 94.59912109 C-14.77701508 93.04586273 -17.23185769 92.03537935 -20 91 C-22.21878059 89.45691717 -23.36070284 88.20457204 -25 86 C-25 81.98824493 -23.10426496 79.31826397 -21 76 C-20.566875 75.05125 -20.13375 74.1025 -19.6875 73.125 C-17.40496172 68.89807726 -14.40243139 64.2012157 -10 62 C-9.85449758 57.84157169 -9.71226076 53.68304681 -9.57275391 49.52441406 C-9.52509873 48.11650752 -9.47662679 46.70862833 -9.42724609 45.30078125 C-9.09687589 35.86163259 -8.93322901 26.44624012 -9 17 C-17.34365238 17 -26.33342523 19.89305792 -34.04296875 22.88671875 Z " fill="#000000" transform="translate(308,95)"/>
<path d="M0 0 C5.17072666 4.45591044 7.58213584 9.91833939 9.75 16.25 C10.04656494 17.08756836 10.34312988 17.92513672 10.64868164 18.78808594 C13.74877732 27.77462626 17.07291617 37.97934588 13.85546875 47.32421875 C10.33869231 54.41542371 6.59374106 59.93529559 1.06274414 65.59594727 C-3.69347768 70.52786932 -6.87397944 75.94487356 -10 82 C-10.46019531 82.88945312 -10.92039062 83.77890625 -11.39453125 84.6953125 C-12.23678179 86.35945708 -13.06687582 88.02982807 -13.8828125 89.70703125 C-14.58676113 91.1518489 -15.30842635 92.5882947 -16.0546875 94.01171875 C-22.12144776 105.60440406 -24.24378279 117.1609878 -26 130 C-28.31 130.33 -30.62 130.66 -33 131 C-33.26554687 130.05898438 -33.53109375 129.11796875 -33.8046875 128.1484375 C-34.15789062 126.90320313 -34.51109375 125.65796875 -34.875 124.375 C-35.22304688 123.14523437 -35.57109375 121.91546875 -35.9296875 120.6484375 C-36.28289062 119.44445312 -36.63609375 118.24046875 -37 117 C-37.31195313 115.89914062 -37.62390625 114.79828125 -37.9453125 113.6640625 C-38.82386194 110.70615889 -38.82386194 110.70615889 -42 109 C-43.58432488 98.76611768 -41.79353747 87.42224765 -35.81640625 78.87890625 C-32.90870055 75.58690101 -29.53661144 73.82741259 -25.625 71.9375 C-24.28488886 71.25175643 -22.94632 70.56298982 -21.609375 69.87109375 C-20.97966797 69.54737793 -20.34996094 69.22366211 -19.70117188 68.89013672 C-13.38390001 65.58462965 -8.86958356 61.62797619 -6 55 C-4.67264408 46.74089653 -9.25328173 40.90893409 -13.8125 34.4375 C-21.46934144 23.96194864 -21.46934144 23.96194864 -33 19 C-40.98884145 19.0904885 -46.35423807 22.62411197 -52 28 C-53.67938415 29.79086361 -55.27147786 31.60580008 -56.80859375 33.51953125 C-58 35 -58 35 -60 37 C-61.65 36.34 -63.3 35.68 -65 35 C-65.08187055 33.43839515 -65.13958275 31.87551517 -65.1875 30.3125 C-65.22230469 29.44238281 -65.25710938 28.57226562 -65.29296875 27.67578125 C-64.92122208 24.28049499 -64.13969079 22.67352845 -62 20 C-59.65524239 18.53159555 -57.48886184 17.34329108 -55 16.1875 C-54.30447021 15.85274658 -53.60894043 15.51799316 -52.89233398 15.1730957 C-24.6650104 1.77861133 -24.6650104 1.77861133 -11.25 -0.25 C-10.18265625 -0.42015625 -9.1153125 -0.5903125 -8.015625 -0.765625 C-2.92986799 -1.16089109 -2.92986799 -1.16089109 0 0 Z " fill="#FFFFFF" transform="translate(375,150)"/>
<path d="M0 0 C0.92876953 -0.01546875 1.85753906 -0.0309375 2.81445312 -0.046875 C8.5704813 -0.01410046 12.03224463 0.61794154 16.5625 4.5 C21.55301558 10.03003078 21.855856 14.31893097 21.77734375 21.55078125 C21.41118939 26.57708195 19.7103983 29.28832957 16.3125 32.875 C12.83356045 34.93073701 10.54082419 34.8753136 6.5625 34.5 C5.9025 34.17 5.2425 33.84 4.5625 33.5 C4.459375 34.263125 4.35625 35.02625 4.25 35.8125 C3.50215597 38.73589031 2.95585648 39.72714335 0.5625 41.5 C-1.25 42.375 -1.25 42.375 -3.4375 42.5 C-7.33685989 40.94025604 -9.08235515 40.03271727 -11.4375 36.5 C-11.51655064 34.16800612 -11.52548769 31.83167378 -11.4375 29.5 C-12.22125 29.2525 -13.005 29.005 -13.8125 28.75 C-16.89792551 27.28074976 -17.25269872 26.61618967 -18.4375 23.5 C-19.26191904 16.60485894 -18.58269063 10.68192641 -15.4375 4.5 C-10.95854055 -0.50537102 -6.27487931 -0.1040754 0 0 Z " fill="#020202" transform="translate(177.4375,287.5)"/>
<path d="M0 0 C1.14311646 0.01595215 1.14311646 0.01595215 2.30932617 0.03222656 C9.57998587 0.27609966 15.34810353 1.94963935 21.3125 6.1875 C25.72592908 12.46814907 28.15980239 18.77384169 26.9375 26.5 C25.05832857 31.09353016 21.82736112 33.58260416 17.9375 36.5 C12.88326102 38.18474633 8.65294468 38.08019314 3.8125 35.875 C-3.44710491 31.84654872 -6.98516681 24.96845093 -10.0625 17.5 C-11.27420866 12.54714086 -12.23261562 7.06160446 -10.05078125 2.28515625 C-7.02702355 -0.42969103 -3.86170088 -0.09509319 0 0 Z " fill="#000000" transform="translate(345.0625,306.5)"/>
<path d="M0 0 C4.10727882 4.24890912 4.20678451 8.80328089 4.25 14.4375 C4.27578125 15.75621094 4.3015625 17.07492188 4.328125 18.43359375 C3.97672229 22.25300652 3.40640359 23.19058221 1 26 C-0.0975261 28.81644565 -1.01193345 31.66209313 -1.9375 34.5390625 C-3 37 -3 37 -6 39 C-8.875 39.375 -8.875 39.375 -12 39 C-12.845625 38.319375 -13.69125 37.63875 -14.5625 36.9375 C-15.7690625 35.9784375 -15.7690625 35.9784375 -17 35 C-17.825 35.185625 -18.65 35.37125 -19.5 35.5625 C-22 36 -22 36 -24.8125 34.0625 C-27.0512709 30.92822074 -27.68803908 29.15969071 -27.41796875 25.3203125 C-26.48219333 20.12544711 -25.25731563 14.34572224 -21.50390625 10.4453125 C-19.13332083 8.82551099 -16.71576032 7.90525344 -14 7 C-13.360625 6.030625 -12.72125 5.06125 -12.0625 4.0625 C-8.62229509 -1.04568304 -5.93061904 -1.76656737 0 0 Z " fill="#000000" transform="translate(182,219)"/>
<path d="M0 0 C2.625 -0.1875 2.625 -0.1875 5 0 C5.226875 0.61875 5.45375 1.2375 5.6875 1.875 C7.42148712 4.68240771 8.84570354 5.17387474 12 6 C14.98710343 5.81896343 15.86068097 5.13931903 18 3 C20.13477642 0.86522358 20.99990819 0.09091187 24 0 C27.14144264 1.53241105 29.76505588 3.29454133 32 6 C32 6.66 32 7.32 32 8 C34.28836222 8.41986946 34.28836222 8.41986946 37 8 C39.70848923 5.62494782 39.70848923 5.62494782 42 3 C46.99382227 0.50308887 54.77065607 3.26303256 60.0546875 4.3046875 C62.40126782 5.14342504 63.51315977 6.00338598 65 8 C64.66666667 14.33333333 64.66666667 14.33333333 62 17 C57.94006819 17.32479455 54.75009851 16.9681233 50.9375 15.6875 C47.25820446 14.62858897 47.25820446 14.62858897 45.23046875 15.9453125 C43.39387631 17.46702573 43.39387631 17.46702573 41 20 C37.44952121 21.77523939 33.74375615 20.99675283 30 20 C27.0795269 18.2679237 24.53207976 16.25610376 22 14 C21.030625 14.53625 20.06125 15.0725 19.0625 15.625 C15.12578134 17.2871701 12.29124939 17.06245488 8.21875 15.92578125 C4.44240528 14.35008812 1.55154685 12.20268343 -1 9 C-2.0625 5.8125 -2.0625 5.8125 -2 3 C-1.34 2.01 -0.68 1.02 0 0 Z " fill="#000000" transform="translate(213,235)"/>
<path d="M0 0 C0.88945312 -0.22236328 0.88945312 -0.22236328 1.796875 -0.44921875 C8.88281977 -2.22070494 16.38433774 -1.67949938 22.96875 1.34765625 C25.60842576 2.19539827 27.8624101 2.05260791 30.625 1.9375 C35.63029703 1.79211793 38.13926789 2.61008888 42 6 C42.763125 6.61875 43.52625 7.2375 44.3125 7.875 C46.54957666 10.69205949 47.07349161 12.398911 47 16 C44.5625 18.875 44.5625 18.875 42 21 C37.30591612 19.47759442 37.30591612 19.47759442 35.69140625 16.95703125 C34.12732121 14.73704107 34.12732121 14.73704107 31.328125 14.49609375 C30.31234375 14.47675781 29.2965625 14.45742188 28.25 14.4375 C21.62140025 14.11919989 21.62140025 14.11919989 18.3125 12.4375 C13.21452696 10.22517208 8.25521014 10.24826329 3 12 C1.60560336 12.06665376 0.20830125 12.08538199 -1.1875 12.0625 C-3.0746875 12.0315625 -3.0746875 12.0315625 -5 12 C-5.268125 12.78375 -5.53625 13.5675 -5.8125 14.375 C-7 17 -7 17 -10 19 C-12.875 19.5 -12.875 19.5 -16 19 C-18.9375 16.3125 -18.9375 16.3125 -21 13 C-20.8125 10.125 -20.8125 10.125 -20 8 C-16.98968256 7.06576355 -16.13349732 6.95550089 -13 8 C-12.38125 6.329375 -12.38125 6.329375 -11.75 4.625 C-10.73271304 2.28760577 -10.17661106 1.14616088 -8.1875 -0.5 C-5.26014278 -1.16911022 -2.9320029 -0.54975054 0 0 Z " fill="#000000" transform="translate(237,290)"/>
<path d="M0 0 C1.875 2.0625 1.875 2.0625 3 4 C5.97370714 3.39084854 8.06301759 2.40965074 10.625 0.8125 C15.00389705 -1.4792592 17.97866416 -0.8333793 22.60546875 0.51953125 C25.40850149 1.08196686 27.23197272 0.64273079 30 0 C31.72671135 -0.11131722 33.45725368 -0.1744119 35.1875 -0.1875 C36.47720703 -0.20876953 36.47720703 -0.20876953 37.79296875 -0.23046875 C40 0 40 0 42 2 C41.75 5.5625 41.75 5.5625 41 9 C37.94461452 10.52769274 34.6628364 10.73736463 31.3125 11.1875 C30.61705078 11.29513672 29.92160156 11.40277344 29.20507812 11.51367188 C25.33487265 12.030422 23.05146454 12.01480994 19.19921875 10.90625 C16.16281378 9.67980065 16.16281378 9.67980065 14.03125 10.86328125 C13.5259375 11.34152344 13.020625 11.81976563 12.5 12.3125 C9.07112489 15.11864218 6.53856089 16 2 16 C-0.75 14.6875 -0.75 14.6875 -3 13 C-3.99 12.34 -4.98 11.68 -6 11 C-6.60134766 11.6496875 -6.60134766 11.6496875 -7.21484375 12.3125 C-10.40014795 15.43279799 -12.88151527 17.46525095 -17.4375 17.75 C-22.73940311 17.37777735 -26.39056144 14.76828916 -30 11 C-31.5 8.125 -31.5 8.125 -32 6 C-30.68 4.68 -29.36 3.36 -28 2 C-25.28626162 2.97996108 -23.18373822 3.84966873 -20.9375 5.6875 C-19.12383308 7.2254965 -19.12383308 7.2254965 -17.10546875 6.76953125 C-14.67460377 5.88107039 -13.27748843 4.74324931 -11.375 3 C-7.31706799 -0.68580724 -5.52851894 -1.46674992 0 0 Z " fill="#000000" transform="translate(229,170)"/>
<path d="M0 0 C5.94913744 3.61614237 7.20152605 7.49690877 9 14 C9.391875 14.86625 9.78375 15.7325 10.1875 16.625 C11.51738945 20.51236915 11.76345502 24.05200911 10.2421875 27.93359375 C8.88258805 30.50826829 7.47908963 32.62003236 5.1875 34.4375 C0.50051251 35.64272535 -2.84585364 35.58838834 -7.1875 33.375 C-11.7504054 29.52187989 -14.09277392 25.86672865 -15 20 C-15.36120919 15.16535387 -15.6245167 10.63068248 -13.875 6.0625 C-9.87925602 1.66718162 -6.07169056 -1.13844198 0 0 Z " fill="#000000" transform="translate(166,161)"/>
<path d="M0 0 C3.51387796 -0.31944345 5.37550387 -0.43883512 8.3125 1.625 C10.31233339 4.43958033 10.69029053 6.59319587 11 10 C9.3125 10.8125 9.3125 10.8125 7 11 C2.96006154 7.82576264 1.26430927 4.94229987 0 0 Z " fill="#FFFFFF" transform="translate(348,320)"/>
</svg>
