<?xml version="1.0" encoding="UTF-8"?>
<svg version="1.1" xmlns="http://www.w3.org/2000/svg" width="500" height="500">
<path d="M0 0 C1.06025391 -0.01611328 2.12050781 -0.03222656 3.21289062 -0.04882812 C17.13245938 -0.05720836 30.12894038 3.5615568 43.25 7.9375 C43.90259796 8.15393158 44.55519592 8.37036316 45.22756958 8.59335327 C55.25857616 11.95053625 63.83026475 15.77654786 72.1875 22.3125 C73.64311665 23.29570071 75.10095363 24.27563575 76.5625 25.25 C77.42875 25.930625 78.295 26.61125 79.1875 27.3125 C79.1875 27.9725 79.1875 28.6325 79.1875 29.3125 C79.80625 29.621875 80.425 29.93125 81.0625 30.25 C82.4375 30.9375 83.8125 31.625 85.1875 32.3125 C85.1875 32.9725 85.1875 33.6325 85.1875 34.3125 C85.991875 34.6528125 85.991875 34.6528125 86.8125 35 C90.01210161 36.76820089 92.47787223 38.84920203 95.1875 41.3125 C95.1875 41.9725 95.1875 42.6325 95.1875 43.3125 C95.8475 43.3125 96.5075 43.3125 97.1875 43.3125 C98.1775 45.7875 98.1775 45.7875 99.1875 48.3125 C99.8475 48.3125 100.5075 48.3125 101.1875 48.3125 C102.4765625 49.9921875 102.4765625 49.9921875 103.8125 52.1875 C104.25851562 52.90679687 104.70453125 53.62609375 105.1640625 54.3671875 C106.1875 56.3125 106.1875 56.3125 106.1875 58.3125 C106.8475 58.3125 107.5075 58.3125 108.1875 58.3125 C109.17342155 60.37177956 110.15097494 62.43506688 111.125 64.5 C111.67027344 65.64855469 112.21554687 66.79710937 112.77734375 67.98046875 C113.98210131 70.82716736 114.73526271 73.27277845 115.1875 76.3125 C115.64898437 75.33152344 116.11046875 74.35054688 116.5859375 73.33984375 C121.06152533 64.01492623 126.1642469 55.50803088 132.06640625 47.02490234 C133.22075783 45.26170069 134.21048302 43.45591736 135.203125 41.59765625 C141.67410232 30.88487687 157.00658785 27.91493535 168.1875 24.3125 C169.1775 23.9825 170.1675 23.6525 171.1875 23.3125 C191.61690548 21.60102276 214.25767827 23.17692186 230.81640625 36.4140625 C233.37201723 38.63070272 235.79369876 40.92279072 238.1875 43.3125 C238.84878906 43.9621875 239.51007813 44.611875 240.19140625 45.28125 C249.29453386 54.87590717 252.14342141 67.81392975 255.1875 80.3125 C255.48817383 81.54661621 255.48817383 81.54661621 255.79492188 82.80566406 C260.43331336 102.38575928 259.4040722 118.94571277 255.84228516 138.66992188 C255.25520664 141.93584713 254.68900738 145.20441738 254.12945557 148.47511292 C253.63807616 151.32696889 253.13244043 154.17617268 252.62310791 157.02487183 C252.37838741 158.40234041 252.13764705 159.78052331 251.90130615 161.15945435 C249.54210569 174.83362862 246.32273691 186.33162297 235.5 195.4375 C231.99264464 198.46292867 228.80752763 201.71281194 225.75 205.1875 C224.90566406 206.13367188 224.06132812 207.07984375 223.19140625 208.0546875 C218.8841133 215.05718715 220.05631219 223.89136327 220.125 231.875 C220.13176758 233.38803711 220.13176758 233.38803711 220.13867188 234.93164062 C220.15033231 237.39199147 220.16669622 239.85221239 220.1875 242.3125 C221.08210938 242.82039062 221.97671875 243.32828125 222.8984375 243.8515625 C225.41291111 245.28077981 227.92252363 246.7181583 230.4296875 248.16015625 C232.65395025 249.43941579 234.88460002 250.69618237 237.1328125 251.93359375 C237.97585938 252.40925781 238.81890625 252.88492188 239.6875 253.375 C240.4196875 253.77847656 241.151875 254.18195313 241.90625 254.59765625 C248.12265861 259.27060724 251.09671406 264.16744844 252.5 271.75 C252.65895752 272.52698242 252.81791504 273.30396484 252.98168945 274.10449219 C254.24625776 280.67039189 254.7713864 287.18500235 255.01171875 293.859375 C255.11670975 297.30660614 255.11670975 297.30660614 255.76953125 300.63671875 C256.2587379 303.76855568 255.59359963 304.58818197 254.1875 307.3125 C254.39375 308.116875 254.6 308.92125 254.8125 309.75 C255.1875 312.3125 255.1875 312.3125 253.875 315.125 C250.32622714 318.01353605 248.24976476 317.52959288 243.828125 317.296875 C240.36142853 317.317388 237.71745744 318.33203903 234.49609375 319.515625 C204.59028401 329.83844258 161.27518641 324.46149267 130.55712891 320.32885742 C125.03755368 319.59264122 119.75673606 319.16000901 114.1875 319.3125 C114.50203125 319.81136719 114.8165625 320.31023437 115.140625 320.82421875 C120.47905674 329.78056357 124.35503845 339.76699139 123.1875 350.3125 C123.12820313 351.158125 123.06890625 352.00375 123.0078125 352.875 C122.45286639 357.42285107 121.60445092 360.58235494 118.0625 363.625 C99.63730237 375.34408966 73.341917 373.98039638 52.375 375.4375 C51.09625 375.52687836 49.8175 375.61625671 48.5 375.70834351 C32.89640999 376.78267506 17.3322056 377.69637803 1.6875 377.625 C1.00456879 377.62236145 0.32163757 377.6197229 -0.38198853 377.61700439 C-6.89714404 377.57449017 -13.38305879 377.35441217 -19.88409424 376.9256134 C-28.32379813 376.37751495 -36.71437889 376.2589357 -45.171875 376.3203125 C-46.34137695 376.32816269 -47.51087891 376.33601288 -48.71582031 376.34410095 C-53.56981127 376.38068872 -58.42358846 376.42327858 -63.27734375 376.48388672 C-66.86721596 376.52614844 -70.45682267 376.54961048 -74.046875 376.5703125 C-75.14062439 376.58893341 -76.23437378 376.60755432 -77.36126709 376.6267395 C-82.90334942 376.64546091 -87.0840145 376.58156415 -91.8125 373.3125 C-92.1425 372.6525 -92.4725 371.9925 -92.8125 371.3125 C-92.92207031 371.92738281 -93.03164062 372.54226563 -93.14453125 373.17578125 C-93.30308594 373.98402344 -93.46164063 374.79226563 -93.625 375.625 C-93.77582031 376.42550781 -93.92664063 377.22601563 -94.08203125 378.05078125 C-94.90528733 380.59979341 -95.72397362 381.66607044 -97.8125 383.3125 C-101.44491651 384.49698364 -103.08793558 384.65831483 -106.5625 383 C-110.25345254 378.59136224 -110.92235951 373.62500299 -110.73388672 367.94213867 C-104.64834686 305.96183723 -104.64834686 305.96183723 -83.8125 283.3125 C-83.07515625 282.48363281 -82.3378125 281.65476562 -81.578125 280.80078125 C-72.31413184 270.9161611 -61.77771933 264.35858043 -48.87841797 260.33886719 C-46.69291716 259.66353188 -46.69291716 259.66353188 -43.8125 258.3125 C-42.4404409 255.54015013 -42.8125 253.49443995 -42.8125 250.3125 C-43.69550781 250.22742188 -44.57851562 250.14234375 -45.48828125 250.0546875 C-51.45544999 248.72241716 -55.36127925 244.31859868 -59.8125 240.3125 C-60.73804688 239.49394531 -61.66359375 238.67539062 -62.6171875 237.83203125 C-70.36860682 230.57468256 -75.54084399 222.44811582 -80.8125 213.3125 C-81.55423919 212.05051764 -82.29641264 210.78879041 -83.0390625 209.52734375 C-86.41088163 203.75362766 -89.6421405 197.9240826 -92.53515625 191.89453125 C-93.46756017 190.0097637 -94.46392685 188.15625513 -95.49609375 186.32421875 C-109.60383773 160.50553031 -106.53523778 133.11449164 -103.1875 105 C-103.07006439 103.97973724 -102.95262878 102.95947449 -102.83163452 101.90829468 C-100.81293032 84.69302732 -97.97607002 66.92170367 -89.0625 51.75 C-88.48435547 50.70682617 -88.48435547 50.70682617 -87.89453125 49.64257812 C-86.30073924 46.7886426 -84.62602117 44.03278176 -82.8125 41.3125 C-82.1525 41.3125 -81.4925 41.3125 -80.8125 41.3125 C-80.565 40.59578125 -80.3175 39.8790625 -80.0625 39.140625 C-73.36717327 23.99244826 -57.58762359 13.50085335 -42.8125 7.3125 C-28.98342078 2.3055692 -14.68306483 -0.04414632 0 0 Z M103.84765625 200.53515625 C100.97910446 203.83854963 98.25073241 207.17905909 95.73828125 210.76171875 C90.18094354 218.67496296 84.43001882 225.36466091 77.1328125 231.7265625 C68.61999545 239.20068039 66.27575177 244.13524746 65.1875 255.3125 C64.976562 260.64587555 65.06423623 265.9779179 65.1875 271.3125 C66.0228125 271.20808594 66.0228125 271.20808594 66.875 271.1015625 C72.7271465 270.68637643 75.90220002 271.75888308 80.3984375 275.51171875 C83.0698629 278.20064257 85.05899613 281.18234725 87.1875 284.3125 C87.8475 284.3125 88.5075 284.3125 89.1875 284.3125 C89.414375 284.993125 89.64125 285.67375 89.875 286.375 C91.54322357 290.10864324 93.74479608 293.03413421 96.1875 296.3125 C97.1775 295.8175 97.1775 295.8175 98.1875 295.3125 C98.93414647 292.33269764 98.93414647 292.33269764 99.1875 289.3125 C98.8575 288.9825 98.5275 288.6525 98.1875 288.3125 C96.83084174 274.64803193 97.45443251 262.91210123 105.1875 251.3125 C105.1875 250.3225 105.1875 249.3325 105.1875 248.3125 C105.8475 248.3125 106.5075 248.3125 107.1875 248.3125 C108.06383276 247.28517747 108.88887211 246.21382698 109.6875 245.125 C115.37413802 238.30929584 123.44490974 235.95716505 131.83984375 233.98828125 C134.42619562 233.37212525 134.42619562 233.37212525 137.1875 231.3125 C135.56579621 230.30716333 133.94002763 229.30838093 132.3125 228.3125 C131.40757812 227.755625 130.50265625 227.19875 129.5703125 226.625 C127.34892533 225.15167671 127.34892533 225.15167671 125.1875 225.3125 C124.96707031 224.78011719 124.74664062 224.24773437 124.51953125 223.69921875 C122.72090194 220.47645479 120.30875497 217.87317697 117.875 215.125 C113.57605069 210.1778131 109.98113162 205.28562396 107.1875 199.3125 C105.13141484 199.08781164 105.13141484 199.08781164 103.84765625 200.53515625 Z M-95.8125 365.3125 C-94.8125 367.3125 -94.8125 367.3125 -94.8125 367.3125 Z M-94.8125 367.3125 C-93.8125 369.3125 -93.8125 369.3125 -93.8125 369.3125 Z " fill="#FEFEFE" transform="translate(178.8125,86.6875)"/>
<path d="M0 0 C2.5728699 0.89622127 5.16690727 1.71559169 7.76318359 2.54150391 C24.16164838 7.86520113 35.77447831 15.02399674 48.58154297 26.38378906 C49.88490735 27.52855822 51.21392818 28.64401882 52.54833984 29.75244141 C57.53002417 33.89419058 61.37518653 38.46865584 65.12646484 43.74072266 C65.76068359 44.58634766 66.39490234 45.43197266 67.04833984 46.30322266 C71.9767238 53.30885936 73.47785579 59.32155849 74.12646484 67.74072266 C74.29832948 69.79931727 74.47020552 71.85791093 74.64208984 73.91650391 C74.91756455 77.27140101 75.18516073 80.6261498 75.43041992 83.98339844 C75.50671631 85.02608887 75.5830127 86.0687793 75.66162109 87.14306641 C75.76035522 88.54286743 75.76035522 88.54286743 75.86108398 89.97094727 C76.09737349 92.78622367 76.09737349 92.78622367 76.63134766 95.72875977 C80.24659788 117.72153199 81.01085922 152.15934178 67.82568359 171.58837891 C65.39221411 174.67077359 62.80342139 177.57962805 60.13037109 180.45556641 C58.07613718 182.79811385 56.3601501 185.21651687 54.62646484 187.80322266 C50.26742207 194.17869338 45.22704176 199.32355884 38.93896484 203.80322266 C30.69598297 209.88040145 28.82414763 216.818455 27.12646484 226.74072266 C26.28314101 232.46369265 25.94386846 238.0218611 25.93896484 243.80322266 C25.92671875 244.56699219 25.91447266 245.33076172 25.90185547 246.11767578 C25.88923783 251.03435078 26.4223834 255.11110279 28.12646484 259.74072266 C31.87111646 262.46410565 35.5980513 261.67736662 39.94287109 261.02978516 C42.12646484 260.74072266 42.12646484 260.74072266 46.12646484 260.74072266 C51.65616342 265.44561325 55.84721196 271.93302178 60.02880859 277.81884766 C61.5363389 279.91872227 63.0610362 281.98515967 64.63037109 284.03759766 C65.25407593 284.85490356 65.25407593 284.85490356 65.89038086 285.6887207 C67.07058139 287.23023089 68.25467779 288.76875602 69.43896484 290.30712891 C71.12646484 292.74072266 71.12646484 292.74072266 71.12646484 294.74072266 C71.70267578 294.93408203 72.27888672 295.12744141 72.87255859 295.32666016 C76.05462114 297.32303215 77.44447246 300.14747105 79.18896484 303.36572266 C79.71502319 304.31741333 79.71502319 304.31741333 80.25170898 305.28833008 C84.27071605 312.67555787 86.76599741 319.2932468 87.12646484 327.74072266 C87.18833984 328.83384766 87.25021484 329.92697266 87.31396484 331.05322266 C85.89549322 334.26344791 85.19095538 334.5326195 82.06396484 335.92822266 C65.84228071 341.20642791 48.83593608 341.84266711 31.93896484 342.92822266 C30.62586334 343.01510345 29.31276184 343.10198425 27.95986938 343.1914978 C10.24895227 344.35578935 -7.43233451 345.10915455 -25.18603516 345.05322266 C-26.09340424 345.05067474 -27.00077332 345.04812683 -27.93563843 345.04550171 C-35.98433954 345.00612008 -43.98723426 344.85405432 -52.01416016 344.22509766 C-63.09414506 343.40261178 -74.20761646 343.63560071 -85.31103516 343.67822266 C-87.60335188 343.68324931 -89.89566968 343.68781015 -92.18798828 343.69189453 C-97.74986099 343.70280404 -103.31169293 343.71944914 -108.87353516 343.74072266 C-109.53353516 341.43072266 -110.19353516 339.12072266 -110.87353516 336.74072266 C-114.30780136 335.88215611 -116.49036028 335.76480683 -119.87353516 336.74072266 C-118.29367724 309.38423564 -113.15083053 284.27033015 -92.87353516 264.74072266 C-92.20580078 264.05365234 -91.53806641 263.36658203 -90.85009766 262.65869141 C-85.37105408 257.35303529 -78.80937054 254.71441016 -71.87353516 251.74072266 C-63.157547 248.15791121 -63.157547 248.15791121 -57.87353516 240.74072266 C-56.7076971 232.87751701 -58.48006242 226.76927461 -61.87353516 219.74072266 C-62.28216797 218.81259766 -62.69080078 217.88447266 -63.11181641 216.92822266 C-64.99369339 212.08117845 -64.99369339 212.08117845 -68.71728516 208.83837891 C-71.50553782 208.71209935 -73.37458892 209.56066471 -75.87353516 210.74072266 C-87.01085441 196.19035396 -95.86127228 180.8963416 -103.98657227 164.49707031 C-104.76967332 162.94638797 -105.59948836 161.41948783 -106.43603516 159.89697266 C-115.65388644 142.86398659 -117.10998503 124.1585052 -114.77197266 105.22119141 C-114.59355331 103.75230217 -114.59355331 103.75230217 -114.41152954 102.2537384 C-114.15764785 100.18851202 -113.90030039 98.12370901 -113.63964844 96.05932617 C-113.25454699 92.97635106 -112.89372746 89.89116382 -112.53369141 86.80517578 C-109.79058777 64.33366628 -104.83600591 42.42006309 -89.87353516 24.74072266 C-89.34244141 24.08974609 -88.81134766 23.43876953 -88.26416016 22.76806641 C-67.82356831 -1.56373902 -30.08924358 -10.61087626 0 0 Z " fill="#FFFFFF" transform="translate(204.87353515625,107.25927734375)"/>
<path d="M0 0 C1.06025391 -0.01611328 2.12050781 -0.03222656 3.21289062 -0.04882812 C17.13245938 -0.05720836 30.12894038 3.5615568 43.25 7.9375 C43.90259796 8.15393158 44.55519592 8.37036316 45.22756958 8.59335327 C55.25857616 11.95053625 63.83026475 15.77654786 72.1875 22.3125 C73.64311665 23.29570071 75.10095363 24.27563575 76.5625 25.25 C77.42875 25.930625 78.295 26.61125 79.1875 27.3125 C79.1875 27.9725 79.1875 28.6325 79.1875 29.3125 C79.80625 29.621875 80.425 29.93125 81.0625 30.25 C82.4375 30.9375 83.8125 31.625 85.1875 32.3125 C85.1875 32.9725 85.1875 33.6325 85.1875 34.3125 C85.991875 34.6528125 85.991875 34.6528125 86.8125 35 C90.01210161 36.76820089 92.47787223 38.84920203 95.1875 41.3125 C95.1875 41.9725 95.1875 42.6325 95.1875 43.3125 C95.8475 43.3125 96.5075 43.3125 97.1875 43.3125 C98.1775 45.7875 98.1775 45.7875 99.1875 48.3125 C99.8475 48.3125 100.5075 48.3125 101.1875 48.3125 C102.4765625 49.9921875 102.4765625 49.9921875 103.8125 52.1875 C104.25851562 52.90679687 104.70453125 53.62609375 105.1640625 54.3671875 C106.1875 56.3125 106.1875 56.3125 106.1875 58.3125 C106.8475 58.3125 107.5075 58.3125 108.1875 58.3125 C109.17342155 60.37177956 110.15097494 62.43506688 111.125 64.5 C111.67027344 65.64855469 112.21554687 66.79710937 112.77734375 67.98046875 C113.98210131 70.82716736 114.73526271 73.27277845 115.1875 76.3125 C115.64898437 75.33152344 116.11046875 74.35054688 116.5859375 73.33984375 C121.06152533 64.01492623 126.1642469 55.50803088 132.06640625 47.02490234 C133.22075783 45.26170069 134.21048302 43.45591736 135.203125 41.59765625 C141.67410232 30.88487687 157.00658785 27.91493535 168.1875 24.3125 C169.1775 23.9825 170.1675 23.6525 171.1875 23.3125 C191.61690548 21.60102276 214.25767827 23.17692186 230.81640625 36.4140625 C233.37201723 38.63070272 235.79369876 40.92279072 238.1875 43.3125 C238.84878906 43.9621875 239.51007813 44.611875 240.19140625 45.28125 C249.29453386 54.87590717 252.14342141 67.81392975 255.1875 80.3125 C255.48817383 81.54661621 255.48817383 81.54661621 255.79492188 82.80566406 C260.43331336 102.38575928 259.4040722 118.94571277 255.84228516 138.66992188 C255.25520664 141.93584713 254.68900738 145.20441738 254.12945557 148.47511292 C253.63807616 151.32696889 253.13244043 154.17617268 252.62310791 157.02487183 C252.37838741 158.40234041 252.13764705 159.78052331 251.90130615 161.15945435 C249.54210569 174.83362862 246.32273691 186.33162297 235.5 195.4375 C231.99264464 198.46292867 228.80752763 201.71281194 225.75 205.1875 C224.90566406 206.13367188 224.06132812 207.07984375 223.19140625 208.0546875 C218.8841133 215.05718715 220.05631219 223.89136327 220.125 231.875 C220.13176758 233.38803711 220.13176758 233.38803711 220.13867188 234.93164062 C220.15033231 237.39199147 220.16669622 239.85221239 220.1875 242.3125 C221.08210938 242.82039062 221.97671875 243.32828125 222.8984375 243.8515625 C225.41291111 245.28077981 227.92252363 246.7181583 230.4296875 248.16015625 C232.65395025 249.43941579 234.88460002 250.69618237 237.1328125 251.93359375 C237.97585938 252.40925781 238.81890625 252.88492188 239.6875 253.375 C240.4196875 253.77847656 241.151875 254.18195313 241.90625 254.59765625 C248.12265861 259.27060724 251.09671406 264.16744844 252.5 271.75 C252.65895752 272.52698242 252.81791504 273.30396484 252.98168945 274.10449219 C254.24625776 280.67039189 254.7713864 287.18500235 255.01171875 293.859375 C255.11670975 297.30660614 255.11670975 297.30660614 255.76953125 300.63671875 C256.2587379 303.76855568 255.59359963 304.58818197 254.1875 307.3125 C254.39375 308.116875 254.6 308.92125 254.8125 309.75 C255.1875 312.3125 255.1875 312.3125 253.875 315.125 C250.32622714 318.01353605 248.24976476 317.52959288 243.828125 317.296875 C240.36142853 317.317388 237.71745744 318.33203903 234.49609375 319.515625 C204.59028401 329.83844258 161.27518641 324.46149267 130.55712891 320.32885742 C125.03755368 319.59264122 119.75673606 319.16000901 114.1875 319.3125 C114.50203125 319.81136719 114.8165625 320.31023437 115.140625 320.82421875 C120.47905674 329.78056357 124.35503845 339.76699139 123.1875 350.3125 C123.12820313 351.158125 123.06890625 352.00375 123.0078125 352.875 C122.45286639 357.42285107 121.60445092 360.58235494 118.0625 363.625 C99.63730237 375.34408966 73.341917 373.98039638 52.375 375.4375 C51.09625 375.52687836 49.8175 375.61625671 48.5 375.70834351 C32.89640999 376.78267506 17.3322056 377.69637803 1.6875 377.625 C1.00456879 377.62236145 0.32163757 377.6197229 -0.38198853 377.61700439 C-6.89714404 377.57449017 -13.38305879 377.35441217 -19.88409424 376.9256134 C-28.32379813 376.37751495 -36.71437889 376.2589357 -45.171875 376.3203125 C-46.34137695 376.32816269 -47.51087891 376.33601288 -48.71582031 376.34410095 C-53.56981127 376.38068872 -58.42358846 376.42327858 -63.27734375 376.48388672 C-66.86721596 376.52614844 -70.45682267 376.54961048 -74.046875 376.5703125 C-75.14062439 376.58893341 -76.23437378 376.60755432 -77.36126709 376.6267395 C-82.90334942 376.64546091 -87.0840145 376.58156415 -91.8125 373.3125 C-92.1425 372.6525 -92.4725 371.9925 -92.8125 371.3125 C-92.92207031 371.92738281 -93.03164062 372.54226563 -93.14453125 373.17578125 C-93.30308594 373.98402344 -93.46164063 374.79226563 -93.625 375.625 C-93.77582031 376.42550781 -93.92664063 377.22601563 -94.08203125 378.05078125 C-94.90528733 380.59979341 -95.72397362 381.66607044 -97.8125 383.3125 C-101.44491651 384.49698364 -103.08793558 384.65831483 -106.5625 383 C-110.25345254 378.59136224 -110.92235951 373.62500299 -110.73388672 367.94213867 C-104.64834686 305.96183723 -104.64834686 305.96183723 -83.8125 283.3125 C-83.07515625 282.48363281 -82.3378125 281.65476562 -81.578125 280.80078125 C-72.31413184 270.9161611 -61.77771933 264.35858043 -48.87841797 260.33886719 C-46.69291716 259.66353188 -46.69291716 259.66353188 -43.8125 258.3125 C-42.4404409 255.54015013 -42.8125 253.49443995 -42.8125 250.3125 C-43.69550781 250.22742188 -44.57851562 250.14234375 -45.48828125 250.0546875 C-51.45544999 248.72241716 -55.36127925 244.31859868 -59.8125 240.3125 C-60.73804688 239.49394531 -61.66359375 238.67539062 -62.6171875 237.83203125 C-70.36860682 230.57468256 -75.54084399 222.44811582 -80.8125 213.3125 C-81.55423919 212.05051764 -82.29641264 210.78879041 -83.0390625 209.52734375 C-86.41088163 203.75362766 -89.6421405 197.9240826 -92.53515625 191.89453125 C-93.46756017 190.0097637 -94.46392685 188.15625513 -95.49609375 186.32421875 C-109.60383773 160.50553031 -106.53523778 133.11449164 -103.1875 105 C-103.07006439 103.97973724 -102.95262878 102.95947449 -102.83163452 101.90829468 C-100.81293032 84.69302732 -97.97607002 66.92170367 -89.0625 51.75 C-88.48435547 50.70682617 -88.48435547 50.70682617 -87.89453125 49.64257812 C-86.30073924 46.7886426 -84.62602117 44.03278176 -82.8125 41.3125 C-82.1525 41.3125 -81.4925 41.3125 -80.8125 41.3125 C-80.565 40.59578125 -80.3175 39.8790625 -80.0625 39.140625 C-73.36717327 23.99244826 -57.58762359 13.50085335 -42.8125 7.3125 C-28.98342078 2.3055692 -14.68306483 -0.04414632 0 0 Z M-56.8125 37.3125 C-57.37710938 37.89257812 -57.94171875 38.47265625 -58.5234375 39.0703125 C-77.54539063 59.64156497 -83.50750848 83.17826742 -86.75317383 110.27709961 C-87.1285833 113.40485457 -87.52473451 116.52948394 -87.92382812 119.65429688 C-88.17567912 121.67693428 -88.42637258 123.69971623 -88.67578125 125.72265625 C-88.79133865 126.63950699 -88.90689606 127.55635773 -89.0259552 128.50099182 C-91.39376045 148.51376759 -88.37186318 168.3499708 -77.46875 185.5390625 C-75.44015811 188.93599703 -73.72946645 192.44413909 -72 196 C-65.78005214 208.65041244 -58.5357699 220.23827793 -49.8125 231.3125 C-48.905 230.94125 -47.9975 230.57 -47.0625 230.1875 C-43.8125 229.3125 -43.8125 229.3125 -41.66796875 229.7265625 C-38.81959337 232.16117388 -37.58791925 235.32182957 -36.125 238.6875 C-35.81755859 239.36039063 -35.51011719 240.03328125 -35.19335938 240.7265625 C-32.05023126 247.71434842 -31.06721046 253.65937755 -31.8125 261.3125 C-34.46398216 267.82068347 -39.75160751 269.60021084 -45.8125 272.3125 C-55.13988537 276.54931006 -62.59069968 280.91904398 -69.8125 288.3125 C-70.58207031 289.03824219 -71.35164063 289.76398438 -72.14453125 290.51171875 C-88.07289591 306.49435382 -93.58511732 332.89450303 -93.85546875 354.79296875 C-93.84128906 355.62441406 -93.82710937 356.45585937 -93.8125 357.3125 C-92.884375 357.126875 -91.95625 356.94125 -91 356.75 C-87.8125 356.3125 -87.8125 356.3125 -84.8125 357.3125 C-83.625 360.875 -83.625 360.875 -82.8125 364.3125 C-82.23193344 364.31027939 -81.65136688 364.30805878 -81.0532074 364.30577087 C-74.93594995 364.28341256 -68.81870436 364.26846795 -62.70141602 364.25756836 C-60.42732267 364.25258167 -58.15323245 364.24578991 -55.87915039 364.23706055 C-44.70239567 364.19527369 -33.61289779 364.19668694 -22.46655273 365.07006836 C-14.69578436 365.58562746 -6.9104845 365.60313819 0.875 365.625 C1.81161469 365.62795074 2.74822937 365.63090149 3.71322632 365.63394165 C21.84997421 365.64660632 39.91045736 364.69688684 58 363.5 C59.93255142 363.37584213 59.93255142 363.37584213 61.90414429 363.24917603 C87.71636657 361.93599341 87.71636657 361.93599341 112.1875 354.3125 C114.55197777 341.54432004 109.6183071 331.14222068 103.1875 320.3125 C101.20259513 317.40774956 101.20259513 317.40774956 99.1875 315.3125 C98.5275 315.3125 97.8675 315.3125 97.1875 315.3125 C96.85105469 314.27996094 96.85105469 314.27996094 96.5078125 313.2265625 C94.86676455 309.60460461 92.56009452 306.74128863 90.0625 303.6875 C86.52345198 299.28548214 83.08706572 294.85563919 79.8125 290.25 C78.84763672 288.94289063 78.84763672 288.94289063 77.86328125 287.609375 C76.52515055 285.77529376 75.25109754 283.89451913 74 282 C69.70249433 279.4214966 66.06708417 280.85549727 61.34375 281.9921875 C58.1875 282.3125 58.1875 282.3125 55.34375 281.2578125 C51.64170921 277.91792788 52.23301226 274.18423479 51.984375 269.421875 C51.84032261 261.38910738 52.18060582 253.56764263 53.4375 245.625 C53.54674805 244.89571289 53.65599609 244.16642578 53.76855469 243.41503906 C55.51126722 233.51222374 61.21863409 227.87864545 68.64013672 221.41918945 C76.21549704 214.74106244 82.05852385 207.28134122 87.90087891 199.08056641 C90.06096984 196.11218337 92.41325085 193.30041758 94.78515625 190.5 C109.20813265 168.00176383 105.08448282 131.6543615 101.71875 106.68359375 C101.27205071 103.26456388 100.97713119 99.84848733 100.71875 96.41015625 C100.64003662 95.38043701 100.56132324 94.35071777 100.48022461 93.28979492 C100.33061059 91.27373412 100.19027562 89.25695561 100.06079102 87.23950195 C98.80091955 70.63026868 87.47211968 57.7109225 75.52734375 46.90625 C72.80231971 44.62670117 70.0178023 42.45975601 67.1875 40.3125 C66.40101074 39.68964111 66.40101074 39.68964111 65.59863281 39.05419922 C57.30752354 32.4942814 49.25376403 28.22351956 39.203125 24.96826172 C37.17725446 24.30916673 35.16672222 23.6147016 33.15625 22.91015625 C4.57519224 13.01819777 -34.57420922 13.59868282 -56.8125 37.3125 Z M147.02514648 52.99462891 C146.37618408 53.99929199 145.72722168 55.00395508 145.05859375 56.0390625 C144.70160904 56.58678314 144.34462433 57.13450378 143.9768219 57.69882202 C143.22768664 58.85335417 142.48425661 60.01160662 141.74633789 61.17333984 C140.6361901 62.91989502 139.50842168 64.65391888 138.37695312 66.38671875 C133.56094843 73.82190047 129.44850426 81.39727334 125.75 89.4375 C124.1875 91.3125 124.1875 91.3125 121.1875 91.8125 C117.90659421 91.26568237 117.31039073 90.68811582 115.1875 88.3125 C115.49829637 92.27096899 115.81145307 96.22924801 116.125 100.1875 C116.21201172 101.29609375 116.29902344 102.4046875 116.38867188 103.546875 C116.77953086 108.46880299 117.18617963 113.37899873 117.7421875 118.28515625 C119.71783191 137.6390457 119.27417022 158.3841462 113.73046875 177.09765625 C112.97319239 180.18669004 113.2645564 182.27997102 114.1875 185.3125 C114.38730469 186.07949219 114.58710938 186.84648437 114.79296875 187.63671875 C115.73635351 191.07692307 115.73635351 191.07692307 117.1875 194.3125 C119.22197609 195.1359176 119.22197609 195.1359176 121.1875 195.3125 C122.1775 198.7775 122.1775 198.7775 123.1875 202.3125 C123.8475 202.3125 124.5075 202.3125 125.1875 202.3125 C125.39117187 202.99699219 125.59484375 203.68148437 125.8046875 204.38671875 C127.6604266 208.31312718 130.32434588 211.01551711 133.3125 214.125 C134.15748047 215.0212207 134.15748047 215.0212207 135.01953125 215.93554688 C136.4024998 217.40055594 137.79414785 218.85736312 139.1875 220.3125 C139.950625 219.9825 140.71375 219.6525 141.5 219.3125 C144.1875 218.3125 144.1875 218.3125 147.1875 218.3125 C148.15961957 224.60500371 149.14773684 231.42479648 146.1875 237.3125 C141.3982454 241.95728236 136.10715497 244.50002797 130.109375 247.2734375 C123.89693822 250.23738634 118.68876871 253.48811429 115.4375 259.8125 C115.05078125 260.5446875 114.6640625 261.276875 114.265625 262.03125 C113.90984375 262.7840625 113.5540625 263.536875 113.1875 264.3125 C112.82140625 265.05628906 112.4553125 265.80007813 112.078125 266.56640625 C110.87755277 270.26817063 110.80457934 273.89494871 110.6875 277.75 C110.39601077 284.77009206 109.71384721 291.551261 108.58984375 298.4921875 C108.09334707 301.49767343 108.09334707 301.49767343 108.1875 305.3125 C109.25556885 305.38766846 109.25556885 305.38766846 110.34521484 305.46435547 C112.50166879 305.61644186 114.65807731 305.76917306 116.81445312 305.92236328 C119.36247643 306.10261037 121.91066113 306.28058732 124.45898438 306.45654297 C130.31668151 306.86640889 136.16607949 307.28736911 142.0078125 307.890625 C156.35576308 309.31619067 170.67234708 309.54908299 185.08178711 309.61004639 C187.36810773 309.61986873 189.65441419 309.63425251 191.94067383 309.65362549 C209.66355043 309.78496641 227.29866114 309.2235936 244.1875 303.3125 C244.48582716 294.48422594 244.42133072 285.86294261 243 277.125 C242.89905029 276.43156494 242.79810059 275.73812988 242.6940918 275.02368164 C241.8011603 270.08094752 239.96532323 266.56884633 236.1875 263.3125 C233.35608648 261.40741095 230.40348994 259.81801255 227.375 258.25 C225.82567723 257.42793687 224.2774911 256.60372784 222.73046875 255.77734375 C221.97685059 255.37757324 221.22323242 254.97780273 220.44677734 254.56591797 C217.47954645 252.91973649 214.64210092 251.09970179 211.80981445 249.23266602 C210.20840865 248.14804689 210.20840865 248.14804689 208.1875 248.3125 C208.19797363 247.42989502 208.20844727 246.54729004 208.21923828 245.63793945 C208.25341964 242.34852462 208.2784471 239.05929987 208.29736328 235.76977539 C208.30739146 234.34884657 208.32101741 232.92793822 208.33837891 231.50708008 C208.36276821 229.45909556 208.3740149 227.41138502 208.3828125 225.36328125 C208.39328613 224.13262939 208.40375977 222.90197754 208.41455078 221.6340332 C208.19282868 218.39045347 207.47665105 216.25736061 206.1875 213.3125 C207.33372728 205.97911039 212.05683756 200.80191199 217.0234375 195.625 C218.83830009 193.68565225 220.29968925 191.83499733 221.75 189.625 C223.59186856 186.85580178 225.5968396 185.18224743 228.25 183.1875 C237.64479463 175.0707036 237.99727146 157.33847136 239.90722656 145.7578125 C240.43455208 142.58026353 240.98597123 139.40752739 241.5390625 136.234375 C244.369483 119.58074949 245.72743994 104.62773552 241.5 88.0625 C241.22599365 86.94568848 240.9519873 85.82887695 240.66967773 84.67822266 C236.48225104 67.88498283 236.48225104 67.88498283 226.1875 54.3125 C225.05634766 53.26255859 225.05634766 53.26255859 223.90234375 52.19140625 C218.08638973 47.16811792 212.55700227 44.37118687 205.1875 42.3125 C204.20136719 42.01472656 203.21523438 41.71695313 202.19921875 41.41015625 C184.91886014 36.74037067 159.29761051 37.77217324 147.02514648 52.99462891 Z M103.84765625 200.53515625 C100.97910446 203.83854963 98.25073241 207.17905909 95.73828125 210.76171875 C90.18094354 218.67496296 84.43001882 225.36466091 77.1328125 231.7265625 C68.61999545 239.20068039 66.27575177 244.13524746 65.1875 255.3125 C64.976562 260.64587555 65.06423623 265.9779179 65.1875 271.3125 C66.0228125 271.20808594 66.0228125 271.20808594 66.875 271.1015625 C72.7271465 270.68637643 75.90220002 271.75888308 80.3984375 275.51171875 C83.0698629 278.20064257 85.05899613 281.18234725 87.1875 284.3125 C87.8475 284.3125 88.5075 284.3125 89.1875 284.3125 C89.414375 284.993125 89.64125 285.67375 89.875 286.375 C91.54322357 290.10864324 93.74479608 293.03413421 96.1875 296.3125 C97.1775 295.8175 97.1775 295.8175 98.1875 295.3125 C98.93414647 292.33269764 98.93414647 292.33269764 99.1875 289.3125 C98.8575 288.9825 98.5275 288.6525 98.1875 288.3125 C96.83084174 274.64803193 97.45443251 262.91210123 105.1875 251.3125 C105.1875 250.3225 105.1875 249.3325 105.1875 248.3125 C105.8475 248.3125 106.5075 248.3125 107.1875 248.3125 C108.06383276 247.28517747 108.88887211 246.21382698 109.6875 245.125 C115.37413802 238.30929584 123.44490974 235.95716505 131.83984375 233.98828125 C134.42619562 233.37212525 134.42619562 233.37212525 137.1875 231.3125 C135.56579621 230.30716333 133.94002763 229.30838093 132.3125 228.3125 C131.40757812 227.755625 130.50265625 227.19875 129.5703125 226.625 C127.34892533 225.15167671 127.34892533 225.15167671 125.1875 225.3125 C124.96707031 224.78011719 124.74664062 224.24773437 124.51953125 223.69921875 C122.72090194 220.47645479 120.30875497 217.87317697 117.875 215.125 C113.57605069 210.1778131 109.98113162 205.28562396 107.1875 199.3125 C105.13141484 199.08781164 105.13141484 199.08781164 103.84765625 200.53515625 Z M-95.8125 365.3125 C-94.8125 367.3125 -94.8125 367.3125 -94.8125 367.3125 Z M-94.8125 367.3125 C-93.8125 369.3125 -93.8125 369.3125 -93.8125 369.3125 Z " fill="#000000" transform="translate(178.8125,86.6875)"/>
<path d="M0 0 C2.5 0.4375 2.5 0.4375 4.15161133 2.12597656 C5.81710608 4.98111042 5.77458609 6.58063664 5.57421875 9.859375 C5.51943359 10.88417969 5.46464844 11.90898437 5.40820312 12.96484375 C5.29895508 14.56005859 5.29895508 14.56005859 5.1875 16.1875 C5.12626953 17.26644531 5.06503906 18.34539062 5.00195312 19.45703125 C4.84886721 22.11837106 4.6810454 24.77793997 4.5 27.4375 C5.36882812 27.2209375 6.23765625 27.004375 7.1328125 26.78125 C8.28523438 26.5028125 9.43765625 26.224375 10.625 25.9375 C12.33042969 25.51984375 12.33042969 25.51984375 14.0703125 25.09375 C18.30159614 24.28411942 21.912511 23.68553153 25.875 25.5625 C27.5 27.4375 27.5 27.4375 27.9375 30.4375 C27.44377788 33.82302308 27.12852587 34.40432401 24.5 36.4375 C21.86328125 37.3515625 21.86328125 37.3515625 18.8125 38.0625 C17.81863281 38.30226562 16.82476562 38.54203125 15.80078125 38.7890625 C12.03923921 39.52801632 8.3079179 40.00018765 4.5 40.4375 C4.51571045 41.22398926 4.5314209 42.01047852 4.54760742 42.82080078 C4.61015915 46.40129338 4.64905551 49.98167076 4.6875 53.5625 C4.71263672 54.8 4.73777344 56.0375 4.76367188 57.3125 C4.77333984 58.51132813 4.78300781 59.71015625 4.79296875 60.9453125 C4.8086792 62.04504395 4.82438965 63.14477539 4.84057617 64.27783203 C4.37258396 68.61959205 2.68711571 71.81870585 0.125 75.3125 C-2.22720665 76.94095075 -3.69868602 76.84744839 -6.5 76.4375 C-8.8125 75.4375 -8.8125 75.4375 -10.5 73.4375 C-11.01013639 69.97282367 -11.09565738 66.62881475 -9.5 63.4375 C-9.34733388 61.69881256 -9.25067404 59.95502499 -9.18359375 58.2109375 C-9.14169922 57.1796875 -9.09980469 56.1484375 -9.05664062 55.0859375 C-9.01732422 54.00570312 -8.97800781 52.92546875 -8.9375 51.8125 C-8.89431641 50.72453125 -8.85113281 49.6365625 -8.80664062 48.515625 C-8.7003547 45.8230483 -8.59831943 43.13037747 -8.5 40.4375 C-9.05461914 40.42291748 -9.60923828 40.40833496 -10.18066406 40.39331055 C-12.70446242 40.31863103 -15.22696654 40.22203975 -17.75 40.125 C-18.62269531 40.10244141 -19.49539063 40.07988281 -20.39453125 40.05664062 C-26.85304847 39.78548151 -26.85304847 39.78548151 -30.078125 38.05078125 C-31.5 36.4375 -31.5 36.4375 -32 33.9375 C-31.5 31.4375 -31.5 31.4375 -30.078125 29.79296875 C-26.07823204 27.68999473 -22.19164883 28.12206477 -17.75 28.25 C-16.41775391 28.27030273 -16.41775391 28.27030273 -15.05859375 28.29101562 C-12.87177422 28.32628691 -10.68620034 28.37557248 -8.5 28.4375 C-8.53480469 27.63828125 -8.56960938 26.8390625 -8.60546875 26.015625 C-9.05269094 7.87118169 -9.05269094 7.87118169 -4.05078125 1.62890625 C-2.5 0.4375 -2.5 0.4375 0 0 Z " fill="#030303" transform="translate(360.5,187.5625)"/>
</svg>
