<?xml version="1.0" encoding="UTF-8"?>
<svg version="1.1" xmlns="http://www.w3.org/2000/svg" width="500" height="500">
<path d="M0 0 C1.92547843 1.58645514 3.39278272 3.07133927 5 5 C5 5.66 5 6.32 5 7 C5.66 7 6.32 7 7 7 C10.14983754 13.95589124 11.55860608 20.80464641 9.30859375 28.3046875 C6.79481998 33.8791649 3.22767945 37.56316205 -2.421875 40.078125 C-7.69098251 41.43566798 -12.95646437 41.57013958 -18.375 41.875 C-31.46109366 42.75520206 -42.70335331 44.95172284 -55 49.625 C-62.54701266 52.45730845 -70.02541804 53.3061078 -78 54 C-77.34 55.98 -76.68 57.96 -76 60 C-75.34 60 -74.68 60 -74 60 C-73.34 61.98 -72.68 63.96 -72 66 C-71.43716309 65.83395264 -70.87432617 65.66790527 -70.29443359 65.49682617 C-42.04528115 57.19824186 -12.14447296 51.07956088 17 59 C18.11632812 59.26683594 19.23265625 59.53367187 20.3828125 59.80859375 C37.99953468 64.4938922 53.31782457 77.19248374 62.5 92.875 C66.4462701 100.51466834 68.48357602 108.95923963 70.56835938 117.25732422 C72.057234 123.12551216 73.68052399 127.91975845 77 133 C77.66 132.67 78.32 132.34 79 132 C82.03685672 131.6360545 84.96796053 131.57976997 88 132 C88.804375 132.70125 89.60875 133.4025 90.4375 134.125 C92.74047654 136.22570094 92.74047654 136.22570094 94.99609375 135.890625 C96.67184588 135.52740779 98.34087501 135.13245486 100.00390625 134.71484375 C103.42758625 133.89798138 106.82366465 133.40195796 110.3125 132.9375 C111.46363281 132.78152344 112.61476563 132.62554687 113.80078125 132.46484375 C125.48979613 131.10626487 137.1261468 130.78493287 148.88134766 130.75976562 C151.59959895 130.75009041 154.31708207 130.71897399 157.03515625 130.6875 C165.89365817 130.63307797 174.53127229 130.9599727 183.296875 132.30859375 C184.04828766 132.42269592 184.79970032 132.5367981 185.57388306 132.65435791 C196.94440898 134.60956031 211.34219091 140.06542868 218.765625 149.1640625 C225.04861138 158.28354273 228.33304396 166.82639561 227 178 C224.85770525 184.20465449 221.41036403 189.1696013 217 194 C216.48695313 194.62519531 215.97390625 195.25039062 215.4453125 195.89453125 C196.90436939 218.23764934 165.39311425 226.0540364 138.1875 231.8125 C137.1550415 232.03172119 136.12258301 232.25094238 135.05883789 232.47680664 C134.08422607 232.67653076 133.10961426 232.87625488 132.10546875 233.08203125 C131.24074951 233.25968018 130.37603027 233.4373291 129.48510742 233.62036133 C126.95043517 234.0075718 124.55988377 234.06734274 122 234 C122.25394531 235.00933594 122.50789063 236.01867187 122.76953125 237.05859375 C129.80845468 266.13017076 131.22740351 294.69784243 125 324 C124.85046875 324.70479492 124.7009375 325.40958984 124.546875 326.13574219 C120.80053131 342.8988958 112.16132426 357.38938777 102 371 C101.49404297 371.67885254 100.98808594 372.35770508 100.46679688 373.05712891 C98.97036597 375.04874412 97.45934095 377.02774872 95.9375 379 C95.47239014 379.60610107 95.00728027 380.21220215 94.52807617 380.83666992 C93.40086857 382.26438239 92.20626766 383.63842804 91 385 C90.34 385 89.68 385 89 385 C89 385.66 89 386.32 89 387 C88.34 387 87.68 387 87 387 C87 387.66 87 388.32 87 389 C86.34 389 85.68 389 85 389 C85 389.66 85 390.32 85 391 C83.64575195 392.29345703 83.64575195 392.29345703 81.73828125 393.7578125 C80.68809814 394.56665894 80.68809814 394.56665894 79.61669922 395.3918457 C78.85631348 395.96378662 78.09592773 396.53572754 77.3125 397.125 C76.53664551 397.71176514 75.76079102 398.29853027 74.96142578 398.90307617 C68.5311688 403.70955094 61.98425253 408.02839589 55 412 C53.30037109 412.99773437 53.30037109 412.99773437 51.56640625 414.015625 C36.81656664 422.45242878 20.5359724 427.38810541 4 431 C2.94510376 431.25185059 2.94510376 431.25185059 1.86889648 431.50878906 C-5.90679925 433.25090691 -13.75478629 433.68567297 -21.6875 434.125 C-22.77789581 434.18803818 -22.77789581 434.18803818 -23.89031982 434.25234985 C-36.60222362 434.98127616 -49.2670112 435.32846173 -62 435 C-62.97146973 434.97534668 -63.94293945 434.95069336 -64.94384766 434.92529297 C-92.86357883 434.13353265 -114.45943844 430.58364758 -137 413 C-137.77472656 412.45730469 -138.54945313 411.91460937 -139.34765625 411.35546875 C-139.89292969 410.90816406 -140.43820313 410.46085937 -141 410 C-141 409.34 -141 408.68 -141 408 C-141.66 408 -142.32 408 -143 408 C-144.71342465 406.01493486 -146.30279131 404.02995851 -147.875 401.9375 C-148.30941406 401.37611328 -148.74382812 400.81472656 -149.19140625 400.23632812 C-169.28474362 373.83742392 -172.07264723 337.89849072 -168.22607422 305.94116211 C-163.71772269 274.59275673 -149.27069579 248.77160907 -131.47705078 223.13793945 C-130.30159197 221.43653568 -129.14710045 219.72065068 -128 218 C-127.34 218 -126.68 218 -126 218 C-125.80157144 213.73378599 -126.31439739 210.89795604 -128 207 C-128 206.01 -128 205.02 -128 204 C-129.299375 204.7734375 -129.299375 204.7734375 -130.625 205.5625 C-134.45689279 207.19460249 -136.08240753 207.30586416 -140 206 C-147.33020554 197.86721722 -145.59139158 182.80701277 -145.91210938 172.484375 C-145.98641568 170.38398358 -146.10541525 168.2852452 -146.234375 166.1875 C-147.14480114 143.93263892 -140.24402643 120.36603965 -128 102 C-127.34 102 -126.68 102 -126 102 C-125.505 100.02 -125.505 100.02 -125 98 C-124.34 98 -123.68 98 -123 98 C-123 97.34 -123 96.68 -123 96 C-120.9122352 94.1859911 -118.81943101 92.48897331 -116.625 90.8125 C-115.98594727 90.31927246 -115.34689453 89.82604492 -114.68847656 89.31787109 C-93.4256344 73 -93.4256344 73 -87 73 C-88.11631414 71.16136495 -89.24329627 69.32920277 -90.375 67.5 C-91.00148438 66.4790625 -91.62796875 65.458125 -92.2734375 64.40625 C-92.84320313 63.6121875 -93.41296875 62.818125 -94 62 C-94.66 62 -95.32 62 -96 62 C-97.22985236 63.35866483 -98.40694661 64.76510649 -99.5625 66.1875 C-108.76911326 76.61176212 -120.56165903 85.97248535 -134 90 C-134.78632813 90.23976563 -135.57265625 90.47953125 -136.3828125 90.7265625 C-145.93025382 93.22153845 -156.61131334 93.05019999 -165.3125 88.125 C-172.08579926 82.76936803 -172.08579926 82.76936803 -173 78 C-173.80903222 70.55955617 -172.7276477 63.54907528 -169 57 C-164.43841581 51.52242864 -158.9597888 47.65858902 -152.9375 43.9375 C-152.10476562 43.41800781 -151.27203125 42.89851563 -150.4140625 42.36328125 C-143.51798403 38.14724557 -136.58592466 34.82245157 -129 32 C-127.96746094 31.60167969 -126.93492188 31.20335937 -125.87109375 30.79296875 C-118.20643105 27.90468707 -111.8498559 26.85375049 -103.6875 26.9375 C-102.85154297 26.94201172 -102.01558594 26.94652344 -101.15429688 26.95117188 C-99.10283351 26.96289452 -97.05140727 26.98082797 -95 27 C-94.62875 25.1746875 -94.62875 25.1746875 -94.25 23.3125 C-91.77670279 13.55582081 -82.27968324 8.7421046 -74.13916016 3.89111328 C-65.76346177 -0.92343677 -57.18243199 -4.94331442 -48 -8 C-47.27039063 -8.24621094 -46.54078125 -8.49242188 -45.7890625 -8.74609375 C-29.69062138 -13.21788295 -13.40703771 -9.53443815 0 0 Z " fill="#000000" transform="translate(209,25)"/>
<path d="M0 0 C4.53723434 1.80563407 8.82015482 3.92174987 13.1328125 6.21484375 C14.26976562 6.81876953 15.40671875 7.42269531 16.578125 8.04492188 C18.92425037 9.2939685 21.26377263 10.55358879 23.6015625 11.81835938 C39.39726455 20.1698032 54.9096985 23.39497506 72.6875 23.375 C74.00186035 23.37556396 75.3162207 23.37612793 76.67041016 23.37670898 C89.91706972 23.28100117 103.01898011 21.89796987 116.18017578 20.50024414 C128.61475757 19.18400816 140.94469956 18.40061462 153.44921875 18.08105469 C159.64060069 17.88431476 165.82140727 17.43277773 172 17 C171.96744792 19.01822917 171.93489583 21.03645833 171.90234375 23.0546875 C171.87350758 25.08185404 171.87350758 25.08185404 173 27 C176.2922898 28.6461449 179.46574612 28.72084782 183 28 C185.62546438 26.04638578 185.62546438 26.04638578 188 23 C193.14336425 17.03369747 196.97265575 13.15916601 204.93359375 11.92578125 C207 12 207 12 209 14 C219.93150607 42.95990613 218.25108499 81.86181282 206 110 C201.08855943 120.81734638 194.6842114 129.97916085 187 139 C186.20078125 139.94101562 185.4015625 140.88203125 184.578125 141.8515625 C165.72340391 163.37195105 138.69993171 176.86230392 111.0625 183.25 C110.42070801 183.40114258 109.77891602 183.55228516 109.11767578 183.70800781 C92.43140947 187.2816196 75.51939568 187.3444676 58.53320312 187.31567383 C54.63903845 187.3125114 50.74563405 187.33606424 46.8515625 187.36132812 C19.24926453 187.43331341 -0.63552762 185.84625093 -21.21484375 165.84765625 C-36.03294349 150.1194237 -39.87815419 130.86463237 -41 110 C-41.03996094 109.27844727 -41.07992187 108.55689453 -41.12109375 107.81347656 C-41.96311589 89.81946348 -39.23957322 71.87691794 -33 55 C-32.65453125 54.02804687 -32.3090625 53.05609375 -31.953125 52.0546875 C-26.6807198 38.33879281 -18.95447815 24.64082159 -10 13 C-9.11707702 11.83992783 -8.23427404 10.67976431 -7.3515625 9.51953125 C-4.91809368 6.33291681 -2.4640052 3.16304894 0 0 Z " fill="#FFFFFF" transform="translate(102,251)"/>
<path d="M0 0 C13.31933078 11.16719475 18.09403364 22.55820197 22.375 38.875 C22.375 39.535 22.375 40.195 22.375 40.875 C19.56933265 41.91918041 16.75807737 42.93507258 13.9375 43.9375 C13.15439453 44.23205078 12.37128906 44.52660156 11.56445312 44.83007812 C5.69928787 46.88167914 1.43800223 46.89272516 -4.625 45.875 C-6.26696016 45.70713765 -7.91031317 45.55243773 -9.5546875 45.41015625 C-10.77671875 45.29317383 -10.77671875 45.29317383 -12.0234375 45.17382812 C-13.69734684 45.01409387 -15.37186263 44.86061027 -17.046875 44.71289062 C-17.85382813 44.63361328 -18.66078125 44.55433594 -19.4921875 44.47265625 C-20.21519043 44.40570557 -20.93819336 44.33875488 -21.68310547 44.26977539 C-23.625 43.875 -23.625 43.875 -26.625 41.875 C-26.625 41.215 -26.625 40.555 -26.625 39.875 C-27.21539062 39.61976563 -27.80578125 39.36453125 -28.4140625 39.1015625 C-34.6290193 35.65368894 -39.83011918 27.79668217 -43.625 21.875 C-43.625 21.215 -43.625 20.555 -43.625 19.875 C-44.285 19.875 -44.945 19.875 -45.625 19.875 C-47.42635959 17.72113555 -49.12836722 15.55509291 -50.8125 13.3125 C-56.55609996 5.85581461 -61.86013463 -0.44570334 -70.12109375 -5.1796875 C-70.61738281 -5.49164063 -71.11367187 -5.80359375 -71.625 -6.125 C-71.625 -6.455 -71.625 -6.785 -71.625 -7.125 C-49.04996983 -11.45940579 -19.77563173 -14.49986079 0 0 Z " fill="#FFFFFF" transform="translate(237.625,113.125)"/>
<path d="M0 0 C-0.19335938 0.6290625 -0.38671875 1.258125 -0.5859375 1.90625 C-3.03153163 9.89016891 -3.03153163 9.89016891 -5 18 C-5.18691406 18.87785156 -5.37382812 19.75570312 -5.56640625 20.66015625 C-7.06024361 29.09041322 -7.18179259 37.39179647 -7.1875 45.9375 C-7.18830566 47.11094971 -7.18911133 48.28439941 -7.18994141 49.4934082 C-7.16403952 56.34314065 -7.16403952 56.34314065 -6.375 63.1328125 C-6 66 -6 66 -7.8125 68.9375 C-10 71 -10 71 -12 71 C-12 71.66 -12 72.32 -12 73 C-12.66 73 -13.32 73 -14 73 C-14.226875 73.70125 -14.45375 74.4025 -14.6875 75.125 C-17.79882256 81.94027799 -22.60777273 85.39002197 -28.875 89.0625 C-30.24877068 89.88442518 -31.62117806 90.70863342 -32.9921875 91.53515625 C-33.65573242 91.93492676 -34.31927734 92.33469727 -35.00292969 92.74658203 C-38.1058282 94.69404914 -41.04500438 96.83583219 -44 99 C-44.47179687 97.84371094 -44.47179687 97.84371094 -44.953125 96.6640625 C-45.38109375 95.66117187 -45.8090625 94.65828125 -46.25 93.625 C-46.66765625 92.62726563 -47.0853125 91.62953125 -47.515625 90.6015625 C-49.10395374 87.81780739 -50.03323813 87.05231297 -53 86 C-53.10160461 74.34449953 -51.53152934 63.41431405 -48.875 52.0625 C-48.60421631 50.8556958 -48.33343262 49.6488916 -48.05444336 48.40551758 C-43.04145597 28.01638411 -29.95562612 15.93379004 -12.81054688 5.09179688 C-4.3667263 0 -4.3667263 0 0 0 Z " fill="#FFFFFF" transform="translate(134,117)"/>
<path d="M0 0 C9.19364506 3.3699126 16.02755525 9.4064631 22 17 C22.88786082 18.11340886 23.77589575 19.22667891 24.6640625 20.33984375 C29.5429476 26.48482107 34.33252713 32.69260423 39 39 C37.97003906 39.21914062 36.94007813 39.43828125 35.87890625 39.6640625 C22.32212918 42.64401527 9.03048198 46.43791892 -3.21484375 53.1171875 C-5 54 -5 54 -7 54 C-7.28572704 41.5803978 -7.56008855 29.19547156 -5.75 16.875 C-5.64067139 16.0902832 -5.53134277 15.30556641 -5.41870117 14.49707031 C-4.52234085 9.06123056 -2.64904767 4.82739679 0 0 Z " fill="#FFFFFF" transform="translate(150,118)"/>
<path d="M0 0 C-9.08965789 15.1877828 -24.38408651 32.28801332 -42 37 C-45.796875 37.265625 -45.796875 37.265625 -49.75 37.25 C-51.06484375 37.25515625 -52.3796875 37.2603125 -53.734375 37.265625 C-57 37 -57 37 -59 35 C-59.1362977 31.5244087 -58.86432741 29.07731354 -56.63671875 26.30078125 C-54.52361134 24.35961834 -52.32738492 22.67991693 -50 21 C-49.02933594 20.29875 -48.05867188 19.5975 -47.05859375 18.875 C-34.08336426 9.89456844 -16.15684243 -0.42742969 0 0 Z " fill="#FFFFFF" transform="translate(110,64)"/>
<path d="M0 0 C2.625 2.625 2.625 2.625 4 5 C4 5.99 4 6.98 4 8 C1.72343968 9.13828016 0.40878776 9.13792427 -2.12109375 9.17578125 C-18.76581464 9.58760612 -33.61494778 12.13766902 -49.18237305 18.0559082 C-54.74035766 20.09958868 -59.14191878 20.5579125 -65 20 C-63.41582835 14.58076532 -62.33611081 11.46565455 -57.26635742 8.45141602 C-56.64220947 8.11682373 -56.01806152 7.78223145 -55.375 7.4375 C-54.72055908 7.0674585 -54.06611816 6.69741699 -53.3918457 6.31616211 C-36.61355755 -2.90605201 -17.72575141 -11.57996169 0 0 Z " fill="#FFFFFF" transform="translate(196,40)"/>
<path d="M0 0 C-6.55140153 7.01935879 -13.71242819 12.84645583 -21.29394531 18.67871094 C-30.98041183 26.18059371 -40.5573165 34.10095523 -49 43 C-49.55300781 43.58136719 -50.10601562 44.16273438 -50.67578125 44.76171875 C-54.52854933 48.96098846 -57.32760062 53.05451332 -59.76171875 58.21484375 C-61 60 -61 60 -62.78515625 60.90625 C-65.92693045 61.03923515 -67.9420991 59.93302306 -70.75 58.5625 C-71.73484375 58.08941406 -72.7196875 57.61632812 -73.734375 57.12890625 C-74.48203125 56.75636719 -75.2296875 56.38382813 -76 56 C-74.42775175 51.95572287 -71.54829891 49.49423658 -68.375 46.6875 C-67.83375488 46.20039551 -67.29250977 45.71329102 -66.73486328 45.21142578 C-63.17983053 42.02025237 -59.59248256 38.86537743 -55.984375 35.734375 C-53.67850965 33.71901237 -51.40060869 31.67446124 -49.125 29.625 C-48.28195313 28.86703125 -47.43890625 28.1090625 -46.5703125 27.328125 C-44.86818346 25.78637894 -43.17528425 24.23437604 -41.4921875 22.671875 C-36.62728364 18.1882332 -31.67087164 14.21544336 -26.19921875 10.49609375 C-22.45973656 7.95218313 -19.51549017 5.77323525 -17 2 C-14.1015625 1.015625 -14.1015625 1.015625 -10.625 0.25 C-9.48289062 -0.01296875 -8.34078125 -0.2759375 -7.1640625 -0.546875 C-4.28566948 -0.95908931 -2.68669332 -0.97938574 0 0 Z " fill="#FFFFFF" transform="translate(212,194)"/>
<path d="M0 0 C0.99 0 1.98 0 3 0 C4.30859375 2.01953125 4.30859375 2.01953125 5 5 C3.77296192 7.85248581 1.92479589 10.2172923 0.0625 12.6875 C-0.44659912 13.39068359 -0.95569824 14.09386719 -1.48022461 14.81835938 C-2.50202293 16.22925255 -3.53035662 17.63543763 -4.56542969 19.03662109 C-6.46984327 21.64303601 -8.26148926 24.32147552 -10.0625 27 C-11.66015625 29.375 -11.66015625 29.375 -13 31 C-13.66 31 -14.32 31 -15 31 C-15.226875 31.53625 -15.45375 32.0725 -15.6875 32.625 C-19.7331875 39.94576786 -24.08653894 42.41587979 -31.75 45.25 C-32.6059375 45.58773437 -33.461875 45.92546875 -34.34375 46.2734375 C-39.83380247 48.38627587 -45.23137361 49.85561663 -51 51 C-50.29657471 50.2972998 -49.59314941 49.59459961 -48.8684082 48.87060547 C-46.46578269 46.46803268 -44.06937303 44.05935913 -41.67460632 41.6489563 C-39.43625977 39.39704929 -37.19509385 37.14795619 -34.95385742 34.89892578 C-33.78074987 33.72079179 -32.60854172 32.54176152 -31.43725586 31.36181641 C-19.60440326 19.44409874 -19.60440326 19.44409874 -13.64648438 14.41772461 C-9.46502845 10.81723312 -5.65898478 6.89750751 -2.25 2.5625 C-1.5075 1.716875 -0.765 0.87125 0 0 Z " fill="#FFFFFF" transform="translate(410,185)"/>
<path d="M0 0 C2.75383923 1.37691962 3.51483101 3.36720042 5 6 C4.34515625 6.52207031 3.6903125 7.04414063 3.015625 7.58203125 C-4.26203507 13.45144354 -11.19348239 19.59444104 -18 26 C-19.00546875 26.94166016 -19.00546875 26.94166016 -20.03125 27.90234375 C-24.11409434 31.84600022 -27.57706652 36.14821004 -31.0078125 40.66796875 C-33.1267755 43.14840191 -35.45645328 44.97017454 -38 47 C-38.639375 48.051875 -39.27875 49.10375 -39.9375 50.1875 C-41.95981556 52.81122313 -43.07123924 53.0125764 -46.4296875 53.60546875 C-49.96126389 53.85061842 -53.46041836 53.99042062 -57 54 C-53.04843034 49.26979319 -48.93570178 44.78700766 -44.5703125 40.4375 C-43.97628632 39.84251709 -43.38226013 39.24753418 -42.77023315 38.63452148 C-41.52269158 37.38630446 -40.27390661 36.13932901 -39.02392578 34.89355469 C-37.13329199 33.00826853 -35.24804653 31.11771349 -33.36328125 29.2265625 C-27.41121102 23.27110235 -21.44124077 17.43115476 -15 12 C-13.22509592 10.42123129 -11.45358327 8.83862992 -9.6875 7.25 C-8.86636719 6.51265625 -8.04523438 5.7753125 -7.19921875 5.015625 C-5.8701293 3.79748973 -4.57009297 2.54492277 -3.33203125 1.234375 C-2 0 -2 0 0 0 Z " fill="#FFFFFF" transform="translate(276,201)"/>
<path d="M0 0 C0.99 0.495 0.99 0.495 2 1 C1.19175781 1.72445312 0.38351563 2.44890625 -0.44921875 3.1953125 C-1.52883737 4.17166325 -2.60825365 5.14823777 -3.6875 6.125 C-4.21794922 6.599375 -4.74839844 7.07375 -5.29492188 7.5625 C-8.00994529 10.02767463 -10.47558159 12.50122469 -12.76953125 15.3671875 C-13.87361328 16.67042969 -13.87361328 16.67042969 -15 18 C-15.66 18 -16.32 18 -17 18 C-17.2475 18.56203125 -17.495 19.1240625 -17.75 19.703125 C-19.21274867 22.39092569 -20.96804873 24.46405482 -23 26.75 C-24.051875 27.94882813 -24.051875 27.94882813 -25.125 29.171875 C-27 31 -27 31 -29 31 C-29.26425781 31.58523437 -29.52851563 32.17046875 -29.80078125 32.7734375 C-31.04431147 35.08227211 -32.40568775 36.70863442 -34.1875 38.625 C-39.2193931 44.24640359 -43.62304631 50.24609262 -47 57 C-54.26 57 -61.52 57 -69 57 C-66.21733784 54.21733784 -63.68953599 51.88469013 -60.625 49.5 C-56.46019849 46.2107188 -52.43728301 42.79715085 -48.4375 39.3125 C-43.19669276 34.76073766 -37.79370088 30.48891765 -32.25 26.3125 C-26.77679487 22.18912606 -21.57935058 17.95004118 -16.55859375 13.27734375 C-11.27266794 8.57246627 -5.60230054 4.31877635 0 0 Z " fill="#FFFFFF" transform="translate(236,201)"/>
<path d="M0 0 C-1.375 1.5 -1.375 1.5 -3 3 C-3.66 3 -4.32 3 -5 3 C-5.66 4.32 -6.32 5.64 -7 7 C-7.66 7 -8.32 7 -9 7 C-9.20625 7.556875 -9.4125 8.11375 -9.625 8.6875 C-10.96846753 10.94696811 -12.05157702 11.9998656 -14.0625 13.625 C-17.00824713 15.67119397 -17.00824713 15.67119397 -18 18 C-18.66 18 -19.32 18 -20 18 C-20 18.66 -20 19.32 -20 20 C-20.66 20 -21.32 20 -22 20 C-22 20.66 -22 21.32 -22 22 C-22.66 22 -23.32 22 -24 22 C-24.4640625 22.928125 -24.4640625 22.928125 -24.9375 23.875 C-25.625 25.25 -26.3125 26.625 -27 28 C-27.66 28 -28.32 28 -29 28 C-29.309375 28.79664063 -29.309375 28.79664063 -29.625 29.609375 C-31.57961192 33.00773436 -34.22123717 35.51055928 -37 38.25 C-37.81984375 39.08144531 -37.81984375 39.08144531 -38.65625 39.9296875 C-42.7466133 44 -42.7466133 44 -45 44 C-46.32 41.36 -47.64 38.72 -49 36 C-48.06800781 35.14019531 -47.13601563 34.28039062 -46.17578125 33.39453125 C-42.79267988 30.26490588 -39.43244847 27.11165711 -36.07910156 23.95019531 C-34.74116938 22.69521618 -33.39721093 21.44661493 -32.04589844 20.20605469 C-22.48762919 11.8155657 -22.48762919 11.8155657 -19 0 C-16.58373582 -0.19534474 -14.16734771 -0.38153404 -11.75 -0.5625 C-11.06808594 -0.61857422 -10.38617188 -0.67464844 -9.68359375 -0.73242188 C-6.2579419 -0.98186254 -3.27298823 -1.13879745 0 0 Z " fill="#FFFFFF" transform="translate(358,174)"/>
<path d="M0 0 C2.47859908 2.2008849 3.61210366 4.06372969 4.6875 7.1875 C4.93886719 7.90292969 5.19023437 8.61835938 5.44921875 9.35546875 C5.63097656 9.89816406 5.81273437 10.44085938 6 11 C5.21753906 11.84304687 4.43507813 12.68609375 3.62890625 13.5546875 C2.60665175 14.66134834 1.58452284 15.76812521 0.5625 16.875 C0.04623047 17.43058594 -0.47003906 17.98617187 -1.00195312 18.55859375 C-3.82104736 21.54749315 -3.82104736 21.54749315 -6 25 C-8.91436518 25.4822545 -11.75274613 25.84462414 -14.6875 26.125 C-15.49123047 26.21136719 -16.29496094 26.29773438 -17.12304688 26.38671875 C-21.43392843 26.83084882 -25.66025091 27.09815265 -30 27 C-25.7104117 21.74525433 -21.18475774 17.35686901 -16 13 C-14.90047086 12.06186651 -13.80155815 11.12301027 -12.703125 10.18359375 C-11.53154523 9.18454951 -10.35966954 8.1858522 -9.1875 7.1875 C-8.62409912 6.70700195 -8.06069824 6.22650391 -7.48022461 5.73144531 C-5.05027129 3.67356148 -2.65302703 1.76868469 0 0 Z " fill="#FFFFFF" transform="translate(293,225)"/>
<path d="M0 0 C3.3 0.33 6.6 0.66 10 1 C10 4.93169105 8.60580385 6.16427228 6 9 C5.34 9 4.68 9 4 9 C4 9.66 4 10.32 4 11 C2.35546875 12.62109375 2.35546875 12.62109375 0.1875 14.4375 C-2.82463265 16.97339332 -2.82463265 16.97339332 -5.63671875 19.72265625 C-7 21 -7 21 -9 21 C-9 21.66 -9 22.32 -9 23 C-10.875 25.125 -10.875 25.125 -13 27 C-13.66 27 -14.32 27 -15 27 C-15.24097412 27.5676709 -15.48194824 28.1353418 -15.73022461 28.72021484 C-17.25422183 31.45643596 -19.07778292 33.28631807 -21.31640625 35.4765625 C-22.58581055 36.72953125 -22.58581055 36.72953125 -23.88085938 38.0078125 C-24.76580078 38.87148437 -25.65074219 39.73515625 -26.5625 40.625 C-28.31597382 42.34414185 -30.06738575 44.06539013 -31.81640625 45.7890625 C-32.59443604 46.54912598 -33.37246582 47.30918945 -34.17407227 48.09228516 C-36.06086128 49.87557625 -36.06086128 49.87557625 -37 52 C-37.66 52 -38.32 52 -39 52 C-39.28875 52.763125 -39.5775 53.52625 -39.875 54.3125 C-41 57 -41 57 -43 60 C-43.39387788 62.32387947 -43.73486085 64.65793749 -44 67 C-47.82320557 68.42258812 -50.91281305 69.24042276 -55 69 C-55.33 68.01 -55.66 67.02 -56 66 C-55.50628906 65.51789063 -55.01257813 65.03578125 -54.50390625 64.5390625 C-53.86324219 63.90742188 -53.22257812 63.27578125 -52.5625 62.625 C-51.92441406 61.99851563 -51.28632813 61.37203125 -50.62890625 60.7265625 C-48.92117824 59.08276939 -48.92117824 59.08276939 -48 57 C-47.34 57 -46.68 57 -46 57 C-45.773125 56.443125 -45.54625 55.88625 -45.3125 55.3125 C-43.61427198 52.32038397 -41.49235804 50.38399465 -39 48 C-37.7038183 46.73377208 -36.41251512 45.4625392 -35.125 44.1875 C-34.50882812 43.58292969 -33.89265625 42.97835937 -33.2578125 42.35546875 C-31.39463946 40.41170864 -29.64011883 38.4352174 -27.88671875 36.39453125 C-23.37735072 31.20815515 -18.54362688 26.35965861 -13.6875 21.5 C-12.78193359 20.5821875 -11.87636719 19.664375 -10.94335938 18.71875 C-10.07904297 17.8525 -9.21472656 16.98625 -8.32421875 16.09375 C-7.54135498 15.30677734 -6.75849121 14.51980469 -5.9519043 13.70898438 C-4 12 -4 12 -2 12 C-0.40861915 7.82262526 0.21278058 4.46839215 0 0 Z " fill="#FFFFFF" transform="translate(379,174)"/>
<path d="M0 0 C-3.77957377 3.87004229 -7.56082724 7.68554742 -11.6875 11.1875 C-15.52453933 14.49818602 -19.14790697 18.00059209 -22.75 21.5625 C-23.30518311 22.10479248 -23.86036621 22.64708496 -24.43237305 23.20581055 C-27.80656257 26.5718363 -30.48880134 29.94673032 -33 34 C-37.75 32.125 -37.75 32.125 -40 31 C-38.40306183 27.18358844 -35.85749285 24.41389166 -33.0625 21.4375 C-32.32942627 20.65620728 -32.32942627 20.65620728 -31.58154297 19.85913086 C-30.56026314 18.77481917 -29.53679652 17.69256328 -28.51123047 16.61230469 C-27.07450458 15.0794876 -25.67781006 13.51810805 -24.28515625 11.9453125 C-18.52973027 5.70815483 -9.21001446 -3.07000482 0 0 Z " fill="#FFFFFF" transform="translate(154,207)"/>
<path d="M0 0 C-9.22551253 9.59453303 -9.22551253 9.59453303 -15 13 C-16.65 11.02 -18.3 9.04 -20 7 C-15.81837916 1.93803793 -12.82614759 0.24564234 -6.3671875 -0.87109375 C-3.99536999 -1.00025213 -2.25287197 -0.71116004 0 0 Z " fill="#FFFFFF" transform="translate(311,179)"/>
</svg>
