<?xml version="1.0" encoding="UTF-8"?>
<svg version="1.1" xmlns="http://www.w3.org/2000/svg" width="500" height="500">
<path d="M0 0 C2.09311615 3.40131375 2.05147685 5.50822743 1.5 9.4375 C-0.375 12.375 -0.375 12.375 -2.5 14.4375 C-3.16 14.4375 -3.82 14.4375 -4.5 14.4375 C-4.83 15.4275 -5.16 16.4175 -5.5 17.4375 C-6.16 17.4375 -6.82 17.4375 -7.5 17.4375 C-7.79551741 21.43052181 -8.07942994 25.42421732 -8.35449219 29.41870117 C-8.49382603 31.41168938 -8.64125703 33.40410653 -8.7890625 35.39648438 C-9.63438384 47.41262632 -9.61715841 59.3969461 -9.5 71.4375 C-9.48972778 72.53033295 -9.47945557 73.62316589 -9.46887207 74.74911499 C-9.38404919 83.16657814 -9.26132172 91.58322853 -9.125 100 C-9.1045462 101.29832764 -9.08409241 102.59665527 -9.0630188 103.93432617 C-8.76369855 122.40101674 -8.19619344 140.83909029 -7.29891968 159.28665161 C-6.69407947 171.73870961 -6.29438096 184.12828941 -6.48608398 196.59765625 C-6.55836153 201.79137541 -6.42897652 206.88315795 -6.01171875 212.0625 C-5.35044816 220.52490578 -5.34521548 228.95497623 -5.375 237.4375 C-5.37688324 238.25241913 -5.37876648 239.06733826 -5.38070679 239.9069519 C-5.53650791 297.54702374 -5.53650791 297.54702374 -12.5 318.4375 C-12.5825 319.55125 -12.665 320.665 -12.75 321.8125 C-13.65232069 326.17371665 -15.12114942 327.63552634 -18.5 330.4375 C-23.17367832 332.77433916 -28.57426631 331.65952774 -33.375 330.1875 C-39.74876146 327.71766743 -45.151858 323.84267011 -50.75024414 319.99072266 C-55.00122008 317.07185182 -59.20661513 314.40437384 -63.8125 312.0625 C-76.22102178 305.63722218 -88.16205421 297.48965138 -98.8828125 288.54296875 C-110.32796694 279.33559824 -122.67919528 271.14591498 -134.69628906 262.70654297 C-136.26671016 261.60163652 -137.83294542 260.49078539 -139.3984375 259.37890625 C-143.36705207 256.5683259 -147.36823324 253.87769054 -151.5 251.3125 C-164.39022665 243.18764042 -176.48458394 233.78789982 -188.5 224.4375 C-189.59935707 223.59517386 -190.6996337 222.75404665 -191.80078125 221.9140625 C-201.65712927 214.39207466 -211.21960294 206.54941252 -220.66625977 198.52148438 C-224.93113352 194.90211526 -229.25669735 191.36287957 -233.6015625 187.83984375 C-235.79142949 186.02479227 -237.94582334 184.18858129 -240.0859375 182.31640625 C-240.70412354 181.77749756 -241.32230957 181.23858887 -241.95922852 180.68334961 C-243.16243734 179.63103722 -244.36113419 178.57353507 -245.55444336 177.51000977 C-249.00985516 174.49147184 -252.31110864 172.39711012 -256.5 170.4375 C-259.13667226 168.1477583 -260.32267791 166.53581132 -260.8828125 163.06640625 C-261.06591469 158.9588139 -261.10168119 156.43929919 -258.9375 152.8359375 C-255.94984596 149.89616253 -252.82952395 148.56863294 -249 147.0625 C-241.08957139 143.74234122 -233.46935041 139.95294713 -225.90429688 135.91912842 C-224.69495557 135.27458189 -223.48390053 134.63323852 -222.27099609 133.99542236 C-215.09022555 130.21346019 -208.39965748 126.15411852 -201.92993164 121.24731445 C-198.61742486 118.78015754 -195.14731782 116.60852849 -191.6484375 114.41796875 C-187.74187981 111.96061794 -183.87128878 109.44991338 -180 106.9375 C-175.24284612 103.85287662 -170.47941869 100.78048982 -165.6875 97.75 C-161.98638265 95.40335782 -158.32867259 93.00112743 -154.6875 90.5625 C-147.4441416 85.71178644 -140.10340605 81.01714859 -132.75732422 76.32421875 C-126.12986813 72.08923128 -119.53539292 67.81351825 -113 63.4375 C-104.04412187 57.44711417 -95.00389097 51.60515616 -85.84765625 45.92578125 C-76.20517576 39.94195613 -66.6154567 33.95131607 -57.31835938 27.44116211 C-52.17691571 23.85726557 -46.92657047 20.46690215 -41.625 17.125 C-40.41614136 16.36292236 -40.41614136 16.36292236 -39.18286133 15.58544922 C-34.22711129 12.478921 -29.2315966 9.46144898 -24.1171875 6.62109375 C-22.18031585 5.44309202 -22.18031585 5.44309202 -21.5 2.4375 C-15.7490965 -1.39643566 -6.22782073 -3.89238796 0 0 Z " fill="#FFFFFF" transform="translate(338.5,85.5625)"/>
<path d="M0 0 C2.09311615 3.40131375 2.05147685 5.50822743 1.5 9.4375 C-0.375 12.375 -0.375 12.375 -2.5 14.4375 C-3.16 14.4375 -3.82 14.4375 -4.5 14.4375 C-4.83 15.4275 -5.16 16.4175 -5.5 17.4375 C-6.16 17.4375 -6.82 17.4375 -7.5 17.4375 C-7.79551741 21.43052181 -8.07942994 25.42421732 -8.35449219 29.41870117 C-8.49382603 31.41168938 -8.64125703 33.40410653 -8.7890625 35.39648438 C-9.63438384 47.41262632 -9.61715841 59.3969461 -9.5 71.4375 C-9.48972778 72.53033295 -9.47945557 73.62316589 -9.46887207 74.74911499 C-9.38404919 83.16657814 -9.26132172 91.58322853 -9.125 100 C-9.1045462 101.29832764 -9.08409241 102.59665527 -9.0630188 103.93432617 C-8.76369855 122.40101674 -8.19619344 140.83909029 -7.29891968 159.28665161 C-6.69407947 171.73870961 -6.29438096 184.12828941 -6.48608398 196.59765625 C-6.55836153 201.79137541 -6.42897652 206.88315795 -6.01171875 212.0625 C-5.35044816 220.52490578 -5.34521548 228.95497623 -5.375 237.4375 C-5.37688324 238.25241913 -5.37876648 239.06733826 -5.38070679 239.9069519 C-5.53650791 297.54702374 -5.53650791 297.54702374 -12.5 318.4375 C-12.5825 319.55125 -12.665 320.665 -12.75 321.8125 C-13.65232069 326.17371665 -15.12114942 327.63552634 -18.5 330.4375 C-23.17367832 332.77433916 -28.57426631 331.65952774 -33.375 330.1875 C-39.74876146 327.71766743 -45.151858 323.84267011 -50.75024414 319.99072266 C-55.00122008 317.07185182 -59.20661513 314.40437384 -63.8125 312.0625 C-76.22102178 305.63722218 -88.16205421 297.48965138 -98.8828125 288.54296875 C-110.32796694 279.33559824 -122.67919528 271.14591498 -134.69628906 262.70654297 C-136.26671016 261.60163652 -137.83294542 260.49078539 -139.3984375 259.37890625 C-143.36705207 256.5683259 -147.36823324 253.87769054 -151.5 251.3125 C-164.39022665 243.18764042 -176.48458394 233.78789982 -188.5 224.4375 C-189.59935707 223.59517386 -190.6996337 222.75404665 -191.80078125 221.9140625 C-201.65712927 214.39207466 -211.21960294 206.54941252 -220.66625977 198.52148438 C-224.93113352 194.90211526 -229.25669735 191.36287957 -233.6015625 187.83984375 C-235.79142949 186.02479227 -237.94582334 184.18858129 -240.0859375 182.31640625 C-240.70412354 181.77749756 -241.32230957 181.23858887 -241.95922852 180.68334961 C-243.16243734 179.63103722 -244.36113419 178.57353507 -245.55444336 177.51000977 C-249.00985516 174.49147184 -252.31110864 172.39711012 -256.5 170.4375 C-259.13667226 168.1477583 -260.32267791 166.53581132 -260.8828125 163.06640625 C-261.06591469 158.9588139 -261.10168119 156.43929919 -258.9375 152.8359375 C-255.94984596 149.89616253 -252.82952395 148.56863294 -249 147.0625 C-241.08957139 143.74234122 -233.46935041 139.95294713 -225.90429688 135.91912842 C-224.69495557 135.27458189 -223.48390053 134.63323852 -222.27099609 133.99542236 C-215.09022555 130.21346019 -208.39965748 126.15411852 -201.92993164 121.24731445 C-198.61742486 118.78015754 -195.14731782 116.60852849 -191.6484375 114.41796875 C-187.74187981 111.96061794 -183.87128878 109.44991338 -180 106.9375 C-175.24284612 103.85287662 -170.47941869 100.78048982 -165.6875 97.75 C-161.98638265 95.40335782 -158.32867259 93.00112743 -154.6875 90.5625 C-147.4441416 85.71178644 -140.10340605 81.01714859 -132.75732422 76.32421875 C-126.12986813 72.08923128 -119.53539292 67.81351825 -113 63.4375 C-104.04412187 57.44711417 -95.00389097 51.60515616 -85.84765625 45.92578125 C-76.20517576 39.94195613 -66.6154567 33.95131607 -57.31835938 27.44116211 C-52.17691571 23.85726557 -46.92657047 20.46690215 -41.625 17.125 C-40.41614136 16.36292236 -40.41614136 16.36292236 -39.18286133 15.58544922 C-34.22711129 12.478921 -29.2315966 9.46144898 -24.1171875 6.62109375 C-22.18031585 5.44309202 -22.18031585 5.44309202 -21.5 2.4375 C-15.7490965 -1.39643566 -6.22782073 -3.89238796 0 0 Z M-34 37.6875 C-34.99628418 38.3532605 -34.99628418 38.3532605 -36.01269531 39.0324707 C-41.89025733 42.9820993 -47.66314348 47.07287536 -53.43261719 51.17797852 C-58.09795301 54.48446309 -62.83422139 57.62311044 -67.69140625 60.64282227 C-70.55631938 62.47348781 -73.3402392 64.38954169 -76.125 66.33984375 C-84.07852687 71.87815515 -92.14255793 77.249399 -100.20947266 82.62060547 C-102.73324604 84.3013425 -105.25537341 85.98452778 -107.77734375 87.66796875 C-117.6824953 94.27277335 -127.63828232 100.79238858 -137.64593506 107.24066162 C-142.1720652 110.16237495 -146.67799771 113.11522103 -151.1875 116.0625 C-158.39810604 120.77203421 -165.6272847 125.44816496 -172.88671875 130.08203125 C-175.6897103 131.89141612 -178.45093084 133.75673699 -181.20703125 135.63671875 C-193.19152495 143.78781151 -205.43931509 151.16792513 -218.15429688 158.12573242 C-220.63478981 159.51287736 -223.06997552 160.96401466 -225.5 162.4375 C-222.66778237 166.21156358 -219.66532481 169.15951056 -216 172.125 C-214.59234375 173.27548828 -214.59234375 173.27548828 -213.15625 174.44921875 C-210.96671908 176.08814704 -208.98927297 177.33963669 -206.5 178.4375 C-206.5 179.0975 -206.5 179.7575 -206.5 180.4375 C-204.51204134 182.0996128 -202.5202337 183.65261581 -200.4375 185.1875 C-199.22676428 186.09749623 -198.01711719 187.00894279 -196.80859375 187.921875 C-196.22835449 188.35951172 -195.64811523 188.79714844 -195.05029297 189.24804688 C-193.30922098 190.58387408 -191.64281824 191.98279072 -190 193.4375 C-185.30480018 197.5472348 -180.3006249 201.27503772 -175.33300781 205.04589844 C-174.1097473 205.97458582 -172.88774245 206.90492945 -171.66699219 207.83691406 C-159.07352098 217.44546184 -146.20828213 226.70738436 -132.98046875 235.42578125 C-128.28353178 238.54305849 -123.76637169 241.87846625 -119.25 245.25 C-112.75223589 250.07284118 -106.20090593 254.76842057 -99.515625 259.328125 C-95.19624581 262.34945241 -91.02951622 265.55701393 -86.86328125 268.78515625 C-84.70742214 270.62850256 -84.70742214 270.62850256 -82.5 270.4375 C-82.5 271.0975 -82.5 271.7575 -82.5 272.4375 C-81.00800779 273.82576175 -81.00800779 273.82576175 -79.0390625 275.1953125 C-78.3059082 275.72672852 -77.57275391 276.25814453 -76.81738281 276.80566406 C-73.19915023 279.3535219 -69.55803494 281.85915728 -65.875 284.3125 C-65.09447266 284.83352295 -64.31394531 285.3545459 -63.50976562 285.89135742 C-57.68464039 289.74128968 -51.73113008 293.23411204 -45.62890625 296.62109375 C-41.79589586 298.8462496 -38.23499258 301.34556446 -34.68359375 303.9921875 C-32.36835714 305.52463392 -30.08410072 306.44293753 -27.5 307.4375 C-20.23912941 253.88601792 -22.8774061 198.60281973 -25.01171875 144.73046875 C-25.05682587 143.588591 -25.10193298 142.44671326 -25.14840698 141.27023315 C-25.24040679 138.94809935 -25.33241733 136.62596597 -25.42443848 134.30383301 C-25.49277893 132.57562317 -25.49277893 132.57562317 -25.5625 130.8125 C-25.60789917 129.66922241 -25.65329834 128.52594482 -25.70007324 127.34802246 C-26.91240295 96.05455614 -26.69171515 64.7481481 -26.5 33.4375 C-28.98933589 33.4375 -31.92236074 36.29274494 -34 37.6875 Z " fill="#000000" transform="translate(338.5,85.5625)"/>
</svg>
