<?xml version="1.0" encoding="UTF-8"?>
<svg version="1.1" xmlns="http://www.w3.org/2000/svg" width="500" height="500">
<path d="M0 0 C2.00714331 0.03217526 4.0145893 0.04427333 6.02197266 0.05273438 C21.43894426 0.57471165 31.71454954 10.12935878 43.19970703 19.35546875 C46.1091221 21.66849403 49.07903317 23.88617491 52.06494141 26.09960938 C60.1796955 32.16313397 60.1796955 32.16313397 63.31494141 35.03710938 C63.31494141 35.69710937 63.31494141 36.35710937 63.31494141 37.03710938 C63.91822266 37.30265625 64.52150391 37.56820312 65.14306641 37.84179688 C72.51753608 41.90040788 75.89358929 51.88380119 79.38525391 59.13476562 C80.62389276 61.7068355 81.96140653 64.15596827 83.43603516 66.59960938 C85.34245231 70.08744118 86.32834386 73.12065416 87.25244141 76.97460938 C88.4224387 81.74308071 89.73537194 86.39027528 91.32617188 91.03588867 C94.14972895 99.39137508 95.19200139 107.19518562 95.31494141 116.03710938 C95.33927246 116.90770996 95.36360352 117.77831055 95.38867188 118.67529297 C95.46864402 121.56670838 95.52106179 124.45743367 95.56494141 127.34960938 C95.58661377 128.25662598 95.60828613 129.16364258 95.63061523 130.09814453 C95.67496554 139.63432931 92.90454561 147.55407457 88.50244141 155.91210938 C87.78993443 157.29608633 87.07769721 158.68020219 86.36572266 160.06445312 C86.01719238 160.73589355 85.66866211 161.40733398 85.30957031 162.09912109 C83.8886074 164.8678014 82.54574473 167.6735698 81.18994141 170.47460938 C76.07040115 180.65849269 70.09438414 188.51959905 60.93994141 195.34960938 C50.8728244 203.06204478 42.9789436 213.70910498 37.31494141 225.03710938 C36.65494141 225.03710938 35.99494141 225.03710938 35.31494141 225.03710938 C35.39873047 226.01292969 35.48251953 226.98875 35.56884766 227.99414062 C35.72160156 229.90259766 35.72160156 229.90259766 35.87744141 231.84960938 C35.98185547 233.11417969 36.08626953 234.37875 36.19384766 235.68164062 C36.31494141 239.03710938 36.31494141 239.03710938 35.31494141 242.03710938 C35.80621303 243.98907472 36.3011739 245.94031708 36.82797241 247.88299561 C37.57770587 251.19945146 37.4841441 254.37517223 37.39697266 257.76367188 C37.37906174 258.47381439 37.36115082 259.18395691 37.34269714 259.9156189 C37.30179423 261.40989092 37.2552799 262.9040191 37.20336914 264.39794922 C37.1283287 266.63565043 37.0788141 268.87288533 37.03173828 271.11132812 C36.72201722 282.5868661 35.87777717 294.37665782 30.31494141 304.66210938 C29.81994141 305.603125 29.32494141 306.54414063 28.81494141 307.51367188 C27.43323167 309.83811064 26.08313829 311.99022929 24.31494141 314.03710938 C23.65494141 314.03710938 22.99494141 314.03710938 22.31494141 314.03710938 C22.12931641 314.71773438 21.94369141 315.39835937 21.75244141 316.09960938 C18.36884907 323.01390676 12.39151268 327.32320782 5.31494141 330.03710938 C-1.00127229 332.04438068 -9.4777402 332.27498544 -15.68505859 329.84960938 C-21.75820705 326.18041552 -25.35761333 321.79305565 -27.27490234 314.92382812 C-28.63100469 308.87580961 -29.03309797 302.84557375 -29.39990234 296.66992188 C-29.67855757 293.11993069 -30.17533646 289.67547326 -30.74755859 286.16210938 C-32.26298355 276.13090088 -32.30165306 266.05999505 -30.68505859 256.03710938 C-31.61898437 255.77800781 -31.61898437 255.77800781 -32.57177734 255.51367188 C-35.8028804 253.25608046 -35.82896221 250.07596802 -36.49755859 246.41210938 C-38.05203505 239.2009993 -40.24279251 235.1211796 -45.68505859 230.03710938 C-46.77708642 228.71088763 -47.86028622 227.3773531 -48.93505859 226.03710938 C-53.70026053 220.58811164 -59.65974033 216.57322124 -65.75585938 212.73242188 C-71.40875821 209.11845261 -76.12084594 205.0747892 -80.81005859 200.28710938 C-81.50800537 199.58046143 -82.20595215 198.87381348 -82.92504883 198.14575195 C-87.80932695 193.12134874 -92.00899777 188.01444404 -95.68505859 182.03710938 C-96.27416016 181.18117188 -96.86326172 180.32523438 -97.47021484 179.44335938 C-102.06087078 172.65971493 -104.97261483 165.73784869 -107.68505859 158.03710938 C-107.93747314 157.42399902 -108.1898877 156.81088867 -108.44995117 156.17919922 C-110.49609357 151.13956856 -111.4062583 146.44500953 -111.87255859 141.03710938 C-111.95078857 140.16062744 -112.02901855 139.28414551 -112.10961914 138.38110352 C-112.72731451 130.45884048 -112.92194799 122.52852813 -112.9815979 114.58520508 C-112.99209467 113.19714339 -113.00692477 111.80910651 -113.02645874 110.42114258 C-113.17559589 98.18930267 -110.89775994 87.74892356 -106.68505859 76.34960938 C-106.15034064 74.8785689 -105.61647534 73.4072182 -105.08349609 71.93554688 C-104.83567383 71.25331055 -104.58785156 70.57107422 -104.33251953 69.86816406 C-103.58591049 67.75671315 -102.94368426 65.62235351 -102.31005859 63.47460938 C-99.68348049 55.4038512 -95.37507963 47.07214092 -90.68505859 40.03710938 C-90.02505859 40.03710938 -89.36505859 40.03710938 -88.68505859 40.03710938 C-88.42337891 39.43769531 -88.16169922 38.83828125 -87.89208984 38.22070312 C-86.61285671 35.90649174 -85.42255417 34.74051493 -83.37255859 33.09960938 C-81.21596583 31.32463591 -79.22817533 29.58022611 -77.24755859 27.59960938 C-75.97912109 26.33117187 -75.97912109 26.33117187 -74.68505859 25.03710938 C-74.15912109 24.50214844 -73.63318359 23.9671875 -73.09130859 23.41601562 C-64.9635273 15.68429147 -54.56386701 11.35229881 -43.96630859 8.07617188 C-41.41665798 7.26878252 -38.91536168 6.41224335 -36.40380859 5.49804688 C-35.65462158 5.22613525 -34.90543457 4.95422363 -34.13354492 4.67407227 C-32.66555857 4.13877479 -31.19914212 3.59914489 -29.73461914 3.05444336 C-19.95876956 -0.4787044 -10.2502406 -0.16912595 0 0 Z " fill="#FFFFFF" transform="translate(261.68505859375,149.962890625)"/>
<path d="M0 0 C2.00714331 0.03217526 4.0145893 0.04427333 6.02197266 0.05273438 C21.43894426 0.57471165 31.71454954 10.12935878 43.19970703 19.35546875 C46.1091221 21.66849403 49.07903317 23.88617491 52.06494141 26.09960938 C60.1796955 32.16313397 60.1796955 32.16313397 63.31494141 35.03710938 C63.31494141 35.69710937 63.31494141 36.35710937 63.31494141 37.03710938 C63.91822266 37.30265625 64.52150391 37.56820312 65.14306641 37.84179688 C72.51753608 41.90040788 75.89358929 51.88380119 79.38525391 59.13476562 C80.62389276 61.7068355 81.96140653 64.15596827 83.43603516 66.59960938 C85.34245231 70.08744118 86.32834386 73.12065416 87.25244141 76.97460938 C88.4224387 81.74308071 89.73537194 86.39027528 91.32617188 91.03588867 C94.14972895 99.39137508 95.19200139 107.19518562 95.31494141 116.03710938 C95.33927246 116.90770996 95.36360352 117.77831055 95.38867188 118.67529297 C95.46864402 121.56670838 95.52106179 124.45743367 95.56494141 127.34960938 C95.58661377 128.25662598 95.60828613 129.16364258 95.63061523 130.09814453 C95.67496554 139.63432931 92.90454561 147.55407457 88.50244141 155.91210938 C87.78993443 157.29608633 87.07769721 158.68020219 86.36572266 160.06445312 C86.01719238 160.73589355 85.66866211 161.40733398 85.30957031 162.09912109 C83.8886074 164.8678014 82.54574473 167.6735698 81.18994141 170.47460938 C76.07040115 180.65849269 70.09438414 188.51959905 60.93994141 195.34960938 C50.8728244 203.06204478 42.9789436 213.70910498 37.31494141 225.03710938 C36.65494141 225.03710938 35.99494141 225.03710938 35.31494141 225.03710938 C35.39873047 226.01292969 35.48251953 226.98875 35.56884766 227.99414062 C35.72160156 229.90259766 35.72160156 229.90259766 35.87744141 231.84960938 C35.98185547 233.11417969 36.08626953 234.37875 36.19384766 235.68164062 C36.31494141 239.03710938 36.31494141 239.03710938 35.31494141 242.03710938 C35.80621303 243.98907472 36.3011739 245.94031708 36.82797241 247.88299561 C37.57770587 251.19945146 37.4841441 254.37517223 37.39697266 257.76367188 C37.37906174 258.47381439 37.36115082 259.18395691 37.34269714 259.9156189 C37.30179423 261.40989092 37.2552799 262.9040191 37.20336914 264.39794922 C37.1283287 266.63565043 37.0788141 268.87288533 37.03173828 271.11132812 C36.72201722 282.5868661 35.87777717 294.37665782 30.31494141 304.66210938 C29.81994141 305.603125 29.32494141 306.54414063 28.81494141 307.51367188 C27.43323167 309.83811064 26.08313829 311.99022929 24.31494141 314.03710938 C23.65494141 314.03710938 22.99494141 314.03710938 22.31494141 314.03710938 C22.12931641 314.71773438 21.94369141 315.39835937 21.75244141 316.09960938 C18.36884907 323.01390676 12.39151268 327.32320782 5.31494141 330.03710938 C-1.00127229 332.04438068 -9.4777402 332.27498544 -15.68505859 329.84960938 C-21.75820705 326.18041552 -25.35761333 321.79305565 -27.27490234 314.92382812 C-28.63100469 308.87580961 -29.03309797 302.84557375 -29.39990234 296.66992188 C-29.67855757 293.11993069 -30.17533646 289.67547326 -30.74755859 286.16210938 C-32.26298355 276.13090088 -32.30165306 266.05999505 -30.68505859 256.03710938 C-31.61898437 255.77800781 -31.61898437 255.77800781 -32.57177734 255.51367188 C-35.8028804 253.25608046 -35.82896221 250.07596802 -36.49755859 246.41210938 C-38.05203505 239.2009993 -40.24279251 235.1211796 -45.68505859 230.03710938 C-46.77708642 228.71088763 -47.86028622 227.3773531 -48.93505859 226.03710938 C-53.70026053 220.58811164 -59.65974033 216.57322124 -65.75585938 212.73242188 C-71.40875821 209.11845261 -76.12084594 205.0747892 -80.81005859 200.28710938 C-81.50800537 199.58046143 -82.20595215 198.87381348 -82.92504883 198.14575195 C-87.80932695 193.12134874 -92.00899777 188.01444404 -95.68505859 182.03710938 C-96.27416016 181.18117188 -96.86326172 180.32523438 -97.47021484 179.44335938 C-102.06087078 172.65971493 -104.97261483 165.73784869 -107.68505859 158.03710938 C-107.93747314 157.42399902 -108.1898877 156.81088867 -108.44995117 156.17919922 C-110.49609357 151.13956856 -111.4062583 146.44500953 -111.87255859 141.03710938 C-111.95078857 140.16062744 -112.02901855 139.28414551 -112.10961914 138.38110352 C-112.72731451 130.45884048 -112.92194799 122.52852813 -112.9815979 114.58520508 C-112.99209467 113.19714339 -113.00692477 111.80910651 -113.02645874 110.42114258 C-113.17559589 98.18930267 -110.89775994 87.74892356 -106.68505859 76.34960938 C-106.15034064 74.8785689 -105.61647534 73.4072182 -105.08349609 71.93554688 C-104.83567383 71.25331055 -104.58785156 70.57107422 -104.33251953 69.86816406 C-103.58591049 67.75671315 -102.94368426 65.62235351 -102.31005859 63.47460938 C-99.68348049 55.4038512 -95.37507963 47.07214092 -90.68505859 40.03710938 C-90.02505859 40.03710938 -89.36505859 40.03710938 -88.68505859 40.03710938 C-88.42337891 39.43769531 -88.16169922 38.83828125 -87.89208984 38.22070312 C-86.61285671 35.90649174 -85.42255417 34.74051493 -83.37255859 33.09960938 C-81.21596583 31.32463591 -79.22817533 29.58022611 -77.24755859 27.59960938 C-75.97912109 26.33117187 -75.97912109 26.33117187 -74.68505859 25.03710938 C-74.15912109 24.50214844 -73.63318359 23.9671875 -73.09130859 23.41601562 C-64.9635273 15.68429147 -54.56386701 11.35229881 -43.96630859 8.07617188 C-41.41665798 7.26878252 -38.91536168 6.41224335 -36.40380859 5.49804688 C-35.65462158 5.22613525 -34.90543457 4.95422363 -34.13354492 4.67407227 C-32.66555857 4.13877479 -31.19914212 3.59914489 -29.73461914 3.05444336 C-19.95876956 -0.4787044 -10.2502406 -0.16912595 0 0 Z M-32.68505859 21.03710938 C-34.21321029 21.53645945 -35.74610474 22.02145945 -37.28271484 22.49414062 C-45.51093143 25.02557622 -53.00072449 27.40129826 -59.68505859 33.03710938 C-60.46623047 33.69453125 -61.24740234 34.35195312 -62.05224609 35.02929688 C-64.65516412 37.30786375 -67.16860949 39.66359759 -69.68505859 42.03710938 C-71.08691406 43.27267578 -71.08691406 43.27267578 -72.51708984 44.53320312 C-84.50871085 55.57336857 -88.51830006 69.49828547 -92.90478516 84.73632812 C-93.68505859 87.03710938 -93.68505859 87.03710938 -95.24951172 90.19799805 C-97.19042408 94.67708974 -97.08129978 98.95872628 -97.01318359 103.77539062 C-97.01131042 104.69619919 -97.00943726 105.61700775 -97.00750732 106.5657196 C-97.00081176 108.50633383 -96.98694724 110.44693514 -96.96630859 112.38745117 C-96.93526498 115.33004586 -96.92534024 118.27210171 -96.91943359 121.21484375 C-96.91025675 123.11003245 -96.89987882 125.00521579 -96.88818359 126.90039062 C-96.88393372 127.7673909 -96.87968384 128.63439117 -96.87530518 129.52766418 C-96.85924418 141.02624247 -96.85924418 141.02624247 -94.00537109 152.04492188 C-93.65893555 152.87894531 -93.3125 153.71296875 -92.95556641 154.57226562 C-92.38854004 155.85423828 -92.38854004 155.85423828 -91.81005859 157.16210938 C-91.2198291 158.51755859 -91.2198291 158.51755859 -90.61767578 159.90039062 C-85.69518192 170.78128897 -79.31543992 180.74026936 -70.68505859 189.03710938 C-70.01345703 189.75511719 -69.34185547 190.473125 -68.64990234 191.21289062 C-62.93075422 197.24058623 -56.6624301 201.57960938 -49.68505859 206.03710938 C-42.98530352 210.42261399 -38.42340348 215.59975637 -33.68505859 222.03710938 C-33.01732422 222.936875 -32.34958984 223.83664062 -31.66162109 224.76367188 C-27.13594059 231.02573592 -25.53796656 234.50464237 -25.62255859 242.28710938 C-25.63158203 243.36476563 -25.64060547 244.44242188 -25.64990234 245.55273438 C-25.66150391 246.37257813 -25.67310547 247.19242188 -25.68505859 248.03710938 C-24.57130859 248.49085938 -23.45755859 248.94460938 -22.31005859 249.41210938 C-18.68505859 251.03710938 -18.68505859 251.03710938 -16.68505859 253.03710938 C-9.29759592 255.75776095 -0.58486365 258.9491641 7.31494141 257.03710938 C12.31542883 254.55009447 17.79666026 251.48430964 21.31494141 247.03710938 C21.31494141 245.03306607 21.30364222 243.02856486 21.24462891 241.02539062 C21.50459296 229.9769183 23.67186823 219.98604266 30.31494141 211.03710938 C31.17637485 209.83545735 32.03558157 208.63220725 32.89306641 207.42773438 C34.24240979 205.53247529 35.59597735 203.64234602 36.9753418 201.76879883 C38.85855389 199.19741315 40.29977774 197.08260036 41.31494141 194.03710938 C41.97494141 194.03710938 42.63494141 194.03710938 43.31494141 194.03710938 C43.31494141 193.37710938 43.31494141 192.71710938 43.31494141 192.03710938 C44.30494141 191.70710937 45.29494141 191.37710938 46.31494141 191.03710938 C47.44782874 189.90422205 48.57502426 188.76512394 49.67431641 187.59960938 C51.68844752 185.68138927 53.88776227 184.12345291 56.12744141 182.47460938 C65.10137142 175.34080171 69.64473156 165.88988194 73.86572266 155.44726562 C75.65849434 151.22869507 77.82113088 147.30463517 80.11572266 143.34179688 C83.73874231 136.37899038 82.39484605 128.37604187 81.43994141 120.84960938 C81.34680664 120.10912354 81.25367188 119.3686377 81.15771484 118.60571289 C80.96749143 117.11084706 80.77483092 115.61628908 80.57958984 114.12207031 C80.34660416 112.28655576 80.14471801 110.44715043 79.94775391 108.60742188 C78.99366753 100.79949049 76.64608104 94.02270959 73.75634766 86.76757812 C72.58395154 83.73332801 71.63785212 80.80099635 70.81494141 77.66210938 C69.52489401 73.12417795 67.36896416 69.48476133 64.83056641 65.52929688 C63.36849754 63.12517332 62.29555078 60.74461485 61.18994141 58.16210938 C55.92973547 47.50810498 45.63957172 40.1854282 36.06103516 33.63085938 C31.81943913 30.72805619 27.72583694 27.63739225 23.62744141 24.53710938 C22.29061874 23.52614117 20.95340731 22.51568674 19.61572266 21.50585938 C19.05022705 21.07724609 18.48473145 20.64863281 17.90209961 20.20703125 C4.8651261 10.59725167 -18.85393206 15.46075042 -32.68505859 21.03710938 Z " fill="#000000" transform="translate(261.68505859375,149.962890625)"/>
<path d="M0 0 C3.84594033 2.85698424 5.82870677 6.81250591 8 11 C8 11.66 8 12.32 8 13 C8.58265625 13.25394531 9.1653125 13.50789063 9.765625 13.76953125 C12.24188033 15.13320333 13.80520626 16.64225203 15.75 18.6875 C18.39009289 21.40079324 21.05914152 23.97854306 23.9375 26.4375 C28.5044305 30.37795296 33.01236682 34.46775952 37 39 C37 39.66 37 40.32 37 41 C37.66 41 38.32 41 39 41 C40.65625 42.93359375 40.65625 42.93359375 42.5 45.4375 C44.79910263 48.74856792 44.79910263 48.74856792 48 51 C48 51.99 48 52.98 48 54 C48.66 54 49.32 54 50 54 C55 59.47619048 55 59.47619048 55 62 C55.66 62 56.32 62 57 62 C57 62.66 57 63.32 57 64 C58.98 64.99 58.98 64.99 61 66 C61 66.66 61 67.32 61 68 C62.98 68.99 62.98 68.99 65 70 C65 70.66 65 71.32 65 72 C65.66 72 66.32 72 67 72 C68.70401547 74.60614131 69.00613718 75.89975932 68.8125 79.0625 C67.60204082 83.43877551 67.60204082 83.43877551 65 85 C59.07071861 86.08905168 55.41317466 83.97397754 50.578125 80.859375 C46.45887274 77.88852034 42.46947284 74.72088392 39 71 C39 70.34 39 69.68 39 69 C38.34 69 37.68 69 37 69 C35.71558563 67.52552909 34.49983458 65.99121211 33.3125 64.4375 C25.46604367 54.62308132 16.38476621 45.65237416 6.77734375 37.55859375 C3.92364894 35.05612292 1.30426555 32.32591545 -1.3359375 29.6015625 C-2.92422733 27.91371276 -2.92422733 27.91371276 -5 27 C-5 26.34 -5 25.68 -5 25 C-5.66 25 -6.32 25 -7 25 C-11.32271663 19.92550657 -14.25173341 14.62750408 -15 8 C-14.43745666 5.08395902 -13.62268439 3.61723289 -12 1 C-8.01081407 -1.65945729 -4.53041839 -1.15319741 0 0 Z " fill="#000000" transform="translate(119,69)"/>
<path d="M0 0 C5.79538043 1.53151194 10.14079809 5.85946813 14.6015625 9.6875 C15.55216553 10.49018311 15.55216553 10.49018311 16.52197266 11.30908203 C30.02880473 22.72427904 30.02880473 22.72427904 34.6015625 27.6875 C34.6015625 28.3475 34.6015625 29.0075 34.6015625 29.6875 C35.2615625 29.6875 35.9215625 29.6875 36.6015625 29.6875 C38.046875 31.19140625 38.046875 31.19140625 39.7265625 33.25 C42.89469112 37.00506613 46.29586486 40.14015657 50.09765625 43.2421875 C50.59394531 43.71914062 51.09023437 44.19609375 51.6015625 44.6875 C51.6015625 45.3475 51.6015625 46.0075 51.6015625 46.6875 C52.1584375 46.935 52.7153125 47.1825 53.2890625 47.4375 C56.64199831 49.24989774 59.86713496 51.21864492 61.6015625 54.6875 C62.04935178 60.84460254 62.04935178 60.84460254 60.5390625 63.6875 C57.41487147 65.29998569 54.97446017 64.38931411 51.6015625 63.6875 C39.02352334 57.48357171 28.94581111 48.15610114 19.20849609 38.26318359 C11.40663409 30.38241528 2.91459271 23.75799165 -6.18359375 17.4140625 C-8.3984375 15.6875 -8.3984375 15.6875 -10.3984375 12.6875 C-11.05207871 5.82426732 -11.05207871 5.82426732 -8.9609375 2.1875 C-5.78754636 0.32990519 -3.6666812 -0.19109739 0 0 Z " fill="#000000" transform="translate(81.3984375,152.3125)"/>
<path d="M0 0 C2.4375 1.625 2.4375 1.625 4 4 C4.5625 6.9375 4.5625 6.9375 4 10 C1.80062919 12.68811988 -0.05465484 14.54083235 -3.1875 16.0625 C-5.14238337 16.83880817 -5.14238337 16.83880817 -5.80859375 18.74829102 C-7.38053187 21.71918963 -9.4593523 23.62949883 -11.875 25.96484375 C-12.86596025 26.93269761 -13.85658938 27.90089058 -14.84692383 28.86938477 C-15.62055771 29.62120529 -15.62055771 29.62120529 -16.40982056 30.38821411 C-25.01163949 38.76882597 -33.1559684 47.0709693 -40 57 C-41.32367438 58.86268595 -42.65416127 60.72038556 -43.98510742 62.57788086 C-44.83434234 63.76762196 -45.67874109 64.96083944 -46.5168457 66.15844727 C-53.80306237 76.53290239 -53.80306237 76.53290239 -57.5625 78 C-60.3270394 78 -61.72276309 77.54526791 -64 76 C-65.23714895 73.5257021 -64.95581362 72.28500667 -64.625 69.5625 C-64.53476562 68.78003906 -64.44453125 67.99757813 -64.3515625 67.19140625 C-64 65 -64 65 -63 62 C-62.34 62 -61.68 62 -61 62 C-60.88519287 61.42024414 -60.77038574 60.84048828 -60.65209961 60.24316406 C-59.49640842 56.2676902 -56.90559359 53.1202439 -54.5625 49.75 C-54.05912109 49.00492188 -53.55574219 48.25984375 -53.03710938 47.4921875 C-52.55177734 46.78835937 -52.06644531 46.08453125 -51.56640625 45.359375 C-51.12240479 44.71452148 -50.67840332 44.06966797 -50.22094727 43.40527344 C-49.81803467 42.9415332 -49.41512207 42.47779297 -49 42 C-48.34 42 -47.68 42 -47 42 C-46.73960937 41.4328125 -46.47921875 40.865625 -46.2109375 40.28125 C-44.89131636 37.79525405 -43.36127991 35.71394643 -41.625 33.5 C-40.74714844 32.37078125 -40.74714844 32.37078125 -39.8515625 31.21875 C-38.00014179 29.0001699 -36.14279458 26.93997863 -34 25 C-33.34 25 -32.68 25 -32 25 C-31.62101562 24.11054687 -31.62101562 24.11054687 -31.234375 23.203125 C-29.85373312 20.73894139 -28.44832001 19.50524776 -26.25 17.75 C-23.37405138 15.33874685 -21.17653911 13.03453769 -19.0625 9.9375 C-14.52663751 3.61440909 -8.12927054 -1.59397462 0 0 Z " fill="#000000" transform="translate(409,83)"/>
<path d="M0 0 C1.9375 1.0625 1.9375 1.0625 3 3 C3.64977899 9.06460388 3.64977899 9.06460388 1.93359375 11.53515625 C-0.30249201 13.22916061 -2.6332335 14.14781598 -5.2421875 15.14257812 C-14.58710389 18.73067338 -21.31161915 23.84900046 -28.55761719 30.65625 C-30.36032652 32.33568672 -32.23827124 33.91607956 -34.125 35.5 C-38.12645461 39.00341949 -41.82490963 42.80147042 -45.56323242 46.58007812 C-49.03098562 50.0715566 -52.56829376 53.42694372 -56.3359375 56.59765625 C-57.79146759 57.82426494 -59.18333713 59.12561337 -60.5625 60.4375 C-63.91327125 62.58543029 -66.10320938 62.57730231 -70 62 C-72 60.375 -72 60.375 -73 58 C-73.11034102 53.03465396 -71.09865322 50.34254546 -67.8581543 46.87011719 C-66.08619984 45.0867548 -64.25681507 43.46090995 -62.33984375 41.8359375 C-57.6954726 37.80605074 -53.42498307 33.4532175 -49.125 29.0625 C-43.02876241 22.90850465 -37.03352112 17.07907366 -30 12 C-29.22011719 11.3915625 -28.44023437 10.783125 -27.63671875 10.15625 C-20.07753121 4.46576113 -9.80891838 -1.70589885 0 0 Z " fill="#000000" transform="translate(447,160)"/>
<path d="M0 0 C2.375 1.3125 2.375 1.3125 4 4 C5.76627483 11.13960517 6.47049339 18.53488539 7.34375 25.82373047 C9.0240942 39.67431764 10.74389374 53.09126366 17.3125 65.625 C19.0808551 69.16171021 19.5425416 71.11178521 19 75 C17 78 17 78 14.6875 78.875 C11.12977288 79.04047568 9.86828003 78.08720529 7 76 C-3.32179291 62.4135491 -7.13484166 47.46169247 -10 31 C-10.15774902 30.13197754 -10.31549805 29.26395508 -10.47802734 28.36962891 C-10.9378778 25.83211214 -11.37895052 23.29213074 -11.8125 20.75 C-11.94865723 19.98872803 -12.08481445 19.22745605 -12.22509766 18.44311523 C-13.16472214 12.62862637 -13.67789215 6.68462744 -10.4375 1.5 C-6.93451241 -0.65568467 -4.00450586 -0.76629433 0 0 Z " fill="#000000" transform="translate(246,25)"/>
<path d="M0 0 C2.67313637 0.55622838 5.24698285 1.16561958 7.875 1.875 C16.95659764 4.14318439 26.01044976 4.75625972 35.34521484 5.14013672 C42.86677024 5.53215046 49.08010889 7.01511907 56 10 C56.67464772 12.96844996 57.14843292 15.31349776 56.5 18.3125 C55 20 55 20 51.9375 20.875 C48.71236131 20.97738536 46.96894662 20.842694 43.984375 20.05859375 C38.45604576 18.76682796 32.96568568 18.51333075 27.3125 18.1875 C18.60420575 17.58910121 10.20263277 16.49798545 1.6875 14.5625 C0.7694458 14.35713623 -0.1486084 14.15177246 -1.09448242 13.94018555 C-5.40112062 12.89947235 -8.65404847 12.05677801 -12 9 C-12.4375 6 -12.4375 6 -12 3 C-8.77514765 -1.25292183 -4.90481197 -0.45649542 0 0 Z " fill="#000000" transform="translate(387,260)"/>
<path d="M0 0 C1.54729478 2.49286381 1.62905716 3.93217335 1.125 6.8125 C-2.34115906 10.21547387 -6.78418237 11.34609231 -11.3125 12.75 C-12.13782227 13.00797363 -12.96314453 13.26594727 -13.81347656 13.53173828 C-20.18350953 15.45086895 -26.59346886 16.93261677 -33.125 18.1875 C-33.99310303 18.35499756 -34.86120605 18.52249512 -35.75561523 18.69506836 C-48.18387581 20.93991613 -48.18387581 20.93991613 -52.875 17.8125 C-53.54036365 11.71333325 -53.54036365 11.71333325 -51.671875 9.18359375 C-45.44957782 4.43571047 -34.88138309 4.22943488 -27.25024414 2.9440918 C-21.66978353 1.99383915 -16.19326306 0.76539816 -10.70703125 -0.63671875 C-3.28460844 -2.08025201 -3.28460844 -2.08025201 0 0 Z " fill="#000000" transform="translate(131.875,272.1875)"/>
<path d="M0 0 C0.66 0.33 1.32 0.66 2 1 C1.5758071 2.94045688 1.13514005 4.87731761 0.6875 6.8125 C0.44386719 7.89144531 0.20023437 8.97039062 -0.05078125 10.08203125 C-0.98201592 12.9447156 -1.68760535 14.15397066 -4 16 C-4 15.34 -4 14.68 -4 14 C-6.97 13.67 -9.94 13.34 -13 13 C-8.66666667 8.66666667 -4.33333333 4.33333333 0 0 Z " fill="#F5F5F5" transform="translate(281,433)"/>
<path d="M0 0 C0.66 0.33 1.32 0.66 2 1 C1.03900391 1.8353125 1.03900391 1.8353125 0.05859375 2.6875 C-4.85721921 7.02455108 -9.40550682 11.36455882 -13.52734375 16.46875 C-15 18 -15 18 -18 19 C-18.33 17.35 -18.66 15.7 -19 14 C-12.72463158 9.25301644 -6.37257389 4.61543036 0 0 Z " fill="#EBEBEB" transform="translate(266,424)"/>
<path d="M0 0 C0.66 0.33 1.32 0.66 2 1 C0.38113585 2.67262717 -1.2452729 4.33795537 -2.875 6 C-3.77992188 6.928125 -4.68484375 7.85625 -5.6171875 8.8125 C-8 11 -8 11 -10 11 C-10.33 9.35 -10.66 7.7 -11 6 C-9.9275 5.566875 -8.855 5.13375 -7.75 4.6875 C-4.83727354 3.44678487 -2.43963834 2.04929621 0 0 Z " fill="#EDEDED" transform="translate(260,451)"/>
<path d="M0 0 C1.98 0.66 3.96 1.32 6 2 C4.35 3.65 2.7 5.3 1 7 C0.67 4.69 0.34 2.38 0 0 Z " fill="#ECECEC" transform="translate(244,417)"/>
</svg>
