<?xml version="1.0" encoding="UTF-8"?>
<svg version="1.1" xmlns="http://www.w3.org/2000/svg" width="500" height="500">
<path d="M0 0 C0 0.66 0 1.32 0 2 C0.804375 2.3403125 0.804375 2.3403125 1.625 2.6875 C4.82460161 4.45570089 7.29037223 6.53670203 10 9 C10 9.66 10 10.32 10 11 C10.66 11 11.32 11 12 11 C13.52019203 12.88503811 14.89495985 14.75014377 16.25 16.75 C16.65114014 17.34200195 17.05228027 17.93400391 17.46557617 18.54394531 C28.53454241 35.1840028 31.06401526 52.57273182 33.75061035 71.94528198 C35.00736227 81.00598276 36.51759057 89.82005562 38.8125 98.6875 C41.64310175 109.75267579 41.51113417 120.64810333 41 132 C41.62140869 132.19190918 42.24281738 132.38381836 42.88305664 132.58154297 C43.69637451 132.84080566 44.50969238 133.10006836 45.34765625 133.3671875 C46.15468994 133.62097168 46.96172363 133.87475586 47.79321289 134.13623047 C51.09539376 135.42875353 52.31484906 136.89932227 54 140 C54.55096701 142.09625729 54.96090864 144.1911572 55.34887695 146.32348633 C56.05827668 149.23955275 57.12581131 151.74804032 58.35546875 154.484375 C61.08304862 160.93891216 62.87446568 167.35122469 64.375 174.1875 C64.51763275 174.83296783 64.6602655 175.47843567 64.80722046 176.14346313 C72.06562381 209.59616475 75.65576413 244.80691003 77 279 C77.05892318 280.34214375 77.11835621 281.68426518 77.17822266 283.02636719 C80.09709567 349.93801971 80.09709567 349.93801971 71 363 C68.36328125 364.2265625 68.36328125 364.2265625 66 365 C65.28272222 366.64551962 64.61674772 368.31422289 64 370 C60.63436931 373.32936973 57.40778744 373.60074704 52.8046875 374.09765625 C52.09837189 374.17745224 51.39205627 374.25724823 50.66433716 374.33946228 C48.40234015 374.59225654 46.1389274 374.82769189 43.875 375.0625 C42.4074252 375.22345668 40.93997532 375.3855566 39.47265625 375.54882812 C36.47569838 375.88138424 33.47756498 376.19880357 30.47827148 376.50952148 C27.65242844 376.80754261 24.85527401 377.16038724 22.03930664 377.55493164 C7.1086836 379.6187218 -7.95325904 379.35262181 -22.99377823 379.31745148 C-25.33857875 379.31244431 -27.68336235 379.31095744 -30.02816772 379.30999756 C-53.10294905 379.28988941 -75.95696151 378.4306048 -98.96160889 376.57528687 C-108.77607107 375.81290429 -118.60472656 375.5060805 -128.44125366 375.1701355 C-145.67394358 374.57586995 -162.82635896 373.62300043 -180 372.0625 C-181.34555466 371.94311569 -181.34555466 371.94311569 -182.71829224 371.82131958 C-191.63395306 371.01925183 -200.5276483 370.05689832 -209.375 368.68359375 C-210.05876709 368.59046402 -210.74253418 368.49733429 -211.44702148 368.40138245 C-216.69171037 367.51618126 -219.29543629 365.61686526 -223 362 C-224.20703125 359.71875 -224.20703125 359.71875 -224.8125 357.5 C-225.13154297 356.40171875 -225.13154297 356.40171875 -225.45703125 355.28125 C-226.61835509 350.4020189 -227.21196121 345.75954099 -227.47802734 340.73950195 C-227.5165897 340.02324583 -227.55515205 339.30698971 -227.59488297 338.56902885 C-227.72130318 336.18815317 -227.84154885 333.80701932 -227.9609375 331.42578125 C-228.0036314 330.5941427 -228.0463253 329.76250416 -228.09031296 328.90566444 C-229.16020812 308.00815809 -229.92465885 287.10019518 -230.625 266.1875 C-230.65755764 265.22356071 -230.69011528 264.25962143 -230.72365952 263.26647186 C-231.52881561 239.38906043 -232.29280608 215.51828931 -232.3125 191.625 C-232.31590393 190.65428558 -232.31930786 189.68357117 -232.32281494 188.68344116 C-232.3775482 162.10641085 -232.3775482 162.10641085 -226 155 C-222.02829789 152.59607504 -219.43273075 153.16352051 -215 154 C-214.86722656 153.16855469 -214.73445313 152.33710938 -214.59765625 151.48046875 C-214.42105469 150.39378906 -214.24445313 149.30710938 -214.0625 148.1875 C-213.80146484 146.56908203 -213.80146484 146.56908203 -213.53515625 144.91796875 C-213 142 -213 142 -212 139 C-211.34 139 -210.68 139 -210 139 C-210 138.34 -210 137.68 -210 137 C-203.375 134 -203.375 134 -200 134 C-200.12552246 133.3292041 -200.25104492 132.6584082 -200.38037109 131.96728516 C-207.26249604 94.72856759 -208.75313062 59.56047351 -186.47265625 26.98828125 C-185.98667969 26.33214844 -185.50070313 25.67601562 -185 25 C-184.22462891 23.87658203 -184.22462891 23.87658203 -183.43359375 22.73046875 C-182.96050781 22.15941406 -182.48742187 21.58835938 -182 21 C-181.34 21 -180.68 21 -180 21 C-179.731875 20.401875 -179.46375 19.80375 -179.1875 19.1875 C-178.00082594 17.00152146 -176.90400887 15.58667406 -175 14 C-174.34 14 -173.68 14 -173 14 C-173 13.34 -173 12.68 -173 12 C-172.34 12 -171.68 12 -171 12 C-171 11.34 -171 10.68 -171 10 C-169.18336945 8.37943076 -167.37523051 6.90217345 -165.4375 5.4375 C-164.85033203 4.99349854 -164.26316406 4.54949707 -163.65820312 4.09204102 C-118.62944217 -29.34074414 -44.75380535 -40.30742296 0 0 Z M-89.1875 40.375 C-90.00976074 40.81199219 -90.83202148 41.24898438 -91.67919922 41.69921875 C-99.7310384 46.14377138 -106.44074381 51.59566969 -113 58 C-113.87398437 58.83402344 -114.74796875 59.66804688 -115.6484375 60.52734375 C-131.4366276 76.70892729 -132.08499165 98.19379577 -132.1328125 119.40234375 C-131.97727294 123.61563587 -131.46559722 127.80962505 -131 132 C-96.02 132 -61.04 132 -25 132 C-24.8612681 122.09331236 -24.8612681 122.09331236 -27.30078125 113.4453125 C-27.78746202 112.08584866 -28.27369243 110.72622353 -28.75952148 109.36645508 C-29.01385956 108.67387604 -29.26819763 107.981297 -29.53024292 107.26773071 C-34.10488186 94.73704277 -37.37299412 82.84543253 -38.7109375 69.53613281 C-39.25967513 64.72170166 -40.09842866 59.95840158 -40.9375 55.1875 C-41.08372803 54.28555908 -41.22995605 53.38361816 -41.38061523 52.4543457 C-42.36034811 46.9098181 -43.70983092 41.66304539 -47 37 C-59.26657607 29.4513378 -77.34829292 34.06075622 -89.1875 40.375 Z " fill="#FFFFFF" transform="translate(329,53)"/>
<path d="M0 0 C0 0.66 0 1.32 0 2 C0.804375 2.3403125 0.804375 2.3403125 1.625 2.6875 C4.82460161 4.45570089 7.29037223 6.53670203 10 9 C10 9.66 10 10.32 10 11 C10.66 11 11.32 11 12 11 C13.52019203 12.88503811 14.89495985 14.75014377 16.25 16.75 C16.65114014 17.34200195 17.05228027 17.93400391 17.46557617 18.54394531 C28.53454241 35.1840028 31.06401526 52.57273182 33.75061035 71.94528198 C35.00736227 81.00598276 36.51759057 89.82005562 38.8125 98.6875 C41.64310175 109.75267579 41.51113417 120.64810333 41 132 C41.62140869 132.19190918 42.24281738 132.38381836 42.88305664 132.58154297 C43.69637451 132.84080566 44.50969238 133.10006836 45.34765625 133.3671875 C46.15468994 133.62097168 46.96172363 133.87475586 47.79321289 134.13623047 C51.09539376 135.42875353 52.31484906 136.89932227 54 140 C54.55096701 142.09625729 54.96090864 144.1911572 55.34887695 146.32348633 C56.05827668 149.23955275 57.12581131 151.74804032 58.35546875 154.484375 C61.08304862 160.93891216 62.87446568 167.35122469 64.375 174.1875 C64.51763275 174.83296783 64.6602655 175.47843567 64.80722046 176.14346313 C72.06562381 209.59616475 75.65576413 244.80691003 77 279 C77.05892318 280.34214375 77.11835621 281.68426518 77.17822266 283.02636719 C80.09709567 349.93801971 80.09709567 349.93801971 71 363 C68.36328125 364.2265625 68.36328125 364.2265625 66 365 C65.28272222 366.64551962 64.61674772 368.31422289 64 370 C60.63436931 373.32936973 57.40778744 373.60074704 52.8046875 374.09765625 C52.09837189 374.17745224 51.39205627 374.25724823 50.66433716 374.33946228 C48.40234015 374.59225654 46.1389274 374.82769189 43.875 375.0625 C42.4074252 375.22345668 40.93997532 375.3855566 39.47265625 375.54882812 C36.47569838 375.88138424 33.47756498 376.19880357 30.47827148 376.50952148 C27.65242844 376.80754261 24.85527401 377.16038724 22.03930664 377.55493164 C7.1086836 379.6187218 -7.95325904 379.35262181 -22.99377823 379.31745148 C-25.33857875 379.31244431 -27.68336235 379.31095744 -30.02816772 379.30999756 C-53.10294905 379.28988941 -75.95696151 378.4306048 -98.96160889 376.57528687 C-108.77607107 375.81290429 -118.60472656 375.5060805 -128.44125366 375.1701355 C-145.67394358 374.57586995 -162.82635896 373.62300043 -180 372.0625 C-181.34555466 371.94311569 -181.34555466 371.94311569 -182.71829224 371.82131958 C-191.63395306 371.01925183 -200.5276483 370.05689832 -209.375 368.68359375 C-210.05876709 368.59046402 -210.74253418 368.49733429 -211.44702148 368.40138245 C-216.69171037 367.51618126 -219.29543629 365.61686526 -223 362 C-224.20703125 359.71875 -224.20703125 359.71875 -224.8125 357.5 C-225.13154297 356.40171875 -225.13154297 356.40171875 -225.45703125 355.28125 C-226.61835509 350.4020189 -227.21196121 345.75954099 -227.47802734 340.73950195 C-227.5165897 340.02324583 -227.55515205 339.30698971 -227.59488297 338.56902885 C-227.72130318 336.18815317 -227.84154885 333.80701932 -227.9609375 331.42578125 C-228.0036314 330.5941427 -228.0463253 329.76250416 -228.09031296 328.90566444 C-229.16020812 308.00815809 -229.92465885 287.10019518 -230.625 266.1875 C-230.65755764 265.22356071 -230.69011528 264.25962143 -230.72365952 263.26647186 C-231.52881561 239.38906043 -232.29280608 215.51828931 -232.3125 191.625 C-232.31590393 190.65428558 -232.31930786 189.68357117 -232.32281494 188.68344116 C-232.3775482 162.10641085 -232.3775482 162.10641085 -226 155 C-222.02829789 152.59607504 -219.43273075 153.16352051 -215 154 C-214.86722656 153.16855469 -214.73445313 152.33710938 -214.59765625 151.48046875 C-214.42105469 150.39378906 -214.24445313 149.30710938 -214.0625 148.1875 C-213.80146484 146.56908203 -213.80146484 146.56908203 -213.53515625 144.91796875 C-213 142 -213 142 -212 139 C-211.34 139 -210.68 139 -210 139 C-210 138.34 -210 137.68 -210 137 C-203.375 134 -203.375 134 -200 134 C-200.12552246 133.3292041 -200.25104492 132.6584082 -200.38037109 131.96728516 C-207.26249604 94.72856759 -208.75313062 59.56047351 -186.47265625 26.98828125 C-185.98667969 26.33214844 -185.50070313 25.67601562 -185 25 C-184.22462891 23.87658203 -184.22462891 23.87658203 -183.43359375 22.73046875 C-182.96050781 22.15941406 -182.48742187 21.58835938 -182 21 C-181.34 21 -180.68 21 -180 21 C-179.731875 20.401875 -179.46375 19.80375 -179.1875 19.1875 C-178.00082594 17.00152146 -176.90400887 15.58667406 -175 14 C-174.34 14 -173.68 14 -173 14 C-173 13.34 -173 12.68 -173 12 C-172.34 12 -171.68 12 -171 12 C-171 11.34 -171 10.68 -171 10 C-169.18336945 8.37943076 -167.37523051 6.90217345 -165.4375 5.4375 C-164.85033203 4.99349854 -164.26316406 4.54949707 -163.65820312 4.09204102 C-118.62944217 -29.34074414 -44.75380535 -40.30742296 0 0 Z M-89.1875 40.375 C-90.00976074 40.81199219 -90.83202148 41.24898438 -91.67919922 41.69921875 C-99.7310384 46.14377138 -106.44074381 51.59566969 -113 58 C-113.87398437 58.83402344 -114.74796875 59.66804688 -115.6484375 60.52734375 C-131.4366276 76.70892729 -132.08499165 98.19379577 -132.1328125 119.40234375 C-131.97727294 123.61563587 -131.46559722 127.80962505 -131 132 C-96.02 132 -61.04 132 -25 132 C-24.8612681 122.09331236 -24.8612681 122.09331236 -27.30078125 113.4453125 C-27.78746202 112.08584866 -28.27369243 110.72622353 -28.75952148 109.36645508 C-29.01385956 108.67387604 -29.26819763 107.981297 -29.53024292 107.26773071 C-34.10488186 94.73704277 -37.37299412 82.84543253 -38.7109375 69.53613281 C-39.25967513 64.72170166 -40.09842866 59.95840158 -40.9375 55.1875 C-41.08372803 54.28555908 -41.22995605 53.38361816 -41.38061523 52.4543457 C-42.36034811 46.9098181 -43.70983092 41.66304539 -47 37 C-59.26657607 29.4513378 -77.34829292 34.06075622 -89.1875 40.375 Z M-201 154 C-209.45246055 165.26485407 -207.1161347 181.67225675 -206.453125 194.828125 C-206.35991425 196.94619728 -206.26837665 199.06434377 -206.17840576 201.18255615 C-205.93795447 206.74654241 -205.67653803 212.30933977 -205.41003418 217.87213135 C-205.14740221 223.41554907 -204.90188994 228.95971365 -204.65625 234.50390625 C-204.55951563 236.68440342 -204.46275975 238.86489965 -204.36598206 241.0453949 C-204.318519 242.1155377 -204.27105595 243.1856805 -204.22215462 244.28825188 C-204.07867352 247.50333401 -203.93271292 250.71829572 -203.78623962 253.9332428 C-203.05523944 270.07670225 -202.52060426 286.21757859 -202.10292053 302.37193298 C-201.83037137 311.97960428 -201.44306823 321.58395868 -201.06591797 331.18798828 C-201.00343909 333.8532911 -201.07162972 336.48859638 -201.16015625 339.15234375 C-201.10730469 340.42207031 -201.05445313 341.69179688 -201 343 C-197.2077096 345.5281936 -193.79526879 345.62560426 -189.375 346 C-188.09681145 346.11311523 -188.09681145 346.11311523 -186.7928009 346.22851562 C-184.86913396 346.39748862 -182.94544077 346.56616283 -181.02172852 346.73461914 C-179.13698191 346.90014548 -177.25235606 347.0670598 -175.36791992 347.23608398 C-161.68210524 348.45436333 -147.99070414 349.31612528 -134.26953125 350 C-133.4437709 350.04115936 -132.61801056 350.08231873 -131.76722717 350.12472534 C-124.91554278 350.46457015 -118.06344221 350.79572656 -111.21124268 351.125 C-105.25124839 351.41157451 -99.29148509 351.70238783 -93.33203125 352 C-92.51224855 352.04079304 -91.69246586 352.08158607 -90.84784126 352.12361526 C-80.64703051 352.63684214 -70.49516528 353.32199328 -60.33065796 354.34310913 C-50.88019253 355.26624503 -41.42638872 355.45391665 -31.9375 355.625 C-30.17251153 355.66340115 -28.40753731 355.7024633 -26.64257812 355.7421875 C-22.486114 355.83280109 -18.32967225 355.90671942 -14.17266846 355.96749878 C-12.23075979 355.99654804 -10.28895147 356.03213505 -8.34716797 356.06860352 C-0.57056287 356.15725423 7.02501163 355.55218613 14.75 354.6875 C16.61072144 354.48338501 16.61072144 354.48338501 18.5090332 354.27514648 C21.06900797 353.99265865 23.62866274 353.70725586 26.18798828 353.41894531 C29.91343253 353.00951388 33.64096237 352.63737721 37.37109375 352.2734375 C39.64331321 352.03726554 41.91545272 351.8003227 44.1875 351.5625 C45.25000977 351.46477295 46.31251953 351.3670459 47.40722656 351.26635742 C48.86660645 351.10550659 48.86660645 351.10550659 50.35546875 350.94140625 C51.20778076 350.85576416 52.06009277 350.77012207 52.93823242 350.68188477 C55.07798245 350.17278892 55.07798245 350.17278892 56.27587891 348.49584961 C57.36779276 344.73231779 57.26387695 341.00868554 57.23046875 337.125 C57.23001053 336.24585938 57.22955231 335.36671875 57.2290802 334.4609375 C57.22605806 332.59145771 57.21817288 330.72198042 57.20581055 328.85253906 C57.18792146 326.06565848 57.18529866 323.27911866 57.18554688 320.4921875 C57.15024681 301.77117565 56.11319112 283.19295875 54.3125 264.5625 C54.22763336 263.6802475 54.14276672 262.797995 54.05532837 261.88900757 C51.36519777 234.20516842 48.48531502 206.35684019 42.375 179.1875 C42.09809326 177.94911377 41.82118652 176.71072754 41.53588867 175.43481445 C38.93540787 164.3051411 38.93540787 164.3051411 32.0625 155.5 C28.67418142 153.843111 25.69912372 153.82961198 21.96020508 153.87548828 C20.22052963 153.89582123 20.22052963 153.89582123 18.44570923 153.91656494 C14.51489167 154.01174651 10.59072496 154.16312147 6.6632843 154.34939575 C-16.68637677 155.42873151 -40.07778476 155.15373327 -63.44571304 155.12857056 C-67.21449103 155.12497424 -70.98326518 155.12337637 -74.75204468 155.12231445 C-106.09125266 155.11132595 -137.42101731 155.02566857 -168.75257874 154.28494263 C-171.46989728 154.2220677 -174.18727037 154.16688417 -176.90478516 154.11328125 C-180.43779213 154.04318089 -183.96645273 153.92740667 -187.49755859 153.79296875 C-189.24183837 153.74650112 -190.98614123 153.70088975 -192.73046875 153.65625 C-193.52503983 153.61624878 -194.3196109 153.57624756 -195.13825989 153.53503418 C-197.59776458 153.43221989 -197.59776458 153.43221989 -201 154 Z " fill="#000000" transform="translate(329,53)"/>
<path d="M0 0 C1.59799438 -0.02670776 1.59799438 -0.02670776 3.22827148 -0.05395508 C13.51418521 -0.04356769 23.04944625 2.20156415 32.4375 6.375 C33.10676514 6.67172607 33.77603027 6.96845215 34.46557617 7.27416992 C52.98881523 15.86823613 68.58603493 30.43266862 76.5625 49.3125 C77.68034231 53.18840846 78.4221969 57.09266291 79.125 61.0625 C79.33060547 62.14869629 79.53621094 63.23489258 79.74804688 64.35400391 C80.73705024 69.61669596 81.66630866 74.8895509 82.58984375 80.1640625 C82.91369185 82.00527356 83.23790336 83.84642075 83.5625 85.6875 C83.71968506 86.58871582 83.87687012 87.48993164 84.03881836 88.41845703 C85.10990584 94.3658254 86.53777054 100.12690035 88.1875 105.9375 C90.92914542 115.61626102 91.85586075 125.30353507 92.5625 135.3125 C80.57846707 136.60061102 68.59869371 136.41276305 56.5625 136.3125 C57.50537109 131.57128906 57.50537109 131.57128906 58.01953125 129.2421875 C58.81176794 124.66288532 58.48795941 121.49558105 56.765625 117.1640625 C51.05684025 102.17334172 48.16384976 87.03893012 46.59863281 71.11499023 C44.57550823 46.666647 44.57550823 46.666647 31.8125 26.75 C20.47860598 19.36777018 4.59887122 18.63183176 -8.26928711 21.33813477 C-25.42510279 25.44681834 -40.02166601 34.08735732 -52.87890625 46.0625 C-54.4375 47.3125 -54.4375 47.3125 -56.4375 47.3125 C-56.7675 48.3025 -57.0975 49.2925 -57.4375 50.3125 C-58.0975 50.3125 -58.7575 50.3125 -59.4375 50.3125 C-59.4375 50.9725 -59.4375 51.6325 -59.4375 52.3125 C-60.0975 52.3125 -60.7575 52.3125 -61.4375 52.3125 C-61.71207031 52.89386719 -61.98664063 53.47523437 -62.26953125 54.07421875 C-63.40751018 56.25502786 -64.68936867 58.13084909 -66.125 60.125 C-81.69168778 83.36057073 -81.86153555 109.50604397 -78.4375 136.3125 C-83.40353713 136.47974111 -88.36972678 136.64033783 -93.33618164 136.79467773 C-95.02699623 136.84817115 -96.71775358 136.90350598 -98.40844727 136.96069336 C-100.83337047 137.04240041 -103.25841994 137.11756395 -105.68359375 137.19140625 C-106.82422523 137.23195885 -106.82422523 137.23195885 -107.98789978 137.27333069 C-109.80373334 137.32541299 -111.62095843 137.32436585 -113.4375 137.3125 C-117.70969815 133.04030185 -116.09402692 116.26382694 -116.47729492 109.98071289 C-116.57522762 108.41880777 -116.67900517 106.8572574 -116.78881836 105.29614258 C-117.7893785 91.01295846 -117.96020377 76.90766255 -111.8125 63.625 C-111.46276123 62.83391846 -111.11302246 62.04283691 -110.75268555 61.2277832 C-106.56379604 51.99724925 -101.54591732 42.62998841 -94.4375 35.3125 C-93.7775 35.3125 -93.1175 35.3125 -92.4375 35.3125 C-92.4375 34.6525 -92.4375 33.9925 -92.4375 33.3125 C-91.7775 33.3125 -91.1175 33.3125 -90.4375 33.3125 C-90.4375 32.6525 -90.4375 31.9925 -90.4375 31.3125 C-66.06109229 7.87153005 -32.59013648 0.34608583 0 0 Z " fill="#FFFFFF" transform="translate(260.4375,48.6875)"/>
<path d="M0 0 C0.5671875 0.49113281 1.134375 0.98226563 1.71875 1.48828125 C1.71875 2.14828125 1.71875 2.80828125 1.71875 3.48828125 C2.275625 3.71515625 2.8325 3.94203125 3.40625 4.17578125 C9.16938871 7.44675187 12.50273644 12.38245664 14.71875 18.48828125 C15.90710509 25.35433287 12.89120767 31.5152001 9.71875 37.48828125 C6.81172711 41.52758001 3.86261593 44.72570396 -0.28125 47.48828125 C-1.27125 47.48828125 -2.26125 47.48828125 -3.28125 47.48828125 C-2.19876309 49.19715104 -1.11521706 50.90534996 -0.03125 52.61328125 C0.60425781 53.61488281 1.23976563 54.61648438 1.89453125 55.6484375 C3.2828413 57.80968248 4.69674596 59.93792522 6.15625 62.05078125 C7.71875 64.48828125 7.71875 64.48828125 7.71875 66.48828125 C8.3375 66.75640625 8.95625 67.02453125 9.59375 67.30078125 C11.71875 68.48828125 11.71875 68.48828125 13.71875 71.48828125 C13.65625 74.48828125 13.65625 74.48828125 12.71875 77.48828125 C5.85846547 83.30912873 -3.88380617 82.77939589 -12.34375 82.67578125 C-13.99733521 82.66393799 -13.99733521 82.66393799 -15.68432617 82.65185547 C-40.13084035 82.39744689 -40.13084035 82.39744689 -44.28125 79.48828125 C-45.32746254 75.7219161 -45.85606508 73.55579497 -43.96875 70.05078125 C-42.28125 68.48828125 -42.28125 68.48828125 -40.28125 68.48828125 C-40.00539062 67.77285156 -39.72953125 67.05742187 -39.4453125 66.3203125 C-38.29876478 63.5308927 -37.01897885 60.86537767 -35.65625 58.17578125 C-35.21023437 57.29277344 -34.76421875 56.40976562 -34.3046875 55.5 C-33.96695313 54.83613281 -33.62921875 54.17226563 -33.28125 53.48828125 C-33.78914062 53.13378906 -34.29703125 52.77929688 -34.8203125 52.4140625 C-43.05442897 46.04572897 -47.24469863 36.61692302 -49.03515625 26.46484375 C-49.87750653 19.69930025 -48.70450966 14.72931793 -46.28125 8.48828125 C-45.930625 7.43640625 -45.58 6.38453125 -45.21875 5.30078125 C-41.46932637 -0.14193047 -35.23413459 -3.24701143 -28.90625 -4.88671875 C-18.35840679 -6.67259696 -9.06823414 -6.0092579 0 0 Z " fill="#000000" transform="translate(280.28125,255.51171875)"/>
<path d="M0 0 C1.61826204 1.24762783 3.20259944 2.54049683 4.75 3.875 C5.91789062 4.86113281 5.91789062 4.86113281 7.109375 5.8671875 C9.32605486 8.36782222 9.87324643 9.67398638 10 13 C9.14453125 15.5703125 9.14453125 15.5703125 7.8125 18.125 C7.38582031 18.97320312 6.95914063 19.82140625 6.51953125 20.6953125 C4.87789467 23.18519831 3.60441797 24.55041671 1 26 C-1.21875 26.0390625 -1.21875 26.0390625 -3.5 25.625 C-6.69491139 25.06698466 -8.88811562 25.0239999 -12 26 C-12.12375 26.556875 -12.2475 27.11375 -12.375 27.6875 C-13.05976855 30.22114364 -13.99133763 32.57921032 -15 35 C-23.29556928 29.83831245 -25.59064259 24.28655235 -28 15 C-28.84234605 10.02250063 -28.61920031 6.37862087 -25.875 2.0625 C-19.83700798 -5.16301953 -7.35420686 -5.2225527 0 0 Z " fill="#FFFFFF" transform="translate(272,266)"/>
<path d="M0 0 C4.37908374 1.34914972 6.16226588 3.02748616 8.6875 6.8125 C9.55955078 8.09060547 9.55955078 8.09060547 10.44921875 9.39453125 C11.92676332 11.87695501 13.01247446 14.29038559 14 17 C7.2314676 17.10152799 0.69675136 17.03026944 -6 16 C-5.3739007 12.37384158 -4.38690533 9.15607632 -3 5.75 C-2.649375 4.87859375 -2.29875 4.0071875 -1.9375 3.109375 C-1 1 -1 1 0 0 Z " fill="#FFFFFF" transform="translate(259,308)"/>
</svg>
