<?xml version="1.0" encoding="UTF-8"?>
<svg version="1.1" xmlns="http://www.w3.org/2000/svg" width="500" height="500">
<path d="M0 0 C10.94333974 9.99174498 14.07019432 25.42765614 14.875 39.625 C15.0319928 44.70852591 15.07131098 49.78940661 15.0625 54.875 C15.06156342 55.57708588 15.06062683 56.27917175 15.05966187 57.00253296 C14.98454397 83.14985089 12.78655523 109.70712265 3.46655273 134.33837891 C0.54306159 142.1539992 -1.19819504 150.10399197 -2.94140625 158.25 C-4.02174899 163.28020532 -5.32275705 168.22820524 -6.6875 173.1875 C-8.8311095 181.03790414 -10.43580087 188.9405075 -11.86938477 196.94946289 C-12.02076904 197.7924292 -12.17215332 198.63539551 -12.328125 199.50390625 C-12.45864258 200.2522876 -12.58916016 201.00066895 -12.72363281 201.77172852 C-13.125 203.625 -13.125 203.625 -14.125 205.625 C-13.1659375 205.810625 -13.1659375 205.810625 -12.1875 206 C-11.506875 206.20625 -10.82625 206.4125 -10.125 206.625 C-8.57913124 209.71673752 -8.83140479 212.21929552 -9.125 215.625 C-10.97010514 218.06317465 -12.33774508 219.31934231 -15.1875 220.42578125 C-17.32654387 221.46933901 -17.32654387 221.46933901 -17.890625 223.8046875 C-18.05046875 224.69414062 -18.2103125 225.58359375 -18.375 226.5 C-20.21326032 234.25133102 -24.67325485 240.72204633 -29.91796875 246.65234375 C-31.56996692 249.35221131 -31.134519 250.70442654 -30.4375 253.75 C-30.22996094 254.72324219 -30.02242188 255.69648438 -29.80859375 256.69921875 C-29.38448383 258.51440923 -28.96006413 260.3295274 -28.53515625 262.14453125 C-23.73403465 283.83719014 -30.57640983 308.51214775 -42.2734375 327.0625 C-51.4170224 339.71691286 -68.22244578 351.79315288 -83.6875 354.9375 C-98.01108318 357.05577639 -110.71846179 353.58326114 -122.40625 344.9375 C-123.53292045 343.94919259 -124.64355991 342.94203173 -125.73046875 341.91015625 C-127.66154635 340.13053571 -129.84130057 338.90118497 -132.125 337.625 C-133.125 336.625 -133.125 336.625 -133.375 333.3125 C-133.11678534 329.50383379 -132.82176259 328.22188249 -130.125 325.625 C-129.135 325.295 -128.145 324.965 -127.125 324.625 C-125.53941619 322.98997064 -125.53941619 322.98997064 -124.0625 321.0625 C-122.52734375 319.12109375 -122.52734375 319.12109375 -121.125 317.625 C-120.465 317.625 -119.805 317.625 -119.125 317.625 C-118.856875 316.985625 -118.58875 316.34625 -118.3125 315.6875 C-117.125 313.625 -117.125 313.625 -114.125 312.625 C-111.61210075 306.50405285 -111.77006597 300.22432028 -111.625 293.6875 C-110.44598452 259.7274235 -110.44598452 259.7274235 -98.29296875 247.859375 C-94.99067887 245.11851861 -91.63753675 242.5640008 -87.98999023 240.29956055 C-85.93967999 238.79214113 -85.93967999 238.79214113 -85.68676758 236.49609375 C-85.7277356 235.29146484 -85.7277356 235.29146484 -85.76953125 234.0625 C-85.78693359 233.18335938 -85.80433594 232.30421875 -85.82226562 231.3984375 C-85.86029297 230.48320312 -85.89832031 229.56796875 -85.9375 228.625 C-85.98982942 226.81261513 -86.03817779 225.00010976 -86.08203125 223.1875 C-86.11272705 222.38441406 -86.14342285 221.58132813 -86.17504883 220.75390625 C-86.125 218.625 -86.125 218.625 -85.125 215.625 C-85.10890907 213.67673161 -85.15957009 211.72766267 -85.24609375 209.78125 C-85.29483643 208.57218994 -85.3435791 207.36312988 -85.39379883 206.11743164 C-85.44947021 204.7999292 -85.5051416 203.48242676 -85.5625 202.125 C-87.40944819 151.71836251 -87.40944819 151.71836251 -82.68505859 128.56445312 C-81.87057495 124.28965667 -81.27784597 119.98972265 -80.66870117 115.68164062 C-78.95769115 103.70196617 -76.69986234 92.18436569 -73.125 80.625 C-72.74956055 79.40329102 -72.37412109 78.18158203 -71.98730469 76.92285156 C-59.3878029 36.25084584 -59.3878029 36.25084584 -47.125 20.625 C-46.465 20.625 -45.805 20.625 -45.125 20.625 C-44.898125 20.08875 -44.67125 19.5525 -44.4375 19 C-41.02673591 12.82814117 -36.51548411 9.16206412 -30.6875 5.4375 C-30.04490234 5.01275391 -29.40230469 4.58800781 -28.74023438 4.15039062 C-18.56382132 -2.49268917 -11.47138897 -5.04741115 0 0 Z " fill="#000000" transform="translate(228.125,80.375)"/>
<path d="M0 0 C8.29273968 11.05698624 11.54575935 25.62092025 11.75 39.25 C11.76844971 39.94552979 11.78689941 40.64105957 11.8059082 41.35766602 C11.67686757 52.32356477 6.43866034 62.22980695 1.375 71.6875 C0.87097656 72.65494141 0.36695313 73.62238281 -0.15234375 74.61914062 C-5.41150196 84.57925995 -11.03308105 92.76345597 -19.125 100.625 C-19.84171875 101.3365625 -20.5584375 102.048125 -21.296875 102.78125 C-25.38623517 106.81155804 -29.58006767 110.68116851 -33.9309082 114.42749023 C-41.75843044 121.19397403 -45.44468481 126.55747849 -46.75 137 C-45.2959375 137.556875 -45.2959375 137.556875 -43.8125 138.125 C-40.75 140 -40.75 140 -39.5625 142.875 C-39.75 146 -39.75 146 -41.5 148.625 C-45.45697724 152.04845222 -50.70153211 153.88295394 -55.75 155 C-58.423046 154.66970983 -60.34804575 154.20097713 -62.75 153 C-63.08 154.32 -63.41 155.64 -63.75 157 C-67 157.75 -67 157.75 -70.75 158 C-75.006019 155.28087675 -76.4399633 150.68943072 -77.75 146 C-81.19171406 128.81516568 -78.08946857 108.94295505 -69.4453125 93.69921875 C-64.17890444 86.03763641 -56.54365545 80.90105714 -48.5 76.5 C-43.10210831 73.45112664 -39.79842553 70.38270942 -36.75 65 C-36.40195312 64.40058594 -36.05390625 63.80117187 -35.6953125 63.18359375 C-33.48865032 58.81908934 -33.56249227 55.66520892 -34.75 51 C-36.14974414 47.77450263 -37.26632831 45.48367169 -39.75 43 C-45.65961929 42.1815815 -50.71222721 42.6414848 -55.75 46 C-59.01174204 48.71811836 -60.26493865 51.075195 -61.75 55 C-64.85457279 56.55228639 -67.31623258 56.27427395 -70.75 56 C-73.953125 54.35546875 -73.953125 54.35546875 -77 52.1875 C-78.01578125 51.47980469 -79.0315625 50.77210938 -80.078125 50.04296875 C-84.75425815 46.46750437 -86.81763458 43.70047798 -88.75 38 C-88.61648688 31.45785736 -84.99444511 27.16963513 -80.625 22.625 C-72.96600221 15.31075288 -65.17802687 9.65589157 -55.5 5.3125 C-54.4680249 4.84481201 -53.4360498 4.37712402 -52.37280273 3.89526367 C-37.23463621 -2.69532227 -14.95319178 -10.87504857 0 0 Z " fill="#000000" transform="translate(350.75,136)"/>
<path d="M0 0 C5.66758272 4.42703887 6.30627733 13.45752612 7.17840576 20.10322571 C8.15302799 28.25594182 8.12517861 36.41019578 8.0703125 44.609375 C8.06754303 45.42169586 8.06477356 46.23401672 8.06192017 47.07095337 C8.01310576 59.29152717 7.58597162 71.31449816 5.8203125 83.421875 C5.63539804 84.8593726 5.45050234 86.29687262 5.265625 87.734375 C3.89153432 97.62561163 1.36196172 107.07877427 -1.41186523 116.66162109 C-4.45655912 127.20470474 -6.99597278 137.84554654 -9.49023438 148.52978516 C-10.20706835 151.53673105 -10.96391694 154.53171403 -11.7265625 157.52734375 C-13.05238223 162.79769103 -14.16097902 168.08486769 -15.1796875 173.421875 C-16.62317318 180.82357815 -18.22489708 188.13583797 -20.1796875 195.421875 C-25.47898892 196.09633154 -28.34016936 195.76943891 -32.6796875 192.546875 C-41.21611098 185.19647262 -46.50143268 176.46432048 -51.515625 166.546875 C-52.98400984 163.42303103 -52.98400984 163.42303103 -55.1796875 161.421875 C-57.24842784 160.7793515 -57.24842784 160.7793515 -59.1796875 160.421875 C-59.92472074 149.46160818 -58.45990315 139.55934697 -56.23950195 128.83984375 C-54.54807222 120.60495686 -53.28066168 112.37966053 -52.1796875 104.046875 C-48.29256897 75.90726792 -40.23156961 31.60528391 -17.87109375 11.9140625 C-15.99501489 10.37208995 -15.99501489 10.37208995 -14.3046875 7.796875 C-11.04791752 4.15695561 -5.15554715 -1.36742111 0 0 Z " fill="#FFFFFF" transform="translate(217.1796875,97.578125)"/>
<path d="M0 0 C2.37109375 -0.23828125 2.37109375 -0.23828125 6.24609375 0.44921875 C8.63828781 2.78578039 9.88803482 5.42240107 11.24609375 8.44921875 C11.62636719 9.2278125 12.00664062 10.00640625 12.3984375 10.80859375 C15.44943735 17.27975357 16.45617588 22.974296 16.55859375 30.13671875 C16.60209961 31.12188477 16.60209961 31.12188477 16.64648438 32.12695312 C16.7758033 42.42272872 10.80421904 51.5503108 6.12109375 60.38671875 C5.58355469 61.41345703 5.04601562 62.44019531 4.4921875 63.49804688 C0.5518488 70.99058618 0.5518488 70.99058618 -1.75390625 74.44921875 C-2.41390625 74.44921875 -3.07390625 74.44921875 -3.75390625 74.44921875 C-3.98078125 75.00609375 -4.20765625 75.56296875 -4.44140625 76.13671875 C-6.13533861 79.12126624 -8.27005323 81.0757592 -10.75390625 83.44921875 C-11.24761719 83.96355469 -11.74132812 84.47789062 -12.25 85.0078125 C-15.6902451 88.58005741 -19.28714173 91.69986815 -23.19140625 94.76171875 C-35.81457376 105.04405163 -40.32638414 115.8606713 -42.06640625 131.890625 C-42.91149968 135.03571702 -44.31333596 136.35800429 -46.75390625 138.44921875 C-51.24830973 124.12330765 -48.64271573 108.98696158 -42.75390625 95.44921875 C-37.86919464 86.69042552 -31.13301318 81.89696694 -22.55078125 77.05078125 C-13.48460157 71.85925378 -6.96560773 62.92198476 -4.0625 52.82421875 C-2.94378777 44.21438284 -6.07236198 35.57272127 -10.75390625 28.44921875 C-15.06122152 24.14190348 -19.73606337 22.16762498 -25.81640625 22.01171875 C-34.32345055 22.19540662 -41.94885888 25.25550241 -48.00390625 31.26171875 C-49.36515625 32.83953125 -49.36515625 32.83953125 -50.75390625 34.44921875 C-53.39390625 33.12921875 -56.03390625 31.80921875 -58.75390625 30.44921875 C-58.75390625 27.44921875 -58.75390625 27.44921875 -57.27734375 25.6875 C-41.22180167 11.29589592 -20.96148103 3.41924868 0 0 Z " fill="#FFFFFF" transform="translate(332.75390625,144.55078125)"/>
<path d="M0 0 C2.88949504 2.27678284 4.08698134 4.96366093 5.62109375 8.27734375 C6.11609375 9.26734375 6.11609375 9.26734375 6.62109375 10.27734375 C7.29757091 18.09548692 7.79465083 25.73897793 3.21484375 32.46875 C-0.51792528 36.70471093 -3.78320934 38.87570778 -9.43359375 39.75 C-17.09480807 40.10151454 -23.113061 38.78455957 -29.37890625 34.27734375 C-31.35652445 32.36683929 -32.79584754 30.54639456 -34.37890625 28.27734375 C-35.03890625 28.93734375 -35.69890625 29.59734375 -36.37890625 30.27734375 C-42.38349341 30.82321531 -42.38349341 30.82321531 -45.31640625 29.21484375 C-47.10547086 25.95243181 -46.90697396 23.97381769 -46.37890625 20.27734375 C-42.21624047 10.8798104 -34.83204742 1.15492175 -25.30078125 -3.1015625 C-16.92405065 -5.80867666 -7.68707628 -4.2350836 0 0 Z " fill="#000000" transform="translate(312.37890625,321.72265625)"/>
<path d="M0 0 C3.04104186 2.87284264 5.38981801 5.86487879 7.75 9.3125 C14.29088402 18.38026897 21.45117661 24.41077402 32.5625 26.75 C33.366875 26.8325 34.17125 26.915 35 27 C32.15895656 32.88322269 29.91495918 36.97679864 24 40 C23.34 40 22.68 40 22 40 C21.896875 41.11375 21.79375 42.2275 21.6875 43.375 C21.460625 44.57125 21.23375 45.7675 21 47 C17.15691236 49.56205842 15.5659696 49.67366765 11 49 C7.74052371 47.1252313 5.23013846 45.03593913 3 42 C2.33126737 39.01921503 2.56727841 37.08314131 3 34 C1.68 33.67 0.36 33.34 -1 33 C-1.20638953 10.40510967 -1.20638953 10.40510967 0 0 Z " fill="#FFFFFF" transform="translate(158,281)"/>
<path d="M0 0 C2.5625 1.4375 2.5625 1.4375 4 4 C4.80152511 8.52228902 4.52575932 11.92657471 2.5 16.0625 C-0.36734174 18.28468985 -2.35746726 18.66705998 -5.97265625 18.41796875 C-10.76201829 17.43056656 -13.35822224 14.96266665 -16 11 C-17 8 -17 8 -16.375 5.8125 C-11.92948435 -0.0474979 -7.14836588 -0.87741675 0 0 Z " fill="#FFFFFF" transform="translate(303,331)"/>
<path d="M0 0 C4.0855052 7.8791886 4.0855052 7.8791886 3.85546875 10.89453125 C2.6285848 13.91412234 0.68537677 15.20970172 -1.875 17.1875 C-3.20144531 18.22970703 -3.20144531 18.22970703 -4.5546875 19.29296875 C-7 21 -7 21 -10 22 C-11.17571451 18.32589215 -11.07366746 14.83070817 -11 11 C-7.97265625 10.75585938 -7.97265625 10.75585938 -4.9453125 10.51171875 C-2.60480784 10.12606964 -2.60480784 10.12606964 -1 7 C-0.60612212 4.67612053 -0.26513915 2.34206251 0 0 Z " fill="#F4F4F4" transform="translate(168,391)"/>
<path d="M0 0 C0.07466101 4.69560343 0.12884101 9.39085443 0.16479492 14.08691406 C0.17979745 15.68137641 0.20020621 17.27579808 0.22631836 18.87011719 C0.26308134 21.17393077 0.27981155 23.4771946 0.29296875 25.78125 C0.30845261 26.48366821 0.32393646 27.18608643 0.33988953 27.90979004 C0.34165035 33.19476225 -0.93304141 37.13656803 -3 42 C-3.33 42 -3.66 42 -4 42 C-4.02481234 37.12532925 -4.0429131 32.25069568 -4.05493164 27.37597656 C-4.05994473 25.71939452 -4.06675689 24.06281687 -4.07543945 22.40625 C-4.08763793 20.01821811 -4.09325867 17.63024498 -4.09765625 15.2421875 C-4.10281754 14.50757294 -4.10797882 13.77295837 -4.11329651 13.01608276 C-4.11373917 8.91199019 -3.97134729 4.99804247 -3 1 C-1 0 -1 0 0 0 Z " fill="#F1F1F1" transform="translate(185,341)"/>
<path d="M0 0 C0.33 0 0.66 0 1 0 C1 6.6 1 13.2 1 20 C-0.32 20.33 -1.64 20.66 -3 21 C-3.2424978 13.67117748 -3.35898466 6.71796932 0 0 Z " fill="#F5F5F5" transform="translate(133,346)"/>
<path d="M0 0 C1.32 0.33 2.64 0.66 4 1 C3.34 8.92 2.68 16.84 2 25 C1.67 25 1.34 25 1 25 C0.15672251 16.64251778 -0.12190678 8.39802254 0 0 Z " fill="#E5E5E5" transform="translate(165,344)"/>
<path d="M0 0 C2 2.66666667 4 5.33333333 6 8 C3.69 8.33 1.38 8.66 -1 9 C-0.67 6.03 -0.34 3.06 0 0 Z " fill="#E9E9E9" transform="translate(142,412)"/>
</svg>
