<?xml version="1.0" encoding="UTF-8"?>
<svg version="1.1" xmlns="http://www.w3.org/2000/svg" width="500" height="500">
<path d="M0 0 C0.52207031 0.48855469 1.04414063 0.97710937 1.58203125 1.48046875 C1.58203125 2.14046875 1.58203125 2.80046875 1.58203125 3.48046875 C2.24203125 3.48046875 2.90203125 3.48046875 3.58203125 3.48046875 C5.52040985 5.71388214 7.34389644 7.95283517 9.14453125 10.29296875 C9.65177734 10.93556641 10.15902344 11.57816406 10.68164062 12.24023438 C12.85256008 15.02976469 14.45195357 17.09023571 15.58203125 20.48046875 C16.24203125 20.48046875 16.90203125 20.48046875 17.58203125 20.48046875 C18.87109375 22.16015625 18.87109375 22.16015625 20.20703125 24.35546875 C20.65304687 25.07476562 21.0990625 25.7940625 21.55859375 26.53515625 C22.58203125 28.48046875 22.58203125 28.48046875 22.58203125 30.48046875 C23.24203125 30.48046875 23.90203125 30.48046875 24.58203125 30.48046875 C25.75336183 32.93667726 26.91924847 35.39521792 28.08203125 37.85546875 C28.58283203 38.90347656 28.58283203 38.90347656 29.09375 39.97265625 C31.58203125 45.25390625 31.58203125 45.25390625 31.58203125 47.48046875 C32.24203125 47.48046875 32.90203125 47.48046875 33.58203125 47.48046875 C33.83984375 46.75472656 34.09765625 46.02898437 34.36328125 45.28125 C35.63445624 42.35999208 37.12219527 40.17174226 39.08203125 37.66796875 C39.69046875 36.87777344 40.29890625 36.08757812 40.92578125 35.2734375 C41.745625 34.38591797 41.745625 34.38591797 42.58203125 33.48046875 C43.24203125 33.48046875 43.90203125 33.48046875 44.58203125 33.48046875 C44.91203125 32.49046875 45.24203125 31.50046875 45.58203125 30.48046875 C47.67388077 28.74217126 49.73625746 27.16166532 51.95703125 25.60546875 C52.58681885 25.16074219 53.21660645 24.71601562 53.86547852 24.2578125 C69.04911654 13.78607327 86.40079431 10.68947014 104.58203125 12.48046875 C109.78524633 13.53377049 114.64769472 15.5649143 119.58203125 17.48046875 C121.93103029 18.18542296 124.28509021 18.87379395 126.64453125 19.54296875 C135.41498354 22.2777261 139.67601194 26.41305518 145.27734375 33.5703125 C146.71235803 35.38232205 148.20021813 37.15515658 149.76171875 38.859375 C156.1257625 45.95588417 158.2103846 53.46269602 160.58203125 62.48046875 C160.94683594 63.64964844 161.31164062 64.81882812 161.6875 66.0234375 C162.623133 69.63931177 162.88669603 72.87803208 163.01953125 76.60546875 C163.25109335 81.39874539 163.79691276 85.8909054 165.01953125 90.54296875 C171.2245972 115.78907041 171.85036959 147.28557169 164.24462891 172.20166016 C163.35115703 175.27449231 162.67952041 178.38044587 162.00366211 181.50708008 C158.96968934 195.44071094 153.17164628 207.34733268 142.96484375 217.53125 C139.94786214 221.78400092 140.45496335 226.60353975 141.20703125 231.54296875 C141.89478761 235.0912659 142.48446604 237.32234582 144.39453125 240.41796875 C148.42798433 243.02785016 152.59077464 244.53651839 157.09765625 246.16796875 C171.05322737 251.42477581 182.36176131 258.27498049 188.89453125 272.04296875 C192.28822124 280.40649763 191.52466258 287.78974964 189.58203125 296.48046875 C188.5078125 298.875 188.5078125 298.875 187.58203125 300.48046875 C188.48953125 300.72796875 189.39703125 300.97546875 190.33203125 301.23046875 C193.85115066 302.58397621 195.45659811 303.37406647 197.58203125 306.48046875 C198.39110987 310.49283822 198.24411205 313.4476227 196.01953125 316.91796875 C192.87269948 318.93516861 190.28013979 319.0979058 186.58203125 319.48046875 C181.70546007 320.87476577 177.3805961 322.98222723 172.89453125 325.29296875 C171.47067903 326.01295994 170.04619747 326.73170789 168.62109375 327.44921875 C167.93047852 327.79726563 167.23986328 328.1453125 166.52832031 328.50390625 C142.18083519 340.72040656 111.97999539 342.18896507 85.58203125 335.48046875 C84.87336914 335.30306152 84.16470703 335.1256543 83.43457031 334.94287109 C58.37110103 328.44268845 24.58066826 319.64649617 5.58203125 301.48046875 C5.01742187 300.94421875 4.4528125 300.40796875 3.87109375 299.85546875 C1.57566799 297.42054198 0.60962744 295.91280913 0.39453125 292.54296875 C0.45640625 291.53234375 0.51828125 290.52171875 0.58203125 289.48046875 C-0.067461 287.14229666 -0.73540886 284.8092025 -1.41796875 282.48046875 C-2.94246137 275.44434897 -1.62913796 270.27637864 0.58203125 263.48046875 C1.24203125 263.48046875 1.90203125 263.48046875 2.58203125 263.48046875 C2.7934375 262.91328125 3.00484375 262.34609375 3.22265625 261.76171875 C5.03753336 258.71606292 7.48147193 256.98130306 10.33203125 254.98046875 C10.92967285 254.5539502 11.52731445 254.12743164 12.14306641 253.68798828 C18.67572155 249.17413326 25.67839401 245.50743725 32.76464844 241.94335938 C40.17445825 238.10123577 45.92367086 233.46800934 50.58203125 226.48046875 C50.67932903 223.94649606 50.51582873 221.48309622 50.359375 218.953125 C50.63144838 215.9316785 51.49722406 214.64565405 53.58203125 212.48046875 C54.24203125 212.48046875 54.90203125 212.48046875 55.58203125 212.48046875 C55.21851563 211.94679688 54.855 211.413125 54.48046875 210.86328125 C52.82832941 208.41472603 51.20345869 205.94946054 49.58203125 203.48046875 C49.05609375 202.69929687 48.53015625 201.918125 47.98828125 201.11328125 C44.34867712 195.44961156 42.28965545 189.9222349 40.44140625 183.4609375 C38.55710709 176.92584542 35.67041135 171.89480996 31.58203125 166.48046875 C29.4783014 170.52984471 27.75483423 174.56524976 26.20703125 178.85546875 C24.17184611 184.2077019 21.90835797 188.83339466 18.58203125 193.48046875 C18.06125 194.22683594 17.54046875 194.97320312 17.00390625 195.7421875 C14.01037572 199.90552001 14.01037572 199.90552001 12.58203125 201.48046875 C11.92203125 201.48046875 11.26203125 201.48046875 10.58203125 201.48046875 C10.25203125 202.47046875 9.92203125 203.46046875 9.58203125 204.48046875 C8.92203125 204.48046875 8.26203125 204.48046875 7.58203125 204.48046875 C7.32035156 205.07988281 7.05867187 205.67929687 6.7890625 206.296875 C5.50982937 208.61108639 4.31952683 209.7770632 2.26953125 211.41796875 C-0.80838711 213.95422446 -3.63175534 216.62093394 -6.41796875 219.48046875 C-9.98726113 223.14222985 -13.68437425 226.52135097 -17.60546875 229.79296875 C-18.13849609 230.24736328 -18.67152344 230.70175781 -19.22070312 231.16992188 C-23.17842458 234.48046875 -23.17842458 234.48046875 -25.41796875 234.48046875 C-25.78921875 235.34671875 -25.78921875 235.34671875 -26.16796875 236.23046875 C-27.60096863 238.80986854 -29.20221551 240.54168467 -31.41796875 242.48046875 C-32.07796875 242.48046875 -32.73796875 242.48046875 -33.41796875 242.48046875 C-33.68609375 243.07859375 -33.95421875 243.67671875 -34.23046875 244.29296875 C-35.41714281 246.47894729 -36.51395988 247.89379469 -38.41796875 249.48046875 C-39.07796875 249.48046875 -39.73796875 249.48046875 -40.41796875 249.48046875 C-40.68738281 250.0528125 -40.95679688 250.62515625 -41.234375 251.21484375 C-42.44931563 253.54047268 -43.84180951 255.58900682 -45.35546875 257.73046875 C-50.45521669 265.31184585 -53.62467618 274.27403782 -53.41796875 283.48046875 C-52.43699219 283.80917969 -51.45601562 284.13789063 -50.4453125 284.4765625 C-37.67494237 288.91461695 -23.49439076 295.01213538 -14.41796875 305.48046875 C-14.41796875 306.14046875 -14.41796875 306.80046875 -14.41796875 307.48046875 C-13.75796875 307.48046875 -13.09796875 307.48046875 -12.41796875 307.48046875 C0.54090234 333.89635337 12.04769085 368.66051497 6.58203125 398.48046875 C4.30853342 402.75396658 4.30853342 402.75396658 2.58203125 404.48046875 C0.80774349 404.50061167 -0.96739146 404.44814143 -2.73999023 404.36816406 C-3.89330338 404.32101257 -5.04661652 404.27386108 -6.23487854 404.22528076 C-7.51088425 404.17027405 -8.78688995 404.11526733 -10.1015625 404.05859375 C-26.91612659 403.40355778 -43.72069232 403.25912935 -60.54663086 403.24023438 C-63.82343739 403.2358599 -67.09997915 403.22195905 -70.37670898 403.19921875 C-94.21809868 403.03739311 -117.68779682 404.20896874 -141.41796875 406.48046875 C-143.73040202 406.69221616 -146.04297107 406.90248952 -148.35571289 407.11083984 C-149.2961293 407.19578705 -150.23654572 407.28073425 -151.20545959 407.36825562 C-167.88775132 408.86155563 -184.66126563 409.92703064 -201.41796875 409.48046875 C-202.248125 409.46371094 -203.07828125 409.44695312 -203.93359375 409.4296875 C-207.5733203 409.1937793 -209.40644217 408.48905237 -212.35546875 406.29296875 C-214.60474127 403.22577895 -215.15588232 401.23704098 -215.41796875 397.48046875 C-216.49046875 397.39796875 -217.56296875 397.31546875 -218.66796875 397.23046875 C-222.81861167 396.40034017 -224.09315755 395.96768555 -226.41796875 392.48046875 C-227.83457415 385.7926001 -226.85803915 380.65651456 -225.16796875 374.10546875 C-223.68638939 368.06387281 -222.278449 362.10063196 -221.44873047 355.93310547 C-220.2397818 346.98688534 -217.78853586 338.57349062 -215.04296875 329.98046875 C-214.47980957 328.20808838 -214.47980957 328.20808838 -213.90527344 326.39990234 C-210.64293219 316.48805126 -206.76867885 307.48322432 -200.23046875 299.29296875 C-199.75343506 298.69274902 -199.27640137 298.0925293 -198.78491211 297.47412109 C-194.59856849 292.38570938 -190.02684887 288.91955274 -184.41796875 285.48046875 C-183.57492188 284.85011719 -182.731875 284.21976562 -181.86328125 283.5703125 C-174.62308558 278.24784571 -167.17112921 275.20775342 -158.71557617 272.26977539 C-153.88134824 270.56528829 -150.31458823 268.927185 -146.41796875 265.48046875 C-145.75796875 265.48046875 -145.09796875 265.48046875 -144.41796875 265.48046875 C-144.14210938 264.908125 -143.86625 264.33578125 -143.58203125 263.74609375 C-142.42329027 261.49082608 -141.14921169 259.37190497 -139.79296875 257.23046875 C-139.12394531 256.17085938 -139.12394531 256.17085938 -138.44140625 255.08984375 C-138.10367188 254.55875 -137.7659375 254.02765625 -137.41796875 253.48046875 C-137.95164062 252.99320312 -138.4853125 252.5059375 -139.03515625 252.00390625 C-144.36811179 246.92929458 -148.65343649 241.59665142 -152.8190918 235.57250977 C-155.09138573 232.29818963 -157.4011849 229.23319682 -160.10546875 226.29296875 C-185.80756371 197.87586376 -189.89082932 154.15609483 -188.60009766 117.66503906 C-187.34683226 95.75137441 -179.38787237 70.57568079 -165.7109375 53.2421875 C-164.15463848 51.12167131 -163.20114338 48.98662757 -162.41796875 46.48046875 C-161.75796875 46.48046875 -161.09796875 46.48046875 -160.41796875 46.48046875 C-159.92296875 44.50046875 -159.92296875 44.50046875 -159.41796875 42.48046875 C-158.75796875 42.48046875 -158.09796875 42.48046875 -157.41796875 42.48046875 C-157.04671875 41.65289062 -157.04671875 41.65289062 -156.66796875 40.80859375 C-155.17562401 38.02910168 -153.38124352 35.69899805 -151.41796875 33.23046875 C-150.71671875 32.3384375 -150.01546875 31.44640625 -149.29296875 30.52734375 C-148.67421875 29.851875 -148.05546875 29.17640625 -147.41796875 28.48046875 C-146.75796875 28.48046875 -146.09796875 28.48046875 -145.41796875 28.48046875 C-145.41796875 27.49046875 -145.41796875 26.50046875 -145.41796875 25.48046875 C-143.29296875 23.46484375 -143.29296875 23.46484375 -140.41796875 21.23046875 C-139.48984375 20.5034375 -138.56171875 19.77640625 -137.60546875 19.02734375 C-137.10015625 18.63232666 -136.59484375 18.23730957 -136.07421875 17.83032227 C-134.19376571 16.29774195 -132.40617335 14.68010029 -130.60546875 13.0546875 C-126.47391882 9.41802199 -122.08819512 6.44164647 -117.41796875 3.54296875 C-116.59055176 3.02645752 -115.76313477 2.50994629 -114.91064453 1.9777832 C-107.30746283 -2.70115389 -99.54311382 -6.82826379 -91.41796875 -10.51953125 C-90.72461426 -10.83792969 -90.03125977 -11.15632813 -89.31689453 -11.484375 C-57.19283041 -26.0509891 -27.83675057 -21.3041331 0 0 Z " fill="#000000" transform="translate(272.41796875,72.51953125)"/>
<path d="M0 0 C7.34463945 6.12861163 13.72839584 12.97209929 19.34619141 20.71679688 C20.09642578 21.72484375 20.84666016 22.73289063 21.61962891 23.77148438 C29.71982601 34.86951144 34.56884656 46.8488668 38.95166016 59.77148438 C39.83916468 62.3764335 40.81923869 64.76368603 41.95947266 67.28710938 C46.81374778 79.29289404 44.34786136 94.22110527 43.47119141 106.84179688 C43.39280029 108.02805664 43.31440918 109.21431641 43.23364258 110.43652344 C43.14961182 111.5628418 43.06558105 112.68916016 42.97900391 113.84960938 C42.90568848 114.85910645 42.83237305 115.86860352 42.75683594 116.90869141 C42.3349429 119.7937174 41.45828054 122.03432097 40.34619141 124.71679688 C40.02707023 126.35635057 39.75140399 128.00481569 39.51416016 129.65820312 C38.31809443 136.59631421 36.04077771 143.04535067 33.65869141 149.65429688 C33.24941406 150.83958984 32.84013672 152.02488281 32.41845703 153.24609375 C28.74365477 163.53666905 24.05353192 173.78924663 16.34619141 181.71679688 C15.68619141 181.71679688 15.02619141 181.71679688 14.34619141 181.71679688 C14.13994141 182.25304687 13.93369141 182.78929687 13.72119141 183.34179688 C11.81368715 186.63657696 9.29799757 189.31043316 6.34619141 191.71679688 C5.68619141 191.71679688 5.02619141 191.71679688 4.34619141 191.71679688 C4.34619141 192.37679687 4.34619141 193.03679687 4.34619141 193.71679688 C3.68619141 193.71679688 3.02619141 193.71679688 2.34619141 193.71679688 C2.01619141 194.70679688 1.68619141 195.69679688 1.34619141 196.71679688 C0.68619141 196.71679688 0.02619141 196.71679688 -0.65380859 196.71679688 C-0.98380859 197.70679688 -1.31380859 198.69679688 -1.65380859 199.71679688 C-2.31380859 199.71679688 -2.97380859 199.71679688 -3.65380859 199.71679688 C-3.65380859 200.37679687 -3.65380859 201.03679687 -3.65380859 201.71679688 C-5.37528638 203.09339456 -7.15758514 204.39452451 -8.96630859 205.65429688 C-12.8625358 208.33916102 -12.8625358 208.33916102 -16.38427734 211.47070312 C-17.65380859 212.71679688 -17.65380859 212.71679688 -19.65380859 212.71679688 C-19.90815674 213.30001709 -20.16250488 213.8832373 -20.42456055 214.48413086 C-21.78540113 216.95580656 -23.27438772 218.50400855 -25.32177734 220.43945312 C-26.04727783 221.1371582 -26.77277832 221.83486328 -27.52026367 222.55371094 C-28.2862085 223.2881543 -29.05215332 224.02259766 -29.84130859 224.77929688 C-40.13623616 234.90390985 -46.03745192 243.50845715 -49.65380859 257.71679688 C-49.98380859 258.92851562 -50.31380859 260.14023437 -50.65380859 261.38867188 C-51.95183535 266.62515052 -52.64101361 271.93566665 -53.34130859 277.27929688 C-53.48375 278.28154297 -53.62619141 279.28378906 -53.77294922 280.31640625 C-54.48470972 285.69533266 -54.96264008 290.41745199 -53.65380859 295.71679688 C-50.81668829 298.31073543 -49.36838157 298.74537979 -45.52880859 298.59179688 C-42.48615474 297.66577179 -41.39658081 297.3309552 -39.65380859 294.71679688 C-38.90994792 292.40691372 -38.23190156 290.07363743 -37.65380859 287.71679688 C-26.05691522 290.22989341 -14.68770085 296.91541745 -6.65380859 305.71679688 C-4.82473612 308.75555906 -3.59368608 311.88270111 -2.40380859 315.21679688 C-2.07155273 316.09899902 -1.73929688 316.98120117 -1.39697266 317.89013672 C1.36742938 325.38827145 3.55158575 332.92675979 5.34619141 340.71679688 C5.70894179 342.20650958 6.07224853 343.69608688 6.43603516 345.18554688 C9.11775577 356.41407159 10.36320816 367.14965732 10.34619141 378.71679688 C9.21342773 378.68650391 8.08066406 378.65621094 6.91357422 378.625 C-35.24598903 377.51649256 -76.95458482 377.01391348 -119.0135498 380.49816895 C-126.87155384 381.14885484 -134.73102063 381.78184331 -142.59130859 382.40429688 C-143.40836273 382.46907227 -144.22541687 382.53384766 -145.06723022 382.60058594 C-154.3009911 383.32504833 -163.51114782 383.99141215 -172.77880859 384.02929688 C-173.54185303 384.03469482 -174.30489746 384.04009277 -175.09106445 384.0456543 C-179.06319784 383.99179327 -182.04798839 383.34876917 -185.65380859 381.71679688 C-188.362678 381.54881426 -188.362678 381.54881426 -190.65380859 381.71679688 C-190.99875319 375.15352679 -189.69337862 369.12030412 -188.34130859 362.71679688 C-187.87210616 360.45777622 -187.40335355 358.19866208 -186.93505859 355.93945312 C-186.70947266 354.85809082 -186.48388672 353.77672852 -186.25146484 352.66259766 C-185.77370298 350.30774691 -185.33169149 347.9572825 -184.93505859 345.58789062 C-183.54733524 337.56283254 -181.26854441 330.00694822 -178.71630859 322.27929688 C-178.38010498 321.25956787 -178.04390137 320.23983887 -177.69750977 319.18920898 C-172.44324011 303.72402749 -165.11763865 292.94248526 -150.65380859 284.71679688 C-149.39776546 283.90428384 -148.14262922 283.09036789 -146.88818359 282.27539062 C-141.88198684 279.12738917 -136.54505831 276.93816856 -131.10107422 274.66796875 C-126.72344514 272.79290286 -123.32325076 270.81958319 -119.65380859 267.71679688 C-118.99380859 267.71679688 -118.33380859 267.71679688 -117.65380859 267.71679688 C-117.38310547 267.13027344 -117.11240234 266.54375 -116.83349609 265.93945312 C-115.66723512 263.74209388 -114.36763049 262.06005993 -112.77880859 260.15429688 C-107.88498155 253.72515154 -104.65363107 245.88491335 -105.65380859 237.71679688 C-106.17918427 235.32796218 -106.17918427 235.32796218 -107.65380859 233.71679688 C-108.42853516 233.63816406 -109.20326172 233.55953125 -110.00146484 233.47851562 C-113.84528682 232.37461977 -114.49275241 230.34664807 -116.40380859 226.90429688 C-119.06831584 222.26570173 -121.8694975 217.95808827 -125.15380859 213.71679688 C-129.79675862 207.64340269 -133.83780733 201.33820584 -137.65380859 194.71679688 C-138.20037109 193.77449219 -138.74693359 192.8321875 -139.31005859 191.86132812 C-148.04311162 175.70963567 -150.61659329 157.05011893 -151.71411133 138.96362305 C-151.8405731 136.9162046 -151.98395888 134.8704364 -152.12841797 132.82421875 C-153.9528691 105.1034941 -148.36546755 76.49164275 -131.65380859 53.71679688 C-131.07501953 52.86988281 -130.49623047 52.02296875 -129.89990234 51.15039062 C-125.94592413 45.47944483 -121.60503967 40.19430928 -117.09130859 34.96679688 C-116.56134277 34.35288086 -116.03137695 33.73896484 -115.48535156 33.10644531 C-89.50400618 3.42033771 -37.2031335 -28.86620456 0 0 Z " fill="#FFFFFF" transform="translate(253.65380859375,82.283203125)"/>
<path d="M0 0 C11.25100643 -0.72182189 29.17630202 3.36160417 38.15112305 10.53735352 C39.74043097 12.02022905 41.24567978 13.55286764 42.73828125 15.1328125 C43.49915039 15.90818359 43.49915039 15.90818359 44.27539062 16.69921875 C45.72817967 18.19534651 47.14386266 19.71860849 48.55078125 21.2578125 C49.63939453 22.43150391 49.63939453 22.43150391 50.75 23.62890625 C53.11041856 27.07481014 54.11729083 30.43378093 55.17578125 34.4453125 C55.38960449 35.23341309 55.60342773 36.02151367 55.82373047 36.83349609 C57.42908868 43.06802909 58.29499016 49.23935745 58.88330078 55.64086914 C59.34270063 60.6274753 60.06873168 65.47316675 61.05078125 70.3828125 C63.3988694 82.44056244 64.72908523 94.10845379 64.80078125 106.3828125 C64.81004639 107.34767578 64.81931152 108.31253906 64.82885742 109.30664062 C64.77329993 122.2308389 62.2188537 134.61948871 59.17578125 147.1328125 C58.73878906 149.01226562 58.73878906 149.01226562 58.29296875 150.9296875 C56.32096748 159.11176295 54.12316408 166.38602583 48.80078125 173.0703125 C48.29546875 173.72257813 47.79015625 174.37484375 47.26953125 175.046875 C46.41875 176.14128906 46.41875 176.14128906 45.55078125 177.2578125 C44.12482687 179.14666998 42.70851263 181.04283495 41.30078125 182.9453125 C40.635625 183.83605469 39.97046875 184.72679687 39.28515625 185.64453125 C36.33847873 190.08445751 34.85024244 193.88701498 35.55078125 199.2578125 C36.19789063 199.69222656 36.845 200.12664062 37.51171875 200.57421875 C40.30220497 202.8782409 40.1943278 204.52805636 40.55078125 208.0703125 C41.39690359 213.97894831 42.43520213 217.88942534 47.38623047 221.65307617 C53.87788103 226.04820431 60.65600912 229.24465339 67.82226562 232.38085938 C76.55333652 236.35997947 83.10290231 241.01260909 87.0546875 249.94921875 C87.70361297 252.96902155 87.12019074 255.22217082 86.55078125 258.2578125 C86.50691852 259.64804073 86.47941166 261.03884378 86.46484375 262.4296875 C85.94144932 273.99457065 85.94144932 273.99457065 81.70947266 278.00097656 C76.38936718 281.60976012 70.51081224 283.92807755 64.55078125 286.2578125 C63.58914063 286.71285156 62.6275 287.16789062 61.63671875 287.63671875 C40.04883339 297.6888097 12.28662938 294.37496313 -9.69921875 287.6171875 C-10.55152573 287.35813629 -11.4038327 287.09908508 -12.28196716 286.83218384 C-22.4504236 283.70044929 -32.48004649 280.1732993 -42.51171875 276.6328125 C-44.39894934 275.97095711 -46.28631883 275.30949766 -48.17382812 274.6484375 C-52.53462006 273.11977823 -56.89131462 271.57986825 -61.24639893 270.03503418 C-63.18186202 269.35214407 -65.12161433 268.68143613 -67.06201172 268.01269531 C-68.03412598 267.67334961 -69.00624023 267.33400391 -70.0078125 266.984375 C-70.79341553 266.71447754 -71.57901855 266.44458008 -72.38842773 266.16650391 C-74.76108907 265.12029546 -76.53499623 264.01212064 -78.44921875 262.2578125 C-79.62945706 256.64723238 -79.88345876 250.85746616 -78.44921875 245.2578125 C-73.02663064 237.16290171 -61.93605163 233.21407761 -53.32373047 229.14697266 C-41.29487392 223.44117745 -30.45784529 216.66076639 -25.484375 203.75390625 C-24.75289572 201.59991887 -24.07206358 199.44536508 -23.44921875 197.2578125 C-22.82273437 197.33 -22.19625 197.4021875 -21.55078125 197.4765625 C-20.73351562 197.569375 -19.91625 197.6621875 -19.07421875 197.7578125 C-18.26210938 197.850625 -17.45 197.9434375 -16.61328125 198.0390625 C-14.4800905 198.29133601 -14.4800905 198.29133601 -12.44921875 198.2578125 C-12.01460921 193.11112056 -13.05838706 190.63153408 -16.01171875 186.4453125 C-16.74390625 185.39472656 -17.47609375 184.34414063 -18.23046875 183.26171875 C-20.09517967 180.73713653 -22.01904904 178.30571771 -24.01171875 175.8828125 C-30.5442279 167.55647932 -34.44038627 159.14576298 -35.88671875 148.7578125 C-36.53309013 143.63986013 -36.53309013 143.63986013 -39.19140625 139.3359375 C-40.56574099 138.4542888 -41.96368272 137.60835234 -43.3828125 136.80078125 C-47.71489096 133.56605347 -49.4234878 128.12088647 -51.44921875 123.2578125 C-52.22265625 121.5253125 -52.22265625 121.5253125 -53.01171875 119.7578125 C-53.46648266 116.11970125 -53.04606265 114.35550666 -52.05078125 110.88671875 C-50.30128745 104.16756756 -49.67859079 97.61068181 -49.26171875 90.6953125 C-49.18276367 89.47529541 -49.10380859 88.25527832 -49.02246094 86.99829102 C-48.02443388 70.5880907 -47.51461532 55.11903782 -52.44921875 39.2578125 C-51.85109375 38.7834375 -51.25296875 38.3090625 -50.63671875 37.8203125 C-48.44192624 35.24926984 -48.13424636 34.37817396 -47.38671875 31.2578125 C-44.16987354 20.70308254 -32.6041522 11.59510164 -23.44921875 6.2578125 C-15.5071513 2.49825394 -8.60452584 0.90573956 0 0 Z " fill="#FFFFFF" transform="translate(363.44921875,99.7421875)"/>
</svg>
