<?xml version="1.0" encoding="UTF-8"?>
<svg version="1.1" xmlns="http://www.w3.org/2000/svg" width="500" height="500">
<path d="M0 0 C2.45020058 -0.00322763 4.90040098 -0.00659272 7.3506012 -0.01008606 C12.45598801 -0.01602501 17.56135803 -0.01793145 22.66674805 -0.01733398 C27.83377593 -0.01725285 33.00071493 -0.02418393 38.16772461 -0.0378418 C90.62061915 -0.17455638 90.62061915 -0.17455638 116.14437866 1.94674683 C122.81636772 2.46291259 129.50294664 2.6268148 136.19140625 2.79296875 C137.57690507 2.82980475 138.9624031 2.86667067 140.34790039 2.90356445 C144.23300172 3.00358473 148.11834844 3.08750173 152.00390625 3.16796875 C153.02677734 3.19133301 154.04964844 3.21469727 155.10351562 3.23876953 C164.81893202 3.4410324 174.27905523 3.16220223 183.92163086 1.87963867 C198.20194135 -0.01484316 198.20194135 -0.01484316 204.00390625 4.16796875 C206.13892217 7.43721187 207.19743848 9.40702706 206.76953125 13.30053711 C206.51429688 14.45501343 206.51429688 14.45501343 206.25390625 15.6328125 C206.06183594 16.51380615 205.86976563 17.3947998 205.671875 18.30249023 C204.22966833 24.48932493 202.75202588 30.66808311 201.21484375 36.83203125 C197.29610798 53.25905495 196.71635507 69.47658885 196.87890625 86.29296875 C196.88897428 88.13801588 196.89809325 89.98306843 196.90625 91.828125 C196.92791909 96.27487798 196.96222931 100.72136016 197.00390625 105.16796875 C198.256875 105.31621094 199.50984375 105.46445313 200.80078125 105.6171875 C205.52469164 106.17608636 209.45157376 106.99323065 213.31640625 109.91796875 C215.47482225 112.79585675 215.93199021 114.57216677 216.00390625 118.16796875 C214.47516754 122.14268938 213.57610128 123.7865054 210.00390625 126.16796875 C207.5234375 126.36328125 207.5234375 126.36328125 204.81640625 126.29296875 C203.91535156 126.27492188 203.01429688 126.256875 202.0859375 126.23828125 C201.39886719 126.21507812 200.71179688 126.191875 200.00390625 126.16796875 C200.72284068 130.28517572 201.44391951 134.40200109 202.16693115 138.51849365 C202.4350991 140.04535055 202.70304037 141.57224728 202.97076416 143.09918213 C204.49114151 151.76189142 206.03605123 160.4183424 207.6796875 169.05859375 C211.18198298 187.52564699 214.26762175 206.01780927 217.06640625 224.60546875 C219.28273634 239.31631984 221.53797155 254.00047249 224.37890625 268.60546875 C224.61746338 269.84159912 224.85602051 271.07772949 225.10180664 272.35131836 C226.06861001 277.18184117 227.06180099 281.62492135 229.00390625 286.16796875 C230.33421875 286.07515625 230.33421875 286.07515625 231.69140625 285.98046875 C235.50699885 286.19644569 237.11250961 286.67815498 240.00390625 289.16796875 C241.49989637 292.68029338 242.22318831 295.01673791 241.50390625 298.79296875 C237.80521455 304.6492306 232.49723734 307.13000491 226.19140625 309.29296875 C225.48653076 309.54522217 224.78165527 309.79747559 224.05541992 310.05737305 C222.04246447 310.7737545 220.02432065 311.4729588 218.00390625 312.16796875 C217.05773437 312.50183594 216.1115625 312.83570313 215.13671875 313.1796875 C209.4930474 315.1274192 204.46387438 316.28583748 198.49917603 316.32377625 C197.40133569 316.33329252 196.30349535 316.3428088 195.17238712 316.35261345 C193.97419566 316.35830912 192.7760042 316.36400478 191.54150391 316.36987305 C189.58376846 316.38548074 187.62603306 316.40109666 185.66829997 316.41699839 C183.55518673 316.43343964 181.4420674 316.44771634 179.32893562 316.46155739 C172.50630401 316.50729734 165.68385612 316.57378207 158.86138594 316.63880527 C157.25518641 316.65411082 155.64898577 316.66930121 154.04278409 316.68438065 C92.47729315 317.26269902 31.23010934 318.75136866 -30.17142391 323.63358688 C-37.67234586 324.22786006 -45.1771825 324.75347598 -52.68359375 325.2734375 C-73.73901655 326.75925316 -94.67370847 328.72800953 -115.58959961 331.59399414 C-134.91085256 334.23186731 -134.91085256 334.23186731 -140.05859375 331.60546875 C-142.67462946 328.31432705 -142.44399406 326.2737216 -141.99609375 322.16796875 C-141.66609375 321.17796875 -141.33609375 320.18796875 -140.99609375 319.16796875 C-141.89328125 318.82765625 -141.89328125 318.82765625 -142.80859375 318.48046875 C-145.80046848 316.68534391 -146.52061175 315.37694052 -147.99609375 312.16796875 C-148.65491131 308.50102692 -148.84596655 304.82165583 -149.05859375 301.10546875 C-149.17473022 299.31544434 -149.17473022 299.31544434 -149.29321289 297.48925781 C-150.15088889 283.69191761 -150.56264205 269.86862249 -151.05297852 256.05459595 C-151.67555275 238.59406145 -152.60501819 221.17396962 -153.76095581 203.74111938 C-154.53642871 192.02679845 -155.20440343 180.34337799 -155.49609375 168.60546875 C-155.79375071 156.78098275 -156.57942064 145.02013007 -157.49609375 133.23046875 C-157.56207764 132.37637421 -157.62806152 131.52227966 -157.69604492 130.64230347 C-157.8861024 128.2039309 -158.08050613 125.7659589 -158.27734375 123.328125 C-158.33462646 122.60654205 -158.39190918 121.88495911 -158.45092773 121.14151001 C-158.81209771 116.78768283 -159.37064156 112.49050262 -159.99609375 108.16796875 C-161.18817209 94.07989899 -161.09883551 79.86003437 -161.12109375 65.73046875 C-161.12368195 64.98391022 -161.12627014 64.23735168 -161.12893677 63.46817017 C-161.15142739 55.2434953 -161.02521937 47.03558773 -160.61328125 38.8203125 C-160.58291779 38.11080948 -160.55255432 37.40130646 -160.52127075 36.67030334 C-160.31512629 33.08243651 -160.04719231 30.1798135 -157.99609375 27.16796875 C-156.0078125 26.0078125 -156.0078125 26.0078125 -153.68359375 25.10546875 C-151.00870308 24.01665108 -148.67062053 22.97268482 -146.18359375 21.48046875 C-143.99609375 20.16796875 -143.99609375 20.16796875 -141.99609375 19.79296875 C-139.72317544 19.26183 -139.72317544 19.26183 -137.78515625 16.82421875 C-134.75661763 13.93989626 -132.22040744 12.63309156 -128.37109375 11.04296875 C-126.68113281 10.32753906 -126.68113281 10.32753906 -124.95703125 9.59765625 C-116.06330994 6.24449551 -107.46300754 4.66319267 -97.99609375 4.10546875 C-96.85180908 4.02949463 -95.70752441 3.95352051 -94.52856445 3.87524414 C-91.36724505 3.66973419 -88.20551898 3.47559991 -85.04302979 3.2890625 C-82.92356687 3.16367817 -80.80430503 3.03523885 -78.68505859 2.90625 C-69.26990667 2.33526316 -59.85364498 1.7864356 -50.4339447 1.29586124 C-48.83519714 1.21198909 -47.23652931 1.12658001 -45.63795471 1.03947353 C-30.41985937 0.21856803 -15.23821191 0.00481754 0 0 Z " fill="#000000" transform="translate(215.99609375,84.83203125)"/>
<path d="M0 0 C1.06605469 -0.01417969 2.13210938 -0.02835938 3.23046875 -0.04296875 C5.8125 0.1875 5.8125 0.1875 7.8125 2.1875 C8.39227295 4.43476868 8.39227295 4.43476868 8.86230469 7.27856445 C9.04320145 8.34699585 9.22409821 9.41542725 9.41047668 10.51623535 C9.59986313 11.6826355 9.78924957 12.84903564 9.984375 14.05078125 C10.28893867 15.86116882 10.28893867 15.86116882 10.59965515 17.70812988 C11.03467516 20.29563073 11.46703951 22.88341267 11.89498901 25.47207642 C12.99994594 32.15140646 14.13311871 38.82596033 15.26953125 45.5 C15.60096886 47.44843559 15.60096886 47.44843559 15.93910217 49.43623352 C17.71171338 59.77545105 19.73429347 70.02712666 21.96240234 80.27734375 C24.09329411 90.18091692 25.56048906 100.13846485 26.8125 110.1875 C11.61620799 110.36106171 11.61620799 110.36106171 5.3125 109.625 C-12.38727141 107.99412675 -29.91125212 110.54378227 -47.1875 114.1875 C-62.06488466 117.25818147 -76.7080985 119.37518587 -91.875 120.25 C-92.57569611 120.29141113 -93.27639221 120.33282227 -93.99832153 120.37548828 C-109.13387769 121.25229579 -124.27653541 121.4993927 -139.4331665 121.74002075 C-156.54921542 122.01350473 -173.64562495 122.4969325 -190.75 123.1875 C-192.3244136 123.25046265 -192.3244136 123.25046265 -193.93063354 123.31469727 C-203.81548103 123.71320671 -213.69640084 124.14903789 -223.57421875 124.6953125 C-230.86472518 125.09744343 -238.15564288 125.37519716 -245.453125 125.6171875 C-247.60156825 125.69123971 -249.75000572 125.76545972 -251.8984375 125.83984375 C-255.17792656 125.9532852 -258.45733113 126.0630957 -261.73730469 126.16162109 C-282.26368553 125.83445799 -282.26368553 125.83445799 -301.1875 132.1875 C-301.48171402 127.75016603 -301.77300702 123.31264421 -302.0625 118.875 C-302.10696259 118.19410309 -302.15142517 117.51320618 -302.19723511 116.81167603 C-302.74212569 108.43877995 -303.26042663 100.06495202 -303.73046875 91.6875 C-303.77431702 90.90719925 -303.81816528 90.1268985 -303.86334229 89.32295227 C-304.07570441 85.52953377 -304.28470324 81.73595957 -304.48974609 77.94213867 C-304.56734312 76.5382465 -304.64497804 75.13435643 -304.72265625 73.73046875 C-304.788479 72.51383545 -304.85430176 71.29720215 -304.92211914 70.04370117 C-305.12350724 67.11736723 -305.38567323 64.22515272 -305.69677734 61.31030273 C-306.19842475 56.43058367 -306.40167693 51.58219804 -306.50390625 46.6796875 C-306.5350779 45.40244308 -306.5350779 45.40244308 -306.56687927 44.09939575 C-306.63145751 41.42050017 -306.69082583 38.74151983 -306.75 36.0625 C-306.79327282 34.22915844 -306.83688965 32.39582497 -306.88085938 30.5625 C-306.98704249 26.10425007 -307.08855841 21.64591628 -307.1875 17.1875 C-305.68123047 17.4040625 -305.68123047 17.4040625 -304.14453125 17.625 C-302.76308229 17.81295224 -301.38156814 18.00042581 -300 18.1875 C-299.01870117 18.33058594 -299.01870117 18.33058594 -298.01757812 18.4765625 C-287.21463607 19.91012827 -276.49899495 19.21255 -265.71484375 17.98046875 C-263.9907579 17.79280441 -263.9907579 17.79280441 -262.23184204 17.60134888 C-259.78895139 17.33520721 -257.34636835 17.06622861 -254.90408325 16.79458618 C-248.49775243 16.08330048 -242.08882192 15.39643483 -235.6796875 14.7109375 C-233.78661613 14.50815941 -233.78661613 14.50815941 -231.8553009 14.30128479 C-221.82981401 13.23613555 -211.79988612 12.30018949 -201.75 11.5 C-201.041922 11.44338196 -200.33384399 11.38676392 -199.60430908 11.32843018 C-196.82178646 11.10661004 -194.03915813 10.88621769 -191.25631714 10.66842651 C-183.66700142 10.07347103 -176.08315502 9.4184723 -168.5 8.75 C-167.81580994 8.68979675 -167.13161987 8.62959351 -166.42669678 8.56756592 C-151.7562855 7.27209013 -137.09882033 5.84279985 -122.44309998 4.39154053 C-120.81127893 4.23100366 -119.17924423 4.07262509 -117.54701233 3.9163208 C-113.53069474 3.52995157 -109.52309278 3.11418107 -105.51806641 2.6237793 C-89.21443725 0.71613841 -72.9025774 0.98904929 -56.51751709 1.10845947 C-50.34631447 1.15226814 -44.17506557 1.18161523 -38.00375366 1.2045002 C-35.8830501 1.21451073 -33.76249485 1.23155942 -31.6418457 1.24949646 C-24.34205169 1.2858151 -17.14928735 1.06863134 -9.87675476 0.42169189 C-6.57226198 0.13392242 -3.3166285 0.02060018 0 0 Z " fill="#FFFFFF" transform="translate(387.1875,205.8125)"/>
<path d="M0 0 C0.91138922 -0.00282738 1.82277843 -0.00565475 2.76178551 -0.00856781 C7.61064297 -0.02345508 12.45947163 -0.03274341 17.30834961 -0.03710938 C21.20818729 -0.04143825 25.10779675 -0.05512482 29.00756836 -0.078125 C54.37851894 -0.22469631 79.5293903 0.51549734 104.83081055 2.45800781 C106.00790746 2.54753094 106.00790746 2.54753094 107.2087841 2.63886261 C111.32436056 2.97099751 115.35193 3.45467263 119.41796875 4.203125 C117.46149639 10.19151674 115.37383189 16.11500427 113.16796875 22.015625 C110.29045808 29.76306693 107.51955308 37.5431943 104.81542969 45.3527832 C104.54504883 46.13226318 104.27466797 46.91174316 103.99609375 47.71484375 C103.73594482 48.46604492 103.4757959 49.21724609 103.20776367 49.99121094 C102.42517438 52.18294479 101.5841084 54.34528814 100.734375 56.51171875 C99.15527809 60.93975013 99.01952136 63.58113525 99.41796875 68.203125 C101.28843701 70.50238798 101.28843701 70.50238798 104.29296875 70.453125 C107.49794123 69.56018837 107.49794123 69.56018837 108.46630859 67.24072266 C108.76746582 66.41620605 109.06862305 65.59168945 109.37890625 64.7421875 C109.71744629 63.83533203 110.05598633 62.92847656 110.40478516 61.99414062 C110.73913574 61.07310547 111.07348633 60.15207031 111.41796875 59.203125 C112.03657968 57.60110606 112.65634324 55.99953166 113.27734375 54.3984375 C118.5118022 40.47510741 122.68182043 26.34133734 126.58349609 11.99194336 C127.37550222 9.34504867 128.39187302 6.76836432 129.41796875 4.203125 C143.60796875 4.203125 157.79796875 4.203125 172.41796875 4.203125 C171.83466291 10.03618342 171.22217614 15.61727602 170.27241516 21.3631134 C168.26392894 33.79376526 168.06397163 45.9508518 168.23046875 58.515625 C168.24557502 60.53970334 168.2592527 62.56379287 168.27148438 64.58789062 C168.3039454 69.45992113 168.35538308 74.33139224 168.41796875 79.203125 C163.13796875 79.203125 157.85796875 79.203125 152.41796875 79.203125 C154.03958343 68.25977559 157.32107351 57.84073364 160.48046875 47.265625 C161.31392491 44.45653338 162.14578302 41.64697333 162.97715759 38.83726501 C163.49198406 37.09946041 164.0083249 35.36210352 164.52638245 33.6252594 C164.87695961 32.44769325 164.87695961 32.44769325 165.23461914 31.24633789 C165.43954483 30.56003799 165.64447052 29.8737381 165.85560608 29.16664124 C166.91445591 25.46961628 167.53729499 22.31730923 167.48046875 18.453125 C167.46693359 17.25429687 167.46693359 17.25429687 167.453125 16.03125 C167.44152344 15.42796875 167.42992187 14.8246875 167.41796875 14.203125 C165.76796875 13.873125 164.11796875 13.543125 162.41796875 13.203125 C157.07723023 19.56432606 154.90707866 26.69178276 152.41796875 34.515625 C151.97973463 35.86910913 151.54109264 37.22246126 151.10205078 38.57568359 C149.85315548 42.44507718 148.63356066 46.32314345 147.41796875 50.203125 C146.95148926 51.66999756 146.95148926 51.66999756 146.47558594 53.16650391 C143.6193108 62.22961884 141.56958302 70.58808671 142.41796875 80.203125 C134.89228933 80.9895706 127.6589601 81.27687519 120.125 80.75 C110.40926076 80.14939801 100.71392902 79.9186013 90.98046875 79.890625 C90.08767212 79.88800659 89.19487549 79.88538818 88.27502441 79.88269043 C68.0076093 79.87644744 48.02675323 81.7163587 27.89831543 83.93103027 C24.11676203 84.34586774 20.33381437 84.74735522 16.55078125 85.1484375 C15.09797947 85.30246849 13.64517999 85.45652131 12.19238281 85.6105957 C11.46829224 85.68734528 10.74420166 85.76409485 9.99816895 85.84317017 C7.7807343 86.07942853 5.56370735 86.31928178 3.34667969 86.55932617 C-7.30528783 87.70239235 -17.96777287 88.71349507 -28.63671875 89.68359375 C-29.34888172 89.74849251 -30.06104469 89.81339127 -30.79478836 89.88025665 C-37.99632652 90.5363957 -45.1982118 91.18815694 -52.40140247 91.82591438 C-70.95677049 93.47284586 -89.35529781 95.62946297 -107.76794434 98.44926453 C-116.33228059 99.7463166 -124.79630452 100.60444286 -133.45581055 100.91259766 C-137.27956989 101.04968614 -140.83942103 101.4402083 -144.58203125 102.203125 C-146.50769102 100.27746523 -146.27063466 96.89435641 -146.58203125 94.265625 C-146.66888184 93.53867432 -146.75573242 92.81172363 -146.84521484 92.06274414 C-148.07255991 80.82436213 -148.26163659 69.49638555 -148.58203125 58.203125 C-147.25171875 57.955625 -147.25171875 57.955625 -145.89453125 57.703125 C-141.22006832 55.58638707 -139.94992276 52.61112879 -137.58203125 48.203125 C-136.57744307 46.42933613 -135.57219944 44.65591837 -134.56640625 42.8828125 C-133.48740963 40.94840259 -132.40931398 39.01348991 -131.33203125 37.078125 C-126.93642149 29.21367937 -122.39316677 21.56477667 -117.2890625 14.140625 C-115.35373865 10.81027366 -114.49040029 7.92976723 -113.58203125 4.203125 C-110.61203125 4.203125 -107.64203125 4.203125 -104.58203125 4.203125 C-106.24333274 9.01712364 -108.8819031 13.05040952 -111.58203125 17.328125 C-116.95537164 25.98334865 -121.78906074 34.84634643 -126.41650391 43.91894531 C-127.55017402 46.14069177 -128.6962593 48.35568056 -129.84375 50.5703125 C-138.50838839 66.51568578 -138.50838839 66.51568578 -139.58203125 84.203125 C-138.37664255 86.51933902 -138.37664255 86.51933902 -136.58203125 88.203125 C-133.12474767 88.95323867 -133.12474767 88.95323867 -129.58203125 88.203125 C-126.06269508 85.38765606 -125.12756143 81.98952497 -123.83203125 77.828125 C-121.62528952 70.77689555 -118.19289031 64.60370023 -114.64648438 58.17382812 C-112.87395873 54.89221643 -111.23126234 51.54791846 -109.58203125 48.203125 C-104.43685381 37.82941674 -99.2185738 27.45866783 -92.97265625 17.6953125 C-91.46076347 15.151596 -91.46076347 15.151596 -90.44140625 11.9609375 C-89.13867201 8.45674731 -88.01191896 6.05161251 -85.58203125 3.203125 C-82.3059082 2.47094727 -82.3059082 2.47094727 -78.3828125 2.39453125 C-77.67801254 2.37302002 -76.97321259 2.35150879 -76.24705505 2.3293457 C-74.7648801 2.2866409 -73.28233366 2.25544022 -71.79968262 2.23513794 C-69.68334505 2.20458752 -67.57114864 2.14146763 -65.45605469 2.06420898 C-61.35279451 1.91704682 -57.24908837 1.80696413 -53.14453125 1.703125 C-45.01317762 1.49687756 -36.90312274 1.24398642 -28.78613281 0.69824219 C-19.19087577 0.10179235 -9.61121751 0.02069313 0 0 Z " fill="#FCFCFC" transform="translate(223.58203125,106.796875)"/>
<path d="M0 0 C3.45118694 3.34307747 3.44195997 6.53924661 3.625 11.1875 C3.42114302 15.41283481 3.42114302 15.41283481 5 19 C5.13277344 18.28972656 5.26554687 17.57945312 5.40234375 16.84765625 C5.57894531 15.92855469 5.75554687 15.00945312 5.9375 14.0625 C6.11152344 13.14597656 6.28554687 12.22945312 6.46484375 11.28515625 C7 9 7 9 8 8 C9.99958364 7.95919217 12.00045254 7.95745644 14 8 C14.66 9.32 15.32 10.64 16 12 C17.093125 11.95875 18.18625 11.9175 19.3125 11.875 C26.31024621 11.8874737 33.52746774 12.33300403 39 17 C38.74438677 19.3431213 38.40729228 21.67843403 38 24 C31.67872943 27.16063529 22.46464219 24.98912067 16 23 C16 24.98 16 26.96 16 29 C16.55461914 28.98428955 17.10923828 28.9685791 17.68066406 28.95239258 C20.20367152 28.88987138 22.72651576 28.85095658 25.25 28.8125 C26.12269531 28.78736328 26.99539062 28.76222656 27.89453125 28.73632812 C34.34290437 28.66249179 34.34290437 28.66249179 37.578125 30.32421875 C39 32 39 32 39.5 35 C39 38 39 38 37.27807617 39.67138672 C34.60563153 41.23000249 33.12091704 41.33731512 30.05078125 41.2578125 C29.12072266 41.24363281 28.19066406 41.22945312 27.23242188 41.21484375 C26.26884766 41.18519531 25.30527344 41.15554687 24.3125 41.125 C22.39201473 41.08184303 20.47143702 41.0425634 18.55078125 41.0078125 C17.27714722 40.97131592 17.27714722 40.97131592 15.9777832 40.93408203 C13.99764195 40.774638 13.99764195 40.774638 13 42 C10.125 42.375 10.125 42.375 7 42 C4.02929596 38.2435413 3.65729506 35.39538321 3.8125 30.6875 C3.83957031 29.61886719 3.86664063 28.55023438 3.89453125 27.44921875 C3.92933594 26.64097656 3.96414062 25.83273438 4 25 C2.23915641 26.76084359 2.82846793 29.29041687 2.7890625 31.6796875 C2.74652344 33.41412109 2.74652344 33.41412109 2.703125 35.18359375 C2.65121018 37.63656889 2.6068892 40.08971697 2.5703125 42.54296875 C2.52390625 44.28126953 2.52390625 44.28126953 2.4765625 46.0546875 C2.45674316 47.12187012 2.43692383 48.18905273 2.41650391 49.28857422 C2 52 2 52 0.69287109 53.87548828 C-1 55 -1 55 -4.5625 54.9375 C-8 54 -8 54 -9.20263672 52.23925781 C-10.08943928 49.74882514 -10.22914031 47.87294379 -10.1953125 45.234375 C-10.18886719 44.34492188 -10.18242187 43.45546875 -10.17578125 42.5390625 C-10.15902344 41.61867187 -10.14226562 40.69828125 -10.125 39.75 C-10.11597656 38.81414062 -10.10695312 37.87828125 -10.09765625 36.9140625 C-10.07413636 34.60911343 -10.04126853 32.3046884 -10 30 C-11.98 30 -13.96 30 -16 30 C-15.01065478 37.93213812 -15.01065478 37.93213812 -12.3125 45.375 C-10.63709537 48.72580925 -10.87693581 50.47036969 -12 54 C-15 56 -15 56 -17.9375 56 C-22.12598635 54.63233099 -22.99574079 52.86535705 -25 49 C-26.71969927 43.93830177 -27.30771177 39.29338315 -27.30078125 33.984375 C-27.30506638 33.24672913 -27.3093515 32.50908325 -27.31376648 31.74908447 C-27.31947089 30.20285056 -27.32003899 28.65658983 -27.31567383 27.11035156 C-27.31248975 24.74238034 -27.33610208 22.37563186 -27.36132812 20.0078125 C-27.36359911 18.50000157 -27.36430555 16.99218729 -27.36328125 15.484375 C-27.372491 14.77810974 -27.38170074 14.07184448 -27.39118958 13.34417725 C-27.36367943 10.4385548 -27.33515789 8.47593978 -25.63354492 6.05957031 C-23.25053407 4.51387205 -21.77546871 4.51429297 -19 5 C-16.86917035 7.2016886 -16.05564632 8.51031239 -15.70703125 11.578125 C-15.74183594 12.45984375 -15.77664062 13.3415625 -15.8125 14.25 C-15.83957031 15.14203125 -15.86664063 16.0340625 -15.89453125 16.953125 C-15.92933594 17.62859375 -15.96414062 18.3040625 -16 19 C-14.02 18.34 -12.04 17.68 -10 17 C-9.95101562 16.18015625 -9.90203125 15.3603125 -9.8515625 14.515625 C-9.77679688 13.43796875 -9.70203125 12.3603125 -9.625 11.25 C-9.55539063 10.18265625 -9.48578125 9.1153125 -9.4140625 8.015625 C-9.02366871 5.17237969 -8.55149269 3.38862903 -7 1 C-4.4254716 -0.2872642 -2.85291355 -0.34791629 0 0 Z " fill="#040404" transform="translate(170,127)"/>
<path d="M0 0 C6.07966121 3.40755205 9.6057855 8.75246167 11.6875 15.3125 C12.1323326 18.13815555 12.21116144 20.89272182 12.1875 23.75 C12.18540527 24.49701172 12.18331055 25.24402344 12.18115234 26.01367188 C12.00756181 32.07211398 10.74947855 35.6702388 6.6875 40.3125 C3.46293257 41.92478372 0.18393885 41.75857475 -3.3125 41.3125 C-9.71232734 38.30849941 -14.38195039 32.17359922 -17.5078125 25.921875 C-18.46173803 22.82856308 -18.50850542 20.23074638 -18.4375 17 C-18.41945313 15.93136719 -18.40140625 14.86273438 -18.3828125 13.76171875 C-18.35960937 12.95347656 -18.33640625 12.14523438 -18.3125 11.3125 C-19.09882813 11.33699219 -19.88515625 11.36148438 -20.6953125 11.38671875 C-23.3125 11.3125 -23.3125 11.3125 -25.1875 10.125 C-26.3125 8.3125 -26.3125 8.3125 -26.5 5.9375 C-24.65878345 1.86744236 -21.20450012 0.28121602 -17.3125 -1.6875 C-11.61309167 -3.58730278 -5.41342463 -2.47000363 0 0 Z " fill="#040404" transform="translate(302.3125,125.6875)"/>
<path d="M0 0 C2.25357806 1.65613827 2.92391538 2.58469227 3.43237305 5.36010742 C3.45855713 6.26607666 3.48474121 7.1720459 3.51171875 8.10546875 C3.54716797 9.08837891 3.58261719 10.07128906 3.61914062 11.08398438 C3.64169922 12.10814453 3.66425781 13.13230469 3.6875 14.1875 C3.73874023 15.74114258 3.73874023 15.74114258 3.79101562 17.32617188 C3.87352642 19.8840066 3.94266572 22.44149723 4 25 C4.65597168 25.01981934 5.31194336 25.03963867 5.98779297 25.06005859 C8.95061069 25.15512507 11.91270532 25.26487752 14.875 25.375 C15.90753906 25.4059375 16.94007813 25.436875 18.00390625 25.46875 C18.99003906 25.50742188 19.97617187 25.54609375 20.9921875 25.5859375 C21.90339355 25.6173584 22.81459961 25.6487793 23.75341797 25.68115234 C26 26 26 26 28 28 C28.4375 31.4375 28.4375 31.4375 28 35 C24.27199516 37.98376944 21.37911158 38.36237393 16.6875 38.25 C15.54539062 38.22421875 14.40328125 38.1984375 13.2265625 38.171875 C9.43550005 37.96992978 5.75834942 37.52748764 2 37 C0.3603125 37.061875 0.3603125 37.061875 -1.3125 37.125 C-4 37 -4 37 -5.8125 35.6875 C-10.78350695 28.6234375 -9.50104375 15.27333213 -9 7 C-8.125 3.3125 -8.125 3.3125 -7 1 C-4.45132831 -0.27433584 -2.82594567 -0.27570202 0 0 Z " fill="#080808" transform="translate(254,127)"/>
<path d="M0 0 C3.63 0 7.26 0 11 0 C10.48050781 0.94359375 9.96101563 1.8871875 9.42578125 2.859375 C0.37996238 17.59940967 0.37996238 17.59940967 -2 34 C-0.33045181 37.22404978 -0.33045181 37.22404978 2.625 37.6875 C3.800625 37.8421875 3.800625 37.8421875 5 38 C5 38.33 5 38.66 5 39 C4.04859131 39.13575439 3.09718262 39.27150879 2.11694336 39.41137695 C-1.49011232 39.9272041 -5.09635013 40.44857626 -8.70239258 40.97143555 C-10.24873181 41.19490052 -11.79527525 41.41695795 -13.34204102 41.63745117 C-23.63944035 43.10659589 -33.82252103 44.84301565 -44 47 C-43.34 43.37 -42.68 39.74 -42 36 C-39.03 35.505 -39.03 35.505 -36 35 C-35.01 36.98 -34.02 38.96 -33 41 C-30.03 41 -27.06 41 -24 41 C-23.773125 40.20722656 -23.54625 39.41445313 -23.3125 38.59765625 C-21.62003781 33.95849651 -19.3760528 29.75885919 -17 25.4375 C-16.51740723 24.55723145 -16.03481445 23.67696289 -15.53759766 22.77001953 C-11.82825322 16.15508238 -7.68352676 10.20786091 -2.8984375 4.3359375 C-0.98931479 2.15950737 -0.98931479 2.15950737 0 0 Z " fill="#FAFAFA" transform="translate(131,353)"/>
<path d="M0 0 C2.4375 -0.375 2.4375 -0.375 5 0 C6.66967773 1.26293945 6.66967773 1.26293945 8 3 C8.48750585 8.8435508 6.34502462 14.86100525 4.4375 20.3125 C4.17864014 21.07014648 3.91978027 21.82779297 3.65307617 22.60839844 C-4.89477172 47.1969307 -4.89477172 47.1969307 -10 56 C-12.9375 57.125 -12.9375 57.125 -16 57 C-18.4375 55.625 -18.4375 55.625 -20 53 C-19.72814198 45.70991269 -17.68528623 39.76907693 -14.9375 33.0625 C-14.53845459 32.06702148 -14.13940918 31.07154297 -13.72827148 30.04589844 C-4.0187622 6.0281433 -4.0187622 6.0281433 0 0 Z " fill="#040404" transform="translate(364,119)"/>
<path d="M0 0 C2.5 0.5625 2.5 0.5625 4.13793945 2.25878906 C5.79642815 5.06386154 5.84698378 6.74347347 5.79296875 9.984375 C5.78330078 11.00917969 5.77363281 12.03398437 5.76367188 13.08984375 C5.73853516 14.15332031 5.71339844 15.21679688 5.6875 16.3125 C5.67396484 17.39144531 5.66042969 18.47039062 5.64648438 19.58203125 C5.61116584 22.2426942 5.56184199 24.90234296 5.5 27.5625 C6.18707031 27.52769531 6.87414062 27.49289063 7.58203125 27.45703125 C8.48308594 27.42996094 9.38414062 27.40289062 10.3125 27.375 C11.65248047 27.32279297 11.65248047 27.32279297 13.01953125 27.26953125 C15.5 27.5625 15.5 27.5625 17.33984375 28.9140625 C18.5 30.5625 18.5 30.5625 18.25 33.125 C17.5 35.5625 17.5 35.5625 16.5 37.5625 C14.20624771 38.14246265 11.88820683 38.62805324 9.5625 39.0625 C4.50489981 39.78524056 4.50489981 39.78524056 0.5 42.5625 C-3 42.8125 -3 42.8125 -6.5 42.5625 C-8.5 40.5625 -8.5 40.5625 -8.73046875 38.6875 C-8.71628906 37.98625 -8.70210937 37.285 -8.6875 36.5625 C-8.68105469 35.86125 -8.67460937 35.16 -8.66796875 34.4375 C-8.5 32.5625 -8.5 32.5625 -7.5 30.5625 C-7.31352449 28.73697407 -7.17868005 26.90604148 -7.0703125 25.07421875 C-6.99683594 23.97529297 -6.92335937 22.87636719 -6.84765625 21.74414062 C-6.6999934 19.42687003 -6.55929291 17.1091446 -6.42578125 14.79101562 C-6.34972656 13.68822266 -6.27367187 12.58542969 -6.1953125 11.44921875 C-6.1027417 9.93654419 -6.1027417 9.93654419 -6.00830078 8.39331055 C-5.2801107 4.3379004 -4.25683307 0.95778744 0 0 Z " fill="#050505" transform="translate(224.5,129.4375)"/>
<path d="M0 0 C-1.27051015 3.18614981 -2.55291696 6.36733284 -3.83984375 9.546875 C-4.53913421 11.28122109 -5.23835084 13.01559695 -5.9375 14.75 C-6.28490234 15.6059375 -6.63230469 16.461875 -6.99023438 17.34375 C-10.18120404 25.27610397 -12.78480398 32.49362784 -14 41 C-19.28 41 -24.56 41 -30 41 C-30 32.18383311 -26.1741551 25.54254007 -22.06542969 17.98046875 C-21.07409235 16.1377262 -20.13018123 14.27808123 -19.1953125 12.40625 C-14.59295237 3.66812846 -14.59295237 3.66812846 -9.8125 1.8125 C-7.9253125 1.4103125 -7.9253125 1.4103125 -6 1 C-5.30261719 0.81824219 -4.60523438 0.63648438 -3.88671875 0.44921875 C-2 0 -2 0 0 0 Z " fill="#FBFBFB" transform="translate(351,340)"/>
<path d="M0 0 C0.79728516 0.01804687 1.59457031 0.03609375 2.41601562 0.0546875 C4.38202449 0.10177753 6.34741494 0.17352101 8.3125 0.25 C7.92578125 0.93964844 7.5390625 1.62929688 7.140625 2.33984375 C4.24443499 7.56588959 1.51489184 12.77947528 -0.828125 18.27734375 C-1.6875 20.25 -1.6875 20.25 -2.78125 22.31640625 C-4.07168983 25.06971536 -3.93781725 27.24619305 -3.6875 30.25 C-2.78918984 32.55230766 -2.78918984 32.55230766 -1.6875 34.25 C-3.98058963 35.39654482 -5.48659656 35.44729117 -8.0390625 35.56640625 C-9.31523437 35.62924805 -9.31523437 35.62924805 -10.6171875 35.69335938 C-11.50664062 35.73267578 -12.39609375 35.77199219 -13.3125 35.8125 C-14.65828125 35.87727539 -14.65828125 35.87727539 -16.03125 35.94335938 C-18.24984283 36.04956861 -20.4685488 36.15161194 -22.6875 36.25 C-22.23246094 35.07179688 -21.77742187 33.89359375 -21.30859375 32.6796875 C-19.91231647 28.95682737 -18.78357366 25.21652271 -17.75 21.375 C-16.10466543 15.52213045 -14.38077786 9.71848051 -11.6875 4.25 C-11.33171875 3.50492187 -10.9759375 2.75984375 -10.609375 1.9921875 C-7.48258626 -0.84225921 -4.05247089 -0.17286996 0 0 Z " fill="#FCFCFC" transform="translate(218.6875,350.75)"/>
<path d="M0 0 C1.875 1.0625 1.875 1.0625 3 3 C2.8044778 8.97428953 0.76773308 12.14931257 -3.1875 16.375 C-4.19603496 17.5087683 -5.20125681 18.64549251 -6.203125 19.78515625 C-6.68716797 20.33316895 -7.17121094 20.88118164 -7.66992188 21.44580078 C-11.57921201 26.01381492 -14.59298021 31.03547744 -17.1875 36.4375 C-19 40 -19 40 -22 42 C-25.32240324 41.6758631 -26.60776303 41.39223697 -29 39 C-29.88983401 31.88132793 -27.96679128 26.90762478 -24 21 C-21.31709854 17.84412503 -18.52986506 14.83570837 -15.6640625 11.84765625 C-12.87093711 8.86204275 -10.45665433 5.77318707 -8.12109375 2.42578125 C-5.87676455 -0.42850502 -3.42061547 -0.33371858 0 0 Z " fill="#050505" transform="translate(132,159)"/>
<path d="M0 0 C1.27484253 0.0165564 1.27484253 0.0165564 2.57543945 0.03344727 C3.68278442 0.04782837 3.68278442 0.04782837 4.8125 0.0625 C2.67710582 5.42454584 0.52334766 10.77844159 -1.66015625 16.12109375 C-2.523505 18.24736843 -3.38678543 20.37367085 -4.25 22.5 C-4.68376953 23.55509766 -5.11753906 24.61019531 -5.56445312 25.69726562 C-8.27722365 32.40693396 -10.41406268 39.04433985 -12.1875 46.0625 C-16.4775 46.0625 -20.7675 46.0625 -25.1875 46.0625 C-24.26409878 41.44549391 -22.85908838 37.42023288 -21.09765625 33.09375 C-20.79306992 32.33582153 -20.48848358 31.57789307 -20.17466736 30.79699707 C-19.20383049 28.38384189 -18.22702578 25.97315517 -17.25 23.5625 C-16.59660684 21.94156678 -15.94360791 20.32047458 -15.29101562 18.69921875 C-14.0910636 15.71971017 -12.88886721 12.74113053 -11.68383789 9.76367188 C-10.79732683 7.57089855 -9.94574487 5.36255691 -9.17358398 3.12695312 C-8.84817627 2.44568359 -8.52276855 1.76441406 -8.1875 1.0625 C-5.17259443 0.05753148 -3.14568308 -0.04085303 0 0 Z " fill="#FBFBFB" transform="translate(375.1875,334.9375)"/>
<path d="M0 0 C2.31 0 4.62 0 7 0 C6.41296004 6.27625439 4.93704459 11.87208749 3.0625 17.875 C0.1510033 27.54465111 -1.2880757 36.94713784 -2 47 C-6.95 47 -11.9 47 -17 47 C-16.24071608 41.68501259 -15.28309002 37.45270949 -13.375 32.5625 C-13.11356201 31.87800781 -12.85212402 31.19351562 -12.58276367 30.48828125 C-10.37220757 24.77925154 -7.96057719 19.16275605 -5.44873047 13.58032227 C-3.44412104 9.11359319 -1.68357354 4.59803769 0 0 Z " fill="#FAFAFA" transform="translate(396,334)"/>
<path d="M0 0 C-0.3714917 0.51336914 -0.7429834 1.02673828 -1.12573242 1.55566406 C-5.37673184 7.64717059 -8.42677648 13.92118861 -11.3125 20.75 C-11.75400391 21.76449219 -12.19550781 22.77898437 -12.65039062 23.82421875 C-14.53665981 28.22069915 -16.19359559 32.26469972 -17 37 C-20.62011635 37.74258797 -24.03966067 38.05815773 -27.72265625 38.03125 C-28.52582275 38.02673828 -29.32898926 38.02222656 -30.15649414 38.01757812 C-30.76485107 38.01177734 -31.37320801 38.00597656 -32 38 C-27.84314501 27.42330378 -23.46345729 16.98737481 -17.5625 7.25 C-17.15733154 6.53013916 -16.75216309 5.81027832 -16.3347168 5.06860352 C-14.36743079 1.98115735 -13.10019781 0.30802965 -9.49560547 -0.70117188 C-2.92300328 -1.46150164 -2.92300328 -1.46150164 0 0 Z " fill="#FBFBFB" transform="translate(171,353)"/>
<path d="M0 0 C0.33 0 0.66 0 1 0 C1.98029646 4.58948298 2.9588367 9.17933567 3.93579102 13.76953125 C4.26799723 15.32920304 4.60067301 16.8887749 4.93383789 18.44824219 C5.41417615 20.69700068 5.8927934 22.94611979 6.37109375 25.1953125 C6.51904892 25.8861795 6.66700409 26.57704651 6.81944275 27.28884888 C7.64488766 31.17965975 8.37734191 35.0716421 9 39 C7.50497381 39.51468115 6.00358371 40.01088241 4.5 40.5 C3.6646875 40.7784375 2.829375 41.056875 1.96875 41.34375 C-1.7901925 42.17467413 -5.15374412 42.09862195 -9 42 C-7.44864016 30.31779033 -5.51143718 19.26648355 -2 8 C-1.29379483 5.3408811 -0.64210516 2.67543817 0 0 Z " fill="#FCFCFC" transform="translate(417,339)"/>
<path d="M0 0 C-0.23187012 0.7206665 -0.46374023 1.44133301 -0.70263672 2.18383789 C-1.76125654 5.47635186 -2.81814254 8.76941993 -3.875 12.0625 C-4.23980469 13.19623047 -4.60460937 14.32996094 -4.98046875 15.49804688 C-6.73780346 20.97773602 -8.47012401 26.45218655 -10 32 C-14.0527516 32.98248524 -17.83861737 33.08159574 -22 33 C-20.87971691 21.75144322 -16.90815613 11.52796656 -13 1 C-8.60687366 0.40432185 -4.43867138 -0.06218804 0 0 Z " fill="#FBFBFB" transform="translate(295,349)"/>
<path d="M0 0 C0.763125 0.0825 1.52625 0.165 2.3125 0.25 C1.90257812 1.30058594 1.49265625 2.35117187 1.0703125 3.43359375 C-5.49323987 18.25869949 -5.49323987 18.25869949 -4.6875 33.625 C-4.3575 34.16125 -4.0275 34.6975 -3.6875 35.25 C-6.6490696 36.7307848 -9.52256295 36.60314037 -12.8125 36.8125 C-14.09382812 36.89628906 -15.37515625 36.98007812 -16.6953125 37.06640625 C-17.68273437 37.12699219 -18.67015625 37.18757813 -19.6875 37.25 C-21.09364509 33.03156473 -19.40401357 30.28078593 -17.75 26.375 C-17.43514648 25.62065674 -17.12029297 24.86631348 -16.79589844 24.08911133 C-13.75446094 17.02351474 -10.01800731 10.60454877 -5.6875 4.25 C-5.21828125 3.47269531 -4.7490625 2.69539063 -4.265625 1.89453125 C-2.6875 0.25 -2.6875 0.25 0 0 Z " fill="#FAFAFA" transform="translate(190.6875,351.75)"/>
<path d="M0 0 C-0.59967995 3.2658246 -1.93283722 5.97851527 -3.42553711 8.92553711 C-7.56373623 17.14979554 -9.64423552 24.89700989 -11 34 C-13.97 34 -16.94 34 -20 34 C-17.88745727 24.77694761 -15.07048209 15.93783896 -12 7 C-11.33129356 5.00068108 -10.66391248 3.00091596 -10 1 C-3.375 0 -3.375 0 0 0 Z " fill="#F9F9F9" transform="translate(319,347)"/>
<path d="M0 0 C1.65 0 3.3 0 5 0 C4.28866446 3.96421371 3.21020149 7.72277984 2 11.5625 C0.22223382 17.2160579 -1.1332915 21.80351359 -1.0625 27.75 C-1.041875 29.4825 -1.02125 31.215 -1 33 C-7.435 33.495 -7.435 33.495 -14 34 C-11.83826766 26.04659568 -8.81953413 18.82348797 -5.3125 11.375 C-4.80138672 10.27542969 -4.29027344 9.17585938 -3.76367188 8.04296875 C-2.51509683 5.35911585 -1.26046333 2.67828468 0 0 Z " fill="#F9F9F9" transform="translate(260,350)"/>
<path d="M0 0 C7.64046171 0.21223505 18.16438648 0.58219324 25 4 C25.125 6.875 25.125 6.875 25 10 C22.58018915 12.41981085 21.94532792 12.2963819 18.625 12.3125 C12.28934741 12.18338918 4.28804698 11.54358351 -0.86328125 7.55859375 C-2 6 -2 6 -1.75 3.375 C-1 1 -1 1 0 0 Z " fill="#080808" transform="translate(177,120)"/>
<path d="M0 0 C5.71875 0.7265625 5.71875 0.7265625 8.25 3.1875 C11.7715326 8.84710596 12.32019188 13.48943172 12 20 C11.67 20.99 11.34 21.98 11 23 C8.09282442 22.66322327 6.4101934 22.36659367 4.19921875 20.390625 C-0.52931722 13.69492032 -0.6706778 8.03571363 0 0 Z " fill="#F9F9F9" transform="translate(293,135)"/>
<path d="M0 0 C1.32 0.33 2.64 0.66 4 1 C3.41476563 1.81855469 2.82953125 2.63710938 2.2265625 3.48046875 C-0.25984967 7.21665901 -1.95134048 11.16136268 -3.625 15.3125 C-3.93058838 16.06072021 -4.23617676 16.80894043 -4.55102539 17.57983398 C-6.58243687 22.66471256 -8.11325243 27.58098708 -9 33 C-13.455 33.495 -13.455 33.495 -18 34 C-17.01 33.505 -17.01 33.505 -16 33 C-15.36854522 31.00039319 -14.73776028 29.00057354 -14.109375 27 C-10.61215112 17.54271853 -5.58256758 8.37385137 0 0 Z " fill="#F2F2F2" transform="translate(241,351)"/>
<path d="M0 0 C0.98484375 0.00902344 1.9696875 0.01804687 2.984375 0.02734375 C4.10585937 0.04474609 4.10585937 0.04474609 5.25 0.0625 C-3.62579844 15.58201739 -3.62579844 15.58201739 -7.75 21.0625 C-8.08 21.0625 -8.41 21.0625 -8.75 21.0625 C-9.08 14.4625 -9.41 7.8625 -9.75 1.0625 C-6.20011229 0.17502807 -3.60819222 -0.04295467 0 0 Z " fill="#FAFAFA" transform="translate(82.75,122.9375)"/>
<path d="M0 0 C1.65 0.99 3.3 1.98 5 3 C6.65369357 3.69822617 8.31727014 4.37498605 10 5 C9.59007813 5.94101562 9.18015625 6.88203125 8.7578125 7.8515625 C8.21341072 9.10931833 7.66914725 10.36713403 7.125 11.625 C6.85558594 12.24246094 6.58617188 12.85992187 6.30859375 13.49609375 C4.6757334 17.27955067 3.24482937 21.07214033 2 25 C1.67 25 1.34 25 1 25 C0.67 16.75 0.34 8.5 0 0 Z " fill="#FBFBFB" transform="translate(86,347)"/>
<path d="M0 0 C1.98 0 3.96 0 6 0 C6 5.94 6 11.88 6 18 C5.34 18 4.68 18 4 18 C0.58893048 11.4744757 -0.1210303 7.26181791 0 0 Z " fill="#EDEDED" transform="translate(154,157)"/>
<path d="M0 0 C2.625 -0.140625 2.625 -0.140625 5 0 C4.64808594 0.41507812 4.29617187 0.83015625 3.93359375 1.2578125 C-0.09046362 6.2800042 -2.92655799 11.53820873 -5.63891602 17.33837891 C-7.8029905 21.90149525 -7.8029905 21.90149525 -10 23 C-8.68440326 15.12087665 -5.36355699 6.03400162 0 0 Z " fill="#E5E5E5" transform="translate(110,353)"/>
<path d="M0 0 C1.60080151 4.00200378 0.29279692 7.04556236 -1 11 C-1.33 11 -1.66 11 -2 11 C-2.05399736 9.54207116 -2.09279177 8.08357288 -2.125 6.625 C-2.15980469 5.40683594 -2.15980469 5.40683594 -2.1953125 4.1640625 C-2 2 -2 2 0 0 Z " fill="#E5E5E5" transform="translate(174,151)"/>
</svg>
