<?xml version="1.0" encoding="UTF-8"?>
<svg version="1.1" xmlns="http://www.w3.org/2000/svg" width="500" height="500">
<path d="M0 0 C1.23468018 0.19609863 2.46936035 0.39219727 3.74145508 0.59423828 C13.04142007 2.22090509 22.49317288 4.51628192 30.4375 9.8125 C30.4375 10.4725 30.4375 11.1325 30.4375 11.8125 C31.0975 11.8125 31.7575 11.8125 32.4375 11.8125 C33.0975 12.8025 33.7575 13.7925 34.4375 14.8125 C36.73150465 15.45875877 38.98558422 15.75679111 41.34375 16.08984375 C43.4375 16.8125 43.4375 16.8125 44.6796875 18.62890625 C47.21930917 25.9466821 46.55371812 34.18084347 46.4375 41.8125 C47.06269531 41.95171875 47.68789063 42.0909375 48.33203125 42.234375 C50.90844752 42.94181398 51.838981 43.68114134 53.4375 45.8125 C54.45959179 48.89984943 54.69099558 50.27090193 53.29296875 53.2578125 C52.74253906 54.14210937 52.19210937 55.02640625 51.625 55.9375 C47.6454183 63.50146246 47.18116125 70.66864958 46.62744141 79.04931641 C46.42540955 81.98838657 46.17612903 84.92081427 45.91796875 87.85546875 C45.0763293 97.56564798 44.37603303 107.26055263 44 117 C43.46913193 130.65224755 41.89327889 144.23390388 40.4375 157.8125 C41.20449219 158.0909375 41.97148437 158.369375 42.76171875 158.65625 C46.1271392 160.11050468 48.03874143 162.07106163 50.4375 164.8125 C50.4375 165.4725 50.4375 166.1325 50.4375 166.8125 C51.4275 167.1425 52.4175 167.4725 53.4375 167.8125 C53.4375 168.4725 53.4375 169.1325 53.4375 169.8125 C54.0975 169.8125 54.7575 169.8125 55.4375 169.8125 C56.7265625 171.2734375 56.7265625 171.2734375 58.0625 173.1875 C58.50851562 173.81398437 58.95453125 174.44046875 59.4140625 175.0859375 C60.4375 176.8125 60.4375 176.8125 60.4375 178.8125 C61.0975 178.8125 61.7575 178.8125 62.4375 178.8125 C62.82228516 179.73869141 62.82228516 179.73869141 63.21484375 180.68359375 C66.08200451 187.02610088 69.5111762 191.310475 74.64453125 196 C76.4375 197.8125 76.4375 197.8125 76.4375 199.8125 C77.0975 199.8125 77.7575 199.8125 78.4375 199.8125 C78.72882813 200.41835938 79.02015625 201.02421875 79.3203125 201.6484375 C81.56981252 206.24647212 83.91823669 210.62975708 86.6875 214.9375 C90.43299126 221.15095061 91.15387517 225.68838827 89.5 232.75 C86.83733888 240.61695332 80.79635648 246.7798696 73.6171875 250.81640625 C64.98338867 254.76195948 56.81154124 255.14192279 47.4375 254.8125 C47.5804248 255.5250293 47.72334961 256.23755859 47.87060547 256.97167969 C49.31339263 264.74634938 49.6836528 272.16892939 49.5625 280.0625 C49.55347656 281.20074219 49.54445313 282.33898437 49.53515625 283.51171875 C49.5119028 286.27887881 49.47922868 289.0455676 49.4375 291.8125 C50.20449219 291.77253906 50.97148437 291.73257812 51.76171875 291.69140625 C54.4375 291.8125 54.4375 291.8125 57.25 293.75 C59.7714124 297.27997736 60.36729226 299.27278312 60.10546875 303.546875 C58.77973568 308.04351348 55.14491544 310.23237999 51.4375 312.8125 C50.65503906 313.36421875 49.87257813 313.9159375 49.06640625 314.484375 C47.40193285 315.64551164 45.73105195 316.79750406 44.0546875 317.94140625 C41.33536402 319.8855196 38.80389519 321.96896682 36.25 324.125 C22.75612622 335.30020815 7.43438456 343.96334872 -8.24536133 351.66796875 C-12.7909354 353.90512023 -17.27410296 356.23888302 -21.74047852 358.63012695 C-57.13225508 377.53893305 -98.46709525 388.12888155 -138.5625 379.8125 C-139.89812988 379.54590576 -139.89812988 379.54590576 -141.26074219 379.27392578 C-162.14422825 375.01938089 -181.18395495 368.32843512 -198.5625 355.8125 C-199.41279785 355.21501953 -199.41279785 355.21501953 -200.28027344 354.60546875 C-209.74960841 347.9212323 -219.0355487 340.27509172 -222.5625 328.8125 C-222.75 325.375 -222.75 325.375 -222.5625 322.8125 C-224.41875 322.4721875 -224.41875 322.4721875 -226.3125 322.125 C-229.26733045 321.58328108 -230.46216894 320.90829862 -232.66479492 318.80517578 C-235.22552627 314.76690936 -235.11381418 311.68789747 -235.06640625 307.00390625 C-235.07582748 306.15956528 -235.08524872 305.3152243 -235.09495544 304.44529724 C-235.12355484 301.75494989 -235.12668592 299.06548688 -235.125 296.375 C-235.12861484 293.68821291 -235.13823047 291.00206818 -235.16575623 288.31541443 C-235.18246223 286.64709028 -235.18548525 284.97855507 -235.17274475 283.31019592 C-235.21833643 278.24845175 -236.20758864 275.36028914 -238.5625 270.8125 C-243.53083146 253.47359061 -244.31743078 235.96703302 -244.0625 218.0625 C-244.04557345 215.65731133 -244.0291416 213.25211912 -244.01318359 210.84692383 C-243.80905835 189.80903384 -242.83105926 168.72747107 -240.03222656 147.85864258 C-238.06558531 133.00363151 -238.17688965 118.08422914 -238.0625 103.125 C-237.82806957 72.61346904 -237.82806957 72.61346904 -236.71875 58.91796875 C-236.65055054 58.01685867 -236.58235107 57.1157486 -236.51208496 56.18733215 C-235.50571101 45.27934658 -232.38947954 37.52291746 -223.890625 30.4140625 C-209.68841583 20.54792604 -189.47289027 16.8861639 -172.875 13.9375 C-172.18563354 13.81377014 -171.49626709 13.69004028 -170.78601074 13.56256104 C-138.92355126 7.86955934 -106.76325227 3.99020582 -74.5625 0.8125 C-73.55832031 0.7108252 -72.55414063 0.60915039 -71.51953125 0.50439453 C-63.84398847 -0.24153464 -56.16983219 -0.53062993 -48.46484375 -0.79296875 C-46.99724609 -0.84904297 -46.99724609 -0.84904297 -45.5 -0.90625 C-44.62214844 -0.93654297 -43.74429688 -0.96683594 -42.83984375 -0.99804688 C-28.17428064 -2.21808086 -14.8254381 -2.42036683 0 0 Z M-125.5625 137.8125 C-126.2225 141.1125 -126.8825 144.4125 -127.5625 147.8125 C-126.5725 147.8125 -125.5825 147.8125 -124.5625 147.8125 C-122.22474971 144.97676737 -122.22474971 144.97676737 -122.8125 141.6875 C-123.06 140.73875 -123.3075 139.79 -123.5625 138.8125 C-124.2225 138.4825 -124.8825 138.1525 -125.5625 137.8125 Z M39.4375 178.8125 C37.80864256 209.55085768 37.80864256 209.55085768 45.4375 238.8125 C55.54953299 239.37514789 61.86199048 238.181037 70.4375 233 C73.26922537 229.90280037 73.37031307 227.99908553 73.4375 223.8125 C72.15887154 220.70583242 70.35117471 218.062485 68.4375 215.3125 C67.96699219 214.59191406 67.49648438 213.87132812 67.01171875 213.12890625 C64.07805831 208.75609163 60.85787718 205.1521859 57.07080078 201.50976562 C54.54308063 198.88305255 52.73589109 195.92983846 50.875 192.8125 C47.7448743 187.7568646 44.54624858 183.12668601 40.4375 178.8125 C40.1075 178.8125 39.7775 178.8125 39.4375 178.8125 Z " fill="#000000" transform="translate(334.5625,59.1875)"/>
<path d="M0 0 C2.29005212 1.02032025 3.71585262 2.21640778 5.53515625 3.94140625 C15.98195709 13.36287293 28.02921659 22.42882993 42.73828125 22.15234375 C50.80582419 21.16505703 58.42332525 16.70133425 63.97265625 10.87890625 C65.98055904 7.66532352 67.56529505 4.39377318 68.97265625 0.87890625 C76.50184121 2.13889231 82.14158497 4.83695018 88.72265625 8.62890625 C90.67679424 9.72289918 92.63251595 10.81406819 94.58984375 11.90234375 C95.52151367 12.42151367 96.45318359 12.94068359 97.41308594 13.47558594 C106.89988692 18.67685759 116.91285335 22.50781902 127.06738281 26.171875 C128.77722169 26.8063821 130.46654183 27.49554698 132.15234375 28.19140625 C144.2529338 33.01957186 157.1826293 34.72693785 169.97265625 36.87890625 C176.75564168 74.86362464 176.75564168 74.86362464 170.68359375 87.578125 C167.32903402 91.81504522 163.08749962 94.3119619 158.29882812 96.69433594 C155.96789581 97.88133044 153.84785687 99.21293738 151.67578125 100.66796875 C142.06261544 107.03924431 131.79021631 112.1240697 121.44140625 117.17578125 C117.05136143 119.32429895 112.73384701 121.58210658 108.43188477 123.90112305 C68.98387782 145.13803012 26.02698262 150.64978013 -17.02734375 137.87890625 C-36.11617249 131.95594662 -52.15672443 121.5697188 -66.90234375 108.17578125 C-70.12847887 105.31119576 -72.81165628 103.1563873 -77.02734375 101.87890625 C-76.89457031 101.28464844 -76.76179688 100.69039063 -76.625 100.078125 C-75.26473126 93.693798 -74.49749365 87.38677071 -74.02734375 80.87890625 C-73.26421875 81.04390625 -72.50109375 81.20890625 -71.71484375 81.37890625 C-62.46513722 82.63310375 -55.67952586 82.67643022 -48.02734375 76.87890625 C-35.60246293 66.89501971 -26.40827524 50.49347592 -22.65234375 35.12890625 C-19.32172839 22.48396788 -13.7380075 10.12088259 -4.03515625 1.0078125 C-2.02734375 -0.12109375 -2.02734375 -0.12109375 0 0 Z " fill="#FFFFFF" transform="translate(195.02734375,276.12109375)"/>
<path d="M0 0 C2.67079189 0.04140763 5.27331329 -0.01312111 7.9375 -0.125 C16.77691194 -0.30521587 25.36978813 0.57423217 34.125 1.75 C35.97339478 1.98565674 35.97339478 1.98565674 37.85913086 2.22607422 C44.83319812 3.21456956 50.77213052 4.68016279 57 8 C57.99 8.495 57.99 8.495 59 9 C58.01725622 21.77566919 46.98039508 31.51504662 38.125 39.75 C22.68912577 52.50539308 2.4443202 59.9171439 -17 64 C-18.04929687 64.22300781 -19.09859375 64.44601563 -20.1796875 64.67578125 C-31.67349988 66.70166904 -43.37354407 66.18627548 -55 66 C-55.13277344 65.28972656 -55.26554687 64.57945312 -55.40234375 63.84765625 C-55.66724609 62.46900391 -55.66724609 62.46900391 -55.9375 61.0625 C-56.19853516 59.68771484 -56.19853516 59.68771484 -56.46484375 58.28515625 C-56.77714988 56.04710156 -56.77714988 56.04710156 -58 55 C-60.9157691 54.58297878 -60.9157691 54.58297878 -64 55 C-67.30216863 57.94836485 -67.85694336 61.8491545 -69 66 C-103.8471039 63.6961618 -103.8471039 63.6961618 -110.93359375 59.98828125 C-113.94027668 58.55030246 -116.96661058 58.22056024 -120.25 57.6875 C-128.77569065 56.1933571 -136.82440746 53.80781931 -145 51 C-145.67595215 50.77441406 -146.3519043 50.54882812 -147.04833984 50.31640625 C-170.78129622 42.33969934 -170.78129622 42.33969934 -175.3515625 34.7578125 C-175.56554687 34.17773438 -175.77953125 33.59765625 -176 33 C-163.57712997 17.47141246 -132.67351406 15.75080142 -114.32323456 12.39164352 C-112.16751797 11.99633577 -110.01243036 11.59775055 -107.85748291 11.19827271 C-12.632921 -6.43698548 -12.632921 -6.43698548 0 0 Z " fill="#FEFEFE" transform="translate(295,76)"/>
<path d="M0 0 C0.33 0 0.66 0 1 0 C1.30404451 10.30373077 1.18505706 20.39747651 -0.06466675 30.64109802 C-2.07515109 47.13870006 -2.46981786 63.44433834 -2.39111328 80.04418945 C-2.37378375 83.74487018 -2.38407865 87.44490889 -2.40183067 91.14556789 C-2.41276298 94.06534019 -2.4091834 96.9849641 -2.4014473 99.90474129 C-2.39855086 101.91732852 -2.40745497 103.92992219 -2.4168396 105.94248962 C-2.35902812 113.564278 -1.5002778 120.48063691 0.35775757 127.87904358 C1.00213337 131.01036704 1.11310504 133.81312238 1 137 C-13.39567607 135.15502297 -26.68885157 131.45561826 -40.04345703 125.81201172 C-42.0478645 124.9801351 -44.0651453 124.19124119 -46.08984375 123.41015625 C-54.6056091 120.08586772 -62.51241843 116.19604364 -70.44018555 111.64404297 C-77.08697384 107.85611193 -83.88769325 104.81290589 -91 102 C-89.97915893 73.55725583 -89.97915893 73.55725583 -85 65 C-80.76164959 65.47092782 -76.9507597 66.29740329 -72.875 67.5625 C-62.20918116 70.50982614 -52.01397729 69.76120379 -42 65 C-20.18055749 51.5543217 -10.39776881 22.14339654 0 0 Z " fill="#FFFFFF" transform="translate(361,160)"/>
<path d="M0 0 C2.95970647 1.17674322 5.8863159 2.37270486 8.76953125 3.7265625 C9.43017578 4.0359375 10.09082031 4.3453125 10.77148438 4.6640625 C11.44501953 4.98117188 12.11855469 5.29828125 12.8125 5.625 C13.50537109 5.94984375 14.19824219 6.2746875 14.91210938 6.609375 C16.60866023 7.40499885 18.30441165 8.20232699 20 9 C19.81824219 10.03511719 19.63648438 11.07023438 19.44921875 12.13671875 C17.54824522 23.35092953 16.25396614 34.57751539 15.12353516 45.89355469 C13.5439854 61.68905221 11.64060871 77.4304192 9.46557617 93.15478516 C6.73579398 113.03183996 4.85474368 132.67786841 4.75 152.75 C4.7406543 153.99467041 4.73130859 155.23934082 4.72167969 156.52172852 C4.72586914 157.68502686 4.73005859 158.8483252 4.734375 160.046875 C4.73663086 161.07651367 4.73888672 162.10615234 4.74121094 163.16699219 C5.01452927 166.1590544 5.64613203 168.32447061 7 171 C10.10861908 172.55430954 13.65824747 172.88672245 17 172 C21.22209478 167.52898353 20.43910127 161.57699947 20.5 155.8125 C20.76754536 145.42527201 21.33659484 135.09784038 22.25 124.75 C22.31219727 124.04397644 22.37439453 123.33795288 22.43847656 122.61053467 C23.55266525 110.20503749 25.14042011 97.87873197 26.82788086 85.54003906 C29.65564605 64.82142442 31.87150995 43.97278633 32.70996094 23.06933594 C32.84086037 19.92290148 33.07200026 17.01980243 34 14 C35.50050978 14.28903262 37.00037738 14.58139919 38.5 14.875 C39.3353125 15.03742188 40.170625 15.19984375 41.03125 15.3671875 C44.71383748 16.1521601 48.35080449 17.07210627 52 18 C51.88930176 18.64324219 51.77860352 19.28648437 51.66455078 19.94921875 C51.14766949 22.96552496 50.63633699 25.98274914 50.125 29 C49.95097656 30.010625 49.77695313 31.02125 49.59765625 32.0625 C46.72569173 49.08154901 45.31670541 66.03501868 44.19506836 83.2487793 C43.94096938 87.13444641 43.67708679 91.01935828 43.41210938 94.90429688 C42.53511787 107.98749381 41.78878199 121.07427586 41.25390625 134.17578125 C41.1968602 135.40628708 41.13981415 136.63679291 41.08103943 137.90458679 C41.01880943 139.60951042 41.01880943 139.60951042 40.95532227 141.34887695 C40.89526756 142.84569756 40.89526756 142.84569756 40.83399963 144.37275696 C41.00955356 147.15120155 41.50356175 148.67436478 43 151 C45.03317007 152.73425773 45.03317007 152.73425773 47 154 C46.09701172 155.66095703 46.09701172 155.66095703 45.17578125 157.35546875 C42.762539 162.17877096 41.50588658 167.10534386 40.1875 172.3125 C37.96524684 180.55645785 35.27574116 187.18600174 30 194 C29.25943359 195.08087891 29.25943359 195.08087891 28.50390625 196.18359375 C25.06918056 201.1076314 21.16466778 205.83488259 16 209 C11.11862448 209.34255267 7.38684699 207.73178533 3.52215576 204.85778809 C0.17090327 200.76759107 0.80125968 195.1300496 0.6953125 190.078125 C0.64318083 188.71299265 0.58837113 187.34796043 0.53114319 185.98303223 C0.38292886 182.20486783 0.28060777 178.42665115 0.18755722 174.64677429 C0.10353003 171.42741453 -0.00488263 168.2090351 -0.11201954 164.99037552 C-1.13511697 133.86060427 -1.45057847 102.70490846 -1.77274323 71.56156921 C-1.812401 67.75949168 -1.85451986 63.95744615 -1.89666748 60.15539551 C-1.96196695 54.09311734 -2.01410818 48.03085043 -2.05627632 41.96836853 C-2.07318614 39.72193054 -2.09346703 37.4755149 -2.11744499 35.22914124 C-2.24046517 23.29851051 -2.08578584 11.77436833 0 0 Z " fill="#FDFDFD" transform="translate(118,134)"/>
<path d="M0 0 C0.59312988 0.08564209 1.18625977 0.17128418 1.79736328 0.25952148 C12.26040175 1.75901442 22.6599086 3.24068747 33.22265625 3.7890625 C35.88848178 3.99153026 38.39362867 4.41655541 41 5 C40.9278125 5.7528125 40.855625 6.505625 40.78125 7.28125 C39.226722 23.2203811 39.226722 23.2203811 41 39 C42.62418745 39.08090971 44.24951745 39.13914995 45.875 39.1875 C46.77992188 39.22230469 47.68484375 39.25710937 48.6171875 39.29296875 C49.40351563 39.19628906 50.18984375 39.09960938 51 39 C53.42383951 35.36424074 53.38489093 33.26440874 53.6328125 28.92578125 C53.67437469 28.2419487 53.71593689 27.55811615 53.75875854 26.8535614 C53.88930512 24.67360794 54.00730709 22.49318147 54.125 20.3125 C54.21141318 18.8326338 54.29864316 17.35281506 54.38671875 15.87304688 C54.60215924 12.24917527 54.80061806 8.62493344 55 5 C63.91 4.67 72.82 4.34 82 4 C81.525625 7.073125 81.05125 10.14625 80.5625 13.3125 C79.49566832 20.79259702 78.8769747 28.20902552 78.71875 35.7578125 C78.70271225 36.51432602 78.6866745 37.27083954 78.67015076 38.05027771 C78.59936339 41.80454422 78.56005847 45.55686406 78.55493164 49.31176758 C78.48304002 58.12390364 77.34990656 65.97704291 74.98217773 74.46704102 C73.8257311 78.62685689 73.00861699 82.75174487 72.25 87 C72.12496094 87.6909375 71.99992187 88.381875 71.87109375 89.09375 C71.57596423 90.7283135 71.28716691 92.36401882 71 94 C64.06691111 89.96555749 58.87838208 85.06366617 53.7109375 78.9609375 C52.07172664 77.08220725 50.35811264 75.35317179 48.5625 73.625 C46 71 46 71 46 69 C45.01 68.67 44.02 68.34 43 68 C43 67.34 43 66.68 43 66 C42.1028125 65.62875 42.1028125 65.62875 41.1875 65.25 C38.63486469 63.79135125 37.43267442 62.56373318 36 60 C36.22932907 57.63026625 36.99968937 56.00062126 38.0625 53.875 C39.83257616 48.44676644 39.73442426 43.04865713 37.8125 37.6875 C33.28560613 30.97520909 27.47496458 26.74767581 19.6875 24.6875 C13.51748779 23.51677973 7.45236514 23.43466055 2.0625 26.875 C1.381875 27.57625 0.70125 28.2775 0 29 C-0.99880168 30.00119689 -1.99857449 31.00142755 -3 32 C-2.40652032 21.27051213 -1.34387477 10.65966683 0 0 Z " fill="#FDFDFD" transform="translate(184,156)"/>
<path d="M0 0 C0.74991211 0.03440186 1.49982422 0.06880371 2.27246094 0.10424805 C3.10600098 0.14227539 3.93954102 0.18030273 4.79833984 0.21948242 C5.69214355 0.26782227 6.58594727 0.31616211 7.50683594 0.3659668 C8.40966309 0.41301758 9.31249023 0.46006836 10.24267578 0.50854492 C28.24533197 1.54771481 28.24533197 1.54771481 33.25683594 4.0534668 C33.25683594 4.7134668 33.25683594 5.3734668 33.25683594 6.0534668 C33.9490625 6.18881836 34.64128906 6.32416992 35.35449219 6.46362305 C41.65900717 7.85078247 47.41514648 9.7908815 53.25683594 12.4909668 C53.89113525 12.77915283 54.52543457 13.06733887 55.17895508 13.36425781 C58.8336314 15.10934501 61.74413413 16.84522908 64.25683594 20.0534668 C64.31933594 23.6159668 64.31933594 23.6159668 63.25683594 27.0534668 C59.74296528 29.66324162 56.476972 30.65278394 52.21655273 31.47973633 C51.02148605 31.71653107 49.82641937 31.95332581 48.59513855 32.19729614 C46.67004204 32.5630928 46.67004204 32.5630928 44.70605469 32.9362793 C43.36458017 33.19786746 42.02325841 33.4602401 40.68208313 33.72335815 C37.87485396 34.27207027 35.06650905 34.81447284 32.25708008 35.35180664 C28.67472124 36.03702157 25.09454993 36.73290637 21.51506329 37.43295479 C18.07943965 38.10441027 14.64279624 38.77057356 11.20605469 39.4362793 C9.92872971 39.6841922 8.65140472 39.9321051 7.33537292 40.18753052 C-1.29498503 41.83898469 -9.68569871 43.19520982 -18.49316406 43.3659668 C-20.40355469 43.42204102 -20.40355469 43.42204102 -22.35253906 43.47924805 C-25.74316406 43.0534668 -25.74316406 43.0534668 -28.19238281 41.2487793 C-29.74316406 39.0534668 -29.74316406 39.0534668 -29.80566406 35.6159668 C-28.57242 31.48097201 -27.07670345 29.73655947 -23.74316406 27.0534668 C-23.08316406 27.0534668 -22.42316406 27.0534668 -21.74316406 27.0534668 C-21.74316406 26.3934668 -21.74316406 25.7334668 -21.74316406 25.0534668 C-22.83628906 24.9503418 -23.92941406 24.8472168 -25.05566406 24.7409668 C-28.74316406 24.0534668 -28.74316406 24.0534668 -30.68066406 22.8659668 C-32.33257984 20.04799282 -32.25611636 18.25941865 -31.74316406 15.0534668 C-25.95605578 6.78616926 -14.43044143 3.60521876 -5.04394531 1.59643555 C-2.7974324 1.06627376 -2.1804185 0.06687838 0 0 Z " fill="#000000" transform="translate(187.7431640625,445.946533203125)"/>
<path d="M0 0 C1.13180191 -0.00143509 1.13180191 -0.00143509 2.28646851 -0.00289917 C3.87473637 -0.00357525 5.46300709 -0.0017612 7.05126953 0.00244141 C9.43398544 0.00775242 11.81650895 0.00250021 14.19921875 -0.00390625 C40.88375457 -0.02263613 40.88375457 -0.02263613 46.8359375 4.1328125 C47.8359375 5.1328125 47.8359375 5.1328125 48.0859375 9.0078125 C48.0380183 12.83450274 48.0380183 12.83450274 46.5234375 15.0703125 C43.44972812 17.005611 40.79064931 17.26236841 37.25805664 17.29052734 C35.86087654 17.3061396 35.86087654 17.3061396 34.43547058 17.32206726 C33.42422623 17.32922256 32.41298187 17.33637787 31.37109375 17.34375 C29.20034844 17.3692283 27.02961287 17.39554673 24.85888672 17.42260742 C23.72159119 17.43585052 22.58429565 17.44909363 21.41253662 17.46273804 C-14.34429481 17.92138189 -51.3768832 19.01176575 -83.7890625 36.0078125 C-87.39721472 37.88769013 -90.02315878 38.94079371 -94.1640625 38.1328125 C-96.0390625 36.9453125 -96.0390625 36.9453125 -97.1640625 35.1328125 C-97.48828125 32.7890625 -97.48828125 32.7890625 -97.1640625 30.1328125 C-88.02183737 18.15111979 -71.1213342 11.98485367 -57.1640625 8.1328125 C-56.37757324 7.91496094 -55.59108398 7.69710937 -54.78076172 7.47265625 C-42.78182104 4.22656602 -30.97218511 2.22522353 -18.57495117 1.35058594 C-16.51003392 1.16406379 -14.45245943 0.89912459 -12.39819336 0.61865234 C-8.2646043 0.0939121 -4.1632124 -0.01200048 0 0 Z " fill="#040404" transform="translate(270.1640625,83.8671875)"/>
<path d="M0 0 C1.175625 1.2065625 1.175625 1.2065625 2.375 2.4375 C5.82564485 5.80598664 7.25804182 6.1387429 11.9375 6.125 C12.81277344 6.12757813 13.68804687 6.13015625 14.58984375 6.1328125 C17.14459056 6.09822003 17.14459056 6.09822003 20 5 C24.74761611 5.39501359 29.45841941 6.20931154 32.66796875 9.9375 C33.5951004 11.59056757 34.4776088 13.26912648 35.32421875 14.96484375 C37.8002952 19.44948572 41.04485119 23.24313467 44.30664062 27.17700195 C48.38573888 32.19124912 49.12899642 35.17229223 48.9375 41.5 C48.84258899 50.72745957 49.97723888 59.84080893 51 69 C40.53035261 67.4990417 32.9421554 58.2860787 26 51 C23.06613951 47.93497868 21.76912488 47.07956464 17.375 46.625 C12.23247973 46.68089696 9.04743577 49.06477282 5 52 C3.87731491 52.73272589 2.75253757 53.46226345 1.625 54.1875 C-1.0119781 55.89190846 -1.0119781 55.89190846 -3 58 C-3.21660395 44.87741058 -2.56603409 31.95120782 -1.5 18.875 C-1.35482911 17.02999813 -1.21029487 15.18494606 -1.06640625 13.33984375 C-0.71823621 8.89261911 -0.3615905 4.44615273 0 0 Z " fill="#FEFEFE" transform="translate(179,212)"/>
<path d="M0 0 C0.33 0 0.66 0 1 0 C2.14695548 6.93837268 1.23226388 11.29763191 -2.8125 17.0625 C-3.20832275 17.61373535 -3.60414551 18.1649707 -4.01196289 18.73291016 C-10.18808884 27.68191766 -13.7721957 38.11277132 -17.79248047 48.15429688 C-19.07310619 51.17228584 -20.50613928 54.08246355 -22 57 C-22.33 57 -22.66 57 -23 57 C-23.03758423 55.9627478 -23.03758423 55.9627478 -23.07592773 54.90454102 C-23.19152161 51.79032134 -23.31441242 48.67643211 -23.4375 45.5625 C-23.47681641 44.47388672 -23.51613281 43.38527344 -23.55664062 42.26367188 C-23.59853516 41.22919922 -23.64042969 40.19472656 -23.68359375 39.12890625 C-23.73858032 37.69140015 -23.73858032 37.69140015 -23.79467773 36.22485352 C-23.75834424 34.02861075 -23.75834424 34.02861075 -25 33 C-27.95804573 32.66659529 -27.95804573 32.66659529 -31 33 C-34.65098622 38.47647933 -34.09175758 44.46156018 -34 50.80859375 C-33.99884034 52.54361989 -34.00022728 54.27864925 -34.00390625 56.01367188 C-34.00829206 58.71313996 -34.00054442 61.40914078 -33.94873047 64.1081543 C-33.69464815 78.61090563 -36.20163879 88.64732731 -46.3046875 99.46850586 C-49.80026304 102.78202018 -52.40344116 104.16137646 -57 106 C-57 85.21 -57 64.42 -57 43 C-49.74 39.7 -42.48 36.4 -35 33 C-30.98773041 30.37974231 -27.59293536 28.03580298 -24 25 C-22.90763207 24.11547794 -21.81379364 23.23276985 -20.71875 22.3515625 C-15.14013652 18.28260207 -15.14013652 18.28260207 -11 13 C-10.34 13 -9.68 13 -9 13 C-8.74347656 12.43796875 -8.48695313 11.8759375 -8.22265625 11.296875 C-6.85074338 8.71960738 -5.23635416 6.54832724 -3.4375 4.25 C-2.81746094 3.45078125 -2.19742188 2.6515625 -1.55859375 1.828125 C-0.78708984 0.92320313 -0.78708984 0.92320313 0 0 Z " fill="#FCFCFC" transform="translate(365,107)"/>
<path d="M0 0 C3.84421572 1.26890373 7.7991192 1.72276387 11.80078125 2.265625 C14.40234375 2.79296875 14.40234375 2.79296875 17.40234375 4.79296875 C18.39400744 7.61539617 18.50714967 9.34541915 17.82421875 12.26171875 C14.78965823 17.66390341 7.12785326 19.1693168 1.40234375 20.79296875 C-8.9224869 23.01823869 -19.45055772 22.99583465 -29.97265625 23.10546875 C-31.16858398 23.12335449 -32.36451172 23.14124023 -33.59667969 23.15966797 C-34.71848633 23.15854004 -35.84029297 23.15741211 -36.99609375 23.15625 C-38.50695557 23.16072144 -38.50695557 23.16072144 -40.04833984 23.1652832 C-42.59765625 22.79296875 -42.59765625 22.79296875 -44.41650391 21.48120117 C-46.46062328 18.55952166 -46.07151736 16.22846182 -45.59765625 12.79296875 C-35.2012416 0.47129213 -15.09422633 -5.81387018 0 0 Z " fill="#010101" transform="translate(110.59765625,431.20703125)"/>
<path d="M0 0 C-0.09087891 0.87676392 -0.09087891 0.87676392 -0.18359375 1.77124023 C-2.06338475 20.5564978 -2.22731446 39.14513996 -2 58 C-7.92331903 57.19955148 -13.0791471 55.61477806 -19 54 C-18.67 37.5 -18.34 21 -18 4 C-15.69 3.34 -13.38 2.68 -11 2 C-9.783125 1.62875 -8.56625 1.2575 -7.3125 0.875 C-4 0 -4 0 0 0 Z " fill="#FBFBFB" transform="translate(296,155)"/>
<path d="M0 0 C1.11761719 -0.00515625 2.23523438 -0.0103125 3.38671875 -0.015625 C6.3125 0.25 6.3125 0.25 9.3125 2.25 C9.70757893 6.59586828 9.76581002 8.57003497 7.3125 12.25 C4.59765625 12.91015625 4.59765625 12.91015625 1.375 13.3125 C-2.5017081 13.80709824 -4.39022571 14.05181714 -7.6875 16.25 C-14.14033019 15.79716981 -14.14033019 15.79716981 -16.6875 13.25 C-17.11421657 9.40955091 -17.32308899 7.15449203 -15.0625 3.9375 C-10.35376347 0.59181878 -5.67919939 -0.0263842 0 0 Z " fill="#000000" transform="translate(120.6875,468.75)"/>
<path d="M0 0 C1.46022163 0.95545366 2.91811468 1.91446678 4.375 2.875 C5.18710938 3.40867187 5.99921875 3.94234375 6.8359375 4.4921875 C9 6 9 6 11 8 C11 14.47048984 8.33847738 17.63498759 4 22 C-0.10553546 15.8416968 -0.33093523 7.28057498 0 0 Z " fill="#FDFDFD" transform="translate(240,258)"/>
<path d="M0 0 C3.27300996 0.61394071 6.54292425 1.24304636 9.8125 1.875 C11.2056543 2.13603516 11.2056543 2.13603516 12.62695312 2.40234375 C13.51962891 2.57636719 14.41230469 2.75039063 15.33203125 2.9296875 C16.56530151 3.16534424 16.56530151 3.16534424 17.82348633 3.40576172 C20 4 20 4 23 6 C15.67098882 7.80110167 8.52592433 9.3622098 1 10 C1.20625 9.0925 1.4125 8.185 1.625 7.25 C2.02486177 3.78453137 1.65475295 2.90529144 0 0 Z " fill="#FFFFFF" transform="translate(199,461)"/>
</svg>
