<?xml version="1.0" encoding="UTF-8"?>
<svg version="1.1" xmlns="http://www.w3.org/2000/svg" width="500" height="500">
<path d="M0 0 C3.1927769 2.70158045 3.89883745 4.54865937 4.8125 8.625 C5 12 5 12 4 15 C3.89307854 17.6204039 3.83823087 20.21881935 3.82421875 22.83984375 C3.80388255 24.46445163 3.78234856 26.08904485 3.75976562 27.71362305 C3.74856689 28.56677094 3.73736816 29.41991882 3.72583008 30.29891968 C3.45482783 48.95427417 2.77382987 67.8473007 -2 86 C-1.38358643 86.04970947 -0.76717285 86.09941895 -0.13208008 86.15063477 C7.37504674 86.79124475 14.83546949 87.69562641 22.30541992 88.67456055 C24.2990244 88.93573462 26.29302119 89.19371975 28.28710938 89.45117188 C38.9445865 90.83669658 38.9445865 90.83669658 43.6574707 91.56591797 C51.34742136 92.75568192 58.78325689 93.30987872 66.5625 93.25 C68.12194336 93.26160156 68.12194336 93.26160156 69.71289062 93.2734375 C70.71642578 93.27085937 71.71996094 93.26828125 72.75390625 93.265625 C73.64408447 93.26336914 74.5342627 93.26111328 75.45141602 93.25878906 C78.27173411 92.9724075 80.40799431 92.1166234 83 91 C85.38671875 90.734375 85.38671875 90.734375 87.6875 90.75 C88.45449219 90.74484375 89.22148437 90.7396875 90.01171875 90.734375 C92 91 92 91 94 93 C96.02171239 93.72865884 98.0605092 94.32996313 100.125 94.92578125 C102.80975576 96.46392257 103.03954377 98.08925265 104 101 C104.34187291 103.10835925 104.6074149 105.22982099 104.81640625 107.35546875 C104.94039795 108.60440918 105.06438965 109.85334961 105.19213867 111.14013672 C105.31649253 112.48917515 105.43992389 113.83829888 105.5625 115.1875 C105.65913437 116.21934418 105.65913437 116.21934418 105.75772095 117.27203369 C108.35619594 145.1732749 108.33313706 173.07571704 107.5625 201.0625 C107.5429425 201.78936005 107.52338501 202.51622009 107.50323486 203.2651062 C107.24873727 212.49829475 106.80034504 221.68920855 106.10131836 230.90014648 C105.75665274 233.91013345 105.75665274 233.91013345 107 236 C107.37264896 239.95007893 107.49409826 242.22106862 105.33984375 245.6171875 C102.6253032 248.3815777 100.98353649 248.92649578 97.25 249.8125 C90.96612363 251.53915071 85.53595588 254.03581552 79.82128906 257.0949707 C71.93970473 261.25559626 64.11499273 263.40030536 55.3125 264.625 C54.51650391 264.74617188 53.72050781 264.86734375 52.90039062 264.9921875 C41.24807598 266.6843942 29.51280078 267.10314619 17.75512886 267.36300468 C1.39736648 267.7410372 -14.86697686 268.79472365 -31.17370605 270.0987854 C-35.58011214 270.45066745 -39.98765775 270.7866306 -44.39550781 271.11987305 C-45.87979204 271.23224375 -47.36407549 271.34462466 -48.84835815 271.45701599 C-49.57482418 271.512012 -50.30129021 271.56700802 -51.04977036 271.62367058 C-58.81750783 272.21280341 -66.58524252 272.80260833 -74.35009766 273.42871094 C-93.85862822 274.99584965 -113.34060484 275.19906364 -132.90031433 275.24453354 C-134.95540563 275.2498839 -137.01047143 275.25799684 -139.06555176 275.26651001 C-158.54638384 275.3254786 -177.79152189 274.51955865 -197.16430664 272.44775391 C-201.8018701 271.97903061 -206.39994429 271.83359938 -211.05859375 271.7890625 C-212.76237889 271.76096305 -214.46615479 271.73229844 -216.16992188 271.703125 C-218.78864962 271.66229472 -221.40721091 271.62530852 -224.02612305 271.59863281 C-233.54843918 271.49384307 -242.91694021 271.10528601 -252.34765625 269.7109375 C-253.11573105 269.60399567 -253.88380585 269.49705383 -254.67515564 269.38687134 C-260.32089516 268.46129421 -265.64722779 266.74490091 -269.5 262.25 C-270 260 -270 260 -269.48046875 256.52734375 C-268.79417414 251.37145425 -269.31754342 246.46919891 -269.8125 241.3125 C-271.46476537 222.07031451 -272.20942734 202.77315756 -272.90960693 183.47644043 C-272.99196404 181.22015606 -273.07894012 178.9640945 -273.16650391 176.70800781 C-273.28794189 173.30509458 -273.37380007 169.90440743 -273.4375 166.5 C-273.48898193 165.106604 -273.48898193 165.106604 -273.54150391 163.68505859 C-273.57001546 159.46616379 -273.34839592 157.52560306 -270.96484375 153.9296875 C-267.25826309 151.51723579 -264.39350357 151.396805 -260.125 151.625 C-259.37178467 151.64498047 -258.61856934 151.66496094 -257.8425293 151.68554688 C-253.15767682 151.8312869 -248.486705 152.15684368 -243.8125 152.5 C-223.0993666 154.13281513 -223.0993666 154.13281513 -203 150 C-197.02009869 147.94159176 -191.48673787 147.64599461 -185.1875 147.5 C-177.89804584 147.32895691 -171.11443493 146.61819984 -164 145 C-164.06942307 144.32698349 -164.13884613 143.65396698 -164.21037292 142.96055603 C-164.8439408 136.48394761 -165.18408126 130.07221507 -165.23828125 123.56640625 C-165.246353 122.60838608 -165.25442474 121.65036591 -165.26274109 120.66331482 C-165.2764677 118.64738714 -165.28724 116.63143734 -165.29516602 114.61547852 C-165.30663092 112.59620119 -165.32699452 110.57695285 -165.35668945 108.55786133 C-165.52452591 97.09153725 -165.02782911 86.44848576 -162.48849487 75.24804688 C-160.55447019 66.55402927 -160.2076419 57.94004991 -159.9375 49.0625 C-159.20805897 26.41720136 -159.20805897 26.41720136 -156 18 C-153.00261059 16.00174039 -152.36652492 15.72449602 -149 15.75 C-148.319375 15.74484375 -147.63875 15.7396875 -146.9375 15.734375 C-145 16 -145 16 -142 18 C-140.04132997 18.33245665 -140.04132997 18.33245665 -137.89453125 18.34375 C-137.085 18.37218994 -136.27546875 18.40062988 -135.44140625 18.42993164 C-134.14009766 18.46461548 -134.14009766 18.46461548 -132.8125 18.5 C-126.63041832 18.7240124 -120.62230497 19.11397388 -114.5 20.0625 C-84.97650085 23.96520271 -57.73767297 18.6810351 -29.89453125 9.28125 C-29.07186768 9.00394043 -28.2492041 8.72663086 -27.40161133 8.44091797 C-25.84277377 7.91132204 -24.28642917 7.37430877 -22.7331543 6.82861328 C-19.26080895 5.63108642 -16.71865802 5 -13 5 C-12.67 4.01 -12.34 3.02 -12 2 C-8.53746 -0.6315304 -4.15673954 -0.81939835 0 0 Z " fill="#FFFFFF" transform="translate(326,148)"/>
<path d="M0 0 C3.1927769 2.70158045 3.89883745 4.54865937 4.8125 8.625 C5 12 5 12 4 15 C3.89307854 17.6204039 3.83823087 20.21881935 3.82421875 22.83984375 C3.80388255 24.46445163 3.78234856 26.08904485 3.75976562 27.71362305 C3.74856689 28.56677094 3.73736816 29.41991882 3.72583008 30.29891968 C3.45482783 48.95427417 2.77382987 67.8473007 -2 86 C-1.38358643 86.04970947 -0.76717285 86.09941895 -0.13208008 86.15063477 C7.37504674 86.79124475 14.83546949 87.69562641 22.30541992 88.67456055 C24.2990244 88.93573462 26.29302119 89.19371975 28.28710938 89.45117188 C38.9445865 90.83669658 38.9445865 90.83669658 43.6574707 91.56591797 C51.34742136 92.75568192 58.78325689 93.30987872 66.5625 93.25 C68.12194336 93.26160156 68.12194336 93.26160156 69.71289062 93.2734375 C70.71642578 93.27085937 71.71996094 93.26828125 72.75390625 93.265625 C73.64408447 93.26336914 74.5342627 93.26111328 75.45141602 93.25878906 C78.27173411 92.9724075 80.40799431 92.1166234 83 91 C85.38671875 90.734375 85.38671875 90.734375 87.6875 90.75 C88.45449219 90.74484375 89.22148437 90.7396875 90.01171875 90.734375 C92 91 92 91 94 93 C96.02171239 93.72865884 98.0605092 94.32996313 100.125 94.92578125 C102.80975576 96.46392257 103.03954377 98.08925265 104 101 C104.34187291 103.10835925 104.6074149 105.22982099 104.81640625 107.35546875 C104.94039795 108.60440918 105.06438965 109.85334961 105.19213867 111.14013672 C105.31649253 112.48917515 105.43992389 113.83829888 105.5625 115.1875 C105.65913437 116.21934418 105.65913437 116.21934418 105.75772095 117.27203369 C108.35619594 145.1732749 108.33313706 173.07571704 107.5625 201.0625 C107.5429425 201.78936005 107.52338501 202.51622009 107.50323486 203.2651062 C107.24873727 212.49829475 106.80034504 221.68920855 106.10131836 230.90014648 C105.75665274 233.91013345 105.75665274 233.91013345 107 236 C107.37264896 239.95007893 107.49409826 242.22106862 105.33984375 245.6171875 C102.6253032 248.3815777 100.98353649 248.92649578 97.25 249.8125 C90.96612363 251.53915071 85.53595588 254.03581552 79.82128906 257.0949707 C71.93970473 261.25559626 64.11499273 263.40030536 55.3125 264.625 C54.51650391 264.74617188 53.72050781 264.86734375 52.90039062 264.9921875 C41.24807598 266.6843942 29.51280078 267.10314619 17.75512886 267.36300468 C1.39736648 267.7410372 -14.86697686 268.79472365 -31.17370605 270.0987854 C-35.58011214 270.45066745 -39.98765775 270.7866306 -44.39550781 271.11987305 C-45.87979204 271.23224375 -47.36407549 271.34462466 -48.84835815 271.45701599 C-49.57482418 271.512012 -50.30129021 271.56700802 -51.04977036 271.62367058 C-58.81750783 272.21280341 -66.58524252 272.80260833 -74.35009766 273.42871094 C-93.85862822 274.99584965 -113.34060484 275.19906364 -132.90031433 275.24453354 C-134.95540563 275.2498839 -137.01047143 275.25799684 -139.06555176 275.26651001 C-158.54638384 275.3254786 -177.79152189 274.51955865 -197.16430664 272.44775391 C-201.8018701 271.97903061 -206.39994429 271.83359938 -211.05859375 271.7890625 C-212.76237889 271.76096305 -214.46615479 271.73229844 -216.16992188 271.703125 C-218.78864962 271.66229472 -221.40721091 271.62530852 -224.02612305 271.59863281 C-233.54843918 271.49384307 -242.91694021 271.10528601 -252.34765625 269.7109375 C-253.11573105 269.60399567 -253.88380585 269.49705383 -254.67515564 269.38687134 C-260.32089516 268.46129421 -265.64722779 266.74490091 -269.5 262.25 C-270 260 -270 260 -269.48046875 256.52734375 C-268.79417414 251.37145425 -269.31754342 246.46919891 -269.8125 241.3125 C-271.46476537 222.07031451 -272.20942734 202.77315756 -272.90960693 183.47644043 C-272.99196404 181.22015606 -273.07894012 178.9640945 -273.16650391 176.70800781 C-273.28794189 173.30509458 -273.37380007 169.90440743 -273.4375 166.5 C-273.48898193 165.106604 -273.48898193 165.106604 -273.54150391 163.68505859 C-273.57001546 159.46616379 -273.34839592 157.52560306 -270.96484375 153.9296875 C-267.25826309 151.51723579 -264.39350357 151.396805 -260.125 151.625 C-259.37178467 151.64498047 -258.61856934 151.66496094 -257.8425293 151.68554688 C-253.15767682 151.8312869 -248.486705 152.15684368 -243.8125 152.5 C-223.0993666 154.13281513 -223.0993666 154.13281513 -203 150 C-197.02009869 147.94159176 -191.48673787 147.64599461 -185.1875 147.5 C-177.89804584 147.32895691 -171.11443493 146.61819984 -164 145 C-164.06942307 144.32698349 -164.13884613 143.65396698 -164.21037292 142.96055603 C-164.8439408 136.48394761 -165.18408126 130.07221507 -165.23828125 123.56640625 C-165.246353 122.60838608 -165.25442474 121.65036591 -165.26274109 120.66331482 C-165.2764677 118.64738714 -165.28724 116.63143734 -165.29516602 114.61547852 C-165.30663092 112.59620119 -165.32699452 110.57695285 -165.35668945 108.55786133 C-165.52452591 97.09153725 -165.02782911 86.44848576 -162.48849487 75.24804688 C-160.55447019 66.55402927 -160.2076419 57.94004991 -159.9375 49.0625 C-159.20805897 26.41720136 -159.20805897 26.41720136 -156 18 C-153.00261059 16.00174039 -152.36652492 15.72449602 -149 15.75 C-148.319375 15.74484375 -147.63875 15.7396875 -146.9375 15.734375 C-145 16 -145 16 -142 18 C-140.04132997 18.33245665 -140.04132997 18.33245665 -137.89453125 18.34375 C-137.085 18.37218994 -136.27546875 18.40062988 -135.44140625 18.42993164 C-134.14009766 18.46461548 -134.14009766 18.46461548 -132.8125 18.5 C-126.63041832 18.7240124 -120.62230497 19.11397388 -114.5 20.0625 C-84.97650085 23.96520271 -57.73767297 18.6810351 -29.89453125 9.28125 C-29.07186768 9.00394043 -28.2492041 8.72663086 -27.40161133 8.44091797 C-25.84277377 7.91132204 -24.28642917 7.37430877 -22.7331543 6.82861328 C-19.26080895 5.63108642 -16.71865802 5 -13 5 C-12.67 4.01 -12.34 3.02 -12 2 C-8.53746 -0.6315304 -4.15673954 -0.81939835 0 0 Z M-20.70703125 24.57421875 C-34.00259748 29.18082663 -47.205952 33.19443092 -61 36 C-62.18770996 36.24556641 -62.18770996 36.24556641 -63.39941406 36.49609375 C-81.64353023 40.15247148 -99.44411425 39.69169129 -117.82275391 37.15576172 C-126.20067811 36.00255355 -134.56068361 35.44978406 -143 35 C-143.03963867 35.88969482 -143.07927734 36.77938965 -143.12011719 37.69604492 C-143.86132018 53.56536473 -144.62893764 69.13340484 -148.09765625 84.6875 C-149.85897541 92.7097865 -150.16560981 100.61982092 -150.125 108.8125 C-150.11992432 110.29907104 -150.11992432 110.29907104 -150.11474609 111.81567383 C-150.06822885 118.61097758 -149.91594119 125.3982425 -149.625 132.1875 C-149.57883545 133.43333862 -149.57883545 133.43333862 -149.53173828 134.7043457 C-149.33509391 138.6123466 -149.03946871 141.630443 -147 145 C-146.41832255 148.90554862 -146.56922202 150.41636532 -148.9375 153.625 C-155.52701039 158.73523255 -162.59784383 160.56461031 -170.69140625 162.19140625 C-174.10350478 162.94779759 -174.10350478 162.94779759 -177.63671875 164.421875 C-201.8073082 173.70459575 -229.81533504 171.38985549 -255 171 C-255 196.41 -255 221.82 -255 248 C-242.27612854 248.85058858 -242.27612854 248.85058858 -229.59375 249.02734375 C-227.94320116 249.0130549 -226.29264743 248.99932306 -224.64208984 248.98608398 C-223.80361511 248.97777557 -222.96514038 248.96946716 -222.10125732 248.96090698 C-208.4861244 248.83839347 -194.95895864 248.98526619 -181.375 249.9375 C-180.07401367 250.02733154 -178.77302734 250.11716309 -177.43261719 250.2097168 C-174.86161902 250.38850015 -172.29065471 250.56777111 -169.71972656 250.74755859 C-135.28013239 253.08482168 -100.79102802 251.46627198 -66.4140625 248.75 C-65.35146493 248.66637962 -65.35146493 248.66637962 -64.26740074 248.58106995 C-60.64205921 248.29567273 -57.0168113 248.00909264 -53.39157104 247.72241211 C-52.30497255 247.63653336 -52.30497255 247.63653336 -51.19642258 247.54891968 C-49.73316654 247.43305444 -48.2699426 247.31678303 -46.80675125 247.20010376 C-22.28736885 245.24914913 1.99475411 244.54259422 26.59179688 245.00927734 C44.73204366 245.32036587 60.50880679 244.61827122 77.0625 236.5625 C78.11759766 236.08490234 79.17269531 235.60730469 80.25976562 235.11523438 C85.44815921 233.11240654 85.44815921 233.11240654 88.77709961 229.10205078 C89.00482629 226.95448592 89.1930902 224.8340552 89.28125 222.67578125 C89.33647827 221.40142212 89.33647827 221.40142212 89.39282227 220.10131836 C89.42819092 219.1810083 89.46355957 218.26069824 89.5 217.3125 C89.53988037 216.33482666 89.57976074 215.35715332 89.62084961 214.34985352 C89.70544013 212.27202672 89.78865792 210.19414365 89.87060547 208.11621094 C89.9928252 205.17279073 90.13535852 202.23119146 90.28515625 199.2890625 C91.81135578 168.11927066 91.03398151 137.12370376 89 106 C87.09686035 106.23662354 87.09686035 106.23662354 85.15527344 106.47802734 C84.44159607 106.56676117 83.7279187 106.655495 82.99261475 106.74691772 C81.49873727 106.93665531 80.00664876 107.14056857 78.515625 107.3515625 C51.75748918 110.58099269 21.05982938 103.77970022 -4.2578125 95.23828125 C-6.35153511 94.756004 -6.35153511 94.756004 -9 97 C-12.4103976 97.21314985 -14.74531799 97.084894 -18 96 C-20.22056953 89.33829141 -18.5267819 83.10808732 -17.22143555 76.38916016 C-13.78858805 58.47794437 -13.43486691 41.18511349 -14 23 C-16.51655488 23 -18.32841069 23.73655095 -20.70703125 24.57421875 Z " fill="#000000" transform="translate(326,148)"/>
<path d="M0 0 C2.20186088 3.30279131 2.20044366 3.79197351 1.6875 7.5 C1.58824219 8.2734375 1.48898438 9.046875 1.38671875 9.84375 C1 12 1 12 0 15 C1.6396875 15.309375 1.6396875 15.309375 3.3125 15.625 C10.39774269 17.42782866 17.72253028 20.66441099 22.125 26.6875 C25.08019632 31.90834683 25.65750997 36.111851 25 42 C23.14500417 47.05907954 21.25283406 49.19659011 16.5625 51.8125 C6.2445818 56.32566134 -4.48159366 56.21949714 -15.5625 56.375 C-16.7175 56.40118408 -17.8725 56.42736816 -19.0625 56.4543457 C-20.70412109 56.45760864 -20.70412109 56.45760864 -22.37890625 56.4609375 C-23.3644751 56.46915527 -24.35004395 56.47737305 -25.36547852 56.48583984 C-28.7409249 55.86336386 -29.91616565 54.6777014 -32 52 C-32.5 49 -32.5 49 -32 46 C-29.73755938 42.94350624 -28.47906779 42.09037074 -24.70361328 41.37817383 C-23.42212402 41.32169678 -22.14063477 41.26521973 -20.8203125 41.20703125 C-20.12992889 41.17067062 -19.43954529 41.13431 -18.72824097 41.09684753 C-16.527595 40.98434398 -14.32686175 40.89755769 -12.125 40.8125 C-9.93082225 40.71140472 -7.73698151 40.60500353 -5.54318237 40.49601746 C-3.54759872 40.39947943 -1.55138661 40.31620207 0.44482422 40.23364258 C3.69467379 40.02006573 6.80154818 39.59982524 10 39 C7.47495289 33.80962539 4.41252563 32.2512594 -0.875 30.3125 C-5.87470221 29.57724968 -9.90986586 29.64893985 -14.6875 31.1875 C-18 32 -18 32 -20.8125 30.8125 C-23.68697571 28.43079155 -24.89851984 26.79492791 -25.375 23.0625 C-25 20 -25 20 -23.25 17.6875 C-21.06388127 16.04791095 -19.67438062 15.38205437 -17 15 C-17 14.34 -17 13.68 -17 13 C-17.60585937 13.0721875 -18.21171875 13.144375 -18.8359375 13.21875 C-23.36423365 13.72034588 -27.88235987 14.11582798 -32.4375 14.25 C-33.24058594 14.27578125 -34.04367188 14.3015625 -34.87109375 14.328125 C-37.52933288 13.91841475 -38.35257838 13.07828574 -40 11 C-41.24152638 8.33958633 -41.0809426 7.25528052 -40.1875 4.4375 C-34.92081864 -1.4310878 -24.78447923 -1.66855833 -17.3125 -2.375 C-16.41466797 -2.48199219 -15.51683594 -2.58898437 -14.59179688 -2.69921875 C-8.79098589 -3.26867565 -5.08496414 -2.94568041 0 0 Z " fill="#000000" transform="translate(133,334)"/>
<path d="M0 0 C2.69105198 2.17574416 4.45532928 3.91065856 6 7 C6.07295719 16.51361762 3.89611269 25.01531552 1 34 C2.08539063 33.65066406 3.17078125 33.30132812 4.2890625 32.94140625 C5.73430661 32.48155585 7.17962297 32.02193245 8.625 31.5625 C9.33785156 31.33240234 10.05070312 31.10230469 10.78515625 30.86523438 C21.21184593 27.5650436 21.21184593 27.5650436 25.3125 28.5625 C27 30 27 30 27.9375 32.875 C28.01144119 36.57205955 27.42591586 37.32554934 25 40 C17.16556785 45.01471196 6.81915362 45.48942164 -2.1875 46.67456055 C-4.09229966 46.92860594 -4.09229966 46.92860594 -6 48 C-9.5 48.1875 -9.5 48.1875 -13 48 C-15 46 -15 46 -15.375 43.125 C-15 40 -15 40 -13.14453125 38.35546875 C-10.09886843 35.01023254 -9.40405444 31.5080901 -8.3125 27.1875 C-8.10044922 26.40568359 -7.88839844 25.62386719 -7.66992188 24.81835938 C-6.45415377 20.22758831 -5.57268646 15.7136501 -5 11 C-5.70125 11.309375 -6.4025 11.61875 -7.125 11.9375 C-10.13001852 13.04805032 -12.80852311 13.71631317 -16 14 C-16.66 13.34 -17.32 12.68 -18 12 C-18 8.625 -18 8.625 -17 5 C-11.92190279 0.80505013 -6.61152506 -1.1856926 0 0 Z " fill="#000000" transform="translate(364,270)"/>
<path d="M0 0 C2.875 0.9375 2.875 0.9375 4.875 3.9375 C5.18205457 6.6517465 5.38798053 9.27772101 5.5 12 C5.53649658 12.76207764 5.57299316 13.52415527 5.6105957 14.30932617 C5.71072167 16.51842856 5.79547999 18.72757148 5.875 20.9375 C5.91753906 21.99453125 5.96007812 23.0515625 6.00390625 24.140625 C6.14514429 30.43042588 6.14514429 30.43042588 4.921875 32.7265625 C3.17459195 36.41671998 3.11867493 40.51088997 2.75195312 44.53710938 C2.43808793 47.38451706 2.18057904 49.50899681 0.49609375 51.87109375 C-2.15512985 53.61515169 -4.05565832 53.44905695 -7.125 52.9375 C-10.513465 48.85376495 -10.41338035 45.15479802 -10.015625 40.109375 C-9.96935974 39.36093323 -9.92309448 38.61249146 -9.87542725 37.84136963 C-9.72398264 35.45544959 -9.54961569 33.07182421 -9.375 30.6875 C-9.27197648 29.10035458 -9.17039987 27.51311453 -9.0703125 25.92578125 C-7.70885572 4.84572002 -7.70885572 4.84572002 -5.4375 1.3125 C-3.125 -0.0625 -3.125 -0.0625 0 0 Z " fill="#000000" transform="translate(246.125,194.0625)"/>
</svg>
