<?xml version="1.0" encoding="UTF-8"?>
<svg version="1.1" xmlns="http://www.w3.org/2000/svg" width="500" height="500">
<path d="M0 0 C2.98825406 2.51285001 4.83335507 4.92151282 6.75 8.3125 C6.75 8.9725 6.75 9.6325 6.75 10.3125 C7.25660156 10.42851562 7.76320313 10.54453125 8.28515625 10.6640625 C10.93216555 11.36042311 13.52673786 12.1869495 16.1315918 13.02563477 C23.03072464 15.24669511 29.84074153 17.11244547 36.98046875 18.44140625 C41.88646401 19.98447669 44.91104706 23.12877988 47.75 27.3125 C48.63042969 26.96316406 49.51085937 26.61382812 50.41796875 26.25390625 C52.16013672 25.57134766 52.16013672 25.57134766 53.9375 24.875 C55.08605469 24.42253906 56.23460937 23.97007813 57.41796875 23.50390625 C66.49060623 20.25987995 79.73322652 19.10137656 88.8125 22.875 C90.80078125 23.99609375 90.80078125 23.99609375 92.75 25.3125 C93.52730469 25.79847656 94.30460937 26.28445312 95.10546875 26.78515625 C102.08394949 31.60064948 106.06776486 37.98543607 107.75 46.3125 C108.23688666 53.61579995 106.94009576 60.41793126 105.50390625 67.54296875 C105.13072266 69.40888672 105.13072266 69.40888672 104.75 71.3125 C104.44964844 72.23675781 104.14929688 73.16101563 103.83984375 74.11328125 C103.73753336 77.75642074 104.52845215 79.16795541 106.15625 82.37890625 C109.26943934 88.75296738 109.43150277 94.24976829 109.25 101.25 C109.25257813 102.33990234 109.25515625 103.42980469 109.2578125 104.55273438 C109.14572325 113.98504474 107.9881537 123.76144207 102.8125 131.875 C102.32910156 132.66003906 101.84570312 133.44507813 101.34765625 134.25390625 C99.68290313 136.39895489 97.9909586 137.79755391 95.75 139.3125 C96.34167969 139.90417969 96.93335938 140.49585938 97.54296875 141.10546875 C99.17513138 142.73763138 100.80525798 144.37183196 102.43359375 146.0078125 C104.0937196 147.65953974 105.78669026 149.27850683 107.5 150.875 C113.20543224 157.05588493 116.94888559 163.69996495 116.69091797 172.27685547 C115.85461685 186.10514069 113.1312701 198.0337051 104.75 209.3125 C104.09 210.3025 103.43 211.2925 102.75 212.3125 C101.76 212.6425 100.77 212.9725 99.75 213.3125 C100.14832031 213.92996094 100.54664063 214.54742187 100.95703125 215.18359375 C101.48683594 216.03050781 102.01664062 216.87742188 102.5625 217.75 C103.08457031 218.57371094 103.60664063 219.39742187 104.14453125 220.24609375 C107.83947362 227.30334378 109.26328629 233.752728 109.125 241.6875 C109.11484863 242.54601562 109.10469727 243.40453125 109.09423828 244.2890625 C108.78694119 257.32417643 107.55519671 269.71370375 100.95703125 281.16015625 C99.5869555 283.19195417 99.5869555 283.19195417 99.75 285.3125 C101.40448684 286.947189 101.40448684 286.947189 103.5 288.625 C109.08713147 293.38440829 114.3385528 298.87379176 115.75 306.3125 C116.70448852 321.58431637 113.59883937 334.21422183 105.75 347.3125 C104.42155062 348.65069946 103.08891206 349.98476883 101.75 351.3125 C100.85572692 353.39014306 100.26937565 355.43129293 99.65625 357.60546875 C98.75 359.3125 98.75 359.3125 96.65625 360.05078125 C96.0271875 360.13714844 95.398125 360.22351563 94.75 360.3125 C95.08773438 360.89257812 95.42546875 361.47265625 95.7734375 362.0703125 C96.21945312 362.85148437 96.66546875 363.63265625 97.125 364.4375 C97.56585938 365.20320313 98.00671875 365.96890625 98.4609375 366.7578125 C101.38158998 372.54601469 102.09032509 377.50305449 102.0625 383.875 C102.07861328 384.61685547 102.09472656 385.35871094 102.11132812 386.12304688 C102.1162004 391.59461087 101.02632119 394.80069731 97.27734375 398.9375 C95.4893221 400.48389711 93.65663447 401.91454536 91.75 403.3125 C91.10933594 403.80492187 90.46867187 404.29734375 89.80859375 404.8046875 C80.19572632 410.89226365 65.53797459 409.49152798 54.75 407.3125 C54.64816406 407.910625 54.54632813 408.50875 54.44140625 409.125 C52.87390298 414.08433237 47.42043446 417.12246835 43 419.4375 C41.59112103 420.07986244 40.17373206 420.7037665 38.75 421.3125 C37.53183594 421.87324219 37.53183594 421.87324219 36.2890625 422.4453125 C24.7325593 427.29158804 13.70357768 426.193023 2.2109375 421.7890625 C-3.92364932 419.17182343 -9.20942981 415.75220958 -14.64453125 411.9296875 C-15.23153809 411.5181543 -15.81854492 411.10662109 -16.42333984 410.68261719 C-17.57964358 409.86651574 -18.72999571 409.04190076 -19.87353516 408.20800781 C-23.20989918 405.79298601 -23.20989918 405.79298601 -27.25 405.3125 C-29.18929115 407.35510194 -31.00239547 409.41127805 -32.8125 411.5625 C-37.689171 417.1217857 -41.89564725 420.55385043 -49.25 422.3125 C-49.89839844 422.49683594 -50.54679688 422.68117188 -51.21484375 422.87109375 C-59.66569471 424.70400384 -67.62159591 423.17170738 -75.25 419.3125 C-80.0225348 416.20530589 -83.96726711 412.99039437 -87.25 408.3125 C-87.600625 408.786875 -87.95125 409.26125 -88.3125 409.75 C-90.25 411.3125 -90.25 411.3125 -93.375 411.5 C-98.30393834 412.53348707 -100.36923063 414.79127425 -103.84375 418.3046875 C-109.28155277 422.84207488 -114.73672695 423.84645282 -121.5625 423.75 C-122.68180908 423.73972778 -122.68180908 423.73972778 -123.82373047 423.72924805 C-129.93377419 423.55227021 -134.9090411 422.39034072 -140.25 419.3125 C-140.90355469 418.93867188 -141.55710937 418.56484375 -142.23046875 418.1796875 C-146.72549837 415.28523346 -149.36139133 411.77671339 -152.25 407.3125 C-156.55032952 408.60006179 -160.06780954 410.25992714 -163.875 412.625 C-176.06804057 419.84436518 -187.31893685 424.22578892 -201.55078125 421.16015625 C-212.46539292 417.73255751 -219.32369767 410.3333721 -224.5 400.4375 C-230.80072543 387.09676402 -232.65597042 373.54529956 -230.5 358.9375 C-229.94734396 354.0940839 -231.3500773 352.25961701 -234.25 348.3125 C-237.59872876 340.09332266 -237.68723787 331.65607417 -237.58618164 322.93286133 C-237.5624977 320.74978797 -237.56565515 318.56793602 -237.57226562 316.38476562 C-237.55590659 308.18382578 -237.47627346 299.96355503 -234.42871094 292.2277832 C-233.50616605 289.93613296 -233.50616605 289.93613296 -233.25 286.3125 C-234.71782344 284.11076483 -236.42109969 282.39161451 -238.29296875 280.5234375 C-244.18330486 273.86888612 -246.62540363 264.80173418 -246.453125 256.05859375 C-245.43803631 242.33537555 -240.94342159 226.85263238 -233.25 215.3125 C-233.91 215.27125 -234.57 215.23 -235.25 215.1875 C-240.84371538 213.55599968 -244.92093904 209.84603188 -248.6875 205.5 C-252.79227289 197.12626331 -251.16826168 188.91112389 -248.25 180.3125 C-246.22369812 175.81000262 -243.78083178 171.54904305 -241.25 167.3125 C-240.59 167.3125 -239.93 167.3125 -239.25 167.3125 C-238.981875 166.755625 -238.71375 166.19875 -238.4375 165.625 C-237.14100504 163.10024666 -235.82523677 160.67535516 -234.25 158.3125 C-233.59 158.3125 -232.93 158.3125 -232.25 158.3125 C-232.8996875 157.18328125 -232.8996875 157.18328125 -233.5625 156.03125 C-239.33629989 145.01826132 -240.0492108 134.81903004 -236.65039062 122.9465332 C-234.6400535 116.54348871 -232.16438662 110.35715374 -229.25 104.3125 C-230.301875 104.0340625 -230.301875 104.0340625 -231.375 103.75 C-237.10872676 100.88313662 -241.01850855 95.22595235 -243.25 89.3125 C-247.19108464 75.17358054 -244.33080847 61.35889066 -238.25 48.3125 C-237.72148437 47.17425781 -237.19296875 46.03601562 -236.6484375 44.86328125 C-232.77830877 37.11418789 -228.69898557 30.60924356 -220.48828125 27.1484375 C-216.7171547 26.17495007 -213.39123909 26.08270392 -209.5 26.125 C-207.52773437 26.13466797 -207.52773437 26.13466797 -205.515625 26.14453125 C-202.25 26.3125 -202.25 26.3125 -200.25 27.3125 C-199.79625 26.52875 -199.3425 25.745 -198.875 24.9375 C-192.05278999 14.80027245 -182.1022009 6.5835901 -170.25 3.3125 C-160.89877593 2.32542635 -153.01314019 2.71449248 -145.25 8.3125 C-139.02881533 13.37625496 -134.22448142 20.07465822 -129.25 26.3125 C-128.82589844 25.879375 -128.40179688 25.44625 -127.96484375 25 C-124.74378514 21.94176414 -123.00342197 20.4255133 -118.5 19.75 C-115.22622093 20.31661561 -114.13553061 20.65057444 -112.25 23.3125 C-107.15105574 21.33963746 -102.24896121 18.9883094 -97.30859375 16.65234375 C-86.13327062 11.75689569 -70.281551 12.95460682 -59.0703125 17.0234375 C-54.55536816 19.08705472 -50.35768061 21.53077498 -46.25 24.3125 C-45.83814453 23.20455078 -45.83814453 23.20455078 -45.41796875 22.07421875 C-40.71197487 10.94666801 -29.95056718 3.58260387 -19.11328125 -1.01953125 C-12.18453316 -3.13584343 -6.57264306 -3.41271851 0 0 Z " fill="#000000" transform="translate(334.25,11.6875)"/>
<path d="M0 0 C-0.03029297 0.61367432 -0.06058594 1.22734863 -0.09179688 1.85961914 C-0.45531866 9.52084083 -0.72450997 17.18388455 -0.9395752 24.85058594 C-0.97978629 26.28096377 -1.02136668 27.71130378 -1.06433105 29.14160156 C-1.66910655 49.67378774 -0.89329502 69.76040178 1.3125 90.1875 C5.36535371 127.94394442 7.27325046 165.52363282 7.36791611 203.48882294 C7.37489709 205.84033491 7.38655322 208.19178565 7.39907837 210.54327393 C7.47954194 227.95429927 6.86941793 244.76831033 4 262 C-7.88 262 -19.76 262 -32 262 C-32.06058594 258.19210937 -32.12117187 254.38421875 -32.18359375 250.4609375 C-32.24558407 246.73077808 -32.30888801 243.00064306 -32.37231445 239.27050781 C-32.41535168 236.69859028 -32.45704536 234.12664987 -32.49731445 231.5546875 C-32.55578192 227.83586766 -32.61924666 224.11715972 -32.68359375 220.3984375 C-32.70866249 218.7022377 -32.70866249 218.7022377 -32.73423767 216.97177124 C-33.15199366 193.9303294 -36.62313807 176.84261033 -48.9609375 157.25 C-50.26878864 155.16545566 -51.54776189 153.06234646 -52.7890625 150.9375 C-56.40346908 144.86397662 -59.95425985 140.72166341 -66 137 C-65.52691406 136.15824219 -65.05382812 135.31648437 -64.56640625 134.44921875 C-59.78732354 125.60223362 -56.24625496 116.53578157 -53.0625 107 C-52.67328369 105.84330811 -52.28406738 104.68661621 -51.88305664 103.49487305 C-46.11561887 85.79241729 -46.32167966 67.19943757 -54 50 C-55.26904914 47.94929016 -56.62905029 45.98551338 -58 44 C-58 43.34 -58 42.68 -58 42 C-58.58910156 41.72800781 -59.17820312 41.45601562 -59.78515625 41.17578125 C-61.94966045 40.02672347 -63.57091826 38.7630779 -65.4375 37.1875 C-77.1410507 28.21184458 -91.85714166 26.72615403 -106.08056641 28.21826172 C-119.55732448 30.06026877 -132.90898906 33.48198022 -143 43 C-143.56364258 43.52948242 -144.12728516 44.05896484 -144.70800781 44.60449219 C-157.97486378 57.17345269 -171.42845883 71.24804082 -173.3359375 90.3671875 C-173.55483484 110.02416876 -167.18333964 126.53817985 -156.65795898 142.94702148 C-156.18688721 143.68766846 -155.71581543 144.42831543 -155.23046875 145.19140625 C-154.80145264 145.85342041 -154.37243652 146.51543457 -153.93041992 147.19750977 C-153 149 -153 149 -153 152 C-154.21429688 152.17402344 -155.42859375 152.34804687 -156.6796875 152.52734375 C-160.13922664 153.40403454 -161.73559577 154.36950068 -163.7578125 157.31640625 C-164.57826679 158.71380787 -165.36595822 160.13081145 -166.125 161.5625 C-166.54821533 162.32626953 -166.97143066 163.09003906 -167.4074707 163.87695312 C-183.55450748 193.95301014 -189.48455456 228.91968294 -180.1875 261.875 C-179.83341064 263.18742676 -179.83341064 263.18742676 -179.47216797 264.52636719 C-178.08653918 269.37478481 -178.08653918 269.37478481 -174.48828125 272.6953125 C-171.7511696 273.30479703 -171.7511696 273.30479703 -169 271 C-167.76569809 265.25202541 -169.29399093 259.19054233 -170.5 253.5625 C-171.84815441 247.1603639 -172.44043878 241.51341193 -172 235 C-171.95359375 233.79214844 -171.9071875 232.58429688 -171.859375 231.33984375 C-170.51064944 208.95099951 -161.60168296 184.65374565 -150.19921875 165.5 C-148.83996525 162.66637708 -148.38374296 160.10606069 -148 157 C-146.35 156.67 -144.7 156.34 -143 156 C-142.47376822 148.179611 -143.31444561 142.87670514 -147 136 C-148.04613166 133.93976112 -149.087592 131.87714533 -150.125 129.8125 C-150.62257813 128.84957031 -151.12015625 127.88664062 -151.6328125 126.89453125 C-154.3621526 121.11612836 -155.60127892 115.38223395 -156.625 109.125 C-156.82609375 107.97837891 -156.82609375 107.97837891 -157.03125 106.80859375 C-159.02624643 94.81825809 -157.2200799 85.09142815 -150.41796875 74.8359375 C-148.39089229 72.21134814 -146.09769155 69.94416831 -143.69921875 67.66015625 C-142.11629814 66.11362462 -140.70893961 64.52689816 -139.3125 62.8125 C-137.3094964 60.37641454 -135.34753632 58.10468773 -133 56 C-132.34 56 -131.68 56 -131 56 C-131 55.34 -131 54.68 -131 54 C-118.49422276 46.52018524 -103.23335407 41.68558166 -88.54296875 44.46484375 C-80.08271444 46.66113097 -73.08443934 50.80583479 -68 58 C-61.9878925 70.98912115 -62.36114489 85.70194867 -67 99 C-67.47935857 100.48608015 -67.95565292 101.97315053 -68.4296875 103.4609375 C-73.57622619 119.41391999 -73.57622619 119.41391999 -78.1875 126.375 C-80.51924175 130.45102919 -80.68597331 133.35062535 -80 138 C-77.8874873 140.07606449 -77.8874873 140.07606449 -75 142 C-66.56248356 151.65408858 -60.12645714 162.80404949 -54.06542969 174.04345703 C-53.38456493 175.29378934 -52.67891437 176.53114027 -51.94238281 177.74951172 C-45.60998915 188.8898339 -45.51156734 202.58965856 -45.3125 215.0625 C-45.27949654 216.52915163 -45.24570947 217.99578581 -45.21118164 219.46240234 C-44.89354084 233.97263659 -44.89599508 248.48731416 -45 263 C-45.93344238 263.15033691 -45.93344238 263.15033691 -46.88574219 263.30371094 C-49.84112929 263.7819956 -52.79568867 264.26511341 -55.75 264.75 C-56.85472656 264.93119385 -57.95945312 265.1123877 -59.09765625 265.29907227 C-64.65137119 266.22429107 -70.16865746 267.20766094 -75.66436768 268.43092346 C-109.30473917 275.72720154 -142.88799242 276.69657419 -177.17565918 276.34332275 C-182.82273504 276.29096397 -188.46993583 276.26908727 -194.1171875 276.24414062 C-205.07843494 276.19147968 -216.03915557 276.10685399 -227 276 C-227.93458763 251.7541862 -228.18803649 227.52926138 -228.18530273 203.2668457 C-228.18520025 198.27807868 -228.1989968 193.28945118 -228.21607494 188.30071735 C-228.22731793 184.36670831 -228.22921843 180.43273217 -228.22869301 176.49870872 C-228.22984912 174.66081436 -228.23413176 172.82291844 -228.24202538 170.98504066 C-228.28403686 160.22466639 -227.8063303 149.66115157 -226.74271679 138.95170498 C-226.00228057 131.42429477 -225.63086017 123.94087395 -225.47927856 116.38085556 C-225.43529806 114.19526294 -225.38152011 112.01006435 -225.32592773 109.82473755 C-225.20924917 105.17499752 -225.10386669 100.52504132 -225 95.875 C-224.86243374 89.74718006 -224.71935336 83.61954692 -224.5625 77.4921875 C-224.54352032 76.74816618 -224.52454063 76.00414486 -224.50498581 75.23757744 C-224.14867469 61.73470611 -223.31233271 48.30660636 -222.22207642 34.8419342 C-221.89268036 30.62661981 -221.6276845 26.40801236 -221.375 22.1875 C-221.26285156 20.32158203 -221.26285156 20.32158203 -221.1484375 18.41796875 C-220.99742673 14.94074698 -220.97326474 11.48003961 -221 8 C-220.01 8.33 -219.02 8.66 -218 9 C-213.54753691 9.25225819 -209.0838985 9.19407909 -204.625 9.1875 C-203.93672119 9.18722809 -203.24844238 9.18695618 -202.53930664 9.18667603 C-172.46582173 9.13323599 -142.37092249 7.58875694 -112.47216797 4.35717773 C-111.32635254 4.23930908 -110.18053711 4.12144043 -109 4 C-108.23932724 3.91242432 -107.47865448 3.82484863 -106.69493103 3.73461914 C-99.32476676 2.9558183 -92.00870923 2.90694218 -84.60682106 2.98596573 C-82.39402122 3.00845283 -80.18131289 3.0222318 -77.96842957 3.03366089 C-71.68333661 3.06678286 -65.39839035 3.10785196 -59.11352539 3.17138672 C-41.22334026 3.34637552 -23.80651939 3.1980213 -6.08891296 0.27340698 C-4 0 -4 0 0 0 Z " fill="#FFFFFF" transform="translate(377,99)"/>
<path d="M0 0 C1.59765625 1.7421875 1.59765625 1.7421875 3.0625 3.875 C5.68894162 7.74679809 5.68894162 7.74679809 9 11 C11.05363606 11.3606631 11.05363606 11.3606631 13.1875 11.1875 C15.0746875 11.0946875 15.0746875 11.0946875 17 11 C17.33 10.01 17.66 9.02 18 8 C18.55945313 8.17015625 19.11890625 8.3403125 19.6953125 8.515625 C20.49710938 8.75796875 21.29890625 9.0003125 22.125 9.25 C23.47658203 9.66378906 23.47658203 9.66378906 24.85546875 10.0859375 C27.11560755 10.74292195 29.39165455 11.346065 31.67578125 11.9140625 C32.91714844 12.23117188 34.15851563 12.54828125 35.4375 12.875 C36.61183594 13.16117188 37.78617187 13.44734375 38.99609375 13.7421875 C42.55873243 15.23395558 43.53003053 16.47428376 45 20 C44.1875 22 44.1875 22 43 24 C42.66625723 26.58416247 42.66625723 26.58416247 43 29 C44.84500955 31.21740981 44.84500955 31.21740981 47.5625 31.5 C51.82508157 30.87998813 53.97714571 29.13490155 57.42578125 26.6640625 C67.1557155 20.37430227 77.53147838 17.81823196 89 19 C95.17860923 21.06547167 99.01113349 24.27133919 102 30 C104.84866327 38.54598981 103.40562166 50.47819875 101 59 C98.9609375 60.75390625 98.9609375 60.75390625 97 62 C96.16574215 64.41174293 96.16574215 64.41174293 97 67 C99.59455353 69.35777332 99.59455353 69.35777332 101.4921875 70.59375 C104.86046656 73.73515016 105.13450783 77.45042804 105.3359375 81.84375 C105.36561825 83.728978 105.37786109 85.61454054 105.375 87.5 C105.37483887 88.4801709 105.37467773 89.4603418 105.37451172 90.47021484 C105.24041327 99.02569575 103.88697358 106.46831636 99.8828125 114.140625 C98.60327532 116.83557941 98.7447172 119.06424778 99 122 C99.66 122.66 100.32 123.32 101 124 C98.03 124.33 95.06 124.66 92 125 C91.54608207 129.05368183 91.54608207 129.05368183 93.27734375 132.5 C95.08933212 134.07778579 96.91207629 135.63996823 98.75 137.1875 C111.55943308 148.34257825 111.55943308 148.34257825 112.30078125 156.1796875 C112.33716005 167.65113477 111.71550543 179.27409559 105 189 C104.34 189 103.68 189 103 189 C102.34 190.32 101.68 191.64 101 193 C100.2575 192.360625 99.515 191.72125 98.75 191.0625 C96.27215537 189.20411653 95.01400561 188.30140056 92 188 C91.01 188.33 90.02 188.66 89 189 C88.26665571 192.97754128 88.26665571 192.97754128 88 197 C88.85464844 197.3403125 88.85464844 197.3403125 89.7265625 197.6875 C97.47255526 202.15941334 104.57482927 213.47177879 107.671875 221.80859375 C109.79516333 235.98912655 105.04924938 249.00030688 98 261 C95.36 261 92.72 261 90 261 C90.41908605 266.34334719 91.31180983 269.10691038 95 273 C95.721875 273.763125 96.44375 274.52625 97.1875 275.3125 C98.80724185 276.86025332 100.45709668 278.38009473 102.1796875 279.8125 C108.10583883 284.78658112 112.38150427 288.87223893 113.3359375 296.78515625 C113.613046 305.04512101 112.95061625 314.17890608 107.125 320.5 C106.60808594 321.03367187 106.09117187 321.56734375 105.55859375 322.1171875 C101.43240606 327.10170495 99.06171967 333.67534732 98 340 C95.69 339.67 93.38 339.34 91 339 C90.53134993 344.81721199 91.85686108 348.33289501 94.9375 353.125 C98.44176496 358.70519395 100.1477466 363.0057391 100.125 369.625 C100.12757813 370.38039063 100.13015625 371.13578125 100.1328125 371.9140625 C100 374 100 374 99 377 C90.11154602 383.80623928 82.33269698 386.40392287 71 385 C69.32850376 384.69179679 67.65941679 384.36772923 66 384 C65.34 382.02 64.68 380.04 64 378 C61.12635209 377.58253392 61.12635209 377.58253392 58 378 C56.23498025 380.172332 55.26106577 382.355778 54.21484375 384.9375 C51.12098877 392.00916854 46.94891619 394.43439434 39.90625 397.2265625 C28.59757592 401.11061645 20.80252683 399.80112304 10 395 C6.54443994 393.1777754 3.27699163 391.12423429 0 389 C-1.82985271 387.82112782 -3.66034987 386.64326126 -5.4909668 385.46557617 C-6.7225115 384.67098487 -7.95194086 383.87310279 -9.17895508 383.0715332 C-14.54837108 379.15529674 -14.54837108 379.15529674 -20.75 378.375 C-21.4925 378.58125 -22.235 378.7875 -23 379 C-23.33 379.99 -23.66 380.98 -24 382 C-25.010625 382.37125 -26.02125 382.7425 -27.0625 383.125 C-30.70661477 384.50827622 -32.48426489 386.50375633 -34.9375 389.5 C-39.23271427 394.57991688 -42.70624435 396.41140081 -49.22265625 397.3046875 C-56.30591129 397.71777613 -61.09375539 395.04758143 -66.75 391.0625 C-69 389 -69 389 -70.9375 386.25 C-72.84740192 383.70073248 -72.84740192 383.70073248 -76.0625 383.5 C-79.18111649 384.03082834 -80.13758747 384.5167833 -82 387 C-82.495 386.649375 -82.99 386.29875 -83.5 385.9375 C-87.13163015 384.57563869 -90.33693195 385.02034227 -94 386 C-97.39448424 387.90091117 -100.23518399 390.18492254 -103.1875 392.6875 C-107.89070903 396.55458298 -112.16789522 396.47137455 -118 396 C-126.08526429 394.75506083 -130.27129259 390.42902986 -135 384 C-136.02996684 382.31805908 -137.05133019 380.63080817 -138.0625 378.9375 C-139.38564847 376.69670342 -139.38564847 376.69670342 -141 375 C-144.75643424 374.24586647 -144.75643424 374.24586647 -148 375 C-148.33 377.64 -148.66 380.28 -149 383 C-150.03125 383.165 -151.0625 383.33 -152.125 383.5 C-156.50502061 384.56772744 -160.15270181 386.66125867 -164 388.9375 C-172.96086266 394.2022132 -180.77772897 398.04534105 -191.35546875 395.4140625 C-199.23411099 392.4578766 -204.3045819 386.82638768 -207.83203125 379.30078125 C-212.33945696 368.56246463 -212.68196644 358.50502637 -212 347 C-208.85056834 346.00978568 -207.97800065 346.00651833 -204.625 347 C-200.81561479 348.05086489 -198.7982283 347.7703449 -195 347 C-194.89042969 347.90363281 -194.78085938 348.80726563 -194.66796875 349.73828125 C-194.50941406 350.91777344 -194.35085937 352.09726562 -194.1875 353.3125 C-194.03667969 354.48425781 -193.88585937 355.65601563 -193.73046875 356.86328125 C-192.99337226 360.02846031 -192.6345247 361.1871961 -190 363 C-185.46842575 364.0080696 -185.46842575 364.0080696 -180.9375 363.4375 C-179 363 -179 363 -176.41796875 363.875 C-172.4293863 365.18781342 -168.51146266 365.89430219 -164.375 366.5625 C-163.27865234 366.75102539 -163.27865234 366.75102539 -162.16015625 366.94335938 C-151.01920577 368.78094275 -139.84431648 369.18587662 -128.5703125 369.30859375 C-127.8952063 369.31626644 -127.2201001 369.32393913 -126.52453613 369.33184433 C-121.39141523 369.38768085 -116.25838037 369.41857342 -111.125 369.4375 C-110.37016075 369.44050991 -109.6153215 369.44351982 -108.83760834 369.44662094 C-88.78748075 369.51268501 -69.02228247 369.08175391 -49.125 366.3125 C-47.79471771 366.12939774 -47.79471771 366.12939774 -46.43756104 365.94259644 C-35.82856864 364.43687394 -25.45516292 362.23001854 -15.02868652 359.77957153 C-6.60668016 357.83447311 1.7862691 356.59855506 10.375 355.6875 C11.11005768 355.60528198 11.84511536 355.52306396 12.60244751 355.43835449 C25.74601364 353.97762389 38.77519102 353.49052447 52 354 C51.99129883 354.60545654 51.98259766 355.21091309 51.97363281 355.8347168 C51.96686523 356.63562744 51.96009766 357.43653809 51.953125 358.26171875 C51.94442383 359.05280029 51.93572266 359.84388184 51.92675781 360.65893555 C52.06877181 365.19817621 53.10679764 368.75589671 55.75 372.4375 C58.75757583 374.52609432 60.40965516 374.59839081 64 374 C66.5 372.5 66.5 372.5 68 370 C68.29998977 367.12009824 68.25010163 364.86829199 67.44839478 362.08496094 C66.93700683 359.70709228 67.11761335 358.03526136 67.51318359 355.640625 C67.71867325 354.35647705 67.71867325 354.35647705 67.92831421 353.04638672 C68.16102524 351.66217529 68.16102524 351.66217529 68.3984375 350.25 C68.71625366 348.2578297 69.03395809 346.26564157 69.3515625 344.2734375 C69.85726952 341.1625143 70.36639845 338.05219277 70.87890625 334.94238281 C73.11964237 321.26418853 74.67993689 307.85950144 75 294 C75.02215576 293.20623962 75.04431152 292.41247925 75.06713867 291.59466553 C75.22956383 285.62554083 75.29587898 279.65871715 75.3125 273.6875 C75.31545074 272.73008911 75.31840149 271.77267822 75.32144165 270.78625488 C75.33460175 251.35094876 74.41046029 231.97716254 73.31838608 212.57870865 C73.18952276 210.28598867 73.06299203 207.99314842 72.93667603 205.70028687 C72.13042899 191.1962513 71.18165108 176.77361556 69.38671875 162.3515625 C67.71779109 148.64391021 67.53881555 134.98636976 67.60888672 121.20019531 C67.62608126 117.78861497 67.61575372 114.37773233 67.59852982 110.96617508 C67.53853278 96.84563322 67.91769922 83.11421148 70.35693359 69.18310547 C70.98617279 65.40863489 71.30091268 61.8349849 71 58 C68.68726558 55.1028059 68.68726558 55.1028059 66 53 C65.67 52.67 65.34 52.34 65 52 C59.55152622 51.6998689 54.74487524 52.34929018 49.41372681 53.42285156 C32.28494851 56.77082075 15.32310106 56.32658844 -2.04296875 56.07241821 C-11.09850769 55.94264943 -20.15456042 55.90390956 -29.2109375 55.88671875 C-30.53666904 55.88397225 -30.53666904 55.88397225 -31.88918304 55.88117027 C-46.96384178 55.86505033 -61.78136824 56.61723955 -76.75878906 58.36499023 C-78.35736017 58.55114915 -79.95599362 58.73677342 -81.5546875 58.921875 C-82.34870972 59.01445084 -83.14273193 59.10702667 -83.96081543 59.20240784 C-99.04384113 60.86879375 -114.27982809 61.23069047 -129.43359375 61.87231445 C-151.21647539 61.76521487 -151.21647539 61.76521487 -171 69 C-172.4074459 72.2170192 -173 74.4905346 -173 78 C-174.6396875 77.9071875 -174.6396875 77.9071875 -176.3125 77.8125 C-179.80912163 77.68058298 -179.80912163 77.68058298 -181.63452148 79.06494141 C-183.61296405 81.86864886 -184.00098263 84.83022401 -184.53515625 88.1484375 C-184.65880051 88.86305145 -184.78244476 89.57766541 -184.90983582 90.31393433 C-185.30989997 92.66530148 -185.68845196 95.01936118 -186.0625 97.375 C-186.19450806 98.19174194 -186.32651611 99.00848389 -186.46252441 99.84997559 C-189.64465129 119.68823053 -190.77659963 139.39021168 -191.484375 159.4453125 C-191.54881805 161.26947693 -191.54881805 161.26947693 -191.61456299 163.13049316 C-191.82900693 169.26665764 -192.03283808 175.40285285 -192.21582031 181.54003906 C-192.25306213 182.7125119 -192.29030396 183.88498474 -192.32867432 185.09298706 C-192.3974428 187.26073694 -192.46164355 189.42864085 -192.51947021 191.59671021 C-192.68780675 196.75129634 -192.97013918 201.87241701 -193.47409058 207.00508118 C-194.95577512 222.10195081 -195.26258922 237.02027486 -195.1953125 252.18359375 C-195.19157035 254.70662828 -195.18872909 257.22966429 -195.18673706 259.75270081 C-195.17919505 266.31029457 -195.15963065 272.86779605 -195.1373291 279.425354 C-195.11554074 286.1500875 -195.10769177 292.87485031 -195.09765625 299.59960938 C-195.07637337 312.73311288 -195.04235528 325.86654869 -195 339 C-199.95 337.515 -199.95 337.515 -205 336 C-205 333.69 -205 331.38 -205 329 C-209.34263862 328.83297544 -212.20960634 328.87000003 -216 331 C-219.27968948 323.28665622 -219.46256886 316.00970224 -219.39111328 307.77124023 C-219.37505594 305.57016788 -219.39101058 303.37093791 -219.41015625 301.16992188 C-219.43856349 284.66461511 -219.43856349 284.66461511 -216 279 C-214.09521484 278.28344727 -214.09521484 278.28344727 -212 278 C-210.9275 277.814375 -209.855 277.62875 -208.75 277.4375 C-207.8425 277.293125 -206.935 277.14875 -206 277 C-204.98459888 272.89776415 -204.98459888 272.89776415 -206 269 C-207.70821226 268.22301078 -209.44235487 267.50255064 -211.1875 266.8125 C-219.5757435 263.07473346 -222.91159172 258.06079902 -226.3359375 249.72265625 C-227.88409575 243.37520745 -226.95873237 237.47416433 -225.3125 231.25 C-225.13243408 230.55898193 -224.95236816 229.86796387 -224.7668457 229.15600586 C-222.17160383 219.56103857 -219.04922976 211.37689988 -212.16015625 204.03515625 C-210.67971183 201.98944639 -210.67971183 201.98944639 -211.6796875 199.40625 C-214.32835483 194.57909298 -217.5680623 192.04042113 -222.5625 189.9375 C-229.00430218 187.21047041 -229.00430218 187.21047041 -231 184 C-232.44981098 176.56781106 -230.00283831 169.50955814 -225.89355469 163.33837891 C-217.58379942 151.61673589 -217.58379942 151.61673589 -213 149 C-210.640625 148.70703125 -210.640625 148.70703125 -208.25 148.8125 C-207.45078125 148.83957031 -206.6515625 148.86664063 -205.828125 148.89453125 C-205.22484375 148.92933594 -204.6215625 148.96414062 -204 149 C-202.86559534 145.49365834 -202.88637486 144.2519514 -204.4375 140.8125 C-204.953125 139.884375 -205.46875 138.95625 -206 138 C-206 137.34 -206 136.68 -206 136 C-207.216875 136.165 -208.43375 136.33 -209.6875 136.5 C-212.42498312 136.49513769 -213.57793476 136.37594884 -215.64453125 134.53515625 C-219.05499915 129.57179518 -220.02026437 124.93234362 -219 119 C-216.71735139 108.4949939 -213.78238792 98.78238792 -206 91 C-205.60235737 89.01178687 -205.26224651 87.01055661 -205 85 C-205.804375 84.79375 -206.60875 84.5875 -207.4375 84.375 C-213.04102188 82.21223717 -219.1737668 78.75246832 -223 74 C-227.38451341 63.42125791 -225.21915628 52.26661362 -221 42 C-219.73847694 39.252262 -218.39671509 36.5563561 -217 33.875 C-216.66806641 33.2351416 -216.33613281 32.5952832 -215.99414062 31.93603516 C-214.10584403 28.48126855 -212.51947435 25.85468702 -209 24 C-205.765625 23.26953125 -205.765625 23.26953125 -202.25 22.8125 C-201.07953125 22.65394531 -199.9090625 22.49539062 -198.703125 22.33203125 C-197.36507812 22.16767578 -197.36507812 22.16767578 -196 22 C-195.01 23.98 -194.02 25.96 -193 28 C-190.62666731 28.38647789 -190.62666731 28.38647789 -188 28 C-186.25565552 26.01775059 -186.25565552 26.01775059 -185 23.375 C-179.77213888 13.99908787 -172.24679203 6.06304133 -162 2 C-157.07964429 1.20571401 -152.14487715 0.81000914 -147.68359375 3.28515625 C-145.60461393 5.07120741 -143.80548006 6.93884193 -142 9 C-141.41863281 9.61359375 -140.83726562 10.2271875 -140.23828125 10.859375 C-136.00800165 15.46039821 -132.39524681 20.47954003 -128.796875 25.58203125 C-126.63404053 28.52249172 -126.63404053 28.52249172 -124 31 C-120.37464024 31.2503577 -120.37464024 31.2503577 -117 31 C-116.731875 29.88625 -116.46375 28.7725 -116.1875 27.625 C-115 24 -115 24 -112 22 C-111.01 23.485 -111.01 23.485 -110 25 C-104.84303213 24.88279618 -101.70908597 23.39131371 -97.3125 20.6875 C-86.16384131 13.95675699 -74.95318791 10.73153976 -61.94921875 13.6953125 C-54.49427708 16.14935969 -48.6475702 20.02955538 -43.4375 25.875 C-41.08390643 28.29464931 -41.08390643 28.29464931 -37.5 28.625 C-34.09540292 28.01703624 -32.56890544 27.46862183 -30.30078125 24.8828125 C-28.57986112 22.39187105 -27.15679894 19.77172812 -25.6875 17.125 C-21.60017372 9.94575234 -9.71106561 -4.44506508 0 0 Z " fill="#FFFFFF" transform="translate(327,26)"/>
</svg>
