<?xml version="1.0" encoding="UTF-8"?>
<svg version="1.1" xmlns="http://www.w3.org/2000/svg" width="500" height="500">
<path d="M0 0 C0.42667969 0.40476563 0.85335938 0.80953125 1.29296875 1.2265625 C1.29296875 1.8865625 1.29296875 2.5465625 1.29296875 3.2265625 C1.89109375 3.5153125 2.48921875 3.8040625 3.10546875 4.1015625 C5.29296875 5.2265625 5.29296875 5.2265625 8.29296875 7.2265625 C8.29296875 7.8865625 8.29296875 8.5465625 8.29296875 9.2265625 C8.855 9.44957031 9.41703125 9.67257813 9.99609375 9.90234375 C19.28035187 15.25500277 24.84880567 27.18374484 29.41113281 36.46289062 C30.20686156 38.05434812 31.05553072 39.61906698 31.91015625 41.1796875 C36.71398025 50.09040766 39.50614369 59.54110979 42.29296875 69.2265625 C42.63956543 70.41741455 42.63956543 70.41741455 42.99316406 71.63232422 C48.28403601 90.0141304 50.82272392 108.12149922 51.29296875 127.2265625 C51.3202002 128.08008301 51.34743164 128.93360352 51.37548828 129.81298828 C52.67407016 173.38490243 37.29959125 219.82168699 7.39453125 252.04785156 C4.78776407 254.75031327 2.1415436 257.33330259 -0.64453125 259.8515625 C-1.56105469 260.68945312 -2.47757812 261.52734375 -3.421875 262.390625 C-5.70703125 264.2265625 -5.70703125 264.2265625 -7.70703125 264.2265625 C-7.70703125 264.8865625 -7.70703125 265.5465625 -7.70703125 266.2265625 C-9.66630188 267.9409243 -11.66583337 269.61061418 -13.70703125 271.2265625 C-9.9041894 277.03903623 -5.61432705 281.19053264 -0.07421875 285.3671875 C6.00766528 290.14437694 6.00766528 290.14437694 6.859375 293.375 C6.85133268 297.95912498 6.52496835 301.61988661 3.14990234 305.10083008 C0.71813379 306.5750458 -1.3515894 306.81114607 -4.16796875 307.17578125 C-10.50464481 308.1242798 -16.45311244 309.76828031 -22.58203125 311.6015625 C-40.75615025 316.81210672 -58.37055277 319.60112448 -77.25097656 320.54418945 C-78.4365918 320.60695068 -79.62220703 320.66971191 -80.84375 320.734375 C-81.90295654 320.78223145 -82.96216309 320.83008789 -84.0534668 320.87939453 C-86.93175948 321.05710493 -86.93175948 321.05710493 -89.70703125 323.2265625 C-93.64362562 323.66396187 -95.92917543 323.66847479 -99.40234375 321.6953125 C-102.00498287 318.90740076 -102.30218211 317.30481544 -102.29907227 313.54101562 C-102.26869873 312.81849609 -102.2383252 312.09597656 -102.20703125 311.3515625 C-102.19148193 310.60068359 -102.17593262 309.84980469 -102.15991211 309.07617188 C-101.94750738 303.07557963 -100.95202164 297.39058297 -99.4609375 291.5703125 C-97.77922287 284.11151602 -97.54961581 276.60867001 -97.4609375 268.98828125 C-97.42795708 267.01236606 -97.39474625 265.03645471 -97.36132812 263.06054688 C-97.31439695 260.0051574 -97.26999614 256.94977842 -97.23022461 253.89428711 C-97.08544066 243.24876556 -96.81566171 232.66128625 -95.796875 222.05859375 C-95.72054337 221.23799973 -95.64421173 220.4174057 -95.56556702 219.57194519 C-95.13565181 215.51817264 -94.67348028 211.86824598 -92.70703125 208.2265625 C-89.70703125 206.2265625 -89.70703125 206.2265625 -86.20703125 206.3515625 C-82.70703125 207.2265625 -82.70703125 207.2265625 -80.83203125 208.9765625 C-79.70703125 211.2265625 -79.70703125 211.2265625 -79.515625 213.56640625 C-78.36433734 217.3539758 -75.77224535 218.89076973 -72.64453125 221.0390625 C-72.07669922 221.44576172 -71.50886719 221.85246094 -70.92382812 222.27148438 C-69.52714648 223.26911412 -68.11823134 224.24957783 -66.70703125 225.2265625 C-63.15689442 221.75126716 -63.15689442 221.75126716 -60.01953125 217.9140625 C-59.58640625 217.3571875 -59.15328125 216.8003125 -58.70703125 216.2265625 C-58.04703125 216.2265625 -57.38703125 216.2265625 -56.70703125 216.2265625 C-56.04703125 214.5765625 -55.38703125 212.9265625 -54.70703125 211.2265625 C-54.04703125 211.2265625 -53.38703125 211.2265625 -52.70703125 211.2265625 C-52.454375 210.40414062 -52.20171875 209.58171875 -51.94140625 208.734375 C-51.04595067 206.18969428 -50.12020101 203.88984922 -48.97265625 201.46875 C-34.39602161 170.26416914 -29.12042943 129.49075708 -40.07421875 96.3046875 C-42.32125656 90.24493392 -46.72521441 80.21747092 -52.70703125 77.2265625 C-52.70703125 76.5665625 -52.70703125 75.9065625 -52.70703125 75.2265625 C-53.43277344 74.97132813 -54.15851563 74.71609375 -54.90625 74.453125 C-57.87066099 73.15490317 -59.98514184 71.60512704 -62.51953125 69.6015625 C-86.73684089 51.69758893 -117.19050425 43.95744778 -146.9375 47.8046875 C-171.37710487 51.79216309 -196.89841878 71.03524284 -211.7578125 90.35546875 C-224.29416909 108.82084369 -229.31134093 129.27736631 -226.01171875 151.58203125 C-224.88957338 157.37105675 -222.57616326 161.82271168 -219.58203125 166.8515625 C-215.67813868 173.67290952 -211.99524169 180.55340091 -208.6015625 187.640625 C-208.25270996 188.36903595 -207.90385742 189.0974469 -207.54443359 189.84793091 C-206.1503237 192.76902076 -204.76160717 195.69241665 -203.38934326 198.62384033 C-199.44738364 207.04411217 -195.38384483 214.80193502 -189.70703125 222.2265625 C-184.70703125 228.97672103 -184.70703125 228.97672103 -184.70703125 231.2265625 C-184.04703125 231.2265625 -183.38703125 231.2265625 -182.70703125 231.2265625 C-181.015625 233.30859375 -181.015625 233.30859375 -179.14453125 236.0390625 C-178.21447266 237.37904297 -178.21447266 237.37904297 -177.265625 238.74609375 C-175.70703125 241.2265625 -175.70703125 241.2265625 -174.70703125 244.2265625 C-174.04703125 244.2265625 -173.38703125 244.2265625 -172.70703125 244.2265625 C-171.53140625 245.680625 -171.53140625 245.680625 -170.33203125 247.1640625 C-166.71652378 251.5379447 -162.38061332 254.63081745 -157.80859375 257.94921875 C-154.9023052 260.08318125 -152.11501851 262.31043251 -149.33203125 264.6015625 C-146.62884157 266.80142954 -144.4214122 268.36677549 -141.26953125 269.9140625 C-138.07855022 271.54846742 -137.04554325 272.91965049 -135.70703125 276.2265625 C-135.92015055 281.54485772 -139.28719811 285.37273193 -142.26953125 289.5390625 C-142.78966797 290.27962891 -143.30980469 291.02019531 -143.84570312 291.78320312 C-145.12546243 293.60304434 -146.41265343 295.41710434 -147.70703125 297.2265625 C-146.71703125 298.7115625 -146.71703125 298.7115625 -145.70703125 300.2265625 C-145.33203125 303.2265625 -145.33203125 303.2265625 -145.70703125 306.2265625 C-149.59959836 310.25814986 -154.28165295 310.41311109 -159.64453125 310.5390625 C-166.89543189 310.48222453 -172.93538255 308.66641064 -179.70703125 306.2265625 C-180.55136719 305.97261719 -181.39570313 305.71867187 -182.265625 305.45703125 C-201.18420731 299.46565495 -223.32414459 286.14036075 -236.70703125 271.2265625 C-236.70703125 270.5665625 -236.70703125 269.9065625 -236.70703125 269.2265625 C-237.2896875 268.96875 -237.87234375 268.7109375 -238.47265625 268.4453125 C-240.88732155 267.12822233 -242.52443302 265.67567866 -244.45703125 263.7265625 C-245.070625 263.118125 -245.68421875 262.5096875 -246.31640625 261.8828125 C-247.70703125 260.2265625 -247.70703125 260.2265625 -247.70703125 258.2265625 C-248.36703125 258.2265625 -249.02703125 258.2265625 -249.70703125 258.2265625 C-251.46589244 256.24479008 -253.094756 254.26109942 -254.70703125 252.1640625 C-255.44505981 251.20850464 -255.44505981 251.20850464 -256.19799805 250.23364258 C-267.22851897 235.78895496 -276.1097221 220.22281731 -284.70703125 204.2265625 C-285.16513184 203.37900391 -285.62323242 202.53144531 -286.09521484 201.65820312 C-289.35031693 195.42370771 -291.65410859 189.07101783 -293.70703125 182.3515625 C-294.04806885 181.24111572 -294.38910645 180.13066895 -294.74047852 178.98657227 C-298.49132009 166.28371032 -300.79415413 153.31968551 -302.70703125 140.2265625 C-302.81901855 139.49260254 -302.93100586 138.75864258 -303.04638672 138.00244141 C-304.074335 130.29741015 -303.95085075 122.48644723 -303.95703125 114.7265625 C-303.95770599 113.96644867 -303.95838074 113.20633484 -303.95907593 112.42318726 C-303.94353781 101.41653404 -303.64275552 90.90407576 -300.70703125 80.2265625 C-300.36671875 78.98132813 -300.02640625 77.73609375 -299.67578125 76.453125 C-295.38778271 62.40123788 -288.81957165 49.74963463 -279.70703125 38.2265625 C-279.07410156 37.40285156 -278.44117188 36.57914062 -277.7890625 35.73046875 C-276.60764818 34.19639344 -275.41810932 32.66852437 -274.21875 31.1484375 C-273.04261827 29.65320026 -271.89925939 28.13216192 -270.76953125 26.6015625 C-268.43536874 23.91373901 -265.92643211 21.66853556 -263.21484375 19.3671875 C-261.32736986 17.75607272 -259.47713312 16.12419365 -257.63671875 14.4609375 C-249.21757259 6.92349306 -240.52721253 0.79632147 -230.70703125 -4.7734375 C-229.5684668 -5.42570312 -228.42990234 -6.07796875 -227.25683594 -6.75 C-210.25870642 -16.43523385 -193.95893141 -24.53542118 -174.70703125 -28.7734375 C-173.86350098 -28.97179199 -173.0199707 -29.17014648 -172.15087891 -29.37451172 C-166.3681336 -30.72907978 -160.5695608 -31.82613517 -154.70703125 -32.7734375 C-153.80033691 -32.92296875 -152.89364258 -33.0725 -151.95947266 -33.2265625 C-98.56993213 -41.69153663 -44.01684761 -32.49078648 0 0 Z " fill="#000000" transform="translate(362.70703125,90.7734375)"/>
<path d="M0 0 C1.01682861 0.46744629 1.01682861 0.46744629 2.05419922 0.94433594 C11.74165524 5.47521737 19.52845633 11.30410266 27.375 18.54003906 C28.47527042 19.52856326 29.6017262 20.48856675 30.75 21.42089844 C44.53874987 32.61669808 53.03559189 51.14331429 57.46289062 68.01708984 C58.02641166 70.09750706 58.65267879 72.15023175 59.296875 74.20703125 C63.45169642 87.54379525 66.27190866 100.77545407 66.89404297 114.77880859 C67.02167449 117.45436529 67.18684443 120.12701669 67.34765625 122.80078125 C69.39029602 159.40229753 60.04464877 196.09446873 38 226 C37.39671875 226.84046875 36.7934375 227.6809375 36.171875 228.546875 C31.0466322 235.42670542 25.03536476 242.03386017 18 247 C17.34 247 16.68 247 16 247 C16 247.66 16 248.32 16 249 C11.68842264 253.4491809 6.59546189 257.14609865 1.56640625 260.73828125 C-0.95275233 262.76742894 -1.00619684 264.05473874 -1.375 267.3125 C-1.30042978 271.08474186 -1.30042978 271.08474186 1.0625 273.875 C3.86991738 276.31006894 3.86991738 276.31006894 7.5 276.1875 C11 277 11 277 12.48828125 279.16796875 C13.75004171 281.74731977 14.87379224 284.35952786 16 287 C16.66 287.99 17.32 288.98 18 290 C-3.57899822 296.72833817 -24.31012751 301.52209663 -47 301 C-46.79141357 299.83758789 -46.58282715 298.67517578 -46.36791992 297.47753906 C-44.05688163 283.87344851 -43.46392377 270.52847357 -43.3125 256.75 C-43.27921539 254.62498053 -43.24471614 252.49997973 -43.20898438 250.375 C-43.12538584 245.25010604 -43.05799383 240.12524499 -43 235 C-42.18523193 235.49226074 -41.37046387 235.98452148 -40.53100586 236.49169922 C-39.45729736 237.13123535 -38.38358887 237.77077148 -37.27734375 238.4296875 C-36.21507568 239.06632324 -35.15280762 239.70295898 -34.05834961 240.35888672 C-30.03161337 242.51963718 -27.55409835 243.15979292 -23 243 C-16.71609786 239.95325957 -13.21852189 234.36636926 -9 229 C-8.41089844 228.32195312 -7.82179688 227.64390625 -7.21484375 226.9453125 C-3.00348927 221.98726396 0.06825143 216.52461163 3.125 210.8125 C3.53290771 210.05904297 3.94081543 209.30558594 4.36108398 208.52929688 C10.38338384 196.96375756 13.77853446 184.88840651 16.1875 172.125 C16.44405529 170.79392259 16.70072967 169.46286812 16.95751953 168.13183594 C22.48216438 139.19271266 25.64618854 102.2900761 9 76 C8.31292969 74.89269531 7.62585938 73.78539062 6.91796875 72.64453125 C1.20362012 63.85203765 -5.30866959 57.77961877 -14 52 C-15.00675781 51.31550781 -16.01351562 50.63101563 -17.05078125 49.92578125 C-35.22690006 38.17019742 -58.15191001 27.28650943 -80 26 C-80.8765625 25.9469873 -81.753125 25.89397461 -82.65625 25.83935547 C-112.19080124 24.30590465 -137.4951323 30.87070567 -160.36132812 49.66894531 C-162.12041049 51.09780661 -163.90701081 52.48520326 -165.703125 53.8671875 C-166.32614502 54.34816895 -166.94916504 54.82915039 -167.59106445 55.32470703 C-168.77850013 56.24130752 -169.96705016 57.15646715 -171.15698242 58.06982422 C-174.06303164 60.33881934 -176.71872722 62.67700304 -179.28515625 65.328125 C-182 68 -182 68 -184 68 C-184.36738281 68.79857422 -184.36738281 68.79857422 -184.7421875 69.61328125 C-186.00580182 72.01100904 -187.45433846 74.22112707 -188.97021484 76.46533203 C-204.04415699 98.94558317 -211.6642129 125.3459104 -206.76416016 152.43212891 C-204.02326462 164.89688749 -197.20183781 176.87584821 -190.41796875 187.57421875 C-188.60195417 190.68095444 -187.11548405 193.91680766 -185.625 197.1875 C-180.03235248 209.41793266 -173.80669345 221.02024406 -166 232 C-165.49162598 232.72268066 -164.98325195 233.44536133 -164.45947266 234.18994141 C-154.42462886 248.39413088 -144.43283877 260.04840628 -130 270 C-127.93383436 271.49494675 -125.87123184 272.99483242 -123.8125 274.5 C-122.89082031 275.1703125 -121.96914062 275.840625 -121.01953125 276.53125 C-120.01986328 277.25828125 -120.01986328 277.25828125 -119 278 C-119.93614567 279.72990025 -120.87397958 281.45888696 -121.8125 283.1875 C-122.33457031 284.15042969 -122.85664063 285.11335938 -123.39453125 286.10546875 C-124.87463866 288.77398357 -126.41337509 291.39374227 -128 294 C-148.45754106 285.78226073 -168.4818319 274.74572681 -185 260 C-185 259.34 -185 258.68 -185 258 C-185.89054077 257.59974609 -185.89054077 257.59974609 -186.79907227 257.19140625 C-207.38055031 246.0502401 -220.95150829 215.61316716 -231 196 C-231.52722656 195.00677734 -232.05445313 194.01355469 -232.59765625 192.99023438 C-245.30783562 168.60776716 -249.29580371 140.78211169 -249.5 113.625 C-249.51071533 112.83306244 -249.52143066 112.04112488 -249.5324707 111.22518921 C-249.83576551 81.71866416 -239.50944938 59.69551991 -220 38 C-217.45430869 35.52062931 -214.72950166 33.27458472 -212 31 C-211.175 30.29875 -210.35 29.5975 -209.5 28.875 C-198.80452399 19.92064799 -187.70466604 12.46823628 -175.28833008 6.18701172 C-173.42943974 5.24591937 -171.57867963 4.29014754 -169.72851562 3.33203125 C-158.43917206 -2.47611931 -147.35195621 -7.29052806 -134.9375 -10.125 C-133.85766846 -10.37725342 -132.77783691 -10.62950684 -131.6652832 -10.8894043 C-86.75934659 -21.14670154 -42.05454597 -19.61601493 0 0 Z " fill="#FFFFFF" transform="translate(326,93)"/>
</svg>
