<?xml version="1.0" encoding="UTF-8"?>
<svg version="1.1" xmlns="http://www.w3.org/2000/svg" width="500" height="500">
<path d="M0 0 C0.51820313 0.45761719 1.03640625 0.91523437 1.5703125 1.38671875 C1.5703125 2.04671875 1.5703125 2.70671875 1.5703125 3.38671875 C2.1478125 3.65484375 2.7253125 3.92296875 3.3203125 4.19921875 C5.62581293 5.41601064 7.59087442 6.69005754 9.5703125 8.38671875 C9.5703125 9.04671875 9.5703125 9.70671875 9.5703125 10.38671875 C10.2303125 10.38671875 10.8903125 10.38671875 11.5703125 10.38671875 C15.23510253 15.50925054 18.37480839 20.96299178 21.5703125 26.38671875 C21.9509082 27.01143066 22.33150391 27.63614258 22.72363281 28.27978516 C29.86402962 40.14038058 32.35008578 52.93643425 34.97631836 66.40917969 C35.48974017 68.9828305 36.05856394 71.53189708 36.66015625 74.0859375 C39.92074608 88.60482153 40.09112242 103.64800536 38.5703125 118.38671875 C38.46058105 119.5173877 38.46058105 119.5173877 38.34863281 120.67089844 C36.36653982 139.48055647 28.73220942 154.23984674 16.87988281 168.77905273 C15.72234437 170.20008007 14.59687622 171.6471008 13.4765625 173.09765625 C11.57093606 175.38596996 9.58677532 177.27272535 7.3203125 179.19921875 C6.61390625 179.80378906 5.9075 180.40835938 5.1796875 181.03125 C4.64859375 181.47855469 4.1175 181.92585937 3.5703125 182.38671875 C4.51131661 187.15703743 4.51131661 187.15703743 7.265625 190.98046875 C9.98941542 192.64244256 12.66923895 193.56431228 15.6953125 194.57421875 C22.50489424 197.13729072 27.21552578 200.53770649 32.5703125 205.38671875 C33.65654995 206.32017783 34.74385009 207.25240128 35.83203125 208.18359375 C51.26191529 221.61392002 57.42645188 238.02159642 62.5703125 257.38671875 C62.97315786 258.78316034 63.37820792 260.17896732 63.78515625 261.57421875 C67.61487088 274.99577402 69.66469423 288.57792424 71.5703125 302.38671875 C71.78853859 303.89070111 72.00721929 305.39461766 72.2265625 306.8984375 C73.66615582 317.36724483 74.22586902 327.83441642 74.5703125 338.38671875 C74.61333496 339.52633057 74.61333496 339.52633057 74.65722656 340.68896484 C75.24815252 357.61263544 75.24815252 357.61263544 71.5703125 363.38671875 C44.84158743 387.87613887 -4.54376915 394.7144176 -38.7421875 401.19921875 C-39.82024658 401.40627441 -40.89830566 401.61333008 -42.0090332 401.82666016 C-49.46827518 403.19525436 -56.85939644 403.96835588 -64.4296875 404.38671875 C-65.34596924 404.43771729 -66.26225098 404.48871582 -67.20629883 404.54125977 C-100.69476348 406.04646348 -136.79795266 395.5992099 -162.5625 373.5625 C-170.48020956 366.15711282 -179.77211343 354.97386244 -180.62890625 343.78515625 C-180.69970692 340.0054895 -180.63173804 336.99287036 -179.4296875 333.38671875 C-179.43549066 331.55292118 -179.48384583 329.71915666 -179.5546875 327.88671875 C-179.62089991 320.44609956 -178.45918984 313.42458445 -177.203125 306.12109375 C-176.50637259 302.03238666 -176.07177696 297.95422776 -175.6796875 293.82421875 C-173.63149123 277.01546756 -168.58012593 260.49666688 -161.28808594 245.24853516 C-159.72127936 241.85022259 -158.36394123 238.36728178 -156.9921875 234.88671875 C-156.73300537 234.23227783 -156.47382324 233.57783691 -156.20678711 232.90356445 C-155.61206341 231.39887875 -155.02049268 229.89294735 -154.4296875 228.38671875 C-153.7696875 228.38671875 -153.1096875 228.38671875 -152.4296875 228.38671875 C-152.4296875 227.39671875 -152.4296875 226.40671875 -152.4296875 225.38671875 C-151.7696875 225.38671875 -151.1096875 225.38671875 -150.4296875 225.38671875 C-150.0996875 224.39671875 -149.7696875 223.40671875 -149.4296875 222.38671875 C-147.12890625 220.37109375 -147.12890625 220.37109375 -144.1171875 218.13671875 C-143.58319336 217.74049316 -143.04919922 217.34426758 -142.49902344 216.93603516 C-137.93763083 213.61586508 -133.12772973 210.8562109 -128.2109375 208.09375 C-124.20091835 205.63254443 -120.80253761 202.65044724 -117.4296875 199.38671875 C-119.14902457 194.38864588 -121.91090077 190.10296419 -124.6796875 185.63671875 C-125.17839355 184.82614014 -125.67709961 184.01556152 -126.19091797 183.18041992 C-128.58253151 179.30897112 -130.99683744 175.46373818 -133.5546875 171.69921875 C-141.30834272 160.14694282 -147.14068517 149.12036605 -151.56933594 135.91210938 C-152.44515412 133.34131957 -153.37349205 130.79441685 -154.3125 128.24609375 C-164.30276725 100.62472549 -168.01154769 65.30526643 -155.26953125 37.890625 C-154.06787845 35.661192 -152.7882715 33.52386091 -151.4296875 31.38671875 C-150.90761719 30.54496094 -150.38554687 29.70320313 -149.84765625 28.8359375 C-146.85740441 24.15775762 -146.85740441 24.15775762 -145.4296875 22.38671875 C-144.7696875 22.38671875 -144.1096875 22.38671875 -143.4296875 22.38671875 C-143.1615625 21.8040625 -142.8934375 21.22140625 -142.6171875 20.62109375 C-141.41487759 18.35885274 -140.09142837 16.58095557 -138.4296875 14.63671875 C-137.9140625 14.023125 -137.3984375 13.40953125 -136.8671875 12.77734375 C-135.4296875 11.38671875 -135.4296875 11.38671875 -133.4296875 11.38671875 C-132.9346875 9.90171875 -132.9346875 9.90171875 -132.4296875 8.38671875 C-126.0382742 1.82929471 -117.42185609 -1.96014127 -109.24072266 -5.76904297 C-107.77840123 -6.45072368 -106.32682383 -7.15542404 -104.87890625 -7.8671875 C-72.90487642 -22.34920812 -29.02106209 -19.26961196 0 0 Z " fill="#FFFFFF" transform="translate(247.4296875,72.61328125)"/>
<path d="M0 0 C0.51820313 0.45761719 1.03640625 0.91523437 1.5703125 1.38671875 C1.5703125 2.04671875 1.5703125 2.70671875 1.5703125 3.38671875 C2.1478125 3.65484375 2.7253125 3.92296875 3.3203125 4.19921875 C5.62581293 5.41601064 7.59087442 6.69005754 9.5703125 8.38671875 C9.5703125 9.04671875 9.5703125 9.70671875 9.5703125 10.38671875 C10.2303125 10.38671875 10.8903125 10.38671875 11.5703125 10.38671875 C15.23510253 15.50925054 18.37480839 20.96299178 21.5703125 26.38671875 C21.9509082 27.01143066 22.33150391 27.63614258 22.72363281 28.27978516 C29.86402962 40.14038058 32.35008578 52.93643425 34.97631836 66.40917969 C35.48974017 68.9828305 36.05856394 71.53189708 36.66015625 74.0859375 C39.92074608 88.60482153 40.09112242 103.64800536 38.5703125 118.38671875 C38.46058105 119.5173877 38.46058105 119.5173877 38.34863281 120.67089844 C36.36653982 139.48055647 28.73220942 154.23984674 16.87988281 168.77905273 C15.72234437 170.20008007 14.59687622 171.6471008 13.4765625 173.09765625 C11.57093606 175.38596996 9.58677532 177.27272535 7.3203125 179.19921875 C6.61390625 179.80378906 5.9075 180.40835938 5.1796875 181.03125 C4.64859375 181.47855469 4.1175 181.92585937 3.5703125 182.38671875 C4.51131661 187.15703743 4.51131661 187.15703743 7.265625 190.98046875 C9.98941542 192.64244256 12.66923895 193.56431228 15.6953125 194.57421875 C22.50489424 197.13729072 27.21552578 200.53770649 32.5703125 205.38671875 C33.65654995 206.32017783 34.74385009 207.25240128 35.83203125 208.18359375 C51.26191529 221.61392002 57.42645188 238.02159642 62.5703125 257.38671875 C62.97315786 258.78316034 63.37820792 260.17896732 63.78515625 261.57421875 C67.61487088 274.99577402 69.66469423 288.57792424 71.5703125 302.38671875 C71.78853859 303.89070111 72.00721929 305.39461766 72.2265625 306.8984375 C73.66615582 317.36724483 74.22586902 327.83441642 74.5703125 338.38671875 C74.61333496 339.52633057 74.61333496 339.52633057 74.65722656 340.68896484 C75.24815252 357.61263544 75.24815252 357.61263544 71.5703125 363.38671875 C44.84158743 387.87613887 -4.54376915 394.7144176 -38.7421875 401.19921875 C-39.82024658 401.40627441 -40.89830566 401.61333008 -42.0090332 401.82666016 C-49.46827518 403.19525436 -56.85939644 403.96835588 -64.4296875 404.38671875 C-65.34596924 404.43771729 -66.26225098 404.48871582 -67.20629883 404.54125977 C-100.69476348 406.04646348 -136.79795266 395.5992099 -162.5625 373.5625 C-170.48020956 366.15711282 -179.77211343 354.97386244 -180.62890625 343.78515625 C-180.69970692 340.0054895 -180.63173804 336.99287036 -179.4296875 333.38671875 C-179.43549066 331.55292118 -179.48384583 329.71915666 -179.5546875 327.88671875 C-179.62089991 320.44609956 -178.45918984 313.42458445 -177.203125 306.12109375 C-176.50637259 302.03238666 -176.07177696 297.95422776 -175.6796875 293.82421875 C-173.63149123 277.01546756 -168.58012593 260.49666688 -161.28808594 245.24853516 C-159.72127936 241.85022259 -158.36394123 238.36728178 -156.9921875 234.88671875 C-156.73300537 234.23227783 -156.47382324 233.57783691 -156.20678711 232.90356445 C-155.61206341 231.39887875 -155.02049268 229.89294735 -154.4296875 228.38671875 C-153.7696875 228.38671875 -153.1096875 228.38671875 -152.4296875 228.38671875 C-152.4296875 227.39671875 -152.4296875 226.40671875 -152.4296875 225.38671875 C-151.7696875 225.38671875 -151.1096875 225.38671875 -150.4296875 225.38671875 C-150.0996875 224.39671875 -149.7696875 223.40671875 -149.4296875 222.38671875 C-147.12890625 220.37109375 -147.12890625 220.37109375 -144.1171875 218.13671875 C-143.58319336 217.74049316 -143.04919922 217.34426758 -142.49902344 216.93603516 C-137.93763083 213.61586508 -133.12772973 210.8562109 -128.2109375 208.09375 C-124.20091835 205.63254443 -120.80253761 202.65044724 -117.4296875 199.38671875 C-119.14902457 194.38864588 -121.91090077 190.10296419 -124.6796875 185.63671875 C-125.17839355 184.82614014 -125.67709961 184.01556152 -126.19091797 183.18041992 C-128.58253151 179.30897112 -130.99683744 175.46373818 -133.5546875 171.69921875 C-141.30834272 160.14694282 -147.14068517 149.12036605 -151.56933594 135.91210938 C-152.44515412 133.34131957 -153.37349205 130.79441685 -154.3125 128.24609375 C-164.30276725 100.62472549 -168.01154769 65.30526643 -155.26953125 37.890625 C-154.06787845 35.661192 -152.7882715 33.52386091 -151.4296875 31.38671875 C-150.90761719 30.54496094 -150.38554687 29.70320313 -149.84765625 28.8359375 C-146.85740441 24.15775762 -146.85740441 24.15775762 -145.4296875 22.38671875 C-144.7696875 22.38671875 -144.1096875 22.38671875 -143.4296875 22.38671875 C-143.1615625 21.8040625 -142.8934375 21.22140625 -142.6171875 20.62109375 C-141.41487759 18.35885274 -140.09142837 16.58095557 -138.4296875 14.63671875 C-137.9140625 14.023125 -137.3984375 13.40953125 -136.8671875 12.77734375 C-135.4296875 11.38671875 -135.4296875 11.38671875 -133.4296875 11.38671875 C-132.9346875 9.90171875 -132.9346875 9.90171875 -132.4296875 8.38671875 C-126.0382742 1.82929471 -117.42185609 -1.96014127 -109.24072266 -5.76904297 C-107.77840123 -6.45072368 -106.32682383 -7.15542404 -104.87890625 -7.8671875 C-72.90487642 -22.34920812 -29.02106209 -19.26961196 0 0 Z M-128.4296875 33.38671875 C-130.97652268 36.60569894 -133.25108391 39.91074448 -135.4296875 43.38671875 C-135.82671875 43.95390625 -136.22375 44.52109375 -136.6328125 45.10546875 C-143.01235605 54.81760968 -142.915273 67.29121161 -142.82080078 78.49707031 C-142.80475258 80.75257273 -142.82072148 83.00627105 -142.83984375 85.26171875 C-142.85974842 98.17562242 -140.87914017 110.28637416 -136.5546875 122.51171875 C-136.32394531 123.19363281 -136.09320313 123.87554687 -135.85546875 124.578125 C-135.07324429 126.85787008 -134.25467305 129.12209647 -133.4296875 131.38671875 C-132.90435425 132.86954346 -132.90435425 132.86954346 -132.3684082 134.38232422 C-129.40464887 142.46971662 -125.67160054 149.81229978 -121.3671875 157.26171875 C-120.75552734 158.33679688 -120.14386719 159.411875 -119.51367188 160.51953125 C-118.34166975 162.57718688 -117.16193867 164.63046676 -115.97314453 166.6784668 C-115.03688744 168.32128551 -114.12831158 169.98088348 -113.27294922 171.66723633 C-111.46642874 175.30499953 -111.46642874 175.30499953 -108.0703125 177.2890625 C-106.88695312 177.30646484 -106.88695312 177.30646484 -105.6796875 177.32421875 C-104.88046875 177.35386719 -104.08125 177.38351563 -103.2578125 177.4140625 C-102.65453125 177.40503906 -102.05125 177.39601562 -101.4296875 177.38671875 C-95.93707568 193.62274111 -95.93707568 193.62274111 -98.8671875 201.01171875 C-106.33788292 211.8990462 -118.01106724 219.77739625 -129.07641602 226.62255859 C-136.80034435 231.55840226 -140.95620248 237.37473756 -143.9921875 245.94921875 C-144.43087158 247.13765381 -144.43087158 247.13765381 -144.87841797 248.35009766 C-145.46684584 249.95029904 -146.04901052 251.55281915 -146.62451172 253.15771484 C-147.32753999 255.10393926 -148.06519079 257.03758707 -148.80859375 258.96875 C-154.68695809 274.50311093 -157.78502439 290.24444124 -160.01269531 306.65310669 C-160.24611052 308.37074602 -160.4850648 310.08764317 -160.72998047 311.80368042 C-162.2409026 322.52800559 -162.58760814 331.69296229 -160.4296875 342.38671875 C-160.19748716 343.99044911 -159.96761519 345.59452239 -159.7421875 347.19921875 C-157.47889844 356.40552989 -149.33002444 363.28768429 -141.60400391 368.14941406 C-105.22430817 388.85144617 -69.45306469 390.13975784 -29.5546875 381.76171875 C-28.70808563 381.58487549 -27.86148376 381.40803223 -26.98922729 381.22583008 C2.92520639 374.94050586 30.4042087 365.09631833 58.5703125 353.38671875 C58.66162592 343.0581568 58.53110281 332.81904037 57.7578125 322.51171875 C57.62415283 320.70465454 57.62415283 320.70465454 57.48779297 318.86108398 C56.76561956 309.70683344 55.65758257 300.70790592 53.98681641 291.68066406 C53.55133644 289.28220583 53.15897129 286.87899075 52.76953125 284.47265625 C51.06802521 274.36797131 48.63385549 264.6233283 45.6328125 254.82421875 C45.30901611 253.7664624 44.98521973 252.70870605 44.65161133 251.61889648 C40.47037494 237.35856047 40.47037494 237.35856047 32.3828125 225.19921875 C31.22265625 223.99845703 31.22265625 223.99845703 30.0390625 222.7734375 C20.89777677 213.93589702 12.44028589 207.63954539 0.8125 202.36328125 C-3.69477575 199.61547218 -5.45897649 196.1663556 -7.9296875 191.63671875 C-9.6030532 189.1266702 -10.7848475 188.66648004 -13.4296875 187.38671875 C-15.41007169 184.8405105 -15.42976453 183.3907241 -15.3671875 180.13671875 C-13.5836516 173.00257515 -9.93274718 168.59224637 -4.3125 164.0546875 C10.42508916 150.99877345 18.33285421 132.63177327 19.5703125 113.38671875 C20.50360471 94.55838177 17.60319682 76.95429177 13.12255859 58.71386719 C12.68710853 56.87889372 12.31430522 55.02905432 11.96484375 53.17578125 C9.67197461 41.97002983 1.86855639 30.10311582 -6.4296875 22.38671875 C-6.95691406 21.78988281 -7.48414063 21.19304687 -8.02734375 20.578125 C-17.71014527 9.81084971 -34.10843005 4.75913386 -48.26953125 3.9375 C-79.4389741 2.99638771 -107.33248883 9.47914096 -128.4296875 33.38671875 Z " fill="#000000" transform="translate(247.4296875,72.61328125)"/>
<path d="M0 0 C2.78125 2.14453125 2.78125 2.14453125 5.5 4.8125 C9.14818922 8.36109784 12.77125337 11.18274042 17 14 C19.046875 16 19.046875 16 20.75 18 C21.32234375 18.66 21.8946875 19.32 22.484375 20 C23.94647813 21.9293732 24.99908341 23.80190866 26 26 C26.66 26 27.32 26 28 26 C28 26.66 28 27.32 28 28 C28.66 28 29.32 28 30 28 C34 32.47058824 34 32.47058824 34 35 C34.66 35 35.32 35 36 35 C36 35.66 36 36.32 36 37 C36.66 37 37.32 37 38 37 C39.69140625 38.64453125 39.69140625 38.64453125 41.5625 40.8125 C42.49255859 41.87404297 42.49255859 41.87404297 43.44140625 42.95703125 C45 45 45 45 46 48 C46.66 48 47.32 48 48 48 C49.4453125 49.43359375 49.4453125 49.43359375 51.125 51.4375 C51.74246094 52.16324219 52.35992187 52.88898438 52.99609375 53.63671875 C53.65738281 54.41660156 54.31867188 55.19648438 55 56 C56.39085982 57.58770404 57.78665267 59.17110105 59.1875 60.75 C59.82042969 61.46671875 60.45335937 62.1834375 61.10546875 62.921875 C62.34930315 64.28624593 63.63447526 65.61425294 64.9609375 66.8984375 C67.83943017 69.86515983 70.19286362 73.16787998 72.62475586 76.50341797 C74.62973731 79.23231678 76.66343618 81.73964511 79.0625 84.125 C81.52489996 87.7788838 81.72026135 90.33749715 81.48046875 94.6796875 C80.72408666 98.33245957 78.88557057 99.72838062 76 102 C74.97097235 103.07555284 73.95084587 104.15965971 72.9375 105.25 C65.39891458 112.74036419 56.32176588 118.49244567 47.5625 124.4375 C35.23864173 132.81399536 23.79278605 141.70402474 13 152 C12.4121875 152.52980469 11.824375 153.05960938 11.21875 153.60546875 C9.6950709 155.13875212 9.6950709 155.13875212 9.125 158.375 C7.50157236 163.60604463 4.7355942 165.85608564 0.25 168.8125 C-3.94029438 170.3435691 -7.59466594 170.89242495 -12 170 C-14.75569447 167.81840855 -16.43588747 166.12822506 -18 163 C-18.2430836 158.05730019 -18.25495121 154.50990242 -16 150 C-17.3921875 149.6596875 -17.3921875 149.6596875 -18.8125 149.3125 C-22.64880489 147.73284504 -23.28012537 146.70273589 -25 143 C-25.22045898 140.04907227 -25.22045898 140.04907227 -25.05859375 136.75390625 C-24.93909297 131.31838854 -25.20227683 126.16528553 -25.91015625 120.77734375 C-26.04802299 119.71444878 -26.04802299 119.71444878 -26.18867493 118.63008118 C-26.38080771 117.1586435 -26.57394516 115.6873367 -26.76803589 114.21615601 C-29.72618528 91.32506466 -29.10458938 69.31584224 -25.7578125 46.45703125 C-24.82983132 40.05211898 -24.2551551 33.62321229 -23.73461914 27.17382812 C-23.37009119 22.93173608 -22.8789113 18.72212235 -22.19140625 14.51953125 C-22.06064697 13.70202393 -21.9298877 12.8845166 -21.79516602 12.04223633 C-21 10 -21 10 -19.17553711 8.7175293 C-17 8 -17 8 -13 8 C-12.773125 7.071875 -12.54625 6.14375 -12.3125 5.1875 C-11 2 -11 2 -8.75 0.0625 C-5.24978558 -1.28985557 -3.60965953 -0.98687736 0 0 Z " fill="#000000" transform="translate(359,189)"/>
<path d="M0 0 C2.94496107 2.76647858 5.46838969 5.56637446 7.875 8.8125 C12.01328675 14.25139115 16.73773708 19.09889965 21.44091797 24.04394531 C25.64880567 28.49171508 29.56225383 33.05556705 33.30859375 37.90234375 C35.45473662 40.56395743 37.82373087 42.90979071 40.27734375 45.28515625 C44.33786238 49.32725983 47.99318266 53.76122262 51.625 58.1875 C53.91687547 60.99410445 53.91687547 60.99410445 56.375 63.3125 C59.92757159 66.94965662 62.93716758 70.94858766 66 75 C62.06498127 79.2111604 57.80150792 82.42645982 53.0625 85.6875 C51.53628621 86.75235751 50.01024698 87.81746526 48.484375 88.8828125 C47.34838867 89.67220215 47.34838867 89.67220215 46.18945312 90.47753906 C38.1587135 96.06180449 30.21845832 101.73901102 22.5 107.75 C21.93643799 108.18578369 21.37287598 108.62156738 20.79223633 109.07055664 C17.91001462 111.34115034 15.27283385 113.69055414 12.71875 116.328125 C10 119 10 119 8 119 C8 119.66 8 120.32 8 121 C6.03852126 122.38938077 4.03833424 123.7260411 2 125 C-4.01957886 87.57615012 -4.07147253 51.51911147 -0.45727539 13.83140564 C-0.0309469 9.19533372 0.0543958 4.64954575 0 0 Z " fill="#FFFFFF" transform="translate(350,204)"/>
</svg>
