<?xml version="1.0" encoding="UTF-8"?>
<svg version="1.1" xmlns="http://www.w3.org/2000/svg" width="500" height="500">
<path d="M0 0 C0.99 0.66 1.98 1.32 3 2 C3.66 1.34 4.32 0.68 5 0 C13.29962463 -1.05392059 18.07193881 1.66671828 25 6 C26.21968914 6.74668693 27.43976144 7.49274823 28.66015625 8.23828125 C39.85736799 15.12736577 50.97145079 22.20951989 61.84375 29.6015625 C70.64487595 35.58370369 79.64675708 40.92815762 89 46 C89.90991699 46.4940332 90.81983398 46.98806641 91.75732422 47.49707031 C95.83554642 49.70955804 99.91517437 51.91939525 103.99804688 54.12329102 C110.90882476 57.85535118 117.78901916 61.63687532 124.63549805 65.4855957 C128.08343458 67.41539639 131.54100677 69.292924 135.078125 71.0546875 C151.88037985 79.47184379 167.13061016 90.67160271 181.86547852 102.2824707 C185.73739067 105.27975083 189.3172147 107.47947207 194 109 C196.28532712 108.68632057 196.28532712 108.68632057 198.125 107.4375 C198.79015625 107.04820312 199.4553125 106.65890625 200.140625 106.2578125 C202.54287802 104.63275899 204.79389903 102.88167436 207 101 C210.73700169 99.13149916 214.93065225 99.45783575 219 100 C221.93835112 101.30788882 222.85011181 102.4091091 225 105 C226.0125159 108.54380566 226.2032616 110.95828429 225.5 114.5625 C222.79181173 118.96330595 218.79072861 122.00052357 214.3125 124.5 C211.2752792 126.47008917 209.93074341 128.97516866 208 132 C205 134 205 134 201.1171875 133.6171875 C193.95354079 133.47547628 188.73171385 138.15944329 183.125 142.125 C181.92670726 142.95060143 180.72739524 143.77472529 179.52709961 144.59741211 C169.51402791 151.49577841 159.69843985 158.66721303 150 166 C148.91210782 166.81467012 147.82362301 167.62854982 146.734375 168.44140625 C143.81787599 170.62098238 140.90819669 172.80936098 138 175 C119.18576077 189.16583004 100.20758813 203.10273374 81.10083008 216.87133789 C77.23727209 219.65611799 73.38105765 222.44972815 69.54296875 225.26953125 C58.62330964 233.26971494 47.4265334 240.74437811 36 248 C35.38286133 248.39558105 34.76572266 248.79116211 34.12988281 249.19873047 C26.29007353 254.21848082 18.2001378 258.63584792 9.9453125 262.921875 C8.62913131 263.61253474 7.31400876 264.30521602 6 265 C4.99924438 265.52678345 4.99924438 265.52678345 3.97827148 266.06420898 C-0.13909482 268.30665149 -1.52053363 269.56160088 -3 274 C-5.84907551 277.17781499 -8.72858993 277.41758145 -12.90234375 277.69140625 C-16.40375185 276.53731084 -18.30163093 274.14276279 -20 271 C-20.7745823 267.16320586 -20.7835971 263.37585674 -20.80200195 259.47045898 C-20.82599469 258.32747817 -20.84998743 257.18449736 -20.87470722 256.00688076 C-20.94329504 252.33775265 -20.97477699 248.6696628 -21 245 C-21.02759311 242.64404997 -21.05545342 240.28810305 -21.08358765 237.93215942 C-21.15689525 230.44561142 -21.1658725 222.9595126 -21.16796875 215.47265625 C-21.16940003 214.10329101 -21.17099766 212.73392594 -21.17275429 211.36456108 C-21.18192262 204.19184839 -21.18610012 197.0191539 -21.18530273 189.84643555 C-21.18477053 184.00656381 -21.1918318 178.16675902 -21.20581055 172.3269043 C-21.35268832 109.53243332 -21.35268832 109.53243332 -19 81 C-18.88907516 79.57229782 -18.88907516 79.57229782 -18.77590942 78.11575317 C-18.38949288 73.15366858 -17.93960221 68.20194979 -17.4375 63.25 C-17.31181641 61.9403125 -17.18613281 60.630625 -17.05664062 59.28125 C-16.60279808 54.6240176 -16.1433339 49.9865522 -15.47045898 45.35522461 C-15.11502321 42.82032378 -14.85993251 40.41362645 -14.7890625 37.86328125 C-14.47768512 29.17527914 -13.85057048 20.61124524 -12.625 12 C-12.5110791 11.14575439 -12.3971582 10.29150879 -12.27978516 9.41137695 C-12.15909668 8.61562256 -12.0384082 7.81986816 -11.9140625 7 C-11.8104541 6.29875 -11.7068457 5.5975 -11.60009766 4.875 C-10.86095927 2.56556843 -9.84467153 1.54421584 -8 0 C-5.08931154 -1.45534423 -3.1172005 -0.69977971 0 0 Z " fill="#FEFEFE" transform="translate(170,108)"/>
<path d="M0 0 C0.99 0.66 1.98 1.32 3 2 C3.66 1.34 4.32 0.68 5 0 C13.29962463 -1.05392059 18.07193881 1.66671828 25 6 C26.21968914 6.74668693 27.43976144 7.49274823 28.66015625 8.23828125 C39.85736799 15.12736577 50.97145079 22.20951989 61.84375 29.6015625 C70.64487595 35.58370369 79.64675708 40.92815762 89 46 C89.90991699 46.4940332 90.81983398 46.98806641 91.75732422 47.49707031 C95.83554642 49.70955804 99.91517437 51.91939525 103.99804688 54.12329102 C110.90882476 57.85535118 117.78901916 61.63687532 124.63549805 65.4855957 C128.08343458 67.41539639 131.54100677 69.292924 135.078125 71.0546875 C151.88037985 79.47184379 167.13061016 90.67160271 181.86547852 102.2824707 C185.73739067 105.27975083 189.3172147 107.47947207 194 109 C196.28532712 108.68632057 196.28532712 108.68632057 198.125 107.4375 C198.79015625 107.04820312 199.4553125 106.65890625 200.140625 106.2578125 C202.54287802 104.63275899 204.79389903 102.88167436 207 101 C210.73700169 99.13149916 214.93065225 99.45783575 219 100 C221.93835112 101.30788882 222.85011181 102.4091091 225 105 C226.0125159 108.54380566 226.2032616 110.95828429 225.5 114.5625 C222.79181173 118.96330595 218.79072861 122.00052357 214.3125 124.5 C211.2752792 126.47008917 209.93074341 128.97516866 208 132 C205 134 205 134 201.1171875 133.6171875 C193.95354079 133.47547628 188.73171385 138.15944329 183.125 142.125 C181.92670726 142.95060143 180.72739524 143.77472529 179.52709961 144.59741211 C169.51402791 151.49577841 159.69843985 158.66721303 150 166 C148.91210782 166.81467012 147.82362301 167.62854982 146.734375 168.44140625 C143.81787599 170.62098238 140.90819669 172.80936098 138 175 C119.18576077 189.16583004 100.20758813 203.10273374 81.10083008 216.87133789 C77.23727209 219.65611799 73.38105765 222.44972815 69.54296875 225.26953125 C58.62330964 233.26971494 47.4265334 240.74437811 36 248 C35.38286133 248.39558105 34.76572266 248.79116211 34.12988281 249.19873047 C26.29007353 254.21848082 18.2001378 258.63584792 9.9453125 262.921875 C8.62913131 263.61253474 7.31400876 264.30521602 6 265 C4.99924438 265.52678345 4.99924438 265.52678345 3.97827148 266.06420898 C-0.13909482 268.30665149 -1.52053363 269.56160088 -3 274 C-5.84907551 277.17781499 -8.72858993 277.41758145 -12.90234375 277.69140625 C-16.40375185 276.53731084 -18.30163093 274.14276279 -20 271 C-20.7745823 267.16320586 -20.7835971 263.37585674 -20.80200195 259.47045898 C-20.82599469 258.32747817 -20.84998743 257.18449736 -20.87470722 256.00688076 C-20.94329504 252.33775265 -20.97477699 248.6696628 -21 245 C-21.02759311 242.64404997 -21.05545342 240.28810305 -21.08358765 237.93215942 C-21.15689525 230.44561142 -21.1658725 222.9595126 -21.16796875 215.47265625 C-21.16940003 214.10329101 -21.17099766 212.73392594 -21.17275429 211.36456108 C-21.18192262 204.19184839 -21.18610012 197.0191539 -21.18530273 189.84643555 C-21.18477053 184.00656381 -21.1918318 178.16675902 -21.20581055 172.3269043 C-21.35268832 109.53243332 -21.35268832 109.53243332 -19 81 C-18.88907516 79.57229782 -18.88907516 79.57229782 -18.77590942 78.11575317 C-18.38949288 73.15366858 -17.93960221 68.20194979 -17.4375 63.25 C-17.31181641 61.9403125 -17.18613281 60.630625 -17.05664062 59.28125 C-16.60279808 54.6240176 -16.1433339 49.9865522 -15.47045898 45.35522461 C-15.11502321 42.82032378 -14.85993251 40.41362645 -14.7890625 37.86328125 C-14.47768512 29.17527914 -13.85057048 20.61124524 -12.625 12 C-12.5110791 11.14575439 -12.3971582 10.29150879 -12.27978516 9.41137695 C-12.15909668 8.61562256 -12.0384082 7.81986816 -11.9140625 7 C-11.8104541 6.29875 -11.7068457 5.5975 -11.60009766 4.875 C-10.86095927 2.56556843 -9.84467153 1.54421584 -8 0 C-5.08931154 -1.45534423 -3.1172005 -0.69977971 0 0 Z M3 14 C2.98018066 14.74870361 2.96036133 15.49740723 2.93994141 16.26879883 C2.24384558 41.38016718 2.24384558 41.38016718 1.0625 51.1875 C0.05314347 59.68949744 -0.53726466 68.20670115 -1.0625 76.75 C-1.14169678 77.99031982 -1.22089355 79.23063965 -1.30249023 80.50854492 C-1.56979568 85.00449355 -1.79289094 89.50093476 -2 94 C-2.04483521 94.93175049 -2.08967041 95.86350098 -2.13586426 96.82348633 C-3.39459878 124.17881685 -3.15317315 151.56989521 -3.1285693 178.9467566 C-3.12420621 184.37459252 -3.12734565 189.80240539 -3.1321975 195.23023987 C-3.13728725 201.16604893 -3.13674501 207.10184776 -3.13381577 213.03765869 C-3.13315116 215.53826909 -3.13395853 218.03888035 -3.13629532 220.53948975 C-3.13883567 224.01202665 -3.13496485 227.48449915 -3.12939453 230.95703125 C-3.13141876 231.97719833 -3.13344299 232.99736542 -3.13552856 234.04844666 C-3.12039908 239.1417057 -2.87875529 243.98053494 -2 249 C1.47016167 247.74449061 4.13425334 246.33633445 7.00390625 244.0234375 C7.73851074 243.43900879 8.47311523 242.85458008 9.22998047 242.25244141 C9.99971191 241.63288574 10.76944336 241.01333008 11.5625 240.375 C18.51490442 234.87212083 25.5267482 229.77780737 33 225 C47.13363075 215.86065651 60.50153119 205.65455947 73.94262695 195.5378418 C79.08028591 191.67519437 84.25552268 187.86540271 89.4375 184.0625 C96.21293763 179.08729942 102.91590468 174.02846552 109.5769043 168.90136719 C115.71441679 164.18933685 121.94066014 159.60354313 128.18212891 155.03051758 C132.79624477 151.64376223 137.36059115 148.20580756 141.875 144.6875 C149.18186002 139.02908242 156.73113802 133.76140995 164.484375 128.73046875 C165.58265625 128.01503906 166.6809375 127.29960937 167.8125 126.5625 C168.80894531 125.92441406 169.80539062 125.28632813 170.83203125 124.62890625 C171.90517578 123.82259766 171.90517578 123.82259766 173 123 C173 122.34 173 121.68 173 121 C171.13891332 119.48610764 169.28175769 118.11258358 167.3125 116.75 C166.69600586 116.31816406 166.07951172 115.88632813 165.44433594 115.44140625 C163.30317156 113.95062969 161.15244396 112.47444018 159 111 C157.79512939 110.16952148 157.79512939 110.16952148 156.56591797 109.32226562 C144.71965654 101.18323007 132.71419307 93.70079769 120 87 C119.21882813 86.5879834 118.43765625 86.1759668 117.6328125 85.75146484 C114.41152647 84.05546818 111.18859346 82.36269581 107.9621582 80.67651367 C102.29428697 77.70740726 96.69795405 74.63147258 91.13720703 71.46679688 C87.43831705 69.36366899 83.72291174 67.29825879 79.98046875 65.2734375 C70.67158818 60.23283236 61.65353572 55.11760531 53 49 C52.16726562 48.41734375 51.33453125 47.8346875 50.4765625 47.234375 C48.8230699 46.07640857 47.17202815 44.91493472 45.5234375 43.75 C42.92280469 41.94646517 40.27861472 40.22447792 37.625 38.5 C30.93570196 34.07811337 24.57423516 29.23626759 18.20556641 24.3671875 C13.27919669 20.62155014 8.30170248 17.19445898 3 14 Z " fill="#000000" transform="translate(170,108)"/>
</svg>
