<?xml version="1.0" encoding="UTF-8"?>
<svg version="1.1" xmlns="http://www.w3.org/2000/svg" width="500" height="500">
<path d="M0 0 C0.65097656 0.69480469 1.30195313 1.38960937 1.97265625 2.10546875 C2.64167969 2.73066406 3.31070313 3.35585937 4 4 C6.59140141 3.78009426 6.59140141 3.78009426 9.3125 2.6875 C22.084693 -0.93515838 32.09091732 1.54273529 43.30859375 7.796875 C48.86229601 11.04879842 54.43060256 14.43060256 59 19 C59.68964844 18.54109375 60.37929688 18.0821875 61.08984375 17.609375 C76.00608033 7.86982958 76.00608033 7.86982958 81.875 8.125 C84 9 84 9 87 11 C87.71944007 13.97368562 88.18953754 16.02662982 88 19 C85.48566677 22.62063984 81.64791759 24.59237439 78 27 C75.95624024 28.62107308 73.98122694 30.30180548 72 32 C72.43570313 32.66902344 72.87140625 33.33804688 73.3203125 34.02734375 C77.03012454 40.00961641 79.94928484 45.88195121 82.3125 52.5 C82.55436035 53.16249756 82.7962207 53.82499512 83.04541016 54.50756836 C89.50011932 73.35995886 89.84668004 97.97246533 84 117 C83.64542725 118.15653076 83.64542725 118.15653076 83.28369141 119.33642578 C79.90102238 130.1489228 76.00936309 140.35097908 70 150 C69.12794922 151.40958984 69.12794922 151.40958984 68.23828125 152.84765625 C52.79779871 175.86271513 22.49372462 189.11226256 -3.81640625 194.5859375 C-19.38660332 196.61101835 -34.06461899 194.4288118 -48.875 189.625 C-50.23214111 189.18692017 -50.23214111 189.18692017 -51.61669922 188.73999023 C-56.65614903 187.0347124 -60.72923914 185.17368467 -65 182 C-66.485 181.01 -66.485 181.01 -68 180 C-68 179.34 -68 178.68 -68 178 C-68.66 178 -69.32 178 -70 178 C-82.38539008 164.17952693 -85.9778289 143.69792481 -85.34375 125.6328125 C-84.31342287 108.74280706 -79.9387069 92.76087405 -74 77 C-73.67451172 76.13181641 -73.34902344 75.26363281 -73.01367188 74.36914062 C-68.93192574 63.59365034 -64.39577594 53.18452709 -59 43 C-58.34 43 -57.68 43 -57 43 C-56.731875 42.2575 -56.46375 41.515 -56.1875 40.75 C-55.04723249 38.10938051 -53.90619694 36.14447156 -52 34 C-51.34 34 -50.68 34 -50 34 C-49.71125 33.401875 -49.4225 32.80375 -49.125 32.1875 C-48 30 -48 30 -46 27 C-45.34 27 -44.68 27 -44 27 C-43.9071875 26.1646875 -43.9071875 26.1646875 -43.8125 25.3125 C-40.44711023 15.73408298 -24.68784538 6.48506097 -16 2 C-11.0440919 -0.27145788 -5.3858717 -1.04873409 0 0 Z M17 18 C17 18.66 17 19.32 17 20 C19.44859192 22.34213141 20.93711316 23.74577745 24 25 C27.50176002 24.84244621 30.66596211 24.05320714 34 23 C28.5321733 18.72643095 23.93902785 17.72243889 17 18 Z M-12 32 C-12.99 32.66 -13.98 33.32 -15 34 C-17.32387947 34.39387788 -19.65793749 34.73486085 -22 35 C-22.33 35.99 -22.66 36.98 -23 38 C-20.69 39.98 -18.38 41.96 -16 44 C-15.13624104 42.38007835 -14.28424146 40.75388139 -13.4375 39.125 C-12.96183594 38.22007812 -12.48617187 37.31515625 -11.99609375 36.3828125 C-11.66738281 35.59648437 -11.33867187 34.81015625 -11 34 C-11.33 33.34 -11.66 32.68 -12 32 Z M35.375 58.9375 C33.18933579 61.14579013 32.11270493 62.39120073 31.54296875 65.46875 C31.56050741 67.68563657 31.68663242 69.80642691 32 72 C34.40072955 69.11912454 36.47291037 66.43595166 38 63 C38.66 63 39.32 63 40 63 C42.30671915 60.28450846 42.30671915 60.28450846 41.625 57.8125 C41.41875 57.214375 41.2125 56.61625 41 56 C38.22057231 56 37.41286244 57.08832852 35.375 58.9375 Z M-32.3125 76.6875 C-34.69604071 79.95383357 -34.84339223 83.08480573 -35 87 C-35.03996094 87.73089844 -35.07992187 88.46179688 -35.12109375 89.21484375 C-35.33841038 96.89762574 -34.13160827 104.42226606 -33 112 C-29.68341725 108.68341725 -28.5833117 104.20887267 -26.9375 99.875 C-26.57333984 98.94945312 -26.20917969 98.02390625 -25.83398438 97.0703125 C-23.12190882 89.97179311 -21.81809647 83.64182606 -21.9375 76 C-21.94652344 75.236875 -21.95554687 74.47375 -21.96484375 73.6875 C-21.97644531 73.130625 -21.98804688 72.57375 -22 72 C-25.95042018 72 -29.20890961 74.42271782 -32.3125 76.6875 Z M69 73 C70 75 70 75 70 75 Z M69 94 C69 96.97 69 99.94 69 103 C69.33 103 69.66 103 70 103 C70 100.03 70 97.06 70 94 C69.67 94 69.34 94 69 94 Z M68 105 C69 107 69 107 69 107 Z M-64 151 C-63.4509121 157.86359876 -61.47044536 161.86643355 -56.25 166.375 C-55.13625 167.179375 -55.13625 167.179375 -54 168 C-56.37672759 158.64908494 -56.37672759 158.64908494 -62.1875 151.625 C-62.785625 151.41875 -63.38375 151.2125 -64 151 Z M-42 159 C-41.34 160.32 -40.68 161.64 -40 163 C-39.34 162.67 -38.68 162.34 -38 162 C-38.66 161.01 -39.32 160.02 -40 159 C-40.66 159 -41.32 159 -42 159 Z M-38 163 C-37.67 163.99 -37.34 164.98 -37 166 C-36.34 165.67 -35.68 165.34 -35 165 C-35.99 164.34 -36.98 163.68 -38 163 Z M-27 178 C-22.71 178 -18.42 178 -14 178 C-14 177.01 -14 176.02 -14 175 C-19.6083384 172.1958308 -22.30914679 174.24731743 -27 178 Z " fill="#000000" transform="translate(249,178)"/>
</svg>
