<?xml version="1.0" encoding="UTF-8"?>
<svg version="1.1" xmlns="http://www.w3.org/2000/svg" width="500" height="500">
<path d="M0 0 C2.60480588 2.12357903 5.00964953 4.28078879 7 7 C7 7.66 7 8.32 7 9 C7.66 9 8.32 9 9 9 C15.79391576 23.01512183 20.17549986 35.33681469 14.8671875 50.83203125 C13.74047377 53.64881558 12.46722807 56.34501587 11 59 C11.66644531 59.35191406 12.33289063 59.70382813 13.01953125 60.06640625 C20.95199002 64.31554151 28.51524464 69.01016309 36 74 C36.2784375 73.28328125 36.556875 72.5665625 36.84375 71.828125 C37.96828275 69.07757868 39.19046718 66.41697537 40.5 63.75 C40.9228125 62.87859375 41.345625 62.0071875 41.78125 61.109375 C43 59 43 59 45 58 C50.83512056 57.23290143 54.03988144 59.44207603 58.6875 62.5625 C59.38431885 63.01560547 60.0811377 63.46871094 60.79907227 63.93554688 C62.20588243 64.85066111 63.60950367 65.77069788 65.00976562 66.69580078 C66.80914708 67.87493422 68.62276749 69.02211416 70.453125 70.15234375 C77.87304502 74.74609005 77.87304502 74.74609005 79 77 C79.039992 78.99960012 79.04346799 81.00047242 79 83 C78.360625 83.2475 77.72125 83.495 77.0625 83.75 C74.83587721 84.77781025 74.83587721 84.77781025 74.48657227 86.83935547 C74.32600342 87.55236816 74.16543457 88.26538086 74 89 C73.42127817 90.29075131 72.80319411 91.56438586 72.15234375 92.8203125 C71.79462891 93.52027344 71.43691406 94.22023438 71.06835938 94.94140625 C70.69517578 95.66199219 70.32199219 96.38257813 69.9375 97.125 C67.15444335 101.83768302 67.15444335 101.83768302 66 107 C66.86613355 108.10722227 67.76903639 109.18578524 68.6875 110.25 C77.70050254 121.9987139 80.25643456 139.44641338 83.49584961 153.6784668 C84.54070971 158.22024188 85.7656939 162.6644622 87.125 167.125 C95.65577498 196.72982384 90.3582555 238.73105154 76 266 C71.66636128 273.32432566 66.58090936 279.93502324 61.11328125 286.44140625 C58.66127093 289.41010636 56.40591844 292.48845213 54.19140625 295.63671875 C53.60166016 296.31154297 53.60166016 296.31154297 53 297 C52.34 297 51.68 297 51 297 C50.62875 297.86818359 50.62875 297.86818359 50.25 298.75390625 C39.87990152 317.38767696 9.38820443 331.26090394 -10 337 C-29.81678929 342.42577332 -51.02734746 342.97123799 -71 338 C-71.72687012 337.82259277 -72.45374023 337.64518555 -73.20263672 337.46240234 C-103.26137501 329.81309251 -134.90040841 310.31933407 -152 284 C-152.68642578 282.98075439 -152.68642578 282.98075439 -153.38671875 281.94091797 C-171.81049058 254.5716708 -178.98790672 225.86522094 -173 193 C-169.49527843 177.34117985 -164.4190433 161.0302998 -156.85400391 146.83520508 C-155.95901243 144.91192007 -155.44957519 143.0687885 -155 141 C-154.34 141 -153.68 141 -153 141 C-152.87753906 140.43796875 -152.75507813 139.8759375 -152.62890625 139.296875 C-151.9480131 136.81013481 -151.00647675 134.59485224 -149.9375 132.25 C-149.39416016 131.05117188 -149.39416016 131.05117188 -148.83984375 129.828125 C-148.56269531 129.22484375 -148.28554687 128.6215625 -148 128 C-147.34 128 -146.68 128 -146 128 C-146 127.01 -146 126.02 -146 125 C-145.34 125 -144.68 125 -144 125 C-143.7525 124.443125 -143.505 123.88625 -143.25 123.3125 C-141.78393985 120.60028873 -139.97010529 118.36412635 -138 116 C-139.4987414 111.08081812 -142.34948908 108.0763833 -145.8125 104.4375 C-146.33392578 103.87353516 -146.85535156 103.30957031 -147.39257812 102.72851562 C-150.40711773 99.51074863 -153.53733902 96.7415323 -157 94 C-158.54586876 90.90826248 -158.29359521 88.40570448 -158 85 C-156.125 82.5625 -156.125 82.5625 -154 81 C-153.34 81 -152.68 81 -152 81 C-152 80.34 -152 79.68 -152 79 C-149.69915172 77.28035558 -147.40338718 75.6892539 -145 74.125 C-144.02740234 73.47337891 -144.02740234 73.47337891 -143.03515625 72.80859375 C-129.91169084 64.15490269 -129.91169084 64.15490269 -121.98046875 64.55078125 C-120 65 -120 65 -117.5625 67.125 C-115.97961285 70.03751235 -114.89016617 72.81023789 -114 76 C-113.34 76 -112.68 76 -112 76 C-110.4921875 77.75 -110.4921875 77.75 -108.875 80 C-108.33617187 80.7425 -107.79734375 81.485 -107.2421875 82.25 C-106.83226562 82.8275 -106.42234375 83.405 -106 84 C-105.36835938 83.5875 -104.73671875 83.175 -104.0859375 82.75 C-94.04820246 76.27030937 -83.77796581 70.17342359 -73 65 C-73.48210937 64.20078125 -73.96421875 63.4015625 -74.4609375 62.578125 C-82.13540179 49.23395444 -84.64414472 33.21314504 -81.20703125 17.9921875 C-79.44994282 11.8659405 -79.44994282 11.8659405 -78 9 C-77.01 8.67 -76.02 8.34 -75 8 C-74.67 7.01 -74.34 6.02 -74 5 C-53.71694427 -10.31449324 -21.94789833 -14.10936321 0 0 Z " fill="#FDFDFD" transform="translate(278,55)"/>
<path d="M0 0 C2.60480588 2.12357903 5.00964953 4.28078879 7 7 C7 7.66 7 8.32 7 9 C7.66 9 8.32 9 9 9 C15.79391576 23.01512183 20.17549986 35.33681469 14.8671875 50.83203125 C13.74047377 53.64881558 12.46722807 56.34501587 11 59 C11.66644531 59.35191406 12.33289063 59.70382813 13.01953125 60.06640625 C20.95199002 64.31554151 28.51524464 69.01016309 36 74 C36.2784375 73.28328125 36.556875 72.5665625 36.84375 71.828125 C37.96828275 69.07757868 39.19046718 66.41697537 40.5 63.75 C40.9228125 62.87859375 41.345625 62.0071875 41.78125 61.109375 C43 59 43 59 45 58 C50.83512056 57.23290143 54.03988144 59.44207603 58.6875 62.5625 C59.38431885 63.01560547 60.0811377 63.46871094 60.79907227 63.93554688 C62.20588243 64.85066111 63.60950367 65.77069788 65.00976562 66.69580078 C66.80914708 67.87493422 68.62276749 69.02211416 70.453125 70.15234375 C77.87304502 74.74609005 77.87304502 74.74609005 79 77 C79.039992 78.99960012 79.04346799 81.00047242 79 83 C78.360625 83.2475 77.72125 83.495 77.0625 83.75 C74.83587721 84.77781025 74.83587721 84.77781025 74.48657227 86.83935547 C74.32600342 87.55236816 74.16543457 88.26538086 74 89 C73.42127817 90.29075131 72.80319411 91.56438586 72.15234375 92.8203125 C71.79462891 93.52027344 71.43691406 94.22023438 71.06835938 94.94140625 C70.69517578 95.66199219 70.32199219 96.38257813 69.9375 97.125 C67.15444335 101.83768302 67.15444335 101.83768302 66 107 C66.86613355 108.10722227 67.76903639 109.18578524 68.6875 110.25 C77.70050254 121.9987139 80.25643456 139.44641338 83.49584961 153.6784668 C84.54070971 158.22024188 85.7656939 162.6644622 87.125 167.125 C95.65577498 196.72982384 90.3582555 238.73105154 76 266 C71.66636128 273.32432566 66.58090936 279.93502324 61.11328125 286.44140625 C58.66127093 289.41010636 56.40591844 292.48845213 54.19140625 295.63671875 C53.60166016 296.31154297 53.60166016 296.31154297 53 297 C52.34 297 51.68 297 51 297 C50.62875 297.86818359 50.62875 297.86818359 50.25 298.75390625 C39.87990152 317.38767696 9.38820443 331.26090394 -10 337 C-29.81678929 342.42577332 -51.02734746 342.97123799 -71 338 C-71.72687012 337.82259277 -72.45374023 337.64518555 -73.20263672 337.46240234 C-103.26137501 329.81309251 -134.90040841 310.31933407 -152 284 C-152.68642578 282.98075439 -152.68642578 282.98075439 -153.38671875 281.94091797 C-171.81049058 254.5716708 -178.98790672 225.86522094 -173 193 C-169.49527843 177.34117985 -164.4190433 161.0302998 -156.85400391 146.83520508 C-155.95901243 144.91192007 -155.44957519 143.0687885 -155 141 C-154.34 141 -153.68 141 -153 141 C-152.87753906 140.43796875 -152.75507813 139.8759375 -152.62890625 139.296875 C-151.9480131 136.81013481 -151.00647675 134.59485224 -149.9375 132.25 C-149.39416016 131.05117188 -149.39416016 131.05117188 -148.83984375 129.828125 C-148.56269531 129.22484375 -148.28554687 128.6215625 -148 128 C-147.34 128 -146.68 128 -146 128 C-146 127.01 -146 126.02 -146 125 C-145.34 125 -144.68 125 -144 125 C-143.7525 124.443125 -143.505 123.88625 -143.25 123.3125 C-141.78393985 120.60028873 -139.97010529 118.36412635 -138 116 C-139.4987414 111.08081812 -142.34948908 108.0763833 -145.8125 104.4375 C-146.33392578 103.87353516 -146.85535156 103.30957031 -147.39257812 102.72851562 C-150.40711773 99.51074863 -153.53733902 96.7415323 -157 94 C-158.54586876 90.90826248 -158.29359521 88.40570448 -158 85 C-156.125 82.5625 -156.125 82.5625 -154 81 C-153.34 81 -152.68 81 -152 81 C-152 80.34 -152 79.68 -152 79 C-149.69915172 77.28035558 -147.40338718 75.6892539 -145 74.125 C-144.02740234 73.47337891 -144.02740234 73.47337891 -143.03515625 72.80859375 C-129.91169084 64.15490269 -129.91169084 64.15490269 -121.98046875 64.55078125 C-120 65 -120 65 -117.5625 67.125 C-115.97961285 70.03751235 -114.89016617 72.81023789 -114 76 C-113.34 76 -112.68 76 -112 76 C-110.4921875 77.75 -110.4921875 77.75 -108.875 80 C-108.33617187 80.7425 -107.79734375 81.485 -107.2421875 82.25 C-106.83226562 82.8275 -106.42234375 83.405 -106 84 C-105.36835938 83.5875 -104.73671875 83.175 -104.0859375 82.75 C-94.04820246 76.27030937 -83.77796581 70.17342359 -73 65 C-73.48210937 64.20078125 -73.96421875 63.4015625 -74.4609375 62.578125 C-82.13540179 49.23395444 -84.64414472 33.21314504 -81.20703125 17.9921875 C-79.44994282 11.8659405 -79.44994282 11.8659405 -78 9 C-77.01 8.67 -76.02 8.34 -75 8 C-74.67 7.01 -74.34 6.02 -74 5 C-53.71694427 -10.31449324 -21.94789833 -14.10936321 0 0 Z M-77 97 C-79.04538717 99.44807276 -80.99080912 101.89614013 -82.8359375 104.49609375 C-84 106 -84 106 -86 107 C-89.4375 107.3125 -89.4375 107.3125 -93 107 C-95.87637713 104.41126058 -96.47765853 101.76085859 -97 98 C-100.23048748 99.4199255 -102.38242488 101.13619387 -104.86328125 103.6328125 C-105.58580078 104.35726562 -106.30832031 105.08171875 -107.05273438 105.828125 C-107.79845703 106.58609375 -108.54417969 107.3440625 -109.3125 108.125 C-110.04662109 108.85976562 -110.78074219 109.59453125 -111.53710938 110.3515625 C-115.6125125 114.459511 -119.5458664 118.64709152 -123.30761719 123.04443359 C-124.43204951 124.34372715 -125.58274559 125.62076481 -126.75878906 126.87353516 C-131.72614546 132.23175201 -135.15312091 138.06034556 -138.5625 144.5 C-139.1304126 145.56444336 -139.6983252 146.62888672 -140.28344727 147.72558594 C-144.6120995 155.97717679 -148.17871865 164.12169478 -151 173 C-151.25861816 173.77794922 -151.51723633 174.55589844 -151.78369141 175.35742188 C-160.09910364 200.43580461 -163.69527342 228.97042738 -151.7578125 253.55859375 C-144.46523436 267.42273242 -136.30660304 282.09904957 -124 292 C-123.02675781 292.78632813 -122.05351562 293.57265625 -121.05078125 294.3828125 C-98.80412777 312.06885081 -72.80716387 325.46408234 -43.875 325.3125 C-42.77841064 325.30831055 -41.68182129 325.30412109 -40.55200195 325.29980469 C-8.87491207 324.86207643 17.03362664 309.91530868 39.5546875 288.5234375 C43.05661934 284.90962286 46.07162279 281.08333514 49 277 C50.14536174 275.52046813 51.29117509 274.04128573 52.4375 272.5625 C54.52789037 270.06456031 54.52789037 270.06456031 55 267 C55.66 267 56.32 267 57 267 C72.84351022 245.56935772 77.09584652 209.99360864 75 184 C73.57843001 174.99878366 70.84952535 166.29955137 68.0625 157.64453125 C66.95911284 153.85975104 66.06476635 150.06445953 65.1953125 146.22070312 C60.91855832 127.41090466 53.74562098 112.04076899 38 100 C36.92454899 98.82163502 35.88121372 97.61301165 34.875 96.375 C20.79492086 80.12411637 2.62010928 69.38127703 -19 67 C-45.34222577 65.2194867 -59.88769629 78.38888082 -77 97 Z " fill="#000000" transform="translate(278,55)"/>
<path d="M0 0 C8.48300303 5.92609667 15.66631195 13.47401078 22.27734375 21.375 C23.19386719 22.10460937 24.11039063 22.83421875 25.0546875 23.5859375 C28.77247729 26.63253091 31.54094377 30.22412586 34.40234375 34.0625 C34.91410156 34.71927734 35.42585937 35.37605469 35.953125 36.05273438 C42.70843736 45.03955738 45.14860381 55.07866202 47.71484375 65.875 C48.31842306 68.35592919 48.92389459 70.83639878 49.53125 73.31640625 C49.82531738 74.51797363 50.11938477 75.71954102 50.42236328 76.95751953 C51.76423157 82.32116097 53.243332 87.64268689 54.76733398 92.95703125 C62.36370812 119.54598282 55.67105417 156.80498931 42.8515625 181.07421875 C41.52734375 183.3125 41.52734375 183.3125 39.27734375 186.375 C38.61734375 186.375 37.95734375 186.375 37.27734375 186.375 C37.00148438 186.96023438 36.725625 187.54546875 36.44140625 188.1484375 C34.49218816 191.87680767 31.84731718 195.05687875 29.27734375 198.375 C28.67664063 199.17550781 28.0759375 199.97601563 27.45703125 200.80078125 C10.14069839 223.34005662 -16.46056921 239.46902933 -44.5078125 243.984375 C-60.10905278 245.69679958 -75.76287553 245.22102008 -90.72265625 240.375 C-91.36928223 240.17664551 -92.0159082 239.97829102 -92.68212891 239.77392578 C-111.03536071 234.04509231 -126.78215385 223.2077679 -141.72265625 211.375 C-143.06263672 210.35019531 -143.06263672 210.35019531 -144.4296875 209.3046875 C-152.34533164 202.6431403 -157.5477387 193.18038296 -162.72265625 184.375 C-163.43591926 183.18993641 -164.14946379 182.00504221 -164.86328125 180.8203125 C-177.01368648 160.42558687 -180.357645 135.61237962 -174.72265625 112.375 C-170.88114761 97.96261812 -166.44746661 83.71777169 -159.72265625 70.375 C-159.35946289 69.64345703 -158.99626953 68.91191406 -158.62207031 68.15820312 C-153.19253954 57.37147505 -147.24101128 48.91724943 -138.72265625 40.375 C-137.33238192 38.87350372 -135.96191178 37.3556808 -134.59326172 35.83447266 C-130.38698696 31.16366453 -126.07209003 26.60185808 -121.66015625 22.125 C-120.76167969 21.21234375 -119.86320312 20.2996875 -118.9375 19.359375 C-116.72265625 17.375 -116.72265625 17.375 -114.72265625 17.375 C-114.43390625 18.48875 -114.14515625 19.6025 -113.84765625 20.75 C-113.03024296 24.37791092 -113.03024296 24.37791092 -110.72265625 26.375 C-107.34959007 26.95914702 -107.34959007 26.95914702 -103.72265625 26.375 C-101.22748845 24.19380586 -101.22748845 24.19380586 -98.72265625 21.375 C-98.27317627 20.89039307 -97.82369629 20.40578613 -97.3605957 19.90649414 C-95.91094659 18.34052921 -94.47321447 16.76410947 -93.03515625 15.1875 C-65.35917662 -14.8576628 -36.70697622 -23.49246478 0 0 Z M-89.72265625 18.375 C-90.54894531 18.95765625 -91.37523437 19.5403125 -92.2265625 20.140625 C-95.08339776 22.18656816 -97.90162161 24.27999348 -100.72265625 26.375 C-101.93644584 27.25666144 -103.15134613 28.1367952 -104.3671875 29.015625 C-129.46761052 47.18726875 -144.71988995 64.38607971 -150.5703125 95.515625 C-151.16658527 99.80878896 -151.48014278 104.05004725 -151.72265625 108.375 C-151.80273926 109.53741211 -151.88282227 110.69982422 -151.96533203 111.89746094 C-153.84997718 140.31156894 -150.67089736 164.78840841 -131.72265625 187.375 C-125.67168709 194.10698229 -118.81207414 199.77585013 -111.72265625 205.375 C-111.09101563 205.90867187 -110.459375 206.44234375 -109.80859375 206.9921875 C-103.19576948 212.38149362 -95.45489225 215.89952865 -87.72265625 219.375 C-86.57796875 219.90996094 -85.43328125 220.44492187 -84.25390625 220.99609375 C-67.91608698 227.3757953 -43.50397275 227.55920103 -27.20141602 220.83959961 C-12.5964014 213.92872502 -0.16800319 202.58505347 11.27734375 191.375 C12.30021484 190.41013672 12.30021484 190.41013672 13.34375 189.42578125 C29.01865509 174.38208039 35.83443842 156.22353367 39.02734375 135.0625 C39.23488281 133.77021484 39.44242188 132.47792969 39.65625 131.14648438 C40.2244457 127.55951989 40.75530711 123.96891926 41.27734375 120.375 C41.42268555 119.49642334 41.56802734 118.61784668 41.71777344 117.71264648 C42.48334958 112.54939477 41.91954763 109.03769123 40.02734375 104.0625 C38.41109953 99.64120837 36.93192556 95.28803645 35.90234375 90.6875 C30.83647177 69.53676896 22.39923618 49.41676564 6.27734375 34.375 C1.27734375 29.375 1.27734375 29.375 -0.9609375 27.06640625 C-1.76917969 26.24011719 -2.57742188 25.41382813 -3.41015625 24.5625 C-4.56064453 23.37720703 -4.56064453 23.37720703 -5.734375 22.16796875 C-7.52398455 20.15177004 -7.52398455 20.15177004 -9.72265625 20.375 C-9.72265625 19.715 -9.72265625 19.055 -9.72265625 18.375 C-34.31129606 -0.38904447 -64.50650418 -0.04692665 -89.72265625 18.375 Z " fill="#FFFFFF" transform="translate(295.72265625,135.625)"/>
<path d="M0 0 C0 0.66 0 1.32 0 2 C0.58910156 2.26167969 1.17820312 2.52335937 1.78515625 2.79296875 C4.11785434 4.0642275 5.60354368 5.40230531 7.4375 7.3125 C8.0459375 7.93898437 8.654375 8.56546875 9.28125 9.2109375 C9.8484375 9.80132812 10.415625 10.39171875 11 11 C12.2065625 12.2065625 12.2065625 12.2065625 13.4375 13.4375 C14.283125 14.283125 15.12875 15.12875 16 16 C16.91072266 16.85851562 16.91072266 16.85851562 17.83984375 17.734375 C35.28751816 34.47878423 42.86790451 58.12932112 48.25634766 81.14794922 C48.92901758 83.95413654 48.92901758 83.95413654 49.92724609 86.37939453 C52.85222027 93.93890953 51.5564134 100.96598242 50.25488281 108.73144531 C49.87626207 110.99246328 49.52915035 113.2565678 49.1875 115.5234375 C48.00014523 123.19154249 46.5732839 130.65872287 44 138 C43.7736084 138.66660645 43.5472168 139.33321289 43.31396484 140.02001953 C40.38132511 148.38835699 37.01481054 155.41235036 31 162 C30.12730469 162.97839844 29.25460937 163.95679688 28.35546875 164.96484375 C25.61013885 168.01453186 22.83409706 171.03252253 20 174 C19.47083984 174.5583252 18.94167969 175.11665039 18.39648438 175.69189453 C14.08323166 180.13700955 9.45539177 183.9195371 4.5 187.625 C3.41912109 188.44484375 3.41912109 188.44484375 2.31640625 189.28125 C0.21961721 190.86616468 -1.88881295 192.43434063 -4 194 C-4.59756104 194.45431396 -5.19512207 194.90862793 -5.81079102 195.37670898 C-22.69617112 207.94451915 -44.56499681 208.4938165 -64.74462891 205.60742188 C-69.45020259 204.6549492 -73.64079002 203.03462563 -78 201 C-78.67401855 200.6999707 -79.34803711 200.39994141 -80.04248047 200.09082031 C-88.48310645 196.31419359 -96.00821018 192.10616311 -103 186 C-104.13410993 185.04532051 -105.26965138 184.09234022 -106.40625 183.140625 C-109.97638374 180.13740412 -113.49993696 177.08447943 -117 174 C-117.72832031 173.35933594 -118.45664063 172.71867188 -119.20703125 172.05859375 C-124.18545009 167.39483796 -127.61304565 161.88577401 -131 156 C-131.60070312 154.97132813 -132.20140625 153.94265625 -132.8203125 152.8828125 C-143.8953536 132.50665463 -143.52518291 112.49019711 -142 90 C-141.916192 88.34898236 -141.83276756 86.69794513 -141.75 85.046875 C-141.07055349 76.38393193 -138.86156271 68.40809375 -136.3125 60.125 C-135.84058228 58.57244507 -135.84058228 58.57244507 -135.35913086 56.98852539 C-127.30079315 32.36308299 -106.17277265 18.34333936 -85.84765625 4.29394531 C-84.25451268 3.17823959 -82.68706655 2.02600318 -81.125 0.8671875 C-75.11695336 -3.5810778 -69.01567509 -6.44732868 -62 -9 C-61.38366699 -9.22461914 -60.76733398 -9.44923828 -60.13232422 -9.68066406 C-37.52431207 -17.82657273 -18.98954972 -14.78594284 0 0 Z M-87.66650391 20.06933594 C-89.87217284 21.89423967 -92.10418933 23.67715134 -94.35546875 25.4453125 C-96.88794859 27.43444255 -99.40376343 29.4402082 -101.8984375 31.4765625 C-103.71624929 32.95553783 -105.54875314 34.41733653 -107.4140625 35.8359375 C-120.35559608 46.07923628 -125.83969884 63.95117744 -128.65625 79.66015625 C-129.38727891 86.76276671 -129.71654059 93.86826783 -130 101 C-130.0407666 101.88800293 -130.0815332 102.77600586 -130.12353516 103.69091797 C-131.04077301 125.61485419 -126.78778378 144.13314167 -112 161 C-96.9488273 177.2440987 -76.59221926 193.18434139 -53.58984375 194.63671875 C-31.52470419 195.12942749 -16.58363273 190.40588422 0.34033203 176.36132812 C2.52002948 174.57345037 4.79160707 172.91966158 7.0625 171.25 C11.28324849 167.93084807 14.6021398 164.13589005 18 160 C18.73347656 159.18789063 19.46695313 158.37578125 20.22265625 157.5390625 C31.67662127 144.49798713 35.89579681 128.35209244 38.1550293 111.49536133 C38.43806197 109.43340593 38.75685343 107.37887217 39.07617188 105.32226562 C40.05186807 98.49748904 40.54434601 93.24831451 37.12426758 87.08666992 C35.080382 83.29316504 34.22642592 79.08215646 33.125 74.9375 C27.7069265 55.38509637 21.02730428 37.11792837 4.96875 23.74609375 C2.94649324 21.9525446 1.24294692 20.0638076 -0.5 18 C-8.4348733 8.72175086 -17.74235162 2.6304582 -29 -2 C-30.01835937 -2.44085938 -31.03671875 -2.88171875 -32.0859375 -3.3359375 C-52.22082109 -9.69683897 -73.10025703 7.98400824 -87.66650391 20.06933594 Z " fill="#000000" transform="translate(286,154)"/>
<path d="M0 0 C6.8524935 5.63427243 12.88884362 10.96660422 14.05175781 20.21533203 C14.84599503 29.76170847 14.12852086 37.10605303 8.8125 45.3125 C8.24966309 45.22162109 7.68682617 45.13074219 7.10693359 45.03710938 C-13.37035196 41.78210984 -29.99165118 40.76535826 -49.1875 50.3125 C-56.44074085 42.80021483 -58.09565076 32.37655198 -58.1875 22.3125 C-58.05310531 16.1856834 -57.91860886 11.3844761 -54.1875 6.3125 C-39.89418795 -4.53242558 -16.4078567 -8.68651237 0 0 Z " fill="#FFFFFF" transform="translate(267.1875,64.6875)"/>
<path d="M0 0 C3.70420124 1.27824859 4.82027897 3.28608798 7.03515625 6.48046875 C9.57925808 10.07670225 12.11832077 13.53300447 15.16015625 16.73046875 C18.2377243 20.14530453 20.50059188 23.88885688 22.78515625 27.85546875 C26.23300237 33.82754973 30.06739628 39.33787876 34.28515625 44.79296875 C34.84243408 45.51387695 35.39971191 46.23478516 35.97387695 46.97753906 C38.29041952 49.94970689 40.6338838 52.88645041 43.046875 55.78125 C47.52446546 61.18523849 47.52446546 61.18523849 48.28515625 65.29296875 C47.66015625 67.91796875 47.66015625 67.91796875 46.53515625 69.79296875 C43.6876061 71.50149884 41.92188286 71.43984501 38.66015625 70.91796875 C34.79208578 67.44564147 31.59073913 63.50704426 28.41015625 59.41796875 C27.93416992 58.80703369 27.45818359 58.19609863 26.96777344 57.56665039 C19.96673788 48.50476965 13.76612699 39.31465527 8.48828125 29.12890625 C5.93557593 24.64530844 2.88943611 20.71141668 -0.32421875 16.671875 C-2.95104118 13.0829025 -5.09452987 9.67605156 -5.71484375 5.23046875 C-5.33984375 2.91796875 -5.33984375 2.91796875 -4.15234375 1.04296875 C-2.33984375 -0.08203125 -2.33984375 -0.08203125 0 0 Z " fill="#000000" transform="translate(242.33984375,251.08203125)"/>
<path d="M0 0 C1.7541123 1.07666203 3.50312587 2.16163339 5.25 3.25 C6.71179688 4.15492188 6.71179688 4.15492188 8.203125 5.078125 C11 7 11 7 15 11 C12.36 15.95 9.72 20.9 7 26 C0.125 20.375 0.125 20.375 -1 17 C-1.99 16.67 -2.98 16.34 -4 16 C-5.6875 13.9375 -5.6875 13.9375 -7 12 C-5.61735163 9.13132769 -4.07851447 6.43975968 -2.375 3.75 C-1.92898438 3.04359375 -1.48296875 2.3371875 -1.0234375 1.609375 C-0.68570312 1.07828125 -0.34796875 0.5471875 0 0 Z " fill="#FFFFFF" transform="translate(328,126)"/>
<path d="M0 0 C2.49181202 1.19546447 3.79124442 2.67998847 5.5546875 4.80078125 C6.14507812 5.49945313 6.73546875 6.198125 7.34375 6.91796875 C8.9296875 8.92578125 8.9296875 8.92578125 10.9296875 11.92578125 C9.4781326 13.5983548 8.01824341 15.26369883 6.5546875 16.92578125 C5.74257812 17.85390625 4.93046875 18.78203125 4.09375 19.73828125 C3.02253906 20.82109375 3.02253906 20.82109375 1.9296875 21.92578125 C1.2696875 21.92578125 0.6096875 21.92578125 -0.0703125 21.92578125 C-1.65851316 20.04127449 -3.12313711 18.16391358 -4.5703125 16.17578125 C-4.97378906 15.63695312 -5.37726563 15.098125 -5.79296875 14.54296875 C-7.83652579 11.77775956 -9.66630298 9.0695417 -11.0703125 5.92578125 C-9.66478951 4.88965854 -8.24539556 3.872332 -6.8203125 2.86328125 C-6.03140625 2.29480469 -5.2425 1.72632813 -4.4296875 1.140625 C-2.0703125 -0.07421875 -2.0703125 -0.07421875 0 0 Z " fill="#FFFFFF" transform="translate(150.0703125,138.07421875)"/>
<path d="M0 0 C2.5 0.4375 2.5 0.4375 4.375 1.5 C6.20191247 4.64634925 5.34160654 7.01095909 4.5 10.4375 C2.9375 12.875 2.9375 12.875 1.5 14.4375 C-1.4375 14.0625 -1.4375 14.0625 -4.5 13.4375 C-6.02846661 10.38056678 -5.73242445 7.80765453 -5.5 4.4375 C-4.01298805 1.38521232 -3.36475848 0.58883273 0 0 Z " fill="#080808" transform="translate(240.5,155.5625)"/>
<path d="M0 0 C2.625 0.375 2.625 0.375 5 1 C5.625 3.875 5.625 3.875 6 7 C4 9 4 9 1.5 9.25 C-1 9 -1 9 -3 7 C-2.67028521 3.70285207 -2.3773161 2.3773161 0 0 Z " fill="#181818" transform="translate(173,292)"/>
<path d="M0 0 C3.125 0.375 3.125 0.375 6 1 C6.6875 3.3125 6.6875 3.3125 7 6 C5.875 7.875 5.875 7.875 4 9 C1.3125 8.6875 1.3125 8.6875 -1 8 C-1.625 5.125 -1.625 5.125 -2 2 C-1.34 1.34 -0.68 0.68 0 0 Z " fill="#161616" transform="translate(219,332)"/>
<path d="M0 0 C4.55555556 0.55555556 4.55555556 0.55555556 6 2 C6.1875 4.4375 6.1875 4.4375 6 7 C5.34 7.66 4.68 8.32 4 9 C-0.55555556 8.44444444 -0.55555556 8.44444444 -2 7 C-2.1875 4.5625 -2.1875 4.5625 -2 2 C-1.34 1.34 -0.68 0.68 0 0 Z " fill="#101010" transform="translate(176,207)"/>
<path d="M0 0 C2.625 0.375 2.625 0.375 5 1 C5.625 3.3125 5.625 3.3125 6 6 C5.01 7.485 5.01 7.485 4 9 C-0.875 8.125 -0.875 8.125 -2 7 C-2.1875 4.5625 -2.1875 4.5625 -2 2 C-1.34 1.34 -0.68 0.68 0 0 Z " fill="#171717" transform="translate(166,240)"/>
<path d="M0 0 C1.99954746 -0.04254356 4.00041636 -0.04080783 6 0 C7 1 7 1 7.125 4 C7 7 7 7 6 8 C3.5625 8.1875 3.5625 8.1875 1 8 C0.34 7.34 -0.32 6.68 -1 6 C-0.625 2.875 -0.625 2.875 0 0 Z " fill="#070707" transform="translate(192,185)"/>
<path d="M0 0 C2.5 0.125 2.5 0.125 3.5 1.125 C3.625 4.125 3.625 4.125 3.5 7.125 C2.5 8.125 2.5 8.125 0.0625 8.3125 C-2.5 8.125 -2.5 8.125 -4.5 6.125 C-3.77607362 0.18880368 -3.77607362 0.18880368 0 0 Z " fill="#121212" transform="translate(312.5,279.875)"/>
<path d="M0 0 C2.5625 0.1875 2.5625 0.1875 4.5625 2.1875 C4.00694444 6.74305556 4.00694444 6.74305556 2.5625 8.1875 C0.0625 8.3125 0.0625 8.3125 -2.4375 8.1875 C-3.4375 7.1875 -3.4375 7.1875 -3.5625 4.1875 C-3.39891479 0.26145498 -3.39891479 0.26145498 0 0 Z " fill="#0B0B0B" transform="translate(226.4375,162.8125)"/>
<path d="M0 0 C2.5 0.125 2.5 0.125 3.5 1.125 C3.54080783 3.12458364 3.54254356 5.12545254 3.5 7.125 C0.625 7.75 0.625 7.75 -2.5 8.125 C-3.16 7.465 -3.82 6.805 -4.5 6.125 C-3.77607362 0.18880368 -3.77607362 0.18880368 0 0 Z " fill="#0A0A0A" transform="translate(170.5,280.875)"/>
<path d="M0 0 C2.625 0.375 2.625 0.375 5 1 C5.625 3.375 5.625 3.375 6 6 C5.34 6.66 4.68 7.32 4 8 C1.375 7.625 1.375 7.625 -1 7 C-1.625 4.625 -1.625 4.625 -2 2 C-1.34 1.34 -0.68 0.68 0 0 Z " fill="#171717" transform="translate(314,250)"/>
<path d="M0 0 C1.67542976 0.28604898 3.34385343 0.61781233 5 1 C5.625 3.375 5.625 3.375 6 6 C5.34 6.66 4.68 7.32 4 8 C1.375 7.625 1.375 7.625 -1 7 C-1.04254356 5.00045254 -1.04080783 2.99958364 -1 1 C-0.67 0.67 -0.34 0.34 0 0 Z " fill="#1F1F1F" transform="translate(167,268)"/>
<path d="M0 0 C1.98 0 3.96 0 6 0 C7.125 4.75 7.125 4.75 6 7 C3.625 7.1875 3.625 7.1875 1 7 C-1 4 -1 4 -0.625 1.8125 C-0.41875 1.214375 -0.2125 0.61625 0 0 Z " fill="#101010" transform="translate(313,268)"/>
<path d="M0 0 C2.5 0.125 2.5 0.125 3.5 1.125 C3.625 3.625 3.625 3.625 3.5 6.125 C2.5 7.125 2.5 7.125 -0.5625 7.1875 C-2.0165625 7.1565625 -2.0165625 7.1565625 -3.5 7.125 C-3.54254356 5.12545254 -3.54080783 3.12458364 -3.5 1.125 C-2.5 0.125 -2.5 0.125 0 0 Z " fill="#060606" transform="translate(210.5,328.875)"/>
<path d="M0 0 C2.5 0.125 2.5 0.125 3.5 1.125 C3.625 3.625 3.625 3.625 3.5 6.125 C2.5 7.125 2.5 7.125 0 7.25 C-2.5 7.125 -2.5 7.125 -3.5 6.125 C-3.625 3.625 -3.625 3.625 -3.5 1.125 C-2.5 0.125 -2.5 0.125 0 0 Z " fill="#0C0C0C" transform="translate(315.5,234.875)"/>
<path d="M0 0 C2.5 0.125 2.5 0.125 3.5 1.125 C3.625 3.625 3.625 3.625 3.5 6.125 C2.5 7.125 2.5 7.125 -0.0625 7.1875 C-1.2690625 7.1565625 -1.2690625 7.1565625 -2.5 7.125 C-2.88133299 5.1335944 -3.21325582 3.13220923 -3.5 1.125 C-2.5 0.125 -2.5 0.125 0 0 Z " fill="#121212" transform="translate(179.5,303.875)"/>
<path d="M0 0 C1.67542976 0.28604898 3.34385343 0.61781233 5 1 C5.38218767 2.65614657 5.71395102 4.32457024 6 6 C5 7 5 7 2.5 7.125 C0 7 0 7 -1 6 C-1.125 3.5 -1.125 3.5 -1 1 C-0.67 0.67 -0.34 0.34 0 0 Z " fill="#141414" transform="translate(167,217)"/>
<path d="M0 0 C2.125 0.375 2.125 0.375 4 1 C4.38218767 2.65614657 4.71395102 4.32457024 5 6 C4 7 4 7 1.4375 7.0625 C0.2309375 7.0315625 0.2309375 7.0315625 -1 7 C-1.625 4.625 -1.625 4.625 -2 2 C-1.34 1.34 -0.68 0.68 0 0 Z " fill="#0E0E0E" transform="translate(302,201)"/>
<path d="M0 0 C1.67542976 0.28604898 3.34385343 0.61781233 5 1 C5.625 2.875 5.625 2.875 6 5 C5.34 5.66 4.68 6.32 4 7 C1.375 6.625 1.375 6.625 -1 6 C-1.042721 4.33388095 -1.04063832 2.66617115 -1 1 C-0.67 0.67 -0.34 0.34 0 0 Z " fill="#121212" transform="translate(182,196)"/>
<path d="M0 0 C1.2065625 0.0309375 1.2065625 0.0309375 2.4375 0.0625 C3.0625 2.4375 3.0625 2.4375 3.4375 5.0625 C2.7775 5.7225 2.1175 6.3825 1.4375 7.0625 C-0.6875 6.6875 -0.6875 6.6875 -2.5625 6.0625 C-2.94468767 4.40635343 -3.27645102 2.73792976 -3.5625 1.0625 C-2.5625 0.0625 -2.5625 0.0625 0 0 Z " fill="#151515" transform="translate(234.5625,334.9375)"/>
<path d="M0 0 C1.2065625 0.0309375 1.2065625 0.0309375 2.4375 0.0625 C2.81968767 1.71864657 3.15145102 3.38707024 3.4375 5.0625 C2.4375 6.0625 2.4375 6.0625 -0.125 6.125 C-1.3315625 6.0940625 -1.3315625 6.0940625 -2.5625 6.0625 C-2.94468767 4.40635343 -3.27645102 2.73792976 -3.5625 1.0625 C-2.5625 0.0625 -2.5625 0.0625 0 0 Z " fill="#141414" transform="translate(168.5625,254.9375)"/>
<path d="M0 0 C1.67542976 0.28604898 3.34385343 0.61781233 5 1 C5 2.65 5 4.3 5 6 C3.34385343 6.38218767 1.67542976 6.71395102 0 7 C-1 6 -1 6 -1.125 3.5 C-1 1 -1 1 0 0 Z " fill="#161616" transform="translate(167,231)"/>
<path d="M0 0 C1.67542976 0.28604898 3.34385343 0.61781233 5 1 C5 2.65 5 4.3 5 6 C3.34385343 6.38218767 1.67542976 6.71395102 0 7 C-1 6 -1 6 -1.125 3.5 C-1 1 -1 1 0 0 Z " fill="#101010" transform="translate(308,218)"/>
<path d="M0 0 C1.2065625 0.0309375 1.2065625 0.0309375 2.4375 0.0625 C2.4375 2.0425 2.4375 4.0225 2.4375 6.0625 C0.7875 6.0625 -0.8625 6.0625 -2.5625 6.0625 C-2.94468767 4.40635343 -3.27645102 2.73792976 -3.5625 1.0625 C-2.5625 0.0625 -2.5625 0.0625 0 0 Z " fill="#090909" transform="translate(206.5625,178.9375)"/>
<path d="M0 0 C1.67542976 0.28604898 3.34385343 0.61781233 5 1 C5 2.65 5 4.3 5 6 C3.02 6 1.04 6 -1 6 C-1.042721 4.33388095 -1.04063832 2.66617115 -1 1 C-0.67 0.67 -0.34 0.34 0 0 Z " fill="#060606" transform="translate(216,172)"/>
<path d="M0 0 C1.65 0 3.3 0 5 0 C5.33 1.65 5.66 3.3 6 5 C4.34385343 5.38218767 2.67542976 5.71395102 1 6 C0 5 0 5 -0.0625 2.4375 C-0.041875 1.633125 -0.02125 0.82875 0 0 Z " fill="#0A0A0A" transform="translate(295,302)"/>
<path d="M0 0 C1.65 0 3.3 0 5 0 C5.33 1.65 5.66 3.3 6 5 C4.34385343 5.38218767 2.67542976 5.71395102 1 6 C0 5 0 5 -0.0625 2.4375 C-0.041875 1.633125 -0.02125 0.82875 0 0 Z " fill="#0A0A0A" transform="translate(300,291)"/>
<path d="M0 0 C1.67542976 0.28604898 3.34385343 0.61781233 5 1 C4.67 2.65 4.34 4.3 4 6 C2.35 6 0.7 6 -1 6 C-1.042721 4.33388095 -1.04063832 2.66617115 -1 1 C-0.67 0.67 -0.34 0.34 0 0 Z " fill="#151515" transform="translate(294,194)"/>
<path d="M0 0 C1.65 0.33 3.3 0.66 5 1 C4.67 2.65 4.34 4.3 4 6 C2.35 5.67 0.7 5.34 -1 5 C-0.67 3.35 -0.34 1.7 0 0 Z " fill="#1D1D1D" transform="translate(271,171)"/>
<path d="M0 0 C1.32 0 2.64 0 4 0 C4.33 1.65 4.66 3.3 5 5 C3.35 5.33 1.7 5.66 0 6 C-0.38218767 4.34385343 -0.71395102 2.67542976 -1 1 C-0.67 0.67 -0.34 0.34 0 0 Z " fill="#1E1E1E" transform="translate(246,336)"/>
<path d="M0 0 C2.125 0.375 2.125 0.375 4 1 C4 2.65 4 4.3 4 6 C2.35 6 0.7 6 -1 6 C-1.625 4.125 -1.625 4.125 -2 2 C-1.34 1.34 -0.68 0.68 0 0 Z " fill="#1C1C1C" transform="translate(188,314)"/>
<path d="M0 0 C2.0625 0.4375 2.0625 0.4375 4 1 C3.67 2.65 3.34 4.3 3 6 C1.35 5.67 -0.3 5.34 -2 5 C-1.125 1.125 -1.125 1.125 0 0 Z " fill="#171717" transform="translate(285,182)"/>
<path d="M0 0 C1.65 0 3.3 0 5 0 C5.33 1.32 5.66 2.64 6 4 C4.125 5.0625 4.125 5.0625 2 6 C1.34 5.67 0.68 5.34 0 5 C0 3.35 0 1.7 0 0 Z " fill="#161616" transform="translate(257,164)"/>
<path d="M0 0 C1.65 0 3.3 0 5 0 C4.67 1.65 4.34 3.3 4 5 C2.35 4.67 0.7 4.34 -1 4 C-0.67 2.68 -0.34 1.36 0 0 Z " fill="#1C1C1C" transform="translate(199,324)"/>
<path d="M0 0 C1.98 0.495 1.98 0.495 4 1 C4 2.32 4 3.64 4 5 C2.35 5 0.7 5 -1 5 C-0.67 3.35 -0.34 1.7 0 0 Z " fill="#0F0F0F" transform="translate(259,329)"/>
<path d="M0 0 C2.475 0.495 2.475 0.495 5 1 C4.67 1.99 4.34 2.98 4 4 C2.68 4 1.36 4 0 4 C0 2.68 0 1.36 0 0 Z " fill="#161616" transform="translate(271,323)"/>
</svg>
