<?xml version="1.0" encoding="UTF-8"?>
<svg version="1.1" xmlns="http://www.w3.org/2000/svg" width="500" height="500">
<path d="M0 0 C1.25466064 0.01135986 2.50932129 0.02271973 3.80200195 0.03442383 C34.01942086 0.65141772 63.68105003 9.53426989 90.32617188 23.54003906 C93.26609583 25.05627477 96.26523025 26.44953821 99.25 27.875 C115.4763734 36.00666776 130.90103963 47.17770213 142.1875 61.5 C142.1875 62.16 142.1875 62.82 142.1875 63.5 C142.8475 63.5 143.5075 63.5 144.1875 63.5 C146.50413844 67.43828536 148.62108249 71.19235185 150.1875 75.5 C150.8475 75.5 151.5075 75.5 152.1875 75.5 C153.6953125 77.6171875 153.6953125 77.6171875 155.3125 80.375 C155.85132813 81.27992188 156.39015625 82.18484375 156.9453125 83.1171875 C158.1875 85.5 158.1875 85.5 158.1875 87.5 C158.8475 87.5 159.5075 87.5 160.1875 87.5 C180.58570088 124.6078382 186.28483084 167.46244977 182.1875 209.5 C182.11047852 210.30501953 182.03345703 211.11003906 181.95410156 211.93945312 C179.03670826 240.27669981 170.03037913 269.48847528 151.1875 291.5 C150.5275 291.5 149.8675 291.5 149.1875 291.5 C148.97738281 292.04398437 148.76726562 292.58796875 148.55078125 293.1484375 C146.68332598 296.36966407 144.1095078 298.65346395 141.375 301.125 C140.50983765 301.91233521 140.50983765 301.91233521 139.62719727 302.71557617 C103.86744876 334.84548455 52.72160046 346.0435719 5.5 345.8125 C4.32886154 345.80976578 4.32886154 345.80976578 3.13406372 345.80697632 C-16.50452679 345.73017023 -35.01456878 343.30988692 -53.8125 337.5 C-54.48941895 337.29568359 -55.16633789 337.09136719 -55.86376953 336.88085938 C-73.26109723 331.4856753 -88.94354869 321.13499814 -102.8125 309.5 C-103.41400879 308.99855469 -104.01551758 308.49710937 -104.63525391 307.98046875 C-109.10286152 304.23601454 -113.48475781 300.40504944 -117.8125 296.5 C-118.33118652 296.03480957 -118.84987305 295.56961914 -119.38427734 295.09033203 C-131.34260458 284.22742409 -139.01331638 271.02987281 -145.82714844 256.56347656 C-146.83619006 254.4503894 -147.88622782 252.3618411 -148.9453125 250.2734375 C-153.62699034 240.91329431 -156.96359746 231.83359227 -158.8125 221.5 C-158.98837646 220.57896484 -159.16425293 219.65792969 -159.34545898 218.70898438 C-161.10126464 208.30999312 -161.15071445 197.98421259 -161.12817383 187.46191406 C-161.12502707 184.40132538 -161.14850451 181.34171907 -161.17382812 178.28125 C-161.27293364 147.63819374 -154.07650544 120.55787948 -137.8125 94.5 C-137.37228516 93.78473145 -136.93207031 93.06946289 -136.47851562 92.33251953 C-123.61970993 71.69790807 -106.06159421 55.88620935 -86.94335938 41.14648438 C-85.44110207 39.98571177 -83.94275935 38.81986425 -82.44726562 37.65039062 C-50.23357573 12.5 -50.23357573 12.5 -35.8125 12.5 C-35.8125 11.84 -35.8125 11.18 -35.8125 10.5 C-25.92658291 1.55924811 -12.79823125 -0.2000133 0 0 Z " fill="#FFFFFF" transform="translate(232.8125,67.5)"/>
<path d="M0 0 C1.25466064 0.01135986 2.50932129 0.02271973 3.80200195 0.03442383 C34.01942086 0.65141772 63.68105003 9.53426989 90.32617188 23.54003906 C93.26609583 25.05627477 96.26523025 26.44953821 99.25 27.875 C115.4763734 36.00666776 130.90103963 47.17770213 142.1875 61.5 C142.1875 62.16 142.1875 62.82 142.1875 63.5 C142.8475 63.5 143.5075 63.5 144.1875 63.5 C146.50413844 67.43828536 148.62108249 71.19235185 150.1875 75.5 C150.8475 75.5 151.5075 75.5 152.1875 75.5 C153.6953125 77.6171875 153.6953125 77.6171875 155.3125 80.375 C155.85132813 81.27992188 156.39015625 82.18484375 156.9453125 83.1171875 C158.1875 85.5 158.1875 85.5 158.1875 87.5 C158.8475 87.5 159.5075 87.5 160.1875 87.5 C180.58570088 124.6078382 186.28483084 167.46244977 182.1875 209.5 C182.11047852 210.30501953 182.03345703 211.11003906 181.95410156 211.93945312 C179.03670826 240.27669981 170.03037913 269.48847528 151.1875 291.5 C150.5275 291.5 149.8675 291.5 149.1875 291.5 C148.97738281 292.04398437 148.76726562 292.58796875 148.55078125 293.1484375 C146.68332598 296.36966407 144.1095078 298.65346395 141.375 301.125 C140.50983765 301.91233521 140.50983765 301.91233521 139.62719727 302.71557617 C103.86744876 334.84548455 52.72160046 346.0435719 5.5 345.8125 C4.32886154 345.80976578 4.32886154 345.80976578 3.13406372 345.80697632 C-16.50452679 345.73017023 -35.01456878 343.30988692 -53.8125 337.5 C-54.48941895 337.29568359 -55.16633789 337.09136719 -55.86376953 336.88085938 C-73.26109723 331.4856753 -88.94354869 321.13499814 -102.8125 309.5 C-103.41400879 308.99855469 -104.01551758 308.49710937 -104.63525391 307.98046875 C-109.10286152 304.23601454 -113.48475781 300.40504944 -117.8125 296.5 C-118.33118652 296.03480957 -118.84987305 295.56961914 -119.38427734 295.09033203 C-131.34260458 284.22742409 -139.01331638 271.02987281 -145.82714844 256.56347656 C-146.83619006 254.4503894 -147.88622782 252.3618411 -148.9453125 250.2734375 C-153.62699034 240.91329431 -156.96359746 231.83359227 -158.8125 221.5 C-158.98837646 220.57896484 -159.16425293 219.65792969 -159.34545898 218.70898438 C-161.10126464 208.30999312 -161.15071445 197.98421259 -161.12817383 187.46191406 C-161.12502707 184.40132538 -161.14850451 181.34171907 -161.17382812 178.28125 C-161.27293364 147.63819374 -154.07650544 120.55787948 -137.8125 94.5 C-137.37228516 93.78473145 -136.93207031 93.06946289 -136.47851562 92.33251953 C-123.61970993 71.69790807 -106.06159421 55.88620935 -86.94335938 41.14648438 C-85.44110207 39.98571177 -83.94275935 38.81986425 -82.44726562 37.65039062 C-50.23357573 12.5 -50.23357573 12.5 -35.8125 12.5 C-35.8125 11.84 -35.8125 11.18 -35.8125 10.5 C-25.92658291 1.55924811 -12.79823125 -0.2000133 0 0 Z M2.58984375 19.44140625 C1.89568359 20.46041016 1.89568359 20.46041016 1.1875 21.5 C-1.16796875 22.1875 -1.16796875 22.1875 -4 22.5 C-9.21160456 23.21994048 -14.26721206 24.19812308 -19.375 25.4375 C-20.06553467 25.59541016 -20.75606934 25.75332031 -21.4675293 25.91601562 C-25.18067427 26.83086841 -27.22584109 27.74193598 -29.8125 30.5 C-31.73046875 30.73046875 -31.73046875 30.73046875 -34 30.6875 C-46.66074472 31.63012479 -58.34732087 40.78210869 -67.8125 48.5 C-69.15053503 49.57224711 -70.48910999 50.64382069 -71.828125 51.71484375 C-78.10669803 56.75917979 -84.35539974 61.82825033 -90.33203125 67.23046875 C-91.8125 68.5 -91.8125 68.5 -94.8125 70.5 C-94.8125 71.16 -94.8125 71.82 -94.8125 72.5 C-95.63621094 72.84611328 -95.63621094 72.84611328 -96.4765625 73.19921875 C-113.74243657 82.81382755 -125.01685485 106.16793457 -132.8125 123.5 C-133.30234375 124.57765625 -133.7921875 125.6553125 -134.296875 126.765625 C-141.87740824 144.15626008 -143.16908675 161.49167791 -143.12817383 180.22070312 C-143.12502007 183.23083981 -143.14853181 186.23998442 -143.17382812 189.25 C-143.2790409 221.3976158 -133.28167581 251.30161426 -112.8125 276.5 C-112.1525 276.5 -111.4925 276.5 -110.8125 276.5 C-110.61527344 277.04269531 -110.41804688 277.58539063 -110.21484375 278.14453125 C-108.21400459 281.50527224 -105.35129566 283.72333993 -102.375 286.1875 C-101.74247314 286.71786865 -101.10994629 287.2482373 -100.45825195 287.79467773 C-99.17476285 288.86892167 -97.88889164 289.94032628 -96.60058594 291.00878906 C-95.06597232 292.28861156 -93.55051864 293.59134726 -92.0390625 294.8984375 C-60.07693572 322.14000402 -21.02639372 330.95869682 20.265625 327.93359375 C55.53579181 324.96114841 96.15853622 318.11206687 123.1875 293.5 C124.21679174 292.58910175 125.24676739 291.67897584 126.27734375 290.76953125 C136.00200333 282.08143502 143.14209401 273.65786548 149.3125 262.0625 C149.92778564 260.90886963 150.54307129 259.75523926 151.17700195 258.56665039 C155.77214964 249.73466677 159.23780158 241.25321865 161.1875 231.5 C161.33719238 230.7692627 161.48688477 230.03852539 161.64111328 229.28564453 C162.62353546 224.37563506 163.48515148 219.45775426 164.1875 214.5 C164.373125 213.22125 164.55875 211.9425 164.75 210.625 C165.55946552 202.95637928 165.43197303 195.20328117 165.4375 187.5 C165.43817474 186.65574463 165.43884949 185.81148926 165.43954468 184.94165039 C165.42141542 170.61581313 164.67006439 156.63607173 162.1875 142.5 C162.02652832 141.55286133 161.86555664 140.60572266 161.69970703 139.62988281 C158.54592451 121.80995119 152.20430552 106.32293919 141.515625 91.69140625 C138.89216084 88.0951475 136.44511516 84.4058927 134 80.6875 C128.84294161 72.91382395 128.84294161 72.91382395 123.1875 65.5 C122.5275 65.5 121.8675 65.5 121.1875 65.5 C121.1875 64.84 121.1875 64.18 121.1875 63.5 C119.24322829 61.82918845 117.30091223 60.28014415 115.25 58.75 C114.34822021 58.07130859 114.34822021 58.07130859 113.42822266 57.37890625 C111.68766366 56.07710054 109.93897796 54.78705891 108.1875 53.5 C107.46175781 52.95859375 106.73601562 52.4171875 105.98828125 51.859375 C97.95574926 46.18935242 88.93150049 41.94571253 80.1875 37.5 C79.10597656 36.94054687 78.02445313 36.38109375 76.91015625 35.8046875 C65.36910741 30.13485679 12.61030626 7.26495181 2.58984375 19.44140625 Z " fill="#000000" transform="translate(232.8125,67.5)"/>
<path d="M0 0 C8.49874924 7.51946949 10.82586418 18.31944792 11.7734375 29.3046875 C12.91170726 51.45385619 8.71014601 74.13384375 -5.8984375 91.2578125 C-11.24303944 97.13308413 -15.70243922 100.07291187 -23.7265625 101.1796875 C-30.55770676 100.96990188 -37.10486879 97.22216886 -42.21484375 92.88671875 C-51.60165991 82.79224904 -55.50162825 71.46105063 -55.2265625 57.9140625 C-55.1853125 56.84671875 -55.1440625 55.779375 -55.1015625 54.6796875 C-55.0396875 52.98585938 -55.0396875 52.98585938 -54.9765625 51.2578125 C-54.5970433 44.14182749 -53.54214915 37.53636279 -51.7734375 30.63671875 C-51.17989035 28.02442114 -50.94617267 25.71796388 -50.8515625 23.0546875 C-50.06362564 14.6345779 -43.26985059 7.02438789 -37.34765625 1.40234375 C-25.93419702 -7.35128324 -11.78019283 -8.88830434 0 0 Z " fill="#000000" transform="translate(271.1015625,259.3203125)"/>
<path d="M0 0 C4.97471423 4.43398442 7.58864676 10.09144579 8.28759766 16.73266602 C8.40370648 19.82796347 8.41540338 22.90279868 8.375 26 C8.36629883 27.1041626 8.35759766 28.2083252 8.34863281 29.34594727 C8.01805476 47.9111563 4.48029849 63.51970151 -9 77 C-14.77825308 77.66672151 -17.47001046 76.51555173 -22 73 C-27.98313494 65.59472773 -31.34320234 58.59740826 -31 49 C-30.98453125 47.71222656 -30.9690625 46.42445313 -30.953125 45.09765625 C-30.59131972 30.80717374 -28.52123902 16.27044369 -19 5 C-13.17649901 -0.34518469 -7.63128655 -2.14965818 0 0 Z " fill="#FFFFFF" transform="translate(260,269)"/>
<path d="M0 0 C4.75958194 2.96242945 8.48921118 7.08091478 10.265625 12.41015625 C11.45342989 25.76809323 8.35480689 36.39779068 0.4609375 47.16796875 C-3.06742089 50.77166576 -7.02586208 52.83456498 -12.109375 52.91015625 C-18.01408691 52.69146322 -22.11402696 49.95069674 -26.2734375 45.91796875 C-31.94253838 39.51950986 -32.16653741 33.41830582 -32 25.203125 C-31.70840283 21.03928894 -30.86067065 17.59403823 -29.44921875 13.69140625 C-28.68342448 11.24756006 -28.49603942 9.08622551 -28.359375 6.53515625 C-28.06484448 3.06215052 -27.91214852 2.59728627 -25.359375 -0.08984375 C-17.60428739 -4.52132238 -7.94706267 -3.5761782 0 0 Z " fill="#000000" transform="translate(317.734375,190.58984375)"/>
<path d="M0 0 C0 0.66 0 1.32 0 2 C0.83402344 1.95359375 1.66804688 1.9071875 2.52734375 1.859375 C10.79564169 1.59418331 17.4351402 1.93688126 23.8125 7.61328125 C28.88843265 13.11627554 30.5880568 18.77453794 30.453125 26.20703125 C29.21016506 33.86837917 24.40117321 42.50906943 18.28125 47.36328125 C11.64699251 50.89864215 4.60218671 51.2787651 -2.62890625 49.26953125 C-8.18958546 47.02510554 -11.4852034 44.27263893 -14.046875 38.73828125 C-17.59971187 28.53115566 -16.13963376 17.111292 -13 7 C-9.68506619 0.44287388 -7.2062921 -1.40992672 0 0 Z " fill="#000000" transform="translate(180,184)"/>
<path d="M0 0 C3.71650627 -0.35395298 5.9103841 -0.03816974 9.375 1.4375 C12.18107396 4.17676267 12.42782769 4.5192827 12.5625 8.1875 C12.02892313 15.73202883 9.47891605 21.97663015 5 28 C1.6875 27.875 1.6875 27.875 -2 27 C-5.1324275 22.75606597 -5.51653833 19.16538333 -5 14 C-3.81606467 9.08970412 -2.36510182 4.47312735 0 0 Z " fill="#FFFFFF" transform="translate(303,202)"/>
<path d="M0 0 C3 2 3 2 3.9375 4.625 C4.03273439 9.76765731 1.8979191 13.85926619 -1.49609375 17.6875 C-3.63877348 19.55747504 -5.17414565 19.80284737 -8 20 C-12.20583575 19.01039159 -13.55871351 18.66192973 -16 15 C-16.1953125 11.86328125 -16.1953125 11.86328125 -16.125 8.3125 C-16.09792969 6.54326172 -16.09792969 6.54326172 -16.0703125 4.73828125 C-16.04710937 3.83464844 -16.02390625 2.93101562 -16 2 C-10.32605087 -0.27729931 -6.12542512 -1.59261053 0 0 Z " fill="#FFFFFF" transform="translate(193,202)"/>
</svg>
