<?xml version="1.0" encoding="UTF-8"?>
<svg version="1.1" xmlns="http://www.w3.org/2000/svg" width="500" height="500">
<path d="M0 0 C1.32668701 0.28085449 1.32668701 0.28085449 2.68017578 0.56738281 C22.06814651 4.7257955 38.16411919 12.65167558 55 23 C55.62229492 23.37979004 56.24458984 23.75958008 56.88574219 24.15087891 C58.29535265 25.04291736 59.65472481 26.01360813 61 27 C61 27.66 61 28.32 61 29 C61.99 29.33 62.98 29.66 64 30 C64 30.66 64 31.32 64 32 C64.66 32 65.32 32 66 32 C66.66 33.65 67.32 35.3 68 37 C68.66 37 69.32 37 70 37 C70.97261192 38.40861037 71.93733412 39.82379245 72.84765625 41.2734375 C74.03760174 43.05633888 75.34438592 44.63334471 76.75 46.25 C79 49 79 49 79 51 C79.66 51 80.32 51 81 51 C84 55.38461538 84 55.38461538 84 58 C84.66 58 85.32 58 86 58 C86.66 58.99 87.32 59.98 88 61 C88.680625 59.7625 88.680625 59.7625 89.375 58.5 C89.91125 57.675 90.4475 56.85 91 56 C91.66 56 92.32 56 93 56 C93.144375 55.38125 93.28875 54.7625 93.4375 54.125 C94 52 94 52 95 50 C95.66 50 96.32 50 97 50 C97.33 48.68 97.66 47.36 98 46 C98.66 46 99.32 46 100 46 C100.10441406 45.42378906 100.20882813 44.84757812 100.31640625 44.25390625 C101.10714473 41.64672852 102.25579568 40.07149644 103.9375 37.9375 C105.72000446 35.6557191 107.39086568 33.41370148 109 31 C109.66 31 110.32 31 111 31 C111.268125 30.38125 111.53625 29.7625 111.8125 29.125 C113 27 113 27 116 25 C119.0625 24.875 119.0625 24.875 122 25 C122.66 25 123.32 25 124 25 C124.4125 24.34 124.825 23.68 125.25 23 C127 21 127 21 130 20.5 C133 21 133 21 134.875 22.5 C137.57574165 28.50164812 135.80758926 34.86323934 133.8125 40.8125 C133.59053955 41.49957031 133.3685791 42.18664062 133.13989258 42.89453125 C131.1832024 48.79280012 128.77010081 54.43622305 126 60 C127.134375 60.0825 128.26875 60.165 129.4375 60.25 C137.04081581 61.22063606 143.00493749 64.22445897 148 70 C148.33 70.33 148.66 70.66 149 71 C149.23728814 77.52542373 149.23728814 77.52542373 148 80 C147.34 80 146.68 80 146 80 C146.2475 80.886875 146.495 81.77375 146.75 82.6875 C147 86 147 86 145.625 88.8125 C141.92124037 91.89896635 138.72889341 92.05489594 134 92 C132.02466476 91.71780925 130.04922295 91.43540913 128.078125 91.125 C124.85131102 90.93090593 121.93704946 91.79232392 118.80859375 92.51953125 C113.5778713 93.41435581 108.28848669 93.14920495 103 93 C103.54527344 94.69189453 103.54527344 94.69189453 104.1015625 96.41796875 C105.47429088 100.69846507 106.81567288 104.98831132 108.14892578 109.28125 C108.68858583 111.00518983 109.23556491 112.72686944 109.79248047 114.4453125 C122.19426743 152.76517431 129.27192328 206.91496266 111.30078125 244.58203125 C110.87152344 245.37996094 110.44226563 246.17789063 110 247 C109.56042969 247.84949219 109.12085938 248.69898438 108.66796875 249.57421875 C100.84738906 263.64264447 87.25964332 275.73453156 75 286 C74.08605469 286.77988281 73.17210937 287.55976563 72.23046875 288.36328125 C65.70007793 293.88770686 59.06282771 299.16510616 52 304 C50.91203125 304.74636719 49.8240625 305.49273437 48.703125 306.26171875 C19.66921269 325.54029946 -12.71978766 337.18899349 -47.62329102 337.18530273 C-49.90075068 337.18746511 -52.17770536 337.20559629 -54.45507812 337.22460938 C-68.06432419 337.27866987 -81.81989135 336.59671275 -94.875 332.4375 C-96.1129834 332.0511438 -96.1129834 332.0511438 -97.37597656 331.65698242 C-117.05633661 325.2483361 -136.0305184 314.43032655 -151 300 C-151 299.34 -151 298.68 -151 298 C-151.66 298 -152.32 298 -153 298 C-179.11576656 274.110009 -195.10883402 234.34006117 -200 200 C-200.144375 198.99582031 -200.28875 197.99164063 -200.4375 196.95703125 C-205.87203324 146.61966708 -187.36385532 98.04578298 -160 57 C-159.34 57 -158.68 57 -158 57 C-157.95875 56.443125 -157.9175 55.88625 -157.875 55.3125 C-156.80698104 52.48987847 -155.13990442 51.23461202 -152.765625 49.44140625 C-150.84045661 47.92770136 -150.84045661 47.92770136 -148.72265625 45.640625 C-145.73379831 42.74181874 -142.65029491 40.4753529 -139.1875 38.1875 C-138.53587891 37.75373047 -137.88425781 37.31996094 -137.21289062 36.87304688 C-131.99512479 33.47925649 -126.59673532 30.71424624 -120.98535156 28.03979492 C-116.19063635 25.71164778 -111.82278112 23.02358115 -107.4375 20 C-93.50571382 10.47315674 -79.06185256 4.19919401 -63 -1 C-61.81019531 -1.38542969 -60.62039062 -1.77085938 -59.39453125 -2.16796875 C-40.20813679 -7.24461722 -19.0427751 -4.19824533 0 0 Z " fill="#000000" transform="translate(278,78)"/>
<path d="M0 0 C1.27359375 0.2990625 2.5471875 0.598125 3.859375 0.90625 C25.12291177 6.73483368 44.73496449 18.11053168 57.58251953 36.04833984 C59.25540684 38.3516573 60.96809887 40.62277767 62.68359375 42.89453125 C63.97666688 44.61710915 65.26963556 46.33976546 66.5625 48.0625 C67.19494629 48.89620117 67.82739258 49.72990234 68.47900391 50.58886719 C69.35758057 51.76884277 69.35758057 51.76884277 70.25390625 52.97265625 C70.78314697 53.67656494 71.3123877 54.38047363 71.85766602 55.10571289 C73 57 73 57 73 60 C71.948125 60.5775 70.89625 61.155 69.8125 61.75 C65.04157429 64.50356033 61.32413186 67.55285432 57.75 71.75 C52.70017791 77.63778383 47.4551132 83.4103291 40 86 C39.52691406 85.29875 39.05382812 84.5975 38.56640625 83.875 C23.23039001 61.87245038 -1.31217223 51.89374589 -26.9140625 47.0234375 C-38.03710098 45.13132516 -49.17797483 44.67364074 -60.4375 44.5625 C-61.75186035 44.54018311 -63.0662207 44.51786621 -64.42041016 44.49487305 C-73.952879 44.51701931 -81.97471745 46.12327938 -91 49 C-91.79398193 49.25144775 -92.58796387 49.50289551 -93.40600586 49.76196289 C-103.12906849 53.04673208 -114.45525541 57.89457278 -120 67 C-120.43147182 68.98939414 -120.43147182 68.98939414 -120.3125 71 C-120.30863281 71.66 -120.30476563 72.32 -120.30078125 73 C-120.14006952 75.0814189 -120.14006952 75.0814189 -118.75390625 76.7734375 C-118 79 -118 79 -119.4140625 82.5390625 C-120.13520227 83.90949417 -120.87293907 85.27129032 -121.625 86.625 C-126.94139766 96.47089169 -130.57955596 106.13372121 -133.0625 117.0625 C-133.31854004 118.18648193 -133.57458008 119.31046387 -133.83837891 120.46850586 C-139.11575813 144.54927796 -140.41972095 167.2262408 -136.41015625 191.48681641 C-136.03016428 193.81517195 -135.68227584 196.14578974 -135.34375 198.48046875 C-131.93626167 220.96472887 -124.3621647 240.19058399 -105.9765625 254.32421875 C-103.04373023 256.3448709 -100.07573799 258.20515028 -97 260 C-96.03320312 260.56589844 -95.06640625 261.13179688 -94.0703125 261.71484375 C-75.69806784 271.68068999 -55.1616682 271.02626323 -35.546875 265.48657227 C-1.44460809 255.18591578 19.51207144 229.9148129 35.8671875 199.53125 C49.22604881 173.29240319 51.29512811 141.92255507 51 113 C52.32451172 112.27296875 52.32451172 112.27296875 53.67578125 111.53125 C61.52485586 107.16869894 68.86860195 102.48485201 76 97 C76.88429688 96.32066406 77.76859375 95.64132813 78.6796875 94.94140625 C80.79454548 93.30420311 82.90149413 91.65807871 85 90 C101.56914226 121.76760121 105.77975511 174.48638946 95.48828125 208.8125 C92.52939605 217.49970881 88.50150823 226.34182893 82 233 C81.34 233 80.68 233 80 233 C79.67 233.99 79.34 234.98 79 236 C77.2578125 237.71875 77.2578125 237.71875 75.125 239.5 C72.14615469 242.00265321 72.14615469 242.00265321 69.3671875 244.71875 C68 246 68 246 66 246 C66 246.66 66 247.32 66 248 C65.34 248 64.68 248 64 248 C63.67 248.99 63.34 249.98 63 251 C61.5480957 252.37524414 61.5480957 252.37524414 59.67578125 253.78515625 C58.98411865 254.31077148 58.29245605 254.83638672 57.57983398 255.37792969 C56.83161377 255.93383789 56.08339355 256.48974609 55.3125 257.0625 C54.54301025 257.64032227 53.77352051 258.21814453 52.98071289 258.81347656 C50.65962087 260.55027964 48.33018202 262.27542205 46 264 C45.36739258 264.4748584 44.73478516 264.9497168 44.08300781 265.43896484 C7.27692936 293.05881707 -35.07112685 304.23141115 -80.63183594 298.359375 C-86.29596882 297.49982824 -91.61725845 295.9246614 -97 294 C-97.61568848 293.78327637 -98.23137695 293.56655273 -98.86572266 293.34326172 C-107.59472675 290.22654691 -115.3999634 286.36205871 -123 281 C-123.91394531 280.3709375 -124.82789063 279.741875 -125.76953125 279.09375 C-143.14861799 266.84331683 -143.14861799 266.84331683 -146 260 C-146.66 260 -147.32 260 -148 260 C-149.61886247 258.01390975 -151.09988334 256.03526584 -152.5625 253.9375 C-153.00577637 253.3069873 -153.44905273 252.67647461 -153.90576172 252.02685547 C-165.19588545 235.76087799 -175.20720211 218.01170134 -181 199 C-181.21172852 198.30567871 -181.42345703 197.61135742 -181.64160156 196.89599609 C-189.17522977 170.42084467 -187.03963427 138.29700648 -180 112 C-179.76474609 111.09427246 -179.52949219 110.18854492 -179.28710938 109.25537109 C-172.10479075 82.09413723 -159.53557116 54.72495651 -139 35 C-136.734375 33.72265625 -136.734375 33.72265625 -135 33 C-135 33.66 -135 34.32 -135 35 C-131.38923997 36.20358668 -128.79636102 36.32517011 -125 36 C-122.13537116 34.37042596 -122.13537116 34.37042596 -119.625 32 C-118.66980469 31.17242187 -117.71460938 30.34484375 -116.73046875 29.4921875 C-115.1123779 28.01530343 -113.50580684 26.5253512 -111.92578125 25.0078125 C-80.92944187 -4.34432027 -39.95395695 -9.48942642 0 0 Z " fill="#FFFFFF" transform="translate(281,97)"/>
<path d="M0 0 C0.79825195 0.04253906 1.59650391 0.08507812 2.41894531 0.12890625 C29.2928607 1.74944386 56.82519101 7.75197409 76 28 C77.84375 30.5859375 77.84375 30.5859375 79 33 C76.56173674 40.31478979 63.14276058 45.06135465 56.4375 48.4375 C55.75937256 48.77934326 55.08124512 49.12118652 54.38256836 49.47338867 C51.29842645 50.99285881 48.39886326 52.41366275 45 53 C42.703125 51.890625 42.703125 51.890625 40.25 50.25 C29.34814312 43.34014659 16.6888112 40.84556295 3.92578125 43.68359375 C-2.24060009 45.7562547 -7.1266029 48.72928314 -12 53 C-12.59425781 53.47824219 -13.18851563 53.95648438 -13.80078125 54.44921875 C-25.12745325 64.41970386 -27.6251561 78.7528431 -29 93 C-29.103125 94.00546875 -29.20625 95.0109375 -29.3125 96.046875 C-29.8215695 106.03736399 -25.22775643 115.41215883 -19 123 C-11.67980644 130.66309468 -4.07203357 134.03759369 6.5625 134.3125 C20.25715321 134.14467337 31.57787635 127.49436218 41.25 118.1875 C54.02054668 104.78756231 56.43966358 93.9114435 57 76 C58.50626953 75.36384766 58.50626953 75.36384766 60.04296875 74.71484375 C68.11328996 71.26647142 75.87425091 67.60324545 83.5234375 63.28515625 C86 62 86 62 88 62 C88.61929986 77.39648266 86.97102309 91.89351087 84 107 C83.85578613 107.74652832 83.71157227 108.49305664 83.56298828 109.26220703 C80.26451991 125.5706343 72.32625535 140.35087102 62.21875 153.40771484 C61.02041337 154.97333013 59.86899376 156.57450013 58.71875 158.17578125 C44.90992403 177.30878484 26.6907429 189.44585992 3.24804688 193.69091797 C-15.98900579 196.33580379 -30.26240043 192.11929169 -45.8125 180.5625 C-65.75754925 164.33235143 -68.71619931 137.49006116 -71.57421875 113.4140625 C-73.35312534 95.0963593 -70.17110901 75.82013403 -66 58 C-65.76023438 56.77410156 -65.52046875 55.54820312 -65.2734375 54.28515625 C-62.89538705 43.16165857 -58.37876208 33.42945577 -53.18261719 23.34521484 C-52.16144674 21.32016047 -51.22530214 19.28555513 -50.3203125 17.20703125 C-47.37458753 11.06374472 -44.27980301 7.95604929 -37.9375 5.4375 C-35.31728843 4.51848505 -32.67647455 3.73706815 -30 3 C-28.83726562 2.66355469 -27.67453125 2.32710937 -26.4765625 1.98046875 C-17.65591423 -0.22973945 -9.02366777 -0.48628197 0 0 Z " fill="#FFFFFF" transform="translate(228,157)"/>
<path d="M0 0 C0 0.66 0 1.32 0 2 C-0.76183594 2.35191406 -1.52367187 2.70382813 -2.30859375 3.06640625 C-12.45061414 7.86557217 -12.45061414 7.86557217 -21 15 C-22.00173536 18.13240408 -22.00173536 18.13240408 -21 21 C-19.62073227 23.34261608 -19.62073227 23.34261608 -18 25 C-18.66 25.99 -19.32 26.98 -20 28 C-19.81767408 31.82748905 -19.81767408 31.82748905 -18 35 C-11.8881678 35.60026923 -8.1938883 34.0282186 -3 31.1875 C-1.64684519 30.47074271 -0.29268512 29.75587984 1.0625 29.04296875 C1.71347656 28.6979834 2.36445313 28.35299805 3.03515625 27.99755859 C5.96413479 26.51050512 8.96428654 25.25302235 12 24 C11.45857377 35.69480665 6.50849546 43.05959832 -2 51 C-11.58824879 58.12232434 -19.00058712 60.98355843 -31 60 C-34.5 58.75 -34.5 58.75 -37 57 C-37.825 56.505 -38.65 56.01 -39.5 55.5 C-44.2169251 50.7830749 -48.27965335 44.37989867 -48.625 37.5625 C-48 34 -48 34 -46.01953125 32.1328125 C-43.49934064 29.47125723 -43.4064376 27.91677762 -43.0625 24.3125 C-41.54302473 13.7019269 -36.12925061 6.81671536 -28 0 C-19.85707914 -4.97622942 -8.44947704 -4.22473852 0 0 Z " fill="#FFFFFF" transform="translate(259,217)"/>
<path d="M0 0 C1 3 1 3 -0.2578125 5.671875 C-0.87398438 6.68765625 -1.49015625 7.7034375 -2.125 8.75 C-3.08792969 10.35488281 -3.08792969 10.35488281 -4.0703125 11.9921875 C-5.61950425 14.40691958 -7.22034817 16.63283979 -9 18.875 C-11.36112097 21.83747922 -11.36112097 21.83747922 -10.625 25.1953125 C-10.41875 26.12085938 -10.2125 27.04640625 -10 28 C-9.22398437 28.09796875 -8.44796875 28.1959375 -7.6484375 28.296875 C0.75664793 29.46034745 9.01738683 31.04689455 17 34 C17.33 34.66 17.66 35.32 18 36 C17.03900391 35.96519531 17.03900391 35.96519531 16.05859375 35.9296875 C15.19363281 35.91164062 14.32867187 35.89359375 13.4375 35.875 C12.16712891 35.84019531 12.16712891 35.84019531 10.87109375 35.8046875 C7.88303572 35.90669568 7.88303572 35.90669568 4.66015625 36.9609375 C0.75859536 38.06853109 -2.97453159 38.51093962 -7 38.75 C-7.67289062 38.80542969 -8.34578125 38.86085937 -9.0390625 38.91796875 C-13.87546165 39.22607912 -17.48332392 38.52908305 -22 37 C-22.33 35.35 -22.66 33.7 -23 32 C-22.34 32 -21.68 32 -21 32 C-21 31.34 -21 30.68 -21 30 C-19.9171875 28.9790625 -19.9171875 28.9790625 -18.8125 27.9375 C-15.78191878 25.06101613 -14.11950301 21.73522987 -12.19140625 18.06640625 C-10.78938833 15.63470959 -8.97654366 13.97654366 -7 12 C-5.98470459 9.67328135 -4.98511802 7.3396553 -4 5 C-1.8125 2.0625 -1.8125 2.0625 0 0 Z " fill="#FFFFFF" transform="translate(396,120)"/>
<path d="M0 0 C1 3 1 3 -0.2578125 5.671875 C-7.47220525 17.56505803 -7.47220525 17.56505803 -11 22 C-11.66 22 -12.32 22 -13 22 C-11.75348972 17.42946232 -10.29282151 15.29282151 -7 12 C-5.98470459 9.67328135 -4.98511802 7.3396553 -4 5 C-1.8125 2.0625 -1.8125 2.0625 0 0 Z " fill="#E6E6E6" transform="translate(396,120)"/>
<path d="M0 0 C0.33 0.99 0.66 1.98 1 3 C-2.21311475 8.73770492 -2.21311475 8.73770492 -6 10 C-4.6302836 6.00499382 -2.74277578 3.19990508 0 0 Z " fill="#CDCDCD" transform="translate(396,120)"/>
</svg>
